G04 #@! TF.GenerationSoftware,KiCad,Pcbnew,7.0.9*
G04 #@! TF.CreationDate,2023-12-19T12:28:51+08:00*
G04 #@! TF.ProjectId,layer2,6c617965-7232-42e6-9b69-6361645f7063,rev?*
G04 #@! TF.SameCoordinates,Original*
G04 #@! TF.FileFunction,Legend,Top*
G04 #@! TF.FilePolarity,Positive*
%FSLAX46Y46*%
G04 Gerber Fmt 4.6, Leading zero omitted, Abs format (unit mm)*
G04 Created by KiCad (PCBNEW 7.0.9) date 2023-12-19 12:28:51*
%MOMM*%
%LPD*%
G01*
G04 APERTURE LIST*
G04 Aperture macros list*
%AMRoundRect*
0 Rectangle with rounded corners*
0 $1 Rounding radius*
0 $2 $3 $4 $5 $6 $7 $8 $9 X,Y pos of 4 corners*
0 Add a 4 corners polygon primitive as box body*
4,1,4,$2,$3,$4,$5,$6,$7,$8,$9,$2,$3,0*
0 Add four circle primitives for the rounded corners*
1,1,$1+$1,$2,$3*
1,1,$1+$1,$4,$5*
1,1,$1+$1,$6,$7*
1,1,$1+$1,$8,$9*
0 Add four rect primitives between the rounded corners*
20,1,$1+$1,$2,$3,$4,$5,0*
20,1,$1+$1,$4,$5,$6,$7,0*
20,1,$1+$1,$6,$7,$8,$9,0*
20,1,$1+$1,$8,$9,$2,$3,0*%
%AMHorizOval*
0 Thick line with rounded ends*
0 $1 width*
0 $2 $3 position (X,Y) of the first rounded end (center of the circle)*
0 $4 $5 position (X,Y) of the second rounded end (center of the circle)*
0 Add line between two ends*
20,1,$1,$2,$3,$4,$5,0*
0 Add two circle primitives to create the rounded ends*
1,1,$1,$2,$3*
1,1,$1,$4,$5*%
%AMRotRect*
0 Rectangle, with rotation*
0 The origin of the aperture is its center*
0 $1 length*
0 $2 width*
0 $3 Rotation angle, in degrees counterclockwise*
0 Add horizontal line*
21,1,$1,$2,0,0,$3*%
G04 Aperture macros list end*
%ADD10C,0.250000*%
%ADD11C,0.300000*%
%ADD12C,0.150000*%
%ADD13C,0.120000*%
%ADD14RotRect,3.000000X3.000000X302.700000*%
%ADD15C,3.000000*%
%ADD16RoundRect,0.250000X-0.600000X-0.750000X0.600000X-0.750000X0.600000X0.750000X-0.600000X0.750000X0*%
%ADD17O,1.700000X2.000000*%
%ADD18RoundRect,0.150000X0.625000X-0.150000X0.625000X0.150000X-0.625000X0.150000X-0.625000X-0.150000X0*%
%ADD19RoundRect,0.250000X0.650000X-0.350000X0.650000X0.350000X-0.650000X0.350000X-0.650000X-0.350000X0*%
%ADD20RoundRect,0.249999X-1.950001X-1.950001X1.950001X-1.950001X1.950001X1.950001X-1.950001X1.950001X0*%
%ADD21RoundRect,0.250002X-1.699998X-1.699998X1.699998X-1.699998X1.699998X1.699998X-1.699998X1.699998X0*%
%ADD22RoundRect,0.250000X0.285967X-0.896576X0.934238X0.113249X-0.285967X0.896576X-0.934238X-0.113249X0*%
%ADD23HorizOval,1.700000X-0.105190X0.067528X0.105190X-0.067528X0*%
%ADD24C,6.400000*%
%ADD25R,3.000000X3.000000*%
%ADD26RoundRect,0.250000X-1.425000X0.362500X-1.425000X-0.362500X1.425000X-0.362500X1.425000X0.362500X0*%
%ADD27C,4.400000*%
%ADD28C,1.400000*%
%ADD29R,3.500000X3.500000*%
%ADD30C,3.500000*%
G04 APERTURE END LIST*
D10*
G36*
X191037500Y-108180651D02*
G01*
X190867587Y-108231388D01*
X190887672Y-108248090D01*
X190912020Y-108270887D01*
X190934689Y-108294839D01*
X190955678Y-108319946D01*
X190974989Y-108346207D01*
X190992620Y-108373622D01*
X191008572Y-108402192D01*
X191022845Y-108431916D01*
X191035439Y-108462794D01*
X191046353Y-108494827D01*
X191055589Y-108528015D01*
X191063145Y-108562357D01*
X191069022Y-108597853D01*
X191073220Y-108634504D01*
X191075739Y-108672309D01*
X191076578Y-108711269D01*
X191075555Y-108759261D01*
X191072485Y-108805999D01*
X191067369Y-108851482D01*
X191060206Y-108895710D01*
X191050997Y-108938684D01*
X191039742Y-108980403D01*
X191026439Y-109020868D01*
X191011091Y-109060078D01*
X190993696Y-109098033D01*
X190974254Y-109134734D01*
X190952766Y-109170180D01*
X190929231Y-109204372D01*
X190903650Y-109237309D01*
X190876023Y-109268991D01*
X190846348Y-109299419D01*
X190814628Y-109328592D01*
X190780913Y-109356246D01*
X190745410Y-109382116D01*
X190708118Y-109406202D01*
X190669036Y-109428503D01*
X190628166Y-109449020D01*
X190585507Y-109467754D01*
X190541059Y-109484703D01*
X190494822Y-109499868D01*
X190471033Y-109506781D01*
X190446797Y-109513249D01*
X190422113Y-109519270D01*
X190396982Y-109524845D01*
X190371404Y-109529975D01*
X190345379Y-109534658D01*
X190318906Y-109538895D01*
X190291986Y-109542687D01*
X190264619Y-109546032D01*
X190236805Y-109548931D01*
X190208544Y-109551384D01*
X190179835Y-109553391D01*
X190150679Y-109554952D01*
X190121076Y-109556067D01*
X190091026Y-109556736D01*
X190060528Y-109556959D01*
X190030031Y-109556736D01*
X189999983Y-109556067D01*
X189970382Y-109554952D01*
X189941231Y-109553391D01*
X189912527Y-109551384D01*
X189884273Y-109548931D01*
X189856466Y-109546032D01*
X189829108Y-109542687D01*
X189802198Y-109538895D01*
X189775737Y-109534658D01*
X189749724Y-109529975D01*
X189724160Y-109524845D01*
X189699044Y-109519270D01*
X189674376Y-109513249D01*
X189650157Y-109506781D01*
X189626386Y-109499868D01*
X189603064Y-109492508D01*
X189557765Y-109476451D01*
X189514259Y-109458610D01*
X189472547Y-109438985D01*
X189432628Y-109417575D01*
X189394504Y-109394382D01*
X189358173Y-109369404D01*
X189323635Y-109342642D01*
X189307039Y-109328592D01*
X189275244Y-109299419D01*
X189245501Y-109268991D01*
X189217809Y-109237309D01*
X189192168Y-109204372D01*
X189168579Y-109170180D01*
X189147041Y-109134734D01*
X189127554Y-109098033D01*
X189110118Y-109060078D01*
X189094734Y-109020868D01*
X189081401Y-108980403D01*
X189070119Y-108938684D01*
X189060888Y-108895710D01*
X189053709Y-108851482D01*
X189048580Y-108805999D01*
X189045503Y-108759261D01*
X189044478Y-108711269D01*
X189044956Y-108685496D01*
X189046388Y-108659928D01*
X189048777Y-108634563D01*
X189052120Y-108609402D01*
X189056419Y-108584445D01*
X189059439Y-108570218D01*
X189669740Y-108570218D01*
X189670620Y-108596401D01*
X189673260Y-108621595D01*
X189677661Y-108645802D01*
X189686266Y-108676543D01*
X189698002Y-108705527D01*
X189712866Y-108732757D01*
X189730860Y-108758230D01*
X189751983Y-108781949D01*
X189769879Y-108798585D01*
X189789346Y-108813972D01*
X189810422Y-108827844D01*
X189833109Y-108840204D01*
X189857406Y-108851050D01*
X189883313Y-108860383D01*
X189910829Y-108868202D01*
X189939956Y-108874508D01*
X189970693Y-108879300D01*
X190003039Y-108882579D01*
X190036996Y-108884345D01*
X190060528Y-108884681D01*
X190095563Y-108883924D01*
X190129000Y-108881654D01*
X190160836Y-108877871D01*
X190191074Y-108872574D01*
X190219712Y-108865764D01*
X190246751Y-108857440D01*
X190272191Y-108847603D01*
X190296032Y-108836252D01*
X190318273Y-108823388D01*
X190338915Y-108809011D01*
X190351788Y-108798585D01*
X190375115Y-108776184D01*
X190395332Y-108752027D01*
X190412438Y-108726114D01*
X190426434Y-108698446D01*
X190437320Y-108669022D01*
X190445096Y-108637843D01*
X190448887Y-108613307D01*
X190450928Y-108587783D01*
X190451317Y-108570218D01*
X190450442Y-108544145D01*
X190447818Y-108519049D01*
X190443444Y-108494929D01*
X190434891Y-108464289D01*
X190423227Y-108435386D01*
X190408453Y-108408218D01*
X190390569Y-108382788D01*
X190369575Y-108359093D01*
X190351788Y-108342462D01*
X190332212Y-108326967D01*
X190311037Y-108312995D01*
X190288263Y-108300548D01*
X190263889Y-108289625D01*
X190237916Y-108280226D01*
X190210344Y-108272352D01*
X190181173Y-108266001D01*
X190150402Y-108261175D01*
X190118032Y-108257873D01*
X190084063Y-108256094D01*
X190060528Y-108255756D01*
X190025498Y-108256518D01*
X189992078Y-108258804D01*
X189960268Y-108262614D01*
X189930068Y-108267949D01*
X189901478Y-108274807D01*
X189874498Y-108283190D01*
X189849128Y-108293097D01*
X189825368Y-108304528D01*
X189803218Y-108317483D01*
X189782678Y-108331962D01*
X189769879Y-108342462D01*
X189751983Y-108359093D01*
X189730860Y-108382788D01*
X189712866Y-108408218D01*
X189698002Y-108435386D01*
X189686266Y-108464289D01*
X189677661Y-108494929D01*
X189673260Y-108519049D01*
X189670620Y-108544145D01*
X189669740Y-108570218D01*
X189059439Y-108570218D01*
X189061673Y-108559693D01*
X189067882Y-108535144D01*
X189075046Y-108510799D01*
X189083166Y-108486658D01*
X189092241Y-108462721D01*
X189098822Y-108446876D01*
X189109280Y-108423524D01*
X189120274Y-108401095D01*
X189135768Y-108372625D01*
X189152217Y-108345796D01*
X189169619Y-108320609D01*
X189187975Y-108297062D01*
X189207286Y-108275157D01*
X189227550Y-108254892D01*
X189228584Y-108253953D01*
X188536453Y-108255756D01*
X188536453Y-107583477D01*
X191037500Y-107583477D01*
X191037500Y-108180651D01*
G37*
G36*
X191076578Y-106576586D02*
G01*
X191075886Y-106608296D01*
X191073809Y-106639770D01*
X191070348Y-106671007D01*
X191065502Y-106702009D01*
X191059271Y-106732774D01*
X191051656Y-106763303D01*
X191042656Y-106793596D01*
X191032271Y-106823653D01*
X191020502Y-106853474D01*
X191007348Y-106883058D01*
X190997810Y-106902650D01*
X190982177Y-106931383D01*
X190964816Y-106959194D01*
X190945727Y-106986080D01*
X190924909Y-107012044D01*
X190902364Y-107037085D01*
X190878090Y-107061203D01*
X190852089Y-107084398D01*
X190824359Y-107106669D01*
X190794902Y-107128018D01*
X190774303Y-107141738D01*
X190752937Y-107155047D01*
X190741966Y-107161548D01*
X190719461Y-107173970D01*
X190696218Y-107185590D01*
X190672235Y-107196410D01*
X190647512Y-107206427D01*
X190622051Y-107215644D01*
X190595849Y-107224059D01*
X190568909Y-107231672D01*
X190541229Y-107238484D01*
X190512809Y-107244495D01*
X190483650Y-107249704D01*
X190453752Y-107254112D01*
X190423114Y-107257718D01*
X190391737Y-107260523D01*
X190359621Y-107262527D01*
X190326765Y-107263729D01*
X190293169Y-107264130D01*
X189083557Y-107264130D01*
X189083557Y-106591851D01*
X190172880Y-106591851D01*
X190197733Y-106591250D01*
X190229117Y-106588579D01*
X190258498Y-106583770D01*
X190285875Y-106576825D01*
X190311249Y-106567742D01*
X190334619Y-106556522D01*
X190355985Y-106543165D01*
X190375348Y-106527671D01*
X190379876Y-106523463D01*
X190396620Y-106505594D01*
X190414410Y-106481083D01*
X190428712Y-106454157D01*
X190437642Y-106430878D01*
X190444340Y-106406053D01*
X190448805Y-106379682D01*
X190451038Y-106351766D01*
X190451317Y-106337228D01*
X190450200Y-106308568D01*
X190446852Y-106281510D01*
X190441270Y-106256056D01*
X190433456Y-106232204D01*
X190420550Y-106204643D01*
X190404154Y-106179587D01*
X190384271Y-106157035D01*
X190379876Y-106152825D01*
X190361014Y-106137083D01*
X190340148Y-106123439D01*
X190317279Y-106111895D01*
X190292406Y-106102450D01*
X190265530Y-106095103D01*
X190236650Y-106089856D01*
X190205767Y-106086707D01*
X190181289Y-106085724D01*
X190172880Y-106085658D01*
X189083557Y-106085658D01*
X189083557Y-105413990D01*
X191037500Y-105413990D01*
X191037500Y-106010553D01*
X190861645Y-106063676D01*
X190861645Y-106057570D01*
X190887672Y-106083139D01*
X190912020Y-106109624D01*
X190934689Y-106137025D01*
X190955678Y-106165342D01*
X190974989Y-106194575D01*
X190992620Y-106224724D01*
X191008572Y-106255788D01*
X191022845Y-106287769D01*
X191035439Y-106320665D01*
X191046353Y-106354478D01*
X191055589Y-106389206D01*
X191063145Y-106424850D01*
X191069022Y-106461410D01*
X191073220Y-106498886D01*
X191075739Y-106537278D01*
X191076578Y-106576586D01*
G37*
G36*
X191076578Y-104195829D02*
G01*
X191076321Y-104225194D01*
X191075548Y-104254137D01*
X191074260Y-104282658D01*
X191072457Y-104310757D01*
X191070138Y-104338433D01*
X191067305Y-104365687D01*
X191063956Y-104392520D01*
X191060092Y-104418930D01*
X191055713Y-104444917D01*
X191050818Y-104470483D01*
X191045409Y-104495626D01*
X191039484Y-104520348D01*
X191033044Y-104544647D01*
X191026089Y-104568524D01*
X191018618Y-104591978D01*
X191002132Y-104637621D01*
X190983585Y-104681575D01*
X190962977Y-104723841D01*
X190940308Y-104764417D01*
X190915578Y-104803306D01*
X190888788Y-104840505D01*
X190859937Y-104876015D01*
X190829025Y-104909837D01*
X190812796Y-104926115D01*
X190778946Y-104957170D01*
X190743340Y-104986222D01*
X190705978Y-105013270D01*
X190666861Y-105038314D01*
X190625988Y-105061355D01*
X190583360Y-105082392D01*
X190538977Y-105101426D01*
X190516127Y-105110192D01*
X190492838Y-105118456D01*
X190469110Y-105126220D01*
X190444943Y-105133483D01*
X190420338Y-105140245D01*
X190395293Y-105146506D01*
X190369810Y-105152266D01*
X190343888Y-105157526D01*
X190317527Y-105162284D01*
X190290727Y-105166542D01*
X190263488Y-105170298D01*
X190235811Y-105173554D01*
X190207694Y-105176309D01*
X190179139Y-105178563D01*
X190150144Y-105180316D01*
X190120711Y-105181568D01*
X190090839Y-105182320D01*
X190060528Y-105182570D01*
X190030217Y-105182320D01*
X190000345Y-105181568D01*
X189970912Y-105180316D01*
X189941918Y-105178563D01*
X189913362Y-105176309D01*
X189885246Y-105173554D01*
X189857568Y-105170298D01*
X189830329Y-105166542D01*
X189803529Y-105162284D01*
X189777168Y-105157526D01*
X189751246Y-105152266D01*
X189725763Y-105146506D01*
X189700718Y-105140245D01*
X189676113Y-105133483D01*
X189651946Y-105126220D01*
X189628218Y-105118456D01*
X189604929Y-105110192D01*
X189582079Y-105101426D01*
X189537696Y-105082392D01*
X189495068Y-105061355D01*
X189454195Y-105038314D01*
X189415078Y-105013270D01*
X189377717Y-104986222D01*
X189342111Y-104957170D01*
X189308260Y-104926115D01*
X189276318Y-104893138D01*
X189246436Y-104858471D01*
X189218615Y-104822116D01*
X189192855Y-104784073D01*
X189169156Y-104744340D01*
X189147518Y-104702919D01*
X189127940Y-104659809D01*
X189110423Y-104615011D01*
X189094967Y-104568524D01*
X189088012Y-104544647D01*
X189081572Y-104520348D01*
X189075647Y-104495626D01*
X189070238Y-104470483D01*
X189065343Y-104444917D01*
X189060964Y-104418930D01*
X189057100Y-104392520D01*
X189053751Y-104365687D01*
X189050918Y-104338433D01*
X189048599Y-104310757D01*
X189046796Y-104282658D01*
X189045508Y-104254137D01*
X189044735Y-104225194D01*
X189044478Y-104195829D01*
X189044943Y-104158577D01*
X189046338Y-104122079D01*
X189048664Y-104086335D01*
X189051920Y-104051344D01*
X189056106Y-104017107D01*
X189061222Y-103983624D01*
X189067268Y-103950894D01*
X189074245Y-103918919D01*
X189082152Y-103887697D01*
X189090989Y-103857228D01*
X189100756Y-103827514D01*
X189111454Y-103798553D01*
X189123082Y-103770346D01*
X189135640Y-103742892D01*
X189149128Y-103716192D01*
X189163546Y-103690246D01*
X189178671Y-103665061D01*
X189194277Y-103640644D01*
X189210365Y-103616995D01*
X189226935Y-103594114D01*
X189243987Y-103572001D01*
X189261520Y-103550656D01*
X189279535Y-103530079D01*
X189298032Y-103510270D01*
X189317011Y-103491229D01*
X189336472Y-103472956D01*
X189356415Y-103455451D01*
X189376839Y-103438714D01*
X189397745Y-103422746D01*
X189419133Y-103407545D01*
X189441003Y-103393112D01*
X189463354Y-103379447D01*
X189486104Y-103366458D01*
X189509169Y-103354050D01*
X189532549Y-103342224D01*
X189556243Y-103330980D01*
X189580252Y-103320319D01*
X189604576Y-103310239D01*
X189629215Y-103300741D01*
X189654169Y-103291825D01*
X189679438Y-103283491D01*
X189705021Y-103275739D01*
X189730920Y-103268570D01*
X189757133Y-103261982D01*
X189783661Y-103255976D01*
X189810504Y-103250552D01*
X189837661Y-103245710D01*
X189865134Y-103241450D01*
X189865134Y-103910065D01*
X189840233Y-103921733D01*
X189817125Y-103934146D01*
X189795811Y-103947302D01*
X189771691Y-103964795D01*
X189750373Y-103983450D01*
X189731858Y-104003268D01*
X189716146Y-104024248D01*
X189702777Y-104047063D01*
X189691674Y-104072381D01*
X189682837Y-104100205D01*
X189677398Y-104124266D01*
X189673410Y-104149931D01*
X189670873Y-104177198D01*
X189669785Y-104206069D01*
X189669740Y-104213537D01*
X189671304Y-104244907D01*
X189675998Y-104274903D01*
X189683822Y-104303525D01*
X189694774Y-104330773D01*
X189708857Y-104356648D01*
X189726068Y-104381148D01*
X189746409Y-104404275D01*
X189769879Y-104426028D01*
X189789346Y-104441087D01*
X189810422Y-104454664D01*
X189833109Y-104466761D01*
X189857406Y-104477376D01*
X189883313Y-104486510D01*
X189910829Y-104494163D01*
X189939956Y-104500335D01*
X189970693Y-104505025D01*
X190003039Y-104508234D01*
X190036996Y-104509962D01*
X190060528Y-104510292D01*
X190095563Y-104509551D01*
X190129000Y-104507329D01*
X190160836Y-104503626D01*
X190191074Y-104498442D01*
X190219712Y-104491777D01*
X190246751Y-104483630D01*
X190272191Y-104474002D01*
X190296032Y-104462893D01*
X190318273Y-104450303D01*
X190338915Y-104436232D01*
X190351788Y-104426028D01*
X190375115Y-104404275D01*
X190395332Y-104381148D01*
X190412438Y-104356648D01*
X190426434Y-104330773D01*
X190437320Y-104303525D01*
X190445096Y-104274903D01*
X190449762Y-104244907D01*
X190451317Y-104213537D01*
X190450601Y-104184266D01*
X190448454Y-104156597D01*
X190444877Y-104130532D01*
X190439868Y-104106070D01*
X190431594Y-104077746D01*
X190421084Y-104051926D01*
X190408339Y-104028611D01*
X190405521Y-104024248D01*
X190389633Y-104003268D01*
X190370972Y-103983450D01*
X190349538Y-103964795D01*
X190325331Y-103947302D01*
X190303970Y-103934146D01*
X190280833Y-103921733D01*
X190255922Y-103910065D01*
X190255922Y-103241450D01*
X190283395Y-103245710D01*
X190310553Y-103250552D01*
X190337396Y-103255976D01*
X190363924Y-103261982D01*
X190390137Y-103268570D01*
X190416035Y-103275739D01*
X190441619Y-103283491D01*
X190466887Y-103291825D01*
X190491841Y-103300741D01*
X190516480Y-103310239D01*
X190540804Y-103320319D01*
X190564813Y-103330980D01*
X190588508Y-103342224D01*
X190611887Y-103354050D01*
X190634952Y-103366458D01*
X190657702Y-103379447D01*
X190680053Y-103393112D01*
X190701923Y-103407545D01*
X190723311Y-103422746D01*
X190744217Y-103438714D01*
X190764642Y-103455451D01*
X190784584Y-103472956D01*
X190804045Y-103491229D01*
X190823024Y-103510270D01*
X190841521Y-103530079D01*
X190859536Y-103550656D01*
X190877070Y-103572001D01*
X190894121Y-103594114D01*
X190910691Y-103616995D01*
X190926779Y-103640644D01*
X190942386Y-103665061D01*
X190957510Y-103690246D01*
X190971928Y-103716192D01*
X190985417Y-103742892D01*
X190997975Y-103770346D01*
X191009602Y-103798553D01*
X191020300Y-103827514D01*
X191030067Y-103857228D01*
X191038904Y-103887697D01*
X191046811Y-103918919D01*
X191053788Y-103950894D01*
X191059834Y-103983624D01*
X191064951Y-104017107D01*
X191069137Y-104051344D01*
X191072392Y-104086335D01*
X191074718Y-104122079D01*
X191076113Y-104158577D01*
X191076578Y-104195829D01*
G37*
G36*
X191076578Y-102166171D02*
G01*
X191076321Y-102195536D01*
X191075548Y-102224479D01*
X191074260Y-102253000D01*
X191072457Y-102281099D01*
X191070138Y-102308775D01*
X191067305Y-102336029D01*
X191063956Y-102362862D01*
X191060092Y-102389271D01*
X191055713Y-102415259D01*
X191050818Y-102440825D01*
X191045409Y-102465968D01*
X191039484Y-102490690D01*
X191033044Y-102514989D01*
X191026089Y-102538865D01*
X191018618Y-102562320D01*
X191002132Y-102607963D01*
X190983585Y-102651917D01*
X190962977Y-102694183D01*
X190940308Y-102734759D01*
X190915578Y-102773647D01*
X190888788Y-102810847D01*
X190859937Y-102846357D01*
X190829025Y-102880179D01*
X190812796Y-102896457D01*
X190778946Y-102927512D01*
X190743340Y-102956564D01*
X190705978Y-102983612D01*
X190666861Y-103008656D01*
X190625988Y-103031697D01*
X190583360Y-103052734D01*
X190538977Y-103071768D01*
X190516127Y-103080534D01*
X190492838Y-103088798D01*
X190469110Y-103096562D01*
X190444943Y-103103825D01*
X190420338Y-103110587D01*
X190395293Y-103116848D01*
X190369810Y-103122608D01*
X190343888Y-103127868D01*
X190317527Y-103132626D01*
X190290727Y-103136884D01*
X190263488Y-103140640D01*
X190235811Y-103143896D01*
X190207694Y-103146651D01*
X190179139Y-103148905D01*
X190150144Y-103150658D01*
X190120711Y-103151910D01*
X190090839Y-103152662D01*
X190060528Y-103152912D01*
X190030217Y-103152662D01*
X190000345Y-103151910D01*
X189970912Y-103150658D01*
X189941918Y-103148905D01*
X189913362Y-103146651D01*
X189885246Y-103143896D01*
X189857568Y-103140640D01*
X189830329Y-103136884D01*
X189803529Y-103132626D01*
X189777168Y-103127868D01*
X189751246Y-103122608D01*
X189725763Y-103116848D01*
X189700718Y-103110587D01*
X189676113Y-103103825D01*
X189651946Y-103096562D01*
X189628218Y-103088798D01*
X189604929Y-103080534D01*
X189582079Y-103071768D01*
X189537696Y-103052734D01*
X189495068Y-103031697D01*
X189454195Y-103008656D01*
X189415078Y-102983612D01*
X189377717Y-102956564D01*
X189342111Y-102927512D01*
X189308260Y-102896457D01*
X189276318Y-102863479D01*
X189246436Y-102828813D01*
X189218615Y-102792458D01*
X189192855Y-102754415D01*
X189169156Y-102714682D01*
X189147518Y-102673261D01*
X189127940Y-102630151D01*
X189110423Y-102585353D01*
X189094967Y-102538865D01*
X189088012Y-102514989D01*
X189081572Y-102490690D01*
X189075647Y-102465968D01*
X189070238Y-102440825D01*
X189065343Y-102415259D01*
X189060964Y-102389271D01*
X189057100Y-102362862D01*
X189053751Y-102336029D01*
X189050918Y-102308775D01*
X189048599Y-102281099D01*
X189046796Y-102253000D01*
X189045508Y-102224479D01*
X189044735Y-102195536D01*
X189044478Y-102166171D01*
X189044943Y-102128919D01*
X189046338Y-102092421D01*
X189048664Y-102056677D01*
X189051920Y-102021686D01*
X189056106Y-101987449D01*
X189061222Y-101953966D01*
X189067268Y-101921236D01*
X189074245Y-101889261D01*
X189082152Y-101858039D01*
X189090989Y-101827570D01*
X189100756Y-101797856D01*
X189111454Y-101768895D01*
X189123082Y-101740687D01*
X189135640Y-101713234D01*
X189149128Y-101686534D01*
X189163546Y-101660588D01*
X189178671Y-101635403D01*
X189194277Y-101610986D01*
X189210365Y-101587337D01*
X189226935Y-101564456D01*
X189243987Y-101542343D01*
X189261520Y-101520998D01*
X189279535Y-101500421D01*
X189298032Y-101480612D01*
X189317011Y-101461571D01*
X189336472Y-101443298D01*
X189356415Y-101425793D01*
X189376839Y-101409056D01*
X189397745Y-101393087D01*
X189419133Y-101377887D01*
X189441003Y-101363454D01*
X189463354Y-101349789D01*
X189486104Y-101336799D01*
X189509169Y-101324392D01*
X189532549Y-101312566D01*
X189556243Y-101301322D01*
X189580252Y-101290660D01*
X189604576Y-101280581D01*
X189629215Y-101271083D01*
X189654169Y-101262167D01*
X189679438Y-101253833D01*
X189705021Y-101246081D01*
X189730920Y-101238912D01*
X189757133Y-101232324D01*
X189783661Y-101226318D01*
X189810504Y-101220894D01*
X189837661Y-101216052D01*
X189865134Y-101211792D01*
X189865134Y-101880407D01*
X189840233Y-101892075D01*
X189817125Y-101904488D01*
X189795811Y-101917644D01*
X189771691Y-101935137D01*
X189750373Y-101953792D01*
X189731858Y-101973610D01*
X189716146Y-101994590D01*
X189702777Y-102017405D01*
X189691674Y-102042723D01*
X189682837Y-102070546D01*
X189677398Y-102094608D01*
X189673410Y-102120273D01*
X189670873Y-102147540D01*
X189669785Y-102176411D01*
X189669740Y-102183879D01*
X189671304Y-102215248D01*
X189675998Y-102245245D01*
X189683822Y-102273867D01*
X189694774Y-102301115D01*
X189708857Y-102326990D01*
X189726068Y-102351490D01*
X189746409Y-102374617D01*
X189769879Y-102396370D01*
X189789346Y-102411429D01*
X189810422Y-102425006D01*
X189833109Y-102437103D01*
X189857406Y-102447718D01*
X189883313Y-102456852D01*
X189910829Y-102464505D01*
X189939956Y-102470677D01*
X189970693Y-102475367D01*
X190003039Y-102478576D01*
X190036996Y-102480304D01*
X190060528Y-102480634D01*
X190095563Y-102479893D01*
X190129000Y-102477671D01*
X190160836Y-102473968D01*
X190191074Y-102468784D01*
X190219712Y-102462119D01*
X190246751Y-102453972D01*
X190272191Y-102444344D01*
X190296032Y-102433235D01*
X190318273Y-102420645D01*
X190338915Y-102406574D01*
X190351788Y-102396370D01*
X190375115Y-102374617D01*
X190395332Y-102351490D01*
X190412438Y-102326990D01*
X190426434Y-102301115D01*
X190437320Y-102273867D01*
X190445096Y-102245245D01*
X190449762Y-102215248D01*
X190451317Y-102183879D01*
X190450601Y-102154608D01*
X190448454Y-102126939D01*
X190444877Y-102100874D01*
X190439868Y-102076412D01*
X190431594Y-102048088D01*
X190421084Y-102022268D01*
X190408339Y-101998953D01*
X190405521Y-101994590D01*
X190389633Y-101973610D01*
X190370972Y-101953792D01*
X190349538Y-101935137D01*
X190325331Y-101917644D01*
X190303970Y-101904488D01*
X190280833Y-101892075D01*
X190255922Y-101880407D01*
X190255922Y-101211792D01*
X190283395Y-101216052D01*
X190310553Y-101220894D01*
X190337396Y-101226318D01*
X190363924Y-101232324D01*
X190390137Y-101238912D01*
X190416035Y-101246081D01*
X190441619Y-101253833D01*
X190466887Y-101262167D01*
X190491841Y-101271083D01*
X190516480Y-101280581D01*
X190540804Y-101290660D01*
X190564813Y-101301322D01*
X190588508Y-101312566D01*
X190611887Y-101324392D01*
X190634952Y-101336799D01*
X190657702Y-101349789D01*
X190680053Y-101363454D01*
X190701923Y-101377887D01*
X190723311Y-101393087D01*
X190744217Y-101409056D01*
X190764642Y-101425793D01*
X190784584Y-101443298D01*
X190804045Y-101461571D01*
X190823024Y-101480612D01*
X190841521Y-101500421D01*
X190859536Y-101520998D01*
X190877070Y-101542343D01*
X190894121Y-101564456D01*
X190910691Y-101587337D01*
X190926779Y-101610986D01*
X190942386Y-101635403D01*
X190957510Y-101660588D01*
X190971928Y-101686534D01*
X190985417Y-101713234D01*
X190997975Y-101740687D01*
X191009602Y-101768895D01*
X191020300Y-101797856D01*
X191030067Y-101827570D01*
X191038904Y-101858039D01*
X191046811Y-101889261D01*
X191053788Y-101921236D01*
X191059834Y-101953966D01*
X191064951Y-101987449D01*
X191069137Y-102021686D01*
X191072392Y-102056677D01*
X191074718Y-102092421D01*
X191076113Y-102128919D01*
X191076578Y-102166171D01*
G37*
G36*
X191076578Y-100736129D02*
G01*
X191075704Y-100761741D01*
X191073079Y-100786826D01*
X191068705Y-100811386D01*
X191062582Y-100835419D01*
X191054709Y-100858927D01*
X191045087Y-100881909D01*
X191033715Y-100904365D01*
X191020593Y-100926295D01*
X191005722Y-100947699D01*
X190989102Y-100968577D01*
X190977049Y-100982204D01*
X190957817Y-101001409D01*
X190937672Y-101018726D01*
X190916615Y-101034153D01*
X190894646Y-101047691D01*
X190871764Y-101059341D01*
X190847970Y-101069101D01*
X190823264Y-101076972D01*
X190797645Y-101082954D01*
X190771114Y-101087047D01*
X190743671Y-101089251D01*
X190724869Y-101089671D01*
X190696822Y-101088726D01*
X190669699Y-101085892D01*
X190643499Y-101081170D01*
X190618222Y-101074558D01*
X190593868Y-101066057D01*
X190570438Y-101055667D01*
X190547930Y-101043388D01*
X190526345Y-101029220D01*
X190505683Y-101013163D01*
X190485945Y-100995217D01*
X190473299Y-100982204D01*
X190455402Y-100961676D01*
X190439267Y-100940623D01*
X190424891Y-100919043D01*
X190412276Y-100896938D01*
X190401421Y-100874307D01*
X190392326Y-100851150D01*
X190384992Y-100827467D01*
X190379418Y-100803258D01*
X190375604Y-100778523D01*
X190373550Y-100753262D01*
X190373159Y-100736129D01*
X190374039Y-100710523D01*
X190376679Y-100685453D01*
X190381080Y-100660921D01*
X190387241Y-100636924D01*
X190395162Y-100613465D01*
X190404844Y-100590542D01*
X190416285Y-100568156D01*
X190429487Y-100546307D01*
X190444450Y-100524994D01*
X190461172Y-100504218D01*
X190473299Y-100490665D01*
X190492422Y-100471350D01*
X190512468Y-100453936D01*
X190533437Y-100438421D01*
X190555330Y-100424805D01*
X190578145Y-100413090D01*
X190601884Y-100403274D01*
X190626545Y-100395358D01*
X190652130Y-100389342D01*
X190678638Y-100385226D01*
X190706069Y-100383010D01*
X190724869Y-100382588D01*
X190752920Y-100383537D01*
X190780059Y-100386387D01*
X190806286Y-100391137D01*
X190831601Y-100397786D01*
X190856003Y-100406335D01*
X190879493Y-100416784D01*
X190902071Y-100429133D01*
X190923736Y-100443381D01*
X190944489Y-100459529D01*
X190964329Y-100477577D01*
X190977049Y-100490665D01*
X190994836Y-100511083D01*
X191010874Y-100532038D01*
X191025162Y-100553530D01*
X191037700Y-100575558D01*
X191048489Y-100598123D01*
X191057528Y-100621225D01*
X191064818Y-100644864D01*
X191070358Y-100669039D01*
X191074148Y-100693750D01*
X191076190Y-100718999D01*
X191076578Y-100736129D01*
G37*
G36*
X19969968Y-100443263D02*
G01*
X20000016Y-100443932D01*
X20029617Y-100445047D01*
X20058768Y-100446608D01*
X20087472Y-100448615D01*
X20115726Y-100451068D01*
X20143533Y-100453967D01*
X20170891Y-100457312D01*
X20197801Y-100461104D01*
X20224262Y-100465341D01*
X20250275Y-100470024D01*
X20275839Y-100475154D01*
X20300955Y-100480729D01*
X20325623Y-100486750D01*
X20349842Y-100493218D01*
X20373613Y-100500131D01*
X20396935Y-100507491D01*
X20442234Y-100523548D01*
X20485740Y-100541389D01*
X20527452Y-100561014D01*
X20567371Y-100582424D01*
X20605495Y-100605617D01*
X20641826Y-100630595D01*
X20676364Y-100657357D01*
X20692960Y-100671407D01*
X20724755Y-100700580D01*
X20754498Y-100731008D01*
X20782190Y-100762690D01*
X20807831Y-100795627D01*
X20831420Y-100829819D01*
X20852958Y-100865265D01*
X20872445Y-100901966D01*
X20889881Y-100939921D01*
X20905265Y-100979131D01*
X20918598Y-101019596D01*
X20929880Y-101061315D01*
X20939111Y-101104289D01*
X20946290Y-101148517D01*
X20951419Y-101194000D01*
X20954496Y-101240738D01*
X20955521Y-101288730D01*
X20955043Y-101314503D01*
X20953611Y-101340071D01*
X20951222Y-101365436D01*
X20947879Y-101390597D01*
X20943580Y-101415554D01*
X20938326Y-101440306D01*
X20932117Y-101464855D01*
X20924953Y-101489200D01*
X20916833Y-101513341D01*
X20907758Y-101537278D01*
X20901177Y-101553123D01*
X20890719Y-101576475D01*
X20879725Y-101598904D01*
X20864231Y-101627374D01*
X20847782Y-101654203D01*
X20830380Y-101679390D01*
X20812024Y-101702937D01*
X20792713Y-101724842D01*
X20772449Y-101745107D01*
X20771414Y-101746045D01*
X21463546Y-101744243D01*
X21463546Y-102416522D01*
X18962500Y-102416522D01*
X18962500Y-101819348D01*
X19132411Y-101768610D01*
X19112327Y-101751909D01*
X19087979Y-101729112D01*
X19065310Y-101705160D01*
X19044321Y-101680053D01*
X19025010Y-101653792D01*
X19007379Y-101626377D01*
X18991427Y-101597807D01*
X18977154Y-101568083D01*
X18964560Y-101537205D01*
X18953646Y-101505172D01*
X18944410Y-101471984D01*
X18936854Y-101437642D01*
X18935552Y-101429781D01*
X19548682Y-101429781D01*
X19549557Y-101455854D01*
X19552181Y-101480950D01*
X19556555Y-101505070D01*
X19565108Y-101535710D01*
X19576772Y-101564613D01*
X19591546Y-101591781D01*
X19609430Y-101617211D01*
X19630424Y-101640906D01*
X19648211Y-101657537D01*
X19667787Y-101673032D01*
X19688962Y-101687004D01*
X19711736Y-101699451D01*
X19736110Y-101710374D01*
X19762083Y-101719773D01*
X19789655Y-101727647D01*
X19818826Y-101733998D01*
X19849597Y-101738824D01*
X19881967Y-101742126D01*
X19915936Y-101743905D01*
X19939471Y-101744243D01*
X19974501Y-101743481D01*
X20007921Y-101741195D01*
X20039731Y-101737385D01*
X20069931Y-101732050D01*
X20098521Y-101725192D01*
X20125501Y-101716809D01*
X20150871Y-101706902D01*
X20174631Y-101695471D01*
X20196781Y-101682516D01*
X20217321Y-101668037D01*
X20230120Y-101657537D01*
X20248016Y-101640906D01*
X20269139Y-101617211D01*
X20287133Y-101591781D01*
X20301997Y-101564613D01*
X20313733Y-101535710D01*
X20322338Y-101505070D01*
X20326739Y-101480950D01*
X20329379Y-101455854D01*
X20330259Y-101429781D01*
X20329379Y-101403598D01*
X20326739Y-101378404D01*
X20322338Y-101354197D01*
X20313733Y-101323456D01*
X20301997Y-101294472D01*
X20287133Y-101267242D01*
X20269139Y-101241769D01*
X20248016Y-101218050D01*
X20230120Y-101201414D01*
X20210653Y-101186027D01*
X20189577Y-101172155D01*
X20166890Y-101159795D01*
X20142593Y-101148949D01*
X20116686Y-101139616D01*
X20089170Y-101131797D01*
X20060043Y-101125491D01*
X20029306Y-101120699D01*
X19996960Y-101117420D01*
X19963003Y-101115654D01*
X19939471Y-101115318D01*
X19904436Y-101116075D01*
X19870999Y-101118345D01*
X19839163Y-101122128D01*
X19808925Y-101127425D01*
X19780287Y-101134235D01*
X19753248Y-101142559D01*
X19727808Y-101152396D01*
X19703967Y-101163747D01*
X19681726Y-101176611D01*
X19661084Y-101190988D01*
X19648211Y-101201414D01*
X19624884Y-101223815D01*
X19604667Y-101247972D01*
X19587561Y-101273885D01*
X19573565Y-101301553D01*
X19562679Y-101330977D01*
X19554903Y-101362156D01*
X19551112Y-101386692D01*
X19549071Y-101412216D01*
X19548682Y-101429781D01*
X18935552Y-101429781D01*
X18930977Y-101402146D01*
X18926779Y-101365495D01*
X18924260Y-101327690D01*
X18923421Y-101288730D01*
X18924444Y-101240738D01*
X18927514Y-101194000D01*
X18932630Y-101148517D01*
X18939793Y-101104289D01*
X18949002Y-101061315D01*
X18960257Y-101019596D01*
X18973560Y-100979131D01*
X18988908Y-100939921D01*
X19006303Y-100901966D01*
X19025745Y-100865265D01*
X19047233Y-100829819D01*
X19070768Y-100795627D01*
X19096349Y-100762690D01*
X19123976Y-100731008D01*
X19153651Y-100700580D01*
X19185371Y-100671407D01*
X19219086Y-100643753D01*
X19254589Y-100617883D01*
X19291881Y-100593797D01*
X19330963Y-100571496D01*
X19371833Y-100550979D01*
X19414492Y-100532245D01*
X19458940Y-100515296D01*
X19505177Y-100500131D01*
X19528966Y-100493218D01*
X19553202Y-100486750D01*
X19577886Y-100480729D01*
X19603017Y-100475154D01*
X19628595Y-100470024D01*
X19654620Y-100465341D01*
X19681093Y-100461104D01*
X19708013Y-100457312D01*
X19735380Y-100453967D01*
X19763194Y-100451068D01*
X19791455Y-100448615D01*
X19820164Y-100446608D01*
X19849320Y-100445047D01*
X19878923Y-100443932D01*
X19908973Y-100443263D01*
X19939471Y-100443040D01*
X19969968Y-100443263D01*
G37*
G36*
X18923421Y-103423413D02*
G01*
X18924113Y-103391703D01*
X18926190Y-103360229D01*
X18929651Y-103328992D01*
X18934497Y-103297990D01*
X18940728Y-103267225D01*
X18948343Y-103236696D01*
X18957343Y-103206403D01*
X18967728Y-103176346D01*
X18979497Y-103146525D01*
X18992651Y-103116941D01*
X19002189Y-103097349D01*
X19017822Y-103068616D01*
X19035183Y-103040805D01*
X19054272Y-103013919D01*
X19075090Y-102987955D01*
X19097635Y-102962914D01*
X19121909Y-102938796D01*
X19147910Y-102915601D01*
X19175640Y-102893330D01*
X19205097Y-102871981D01*
X19225696Y-102858261D01*
X19247062Y-102844952D01*
X19258033Y-102838451D01*
X19280538Y-102826029D01*
X19303781Y-102814409D01*
X19327764Y-102803589D01*
X19352487Y-102793572D01*
X19377948Y-102784355D01*
X19404150Y-102775940D01*
X19431090Y-102768327D01*
X19458770Y-102761515D01*
X19487190Y-102755504D01*
X19516349Y-102750295D01*
X19546247Y-102745887D01*
X19576885Y-102742281D01*
X19608262Y-102739476D01*
X19640378Y-102737472D01*
X19673234Y-102736270D01*
X19706830Y-102735869D01*
X20916442Y-102735869D01*
X20916442Y-103408148D01*
X19827119Y-103408148D01*
X19802266Y-103408749D01*
X19770882Y-103411420D01*
X19741501Y-103416229D01*
X19714124Y-103423174D01*
X19688750Y-103432257D01*
X19665380Y-103443477D01*
X19644014Y-103456834D01*
X19624651Y-103472328D01*
X19620123Y-103476536D01*
X19603379Y-103494405D01*
X19585589Y-103518916D01*
X19571287Y-103545842D01*
X19562357Y-103569121D01*
X19555659Y-103593946D01*
X19551194Y-103620317D01*
X19548961Y-103648233D01*
X19548682Y-103662771D01*
X19549799Y-103691431D01*
X19553147Y-103718489D01*
X19558729Y-103743943D01*
X19566543Y-103767795D01*
X19579449Y-103795356D01*
X19595845Y-103820412D01*
X19615728Y-103842964D01*
X19620123Y-103847174D01*
X19638985Y-103862916D01*
X19659851Y-103876560D01*
X19682720Y-103888104D01*
X19707593Y-103897549D01*
X19734469Y-103904896D01*
X19763349Y-103910143D01*
X19794232Y-103913292D01*
X19818710Y-103914275D01*
X19827119Y-103914341D01*
X20916442Y-103914341D01*
X20916442Y-104586009D01*
X18962500Y-104586009D01*
X18962500Y-103989446D01*
X19138354Y-103936323D01*
X19138354Y-103942429D01*
X19112327Y-103916860D01*
X19087979Y-103890375D01*
X19065310Y-103862974D01*
X19044321Y-103834657D01*
X19025010Y-103805424D01*
X19007379Y-103775275D01*
X18991427Y-103744211D01*
X18977154Y-103712230D01*
X18964560Y-103679334D01*
X18953646Y-103645521D01*
X18944410Y-103610793D01*
X18936854Y-103575149D01*
X18930977Y-103538589D01*
X18926779Y-103501113D01*
X18924260Y-103462721D01*
X18923421Y-103423413D01*
G37*
G36*
X18923421Y-105804170D02*
G01*
X18923678Y-105774805D01*
X18924451Y-105745862D01*
X18925739Y-105717341D01*
X18927542Y-105689242D01*
X18929861Y-105661566D01*
X18932694Y-105634312D01*
X18936043Y-105607479D01*
X18939907Y-105581069D01*
X18944286Y-105555082D01*
X18949181Y-105529516D01*
X18954590Y-105504373D01*
X18960515Y-105479651D01*
X18966955Y-105455352D01*
X18973910Y-105431475D01*
X18981381Y-105408021D01*
X18997867Y-105362378D01*
X19016414Y-105318424D01*
X19037022Y-105276158D01*
X19059691Y-105235582D01*
X19084421Y-105196693D01*
X19111211Y-105159494D01*
X19140062Y-105123984D01*
X19170974Y-105090162D01*
X19187203Y-105073884D01*
X19221053Y-105042829D01*
X19256659Y-105013777D01*
X19294021Y-104986729D01*
X19333138Y-104961685D01*
X19374011Y-104938644D01*
X19416639Y-104917607D01*
X19461022Y-104898573D01*
X19483872Y-104889807D01*
X19507161Y-104881543D01*
X19530889Y-104873779D01*
X19555056Y-104866516D01*
X19579661Y-104859754D01*
X19604706Y-104853493D01*
X19630189Y-104847733D01*
X19656111Y-104842473D01*
X19682472Y-104837715D01*
X19709272Y-104833457D01*
X19736511Y-104829701D01*
X19764188Y-104826445D01*
X19792305Y-104823690D01*
X19820860Y-104821436D01*
X19849855Y-104819683D01*
X19879288Y-104818431D01*
X19909160Y-104817679D01*
X19939471Y-104817429D01*
X19969782Y-104817679D01*
X19999654Y-104818431D01*
X20029087Y-104819683D01*
X20058081Y-104821436D01*
X20086637Y-104823690D01*
X20114753Y-104826445D01*
X20142431Y-104829701D01*
X20169670Y-104833457D01*
X20196470Y-104837715D01*
X20222831Y-104842473D01*
X20248753Y-104847733D01*
X20274236Y-104853493D01*
X20299281Y-104859754D01*
X20323886Y-104866516D01*
X20348053Y-104873779D01*
X20371781Y-104881543D01*
X20395070Y-104889807D01*
X20417920Y-104898573D01*
X20462303Y-104917607D01*
X20504931Y-104938644D01*
X20545804Y-104961685D01*
X20584921Y-104986729D01*
X20622282Y-105013777D01*
X20657888Y-105042829D01*
X20691739Y-105073884D01*
X20723681Y-105106861D01*
X20753563Y-105141528D01*
X20781384Y-105177883D01*
X20807144Y-105215926D01*
X20830843Y-105255659D01*
X20852481Y-105297080D01*
X20872059Y-105340190D01*
X20889576Y-105384988D01*
X20905032Y-105431475D01*
X20911987Y-105455352D01*
X20918427Y-105479651D01*
X20924352Y-105504373D01*
X20929761Y-105529516D01*
X20934656Y-105555082D01*
X20939035Y-105581069D01*
X20942899Y-105607479D01*
X20946248Y-105634312D01*
X20949081Y-105661566D01*
X20951400Y-105689242D01*
X20953203Y-105717341D01*
X20954491Y-105745862D01*
X20955264Y-105774805D01*
X20955521Y-105804170D01*
X20955056Y-105841422D01*
X20953661Y-105877920D01*
X20951335Y-105913664D01*
X20948079Y-105948655D01*
X20943893Y-105982892D01*
X20938777Y-106016375D01*
X20932731Y-106049105D01*
X20925754Y-106081080D01*
X20917847Y-106112302D01*
X20909010Y-106142771D01*
X20899243Y-106172485D01*
X20888545Y-106201446D01*
X20876917Y-106229653D01*
X20864359Y-106257107D01*
X20850871Y-106283807D01*
X20836453Y-106309753D01*
X20821328Y-106334938D01*
X20805722Y-106359355D01*
X20789634Y-106383004D01*
X20773064Y-106405885D01*
X20756012Y-106427998D01*
X20738479Y-106449343D01*
X20720464Y-106469920D01*
X20701967Y-106489729D01*
X20682988Y-106508770D01*
X20663527Y-106527043D01*
X20643584Y-106544548D01*
X20623160Y-106561285D01*
X20602254Y-106577253D01*
X20580866Y-106592454D01*
X20558996Y-106606887D01*
X20536645Y-106620552D01*
X20513895Y-106633541D01*
X20490830Y-106645949D01*
X20467450Y-106657775D01*
X20443756Y-106669019D01*
X20419747Y-106679680D01*
X20395423Y-106689760D01*
X20370784Y-106699258D01*
X20345830Y-106708174D01*
X20320561Y-106716508D01*
X20294978Y-106724260D01*
X20269079Y-106731429D01*
X20242866Y-106738017D01*
X20216338Y-106744023D01*
X20189495Y-106749447D01*
X20162338Y-106754289D01*
X20134865Y-106758549D01*
X20134865Y-106089934D01*
X20159766Y-106078266D01*
X20182874Y-106065853D01*
X20204188Y-106052697D01*
X20228308Y-106035204D01*
X20249626Y-106016549D01*
X20268141Y-105996731D01*
X20283853Y-105975751D01*
X20297222Y-105952936D01*
X20308325Y-105927618D01*
X20317162Y-105899794D01*
X20322601Y-105875733D01*
X20326589Y-105850068D01*
X20329126Y-105822801D01*
X20330214Y-105793930D01*
X20330259Y-105786462D01*
X20328695Y-105755092D01*
X20324001Y-105725096D01*
X20316177Y-105696474D01*
X20305225Y-105669226D01*
X20291142Y-105643351D01*
X20273931Y-105618851D01*
X20253590Y-105595724D01*
X20230120Y-105573971D01*
X20210653Y-105558912D01*
X20189577Y-105545335D01*
X20166890Y-105533238D01*
X20142593Y-105522623D01*
X20116686Y-105513489D01*
X20089170Y-105505836D01*
X20060043Y-105499664D01*
X20029306Y-105494974D01*
X19996960Y-105491765D01*
X19963003Y-105490037D01*
X19939471Y-105489707D01*
X19904436Y-105490448D01*
X19870999Y-105492670D01*
X19839163Y-105496373D01*
X19808925Y-105501557D01*
X19780287Y-105508222D01*
X19753248Y-105516369D01*
X19727808Y-105525997D01*
X19703967Y-105537106D01*
X19681726Y-105549696D01*
X19661084Y-105563767D01*
X19648211Y-105573971D01*
X19624884Y-105595724D01*
X19604667Y-105618851D01*
X19587561Y-105643351D01*
X19573565Y-105669226D01*
X19562679Y-105696474D01*
X19554903Y-105725096D01*
X19550237Y-105755092D01*
X19548682Y-105786462D01*
X19549398Y-105815733D01*
X19551545Y-105843402D01*
X19555122Y-105869467D01*
X19560131Y-105893929D01*
X19568405Y-105922253D01*
X19578915Y-105948073D01*
X19591660Y-105971388D01*
X19594478Y-105975751D01*
X19610366Y-105996731D01*
X19629027Y-106016549D01*
X19650461Y-106035204D01*
X19674668Y-106052697D01*
X19696029Y-106065853D01*
X19719166Y-106078266D01*
X19744077Y-106089934D01*
X19744077Y-106758549D01*
X19716604Y-106754289D01*
X19689446Y-106749447D01*
X19662603Y-106744023D01*
X19636075Y-106738017D01*
X19609862Y-106731429D01*
X19583964Y-106724260D01*
X19558380Y-106716508D01*
X19533112Y-106708174D01*
X19508158Y-106699258D01*
X19483519Y-106689760D01*
X19459195Y-106679680D01*
X19435186Y-106669019D01*
X19411491Y-106657775D01*
X19388112Y-106645949D01*
X19365047Y-106633541D01*
X19342297Y-106620552D01*
X19319946Y-106606887D01*
X19298076Y-106592454D01*
X19276688Y-106577253D01*
X19255782Y-106561285D01*
X19235357Y-106544548D01*
X19215415Y-106527043D01*
X19195954Y-106508770D01*
X19176975Y-106489729D01*
X19158478Y-106469920D01*
X19140463Y-106449343D01*
X19122929Y-106427998D01*
X19105878Y-106405885D01*
X19089308Y-106383004D01*
X19073220Y-106359355D01*
X19057613Y-106334938D01*
X19042489Y-106309753D01*
X19028071Y-106283807D01*
X19014582Y-106257107D01*
X19002024Y-106229653D01*
X18990397Y-106201446D01*
X18979699Y-106172485D01*
X18969932Y-106142771D01*
X18961095Y-106112302D01*
X18953188Y-106081080D01*
X18946211Y-106049105D01*
X18940165Y-106016375D01*
X18935048Y-105982892D01*
X18930862Y-105948655D01*
X18927607Y-105913664D01*
X18925281Y-105877920D01*
X18923886Y-105841422D01*
X18923421Y-105804170D01*
G37*
G36*
X18923421Y-107833828D02*
G01*
X18923678Y-107804463D01*
X18924451Y-107775520D01*
X18925739Y-107746999D01*
X18927542Y-107718900D01*
X18929861Y-107691224D01*
X18932694Y-107663970D01*
X18936043Y-107637137D01*
X18939907Y-107610728D01*
X18944286Y-107584740D01*
X18949181Y-107559174D01*
X18954590Y-107534031D01*
X18960515Y-107509309D01*
X18966955Y-107485010D01*
X18973910Y-107461134D01*
X18981381Y-107437679D01*
X18997867Y-107392036D01*
X19016414Y-107348082D01*
X19037022Y-107305816D01*
X19059691Y-107265240D01*
X19084421Y-107226352D01*
X19111211Y-107189152D01*
X19140062Y-107153642D01*
X19170974Y-107119820D01*
X19187203Y-107103542D01*
X19221053Y-107072487D01*
X19256659Y-107043435D01*
X19294021Y-107016387D01*
X19333138Y-106991343D01*
X19374011Y-106968302D01*
X19416639Y-106947265D01*
X19461022Y-106928231D01*
X19483872Y-106919465D01*
X19507161Y-106911201D01*
X19530889Y-106903437D01*
X19555056Y-106896174D01*
X19579661Y-106889412D01*
X19604706Y-106883151D01*
X19630189Y-106877391D01*
X19656111Y-106872131D01*
X19682472Y-106867373D01*
X19709272Y-106863115D01*
X19736511Y-106859359D01*
X19764188Y-106856103D01*
X19792305Y-106853348D01*
X19820860Y-106851094D01*
X19849855Y-106849341D01*
X19879288Y-106848089D01*
X19909160Y-106847337D01*
X19939471Y-106847087D01*
X19969782Y-106847337D01*
X19999654Y-106848089D01*
X20029087Y-106849341D01*
X20058081Y-106851094D01*
X20086637Y-106853348D01*
X20114753Y-106856103D01*
X20142431Y-106859359D01*
X20169670Y-106863115D01*
X20196470Y-106867373D01*
X20222831Y-106872131D01*
X20248753Y-106877391D01*
X20274236Y-106883151D01*
X20299281Y-106889412D01*
X20323886Y-106896174D01*
X20348053Y-106903437D01*
X20371781Y-106911201D01*
X20395070Y-106919465D01*
X20417920Y-106928231D01*
X20462303Y-106947265D01*
X20504931Y-106968302D01*
X20545804Y-106991343D01*
X20584921Y-107016387D01*
X20622282Y-107043435D01*
X20657888Y-107072487D01*
X20691739Y-107103542D01*
X20723681Y-107136520D01*
X20753563Y-107171186D01*
X20781384Y-107207541D01*
X20807144Y-107245584D01*
X20830843Y-107285317D01*
X20852481Y-107326738D01*
X20872059Y-107369848D01*
X20889576Y-107414646D01*
X20905032Y-107461134D01*
X20911987Y-107485010D01*
X20918427Y-107509309D01*
X20924352Y-107534031D01*
X20929761Y-107559174D01*
X20934656Y-107584740D01*
X20939035Y-107610728D01*
X20942899Y-107637137D01*
X20946248Y-107663970D01*
X20949081Y-107691224D01*
X20951400Y-107718900D01*
X20953203Y-107746999D01*
X20954491Y-107775520D01*
X20955264Y-107804463D01*
X20955521Y-107833828D01*
X20955056Y-107871080D01*
X20953661Y-107907578D01*
X20951335Y-107943322D01*
X20948079Y-107978313D01*
X20943893Y-108012550D01*
X20938777Y-108046033D01*
X20932731Y-108078763D01*
X20925754Y-108110738D01*
X20917847Y-108141960D01*
X20909010Y-108172429D01*
X20899243Y-108202143D01*
X20888545Y-108231104D01*
X20876917Y-108259312D01*
X20864359Y-108286765D01*
X20850871Y-108313465D01*
X20836453Y-108339411D01*
X20821328Y-108364596D01*
X20805722Y-108389013D01*
X20789634Y-108412662D01*
X20773064Y-108435543D01*
X20756012Y-108457656D01*
X20738479Y-108479001D01*
X20720464Y-108499578D01*
X20701967Y-108519387D01*
X20682988Y-108538428D01*
X20663527Y-108556701D01*
X20643584Y-108574206D01*
X20623160Y-108590943D01*
X20602254Y-108606912D01*
X20580866Y-108622112D01*
X20558996Y-108636545D01*
X20536645Y-108650210D01*
X20513895Y-108663200D01*
X20490830Y-108675607D01*
X20467450Y-108687433D01*
X20443756Y-108698677D01*
X20419747Y-108709339D01*
X20395423Y-108719418D01*
X20370784Y-108728916D01*
X20345830Y-108737832D01*
X20320561Y-108746166D01*
X20294978Y-108753918D01*
X20269079Y-108761087D01*
X20242866Y-108767675D01*
X20216338Y-108773681D01*
X20189495Y-108779105D01*
X20162338Y-108783947D01*
X20134865Y-108788207D01*
X20134865Y-108119592D01*
X20159766Y-108107924D01*
X20182874Y-108095511D01*
X20204188Y-108082355D01*
X20228308Y-108064862D01*
X20249626Y-108046207D01*
X20268141Y-108026389D01*
X20283853Y-108005409D01*
X20297222Y-107982594D01*
X20308325Y-107957276D01*
X20317162Y-107929453D01*
X20322601Y-107905391D01*
X20326589Y-107879726D01*
X20329126Y-107852459D01*
X20330214Y-107823588D01*
X20330259Y-107816120D01*
X20328695Y-107784751D01*
X20324001Y-107754754D01*
X20316177Y-107726132D01*
X20305225Y-107698884D01*
X20291142Y-107673009D01*
X20273931Y-107648509D01*
X20253590Y-107625382D01*
X20230120Y-107603629D01*
X20210653Y-107588570D01*
X20189577Y-107574993D01*
X20166890Y-107562896D01*
X20142593Y-107552281D01*
X20116686Y-107543147D01*
X20089170Y-107535494D01*
X20060043Y-107529322D01*
X20029306Y-107524632D01*
X19996960Y-107521423D01*
X19963003Y-107519695D01*
X19939471Y-107519365D01*
X19904436Y-107520106D01*
X19870999Y-107522328D01*
X19839163Y-107526031D01*
X19808925Y-107531215D01*
X19780287Y-107537880D01*
X19753248Y-107546027D01*
X19727808Y-107555655D01*
X19703967Y-107566764D01*
X19681726Y-107579354D01*
X19661084Y-107593425D01*
X19648211Y-107603629D01*
X19624884Y-107625382D01*
X19604667Y-107648509D01*
X19587561Y-107673009D01*
X19573565Y-107698884D01*
X19562679Y-107726132D01*
X19554903Y-107754754D01*
X19550237Y-107784751D01*
X19548682Y-107816120D01*
X19549398Y-107845391D01*
X19551545Y-107873060D01*
X19555122Y-107899125D01*
X19560131Y-107923587D01*
X19568405Y-107951911D01*
X19578915Y-107977731D01*
X19591660Y-108001046D01*
X19594478Y-108005409D01*
X19610366Y-108026389D01*
X19629027Y-108046207D01*
X19650461Y-108064862D01*
X19674668Y-108082355D01*
X19696029Y-108095511D01*
X19719166Y-108107924D01*
X19744077Y-108119592D01*
X19744077Y-108788207D01*
X19716604Y-108783947D01*
X19689446Y-108779105D01*
X19662603Y-108773681D01*
X19636075Y-108767675D01*
X19609862Y-108761087D01*
X19583964Y-108753918D01*
X19558380Y-108746166D01*
X19533112Y-108737832D01*
X19508158Y-108728916D01*
X19483519Y-108719418D01*
X19459195Y-108709339D01*
X19435186Y-108698677D01*
X19411491Y-108687433D01*
X19388112Y-108675607D01*
X19365047Y-108663200D01*
X19342297Y-108650210D01*
X19319946Y-108636545D01*
X19298076Y-108622112D01*
X19276688Y-108606912D01*
X19255782Y-108590943D01*
X19235357Y-108574206D01*
X19215415Y-108556701D01*
X19195954Y-108538428D01*
X19176975Y-108519387D01*
X19158478Y-108499578D01*
X19140463Y-108479001D01*
X19122929Y-108457656D01*
X19105878Y-108435543D01*
X19089308Y-108412662D01*
X19073220Y-108389013D01*
X19057613Y-108364596D01*
X19042489Y-108339411D01*
X19028071Y-108313465D01*
X19014582Y-108286765D01*
X19002024Y-108259312D01*
X18990397Y-108231104D01*
X18979699Y-108202143D01*
X18969932Y-108172429D01*
X18961095Y-108141960D01*
X18953188Y-108110738D01*
X18946211Y-108078763D01*
X18940165Y-108046033D01*
X18935048Y-108012550D01*
X18930862Y-107978313D01*
X18927607Y-107943322D01*
X18925281Y-107907578D01*
X18923886Y-107871080D01*
X18923421Y-107833828D01*
G37*
G36*
X18923421Y-109263870D02*
G01*
X18924295Y-109238258D01*
X18926920Y-109213173D01*
X18931294Y-109188613D01*
X18937417Y-109164580D01*
X18945290Y-109141072D01*
X18954912Y-109118090D01*
X18966284Y-109095634D01*
X18979406Y-109073704D01*
X18994277Y-109052300D01*
X19010897Y-109031422D01*
X19022950Y-109017795D01*
X19042182Y-108998590D01*
X19062327Y-108981273D01*
X19083384Y-108965846D01*
X19105353Y-108952308D01*
X19128235Y-108940658D01*
X19152029Y-108930898D01*
X19176735Y-108923027D01*
X19202354Y-108917045D01*
X19228885Y-108912952D01*
X19256328Y-108910748D01*
X19275130Y-108910328D01*
X19303177Y-108911273D01*
X19330300Y-108914107D01*
X19356500Y-108918829D01*
X19381777Y-108925441D01*
X19406131Y-108933942D01*
X19429561Y-108944332D01*
X19452069Y-108956611D01*
X19473654Y-108970779D01*
X19494316Y-108986836D01*
X19514054Y-109004782D01*
X19526700Y-109017795D01*
X19544597Y-109038323D01*
X19560732Y-109059376D01*
X19575108Y-109080956D01*
X19587723Y-109103061D01*
X19598578Y-109125692D01*
X19607673Y-109148849D01*
X19615007Y-109172532D01*
X19620581Y-109196741D01*
X19624395Y-109221476D01*
X19626449Y-109246737D01*
X19626840Y-109263870D01*
X19625960Y-109289476D01*
X19623320Y-109314546D01*
X19618919Y-109339078D01*
X19612758Y-109363075D01*
X19604837Y-109386534D01*
X19595155Y-109409457D01*
X19583714Y-109431843D01*
X19570512Y-109453692D01*
X19555549Y-109475005D01*
X19538827Y-109495781D01*
X19526700Y-109509334D01*
X19507577Y-109528649D01*
X19487531Y-109546063D01*
X19466562Y-109561578D01*
X19444669Y-109575194D01*
X19421854Y-109586909D01*
X19398115Y-109596725D01*
X19373454Y-109604641D01*
X19347869Y-109610657D01*
X19321361Y-109614773D01*
X19293930Y-109616989D01*
X19275130Y-109617411D01*
X19247079Y-109616462D01*
X19219940Y-109613612D01*
X19193713Y-109608862D01*
X19168398Y-109602213D01*
X19143996Y-109593664D01*
X19120506Y-109583215D01*
X19097928Y-109570866D01*
X19076263Y-109556618D01*
X19055510Y-109540470D01*
X19035670Y-109522422D01*
X19022950Y-109509334D01*
X19005163Y-109488916D01*
X18989125Y-109467961D01*
X18974837Y-109446469D01*
X18962299Y-109424441D01*
X18951510Y-109401876D01*
X18942471Y-109378774D01*
X18935181Y-109355135D01*
X18929641Y-109330960D01*
X18925851Y-109306249D01*
X18923809Y-109281000D01*
X18923421Y-109263870D01*
G37*
D11*
X42357143Y-107249757D02*
X42214286Y-107178328D01*
X42214286Y-107178328D02*
X42000000Y-107178328D01*
X42000000Y-107178328D02*
X41785714Y-107249757D01*
X41785714Y-107249757D02*
X41642857Y-107392614D01*
X41642857Y-107392614D02*
X41571428Y-107535471D01*
X41571428Y-107535471D02*
X41500000Y-107821185D01*
X41500000Y-107821185D02*
X41500000Y-108035471D01*
X41500000Y-108035471D02*
X41571428Y-108321185D01*
X41571428Y-108321185D02*
X41642857Y-108464042D01*
X41642857Y-108464042D02*
X41785714Y-108606900D01*
X41785714Y-108606900D02*
X42000000Y-108678328D01*
X42000000Y-108678328D02*
X42142857Y-108678328D01*
X42142857Y-108678328D02*
X42357143Y-108606900D01*
X42357143Y-108606900D02*
X42428571Y-108535471D01*
X42428571Y-108535471D02*
X42428571Y-108035471D01*
X42428571Y-108035471D02*
X42142857Y-108035471D01*
X43071428Y-108678328D02*
X43071428Y-107178328D01*
X43071428Y-107178328D02*
X43928571Y-108678328D01*
X43928571Y-108678328D02*
X43928571Y-107178328D01*
X44642857Y-108678328D02*
X44642857Y-107178328D01*
X44642857Y-107178328D02*
X45000000Y-107178328D01*
X45000000Y-107178328D02*
X45214286Y-107249757D01*
X45214286Y-107249757D02*
X45357143Y-107392614D01*
X45357143Y-107392614D02*
X45428572Y-107535471D01*
X45428572Y-107535471D02*
X45500000Y-107821185D01*
X45500000Y-107821185D02*
X45500000Y-108035471D01*
X45500000Y-108035471D02*
X45428572Y-108321185D01*
X45428572Y-108321185D02*
X45357143Y-108464042D01*
X45357143Y-108464042D02*
X45214286Y-108606900D01*
X45214286Y-108606900D02*
X45000000Y-108678328D01*
X45000000Y-108678328D02*
X44642857Y-108678328D01*
X40857143Y-102106900D02*
X42000001Y-102106900D01*
X41428572Y-102678328D02*
X41428572Y-101535471D01*
X43500001Y-102678328D02*
X42642858Y-102678328D01*
X43071429Y-102678328D02*
X43071429Y-101178328D01*
X43071429Y-101178328D02*
X42928572Y-101392614D01*
X42928572Y-101392614D02*
X42785715Y-101535471D01*
X42785715Y-101535471D02*
X42642858Y-101606900D01*
X44071429Y-101321185D02*
X44142857Y-101249757D01*
X44142857Y-101249757D02*
X44285715Y-101178328D01*
X44285715Y-101178328D02*
X44642857Y-101178328D01*
X44642857Y-101178328D02*
X44785715Y-101249757D01*
X44785715Y-101249757D02*
X44857143Y-101321185D01*
X44857143Y-101321185D02*
X44928572Y-101464042D01*
X44928572Y-101464042D02*
X44928572Y-101606900D01*
X44928572Y-101606900D02*
X44857143Y-101821185D01*
X44857143Y-101821185D02*
X44000000Y-102678328D01*
X44000000Y-102678328D02*
X44928572Y-102678328D01*
X45357143Y-101178328D02*
X45857143Y-102678328D01*
X45857143Y-102678328D02*
X46357143Y-101178328D01*
X165357143Y-107249757D02*
X165214286Y-107178328D01*
X165214286Y-107178328D02*
X165000000Y-107178328D01*
X165000000Y-107178328D02*
X164785714Y-107249757D01*
X164785714Y-107249757D02*
X164642857Y-107392614D01*
X164642857Y-107392614D02*
X164571428Y-107535471D01*
X164571428Y-107535471D02*
X164500000Y-107821185D01*
X164500000Y-107821185D02*
X164500000Y-108035471D01*
X164500000Y-108035471D02*
X164571428Y-108321185D01*
X164571428Y-108321185D02*
X164642857Y-108464042D01*
X164642857Y-108464042D02*
X164785714Y-108606900D01*
X164785714Y-108606900D02*
X165000000Y-108678328D01*
X165000000Y-108678328D02*
X165142857Y-108678328D01*
X165142857Y-108678328D02*
X165357143Y-108606900D01*
X165357143Y-108606900D02*
X165428571Y-108535471D01*
X165428571Y-108535471D02*
X165428571Y-108035471D01*
X165428571Y-108035471D02*
X165142857Y-108035471D01*
X166071428Y-108678328D02*
X166071428Y-107178328D01*
X166071428Y-107178328D02*
X166928571Y-108678328D01*
X166928571Y-108678328D02*
X166928571Y-107178328D01*
X167642857Y-108678328D02*
X167642857Y-107178328D01*
X167642857Y-107178328D02*
X168000000Y-107178328D01*
X168000000Y-107178328D02*
X168214286Y-107249757D01*
X168214286Y-107249757D02*
X168357143Y-107392614D01*
X168357143Y-107392614D02*
X168428572Y-107535471D01*
X168428572Y-107535471D02*
X168500000Y-107821185D01*
X168500000Y-107821185D02*
X168500000Y-108035471D01*
X168500000Y-108035471D02*
X168428572Y-108321185D01*
X168428572Y-108321185D02*
X168357143Y-108464042D01*
X168357143Y-108464042D02*
X168214286Y-108606900D01*
X168214286Y-108606900D02*
X168000000Y-108678328D01*
X168000000Y-108678328D02*
X167642857Y-108678328D01*
X163857143Y-102106900D02*
X165000001Y-102106900D01*
X164428572Y-102678328D02*
X164428572Y-101535471D01*
X166500001Y-102678328D02*
X165642858Y-102678328D01*
X166071429Y-102678328D02*
X166071429Y-101178328D01*
X166071429Y-101178328D02*
X165928572Y-101392614D01*
X165928572Y-101392614D02*
X165785715Y-101535471D01*
X165785715Y-101535471D02*
X165642858Y-101606900D01*
X167071429Y-101321185D02*
X167142857Y-101249757D01*
X167142857Y-101249757D02*
X167285715Y-101178328D01*
X167285715Y-101178328D02*
X167642857Y-101178328D01*
X167642857Y-101178328D02*
X167785715Y-101249757D01*
X167785715Y-101249757D02*
X167857143Y-101321185D01*
X167857143Y-101321185D02*
X167928572Y-101464042D01*
X167928572Y-101464042D02*
X167928572Y-101606900D01*
X167928572Y-101606900D02*
X167857143Y-101821185D01*
X167857143Y-101821185D02*
X167000000Y-102678328D01*
X167000000Y-102678328D02*
X167928572Y-102678328D01*
X168357143Y-101178328D02*
X168857143Y-102678328D01*
X168857143Y-102678328D02*
X169357143Y-101178328D01*
D12*
X115804761Y-147812295D02*
X115804761Y-148383723D01*
X115804761Y-148383723D02*
X115766666Y-148498009D01*
X115766666Y-148498009D02*
X115690475Y-148574200D01*
X115690475Y-148574200D02*
X115576190Y-148612295D01*
X115576190Y-148612295D02*
X115499999Y-148612295D01*
X116566666Y-148612295D02*
X116185714Y-148612295D01*
X116185714Y-148612295D02*
X116185714Y-147812295D01*
X117290476Y-148536104D02*
X117252380Y-148574200D01*
X117252380Y-148574200D02*
X117138095Y-148612295D01*
X117138095Y-148612295D02*
X117061904Y-148612295D01*
X117061904Y-148612295D02*
X116947618Y-148574200D01*
X116947618Y-148574200D02*
X116871428Y-148498009D01*
X116871428Y-148498009D02*
X116833333Y-148421819D01*
X116833333Y-148421819D02*
X116795237Y-148269438D01*
X116795237Y-148269438D02*
X116795237Y-148155152D01*
X116795237Y-148155152D02*
X116833333Y-148002771D01*
X116833333Y-148002771D02*
X116871428Y-147926580D01*
X116871428Y-147926580D02*
X116947618Y-147850390D01*
X116947618Y-147850390D02*
X117061904Y-147812295D01*
X117061904Y-147812295D02*
X117138095Y-147812295D01*
X117138095Y-147812295D02*
X117252380Y-147850390D01*
X117252380Y-147850390D02*
X117290476Y-147888485D01*
X117861904Y-147812295D02*
X117861904Y-148383723D01*
X117861904Y-148383723D02*
X117823809Y-148498009D01*
X117823809Y-148498009D02*
X117747618Y-148574200D01*
X117747618Y-148574200D02*
X117633333Y-148612295D01*
X117633333Y-148612295D02*
X117557142Y-148612295D01*
X118623809Y-148612295D02*
X118242857Y-148612295D01*
X118242857Y-148612295D02*
X118242857Y-147812295D01*
X119347619Y-148536104D02*
X119309523Y-148574200D01*
X119309523Y-148574200D02*
X119195238Y-148612295D01*
X119195238Y-148612295D02*
X119119047Y-148612295D01*
X119119047Y-148612295D02*
X119004761Y-148574200D01*
X119004761Y-148574200D02*
X118928571Y-148498009D01*
X118928571Y-148498009D02*
X118890476Y-148421819D01*
X118890476Y-148421819D02*
X118852380Y-148269438D01*
X118852380Y-148269438D02*
X118852380Y-148155152D01*
X118852380Y-148155152D02*
X118890476Y-148002771D01*
X118890476Y-148002771D02*
X118928571Y-147926580D01*
X118928571Y-147926580D02*
X119004761Y-147850390D01*
X119004761Y-147850390D02*
X119119047Y-147812295D01*
X119119047Y-147812295D02*
X119195238Y-147812295D01*
X119195238Y-147812295D02*
X119309523Y-147850390D01*
X119309523Y-147850390D02*
X119347619Y-147888485D01*
X119919047Y-147812295D02*
X119919047Y-148383723D01*
X119919047Y-148383723D02*
X119880952Y-148498009D01*
X119880952Y-148498009D02*
X119804761Y-148574200D01*
X119804761Y-148574200D02*
X119690476Y-148612295D01*
X119690476Y-148612295D02*
X119614285Y-148612295D01*
X120680952Y-148612295D02*
X120300000Y-148612295D01*
X120300000Y-148612295D02*
X120300000Y-147812295D01*
X121404762Y-148536104D02*
X121366666Y-148574200D01*
X121366666Y-148574200D02*
X121252381Y-148612295D01*
X121252381Y-148612295D02*
X121176190Y-148612295D01*
X121176190Y-148612295D02*
X121061904Y-148574200D01*
X121061904Y-148574200D02*
X120985714Y-148498009D01*
X120985714Y-148498009D02*
X120947619Y-148421819D01*
X120947619Y-148421819D02*
X120909523Y-148269438D01*
X120909523Y-148269438D02*
X120909523Y-148155152D01*
X120909523Y-148155152D02*
X120947619Y-148002771D01*
X120947619Y-148002771D02*
X120985714Y-147926580D01*
X120985714Y-147926580D02*
X121061904Y-147850390D01*
X121061904Y-147850390D02*
X121176190Y-147812295D01*
X121176190Y-147812295D02*
X121252381Y-147812295D01*
X121252381Y-147812295D02*
X121366666Y-147850390D01*
X121366666Y-147850390D02*
X121404762Y-147888485D01*
X121976190Y-147812295D02*
X121976190Y-148383723D01*
X121976190Y-148383723D02*
X121938095Y-148498009D01*
X121938095Y-148498009D02*
X121861904Y-148574200D01*
X121861904Y-148574200D02*
X121747619Y-148612295D01*
X121747619Y-148612295D02*
X121671428Y-148612295D01*
X122738095Y-148612295D02*
X122357143Y-148612295D01*
X122357143Y-148612295D02*
X122357143Y-147812295D01*
X123461905Y-148536104D02*
X123423809Y-148574200D01*
X123423809Y-148574200D02*
X123309524Y-148612295D01*
X123309524Y-148612295D02*
X123233333Y-148612295D01*
X123233333Y-148612295D02*
X123119047Y-148574200D01*
X123119047Y-148574200D02*
X123042857Y-148498009D01*
X123042857Y-148498009D02*
X123004762Y-148421819D01*
X123004762Y-148421819D02*
X122966666Y-148269438D01*
X122966666Y-148269438D02*
X122966666Y-148155152D01*
X122966666Y-148155152D02*
X123004762Y-148002771D01*
X123004762Y-148002771D02*
X123042857Y-147926580D01*
X123042857Y-147926580D02*
X123119047Y-147850390D01*
X123119047Y-147850390D02*
X123233333Y-147812295D01*
X123233333Y-147812295D02*
X123309524Y-147812295D01*
X123309524Y-147812295D02*
X123423809Y-147850390D01*
X123423809Y-147850390D02*
X123461905Y-147888485D01*
X148095125Y-163714343D02*
X147494046Y-164100229D01*
X147494046Y-164100229D02*
X147348104Y-164137334D01*
X147348104Y-164137334D02*
X147216509Y-164108642D01*
X147216509Y-164108642D02*
X147099260Y-164014152D01*
X147099260Y-164014152D02*
X147047808Y-163934008D01*
X147793855Y-165096094D02*
X147485146Y-164615231D01*
X147639500Y-164855663D02*
X148481011Y-164315422D01*
X148481011Y-164315422D02*
X148309344Y-164312456D01*
X148309344Y-164312456D02*
X148177748Y-164283763D01*
X148177748Y-164283763D02*
X148086225Y-164229345D01*
X148815446Y-164836358D02*
X149149880Y-165357293D01*
X149149880Y-165357293D02*
X148649224Y-165282595D01*
X148649224Y-165282595D02*
X148726402Y-165402811D01*
X148726402Y-165402811D02*
X148737781Y-165508681D01*
X148737781Y-165508681D02*
X148723435Y-165574478D01*
X148723435Y-165574478D02*
X148669017Y-165666002D01*
X148669017Y-165666002D02*
X148468657Y-165794630D01*
X148468657Y-165794630D02*
X148362787Y-165806010D01*
X148362787Y-165806010D02*
X148296990Y-165791664D01*
X148296990Y-165791664D02*
X148205466Y-165737245D01*
X148205466Y-165737245D02*
X148051112Y-165496814D01*
X148051112Y-165496814D02*
X148039732Y-165390944D01*
X148039732Y-165390944D02*
X148054079Y-165325147D01*
X147813976Y-171901978D02*
X148431393Y-172863705D01*
X147641821Y-172691550D02*
X148603548Y-172074133D01*
X140790852Y-160962338D02*
X141408269Y-161924065D01*
X104190476Y-148404819D02*
X104190476Y-149119104D01*
X104190476Y-149119104D02*
X104142857Y-149261961D01*
X104142857Y-149261961D02*
X104047619Y-149357200D01*
X104047619Y-149357200D02*
X103904762Y-149404819D01*
X103904762Y-149404819D02*
X103809524Y-149404819D01*
X105190476Y-149404819D02*
X104619048Y-149404819D01*
X104904762Y-149404819D02*
X104904762Y-148404819D01*
X104904762Y-148404819D02*
X104809524Y-148547676D01*
X104809524Y-148547676D02*
X104714286Y-148642914D01*
X104714286Y-148642914D02*
X104619048Y-148690533D01*
X106047619Y-148738152D02*
X106047619Y-149404819D01*
X105809524Y-148357200D02*
X105571429Y-149071485D01*
X105571429Y-149071485D02*
X106190476Y-149071485D01*
X84474819Y-145809523D02*
X85189104Y-145809523D01*
X85189104Y-145809523D02*
X85331961Y-145857142D01*
X85331961Y-145857142D02*
X85427200Y-145952380D01*
X85427200Y-145952380D02*
X85474819Y-146095237D01*
X85474819Y-146095237D02*
X85474819Y-146190475D01*
X85474819Y-144809523D02*
X85474819Y-145380951D01*
X85474819Y-145095237D02*
X84474819Y-145095237D01*
X84474819Y-145095237D02*
X84617676Y-145190475D01*
X84617676Y-145190475D02*
X84712914Y-145285713D01*
X84712914Y-145285713D02*
X84760533Y-145380951D01*
X84474819Y-144476189D02*
X84474819Y-143809523D01*
X84474819Y-143809523D02*
X85474819Y-144238094D01*
X127190476Y-183954819D02*
X127190476Y-184669104D01*
X127190476Y-184669104D02*
X127142857Y-184811961D01*
X127142857Y-184811961D02*
X127047619Y-184907200D01*
X127047619Y-184907200D02*
X126904762Y-184954819D01*
X126904762Y-184954819D02*
X126809524Y-184954819D01*
X128190476Y-184954819D02*
X127619048Y-184954819D01*
X127904762Y-184954819D02*
X127904762Y-183954819D01*
X127904762Y-183954819D02*
X127809524Y-184097676D01*
X127809524Y-184097676D02*
X127714286Y-184192914D01*
X127714286Y-184192914D02*
X127619048Y-184240533D01*
X128761905Y-184383390D02*
X128666667Y-184335771D01*
X128666667Y-184335771D02*
X128619048Y-184288152D01*
X128619048Y-184288152D02*
X128571429Y-184192914D01*
X128571429Y-184192914D02*
X128571429Y-184145295D01*
X128571429Y-184145295D02*
X128619048Y-184050057D01*
X128619048Y-184050057D02*
X128666667Y-184002438D01*
X128666667Y-184002438D02*
X128761905Y-183954819D01*
X128761905Y-183954819D02*
X128952381Y-183954819D01*
X128952381Y-183954819D02*
X129047619Y-184002438D01*
X129047619Y-184002438D02*
X129095238Y-184050057D01*
X129095238Y-184050057D02*
X129142857Y-184145295D01*
X129142857Y-184145295D02*
X129142857Y-184192914D01*
X129142857Y-184192914D02*
X129095238Y-184288152D01*
X129095238Y-184288152D02*
X129047619Y-184335771D01*
X129047619Y-184335771D02*
X128952381Y-184383390D01*
X128952381Y-184383390D02*
X128761905Y-184383390D01*
X128761905Y-184383390D02*
X128666667Y-184431009D01*
X128666667Y-184431009D02*
X128619048Y-184478628D01*
X128619048Y-184478628D02*
X128571429Y-184573866D01*
X128571429Y-184573866D02*
X128571429Y-184764342D01*
X128571429Y-184764342D02*
X128619048Y-184859580D01*
X128619048Y-184859580D02*
X128666667Y-184907200D01*
X128666667Y-184907200D02*
X128761905Y-184954819D01*
X128761905Y-184954819D02*
X128952381Y-184954819D01*
X128952381Y-184954819D02*
X129047619Y-184907200D01*
X129047619Y-184907200D02*
X129095238Y-184859580D01*
X129095238Y-184859580D02*
X129142857Y-184764342D01*
X129142857Y-184764342D02*
X129142857Y-184573866D01*
X129142857Y-184573866D02*
X129095238Y-184478628D01*
X129095238Y-184478628D02*
X129047619Y-184431009D01*
X129047619Y-184431009D02*
X128952381Y-184383390D01*
X81666666Y-171054819D02*
X81666666Y-171769104D01*
X81666666Y-171769104D02*
X81619047Y-171911961D01*
X81619047Y-171911961D02*
X81523809Y-172007200D01*
X81523809Y-172007200D02*
X81380952Y-172054819D01*
X81380952Y-172054819D02*
X81285714Y-172054819D01*
X82095238Y-171150057D02*
X82142857Y-171102438D01*
X82142857Y-171102438D02*
X82238095Y-171054819D01*
X82238095Y-171054819D02*
X82476190Y-171054819D01*
X82476190Y-171054819D02*
X82571428Y-171102438D01*
X82571428Y-171102438D02*
X82619047Y-171150057D01*
X82619047Y-171150057D02*
X82666666Y-171245295D01*
X82666666Y-171245295D02*
X82666666Y-171340533D01*
X82666666Y-171340533D02*
X82619047Y-171483390D01*
X82619047Y-171483390D02*
X82047619Y-172054819D01*
X82047619Y-172054819D02*
X82666666Y-172054819D01*
X173666666Y-104304819D02*
X173666666Y-105019104D01*
X173666666Y-105019104D02*
X173619047Y-105161961D01*
X173619047Y-105161961D02*
X173523809Y-105257200D01*
X173523809Y-105257200D02*
X173380952Y-105304819D01*
X173380952Y-105304819D02*
X173285714Y-105304819D01*
X174190476Y-105304819D02*
X174380952Y-105304819D01*
X174380952Y-105304819D02*
X174476190Y-105257200D01*
X174476190Y-105257200D02*
X174523809Y-105209580D01*
X174523809Y-105209580D02*
X174619047Y-105066723D01*
X174619047Y-105066723D02*
X174666666Y-104876247D01*
X174666666Y-104876247D02*
X174666666Y-104495295D01*
X174666666Y-104495295D02*
X174619047Y-104400057D01*
X174619047Y-104400057D02*
X174571428Y-104352438D01*
X174571428Y-104352438D02*
X174476190Y-104304819D01*
X174476190Y-104304819D02*
X174285714Y-104304819D01*
X174285714Y-104304819D02*
X174190476Y-104352438D01*
X174190476Y-104352438D02*
X174142857Y-104400057D01*
X174142857Y-104400057D02*
X174095238Y-104495295D01*
X174095238Y-104495295D02*
X174095238Y-104733390D01*
X174095238Y-104733390D02*
X174142857Y-104828628D01*
X174142857Y-104828628D02*
X174190476Y-104876247D01*
X174190476Y-104876247D02*
X174285714Y-104923866D01*
X174285714Y-104923866D02*
X174476190Y-104923866D01*
X174476190Y-104923866D02*
X174571428Y-104876247D01*
X174571428Y-104876247D02*
X174619047Y-104828628D01*
X174619047Y-104828628D02*
X174666666Y-104733390D01*
X61408889Y-165319988D02*
X62009975Y-165705864D01*
X62009975Y-165705864D02*
X62104467Y-165823111D01*
X62104467Y-165823111D02*
X62133162Y-165954706D01*
X62133162Y-165954706D02*
X62096059Y-166100648D01*
X62096059Y-166100648D02*
X62044609Y-166180793D01*
X62790635Y-165018693D02*
X62481935Y-165499562D01*
X62636285Y-165259128D02*
X61794765Y-164718902D01*
X61794765Y-164718902D02*
X61863532Y-164876222D01*
X61863532Y-164876222D02*
X61892227Y-165007817D01*
X61892227Y-165007817D02*
X61880849Y-165113687D01*
X62235060Y-164209339D02*
X62220713Y-164143541D01*
X62220713Y-164143541D02*
X62232090Y-164037671D01*
X62232090Y-164037671D02*
X62360716Y-163837309D01*
X62360716Y-163837309D02*
X62452238Y-163782890D01*
X62452238Y-163782890D02*
X62518036Y-163768542D01*
X62518036Y-163768542D02*
X62623905Y-163779920D01*
X62623905Y-163779920D02*
X62704050Y-163831370D01*
X62704050Y-163831370D02*
X62798542Y-163948618D01*
X62798542Y-163948618D02*
X62970711Y-164738187D01*
X62970711Y-164738187D02*
X63305136Y-164217246D01*
X104190476Y-140454819D02*
X104190476Y-141169104D01*
X104190476Y-141169104D02*
X104142857Y-141311961D01*
X104142857Y-141311961D02*
X104047619Y-141407200D01*
X104047619Y-141407200D02*
X103904762Y-141454819D01*
X103904762Y-141454819D02*
X103809524Y-141454819D01*
X105190476Y-141454819D02*
X104619048Y-141454819D01*
X104904762Y-141454819D02*
X104904762Y-140454819D01*
X104904762Y-140454819D02*
X104809524Y-140597676D01*
X104809524Y-140597676D02*
X104714286Y-140692914D01*
X104714286Y-140692914D02*
X104619048Y-140740533D01*
X106095238Y-140454819D02*
X105619048Y-140454819D01*
X105619048Y-140454819D02*
X105571429Y-140931009D01*
X105571429Y-140931009D02*
X105619048Y-140883390D01*
X105619048Y-140883390D02*
X105714286Y-140835771D01*
X105714286Y-140835771D02*
X105952381Y-140835771D01*
X105952381Y-140835771D02*
X106047619Y-140883390D01*
X106047619Y-140883390D02*
X106095238Y-140931009D01*
X106095238Y-140931009D02*
X106142857Y-141026247D01*
X106142857Y-141026247D02*
X106142857Y-141264342D01*
X106142857Y-141264342D02*
X106095238Y-141359580D01*
X106095238Y-141359580D02*
X106047619Y-141407200D01*
X106047619Y-141407200D02*
X105952381Y-141454819D01*
X105952381Y-141454819D02*
X105714286Y-141454819D01*
X105714286Y-141454819D02*
X105619048Y-141407200D01*
X105619048Y-141407200D02*
X105571429Y-141359580D01*
X97928571Y-145114700D02*
X99071429Y-145114700D01*
X110928571Y-145114700D02*
X112071429Y-145114700D01*
X111500000Y-145686128D02*
X111500000Y-144543271D01*
X90074819Y-152804166D02*
X89598628Y-153137499D01*
X90074819Y-153375594D02*
X89074819Y-153375594D01*
X89074819Y-153375594D02*
X89074819Y-152994642D01*
X89074819Y-152994642D02*
X89122438Y-152899404D01*
X89122438Y-152899404D02*
X89170057Y-152851785D01*
X89170057Y-152851785D02*
X89265295Y-152804166D01*
X89265295Y-152804166D02*
X89408152Y-152804166D01*
X89408152Y-152804166D02*
X89503390Y-152851785D01*
X89503390Y-152851785D02*
X89551009Y-152899404D01*
X89551009Y-152899404D02*
X89598628Y-152994642D01*
X89598628Y-152994642D02*
X89598628Y-153375594D01*
X89170057Y-152423213D02*
X89122438Y-152375594D01*
X89122438Y-152375594D02*
X89074819Y-152280356D01*
X89074819Y-152280356D02*
X89074819Y-152042261D01*
X89074819Y-152042261D02*
X89122438Y-151947023D01*
X89122438Y-151947023D02*
X89170057Y-151899404D01*
X89170057Y-151899404D02*
X89265295Y-151851785D01*
X89265295Y-151851785D02*
X89360533Y-151851785D01*
X89360533Y-151851785D02*
X89503390Y-151899404D01*
X89503390Y-151899404D02*
X90074819Y-152470832D01*
X90074819Y-152470832D02*
X90074819Y-151851785D01*
X83834819Y-153185118D02*
X83834819Y-153089880D01*
X83834819Y-153089880D02*
X83882438Y-152994642D01*
X83882438Y-152994642D02*
X83930057Y-152947023D01*
X83930057Y-152947023D02*
X84025295Y-152899404D01*
X84025295Y-152899404D02*
X84215771Y-152851785D01*
X84215771Y-152851785D02*
X84453866Y-152851785D01*
X84453866Y-152851785D02*
X84644342Y-152899404D01*
X84644342Y-152899404D02*
X84739580Y-152947023D01*
X84739580Y-152947023D02*
X84787200Y-152994642D01*
X84787200Y-152994642D02*
X84834819Y-153089880D01*
X84834819Y-153089880D02*
X84834819Y-153185118D01*
X84834819Y-153185118D02*
X84787200Y-153280356D01*
X84787200Y-153280356D02*
X84739580Y-153327975D01*
X84739580Y-153327975D02*
X84644342Y-153375594D01*
X84644342Y-153375594D02*
X84453866Y-153423213D01*
X84453866Y-153423213D02*
X84215771Y-153423213D01*
X84215771Y-153423213D02*
X84025295Y-153375594D01*
X84025295Y-153375594D02*
X83930057Y-153327975D01*
X83930057Y-153327975D02*
X83882438Y-153280356D01*
X83882438Y-153280356D02*
X83834819Y-153185118D01*
X84834819Y-151851785D02*
X84358628Y-152185118D01*
X84834819Y-152423213D02*
X83834819Y-152423213D01*
X83834819Y-152423213D02*
X83834819Y-152042261D01*
X83834819Y-152042261D02*
X83882438Y-151947023D01*
X83882438Y-151947023D02*
X83930057Y-151899404D01*
X83930057Y-151899404D02*
X84025295Y-151851785D01*
X84025295Y-151851785D02*
X84168152Y-151851785D01*
X84168152Y-151851785D02*
X84263390Y-151899404D01*
X84263390Y-151899404D02*
X84311009Y-151947023D01*
X84311009Y-151947023D02*
X84358628Y-152042261D01*
X84358628Y-152042261D02*
X84358628Y-152423213D01*
X118690476Y-155954819D02*
X118690476Y-156669104D01*
X118690476Y-156669104D02*
X118642857Y-156811961D01*
X118642857Y-156811961D02*
X118547619Y-156907200D01*
X118547619Y-156907200D02*
X118404762Y-156954819D01*
X118404762Y-156954819D02*
X118309524Y-156954819D01*
X119690476Y-156954819D02*
X119119048Y-156954819D01*
X119404762Y-156954819D02*
X119404762Y-155954819D01*
X119404762Y-155954819D02*
X119309524Y-156097676D01*
X119309524Y-156097676D02*
X119214286Y-156192914D01*
X119214286Y-156192914D02*
X119119048Y-156240533D01*
X120547619Y-155954819D02*
X120357143Y-155954819D01*
X120357143Y-155954819D02*
X120261905Y-156002438D01*
X120261905Y-156002438D02*
X120214286Y-156050057D01*
X120214286Y-156050057D02*
X120119048Y-156192914D01*
X120119048Y-156192914D02*
X120071429Y-156383390D01*
X120071429Y-156383390D02*
X120071429Y-156764342D01*
X120071429Y-156764342D02*
X120119048Y-156859580D01*
X120119048Y-156859580D02*
X120166667Y-156907200D01*
X120166667Y-156907200D02*
X120261905Y-156954819D01*
X120261905Y-156954819D02*
X120452381Y-156954819D01*
X120452381Y-156954819D02*
X120547619Y-156907200D01*
X120547619Y-156907200D02*
X120595238Y-156859580D01*
X120595238Y-156859580D02*
X120642857Y-156764342D01*
X120642857Y-156764342D02*
X120642857Y-156526247D01*
X120642857Y-156526247D02*
X120595238Y-156431009D01*
X120595238Y-156431009D02*
X120547619Y-156383390D01*
X120547619Y-156383390D02*
X120452381Y-156335771D01*
X120452381Y-156335771D02*
X120261905Y-156335771D01*
X120261905Y-156335771D02*
X120166667Y-156383390D01*
X120166667Y-156383390D02*
X120119048Y-156431009D01*
X120119048Y-156431009D02*
X120071429Y-156526247D01*
X113428571Y-141114700D02*
X114571429Y-141114700D01*
X114000000Y-141686128D02*
X114000000Y-140543271D01*
X124428571Y-141114700D02*
X125571429Y-141114700D01*
X50666666Y-104304819D02*
X50666666Y-105019104D01*
X50666666Y-105019104D02*
X50619047Y-105161961D01*
X50619047Y-105161961D02*
X50523809Y-105257200D01*
X50523809Y-105257200D02*
X50380952Y-105304819D01*
X50380952Y-105304819D02*
X50285714Y-105304819D01*
X51285714Y-104733390D02*
X51190476Y-104685771D01*
X51190476Y-104685771D02*
X51142857Y-104638152D01*
X51142857Y-104638152D02*
X51095238Y-104542914D01*
X51095238Y-104542914D02*
X51095238Y-104495295D01*
X51095238Y-104495295D02*
X51142857Y-104400057D01*
X51142857Y-104400057D02*
X51190476Y-104352438D01*
X51190476Y-104352438D02*
X51285714Y-104304819D01*
X51285714Y-104304819D02*
X51476190Y-104304819D01*
X51476190Y-104304819D02*
X51571428Y-104352438D01*
X51571428Y-104352438D02*
X51619047Y-104400057D01*
X51619047Y-104400057D02*
X51666666Y-104495295D01*
X51666666Y-104495295D02*
X51666666Y-104542914D01*
X51666666Y-104542914D02*
X51619047Y-104638152D01*
X51619047Y-104638152D02*
X51571428Y-104685771D01*
X51571428Y-104685771D02*
X51476190Y-104733390D01*
X51476190Y-104733390D02*
X51285714Y-104733390D01*
X51285714Y-104733390D02*
X51190476Y-104781009D01*
X51190476Y-104781009D02*
X51142857Y-104828628D01*
X51142857Y-104828628D02*
X51095238Y-104923866D01*
X51095238Y-104923866D02*
X51095238Y-105114342D01*
X51095238Y-105114342D02*
X51142857Y-105209580D01*
X51142857Y-105209580D02*
X51190476Y-105257200D01*
X51190476Y-105257200D02*
X51285714Y-105304819D01*
X51285714Y-105304819D02*
X51476190Y-105304819D01*
X51476190Y-105304819D02*
X51571428Y-105257200D01*
X51571428Y-105257200D02*
X51619047Y-105209580D01*
X51619047Y-105209580D02*
X51666666Y-105114342D01*
X51666666Y-105114342D02*
X51666666Y-104923866D01*
X51666666Y-104923866D02*
X51619047Y-104828628D01*
X51619047Y-104828628D02*
X51571428Y-104781009D01*
X51571428Y-104781009D02*
X51476190Y-104733390D01*
X75474819Y-165809523D02*
X76189104Y-165809523D01*
X76189104Y-165809523D02*
X76331961Y-165857142D01*
X76331961Y-165857142D02*
X76427200Y-165952380D01*
X76427200Y-165952380D02*
X76474819Y-166095237D01*
X76474819Y-166095237D02*
X76474819Y-166190475D01*
X76474819Y-164809523D02*
X76474819Y-165380951D01*
X76474819Y-165095237D02*
X75474819Y-165095237D01*
X75474819Y-165095237D02*
X75617676Y-165190475D01*
X75617676Y-165190475D02*
X75712914Y-165285713D01*
X75712914Y-165285713D02*
X75760533Y-165380951D01*
X76474819Y-163857142D02*
X76474819Y-164428570D01*
X76474819Y-164142856D02*
X75474819Y-164142856D01*
X75474819Y-164142856D02*
X75617676Y-164238094D01*
X75617676Y-164238094D02*
X75712914Y-164333332D01*
X75712914Y-164333332D02*
X75760533Y-164428570D01*
X127190476Y-171054819D02*
X127190476Y-171769104D01*
X127190476Y-171769104D02*
X127142857Y-171911961D01*
X127142857Y-171911961D02*
X127047619Y-172007200D01*
X127047619Y-172007200D02*
X126904762Y-172054819D01*
X126904762Y-172054819D02*
X126809524Y-172054819D01*
X128190476Y-172054819D02*
X127619048Y-172054819D01*
X127904762Y-172054819D02*
X127904762Y-171054819D01*
X127904762Y-171054819D02*
X127809524Y-171197676D01*
X127809524Y-171197676D02*
X127714286Y-171292914D01*
X127714286Y-171292914D02*
X127619048Y-171340533D01*
X128666667Y-172054819D02*
X128857143Y-172054819D01*
X128857143Y-172054819D02*
X128952381Y-172007200D01*
X128952381Y-172007200D02*
X129000000Y-171959580D01*
X129000000Y-171959580D02*
X129095238Y-171816723D01*
X129095238Y-171816723D02*
X129142857Y-171626247D01*
X129142857Y-171626247D02*
X129142857Y-171245295D01*
X129142857Y-171245295D02*
X129095238Y-171150057D01*
X129095238Y-171150057D02*
X129047619Y-171102438D01*
X129047619Y-171102438D02*
X128952381Y-171054819D01*
X128952381Y-171054819D02*
X128761905Y-171054819D01*
X128761905Y-171054819D02*
X128666667Y-171102438D01*
X128666667Y-171102438D02*
X128619048Y-171150057D01*
X128619048Y-171150057D02*
X128571429Y-171245295D01*
X128571429Y-171245295D02*
X128571429Y-171483390D01*
X128571429Y-171483390D02*
X128619048Y-171578628D01*
X128619048Y-171578628D02*
X128666667Y-171626247D01*
X128666667Y-171626247D02*
X128761905Y-171673866D01*
X128761905Y-171673866D02*
X128952381Y-171673866D01*
X128952381Y-171673866D02*
X129047619Y-171626247D01*
X129047619Y-171626247D02*
X129095238Y-171578628D01*
X129095238Y-171578628D02*
X129142857Y-171483390D01*
X158666666Y-98304819D02*
X158666666Y-99019104D01*
X158666666Y-99019104D02*
X158619047Y-99161961D01*
X158619047Y-99161961D02*
X158523809Y-99257200D01*
X158523809Y-99257200D02*
X158380952Y-99304819D01*
X158380952Y-99304819D02*
X158285714Y-99304819D01*
X159571428Y-98304819D02*
X159380952Y-98304819D01*
X159380952Y-98304819D02*
X159285714Y-98352438D01*
X159285714Y-98352438D02*
X159238095Y-98400057D01*
X159238095Y-98400057D02*
X159142857Y-98542914D01*
X159142857Y-98542914D02*
X159095238Y-98733390D01*
X159095238Y-98733390D02*
X159095238Y-99114342D01*
X159095238Y-99114342D02*
X159142857Y-99209580D01*
X159142857Y-99209580D02*
X159190476Y-99257200D01*
X159190476Y-99257200D02*
X159285714Y-99304819D01*
X159285714Y-99304819D02*
X159476190Y-99304819D01*
X159476190Y-99304819D02*
X159571428Y-99257200D01*
X159571428Y-99257200D02*
X159619047Y-99209580D01*
X159619047Y-99209580D02*
X159666666Y-99114342D01*
X159666666Y-99114342D02*
X159666666Y-98876247D01*
X159666666Y-98876247D02*
X159619047Y-98781009D01*
X159619047Y-98781009D02*
X159571428Y-98733390D01*
X159571428Y-98733390D02*
X159476190Y-98685771D01*
X159476190Y-98685771D02*
X159285714Y-98685771D01*
X159285714Y-98685771D02*
X159190476Y-98733390D01*
X159190476Y-98733390D02*
X159142857Y-98781009D01*
X159142857Y-98781009D02*
X159095238Y-98876247D01*
X173666666Y-98304819D02*
X173666666Y-99019104D01*
X173666666Y-99019104D02*
X173619047Y-99161961D01*
X173619047Y-99161961D02*
X173523809Y-99257200D01*
X173523809Y-99257200D02*
X173380952Y-99304819D01*
X173380952Y-99304819D02*
X173285714Y-99304819D01*
X174619047Y-98304819D02*
X174142857Y-98304819D01*
X174142857Y-98304819D02*
X174095238Y-98781009D01*
X174095238Y-98781009D02*
X174142857Y-98733390D01*
X174142857Y-98733390D02*
X174238095Y-98685771D01*
X174238095Y-98685771D02*
X174476190Y-98685771D01*
X174476190Y-98685771D02*
X174571428Y-98733390D01*
X174571428Y-98733390D02*
X174619047Y-98781009D01*
X174619047Y-98781009D02*
X174666666Y-98876247D01*
X174666666Y-98876247D02*
X174666666Y-99114342D01*
X174666666Y-99114342D02*
X174619047Y-99209580D01*
X174619047Y-99209580D02*
X174571428Y-99257200D01*
X174571428Y-99257200D02*
X174476190Y-99304819D01*
X174476190Y-99304819D02*
X174238095Y-99304819D01*
X174238095Y-99304819D02*
X174142857Y-99257200D01*
X174142857Y-99257200D02*
X174095238Y-99209580D01*
X35666666Y-98304819D02*
X35666666Y-99019104D01*
X35666666Y-99019104D02*
X35619047Y-99161961D01*
X35619047Y-99161961D02*
X35523809Y-99257200D01*
X35523809Y-99257200D02*
X35380952Y-99304819D01*
X35380952Y-99304819D02*
X35285714Y-99304819D01*
X36047619Y-98304819D02*
X36666666Y-98304819D01*
X36666666Y-98304819D02*
X36333333Y-98685771D01*
X36333333Y-98685771D02*
X36476190Y-98685771D01*
X36476190Y-98685771D02*
X36571428Y-98733390D01*
X36571428Y-98733390D02*
X36619047Y-98781009D01*
X36619047Y-98781009D02*
X36666666Y-98876247D01*
X36666666Y-98876247D02*
X36666666Y-99114342D01*
X36666666Y-99114342D02*
X36619047Y-99209580D01*
X36619047Y-99209580D02*
X36571428Y-99257200D01*
X36571428Y-99257200D02*
X36476190Y-99304819D01*
X36476190Y-99304819D02*
X36190476Y-99304819D01*
X36190476Y-99304819D02*
X36095238Y-99257200D01*
X36095238Y-99257200D02*
X36047619Y-99209580D01*
X50666666Y-98304819D02*
X50666666Y-99019104D01*
X50666666Y-99019104D02*
X50619047Y-99161961D01*
X50619047Y-99161961D02*
X50523809Y-99257200D01*
X50523809Y-99257200D02*
X50380952Y-99304819D01*
X50380952Y-99304819D02*
X50285714Y-99304819D01*
X51571428Y-98638152D02*
X51571428Y-99304819D01*
X51333333Y-98257200D02*
X51095238Y-98971485D01*
X51095238Y-98971485D02*
X51714285Y-98971485D01*
X158190476Y-104304819D02*
X158190476Y-105019104D01*
X158190476Y-105019104D02*
X158142857Y-105161961D01*
X158142857Y-105161961D02*
X158047619Y-105257200D01*
X158047619Y-105257200D02*
X157904762Y-105304819D01*
X157904762Y-105304819D02*
X157809524Y-105304819D01*
X159190476Y-105304819D02*
X158619048Y-105304819D01*
X158904762Y-105304819D02*
X158904762Y-104304819D01*
X158904762Y-104304819D02*
X158809524Y-104447676D01*
X158809524Y-104447676D02*
X158714286Y-104542914D01*
X158714286Y-104542914D02*
X158619048Y-104590533D01*
X159809524Y-104304819D02*
X159904762Y-104304819D01*
X159904762Y-104304819D02*
X160000000Y-104352438D01*
X160000000Y-104352438D02*
X160047619Y-104400057D01*
X160047619Y-104400057D02*
X160095238Y-104495295D01*
X160095238Y-104495295D02*
X160142857Y-104685771D01*
X160142857Y-104685771D02*
X160142857Y-104923866D01*
X160142857Y-104923866D02*
X160095238Y-105114342D01*
X160095238Y-105114342D02*
X160047619Y-105209580D01*
X160047619Y-105209580D02*
X160000000Y-105257200D01*
X160000000Y-105257200D02*
X159904762Y-105304819D01*
X159904762Y-105304819D02*
X159809524Y-105304819D01*
X159809524Y-105304819D02*
X159714286Y-105257200D01*
X159714286Y-105257200D02*
X159666667Y-105209580D01*
X159666667Y-105209580D02*
X159619048Y-105114342D01*
X159619048Y-105114342D02*
X159571429Y-104923866D01*
X159571429Y-104923866D02*
X159571429Y-104685771D01*
X159571429Y-104685771D02*
X159619048Y-104495295D01*
X159619048Y-104495295D02*
X159666667Y-104400057D01*
X159666667Y-104400057D02*
X159714286Y-104352438D01*
X159714286Y-104352438D02*
X159809524Y-104304819D01*
X81666666Y-183954819D02*
X81666666Y-184669104D01*
X81666666Y-184669104D02*
X81619047Y-184811961D01*
X81619047Y-184811961D02*
X81523809Y-184907200D01*
X81523809Y-184907200D02*
X81380952Y-184954819D01*
X81380952Y-184954819D02*
X81285714Y-184954819D01*
X82666666Y-184954819D02*
X82095238Y-184954819D01*
X82380952Y-184954819D02*
X82380952Y-183954819D01*
X82380952Y-183954819D02*
X82285714Y-184097676D01*
X82285714Y-184097676D02*
X82190476Y-184192914D01*
X82190476Y-184192914D02*
X82095238Y-184240533D01*
X35666666Y-104304819D02*
X35666666Y-105019104D01*
X35666666Y-105019104D02*
X35619047Y-105161961D01*
X35619047Y-105161961D02*
X35523809Y-105257200D01*
X35523809Y-105257200D02*
X35380952Y-105304819D01*
X35380952Y-105304819D02*
X35285714Y-105304819D01*
X36047619Y-104304819D02*
X36714285Y-104304819D01*
X36714285Y-104304819D02*
X36285714Y-105304819D01*
D13*
X143079522Y-161705046D02*
X140706462Y-163228524D01*
X143079522Y-161705046D02*
X145091894Y-162433302D01*
X140706462Y-163228524D02*
X140530906Y-165361404D01*
X145091894Y-162433302D02*
X149802790Y-169771276D01*
X140530906Y-165361404D02*
X145241802Y-172699378D01*
X149802790Y-169771276D02*
X145241802Y-172699378D01*
X100900000Y-149750000D02*
X100900000Y-151000000D01*
X101190000Y-150040000D02*
X101190000Y-156010000D01*
X101190000Y-156010000D02*
X108810000Y-156010000D01*
X101200000Y-150050000D02*
X101200000Y-150800000D01*
X101200000Y-150800000D02*
X103000000Y-150800000D01*
X101200000Y-152300000D02*
X101950000Y-152300000D01*
X101950000Y-152300000D02*
X101950000Y-155250000D01*
X101950000Y-155250000D02*
X105000000Y-155250000D01*
X102150000Y-149750000D02*
X100900000Y-149750000D01*
X103000000Y-150050000D02*
X101200000Y-150050000D01*
X103000000Y-150800000D02*
X103000000Y-150050000D01*
X104500000Y-150050000D02*
X104500000Y-150800000D01*
X104500000Y-150800000D02*
X105500000Y-150800000D01*
X105500000Y-150050000D02*
X104500000Y-150050000D01*
X105500000Y-150800000D02*
X105500000Y-150050000D01*
X107000000Y-150050000D02*
X107000000Y-150800000D01*
X107000000Y-150800000D02*
X108800000Y-150800000D01*
X108050000Y-152300000D02*
X108050000Y-155250000D01*
X108050000Y-155250000D02*
X105000000Y-155250000D01*
X108800000Y-150050000D02*
X107000000Y-150050000D01*
X108800000Y-150800000D02*
X108800000Y-150050000D01*
X108800000Y-152300000D02*
X108050000Y-152300000D01*
X108810000Y-150040000D02*
X101190000Y-150040000D01*
X108810000Y-156010000D02*
X108810000Y-150040000D01*
X87215000Y-147110000D02*
X87215000Y-146060000D01*
X89715000Y-147110000D02*
X87215000Y-147110000D01*
X87215000Y-146060000D02*
X86225000Y-146060000D01*
X91685000Y-145940000D02*
X91685000Y-144060000D01*
X87215000Y-142890000D02*
X87215000Y-143940000D01*
X89715000Y-142890000D02*
X87215000Y-142890000D01*
X60088005Y-169867593D02*
X61139906Y-170542875D01*
X60488712Y-169780218D02*
X65512587Y-173005365D01*
X65512587Y-173005365D02*
X70979671Y-164489180D01*
X60502529Y-169777205D02*
X61133669Y-170182374D01*
X61133669Y-170182374D02*
X62106075Y-168667638D01*
X62395950Y-170992712D02*
X62801119Y-170361572D01*
X62801119Y-170361572D02*
X65283603Y-171955238D01*
X65283603Y-171955238D02*
X67606574Y-168336701D01*
X60763287Y-168815693D02*
X60088005Y-169867593D01*
X61474935Y-168262468D02*
X60502529Y-169777205D01*
X62106075Y-168667638D02*
X61474935Y-168262468D01*
X62285274Y-167000188D02*
X62916414Y-167405357D01*
X62916414Y-167405357D02*
X64807204Y-164460037D01*
X64176063Y-164054867D02*
X62285274Y-167000188D01*
X64807204Y-164460037D02*
X64176063Y-164054867D01*
X64986402Y-162792587D02*
X65617542Y-163197756D01*
X65617542Y-163197756D02*
X66589948Y-161683020D01*
X67447059Y-163124498D02*
X69929544Y-164718164D01*
X69929544Y-164718164D02*
X67606574Y-168336701D01*
X65958808Y-161277851D02*
X64986402Y-162792587D01*
X66589948Y-161683020D02*
X65958808Y-161277851D01*
X67852228Y-162493358D02*
X67447059Y-163124498D01*
X65955795Y-161264033D02*
X60488712Y-169780218D01*
X70979671Y-164489180D02*
X65955795Y-161264033D01*
X99790000Y-143590000D02*
X99790000Y-146410000D01*
X99790000Y-143590000D02*
X101490000Y-142290000D01*
X99790000Y-146410000D02*
X101490000Y-147710000D01*
X101490000Y-142290000D02*
X110210000Y-142290000D01*
X101490000Y-147710000D02*
X110210000Y-147710000D01*
X110210000Y-142290000D02*
X110210000Y-147710000D01*
X88710000Y-150460436D02*
X88710000Y-154814564D01*
X85290000Y-150460436D02*
X85290000Y-154814564D01*
X125260000Y-147110000D02*
X124560000Y-147110000D01*
X125260000Y-144890000D02*
X113740000Y-144890000D01*
X124560000Y-149160000D02*
X124560000Y-147110000D01*
X124560000Y-149160000D02*
X124030000Y-149160000D01*
X124030000Y-155160000D02*
X124030000Y-149160000D01*
X124030000Y-155160000D02*
X115000000Y-155160000D01*
X114970000Y-155160000D02*
X114970000Y-149160000D01*
X114970000Y-149160000D02*
X114440000Y-149160000D01*
X114440000Y-149160000D02*
X114440000Y-147110000D01*
X114440000Y-147110000D02*
X113740000Y-147110000D01*
X125150000Y-147109999D02*
G75*
G03*
X125321729Y-144903366I-1J1109999D01*
G01*
X113850000Y-144890000D02*
G75*
G03*
X113850000Y-147110000I0J-1110000D01*
G01*
X78215000Y-167610000D02*
X78215000Y-166560000D01*
X80715000Y-167610000D02*
X78215000Y-167610000D01*
X78215000Y-166560000D02*
X77225000Y-166560000D01*
X82685000Y-166440000D02*
X82685000Y-163560000D01*
X78215000Y-162390000D02*
X78215000Y-163440000D01*
X80715000Y-162390000D02*
X78215000Y-162390000D01*
%LPC*%
D14*
X143357043Y-164747279D03*
D15*
X146058245Y-168954833D03*
D16*
X103750000Y-152500000D03*
D17*
X106250000Y-152500000D03*
D18*
X87000000Y-145500000D03*
X87000000Y-144500000D03*
D19*
X90875000Y-146800000D03*
X90875000Y-143200000D03*
D20*
X128000000Y-181000000D03*
X82000000Y-175000000D03*
D21*
X174000000Y-108000000D03*
D22*
X63941829Y-168954881D03*
D23*
X65292393Y-166851080D03*
X66642957Y-164747280D03*
D24*
X102000000Y-78000000D03*
X102000000Y-108000000D03*
X155865000Y-80595000D03*
X132012016Y-147075539D03*
D25*
X102500000Y-145000000D03*
D15*
X107500000Y-145000000D03*
D26*
X87000000Y-149675000D03*
X87000000Y-155600000D03*
D27*
X63306373Y-29782705D03*
D24*
X77987984Y-147075539D03*
X54135100Y-129405000D03*
D28*
X125000000Y-146000000D03*
X114000000Y-146000000D03*
D29*
X122000000Y-141000000D03*
D30*
X117000000Y-141000000D03*
D24*
X108000000Y-108000000D03*
X59637893Y-34301490D03*
D21*
X51000000Y-108000000D03*
D24*
X54135100Y-80595000D03*
D18*
X78000000Y-166000000D03*
X78000000Y-165000000D03*
X78000000Y-164000000D03*
D19*
X81875000Y-167300000D03*
X81875000Y-162700000D03*
D27*
X146693627Y-29782705D03*
D20*
X128000000Y-175000000D03*
D24*
X72133200Y-150854000D03*
X72133200Y-59145700D03*
X27498500Y-72603700D03*
D21*
X159000000Y-102000000D03*
D24*
X137867000Y-150854000D03*
D21*
X174000000Y-102000000D03*
D24*
X182501000Y-72603700D03*
X137867000Y-59145700D03*
D21*
X36000000Y-102000000D03*
D24*
X182501000Y-137396000D03*
X27498500Y-137396000D03*
D21*
X51000000Y-102000000D03*
D24*
X59637900Y-175699000D03*
X150362107Y-34301490D03*
X155865000Y-129405000D03*
X108000000Y-102000000D03*
X108000000Y-132000000D03*
D21*
X159000000Y-108000000D03*
D24*
X102000000Y-102000000D03*
X108000000Y-78000000D03*
D20*
X82000000Y-181000000D03*
D24*
X102000000Y-132000000D03*
X150362000Y-175699000D03*
D21*
X36000000Y-108000000D03*
%LPD*%
M02*
