G04 #@! TF.GenerationSoftware,KiCad,Pcbnew,7.0.9*
G04 #@! TF.CreationDate,2023-12-19T12:28:51+08:00*
G04 #@! TF.ProjectId,layer2,6c617965-7232-42e6-9b69-6361645f7063,rev?*
G04 #@! TF.SameCoordinates,Original*
G04 #@! TF.FileFunction,Profile,NP*
%FSLAX46Y46*%
G04 Gerber Fmt 4.6, Leading zero omitted, Abs format (unit mm)*
G04 Created by KiCad (PCBNEW 7.0.9) date 2023-12-19 12:28:51*
%MOMM*%
%LPD*%
G01*
G04 APERTURE LIST*
G04 #@! TA.AperFunction,Profile*
%ADD10C,0.200000*%
G04 #@! TD*
G04 APERTURE END LIST*
D10*
X29944656Y-64367696D02*
G75*
G03*
X25330811Y-65328595I-1928376J-2298074D01*
G01*
X29944652Y-145632300D02*
X41139374Y-136238813D01*
X151962107Y-175698510D02*
G75*
G03*
X151962107Y-175698510I-1600000J0D01*
G01*
X56500000Y-126500000D02*
X36500000Y-126500000D01*
X147793627Y-29782705D02*
G75*
G03*
X147793627Y-29782705I-1100000J0D01*
G01*
X153500000Y-113500000D02*
X173500000Y-113500000D01*
X73000000Y-110000000D02*
X100000000Y-110000000D01*
X109600000Y-108000000D02*
G75*
G03*
X109600000Y-108000000I-1600000J0D01*
G01*
X73000000Y-100000000D02*
X73000000Y-80000000D01*
X61237893Y-34301490D02*
G75*
G03*
X61237893Y-34301490I-1600000J0D01*
G01*
X25330836Y-144671393D02*
G75*
G03*
X29944652Y-145632300I2685464J1337193D01*
G01*
X157464887Y-80594994D02*
G75*
G03*
X157464887Y-80594994I-1600000J0D01*
G01*
X157903112Y-33430039D02*
G75*
G03*
X146395361Y-26212792I-52903612J-71570661D01*
G01*
X85000000Y-168000000D02*
G75*
G03*
X87000000Y-170000000I2000000J0D01*
G01*
X29098512Y-137396287D02*
G75*
G03*
X29098512Y-137396287I-1600000J0D01*
G01*
X173500000Y-83500000D02*
X173500000Y-96500000D01*
X184101488Y-72603713D02*
G75*
G03*
X184101488Y-72603713I-1600000J0D01*
G01*
X67999969Y-28868535D02*
G75*
G03*
X63604651Y-26212786I-2999969J35D01*
G01*
X68000000Y-51000000D02*
G75*
G03*
X72000000Y-55000000I4000000J0D01*
G01*
X55735113Y-129405006D02*
G75*
G03*
X55735113Y-129405006I-1600000J0D01*
G01*
X77000000Y-69000000D02*
G75*
G03*
X80000000Y-72000000I3000000J0D01*
G01*
X130000000Y-72000000D02*
G75*
G03*
X133000000Y-69000000I0J3000000D01*
G01*
X168860639Y-136238797D02*
G75*
G03*
X161816466Y-136855097I-3213939J-3830203D01*
G01*
X130000000Y-72000000D02*
X80000000Y-72000000D01*
X63762781Y-54578287D02*
G75*
G03*
X63146492Y-47534124I-3830231J3213937D01*
G01*
X153500000Y-126500000D02*
X153500000Y-113500000D01*
X51951774Y-171859366D02*
G75*
G03*
X52096883Y-176569968I1928326J-2298134D01*
G01*
X109600000Y-78000000D02*
G75*
G03*
X109600000Y-78000000I-1600000J0D01*
G01*
X73733166Y-150854251D02*
G75*
G03*
X73733166Y-150854251I-1600000J0D01*
G01*
X153500000Y-96500000D02*
X153500000Y-83500000D01*
X173500000Y-96500000D02*
X153500000Y-96500000D01*
X100000000Y-80000000D02*
X100000000Y-100000000D01*
X41139374Y-73761187D02*
X29944652Y-64367700D01*
X77000000Y-58000000D02*
G75*
G03*
X74000000Y-55000000I-3000000J0D01*
G01*
X36500000Y-126500000D02*
X36500000Y-113500000D01*
X85000000Y-162000000D02*
X85000000Y-168000000D01*
X137000000Y-110000000D02*
X137000000Y-130000000D01*
X73000000Y-80000000D02*
X100000000Y-80000000D01*
X151962107Y-34301490D02*
G75*
G03*
X151962107Y-34301490I-1600000J0D01*
G01*
X73733166Y-59145749D02*
G75*
G03*
X73733166Y-59145749I-1600000J0D01*
G01*
X161816482Y-73144889D02*
G75*
G03*
X168860626Y-73761187I3830218J3213889D01*
G01*
X139466834Y-59145749D02*
G75*
G03*
X139466834Y-59145749I-1600000J0D01*
G01*
X103600000Y-102000000D02*
G75*
G03*
X103600000Y-102000000I-1600000J0D01*
G01*
X100000000Y-100000000D02*
X73000000Y-100000000D01*
X36500000Y-96500000D02*
X36500000Y-83500000D01*
X133000000Y-58000000D02*
X133000000Y-69000000D01*
X110000000Y-130000000D02*
X110000000Y-110000000D01*
X73000000Y-130000000D02*
X73000000Y-110000000D01*
X63762777Y-54578283D02*
X48183534Y-73144903D01*
X142000000Y-28868535D02*
X142000000Y-51000000D01*
X77000000Y-69000000D02*
X77000000Y-58000000D01*
X48183534Y-136855097D02*
X63762777Y-155421717D01*
X125000000Y-168000000D02*
X125000000Y-162000000D01*
X74000000Y-55000000D02*
X72000000Y-55000000D01*
X100000000Y-110000000D02*
X100000000Y-130000000D01*
X110000000Y-100000000D02*
X110000000Y-80000000D01*
X56500000Y-96500000D02*
X36500000Y-96500000D01*
X87000000Y-170000000D02*
X123000000Y-170000000D01*
X180055331Y-145632320D02*
G75*
G03*
X184669188Y-144671405I1928369J2298120D01*
G01*
X103600000Y-108000000D02*
G75*
G03*
X103600000Y-108000000I-1600000J0D01*
G01*
X146853507Y-47534123D02*
X158048228Y-38140637D01*
X113100000Y-180000000D02*
G75*
G03*
X113100000Y-180000000I-8100000J0D01*
G01*
X103600000Y-78000000D02*
G75*
G03*
X103600000Y-78000000I-1600000J0D01*
G01*
X139466834Y-150854251D02*
G75*
G03*
X139466834Y-150854251I-1600000J0D01*
G01*
X157464887Y-129405006D02*
G75*
G03*
X157464887Y-129405006I-1600000J0D01*
G01*
X180055348Y-64367700D02*
X168860626Y-73761187D01*
X109600000Y-132000000D02*
G75*
G03*
X109600000Y-132000000I-1600000J0D01*
G01*
X138000000Y-55000000D02*
G75*
G03*
X142000000Y-51000000I0J4000000D01*
G01*
X123000000Y-160000000D02*
X87000000Y-160000000D01*
X146237223Y-155421717D02*
X161816466Y-136855097D01*
X137000000Y-80000000D02*
X137000000Y-100000000D01*
X41139377Y-73761184D02*
G75*
G03*
X48183533Y-73144902I3213943J3830154D01*
G01*
X173500000Y-126500000D02*
X153500000Y-126500000D01*
X184669189Y-144671405D02*
G75*
G03*
X184669189Y-65328595I-79669189J39671405D01*
G01*
X25330811Y-65328595D02*
G75*
G03*
X25330811Y-144671405I79669189J-39671405D01*
G01*
X110000000Y-80000000D02*
X137000000Y-80000000D01*
X137000000Y-100000000D02*
X110000000Y-100000000D01*
X136000000Y-55000000D02*
G75*
G03*
X133000000Y-58000000I0J-3000000D01*
G01*
X56500000Y-83500000D02*
X56500000Y-96500000D01*
X56500000Y-113500000D02*
X56500000Y-126500000D01*
X157903119Y-176569970D02*
G75*
G03*
X158048228Y-171859363I-1783219J2412470D01*
G01*
X63604653Y-26212790D02*
G75*
G03*
X52096883Y-33430033I41395247J-78787110D01*
G01*
X51951772Y-38140637D02*
X63146493Y-47534123D01*
X109600000Y-102000000D02*
G75*
G03*
X109600000Y-102000000I-1600000J0D01*
G01*
X153500000Y-83500000D02*
X173500000Y-83500000D01*
X137000000Y-130000000D02*
X110000000Y-130000000D01*
X52096883Y-176569968D02*
G75*
G03*
X157903117Y-176569968I52903117J71569971D01*
G01*
X146237219Y-155421713D02*
G75*
G03*
X146853508Y-162465876I3830231J-3213937D01*
G01*
X29098512Y-72603713D02*
G75*
G03*
X29098512Y-72603713I-1600000J0D01*
G01*
X48183518Y-136855111D02*
G75*
G03*
X41139374Y-136238813I-3830218J-3213889D01*
G01*
X184101488Y-137396287D02*
G75*
G03*
X184101488Y-137396287I-1600000J0D01*
G01*
X123000000Y-170000000D02*
G75*
G03*
X125000000Y-168000000I0J2000000D01*
G01*
X63146493Y-162465877D02*
X51951772Y-171859363D01*
X146395375Y-26212765D02*
G75*
G03*
X142000000Y-28868535I-1395375J-2655735D01*
G01*
X61237893Y-175698510D02*
G75*
G03*
X61237893Y-175698510I-1600000J0D01*
G01*
X184669164Y-65328607D02*
G75*
G03*
X180055348Y-64367700I-2685464J-1337193D01*
G01*
X64406373Y-29782705D02*
G75*
G03*
X64406373Y-29782705I-1100000J0D01*
G01*
X138000000Y-55000000D02*
X136000000Y-55000000D01*
X161816466Y-73144903D02*
X146237223Y-54578283D01*
X158048226Y-38140634D02*
G75*
G03*
X157903117Y-33430032I-1928326J2298134D01*
G01*
X63146496Y-162465881D02*
G75*
G03*
X63762777Y-155421717I-3213926J3830221D01*
G01*
X36500000Y-83500000D02*
X56500000Y-83500000D01*
X87000000Y-160000000D02*
G75*
G03*
X85000000Y-162000000I0J-2000000D01*
G01*
X52096881Y-33430030D02*
G75*
G03*
X51951772Y-38140637I1783219J-2412470D01*
G01*
X100000000Y-130000000D02*
X73000000Y-130000000D01*
X36500000Y-113500000D02*
X56500000Y-113500000D01*
X173500000Y-113500000D02*
X173500000Y-126500000D01*
X125000000Y-162000000D02*
G75*
G03*
X123000000Y-160000000I-2000000J0D01*
G01*
X110000000Y-110000000D02*
X137000000Y-110000000D01*
X146853504Y-47534119D02*
G75*
G03*
X146237223Y-54578283I3213926J-3830221D01*
G01*
X103600000Y-132000000D02*
G75*
G03*
X103600000Y-132000000I-1600000J0D01*
G01*
X55735113Y-80594994D02*
G75*
G03*
X55735113Y-80594994I-1600000J0D01*
G01*
X68000000Y-51000000D02*
X68000000Y-28868535D01*
X168860626Y-136238813D02*
X180055348Y-145632300D01*
X158048228Y-171859363D02*
X146853507Y-162465877D01*
M02*
