0
SECTION
2
HEADER
9
$INSUNITS
70
4
9
$ACADVER
1
AC1014
9
$HANDSEED
5
FFFF
0
ENDSEC
0
SECTION
2
TABLES
0
TABLE
2
VPORT
5
8
100
AcDbSymbolTable
0
ENDTAB
0
TABLE
2
LTYPE
5
5
100
AcDbSymbolTable
0
LTYPE
5
14
100
AcDbSymbolTableRecord
100
AcDbLinetypeTableRecord
2
BYBLOCK
70
0
0
LTYPE
5
15
100
AcDbSymbolTableRecord
100
AcDbLinetypeTableRecord
2
BYLAYER
70
0
0
ENDTAB
0
TABLE
2
LAYER
5
2
100
AcDbSymbolTable
70
2
0
LAYER
5
50
100
AcDbSymbolTableRecord
100
AcDbLayerTableRecord
2
0
70
0
6
CONTINUOUS
0
ENDTAB
0
TABLE
2
STYLE
5
3
100
AcDbSymbolTable
70
1
0
STYLE
5
11
100
AcDbSymbolTableRecord
100
AcDbTextStyleTableRecord
2
STANDARD
70
0
0
ENDTAB
0
TABLE
2
VIEW
5
6
100
AcDbSymbolTable
70
0
0
ENDTAB
0
TABLE
2
UCS
5
7
100
AcDbSymbolTable
70
0
0
ENDTAB
0
TABLE
2
APPID
5
9
100
AcDbSymbolTable
70
2
0
APPID
5
12
100
AcDbSymbolTableRecord
100
AcDbRegAppTableRecord
2
ACAD
70
0
0
ENDTAB
0
TABLE
2
DIMSTYLE
5
A
100
AcDbSymbolTable
70
1
0
ENDTAB
0
TABLE
2
BLOCK_RECORD
5
1
100
AcDbSymbolTable
70
1
0
BLOCK_RECORD
5
1F
100
AcDbSymbolTableRecord
100
AcDbBlockTableRecord
2
*MODEL_SPACE
0
BLOCK_RECORD
5
1B
100
AcDbSymbolTableRecord
100
AcDbBlockTableRecord
2
*PAPER_SPACE
0
ENDTAB
0
ENDSEC
0
SECTION
2
BLOCKS
0
BLOCK
5
20
100
AcDbEntity
100
AcDbBlockBegin
2
*MODEL_SPACE
0
ENDBLK
5
21
100
AcDbEntity
100
AcDbBlockEnd
0
BLOCK
5
1C
100
AcDbEntity
100
AcDbBlockBegin
2
*PAPER_SPACE
0
ENDBLK
5
1D
100
AcDbEntity
100
AcDbBlockEnd
0
ENDSEC
0
SECTION
2
ENTITIES
0
LWPOLYLINE
5
100
100
AcDbEntity
8
0
100
AcDbPolyline
90
354
70
1
43
0.0
10
-65.615680999999995
20
42.197342000000006
10
-65.278659000000005
20
42.146455000000003
10
-64.938040000000001
20
42.134124999999997
10
-64.598220999999995
20
42.160511000000007
10
-64.263587999999999
20
42.225272000000004
10
-63.938461000000004
20
42.327573000000001
10
-63.627035999999997
20
42.466093000000001
10
-63.333333000000003
20
42.639044000000005
10
-61.896304999999998
20
43.62352700000001
10
-60.482529000000007
20
44.641118000000006
10
-59.092765999999997
20
45.691267000000011
10
-57.727766000000003
20
46.773409000000001
10
-56.388266000000009
20
47.886960000000009
10
-55.074989000000009
20
49.031319000000011
10
-53.78864200000001
20
50.205869000000007
10
-52.529919999999997
20
51.409976
10
-51.299501000000006
20
52.642991000000009
10
-50.098050000000001
20
53.90424800000001
10
-48.926214000000002
20
55.193067999999997
10
-47.784626000000003
20
56.508754000000003
10
-46.673901000000001
20
57.850597999999998
10
-45.594638000000003
20
59.217876000000004
10
-44.547420000000002
20
60.609849000000004
10
-43.532811000000002
20
62.025767000000009
10
-42.551360000000003
20
63.464866999999998
10
-41.603594000000001
20
64.926372000000015
10
-40.690026000000003
20
66.409492999999998
10
-39.811149
20
67.913431000000003
10
-38.967435000000002
20
69.437374000000005
10
-38.159342000000002
20
70.980501000000004
10
-37.387303000000003
20
72.541978
10
-36.651736999999997
20
74.120964000000001
10
-35.953038999999997
20
75.716606999999996
10
-35.291586000000009
20
77.328046000000001
10
-34.667735999999998
20
78.954412000000005
10
-34.081825000000009
20
80.594828000000007
10
-33.534168999999999
20
82.248408000000012
10
-33.025063000000003
20
83.91426100000001
10
-32.554782000000003
20
85.591488999999996
10
-32.123578999999999
20
87.279184999999998
10
-31.731687999999998
20
88.976440999999994
10
-31.37932
20
90.682340000000011
10
-31.066663999999999
20
92.395961999999997
10
-30.793889
20
94.116382999999999
10
-30.561144000000002
20
95.842676000000012
10
-30.368552000000001
20
97.57390700000002
10
-30.216218000000001
20
99.309145000000001
10
-30.104223999999999
20
101.04745200000002
10
-30.032630000000005
20
102.787892
10
-30.001476
20
104.52952500000002
10
-30.010778000000002
20
106.27141100000001
10
-30.06053
20
108.012612
10
-30.150707000000004
20
109.752188
10
-30.281258999999999
20
111.48920000000001
10
-30.452116
20
113.22271200000002
10
-30.663186000000003
20
114.95178799999999
10
-30.914355
20
116.67549600000001
10
-31.205487999999999
20
118.392906
10
-31.536427000000003
20
120.10309100000001
10
-31.906994000000001
20
121.80513000000002
10
-32.316989
20
123.49810400000001
10
-32.766190999999999
20
125.181099
10
-33.254356999999999
20
126.853208
10
-33.781224999999999
20
128.51352900000001
10
-34.346510000000009
20
130.16116600000001
10
-34.94990700000001
20
131.795231
10
-35.591090000000001
20
133.414841
10
-36.269714999999998
20
135.01912400000003
10
-36.985413999999999
20
136.607215
10
-37.737802000000002
20
138.17825500000001
10
-38.526471999999998
20
139.73139800000001
10
-39.350999999999999
20
141.265807
10
-40.210940000000008
20
142.780652
10
-41.105829999999997
20
144.27511799999999
10
-42.035185000000006
20
145.74839800000001
10
-42.998505000000009
20
147.19969800000001
10
-43.995269000000008
20
148.62823399999999
10
-45.024942000000003
20
150.03323599999999
10
-46.086966000000004
20
151.41394600000001
10
-47.180768999999998
20
152.76961900000001
10
-48.305761000000004
20
154.09952400000003
10
-49.461336000000003
20
155.40294399999999
10
-50.646869000000009
20
156.67917499999999
10
-51.861722000000007
20
157.92752899999999
10
-53.105238
20
159.147333
10
-54.376747999999999
20
160.33792900000003
10
-55.675566000000003
20
161.49867400000002
10
-57.000990000000009
20
162.62894200000002
10
-58.352305000000008
20
163.72812400000001
10
-59.728783999999997
20
164.795627
10
-61.129683
20
165.83087399999999
10
-61.305301000000007
20
165.93221600000004
10
-61.497762999999999
20
165.99602300000001
10
-61.69914
20
166.01969500000001
10
-61.901153000000008
20
166.00226000000004
10
-62.095495999999997
20
165.944434
10
-62.274180000000001
20
165.84859399999999
10
-62.429858000000003
20
165.718681
10
-62.556131000000008
20
165.560036
10
-65.469005999999993
20
161.02276800000001
10
-65.590554999999995
20
160.868965
10
-65.739789999999999
20
160.74184500000001
10
-65.910956999999996
20
160.64628300000004
10
-66.097479000000007
20
160.58595
10
-66.292186999999998
20
160.56316500000003
10
-66.487599000000003
20
160.57880399999999
10
-66.676204999999996
20
160.63226700000001
10
-66.850757000000002
20
160.721497
10
-70.216800000000006
20
162.88245800000001
10
-70.370634999999993
20
163.003975
10
-70.497766999999996
20
163.15321
10
-70.593338000000017
20
163.32438300000004
10
-70.653672
20
163.51091300000002
10
-70.676451999999998
20
163.70563000000001
10
-70.660802000000004
20
163.90105000000003
10
-70.607322000000011
20
164.08966000000004
10
-70.518069999999994
20
164.26421000000002
10
-67.605196000000007
20
168.801478
10
-67.513496000000004
20
168.98231800000002
10
-67.460185999999993
20
169.17794799999999
10
-67.447433000000004
20
169.38031000000001
10
-67.475762000000003
20
169.58108500000003
10
-67.544008000000005
20
169.772018
10
-67.649366000000001
20
169.94526000000002
10
-67.787503999999998
20
170.09368800000001
10
-67.952742999999998
20
170.21120100000002
10
-69.459749000000002
20
171.04461000000001
10
-70.985493000000005
20
171.84319900000003
10
-72.529169999999993
20
172.60654700000001
10
-74.089967000000001
20
173.33425099999999
10
-75.667060000000006
20
174.025927
10
-77.259618000000003
20
174.68121100000002
10
-78.866802000000007
20
175.299758
10
-80.487763000000001
20
175.88123999999999
10
-82.121647999999993
20
176.42535300000003
10
-83.767595999999998
20
176.93180799999999
10
-85.424737000000007
20
177.400339
10
-87.092198999999994
20
177.83069900000001
10
-88.769102000000004
20
178.22265999999999
10
-90.454562999999993
20
178.57601700000001
10
-92.147692000000006
20
178.89058299999999
10
-93.847598000000005
20
179.16619100000003
10
-95.553383000000011
20
179.40269799999999
10
-97.264149000000018
20
179.599977
10
-98.978993000000003
20
179.75792600000003
10
-100.697012
20
179.87646000000001
10
-102.41729900000001
20
179.95551800000001
10
-104.13894800000001
20
179.995057
10
-105.861052
20
179.995057
10
-107.58270100000001
20
179.95551800000001
10
-109.30298800000001
20
179.87646000000001
10
-111.02100700000001
20
179.75792600000003
10
-112.735851
20
179.599977
10
-114.446617
20
179.40269799999999
10
-116.15240200000001
20
179.16619100000003
10
-117.85230800000001
20
178.89058299999999
10
-119.54543700000002
20
178.57601700000001
10
-121.23089800000001
20
178.22265999999999
10
-122.90780100000001
20
177.83069900000001
10
-124.57526300000001
20
177.400339
10
-126.232404
20
176.93180799999999
10
-127.87835200000002
20
176.42535300000003
10
-129.512237
20
175.88123999999999
10
-131.13319799999999
20
175.299758
10
-132.74038200000001
20
174.68121100000002
10
-134.33294000000001
20
174.025927
10
-135.910033
20
173.33425099999999
10
-137.47083000000001
20
172.60654700000001
10
-139.01450700000001
20
171.84319900000003
10
-140.54025100000001
20
171.04461000000001
10
-142.047257
20
170.21120100000002
10
-142.21247700000001
20
170.09366700000001
10
-142.35061099999999
20
169.945243
10
-142.45596599999999
20
169.772006
10
-142.52421000000001
20
169.58107799999999
10
-142.552539
20
169.38030900000001
10
-142.53978599999999
20
169.177952
10
-142.48647800000001
20
168.982328
10
-142.39480399999999
20
168.801478
10
-139.48193000000001
20
164.26421000000002
10
-139.39269200000001
20
164.08966799999999
10
-139.33924099999999
20
163.901061
10
-139.32361
20
163.70565099999999
10
-139.34639999999999
20
163.51094499999999
10
-139.406735
20
163.32442699999999
10
-139.502297
20
163.15326200000001
10
-139.629413
20
163.00402700000004
10
-139.78319999999999
20
162.88245800000001
10
-143.14924300000001
20
160.721497
10
-143.323803
20
160.63228599999999
10
-143.512405
20
160.57882500000002
10
-143.70781199999999
20
160.563186
10
-143.90251699999999
20
160.58597000000003
10
-144.089034
20
160.64630199999999
10
-144.260198
20
160.74186300000002
10
-144.40942899999999
20
160.86898000000002
10
-144.53099399999999
20
161.02276800000001
10
-147.44386900000001
20
165.560036
10
-147.57015200000001
20
165.71866400000002
10
-147.725832
20
165.84856300000001
10
-147.90451300000001
20
165.94439199999999
10
-148.09885000000003
20
166.00221199999999
10
-148.30085500000001
20
166.01964599999999
10
-148.50222500000001
20
165.99597800000001
10
-148.694683
20
165.93217899999999
10
-148.870317
20
165.83087399999999
10
-150.27121600000001
20
164.795627
10
-151.647695
20
163.72812400000001
10
-152.99901
20
162.62894200000002
10
-154.324434
20
161.49867400000002
10
-155.62325200000001
20
160.33792900000003
10
-156.89476199999999
20
159.147333
10
-158.13827800000001
20
157.92752899999999
10
-159.35313099999999
20
156.67917499999999
10
-160.53866400000001
20
155.40294399999999
10
-161.69423900000001
20
154.09952400000003
10
-162.819231
20
152.76961900000001
10
-163.91303400000001
20
151.41394600000001
10
-164.97505799999999
20
150.03323599999999
10
-166.00473099999999
20
148.62823399999999
10
-167.001496
20
147.19969800000001
10
-167.96481499999999
20
145.74839900000001
10
-168.894171
20
144.27511799999999
10
-169.78906000000001
20
142.780652
10
-170.649
20
141.265807
10
-171.47352799999999
20
139.73139800000001
10
-172.26219900000001
20
138.17825500000001
10
-173.01458600000001
20
136.607215
10
-173.73028500000001
20
135.019125
10
-174.40890999999999
20
133.414841
10
-175.050093
20
131.795231
10
-175.65349000000001
20
130.16116600000001
10
-176.21877499999999
20
128.51352900000001
10
-176.745643
20
126.853208
10
-177.23380900000001
20
125.181099
10
-177.68301099999999
20
123.49810400000001
10
-178.093006
20
121.80513000000002
10
-178.463573
20
120.10309100000001
10
-178.79451200000003
20
118.392906
10
-179.085645
20
116.67549600000001
10
-179.336814
20
114.95178799999999
10
-179.54788400000001
20
113.22271200000002
10
-179.71874100000002
20
111.48920000000001
10
-179.84929300000002
20
109.752188
10
-179.93947000000003
20
108.012612
10
-179.98922200000004
20
106.27141100000001
10
-179.99852400000003
20
104.52952500000002
10
-179.96736999999999
20
102.787892
10
-179.89577700000001
20
101.04745200000002
10
-179.783783
20
99.309145000000001
10
-179.631449
20
97.57390700000002
10
-179.43885700000004
20
95.842676000000012
10
-179.20611099999999
20
94.116382999999999
10
-178.93333600000003
20
92.395961999999997
10
-178.62067999999999
20
90.682340000000011
10
-178.26831200000001
20
88.976440999999994
10
-177.87642099999999
20
87.279184999999998
10
-177.44521800000001
20
85.591488000000012
10
-176.97493700000001
20
83.91426100000001
10
-176.46583100000001
20
82.248408000000012
10
-175.91817500000002
20
80.594828000000007
10
-175.33226400000001
20
78.954412000000005
10
-174.708414
20
77.328046000000001
10
-174.04696100000001
20
75.716606999999996
10
-173.348263
20
74.120964000000001
10
-172.612697
20
72.541978
10
-171.84065900000002
20
70.980501000000004
10
-171.03256500000001
20
69.437374000000005
10
-170.18885100000003
20
67.913431000000003
10
-169.30997400000001
20
66.409492999999998
10
-168.39640600000001
20
64.926371000000003
10
-167.44864000000004
20
63.464866999999998
10
-166.46718899999999
20
62.025767000000009
10
-165.45258000000001
20
60.609849000000004
10
-164.405362
20
59.217875000000006
10
-163.326099
20
57.850597999999998
10
-162.215374
20
56.508754000000003
10
-161.07378600000001
20
55.193067999999997
10
-159.90195
20
53.90424800000001
10
-158.70049900000001
20
52.642991000000009
10
-157.47008
20
51.409976
10
-156.21135799999999
20
50.205869000000007
10
-154.92501100000001
20
49.031319000000011
10
-153.61173400000001
20
47.886960000000009
10
-152.272234
20
46.773409000000001
10
-150.90723399999999
20
45.691267000000011
10
-149.517471
20
44.641117000000001
10
-148.10369500000002
20
43.62352700000001
10
-146.66666700000002
20
42.639044000000005
10
-146.37295700000004
20
42.466107000000008
10
-146.06153399999999
20
42.327587000000008
10
-145.73640800000001
20
42.225287000000009
10
-145.40177700000001
20
42.160526000000004
10
-145.061959
20
42.134140000000002
10
-144.72134199999999
20
42.146470000000001
10
-144.384322
20
42.197355999999999
10
-144.055249
20
42.286141999999998
10
-143.73837000000003
20
42.411681999999999
10
-143.43777700000001
20
42.572356000000006
10
-143.15734900000001
20
42.766088000000011
10
-142.90070600000001
20
42.990379000000004
10
-142.67116100000004
20
43.242334
10
-142.471676
20
43.51870000000001
10
-142.30482799999999
20
43.815908999999998
10
-142.17276800000002
20
44.130126000000004
10
-142.077202
20
44.457295000000002
10
-142.019364
20
44.793191999999998
10
-142
20
45.133482000000001
10
-142
20
66
10
-141.980739
20
66.392069000000021
10
-141.92314099999999
20
66.780360999999999
10
-141.82776100000001
20
67.161139000000006
10
-141.69551799999999
20
67.530733999999995
10
-141.52768500000002
20
67.885587000000001
10
-141.32587799999999
20
68.222281000000009
10
-141.09204199999999
20
68.537572999999995
10
-140.828427
20
68.828427000000005
10
-140.53757300000001
20
69.092042000000021
10
-140.22228100000001
20
69.325878000000003
10
-139.88558699999999
20
69.527685000000019
10
-139.530734
20
69.695518000000021
10
-139.16113899999999
20
69.827760999999995
10
-138.780361
20
69.923141000000001
10
-138.39206899999999
20
69.980739
10
-138
20
70
10
-72
20
70
10
-71.607930999999994
20
69.980739
10
-71.219639000000001
20
69.923141000000001
10
-70.838860999999994
20
69.827760999999995
10
-70.469266000000005
20
69.695518000000021
10
-70.114412999999999
20
69.527685000000019
10
-69.777719000000005
20
69.325878000000003
10
-69.462427000000005
20
69.092042000000021
10
-69.171572999999995
20
68.828427000000005
10
-68.907957999999994
20
68.537572999999995
10
-68.674122000000011
20
68.222281000000009
10
-68.472314999999995
20
67.885587000000001
10
-68.304481999999993
20
67.530733999999995
10
-68.172239000000005
20
67.161139000000006
10
-68.076858999999999
20
66.780360999999999
10
-68.019261
20
66.392069000000021
10
-68
20
66
10
-68
20
45.133482000000001
10
-67.980650999999995
20
44.793190000000003
10
-67.922811999999993
20
44.45729200000001
10
-67.827246000000002
20
44.130121000000003
10
-67.695186000000007
20
43.815902999999999
10
-67.528335999999996
20
43.518692000000001
10
-67.328851000000014
20
43.242325000000001
10
-67.099304000000018
20
42.990369000000001
10
-66.842659999999995
20
42.766075999999998
10
-66.562230999999997
20
42.572342999999996
10
-66.261635999999996
20
42.411669000000003
10
-65.944755999999998
20
42.286127999999998
0
LWPOLYLINE
5
101
100
AcDbEntity
8
0
100
AcDbPolyline
90
28
70
1
43
0.0
10
-120.87059000000002
20
133.01703699999999
10
-121.00000000000001
20
133
10
-129
20
133
10
-129.12941000000001
20
133.01703699999999
10
-129.25
20
133.06698700000001
10
-129.35355300000001
20
133.14644699999999
10
-129.43301299999999
20
133.25
10
-129.48296300000004
20
133.37058999999999
10
-129.5
20
133.5
10
-129.5
20
136.5
10
-129.48296300000004
20
136.62941000000001
10
-129.43301299999999
20
136.75
10
-129.35355300000001
20
136.85355300000001
10
-129.25
20
136.93301299999999
10
-129.12941000000001
20
136.98296300000004
10
-129
20
137
10
-121.00000000000001
20
137
10
-120.87059000000002
20
136.98296300000004
10
-120.75000000000001
20
136.93301299999999
10
-120.64644700000001
20
136.85355300000001
10
-120.566987
20
136.75
10
-120.51703700000002
20
136.62941000000001
10
-120.5
20
136.5
10
-120.5
20
133.5
10
-120.51703700000002
20
133.37058999999999
10
-120.566987
20
133.25
10
-120.64644700000001
20
133.14644699999999
10
-120.75000000000001
20
133.06698700000001
0
LWPOLYLINE
5
102
100
AcDbEntity
8
0
100
AcDbPolyline
90
36
70
1
43
0.0
10
-99.804910000000007
20
142.019215
10
-100
20
142
10
-110
20
142
10
-110.19508999999999
20
142.019215
10
-110.382683
20
142.07612
10
-110.55557
20
142.16853
10
-110.70710699999999
20
142.29289299999999
10
-110.83147
20
142.44443000000001
10
-110.92388
20
142.61731700000001
10
-110.980785
20
142.80491000000001
10
-111.00000000000001
20
143
10
-111.00000000000001
20
147
10
-110.980785
20
147.19508999999999
10
-110.92388
20
147.38268299999999
10
-110.83147
20
147.55556999999999
10
-110.70710699999999
20
147.70710700000001
10
-110.55557
20
147.83147
10
-110.382683
20
147.92388
10
-110.19508999999999
20
147.980785
10
-110
20
148
10
-100
20
148
10
-99.804910000000007
20
147.980785
10
-99.617317000000014
20
147.92388
10
-99.444429999999997
20
147.83147
10
-99.292893000000007
20
147.70710700000001
10
-99.168530000000018
20
147.55556999999999
10
-99.076120000000003
20
147.38268299999999
10
-99.019215000000003
20
147.19508999999999
10
-99
20
147
10
-99
20
143
10
-99.019215000000003
20
142.80491000000001
10
-99.076120000000003
20
142.61731700000001
10
-99.168530000000018
20
142.44443000000001
10
-99.292893000000007
20
142.29289299999999
10
-99.444429999999997
20
142.16853
10
-99.617317000000014
20
142.07612
0
LWPOLYLINE
5
103
100
AcDbEntity
8
0
100
AcDbPolyline
90
28
70
1
43
0.0
10
-80.870590000000021
20
133.01703699999999
10
-81
20
133
10
-89
20
133
10
-89.129410000000007
20
133.01703699999999
10
-89.25
20
133.06698700000001
10
-89.353553000000005
20
133.14644699999999
10
-89.433013000000003
20
133.25
10
-89.482963000000012
20
133.37058999999999
10
-89.500000000000014
20
133.5
10
-89.500000000000014
20
136.5
10
-89.482963000000012
20
136.62941000000001
10
-89.433013000000003
20
136.75
10
-89.353553000000005
20
136.85355300000001
10
-89.25
20
136.93301299999999
10
-89.129410000000007
20
136.98296300000004
10
-89
20
137
10
-81
20
137
10
-80.870590000000021
20
136.98296300000004
10
-80.750000000000014
20
136.93301299999999
10
-80.646447000000009
20
136.85355300000001
10
-80.566986999999997
20
136.75
10
-80.517037000000016
20
136.62941000000001
10
-80.5
20
136.5
10
-80.5
20
133.5
10
-80.517037000000016
20
133.37058999999999
10
-80.566986999999997
20
133.25
10
-80.646447000000009
20
133.14644699999999
10
-80.750000000000014
20
133.06698700000001
0
LWPOLYLINE
5
104
100
AcDbEntity
8
0
100
AcDbPolyline
90
4
70
1
43
0.0
10
-112.00000000000001
20
115
10
-112.00000000000001
20
113
10
-113
20
113
10
-113
20
115
0
LWPOLYLINE
5
105
100
AcDbEntity
8
0
100
AcDbPolyline
90
4
70
1
43
0.0
10
-112.00000000000001
20
97.000000000000014
10
-112.00000000000001
20
95
10
-113
20
95
10
-113
20
97.000000000000014
0
LWPOLYLINE
5
106
100
AcDbEntity
8
0
100
AcDbPolyline
90
28
70
1
43
0.0
10
-120.87059000000002
20
73.017037000000016
10
-121.00000000000001
20
73
10
-129
20
73
10
-129.12941000000001
20
73.017037000000016
10
-129.25
20
73.066986999999997
10
-129.35355300000001
20
73.146446999999995
10
-129.43301299999999
20
73.25
10
-129.48296300000004
20
73.370590000000007
10
-129.5
20
73.5
10
-129.5
20
76.5
10
-129.48296300000004
20
76.629410000000007
10
-129.43301299999999
20
76.75
10
-129.35355300000001
20
76.853553000000005
10
-129.25
20
76.933013000000003
10
-129.12941000000001
20
76.982962999999998
10
-129
20
77
10
-121.00000000000001
20
77
10
-120.87059000000002
20
76.982962999999998
10
-120.75000000000001
20
76.933013000000003
10
-120.64644700000001
20
76.853553000000005
10
-120.566987
20
76.75
10
-120.51703700000002
20
76.629410000000007
10
-120.5
20
76.5
10
-120.5
20
73.5
10
-120.51703700000002
20
73.370590000000007
10
-120.566987
20
73.25
10
-120.64644700000001
20
73.146446999999995
10
-120.75000000000001
20
73.066986999999997
0
LWPOLYLINE
5
107
100
AcDbEntity
8
0
100
AcDbPolyline
90
4
70
1
43
0.0
10
-97.000000000000014
20
115
10
-97.000000000000014
20
113
10
-98
20
113
10
-98
20
115
0
LWPOLYLINE
5
108
100
AcDbEntity
8
0
100
AcDbPolyline
90
4
70
1
43
0.0
10
-97.000000000000014
20
97.000000000000014
10
-97.000000000000014
20
95
10
-98
20
95
10
-98
20
97.000000000000014
0
LWPOLYLINE
5
109
100
AcDbEntity
8
0
100
AcDbPolyline
90
28
70
1
43
0.0
10
-80.870590000000021
20
73.017037000000016
10
-81
20
73
10
-89
20
73
10
-89.129410000000007
20
73.017037000000016
10
-89.25
20
73.066986999999997
10
-89.353553000000005
20
73.146446999999995
10
-89.433013000000003
20
73.25
10
-89.482963000000012
20
73.370590000000007
10
-89.500000000000014
20
73.5
10
-89.500000000000014
20
76.5
10
-89.482963000000012
20
76.629410000000007
10
-89.433013000000003
20
76.75
10
-89.353553000000005
20
76.853553000000005
10
-89.25
20
76.933013000000003
10
-89.129410000000007
20
76.982962999999998
10
-89
20
77
10
-81
20
77
10
-80.870590000000021
20
76.982962999999998
10
-80.750000000000014
20
76.933013000000003
10
-80.646447000000009
20
76.853553000000005
10
-80.566986999999997
20
76.75
10
-80.517037000000016
20
76.629410000000007
10
-80.5
20
76.5
10
-80.5
20
73.5
10
-80.517037000000016
20
73.370590000000007
10
-80.566986999999997
20
73.25
10
-80.646447000000009
20
73.146446999999995
10
-80.750000000000014
20
73.066986999999997
0
CIRCLE
5
110
100
AcDbEntity
8
0
100
AcDbCircle
10
-122.62
20
167.62
30
0
40
0.5
210
0
220
0
230
1
0
CIRCLE
5
111
100
AcDbEntity
8
0
100
AcDbCircle
10
-122.62
20
165.08000000000004
30
0
40
0.5
210
0
220
0
230
1
0
CIRCLE
5
112
100
AcDbEntity
8
0
100
AcDbCircle
10
-122.62
20
162.54000000000002
30
0
40
0.5
210
0
220
0
230
1
0
CIRCLE
5
113
100
AcDbEntity
8
0
100
AcDbCircle
10
-122.62
20
160
30
0
40
0.5
210
0
220
0
230
1
0
CIRCLE
5
114
100
AcDbEntity
8
0
100
AcDbCircle
10
-122.62
20
157.46000000000004
30
0
40
0.5
210
0
220
0
230
1
0
CIRCLE
5
115
100
AcDbEntity
8
0
100
AcDbCircle
10
-107.38
20
167.62
30
0
40
0.5
210
0
220
0
230
1
0
CIRCLE
5
116
100
AcDbEntity
8
0
100
AcDbCircle
10
-107.38
20
165.08000000000004
30
0
40
0.5
210
0
220
0
230
1
0
CIRCLE
5
117
100
AcDbEntity
8
0
100
AcDbCircle
10
-107.38
20
162.54000000000002
30
0
40
0.5
210
0
220
0
230
1
0
CIRCLE
5
118
100
AcDbEntity
8
0
100
AcDbCircle
10
-107.38
20
160
30
0
40
0.5
210
0
220
0
230
1
0
CIRCLE
5
119
100
AcDbEntity
8
0
100
AcDbCircle
10
-107.38
20
157.46000000000004
30
0
40
0.5
210
0
220
0
230
1
0
CIRCLE
5
120
100
AcDbEntity
8
0
100
AcDbCircle
10
-122.62
20
154.91999999999999
30
0
40
0.5
210
0
220
0
230
1
0
CIRCLE
5
121
100
AcDbEntity
8
0
100
AcDbCircle
10
-122.62
20
152.38
30
0
40
0.5
210
0
220
0
230
1
0
CIRCLE
5
122
100
AcDbEntity
8
0
100
AcDbCircle
10
-132.01201599999999
20
147.07553899999999
30
0
40
1.6000000000000003
210
0
220
0
230
1
0
CIRCLE
5
123
100
AcDbEntity
8
0
100
AcDbCircle
10
-107.38
20
154.91999999999999
30
0
40
0.5
210
0
220
0
230
1
0
CIRCLE
5
124
100
AcDbEntity
8
0
100
AcDbCircle
10
-107.38
20
152.38
30
0
40
0.5
210
0
220
0
230
1
0
CIRCLE
5
125
100
AcDbEntity
8
0
100
AcDbCircle
10
-159.54000000000002
20
128
30
0
40
0.5
210
0
220
0
230
1
0
CIRCLE
5
126
100
AcDbEntity
8
0
100
AcDbCircle
10
-157
20
128
30
0
40
0.5
210
0
220
0
230
1
0
CIRCLE
5
127
100
AcDbEntity
8
0
100
AcDbCircle
10
-170.62
20
121.51000000000002
30
0
40
0.55000000000000004
210
0
220
0
230
1
0
CIRCLE
5
128
100
AcDbEntity
8
0
100
AcDbCircle
10
-155.38
20
121.51000000000002
30
0
40
0.55000000000000004
210
0
220
0
230
1
0
CIRCLE
5
129
100
AcDbEntity
8
0
100
AcDbCircle
10
-154.46000000000001
20
128
30
0
40
0.5
210
0
220
0
230
1
0
CIRCLE
5
130
100
AcDbEntity
8
0
100
AcDbCircle
10
-143
20
131
30
0
40
1.6000000000000003
210
0
220
0
230
1
0
CIRCLE
5
131
100
AcDbEntity
8
0
100
AcDbCircle
10
-125.85965000000002
20
125.85965000000002
30
0
40
1.6000000000000003
210
0
220
0
230
1
0
CIRCLE
5
132
100
AcDbEntity
8
0
100
AcDbCircle
10
-102.62
20
167.62
30
0
40
0.5
210
0
220
0
230
1
0
CIRCLE
5
133
100
AcDbEntity
8
0
100
AcDbCircle
10
-102.62
20
165.08000000000004
30
0
40
0.5
210
0
220
0
230
1
0
CIRCLE
5
134
100
AcDbEntity
8
0
100
AcDbCircle
10
-102.62
20
162.54000000000002
30
0
40
0.5
210
0
220
0
230
1
0
CIRCLE
5
135
100
AcDbEntity
8
0
100
AcDbCircle
10
-102.62
20
160
30
0
40
0.5
210
0
220
0
230
1
0
CIRCLE
5
136
100
AcDbEntity
8
0
100
AcDbCircle
10
-102.62
20
157.46000000000004
30
0
40
0.5
210
0
220
0
230
1
0
CIRCLE
5
137
100
AcDbEntity
8
0
100
AcDbCircle
10
-87.379999999999995
20
167.62
30
0
40
0.5
210
0
220
0
230
1
0
CIRCLE
5
138
100
AcDbEntity
8
0
100
AcDbCircle
10
-87.379999999999995
20
165.08000000000004
30
0
40
0.5
210
0
220
0
230
1
0
CIRCLE
5
139
100
AcDbEntity
8
0
100
AcDbCircle
10
-87.379999999999995
20
162.54000000000002
30
0
40
0.5
210
0
220
0
230
1
0
CIRCLE
5
140
100
AcDbEntity
8
0
100
AcDbCircle
10
-87.379999999999995
20
160
30
0
40
0.5
210
0
220
0
230
1
0
CIRCLE
5
141
100
AcDbEntity
8
0
100
AcDbCircle
10
-87.379999999999995
20
157.46000000000004
30
0
40
0.5
210
0
220
0
230
1
0
CIRCLE
5
142
100
AcDbEntity
8
0
100
AcDbCircle
10
-102.62
20
154.91999999999999
30
0
40
0.5
210
0
220
0
230
1
0
CIRCLE
5
143
100
AcDbEntity
8
0
100
AcDbCircle
10
-102.62
20
152.38
30
0
40
0.5
210
0
220
0
230
1
0
CIRCLE
5
144
100
AcDbEntity
8
0
100
AcDbCircle
10
-87.379999999999995
20
154.91999999999999
30
0
40
0.5
210
0
220
0
230
1
0
CIRCLE
5
145
100
AcDbEntity
8
0
100
AcDbCircle
10
-87.379999999999995
20
152.38
30
0
40
0.5
210
0
220
0
230
1
0
CIRCLE
5
146
100
AcDbEntity
8
0
100
AcDbCircle
10
-77.987983999999997
20
147.07553899999999
30
0
40
1.6000000000000003
210
0
220
0
230
1
0
CIRCLE
5
147
100
AcDbEntity
8
0
100
AcDbCircle
10
-105
20
136.25
30
0
40
0.5
210
0
220
0
230
1
0
CIRCLE
5
148
100
AcDbEntity
8
0
100
AcDbCircle
10
-105
20
133.75
30
0
40
0.5
210
0
220
0
230
1
0
CIRCLE
5
149
100
AcDbEntity
8
0
100
AcDbCircle
10
-84.140349999999998
20
125.85965000000002
30
0
40
1.6000000000000003
210
0
220
0
230
1
0
CIRCLE
5
150
100
AcDbEntity
8
0
100
AcDbCircle
10
-67
20
131
30
0
40
1.6000000000000003
210
0
220
0
230
1
0
CIRCLE
5
151
100
AcDbEntity
8
0
100
AcDbCircle
10
-55.555000000000007
20
127.71000000000001
30
0
40
0.5
210
0
220
0
230
1
0
CIRCLE
5
152
100
AcDbEntity
8
0
100
AcDbCircle
10
-53.015000000000008
20
127.71000000000001
30
0
40
0.5
210
0
220
0
230
1
0
CIRCLE
5
153
100
AcDbEntity
8
0
100
AcDbCircle
10
-50.475000000000001
20
127.71000000000001
30
0
40
0.5
210
0
220
0
230
1
0
CIRCLE
5
154
100
AcDbEntity
8
0
100
AcDbCircle
10
-54.619999999999997
20
121.51000000000002
30
0
40
0.55000000000000004
210
0
220
0
230
1
0
CIRCLE
5
155
100
AcDbEntity
8
0
100
AcDbCircle
10
-39.38000000000001
20
121.51000000000002
30
0
40
0.55000000000000004
210
0
220
0
230
1
0
CIRCLE
5
156
100
AcDbEntity
8
0
100
AcDbCircle
10
-170.62
20
118.97
30
0
40
0.55000000000000004
210
0
220
0
230
1
0
CIRCLE
5
157
100
AcDbEntity
8
0
100
AcDbCircle
10
-170.62
20
116.43000000000001
30
0
40
0.55000000000000004
210
0
220
0
230
1
0
CIRCLE
5
158
100
AcDbEntity
8
0
100
AcDbCircle
10
-155.38
20
118.97
30
0
40
0.55000000000000004
210
0
220
0
230
1
0
CIRCLE
5
159
100
AcDbEntity
8
0
100
AcDbCircle
10
-155.38
20
116.43000000000001
30
0
40
0.55000000000000004
210
0
220
0
230
1
0
CIRCLE
5
160
100
AcDbEntity
8
0
100
AcDbCircle
10
-170.62
20
113.89000000000001
30
0
40
0.55000000000000004
210
0
220
0
230
1
0
CIRCLE
5
161
100
AcDbEntity
8
0
100
AcDbCircle
10
-170.62
20
111.34999999999999
30
0
40
0.55000000000000004
210
0
220
0
230
1
0
CIRCLE
5
162
100
AcDbEntity
8
0
100
AcDbCircle
10
-170.62
20
108.81
30
0
40
0.55000000000000004
210
0
220
0
230
1
0
CIRCLE
5
163
100
AcDbEntity
8
0
100
AcDbCircle
10
-155.38
20
113.89000000000001
30
0
40
0.55000000000000004
210
0
220
0
230
1
0
CIRCLE
5
164
100
AcDbEntity
8
0
100
AcDbCircle
10
-155.38
20
111.34999999999999
30
0
40
0.55000000000000004
210
0
220
0
230
1
0
CIRCLE
5
165
100
AcDbEntity
8
0
100
AcDbCircle
10
-155.38
20
108.81
30
0
40
0.55000000000000004
210
0
220
0
230
1
0
CIRCLE
5
166
100
AcDbEntity
8
0
100
AcDbCircle
10
-149
20
110
30
0
40
0.47499999999999998
210
0
220
0
230
1
0
CIRCLE
5
167
100
AcDbEntity
8
0
100
AcDbCircle
10
-170.62
20
106.27000000000001
30
0
40
0.55000000000000004
210
0
220
0
230
1
0
CIRCLE
5
168
100
AcDbEntity
8
0
100
AcDbCircle
10
-170.62
20
103.73000000000002
30
0
40
0.55000000000000004
210
0
220
0
230
1
0
CIRCLE
5
169
100
AcDbEntity
8
0
100
AcDbCircle
10
-155.38
20
106.27000000000001
30
0
40
0.55000000000000004
210
0
220
0
230
1
0
CIRCLE
5
170
100
AcDbEntity
8
0
100
AcDbCircle
10
-155.38
20
103.73000000000002
30
0
40
0.55000000000000004
210
0
220
0
230
1
0
CIRCLE
5
171
100
AcDbEntity
8
0
100
AcDbCircle
10
-170.62
20
101.19
30
0
40
0.55000000000000004
210
0
220
0
230
1
0
CIRCLE
5
172
100
AcDbEntity
8
0
100
AcDbCircle
10
-170.62
20
98.65000000000002
30
0
40
0.55000000000000004
210
0
220
0
230
1
0
CIRCLE
5
173
100
AcDbEntity
8
0
100
AcDbCircle
10
-155.38
20
101.19
30
0
40
0.55000000000000004
210
0
220
0
230
1
0
CIRCLE
5
174
100
AcDbEntity
8
0
100
AcDbCircle
10
-155.38
20
98.65000000000002
30
0
40
0.55000000000000004
210
0
220
0
230
1
0
CIRCLE
5
175
100
AcDbEntity
8
0
100
AcDbCircle
10
-149
20
107.5
30
0
40
0.47499999999999998
210
0
220
0
230
1
0
CIRCLE
5
176
100
AcDbEntity
8
0
100
AcDbCircle
10
-149
20
105
30
0
40
0.47499999999999998
210
0
220
0
230
1
0
CIRCLE
5
177
100
AcDbEntity
8
0
100
AcDbCircle
10
-149
20
102.5
30
0
40
0.47499999999999998
210
0
220
0
230
1
0
CIRCLE
5
178
100
AcDbEntity
8
0
100
AcDbCircle
10
-149
20
100
30
0
40
0.47499999999999998
210
0
220
0
230
1
0
CIRCLE
5
179
100
AcDbEntity
8
0
100
AcDbCircle
10
-170.62
20
96.110000000000014
30
0
40
0.55000000000000004
210
0
220
0
230
1
0
CIRCLE
5
180
100
AcDbEntity
8
0
100
AcDbCircle
10
-170.62
20
93.569999999999993
30
0
40
0.55000000000000004
210
0
220
0
230
1
0
CIRCLE
5
181
100
AcDbEntity
8
0
100
AcDbCircle
10
-170.62
20
91.030000000000001
30
0
40
0.55000000000000004
210
0
220
0
230
1
0
CIRCLE
5
182
100
AcDbEntity
8
0
100
AcDbCircle
10
-168.08000000000004
20
91.030000000000001
30
0
40
0.55000000000000004
210
0
220
0
230
1
0
CIRCLE
5
183
100
AcDbEntity
8
0
100
AcDbCircle
10
-155.38
20
96.110000000000014
30
0
40
0.55000000000000004
210
0
220
0
230
1
0
CIRCLE
5
184
100
AcDbEntity
8
0
100
AcDbCircle
10
-155.38
20
93.569999999999993
30
0
40
0.55000000000000004
210
0
220
0
230
1
0
CIRCLE
5
185
100
AcDbEntity
8
0
100
AcDbCircle
10
-155.38
20
91.030000000000001
30
0
40
0.55000000000000004
210
0
220
0
230
1
0
CIRCLE
5
186
100
AcDbEntity
8
0
100
AcDbCircle
10
-170.62
20
88.490000000000009
30
0
40
0.55000000000000004
210
0
220
0
230
1
0
CIRCLE
5
187
100
AcDbEntity
8
0
100
AcDbCircle
10
-155.38
20
88.490000000000009
30
0
40
0.55000000000000004
210
0
220
0
230
1
0
CIRCLE
5
188
100
AcDbEntity
8
0
100
AcDbCircle
10
-143
20
79
30
0
40
1.6000000000000003
210
0
220
0
230
1
0
CIRCLE
5
189
100
AcDbEntity
8
0
100
AcDbCircle
10
-125.85965000000002
20
84.140349999999998
30
0
40
1.6000000000000003
210
0
220
0
230
1
0
CIRCLE
5
190
100
AcDbEntity
8
0
100
AcDbCircle
10
-54.619999999999997
20
118.97
30
0
40
0.55000000000000004
210
0
220
0
230
1
0
CIRCLE
5
191
100
AcDbEntity
8
0
100
AcDbCircle
10
-54.619999999999997
20
116.43000000000001
30
0
40
0.55000000000000004
210
0
220
0
230
1
0
CIRCLE
5
192
100
AcDbEntity
8
0
100
AcDbCircle
10
-39.38000000000001
20
118.97
30
0
40
0.55000000000000004
210
0
220
0
230
1
0
CIRCLE
5
193
100
AcDbEntity
8
0
100
AcDbCircle
10
-39.38000000000001
20
116.43000000000001
30
0
40
0.55000000000000004
210
0
220
0
230
1
0
CIRCLE
5
194
100
AcDbEntity
8
0
100
AcDbCircle
10
-54.619999999999997
20
113.89000000000001
30
0
40
0.55000000000000004
210
0
220
0
230
1
0
CIRCLE
5
195
100
AcDbEntity
8
0
100
AcDbCircle
10
-54.619999999999997
20
111.34999999999999
30
0
40
0.55000000000000004
210
0
220
0
230
1
0
CIRCLE
5
196
100
AcDbEntity
8
0
100
AcDbCircle
10
-54.619999999999997
20
108.81
30
0
40
0.55000000000000004
210
0
220
0
230
1
0
CIRCLE
5
197
100
AcDbEntity
8
0
100
AcDbCircle
10
-39.38000000000001
20
113.89000000000001
30
0
40
0.55000000000000004
210
0
220
0
230
1
0
CIRCLE
5
198
100
AcDbEntity
8
0
100
AcDbCircle
10
-39.38000000000001
20
111.34999999999999
30
0
40
0.55000000000000004
210
0
220
0
230
1
0
CIRCLE
5
199
100
AcDbEntity
8
0
100
AcDbCircle
10
-39.38000000000001
20
108.81
30
0
40
0.55000000000000004
210
0
220
0
230
1
0
CIRCLE
5
200
100
AcDbEntity
8
0
100
AcDbCircle
10
-54.619999999999997
20
106.27000000000001
30
0
40
0.55000000000000004
210
0
220
0
230
1
0
CIRCLE
5
201
100
AcDbEntity
8
0
100
AcDbCircle
10
-54.619999999999997
20
103.73000000000002
30
0
40
0.55000000000000004
210
0
220
0
230
1
0
CIRCLE
5
202
100
AcDbEntity
8
0
100
AcDbCircle
10
-39.38000000000001
20
106.27000000000001
30
0
40
0.55000000000000004
210
0
220
0
230
1
0
CIRCLE
5
203
100
AcDbEntity
8
0
100
AcDbCircle
10
-39.38000000000001
20
103.73000000000002
30
0
40
0.55000000000000004
210
0
220
0
230
1
0
CIRCLE
5
204
100
AcDbEntity
8
0
100
AcDbCircle
10
-54.619999999999997
20
101.19
30
0
40
0.55000000000000004
210
0
220
0
230
1
0
CIRCLE
5
205
100
AcDbEntity
8
0
100
AcDbCircle
10
-54.619999999999997
20
98.65000000000002
30
0
40
0.55000000000000004
210
0
220
0
230
1
0
CIRCLE
5
206
100
AcDbEntity
8
0
100
AcDbCircle
10
-39.38000000000001
20
101.19
30
0
40
0.55000000000000004
210
0
220
0
230
1
0
CIRCLE
5
207
100
AcDbEntity
8
0
100
AcDbCircle
10
-39.38000000000001
20
98.65000000000002
30
0
40
0.55000000000000004
210
0
220
0
230
1
0
CIRCLE
5
208
100
AcDbEntity
8
0
100
AcDbCircle
10
-84.140349999999998
20
84.140349999999998
30
0
40
1.6000000000000003
210
0
220
0
230
1
0
CIRCLE
5
209
100
AcDbEntity
8
0
100
AcDbCircle
10
-61.000000000000007
20
93
30
0
40
0.5
210
0
220
0
230
1
0
CIRCLE
5
210
100
AcDbEntity
8
0
100
AcDbCircle
10
-61.000000000000007
20
90.459999999999994
30
0
40
0.5
210
0
220
0
230
1
0
CIRCLE
5
211
100
AcDbEntity
8
0
100
AcDbCircle
10
-61.000000000000007
20
87.920000000000002
30
0
40
0.5
210
0
220
0
230
1
0
CIRCLE
5
212
100
AcDbEntity
8
0
100
AcDbCircle
10
-54.619999999999997
20
96.110000000000014
30
0
40
0.55000000000000004
210
0
220
0
230
1
0
CIRCLE
5
213
100
AcDbEntity
8
0
100
AcDbCircle
10
-54.619999999999997
20
93.569999999999993
30
0
40
0.55000000000000004
210
0
220
0
230
1
0
CIRCLE
5
214
100
AcDbEntity
8
0
100
AcDbCircle
10
-54.619999999999997
20
91.030000000000001
30
0
40
0.55000000000000004
210
0
220
0
230
1
0
CIRCLE
5
215
100
AcDbEntity
8
0
100
AcDbCircle
10
-52.079999999999998
20
91.030000000000001
30
0
40
0.55000000000000004
210
0
220
0
230
1
0
CIRCLE
5
216
100
AcDbEntity
8
0
100
AcDbCircle
10
-39.38000000000001
20
96.110000000000014
30
0
40
0.55000000000000004
210
0
220
0
230
1
0
CIRCLE
5
217
100
AcDbEntity
8
0
100
AcDbCircle
10
-39.38000000000001
20
93.569999999999993
30
0
40
0.55000000000000004
210
0
220
0
230
1
0
CIRCLE
5
218
100
AcDbEntity
8
0
100
AcDbCircle
10
-39.38000000000001
20
91.030000000000001
30
0
40
0.55000000000000004
210
0
220
0
230
1
0
CIRCLE
5
219
100
AcDbEntity
8
0
100
AcDbCircle
10
-54.619999999999997
20
88.490000000000009
30
0
40
0.55000000000000004
210
0
220
0
230
1
0
CIRCLE
5
220
100
AcDbEntity
8
0
100
AcDbCircle
10
-39.38000000000001
20
88.490000000000009
30
0
40
0.55000000000000004
210
0
220
0
230
1
0
CIRCLE
5
221
100
AcDbEntity
8
0
100
AcDbCircle
10
-67
20
79
30
0
40
1.6000000000000003
210
0
220
0
230
1
0
ENDSEC
0
SECTION
2
OBJECTS
0
DICTIONARY
5
C
100
AcDbDictionary
3
ACAD_GROUP
350
D
3
ACAD_MLINESTYLE
350
17
0
DICTIONARY
5
D
100
AcDbDictionary
0
DICTIONARY
5
1A
330
C
100
AcDbDictionary
0
DICTIONARY
5
17
100
AcDbDictionary
0
ENDSEC
0
EOF
