0
SECTION
2
HEADER
9
$INSUNITS
70
4
9
$ACADVER
1
AC1014
9
$HANDSEED
5
FFFF
0
ENDSEC
0
SECTION
2
TABLES
0
TABLE
2
VPORT
5
8
100
AcDbSymbolTable
0
ENDTAB
0
TABLE
2
LTYPE
5
5
100
AcDbSymbolTable
0
LTYPE
5
14
100
AcDbSymbolTableRecord
100
AcDbLinetypeTableRecord
2
BYBLOCK
70
0
0
LTYPE
5
15
100
AcDbSymbolTableRecord
100
AcDbLinetypeTableRecord
2
BYLAYER
70
0
0
ENDTAB
0
TABLE
2
LAYER
5
2
100
AcDbSymbolTable
70
2
0
LAYER
5
50
100
AcDbSymbolTableRecord
100
AcDbLayerTableRecord
2
0
70
0
6
CONTINUOUS
0
ENDTAB
0
TABLE
2
STYLE
5
3
100
AcDbSymbolTable
70
1
0
STYLE
5
11
100
AcDbSymbolTableRecord
100
AcDbTextStyleTableRecord
2
STANDARD
70
0
0
ENDTAB
0
TABLE
2
VIEW
5
6
100
AcDbSymbolTable
70
0
0
ENDTAB
0
TABLE
2
UCS
5
7
100
AcDbSymbolTable
70
0
0
ENDTAB
0
TABLE
2
APPID
5
9
100
AcDbSymbolTable
70
2
0
APPID
5
12
100
AcDbSymbolTableRecord
100
AcDbRegAppTableRecord
2
ACAD
70
0
0
ENDTAB
0
TABLE
2
DIMSTYLE
5
A
100
AcDbSymbolTable
70
1
0
ENDTAB
0
TABLE
2
BLOCK_RECORD
5
1
100
AcDbSymbolTable
70
1
0
BLOCK_RECORD
5
1F
100
AcDbSymbolTableRecord
100
AcDbBlockTableRecord
2
*MODEL_SPACE
0
BLOCK_RECORD
5
1B
100
AcDbSymbolTableRecord
100
AcDbBlockTableRecord
2
*PAPER_SPACE
0
ENDTAB
0
ENDSEC
0
SECTION
2
BLOCKS
0
BLOCK
5
20
100
AcDbEntity
100
AcDbBlockBegin
2
*MODEL_SPACE
0
ENDBLK
5
21
100
AcDbEntity
100
AcDbBlockEnd
0
BLOCK
5
1C
100
AcDbEntity
100
AcDbBlockBegin
2
*PAPER_SPACE
0
ENDBLK
5
1D
100
AcDbEntity
100
AcDbBlockEnd
0
ENDSEC
0
SECTION
2
ENTITIES
0
LWPOLYLINE
5
100
100
AcDbEntity
8
0
100
AcDbPolyline
90
24
70
1
43
0.0
10
-33
20
-35
10
32.999999999999993
20
-35.000000000000007
42
-0.41421356237309509
10
37
20
-39.000000000000014
10
37
20
-59.866518188383068
42
0.59937093520283413
10
41.66666666666665
20
-62.360956446232365
42
0.52307870566237802
10
43.870317323977773
20
60.8308742160878
42
0.43014353001104411
10
42.443868977712796
20
60.560036213684313
10
39.530994298555285
20
56.022767601820533
42
-0.41421356237310508
10
38.149243196132325
20
55.721497140352874
10
34.783200068351107
20
57.88245842226349
42
-0.41421356237310258
10
34.481929606883455
20
59.264209524686464
10
37.394804286040952
20
63.801478136550216
42
0.43014353001104416
10
37.047256929826659
20
65.211201138879588
42
0.26422465986245414
10
-37.04725692982656
20
65.211201138879659
42
0.43014353001108263
10
-37.39480428604093
20
63.801478136550216
10
-34.481929606883455
20
59.264209524686464
42
-0.41421356237309753
10
-34.783200068351107
20
57.882458422263497
10
-38.149243196132325
20
55.721497140352874
42
-0.41421356237309614
10
-39.530994298555285
20
56.022767601820519
10
-42.443868977712796
20
60.560036213684313
42
0.43014353001104216
10
-43.870317323977794
20
60.830874216087835
42
0.52307870566237802
10
-41.666666666666657
20
-62.360956446232372
42
0.59937093520283313
10
-37.000000000000007
20
-59.866518188383068
10
-37.000000000000007
20
-39
42
-0.41421356237309537
0
LWPOLYLINE
5
101
100
AcDbEntity
8
0
100
AcDbPolyline
90
4
70
1
43
0.0
10
8.0000000000000018
20
-10.000000000000002
10
7.0000000000000009
20
-10.000000000000002
10
7.0000000000000009
20
-8.0000000000000036
10
8.0000000000000018
20
-8.0000000000000036
0
LWPOLYLINE
5
102
100
AcDbEntity
8
0
100
AcDbPolyline
90
4
70
1
43
0.0
10
-7.9999999999999991
20
-10.000000000000002
10
-7.9999999999999991
20
-8.0000000000000036
10
-6.9999999999999982
20
-8.0000000000000036
10
-6.9999999999999982
20
-10.000000000000002
0
LWPOLYLINE
5
103
100
AcDbEntity
8
0
100
AcDbPolyline
90
4
70
1
43
0.0
10
7.0000000000000009
20
7.9999999999999982
10
7.0000000000000009
20
9.9999999999999982
10
8.0000000000000018
20
9.9999999999999982
10
8.0000000000000018
20
7.9999999999999982
0
LWPOLYLINE
5
104
100
AcDbEntity
8
0
100
AcDbPolyline
90
4
70
1
43
0.0
10
-7.9999999999999991
20
7.9999999999999982
10
-7.9999999999999991
20
9.9999999999999982
10
-6.9999999999999982
20
9.9999999999999982
10
-6.9999999999999982
20
7.9999999999999982
0
LWPOLYLINE
5
105
100
AcDbEntity
8
0
100
AcDbPolyline
90
8
70
1
43
0.0
10
-23.999999999999986
20
-28
10
-15.999999999999996
20
-28
42
-0.4142135623730937
10
-15.499999999999993
20
-28.499999999999996
10
-15.499999999999991
20
-31.499999999999986
42
-0.41421356237309892
10
-15.999999999999993
20
-31.999999999999989
10
-23.999999999999986
20
-31.999999999999989
42
-0.41421356237309759
10
-24.499999999999989
20
-31.499999999999989
10
-24.499999999999986
20
-28.499999999999996
42
-0.41421356237309509
0
LWPOLYLINE
5
106
100
AcDbEntity
8
0
100
AcDbPolyline
90
8
70
1
43
0.0
10
15.999999999999995
20
-28
42
0.41421356237309637
10
15.499999999999993
20
-28.499999999999996
10
15.499999999999993
20
-31.499999999999989
42
0.41421356237309637
10
15.999999999999993
20
-31.999999999999993
10
23.999999999999989
20
-31.999999999999989
42
0.41421356237309759
10
24.499999999999989
20
-31.499999999999986
10
24.499999999999986
20
-28.499999999999996
42
0.41421356237309509
10
23.999999999999986
20
-28
0
LWPOLYLINE
5
107
100
AcDbEntity
8
0
100
AcDbPolyline
90
8
70
1
43
0.0
10
-15.999999999999995
20
28
42
0.41421356237309637
10
-15.499999999999993
20
28.499999999999996
10
-15.499999999999993
20
31.499999999999989
42
0.41421356237309892
10
-15.999999999999996
20
31.999999999999989
10
-23.999999999999989
20
31.999999999999989
42
0.41421356237309509
10
-24.499999999999993
20
31.499999999999989
10
-24.499999999999986
20
28.499999999999996
42
0.41421356237309509
10
-23.999999999999986
20
28
0
LWPOLYLINE
5
108
100
AcDbEntity
8
0
100
AcDbPolyline
90
8
70
1
43
0.0
10
24.499999999999989
20
31.499999999999989
42
0.41421356237309509
10
23.999999999999989
20
31.999999999999989
10
15.999999999999993
20
31.999999999999989
42
0.41421356237309637
10
15.499999999999993
20
31.499999999999989
10
15.499999999999993
20
28.499999999999996
42
0.41421356237309243
10
15.999999999999995
20
28
10
23.999999999999986
20
28
42
0.41421356237309509
10
24.499999999999986
20
28.499999999999996
0
LWPOLYLINE
5
109
100
AcDbEntity
8
0
100
AcDbPolyline
90
8
70
1
43
0.0
10
5.999999999999992
20
42
42
0.4142135623730957
10
4.9999999999999964
20
43
10
-5.0000000000000124
20
43.000000000000007
42
0.41421356237309537
10
-6.0000000000000089
20
42.000000000000014
10
-6.0000000000000089
20
38
42
0.41421356237309759
10
-5.0000000000000098
20
37.000000000000014
10
4.9999999999999947
20
37.000000000000007
42
0.4142135623730967
10
5.9999999999999911
20
38.000000000000007
0
CIRCLE
5
110
100
AcDbEntity
8
0
100
AcDbCircle
10
0
20
0
30
0
40
89
210
0
220
0
230
1
0
ENDSEC
0
SECTION
2
OBJECTS
0
DICTIONARY
5
C
100
AcDbDictionary
3
ACAD_GROUP
350
D
3
ACAD_MLINESTYLE
350
17
0
DICTIONARY
5
D
100
AcDbDictionary
0
DICTIONARY
5
1A
330
C
100
AcDbDictionary
0
DICTIONARY
5
17
100
AcDbDictionary
0
ENDSEC
0
EOF
