0
SECTION
2
HEADER
9
$INSUNITS
70
4
9
$ACADVER
1
AC1014
9
$HANDSEED
5
FFFF
0
ENDSEC
0
SECTION
2
TABLES
0
TABLE
2
VPORT
5
8
100
AcDbSymbolTable
0
ENDTAB
0
TABLE
2
LTYPE
5
5
100
AcDbSymbolTable
0
LTYPE
5
14
100
AcDbSymbolTableRecord
100
AcDbLinetypeTableRecord
2
BYBLOCK
70
0
0
LTYPE
5
15
100
AcDbSymbolTableRecord
100
AcDbLinetypeTableRecord
2
BYLAYER
70
0
0
ENDTAB
0
TABLE
2
LAYER
5
2
100
AcDbSymbolTable
70
2
0
LAYER
5
50
100
AcDbSymbolTableRecord
100
AcDbLayerTableRecord
2
0
70
0
6
CONTINUOUS
0
ENDTAB
0
TABLE
2
STYLE
5
3
100
AcDbSymbolTable
70
1
0
STYLE
5
11
100
AcDbSymbolTableRecord
100
AcDbTextStyleTableRecord
2
STANDARD
70
0
0
ENDTAB
0
TABLE
2
VIEW
5
6
100
AcDbSymbolTable
70
0
0
ENDTAB
0
TABLE
2
UCS
5
7
100
AcDbSymbolTable
70
0
0
ENDTAB
0
TABLE
2
APPID
5
9
100
AcDbSymbolTable
70
2
0
APPID
5
12
100
AcDbSymbolTableRecord
100
AcDbRegAppTableRecord
2
ACAD
70
0
0
ENDTAB
0
TABLE
2
DIMSTYLE
5
A
100
AcDbSymbolTable
70
1
0
ENDTAB
0
TABLE
2
BLOCK_RECORD
5
1
100
AcDbSymbolTable
70
1
0
BLOCK_RECORD
5
1F
100
AcDbSymbolTableRecord
100
AcDbBlockTableRecord
2
*MODEL_SPACE
0
BLOCK_RECORD
5
1B
100
AcDbSymbolTableRecord
100
AcDbBlockTableRecord
2
*PAPER_SPACE
0
ENDTAB
0
ENDSEC
0
SECTION
2
BLOCKS
0
BLOCK
5
20
100
AcDbEntity
100
AcDbBlockBegin
2
*MODEL_SPACE
0
ENDBLK
5
21
100
AcDbEntity
100
AcDbBlockEnd
0
BLOCK
5
1C
100
AcDbEntity
100
AcDbBlockBegin
2
*PAPER_SPACE
0
ENDBLK
5
1D
100
AcDbEntity
100
AcDbBlockEnd
0
ENDSEC
0
SECTION
2
ENTITIES
0
CIRCLE
5
100
100
AcDbEntity
8
0
100
AcDbCircle
10
-24
20
16.5
30
0
40
1.3500000000000023
210
0
220
-0
230
1
0
CIRCLE
5
101
100
AcDbEntity
8
0
100
AcDbCircle
10
-27.012016023882751
20
-42.075539097265306
30
0
40
1.599999999999997
210
0
220
-0
230
1
0
CIRCLE
5
102
100
AcDbEntity
8
0
100
AcDbCircle
10
7.9999999999999973
20
23.999999999999964
30
0
40
1.100000000000001
210
0
220
-0
230
1
0
LWPOLYLINE
5
103
100
AcDbEntity
8
0
100
AcDbPolyline
90
8
70
1
43
0.0
10
17.499999999999996
20
11.500000000000004
42
0.41421356237309437
10
16.5
20
12.500000000000004
10
-16.5
20
12.500000000000002
42
0.4142135623730957
10
-17.499999999999996
20
11.500000000000004
10
-17.499999999999996
20
-11.499999999999995
42
0.41421356237309759
10
-16.499999999999993
20
-12.499999999999996
10
16.500000000000004
20
-12.499999999999996
42
0.41421356237309309
10
17.5
20
-11.500000000000004
0
CIRCLE
5
104
100
AcDbEntity
8
0
100
AcDbCircle
10
24
20
-16.5
30
0
40
1.3500000000000023
210
0
220
-0
230
1
0
CIRCLE
5
105
100
AcDbEntity
8
0
100
AcDbCircle
10
27.012016023882751
20
-42.075539097265306
30
0
40
1.599999999999997
210
0
220
-0
230
1
0
CIRCLE
5
106
100
AcDbEntity
8
0
100
AcDbCircle
10
27.012016023882751
20
42.075539097265306
30
0
40
1.599999999999997
210
0
220
-0
230
1
0
CIRCLE
5
107
100
AcDbEntity
8
0
100
AcDbCircle
10
24
20
16.5
30
0
40
1.3500000000000023
210
0
220
-0
230
1
0
CIRCLE
5
108
100
AcDbEntity
8
0
100
AcDbCircle
10
-8.0000000000000036
20
23.999999999999964
30
0
40
1.100000000000001
210
0
220
-0
230
1
0
CIRCLE
5
109
100
AcDbEntity
8
0
100
AcDbCircle
10
-27.012016023882751
20
42.075539097265306
30
0
40
1.599999999999997
210
0
220
-0
230
1
0
CIRCLE
5
110
100
AcDbEntity
8
0
100
AcDbCircle
10
-24
20
-16.5
30
0
40
1.3500000000000023
210
0
220
-0
230
1
0
CIRCLE
5
111
100
AcDbEntity
8
0
100
AcDbCircle
10
-8.0000000000000053
20
-24.00000000000005
30
0
40
1.100000000000001
210
0
220
-0
230
1
0
CIRCLE
5
112
100
AcDbEntity
8
0
100
AcDbCircle
10
7.9999999999999876
20
-24.00000000000005
30
0
40
1.100000000000001
210
0
220
-0
230
1
0
LWPOLYLINE
5
113
100
AcDbEntity
8
0
100
AcDbPolyline
90
16
70
1
43
0.0
10
-30.512016023882758
20
42.075539097265306
10
-30.512016023882751
20
-42.075539097265285
42
0.99999999999999989
10
-23.512016023882751
20
-42.075539097265306
10
-23.512016023882744
20
-29.499999999999996
42
-0.4142135623730957
10
-21.512016023882747
20
-27.499999999999996
10
21.512016023882747
20
-27.499999999999996
42
-0.4142135623730937
10
23.512016023882751
20
-29.499999999999996
10
23.512016023882751
20
-42.075539097265292
42
0.99999999999999989
10
30.512016023882751
20
-42.075539097265306
10
30.512016023882751
20
42.075539097265292
42
0.99999999999999989
10
23.512016023882751
20
42.075539097265306
10
23.512016023882744
20
29.499999999999996
42
-0.4142135623730937
10
21.512016023882747
20
27.5
10
-21.512016023882747
20
27.499999999999993
42
-0.4142135623730957
10
-23.512016023882751
20
29.499999999999996
10
-23.512016023882751
20
42.075539097265306
42
0.99999999999999989
0
ENDSEC
0
SECTION
2
OBJECTS
0
DICTIONARY
5
C
100
AcDbDictionary
3
ACAD_GROUP
350
D
3
ACAD_MLINESTYLE
350
17
0
DICTIONARY
5
D
100
AcDbDictionary
0
DICTIONARY
5
1A
330
C
100
AcDbDictionary
0
DICTIONARY
5
17
100
AcDbDictionary
0
ENDSEC
0
EOF
