M48
; DRILL file {KiCad 7.0.9} date 
; FORMAT={-:-/ absolute / metric / decimal}
; #@! TF.CreationDate,2024-02-22T22:24:11+08:00
; #@! TF.GenerationSoftware,Kicad,Pcbnew,7.0.9
; #@! TF.FileFunction,Plated,1,2,PTH
FMAT,2
METRIC
; #@! TA.AperFunction,Plated,PTH,ViaDrill
T1C0.400
; #@! TA.AperFunction,Plated,PTH,ComponentDrill
T2C0.800
; #@! TA.AperFunction,Plated,PTH,ComponentDrill
T3C0.950
; #@! TA.AperFunction,Plated,PTH,ComponentDrill
T4C1.000
; #@! TA.AperFunction,Plated,PTH,ComponentDrill
T5C1.016
; #@! TA.AperFunction,Plated,PTH,ComponentDrill
T6C1.100
; #@! TA.AperFunction,Plated,PTH,ComponentDrill
T7C1.200
; #@! TA.AperFunction,Plated,PTH,ComponentDrill
T8C1.800
; #@! TA.AperFunction,Plated,PTH,ComponentDrill
T9C3.200
%
G90
G05
T1
X47.94Y-122.87
X48.0Y-145.0
X48.0Y-146.0
X48.0Y-147.0
X49.0Y-145.0
X49.0Y-146.0
X49.0Y-147.0
X49.75Y-125.0
X50.0Y-145.0
X50.0Y-146.0
X50.0Y-147.0
X51.0Y-145.0
X51.0Y-146.0
X51.0Y-147.0
X66.6Y-121.0
X68.523Y-130.562
X68.523Y-119.437
X70.694Y-141.473
X70.694Y-108.526
X72.25Y-122.0
X72.678Y-132.349
X73.849Y-111.767
X74.61Y-121.6
X74.61Y-127.95
X74.951Y-151.751
X74.951Y-98.248
X75.117Y-142.415
X77.413Y-102.042
X79.473Y-151.812
X81.131Y-161.002
X81.132Y-88.998
X82.6Y-131.4
X82.807Y-93.199
X85.579Y-160.179
X86.233Y-130.767
X88.998Y-168.868
X88.998Y-81.131
X89.75Y-118.5
X89.75Y-131.5
X89.821Y-85.579
X90.0Y-115.0
X91.0Y-118.5
X91.0Y-131.5
X91.25Y-110.25
X92.25Y-118.5
X92.25Y-131.5
X92.25Y-147.0
X92.5Y-102.0
X93.05Y-67.0
X93.05Y-68.0
X93.05Y-69.0
X93.199Y-167.193
X93.4Y-127.334
X93.5Y-118.5
X93.5Y-131.5
X94.0Y-67.0
X94.0Y-68.0
X94.0Y-69.0
X94.75Y-118.5
X94.75Y-131.5
X95.75Y-102.0
X95.809Y-127.683
X96.0Y-118.5
X96.0Y-131.5
X97.25Y-118.5
X97.25Y-131.5
X97.5Y-102.0
X97.5Y-147.0
X98.188Y-79.473
X98.248Y-175.049
X98.249Y-74.951
X98.5Y-118.5
X98.5Y-131.5
X99.5Y-110.25
X99.5Y-115.0
X101.0Y-149.0
X102.042Y-172.587
X104.25Y-122.5
X104.5Y-102.0
X104.5Y-126.5
X105.5Y-124.5
X106.5Y-149.0
X107.0Y-92.0
X107.0Y-154.75
X107.2Y-127.6
X107.585Y-75.117
X108.526Y-179.306
X108.527Y-70.694
X111.767Y-176.151
X112.25Y-154.75
X114.0Y-125.5
X114.5Y-92.0
X116.75Y-86.75
X116.75Y-122.5
X116.75Y-123.5
X116.75Y-124.5
X116.75Y-125.5
X116.75Y-128.8
X117.651Y-72.678
X119.437Y-181.477
X119.438Y-68.523
X119.75Y-86.75
X122.0Y-118.4
X122.0Y-131.6
X122.0Y-177.75
X123.0Y-118.4
X123.0Y-131.6
X124.0Y-118.4
X124.0Y-131.6
X125.0Y-118.4
X125.0Y-131.6
X126.0Y-118.4
X126.0Y-131.6
X126.96Y-196.6
X127.0Y-118.4
X127.0Y-131.6
X128.0Y-72.25
X128.0Y-118.4
X128.0Y-131.6
X130.5Y-87.0
X130.562Y-181.477
X130.563Y-68.523
X132.349Y-177.322
X133.5Y-87.0
X137.0Y-174.0
X138.233Y-73.849
X139.0Y-95.5
X140.5Y-174.0
X141.473Y-179.306
X141.474Y-70.694
X142.75Y-149.75
X143.2Y-127.6
X143.2Y-128.8
X143.201Y-122.5
X143.201Y-123.5
X143.201Y-124.5
X143.201Y-125.499
X143.205Y-126.503
X144.0Y-95.5
X144.5Y-161.0
X145.5Y-102.0
X147.0Y-145.5
X147.958Y-77.413
X148.5Y-123.488
X149.25Y-149.75
X149.4Y-202.2
X150.25Y-125.5
X150.5Y-109.0
X150.5Y-113.25
X150.5Y-133.75
X150.5Y-134.75
X150.5Y-135.75
X150.75Y-126.5
X150.8Y-127.6
X151.0Y-124.5
X151.222Y-195.86
X151.5Y-118.5
X151.5Y-131.5
X151.751Y-175.049
X151.752Y-74.951
X151.812Y-170.527
X152.75Y-118.5
X152.75Y-131.5
X154.0Y-118.5
X154.0Y-131.5
X154.25Y-149.75
X155.25Y-118.5
X155.25Y-131.5
X156.5Y-118.5
X156.5Y-131.5
X156.801Y-82.807
X157.5Y-102.0
X157.5Y-109.0
X157.75Y-118.5
X157.75Y-131.5
X158.0Y-149.75
X159.0Y-118.5
X159.0Y-131.5
X160.0Y-113.25
X160.0Y-133.75
X160.0Y-134.75
X160.0Y-135.75
X160.0Y-145.5
X160.179Y-164.421
X160.25Y-118.5
X160.25Y-131.5
X161.002Y-168.869
X161.002Y-81.132
X162.24Y-138.11
X164.421Y-89.821
X167.193Y-156.801
X168.868Y-161.002
X168.869Y-88.998
X170.527Y-98.188
X172.587Y-147.958
X174.883Y-107.585
X175.049Y-151.752
X175.049Y-98.249
X176.151Y-138.233
X177.322Y-117.651
X177.75Y-128.0
X179.306Y-141.474
X179.306Y-108.527
X181.477Y-130.563
X181.477Y-119.438
X181.5Y-133.0
X186.6Y-144.2
X186.6Y-145.2
X187.488Y-118.988
X187.5Y-114.5
X187.6Y-144.2
X188.763Y-120.263
X189.2Y-128.0
X189.355Y-130.855
X190.4Y-145.2
X191.4Y-144.2
X191.4Y-145.2
X193.75Y-125.25
X194.867Y-126.367
X195.25Y-136.25
X196.0Y-135.5
X196.2Y-128.0
X197.5Y-128.0
T2
X51.0Y-114.515
X51.0Y-117.055
X51.0Y-135.515
X51.0Y-138.055
X89.21Y-209.1
X89.21Y-211.64
X123.71Y-221.1
X126.25Y-221.1
T3
X79.0Y-122.5
X79.0Y-125.0
X79.0Y-127.5
T4
X57.8Y-111.975
X57.8Y-114.515
X57.8Y-117.055
X57.8Y-132.975
X57.8Y-135.515
X57.8Y-138.055
X81.0Y-38.0
X81.0Y-40.54
X169.0Y-38.0
X169.0Y-40.54
X190.13Y-117.38
X190.13Y-132.62
X192.67Y-117.38
X192.67Y-132.62
X195.21Y-117.38
X195.21Y-132.62
X197.75Y-117.38
X197.75Y-132.62
X200.29Y-117.38
X200.29Y-132.62
X202.83Y-117.38
X202.83Y-132.62
X205.37Y-117.38
X205.37Y-132.62
T5
X56.492Y-143.0
X59.032Y-143.0
X61.572Y-143.0
T6
X108.5Y-142.25
X132.71Y-195.1
X142.87Y-195.1
X153.63Y-201.1
X156.17Y-201.1
X158.71Y-201.1
T7
X132.71Y-200.1
X139.0Y-161.013
X139.0Y-168.513
X147.95Y-200.1
T8
X93.71Y-209.1
X93.71Y-214.1
X157.96Y-209.1
X157.96Y-214.1
T9
X35.619Y-82.636
X35.619Y-167.364
X62.644Y-90.953
X62.644Y-159.047
X67.759Y-44.334
X67.759Y-205.666
X80.642Y-69.504
X80.642Y-180.496
X108.946Y-192.218
X115.25Y-116.0
X115.25Y-134.0
X134.75Y-116.0
X134.75Y-134.0
X142.474Y-208.982
X169.358Y-69.504
X169.358Y-180.496
X182.241Y-44.5
X182.241Y-205.666
X187.356Y-90.953
X187.356Y-159.047
X214.381Y-82.636
X214.381Y-167.364
T0
M30
