%TF.GenerationSoftware,KiCad,Pcbnew,7.0.9*%
%TF.CreationDate,2024-02-22T22:24:12+08:00*%
%TF.ProjectId,layer1,6c617965-7231-42e6-9b69-6361645f7063,1.1*%
%TF.SameCoordinates,Original*%
%TF.FileFunction,Drillmap*%
%TF.FilePolarity,Positive*%
%FSLAX45Y45*%
G04 Gerber Fmt 4.5, Leading zero omitted, Abs format (unit mm)*
G04 Created by KiCad (PCBNEW 7.0.9) date 2024-02-22 22:24:12*
%MOMM*%
%LPD*%
G01*
G04 APERTURE LIST*
%ADD10C,0.200000*%
G04 APERTURE END LIST*
D10*
X21473145Y-16184110D02*
G75*
G03*
X21473145Y-8815890I-8973145J3684110D01*
G01*
X17007085Y-6257545D02*
X18842253Y-4717656D01*
X19148499Y-9120728D02*
X16982433Y-6539311D01*
X21598051Y-16736397D02*
G75*
G03*
X21598051Y-16736397I-160000J0D01*
G01*
X20860733Y-15831387D02*
G75*
G03*
X20860733Y-9168613I-8360733J3331388D01*
G01*
X20917970Y-8941373D02*
G75*
G03*
X20860733Y-9168613I128550J-153207D01*
G01*
X11685000Y-11600000D02*
G75*
G03*
X11685000Y-11600000I-160000J0D01*
G01*
X21159572Y-16261360D02*
G75*
G03*
X21473145Y-16184110I128558J153210D01*
G01*
X13635000Y-13400000D02*
G75*
G03*
X13635000Y-13400000I-160000J0D01*
G01*
X21265434Y-7605490D02*
X19430265Y-9145379D01*
X3526855Y-8815890D02*
G75*
G03*
X3526855Y-16184110I8973145J-3684110D01*
G01*
X6167927Y-20750143D02*
G75*
G03*
X18832073Y-20750143I6332073J8250143D01*
G01*
X8500000Y-5461072D02*
X8500000Y-3361072D01*
X13635000Y-11600000D02*
G75*
G03*
X13635000Y-11600000I-160000J0D01*
G01*
X6935887Y-4433380D02*
G75*
G03*
X6935887Y-4433380I-160000J0D01*
G01*
X16000000Y-5961072D02*
X9000000Y-5961072D01*
X18832075Y-20750145D02*
G75*
G03*
X18842253Y-20282345I-182655J237985D01*
G01*
X18832073Y-4249857D02*
G75*
G03*
X16927723Y-3089619I-6332073J-8250143D01*
G01*
X4082030Y-8941373D02*
X3840426Y-8738642D01*
X6424445Y-9095318D02*
G75*
G03*
X6424445Y-9095318I-160000J0D01*
G01*
X6424445Y-15904682D02*
G75*
G03*
X6424445Y-15904682I-160000J0D01*
G01*
X8017567Y-6539311D02*
X5851501Y-9120728D01*
X3275644Y-17303252D02*
G75*
G03*
X3734566Y-17394510I266086J138552D01*
G01*
X21598051Y-8263603D02*
G75*
G03*
X21598051Y-8263603I-160000J0D01*
G01*
X3275643Y-7696748D02*
G75*
G03*
X3275643Y-17303252I9224357J-4803252D01*
G01*
X5851500Y-15879273D02*
G75*
G03*
X5569735Y-15854621I-153210J-128567D01*
G01*
X5851501Y-15879272D02*
X8017567Y-18460689D01*
X20917970Y-16058627D02*
X21159574Y-16261358D01*
X3840426Y-16261358D02*
X4082030Y-16058627D01*
X16927724Y-3089617D02*
G75*
G03*
X16500000Y-3361072I-127724J-271453D01*
G01*
X6167927Y-4249857D02*
G75*
G03*
X6157747Y-4717656I182649J-237985D01*
G01*
X18842253Y-20282345D02*
X17007085Y-18742455D01*
X7992915Y-18742455D02*
X6157747Y-20282345D01*
X3840426Y-8738642D02*
G75*
G03*
X3526855Y-8815890I-128559J-153204D01*
G01*
X11685000Y-13400000D02*
G75*
G03*
X11685000Y-13400000I-160000J0D01*
G01*
X8224250Y-6950393D02*
G75*
G03*
X8224250Y-6950393I-160000J0D01*
G01*
X19430265Y-15854621D02*
X21265434Y-17394510D01*
X4139267Y-9168613D02*
G75*
G03*
X4139267Y-15831387I8360733J-3331387D01*
G01*
X18384113Y-4433380D02*
G75*
G03*
X18384113Y-4433380I-160000J0D01*
G01*
X18895555Y-15904682D02*
G75*
G03*
X18895555Y-15904682I-160000J0D01*
G01*
X3526858Y-16184108D02*
G75*
G03*
X3840426Y-16261357I185012J75958D01*
G01*
X3734566Y-7605490D02*
G75*
G03*
X3275643Y-7696748I-192837J-229809D01*
G01*
X4082030Y-16058627D02*
G75*
G03*
X4139267Y-15831387I-128550J153207D01*
G01*
X3734566Y-17394510D02*
X5569735Y-15854621D01*
X6157747Y-4717656D02*
X7992915Y-6257545D01*
X17095750Y-6950393D02*
G75*
G03*
X17095750Y-6950393I-160000J0D01*
G01*
X18895555Y-9095318D02*
G75*
G03*
X18895555Y-9095318I-160000J0D01*
G01*
X8017567Y-6539311D02*
G75*
G03*
X7992915Y-6257545I-153215J128557D01*
G01*
X8499998Y-3361072D02*
G75*
G03*
X8072277Y-3089619I-299998J2D01*
G01*
X21724357Y-17303252D02*
G75*
G03*
X21724357Y-7696748I-9224357J4803252D01*
G01*
X5569735Y-9145379D02*
X3734566Y-7605490D01*
X16000000Y-5961070D02*
G75*
G03*
X16500000Y-5461072I0J500000D01*
G01*
X16982433Y-18460689D02*
X19148499Y-15879272D01*
X4139262Y-9168610D02*
G75*
G03*
X4082030Y-8941373I-185802J74030D01*
G01*
X5569732Y-9145382D02*
G75*
G03*
X5851501Y-9120728I128558J153202D01*
G01*
X18842251Y-4717653D02*
G75*
G03*
X18832073Y-4249857I-192831J229813D01*
G01*
X16500000Y-3361072D02*
X16500000Y-5461072D01*
X18384113Y-20566620D02*
G75*
G03*
X18384113Y-20566620I-160000J0D01*
G01*
X8224250Y-18049607D02*
G75*
G03*
X8224250Y-18049607I-160000J0D01*
G01*
X21473142Y-8815892D02*
G75*
G03*
X21159574Y-8738643I-185012J-75958D01*
G01*
X6157747Y-20282345D02*
G75*
G03*
X6167927Y-20750143I192837J-229813D01*
G01*
X8072277Y-3089619D02*
G75*
G03*
X6167927Y-4249857I4427723J-9410381D01*
G01*
X21265433Y-17394511D02*
G75*
G03*
X21724357Y-17303252I192837J229811D01*
G01*
X3721949Y-16736397D02*
G75*
G03*
X3721949Y-16736397I-160000J0D01*
G01*
X3721949Y-8263603D02*
G75*
G03*
X3721949Y-8263603I-160000J0D01*
G01*
X21159574Y-8738642D02*
X20917970Y-8941373D01*
X21724356Y-7696748D02*
G75*
G03*
X21265434Y-7605490I-266086J-138552D01*
G01*
X7992915Y-18742455D02*
G75*
G03*
X8017567Y-18460689I-128546J153208D01*
G01*
X16982437Y-18460692D02*
G75*
G03*
X17007085Y-18742455I153203J-128558D01*
G01*
X17095750Y-18049607D02*
G75*
G03*
X17095750Y-18049607I-160000J0D01*
G01*
X8499998Y-5461072D02*
G75*
G03*
X9000000Y-5961072I500002J2D01*
G01*
X19430268Y-15854618D02*
G75*
G03*
X19148499Y-15879272I-128558J-153202D01*
G01*
X17007082Y-6257541D02*
G75*
G03*
X16982433Y-6539311I128559J-153209D01*
G01*
X6935887Y-20566620D02*
G75*
G03*
X6935887Y-20566620I-160000J0D01*
G01*
X20860736Y-15831388D02*
G75*
G03*
X20917970Y-16058627I185794J-74032D01*
G01*
X19148500Y-9120727D02*
G75*
G03*
X19430265Y-9145379I153210J128567D01*
G01*
X2350777Y-23221484D02*
X2350777Y-23021484D01*
X2350777Y-23021484D02*
X2398396Y-23021484D01*
X2398396Y-23021484D02*
X2426967Y-23031008D01*
X2426967Y-23031008D02*
X2446015Y-23050055D01*
X2446015Y-23050055D02*
X2455539Y-23069103D01*
X2455539Y-23069103D02*
X2465063Y-23107198D01*
X2465063Y-23107198D02*
X2465063Y-23135769D01*
X2465063Y-23135769D02*
X2455539Y-23173865D01*
X2455539Y-23173865D02*
X2446015Y-23192912D01*
X2446015Y-23192912D02*
X2426967Y-23211960D01*
X2426967Y-23211960D02*
X2398396Y-23221484D01*
X2398396Y-23221484D02*
X2350777Y-23221484D01*
X2550777Y-23221484D02*
X2550777Y-23088150D01*
X2550777Y-23126246D02*
X2560301Y-23107198D01*
X2560301Y-23107198D02*
X2569824Y-23097674D01*
X2569824Y-23097674D02*
X2588872Y-23088150D01*
X2588872Y-23088150D02*
X2607920Y-23088150D01*
X2674586Y-23221484D02*
X2674586Y-23088150D01*
X2674586Y-23021484D02*
X2665063Y-23031008D01*
X2665063Y-23031008D02*
X2674586Y-23040531D01*
X2674586Y-23040531D02*
X2684110Y-23031008D01*
X2684110Y-23031008D02*
X2674586Y-23021484D01*
X2674586Y-23021484D02*
X2674586Y-23040531D01*
X2798396Y-23221484D02*
X2779348Y-23211960D01*
X2779348Y-23211960D02*
X2769824Y-23192912D01*
X2769824Y-23192912D02*
X2769824Y-23021484D01*
X2903158Y-23221484D02*
X2884110Y-23211960D01*
X2884110Y-23211960D02*
X2874586Y-23192912D01*
X2874586Y-23192912D02*
X2874586Y-23021484D01*
X3131729Y-23221484D02*
X3131729Y-23021484D01*
X3131729Y-23021484D02*
X3198396Y-23164341D01*
X3198396Y-23164341D02*
X3265062Y-23021484D01*
X3265062Y-23021484D02*
X3265062Y-23221484D01*
X3446015Y-23221484D02*
X3446015Y-23116722D01*
X3446015Y-23116722D02*
X3436491Y-23097674D01*
X3436491Y-23097674D02*
X3417443Y-23088150D01*
X3417443Y-23088150D02*
X3379348Y-23088150D01*
X3379348Y-23088150D02*
X3360301Y-23097674D01*
X3446015Y-23211960D02*
X3426967Y-23221484D01*
X3426967Y-23221484D02*
X3379348Y-23221484D01*
X3379348Y-23221484D02*
X3360301Y-23211960D01*
X3360301Y-23211960D02*
X3350777Y-23192912D01*
X3350777Y-23192912D02*
X3350777Y-23173865D01*
X3350777Y-23173865D02*
X3360301Y-23154817D01*
X3360301Y-23154817D02*
X3379348Y-23145293D01*
X3379348Y-23145293D02*
X3426967Y-23145293D01*
X3426967Y-23145293D02*
X3446015Y-23135769D01*
X3541253Y-23088150D02*
X3541253Y-23288150D01*
X3541253Y-23097674D02*
X3560301Y-23088150D01*
X3560301Y-23088150D02*
X3598396Y-23088150D01*
X3598396Y-23088150D02*
X3617443Y-23097674D01*
X3617443Y-23097674D02*
X3626967Y-23107198D01*
X3626967Y-23107198D02*
X3636491Y-23126246D01*
X3636491Y-23126246D02*
X3636491Y-23183388D01*
X3636491Y-23183388D02*
X3626967Y-23202436D01*
X3626967Y-23202436D02*
X3617443Y-23211960D01*
X3617443Y-23211960D02*
X3598396Y-23221484D01*
X3598396Y-23221484D02*
X3560301Y-23221484D01*
X3560301Y-23221484D02*
X3541253Y-23211960D01*
X3722205Y-23202436D02*
X3731729Y-23211960D01*
X3731729Y-23211960D02*
X3722205Y-23221484D01*
X3722205Y-23221484D02*
X3712682Y-23211960D01*
X3712682Y-23211960D02*
X3722205Y-23202436D01*
X3722205Y-23202436D02*
X3722205Y-23221484D01*
X3722205Y-23097674D02*
X3731729Y-23107198D01*
X3731729Y-23107198D02*
X3722205Y-23116722D01*
X3722205Y-23116722D02*
X3712682Y-23107198D01*
X3712682Y-23107198D02*
X3722205Y-23097674D01*
X3722205Y-23097674D02*
X3722205Y-23116722D01*
M02*
