G04 #@! TF.GenerationSoftware,KiCad,Pcbnew,7.0.9*
G04 #@! TF.CreationDate,2024-02-22T22:24:09+08:00*
G04 #@! TF.ProjectId,layer1,6c617965-7231-42e6-9b69-6361645f7063,1.1*
G04 #@! TF.SameCoordinates,Original*
G04 #@! TF.FileFunction,Profile,NP*
%FSLAX46Y46*%
G04 Gerber Fmt 4.6, Leading zero omitted, Abs format (unit mm)*
G04 Created by KiCad (PCBNEW 7.0.9) date 2024-02-22 22:24:09*
%MOMM*%
%LPD*%
G01*
G04 APERTURE LIST*
G04 #@! TA.AperFunction,Profile*
%ADD10C,0.200000*%
G04 #@! TD*
G04 APERTURE END LIST*
D10*
X214731451Y-161841098D02*
G75*
G03*
X214731451Y-88158902I-89731451J36841098D01*
G01*
X170070846Y-62575448D02*
X188422531Y-47176555D01*
X191484989Y-91207277D02*
X169824332Y-65393112D01*
X215980513Y-167363974D02*
G75*
G03*
X215980513Y-167363974I-1600000J0D01*
G01*
X208607331Y-158313875D02*
G75*
G03*
X208607331Y-91686125I-83607331J33313875D01*
G01*
X209179697Y-89413730D02*
G75*
G03*
X208607332Y-91686125I1285503J-1532070D01*
G01*
X116850000Y-116000000D02*
G75*
G03*
X116850000Y-116000000I-1600000J0D01*
G01*
X211595722Y-162613602D02*
G75*
G03*
X214731451Y-161841098I1285578J1532102D01*
G01*
X136350000Y-134000000D02*
G75*
G03*
X136350000Y-134000000I-1600000J0D01*
G01*
X212654339Y-76054899D02*
X194302653Y-91453791D01*
X35268549Y-88158902D02*
G75*
G03*
X35268549Y-161841098I89731451J-36841098D01*
G01*
X61679272Y-207501427D02*
G75*
G03*
X188320728Y-207501427I63320728J82501428D01*
G01*
X85000000Y-54610723D02*
X85000000Y-33610723D01*
X136350000Y-116000000D02*
G75*
G03*
X136350000Y-116000000I-1600000J0D01*
G01*
X69358867Y-44333804D02*
G75*
G03*
X69358867Y-44333804I-1600000J0D01*
G01*
X160000000Y-59610723D02*
X90000000Y-59610723D01*
X188320748Y-207501453D02*
G75*
G03*
X188422531Y-202823445I-1826548J2379853D01*
G01*
X188320727Y-42498574D02*
G75*
G03*
X169277228Y-30896191I-63320727J-82501426D01*
G01*
X40820304Y-89413728D02*
X38404256Y-87386424D01*
X64244446Y-90953180D02*
G75*
G03*
X64244446Y-90953180I-1600000J0D01*
G01*
X64244446Y-159046820D02*
G75*
G03*
X64244446Y-159046820I-1600000J0D01*
G01*
X80175668Y-65393112D02*
X58515011Y-91207277D01*
X32756437Y-173032515D02*
G75*
G03*
X37345661Y-173945101I2660863J1385515D01*
G01*
X215980513Y-82636026D02*
G75*
G03*
X215980513Y-82636026I-1600000J0D01*
G01*
X32756426Y-76967479D02*
G75*
G03*
X32756426Y-173032521I92243574J-48032521D01*
G01*
X58514996Y-158792735D02*
G75*
G03*
X55697348Y-158546210I-1532096J-1285665D01*
G01*
X58515011Y-158792723D02*
X80175668Y-184606888D01*
X209179696Y-160586272D02*
X211595744Y-162613576D01*
X38404256Y-162613576D02*
X40820304Y-160586272D01*
X169277237Y-30896171D02*
G75*
G03*
X165000000Y-33610723I-1277237J-2714529D01*
G01*
X61679272Y-42498573D02*
G75*
G03*
X61577469Y-47176555I1826488J-2379847D01*
G01*
X188422531Y-202823445D02*
X170070846Y-187424552D01*
X79929154Y-187424552D02*
X61577469Y-202823445D01*
X38404258Y-87386422D02*
G75*
G03*
X35268549Y-88158902I-1285588J-1532038D01*
G01*
X116850000Y-134000000D02*
G75*
G03*
X116850000Y-134000000I-1600000J0D01*
G01*
X82242499Y-69503935D02*
G75*
G03*
X82242499Y-69503935I-1600000J0D01*
G01*
X194302653Y-158546209D02*
X212654339Y-173945101D01*
X41392669Y-91686125D02*
G75*
G03*
X41392669Y-158313875I83607331J-33313875D01*
G01*
X183841133Y-44333804D02*
G75*
G03*
X183841133Y-44333804I-1600000J0D01*
G01*
X188955554Y-159046820D02*
G75*
G03*
X188955554Y-159046820I-1600000J0D01*
G01*
X35268581Y-161841084D02*
G75*
G03*
X38404256Y-162613575I1850119J759584D01*
G01*
X37345660Y-76054900D02*
G75*
G03*
X32756427Y-76967479I-1928370J-2298090D01*
G01*
X40820303Y-160586270D02*
G75*
G03*
X41392668Y-158313875I-1285503J1532070D01*
G01*
X37345661Y-173945101D02*
X55697347Y-158546209D01*
X61577469Y-47176555D02*
X79929154Y-62575448D01*
X170957501Y-69503935D02*
G75*
G03*
X170957501Y-69503935I-1600000J0D01*
G01*
X188955554Y-90953180D02*
G75*
G03*
X188955554Y-90953180I-1600000J0D01*
G01*
X80175666Y-65393110D02*
G75*
G03*
X79929154Y-62575448I-1532146J1285570D01*
G01*
X84999979Y-33610723D02*
G75*
G03*
X80722772Y-30896190I-2999979J23D01*
G01*
X217243574Y-173032521D02*
G75*
G03*
X217243574Y-76967479I-92243574J48032521D01*
G01*
X55697347Y-91453791D02*
X37345661Y-76054899D01*
X160000000Y-59610700D02*
G75*
G03*
X165000000Y-54610723I0J5000000D01*
G01*
X169824332Y-184606888D02*
X191484989Y-158792723D01*
X41392617Y-91686104D02*
G75*
G03*
X40820303Y-89413729I-1858017J740304D01*
G01*
X55697320Y-91453823D02*
G75*
G03*
X58515010Y-91207276I1285580J1532023D01*
G01*
X188422510Y-47176530D02*
G75*
G03*
X188320728Y-42498573I-1928310J2298130D01*
G01*
X165000000Y-33610723D02*
X165000000Y-54610723D01*
X183841133Y-205666196D02*
G75*
G03*
X183841133Y-205666196I-1600000J0D01*
G01*
X82242499Y-180496065D02*
G75*
G03*
X82242499Y-180496065I-1600000J0D01*
G01*
X214731419Y-88158916D02*
G75*
G03*
X211595744Y-87386425I-1850119J-759584D01*
G01*
X61577471Y-202823448D02*
G75*
G03*
X61679272Y-207501426I1928369J-2298132D01*
G01*
X80722772Y-30896190D02*
G75*
G03*
X61679272Y-42498573I44277228J-94103810D01*
G01*
X212654331Y-173945110D02*
G75*
G03*
X217243574Y-173032521I1928369J2298110D01*
G01*
X37219487Y-167363974D02*
G75*
G03*
X37219487Y-167363974I-1600000J0D01*
G01*
X37219487Y-82636026D02*
G75*
G03*
X37219487Y-82636026I-1600000J0D01*
G01*
X211595744Y-87386424D02*
X209179696Y-89413728D01*
X217243563Y-76967485D02*
G75*
G03*
X212654339Y-76054899I-2660863J-1385515D01*
G01*
X79929151Y-187424549D02*
G75*
G03*
X80175668Y-184606888I-1285461J1532079D01*
G01*
X169824370Y-184606920D02*
G75*
G03*
X170070846Y-187424552I1532030J-1285580D01*
G01*
X170957501Y-180496065D02*
G75*
G03*
X170957501Y-180496065I-1600000J0D01*
G01*
X84999977Y-54610723D02*
G75*
G03*
X90000000Y-59610723I5000023J23D01*
G01*
X194302680Y-158546177D02*
G75*
G03*
X191484990Y-158792724I-1285580J-1532023D01*
G01*
X170070815Y-62575411D02*
G75*
G03*
X169824332Y-65393112I1285585J-1532089D01*
G01*
X69358867Y-205666196D02*
G75*
G03*
X69358867Y-205666196I-1600000J0D01*
G01*
X208607357Y-158313885D02*
G75*
G03*
X209179696Y-160586272I1857943J-740315D01*
G01*
X191485004Y-91207265D02*
G75*
G03*
X194302652Y-91453790I1532096J1285665D01*
G01*
M02*
