M48
; DRILL file {KiCad 7.0.9} date 
; FORMAT={-:-/ absolute / metric / decimal}
; #@! TF.CreationDate,2023-12-19T12:28:13+08:00
; #@! TF.GenerationSoftware,Kicad,Pcbnew,7.0.9
; #@! TF.FileFunction,Plated,1,2,PTH
FMAT,2
METRIC
; #@! TA.AperFunction,Plated,PTH,ViaDrill
T1C0.400
; #@! TA.AperFunction,Plated,PTH,ComponentDrill
T2C0.800
; #@! TA.AperFunction,Plated,PTH,ComponentDrill
T3C1.000
; #@! TA.AperFunction,Plated,PTH,ComponentDrill
T4C1.016
; #@! TA.AperFunction,Plated,PTH,ComponentDrill
T5C1.100
; #@! TA.AperFunction,Plated,PTH,ComponentDrill
T6C1.200
; #@! TA.AperFunction,Plated,PTH,ComponentDrill
T7C1.800
; #@! TA.AperFunction,Plated,PTH,ComponentDrill
T8C3.200
%
G90
G05
T1
X31.75Y-105.0
X49.0Y-111.8
X49.0Y-114.0
X50.0Y-111.8
X50.0Y-114.0
X50.2Y-121.9
X50.2Y-122.9
X50.2Y-123.9
X51.0Y-111.8
X51.0Y-114.0
X51.2Y-121.9
X51.2Y-122.9
X51.2Y-123.9
X52.2Y-121.9
X52.2Y-122.9
X52.2Y-123.9
X53.2Y-121.9
X53.2Y-122.9
X53.2Y-123.9
X58.475Y-100.418
X58.475Y-109.582
X60.263Y-91.429
X60.263Y-118.571
X62.25Y-102.0
X62.486Y-110.398
X63.657Y-93.718
X63.77Y-82.962
X63.77Y-127.038
X64.356Y-118.588
X66.233Y-110.767
X66.652Y-85.869
X67.788Y-126.256
X68.862Y-75.342
X69.75Y-98.5
X69.75Y-111.5
X70.0Y-95.0
X70.385Y-133.135
X71.0Y-98.5
X71.0Y-111.5
X71.121Y-78.755
X71.25Y-90.25
X72.25Y-98.5
X72.25Y-111.5
X72.25Y-127.0
X72.5Y-82.0
X72.65Y-133.107
X73.4Y-107.334
X73.5Y-98.5
X73.5Y-111.5
X74.75Y-98.5
X74.75Y-111.5
X75.342Y-68.862
X75.342Y-137.0
X75.75Y-82.0
X75.809Y-107.683
X76.0Y-98.5
X76.0Y-111.5
X76.0Y-127.0
X76.893Y-72.65
X77.25Y-98.5
X77.25Y-111.5
X77.5Y-82.0
X78.5Y-98.5
X78.5Y-111.5
X78.755Y-138.879
X79.25Y-129.0
X79.5Y-90.25
X79.5Y-95.0
X80.25Y-54.4
X80.25Y-55.4
X80.25Y-56.4
X81.2Y-54.4
X81.2Y-55.4
X81.2Y-56.4
X81.75Y-135.25
X82.962Y-63.77
X82.962Y-146.23
X83.744Y-67.788
X84.25Y-102.5
X84.25Y-135.25
X84.5Y-82.0
X84.5Y-106.5
X85.5Y-104.5
X85.869Y-143.348
X86.5Y-129.0
X87.0Y-134.75
X87.2Y-107.6
X89.5Y-72.0
X91.412Y-64.356
X91.429Y-60.263
X91.429Y-149.737
X92.25Y-134.75
X93.718Y-146.343
X94.0Y-105.5
X94.5Y-72.0
X96.75Y-66.75
X96.75Y-102.5
X96.75Y-103.5
X96.75Y-104.5
X96.75Y-105.5
X96.75Y-108.8
X99.602Y-62.486
X99.75Y-66.75
X100.418Y-58.475
X100.418Y-151.525
X102.0Y-98.4
X102.0Y-111.6
X102.0Y-147.75
X103.0Y-98.4
X103.0Y-111.6
X104.0Y-98.4
X104.0Y-111.6
X105.0Y-98.4
X105.0Y-111.6
X106.0Y-98.4
X106.0Y-111.6
X106.25Y-161.5
X107.0Y-98.4
X107.0Y-111.6
X108.0Y-62.25
X108.0Y-98.4
X108.0Y-111.6
X109.582Y-58.475
X109.582Y-151.525
X110.398Y-147.514
X110.5Y-67.0
X113.5Y-67.0
X114.5Y-139.5
X116.282Y-63.657
X117.5Y-74.0
X118.571Y-60.263
X118.588Y-145.644
X120.5Y-133.5
X121.5Y-134.25
X122.5Y-74.0
X122.75Y-129.75
X123.2Y-107.6
X123.2Y-108.8
X123.2Y-102.5
X123.2Y-103.5
X123.2Y-104.5
X123.2Y-105.499
X123.205Y-106.503
X124.131Y-66.652
X125.5Y-82.0
X126.256Y-142.212
X127.0Y-125.5
X127.038Y-63.77
X127.038Y-146.23
X128.25Y-167.5
X128.5Y-103.488
X128.75Y-134.75
X128.75Y-136.75
X129.25Y-129.75
X130.25Y-105.5
X130.5Y-89.0
X130.5Y-93.25
X130.5Y-113.75
X130.5Y-114.75
X130.5Y-115.75
X130.512Y-160.76
X130.75Y-106.5
X130.8Y-107.6
X131.0Y-104.5
X131.245Y-71.121
X131.5Y-98.5
X131.5Y-111.5
X132.5Y-82.0
X132.75Y-98.5
X132.75Y-111.5
X133.107Y-137.35
X133.5Y-155.75
X134.0Y-98.5
X134.0Y-111.5
X134.25Y-82.0
X134.25Y-129.75
X134.658Y-68.862
X134.658Y-141.138
X135.25Y-98.5
X135.25Y-111.5
X135.25Y-161.5
X136.407Y-147.329
X136.5Y-98.5
X136.5Y-111.5
X137.35Y-76.893
X137.5Y-82.0
X137.5Y-89.0
X137.5Y-129.75
X137.75Y-98.5
X137.75Y-111.5
X138.75Y-93.25
X138.879Y-131.245
X139.0Y-98.5
X139.0Y-111.5
X140.0Y-113.75
X140.0Y-114.75
X140.0Y-115.75
X140.0Y-125.5
X140.25Y-98.5
X140.25Y-111.5
X141.138Y-75.342
X141.138Y-134.658
X142.212Y-83.744
X143.348Y-124.131
X144.5Y-111.0
X145.644Y-91.412
X146.23Y-82.962
X146.23Y-127.038
X146.343Y-116.282
X147.514Y-99.602
X147.75Y-108.0
X149.0Y-111.0
X149.737Y-91.429
X149.737Y-118.571
X151.525Y-100.418
X151.525Y-109.582
X153.5Y-111.0
X155.5Y-111.0
X156.5Y-108.0
X164.3Y-95.8
X166.25Y-110.0
X166.25Y-111.75
X167.488Y-98.988
X168.763Y-100.263
X173.75Y-105.25
X174.867Y-106.367
X175.25Y-116.25
X176.0Y-115.5
X177.5Y-108.0
T2
X33.0Y-94.515
X33.0Y-97.055
X33.0Y-115.515
X33.0Y-118.055
X68.5Y-174.0
X68.5Y-176.54
X103.0Y-186.0
X105.54Y-186.0
T3
X37.8Y-91.975
X37.8Y-94.515
X37.8Y-97.055
X37.8Y-112.975
X37.8Y-115.515
X37.8Y-118.055
X65.0Y-33.0
X65.0Y-35.54
X145.0Y-33.0
X145.0Y-35.54
X170.13Y-97.38
X170.13Y-112.62
X172.67Y-97.38
X172.67Y-112.62
X175.21Y-97.38
X175.21Y-112.62
X177.75Y-97.38
X177.75Y-112.62
X180.29Y-97.38
X180.29Y-112.62
X182.83Y-97.38
X182.83Y-112.62
X185.37Y-97.38
X185.37Y-112.62
T4
X36.492Y-123.0
X39.032Y-123.0
X41.572Y-123.0
T5
X88.5Y-122.25
X112.0Y-160.0
X122.16Y-160.0
X132.92Y-166.0
X135.46Y-166.0
X138.0Y-166.0
T6
X112.0Y-165.0
X119.0Y-141.013
X119.0Y-148.513
X127.24Y-165.0
T7
X73.0Y-174.0
X73.0Y-179.0
X137.25Y-174.0
X137.25Y-179.0
T8
X27.498Y-72.604
X27.498Y-137.396
X54.135Y-80.595
X54.135Y-129.405
X59.638Y-34.301
X59.638Y-175.699
X72.133Y-150.854
X72.133Y-59.146
X88.236Y-157.118
X90.0Y-48.868
X95.25Y-96.0
X95.25Y-114.0
X114.75Y-96.0
X114.75Y-114.0
X120.0Y-48.868
X121.764Y-173.882
X137.867Y-59.146
X137.867Y-150.854
X150.362Y-34.301
X150.362Y-175.699
X155.865Y-80.595
X155.865Y-129.405
X182.501Y-72.604
X182.501Y-137.396
T0
M30
