G04 #@! TF.GenerationSoftware,KiCad,Pcbnew,7.0.9*
G04 #@! TF.CreationDate,2023-12-19T12:28:11+08:00*
G04 #@! TF.ProjectId,layer1,6c617965-7231-42e6-9b69-6361645f7063,rev?*
G04 #@! TF.SameCoordinates,Original*
G04 #@! TF.FileFunction,Soldermask,Bot*
G04 #@! TF.FilePolarity,Negative*
%FSLAX46Y46*%
G04 Gerber Fmt 4.6, Leading zero omitted, Abs format (unit mm)*
G04 Created by KiCad (PCBNEW 7.0.9) date 2023-12-19 12:28:11*
%MOMM*%
%LPD*%
G01*
G04 APERTURE LIST*
G04 Aperture macros list*
%AMRoundRect*
0 Rectangle with rounded corners*
0 $1 Rounding radius*
0 $2 $3 $4 $5 $6 $7 $8 $9 X,Y pos of 4 corners*
0 Add a 4 corners polygon primitive as box body*
4,1,4,$2,$3,$4,$5,$6,$7,$8,$9,$2,$3,0*
0 Add four circle primitives for the rounded corners*
1,1,$1+$1,$2,$3*
1,1,$1+$1,$4,$5*
1,1,$1+$1,$6,$7*
1,1,$1+$1,$8,$9*
0 Add four rect primitives between the rounded corners*
20,1,$1+$1,$2,$3,$4,$5,0*
20,1,$1+$1,$4,$5,$6,$7,0*
20,1,$1+$1,$6,$7,$8,$9,0*
20,1,$1+$1,$8,$9,$2,$3,0*%
G04 Aperture macros list end*
%ADD10R,2.400000X2.400000*%
%ADD11C,2.400000*%
%ADD12C,6.400000*%
%ADD13R,2.200000X2.200000*%
%ADD14O,2.200000X2.200000*%
%ADD15R,1.700000X1.700000*%
%ADD16O,1.700000X1.700000*%
%ADD17RoundRect,0.150000X0.600000X-0.600000X0.600000X0.600000X-0.600000X0.600000X-0.600000X-0.600000X0*%
%ADD18RoundRect,0.150000X-0.600000X0.600000X-0.600000X-0.600000X0.600000X-0.600000X0.600000X0.600000X0*%
%ADD19R,3.000000X3.000000*%
%ADD20C,3.000000*%
%ADD21R,1.905000X2.000000*%
%ADD22O,1.905000X2.000000*%
%ADD23RoundRect,0.250001X-0.799999X-0.799999X0.799999X-0.799999X0.799999X0.799999X-0.799999X0.799999X0*%
%ADD24O,2.400000X2.400000*%
%ADD25C,2.082800*%
%ADD26RoundRect,0.225000X0.325973X0.082864X-0.048188X0.332871X-0.325973X-0.082864X0.048188X-0.332871X0*%
%ADD27RoundRect,0.218750X-0.416600X0.140169X-0.331248X-0.288925X0.416600X-0.140169X0.331248X0.288925X0*%
%ADD28RoundRect,0.250000X0.735082X0.696732X-0.027118X1.012445X-0.735082X-0.696732X0.027118X-1.012445X0*%
%ADD29RoundRect,0.250000X0.585032X0.826752X-0.224115X0.987701X-0.585032X-0.826752X0.224115X-0.987701X0*%
%ADD30RoundRect,0.225000X-0.250000X0.225000X-0.250000X-0.225000X0.250000X-0.225000X0.250000X0.225000X0*%
%ADD31RoundRect,0.218750X0.435941X-0.056201X0.268517X0.347997X-0.435941X0.056201X-0.268517X-0.347997X0*%
%ADD32RoundRect,0.200000X-0.290014X-0.177530X0.079538X-0.330604X0.290014X0.177530X-0.079538X0.330604X0*%
%ADD33RoundRect,0.225000X-0.048188X-0.332871X0.325973X-0.082864X0.048188X0.332871X-0.325973X0.082864X0*%
%ADD34RoundRect,0.200000X-0.339768X0.013512X-0.117540X-0.319076X0.339768X-0.013512X0.117540X0.319076X0*%
%ADD35RoundRect,0.200000X-0.275000X0.200000X-0.275000X-0.200000X0.275000X-0.200000X0.275000X0.200000X0*%
%ADD36RoundRect,0.200000X0.200000X0.275000X-0.200000X0.275000X-0.200000X-0.275000X0.200000X-0.275000X0*%
%ADD37RoundRect,0.218750X-0.336857X0.006533X-0.059310X-0.331659X0.336857X-0.006533X0.059310X0.331659X0*%
%ADD38RoundRect,0.250000X-0.412500X-0.925000X0.412500X-0.925000X0.412500X0.925000X-0.412500X0.925000X0*%
%ADD39RoundRect,0.218750X-0.181716X0.283716X-0.308716X-0.134945X0.181716X-0.283716X0.308716X0.134945X0*%
%ADD40RoundRect,0.200000X-0.319076X-0.117540X0.013512X-0.339768X0.319076X0.117540X-0.013512X0.339768X0*%
%ADD41RoundRect,0.250000X-0.585032X-0.826752X0.224115X-0.987701X0.585032X0.826752X-0.224115X0.987701X0*%
%ADD42RoundRect,0.218750X0.393695X0.195467X0.029927X0.438529X-0.393695X-0.195467X-0.029927X-0.438529X0*%
%ADD43RoundRect,0.250000X0.945755X0.362392X0.362392X0.945755X-0.945755X-0.362392X-0.362392X-0.945755X0*%
%ADD44RoundRect,0.250000X0.362392X-0.945755X0.945755X-0.362392X-0.362392X0.945755X-0.945755X0.362392X0*%
%ADD45RoundRect,0.218750X0.006533X0.336857X-0.331659X0.059310X-0.006533X-0.336857X0.331659X-0.059310X0*%
%ADD46RoundRect,0.225000X-0.112202X-0.317074X0.303544X-0.144866X0.112202X0.317074X-0.303544X0.144866X0*%
%ADD47RoundRect,0.225000X-0.325973X-0.082864X0.048188X-0.332871X0.325973X0.082864X-0.048188X0.332871X0*%
%ADD48RoundRect,0.200000X0.142507X0.308734X-0.249807X0.230698X-0.142507X-0.308734X0.249807X-0.230698X0*%
%ADD49RoundRect,0.218750X-0.114905X0.424264X-0.424264X0.114905X0.114905X-0.424264X0.424264X-0.114905X0*%
%ADD50RoundRect,0.200000X0.330604X-0.079538X0.177530X0.290014X-0.330604X0.079538X-0.177530X-0.290014X0*%
%ADD51RoundRect,0.218750X0.029927X-0.438529X0.393695X-0.195467X-0.029927X0.438529X-0.393695X0.195467X0*%
%ADD52RoundRect,0.218750X0.288925X0.331248X-0.140169X0.416600X-0.288925X-0.331248X0.140169X-0.416600X0*%
%ADD53RoundRect,0.200000X-0.200000X-0.275000X0.200000X-0.275000X0.200000X0.275000X-0.200000X0.275000X0*%
%ADD54RoundRect,0.218750X-0.331659X-0.059310X0.006533X-0.336857X0.331659X0.059310X-0.006533X0.336857X0*%
%ADD55RoundRect,0.200000X-0.013512X-0.339768X0.319076X-0.117540X0.013512X0.339768X-0.319076X0.117540X0*%
%ADD56RoundRect,0.200000X-0.053033X0.335876X-0.335876X0.053033X0.053033X-0.335876X0.335876X-0.053033X0*%
%ADD57RoundRect,0.218750X0.347997X0.268517X-0.056201X0.435941X-0.347997X-0.268517X0.056201X-0.435941X0*%
%ADD58RoundRect,0.200000X-0.230698X0.249807X-0.308734X-0.142507X0.230698X-0.249807X0.308734X0.142507X0*%
%ADD59RoundRect,0.200000X-0.335876X-0.053033X-0.053033X-0.335876X0.335876X0.053033X0.053033X0.335876X0*%
%ADD60RoundRect,0.250000X0.412500X0.925000X-0.412500X0.925000X-0.412500X-0.925000X0.412500X-0.925000X0*%
%ADD61RoundRect,0.218750X0.313716X0.122874X-0.072125X0.329110X-0.313716X-0.122874X0.072125X-0.329110X0*%
%ADD62RoundRect,0.218750X0.336857X-0.006533X0.059310X0.331659X-0.336857X0.006533X-0.059310X-0.331659X0*%
%ADD63RoundRect,0.225000X-0.225000X-0.250000X0.225000X-0.250000X0.225000X0.250000X-0.225000X0.250000X0*%
%ADD64RoundRect,0.218750X-0.288925X-0.331248X0.140169X-0.416600X0.288925X0.331248X-0.140169X0.416600X0*%
%ADD65RoundRect,0.225000X0.303544X0.144866X-0.112202X0.317074X-0.303544X-0.144866X0.112202X-0.317074X0*%
%ADD66RoundRect,0.218750X0.424264X0.114905X0.114905X0.424264X-0.424264X-0.114905X-0.114905X-0.424264X0*%
%ADD67RoundRect,0.218750X-0.381250X0.218750X-0.381250X-0.218750X0.381250X-0.218750X0.381250X0.218750X0*%
%ADD68RoundRect,0.200000X0.290014X0.177530X-0.079538X0.330604X-0.290014X-0.177530X0.079538X-0.330604X0*%
%ADD69RoundRect,0.218750X0.276457X-0.192580X0.233575X0.242814X-0.276457X0.192580X-0.233575X-0.242814X0*%
%ADD70RoundRect,0.218750X0.381250X-0.218750X0.381250X0.218750X-0.381250X0.218750X-0.381250X-0.218750X0*%
%ADD71RoundRect,0.218750X-0.029927X0.438529X-0.393695X0.195467X0.029927X-0.438529X0.393695X-0.195467X0*%
%ADD72C,1.400000*%
%ADD73RoundRect,0.225000X0.225000X0.250000X-0.225000X0.250000X-0.225000X-0.250000X0.225000X-0.250000X0*%
%ADD74RoundRect,0.218750X0.438529X0.029927X0.195467X0.393695X-0.438529X-0.029927X-0.195467X-0.393695X0*%
%ADD75RoundRect,0.225000X-0.289092X0.171904X-0.201301X-0.269449X0.289092X-0.171904X0.201301X0.269449X0*%
%ADD76RoundRect,0.225000X0.048188X0.332871X-0.325973X0.082864X-0.048188X-0.332871X0.325973X-0.082864X0*%
%ADD77RoundRect,0.225000X-0.303544X-0.144866X0.112202X-0.317074X0.303544X0.144866X-0.112202X0.317074X0*%
%ADD78RoundRect,0.218750X0.195467X-0.393695X0.438529X-0.029927X-0.195467X0.393695X-0.438529X0.029927X0*%
%ADD79RoundRect,0.250000X-0.735082X-0.696732X0.027118X-1.012445X0.735082X0.696732X-0.027118X1.012445X0*%
%ADD80RoundRect,0.225000X0.250000X-0.225000X0.250000X0.225000X-0.250000X0.225000X-0.250000X-0.225000X0*%
%ADD81RoundRect,0.200000X-0.079538X-0.330604X0.290014X-0.177530X0.079538X0.330604X-0.290014X0.177530X0*%
%ADD82RoundRect,0.218750X0.308716X-0.134945X0.181716X0.283716X-0.308716X0.134945X-0.181716X-0.283716X0*%
%ADD83RoundRect,0.225000X-0.332871X0.048188X-0.082864X-0.325973X0.332871X-0.048188X0.082864X0.325973X0*%
%ADD84RoundRect,0.250000X-0.856884X-0.539937X-0.170921X-0.998282X0.856884X0.539937X0.170921X0.998282X0*%
%ADD85RoundRect,0.218750X-0.438529X-0.029927X-0.195467X-0.393695X0.438529X0.029927X0.195467X0.393695X0*%
%ADD86RoundRect,0.218750X-0.268517X0.347997X-0.435941X-0.056201X0.268517X-0.347997X0.435941X0.056201X0*%
%ADD87RoundRect,0.218750X-0.192580X-0.276457X0.242814X-0.233575X0.192580X0.276457X-0.242814X0.233575X0*%
%ADD88RoundRect,0.250000X-0.362392X0.945755X-0.945755X0.362392X0.362392X-0.945755X0.945755X-0.362392X0*%
%ADD89RoundRect,0.218750X0.329110X-0.072125X0.122874X0.313716X-0.329110X0.072125X-0.122874X-0.313716X0*%
%ADD90RoundRect,0.200000X-0.249807X-0.230698X0.142507X-0.308734X0.249807X0.230698X-0.142507X0.308734X0*%
%ADD91RoundRect,0.200000X0.013512X0.339768X-0.319076X0.117540X-0.013512X-0.339768X0.319076X-0.117540X0*%
%ADD92RoundRect,0.225000X0.289092X-0.171904X0.201301X0.269449X-0.289092X0.171904X-0.201301X-0.269449X0*%
%ADD93RoundRect,0.218750X-0.308716X0.134945X-0.181716X-0.283716X0.308716X-0.134945X0.181716X0.283716X0*%
%ADD94RoundRect,0.200000X0.053033X-0.335876X0.335876X-0.053033X-0.053033X0.335876X-0.335876X0.053033X0*%
%ADD95RoundRect,0.218750X0.181716X-0.283716X0.308716X0.134945X-0.181716X0.283716X-0.308716X-0.134945X0*%
%ADD96RoundRect,0.218750X0.416600X-0.140169X0.331248X0.288925X-0.416600X0.140169X-0.331248X-0.288925X0*%
%ADD97RoundRect,0.218750X0.072125X0.329110X-0.313716X0.122874X-0.072125X-0.329110X0.313716X-0.122874X0*%
%ADD98RoundRect,0.225000X0.082864X-0.325973X0.332871X0.048188X-0.082864X0.325973X-0.332871X-0.048188X0*%
%ADD99RoundRect,0.218750X0.140169X0.416600X-0.288925X0.331248X-0.140169X-0.416600X0.288925X-0.331248X0*%
%ADD100RoundRect,0.225000X-0.144866X0.303544X-0.317074X-0.112202X0.144866X-0.303544X0.317074X0.112202X0*%
%ADD101RoundRect,0.218750X-0.329110X0.072125X-0.122874X-0.313716X0.329110X-0.072125X0.122874X0.313716X0*%
%ADD102RoundRect,0.218750X0.114905X-0.424264X0.424264X-0.114905X-0.114905X0.424264X-0.424264X0.114905X0*%
%ADD103RoundRect,0.218750X-0.072125X-0.329110X0.313716X-0.122874X0.072125X0.329110X-0.313716X0.122874X0*%
%ADD104RoundRect,0.218750X-0.242814X-0.233575X0.192580X-0.276457X0.242814X0.233575X-0.192580X0.276457X0*%
%ADD105RoundRect,0.218750X0.056201X0.435941X-0.347997X0.268517X-0.056201X-0.435941X0.347997X-0.268517X0*%
%ADD106RoundRect,0.250000X-0.925000X0.412500X-0.925000X-0.412500X0.925000X-0.412500X0.925000X0.412500X0*%
%ADD107RoundRect,0.225000X0.201301X-0.269449X0.289092X0.171904X-0.201301X0.269449X-0.289092X-0.171904X0*%
%ADD108RoundRect,0.218750X-0.140169X-0.416600X0.288925X-0.331248X0.140169X0.416600X-0.288925X0.331248X0*%
%ADD109RoundRect,0.250000X-0.539937X0.856884X-0.998282X0.170921X0.539937X-0.856884X0.998282X-0.170921X0*%
%ADD110RoundRect,0.200000X0.117540X-0.319076X0.339768X0.013512X-0.117540X0.319076X-0.339768X-0.013512X0*%
%ADD111RoundRect,0.225000X0.171904X0.289092X-0.269449X0.201301X-0.171904X-0.289092X0.269449X-0.201301X0*%
%ADD112RoundRect,0.218750X0.192580X0.276457X-0.242814X0.233575X-0.192580X-0.276457X0.242814X-0.233575X0*%
%ADD113RoundRect,0.225000X0.017678X-0.335876X0.335876X-0.017678X-0.017678X0.335876X-0.335876X0.017678X0*%
%ADD114RoundRect,0.225000X-0.082864X0.325973X-0.332871X-0.048188X0.082864X-0.325973X0.332871X0.048188X0*%
%ADD115RoundRect,0.250000X-0.027118X-1.012445X0.735082X-0.696732X0.027118X1.012445X-0.735082X0.696732X0*%
%ADD116RoundRect,0.225000X-0.017678X0.335876X-0.335876X0.017678X0.017678X-0.335876X0.335876X-0.017678X0*%
%ADD117RoundRect,0.225000X-0.317074X0.112202X-0.144866X-0.303544X0.317074X-0.112202X0.144866X0.303544X0*%
%ADD118RoundRect,0.225000X0.112202X0.317074X-0.303544X0.144866X-0.112202X-0.317074X0.303544X-0.144866X0*%
%ADD119RoundRect,0.250000X0.224115X0.987701X-0.585032X0.826752X-0.224115X-0.987701X0.585032X-0.826752X0*%
%ADD120RoundRect,0.225000X-0.335876X-0.017678X-0.017678X-0.335876X0.335876X0.017678X0.017678X0.335876X0*%
%ADD121RoundRect,0.200000X-0.330604X0.079538X-0.177530X-0.290014X0.330604X-0.079538X0.177530X0.290014X0*%
%ADD122RoundRect,0.250000X-0.987701X0.224115X-0.826752X-0.585032X0.987701X-0.224115X0.826752X0.585032X0*%
%ADD123RoundRect,0.200000X0.339768X-0.013512X0.117540X0.319076X-0.339768X0.013512X-0.117540X-0.319076X0*%
%ADD124RoundRect,0.225000X0.269449X0.201301X-0.171904X0.289092X-0.269449X-0.201301X0.171904X-0.289092X0*%
%ADD125RoundRect,0.218750X-0.331248X0.288925X-0.416600X-0.140169X0.331248X-0.288925X0.416600X0.140169X0*%
%ADD126RoundRect,0.250000X-0.998282X-0.170921X-0.539937X-0.856884X0.998282X0.170921X0.539937X0.856884X0*%
%ADD127RoundRect,0.200000X-0.117540X0.319076X-0.339768X-0.013512X0.117540X-0.319076X0.339768X0.013512X0*%
%ADD128RoundRect,0.218750X-0.393695X-0.195467X-0.029927X-0.438529X0.393695X0.195467X0.029927X0.438529X0*%
%ADD129RoundRect,0.218750X0.283716X0.181716X-0.134945X0.308716X-0.283716X-0.181716X0.134945X-0.308716X0*%
%ADD130RoundRect,0.200000X-0.308734X0.142507X-0.230698X-0.249807X0.308734X-0.142507X0.230698X0.249807X0*%
%ADD131RoundRect,0.200000X0.177530X-0.290014X0.330604X0.079538X-0.177530X0.290014X-0.330604X-0.079538X0*%
%ADD132RoundRect,0.225000X-0.171904X-0.289092X0.269449X-0.201301X0.171904X0.289092X-0.269449X0.201301X0*%
%ADD133RoundRect,0.200000X0.230698X-0.249807X0.308734X0.142507X-0.230698X0.249807X-0.308734X-0.142507X0*%
%ADD134RoundRect,0.218750X0.233575X-0.242814X0.276457X0.192580X-0.233575X0.242814X-0.276457X-0.192580X0*%
%ADD135RoundRect,0.200000X-0.177530X0.290014X-0.330604X-0.079538X0.177530X-0.290014X0.330604X0.079538X0*%
%ADD136RoundRect,0.218750X-0.313716X-0.122874X0.072125X-0.329110X0.313716X0.122874X-0.072125X0.329110X0*%
%ADD137RoundRect,0.218750X-0.122874X0.313716X-0.329110X-0.072125X0.122874X-0.313716X0.329110X0.072125X0*%
%ADD138RoundRect,0.218750X-0.347997X-0.268517X0.056201X-0.435941X0.347997X0.268517X-0.056201X0.435941X0*%
%ADD139RoundRect,0.218750X-0.195467X0.393695X-0.438529X0.029927X0.195467X-0.393695X0.438529X-0.029927X0*%
%ADD140RoundRect,0.218750X0.134945X0.308716X-0.283716X0.181716X-0.134945X-0.308716X0.283716X-0.181716X0*%
%ADD141RoundRect,0.225000X0.317074X-0.112202X0.144866X0.303544X-0.317074X0.112202X-0.144866X-0.303544X0*%
%ADD142RoundRect,0.218750X0.268517X-0.347997X0.435941X0.056201X-0.268517X0.347997X-0.435941X-0.056201X0*%
%ADD143RoundRect,0.250000X-0.696732X0.735082X-1.012445X-0.027118X0.696732X-0.735082X1.012445X0.027118X0*%
%ADD144RoundRect,0.225000X0.335876X0.017678X0.017678X0.335876X-0.335876X-0.017678X-0.017678X-0.335876X0*%
%ADD145RoundRect,0.250000X-0.826752X0.585032X-0.987701X-0.224115X0.826752X-0.585032X0.987701X0.224115X0*%
%ADD146RoundRect,0.218750X-0.006533X-0.336857X0.331659X-0.059310X0.006533X0.336857X-0.331659X0.059310X0*%
%ADD147RoundRect,0.200000X-0.142507X-0.308734X0.249807X-0.230698X0.142507X0.308734X-0.249807X0.230698X0*%
%ADD148RoundRect,0.250000X0.998282X0.170921X0.539937X0.856884X-0.998282X-0.170921X-0.539937X-0.856884X0*%
%ADD149RoundRect,0.218750X-0.056201X-0.435941X0.347997X-0.268517X0.056201X0.435941X-0.347997X0.268517X0*%
%ADD150RoundRect,0.218750X-0.435941X0.056201X-0.268517X-0.347997X0.435941X-0.056201X0.268517X0.347997X0*%
%ADD151RoundRect,0.218750X0.331248X-0.288925X0.416600X0.140169X-0.331248X0.288925X-0.416600X-0.140169X0*%
%ADD152RoundRect,0.200000X0.249807X0.230698X-0.142507X0.308734X-0.249807X-0.230698X0.142507X-0.308734X0*%
%ADD153RoundRect,0.200000X0.319076X0.117540X-0.013512X0.339768X-0.319076X-0.117540X0.013512X-0.339768X0*%
%ADD154RoundRect,0.250000X-0.224115X-0.987701X0.585032X-0.826752X0.224115X0.987701X-0.585032X0.826752X0*%
%ADD155RoundRect,0.250000X0.826752X-0.585032X0.987701X0.224115X-0.826752X0.585032X-0.987701X-0.224115X0*%
%ADD156RoundRect,0.218750X-0.424264X-0.114905X-0.114905X-0.424264X0.424264X0.114905X0.114905X0.424264X0*%
%ADD157RoundRect,0.150000X-0.150000X0.875000X-0.150000X-0.875000X0.150000X-0.875000X0.150000X0.875000X0*%
%ADD158RoundRect,0.150000X0.150000X-0.875000X0.150000X0.875000X-0.150000X0.875000X-0.150000X-0.875000X0*%
%ADD159RoundRect,0.250000X0.856884X0.539937X0.170921X0.998282X-0.856884X-0.539937X-0.170921X-0.998282X0*%
%ADD160RoundRect,0.218750X0.242814X0.233575X-0.192580X0.276457X-0.242814X-0.233575X0.192580X-0.276457X0*%
%ADD161RoundRect,0.225000X-0.201301X0.269449X-0.289092X-0.171904X0.201301X-0.269449X0.289092X0.171904X0*%
%ADD162RoundRect,0.225000X0.332871X-0.048188X0.082864X0.325973X-0.332871X0.048188X-0.082864X-0.325973X0*%
%ADD163RoundRect,0.218750X-0.134945X-0.308716X0.283716X-0.181716X0.134945X0.308716X-0.283716X0.181716X0*%
%ADD164RoundRect,0.218750X-0.059310X0.331659X-0.336857X-0.006533X0.059310X-0.331659X0.336857X0.006533X0*%
%ADD165RoundRect,0.250000X0.027118X1.012445X-0.735082X0.696732X-0.027118X-1.012445X0.735082X-0.696732X0*%
%ADD166RoundRect,0.218750X0.122874X-0.313716X0.329110X0.072125X-0.122874X0.313716X-0.329110X-0.072125X0*%
%ADD167RoundRect,0.250000X-0.170921X0.998282X-0.856884X0.539937X0.170921X-0.998282X0.856884X-0.539937X0*%
%ADD168RoundRect,0.218750X-0.233575X0.242814X-0.276457X-0.192580X0.233575X-0.242814X0.276457X0.192580X0*%
%ADD169RoundRect,0.218750X-0.276457X0.192580X-0.233575X-0.242814X0.276457X-0.192580X0.233575X0.242814X0*%
%ADD170RoundRect,0.218750X0.218750X0.381250X-0.218750X0.381250X-0.218750X-0.381250X0.218750X-0.381250X0*%
%ADD171RoundRect,0.250000X0.696732X-0.735082X1.012445X0.027118X-0.696732X0.735082X-1.012445X-0.027118X0*%
%ADD172RoundRect,0.225000X0.144866X-0.303544X0.317074X0.112202X-0.144866X0.303544X-0.317074X-0.112202X0*%
%ADD173RoundRect,0.200000X0.335876X0.053033X0.053033X0.335876X-0.335876X-0.053033X-0.053033X-0.335876X0*%
%ADD174RoundRect,0.250000X1.012445X-0.027118X0.696732X0.735082X-1.012445X0.027118X-0.696732X-0.735082X0*%
%ADD175RoundRect,0.250000X0.539937X-0.856884X0.998282X-0.170921X-0.539937X0.856884X-0.998282X0.170921X0*%
%ADD176RoundRect,0.200000X0.079538X0.330604X-0.290014X0.177530X-0.079538X-0.330604X0.290014X-0.177530X0*%
%ADD177RoundRect,0.200000X0.275000X-0.200000X0.275000X0.200000X-0.275000X0.200000X-0.275000X-0.200000X0*%
%ADD178RoundRect,0.250000X0.925000X-0.412500X0.925000X0.412500X-0.925000X0.412500X-0.925000X-0.412500X0*%
%ADD179RoundRect,0.218750X0.331659X0.059310X-0.006533X0.336857X-0.331659X-0.059310X0.006533X-0.336857X0*%
%ADD180RoundRect,0.225000X-0.269449X-0.201301X0.171904X-0.289092X0.269449X0.201301X-0.171904X0.289092X0*%
%ADD181RoundRect,0.218750X-0.218750X-0.381250X0.218750X-0.381250X0.218750X0.381250X-0.218750X0.381250X0*%
%ADD182RoundRect,0.218750X-0.283716X-0.181716X0.134945X-0.308716X0.283716X0.181716X-0.134945X0.308716X0*%
%ADD183RoundRect,0.200000X0.308734X-0.142507X0.230698X0.249807X-0.308734X0.142507X-0.230698X-0.249807X0*%
%ADD184RoundRect,0.218750X0.059310X-0.331659X0.336857X0.006533X-0.059310X0.331659X-0.336857X-0.006533X0*%
%ADD185RoundRect,0.250000X-1.012445X0.027118X-0.696732X-0.735082X1.012445X-0.027118X0.696732X0.735082X0*%
%ADD186RoundRect,0.250000X0.987701X-0.224115X0.826752X0.585032X-0.987701X0.224115X-0.826752X-0.585032X0*%
%ADD187RoundRect,0.250000X-0.945755X-0.362392X-0.362392X-0.945755X0.945755X0.362392X0.362392X0.945755X0*%
%ADD188RoundRect,0.250000X0.170921X-0.998282X0.856884X-0.539937X-0.170921X0.998282X-0.856884X0.539937X0*%
G04 APERTURE END LIST*
D10*
X119000000Y-148512754D03*
D11*
X119000000Y-141012754D03*
D12*
X150362000Y-34301500D03*
X155865000Y-129405000D03*
X27498500Y-72603700D03*
D13*
X112000000Y-160000000D03*
D14*
X122160000Y-160000000D03*
D12*
X120000000Y-48868500D03*
D15*
X37800000Y-91975000D03*
D16*
X37800000Y-94515000D03*
X37800000Y-97055000D03*
D12*
X114750000Y-114000000D03*
X137867000Y-150854000D03*
X72133128Y-59145717D03*
X59637900Y-175699000D03*
X88236000Y-157118000D03*
X54135100Y-129405000D03*
X95250000Y-96000000D03*
X137867000Y-59145700D03*
X182501000Y-72603700D03*
X95250000Y-114000000D03*
X150362000Y-175699000D03*
X121764000Y-173882000D03*
D15*
X37800000Y-112975000D03*
D16*
X37800000Y-115515000D03*
X37800000Y-118055000D03*
D17*
X185370000Y-97380000D03*
X182830000Y-97380000D03*
X180290000Y-97380000D03*
X177750000Y-97380000D03*
X175210000Y-97380000D03*
X172670000Y-97380000D03*
X170130000Y-97380000D03*
D18*
X170130000Y-112620000D03*
X172670000Y-112620000D03*
X175210000Y-112620000D03*
X177750000Y-112620000D03*
X180290000Y-112620000D03*
X182830000Y-112620000D03*
X185370000Y-112620000D03*
D12*
X90000000Y-48868500D03*
X72133100Y-150854000D03*
X54135100Y-80595000D03*
D19*
X137250000Y-174000000D03*
D20*
X137250000Y-179000000D03*
D12*
X59637900Y-34301500D03*
D19*
X73000000Y-179000000D03*
D20*
X73000000Y-174000000D03*
D21*
X138000000Y-166000000D03*
D22*
X135460000Y-166000000D03*
X132920000Y-166000000D03*
D12*
X182501000Y-137396000D03*
D23*
X88500000Y-122250000D03*
D12*
X155865000Y-80595000D03*
D15*
X65000000Y-33000000D03*
D16*
X65000000Y-35540000D03*
D12*
X27498500Y-137396000D03*
D10*
X112000000Y-165000000D03*
D24*
X127240000Y-165000000D03*
D25*
X41572200Y-123000000D03*
X39032200Y-123000000D03*
X36492200Y-123000000D03*
D15*
X145000000Y-33000000D03*
D16*
X145000000Y-35540000D03*
D12*
X114750000Y-96000000D03*
D26*
X81893762Y-140975893D03*
X80604984Y-140114759D03*
D27*
X150158913Y-94959508D03*
X150573479Y-97043676D03*
D28*
X152604875Y-124745645D03*
X149763945Y-123568893D03*
D29*
X155542344Y-115078987D03*
X152526430Y-114479085D03*
D30*
X143500000Y-99975000D03*
X143500000Y-101525000D03*
D31*
X62667606Y-123657634D03*
X61854404Y-121694390D03*
D32*
X121290309Y-63581214D03*
X122814711Y-64212642D03*
D33*
X80604984Y-69885241D03*
X81893762Y-69024107D03*
D34*
X141555942Y-79611949D03*
X142472632Y-80983873D03*
D35*
X66500000Y-99675000D03*
X66500000Y-101325000D03*
D36*
X105800000Y-149500000D03*
X104150000Y-149500000D03*
D37*
X73415144Y-66513742D03*
X74414314Y-67731234D03*
D38*
X53462500Y-104975000D03*
X56537500Y-104975000D03*
D39*
X119452548Y-57356332D03*
X118995350Y-58863514D03*
D40*
X129057700Y-67555147D03*
X130429624Y-68471837D03*
D41*
X54457656Y-94921013D03*
X57473570Y-95520915D03*
D42*
X80167526Y-144031873D03*
X78400654Y-142851287D03*
D43*
X141424838Y-141460194D03*
X139250484Y-139285840D03*
D44*
X68539806Y-141424838D03*
X70714160Y-139250484D03*
D45*
X143486258Y-73415144D03*
X142268766Y-74414314D03*
D46*
X87924276Y-65800730D03*
X89356290Y-65207570D03*
D47*
X128106238Y-69024107D03*
X129395016Y-69885241D03*
D48*
X114466148Y-148488872D03*
X112847852Y-148810772D03*
D49*
X138437312Y-136970065D03*
X136934710Y-138472667D03*
D50*
X64193508Y-122768517D03*
X63562080Y-121244115D03*
D51*
X78442227Y-67120934D03*
X80209099Y-65940348D03*
D52*
X96994637Y-150563725D03*
X94910469Y-150149159D03*
D53*
X84500000Y-110000000D03*
X86150000Y-110000000D03*
D54*
X66513741Y-73415144D03*
X67731233Y-74414314D03*
D55*
X79611949Y-68444058D03*
X80983873Y-67527368D03*
D56*
X137031937Y-135900566D03*
X135865211Y-137067292D03*
D57*
X88259416Y-148126462D03*
X86296172Y-147313260D03*
D58*
X148801018Y-112896891D03*
X148479118Y-114515187D03*
D59*
X135900566Y-72968063D03*
X137067292Y-74134789D03*
D60*
X156537500Y-105025000D03*
X153462500Y-105025000D03*
D61*
X148908655Y-128469665D03*
X147519629Y-127727215D03*
D62*
X136584856Y-143486258D03*
X135585686Y-142268766D03*
D63*
X104225000Y-62250000D03*
X105775000Y-62250000D03*
D64*
X113005363Y-59436275D03*
X115089531Y-59850841D03*
D65*
X89356290Y-144792430D03*
X87924276Y-144199270D03*
D66*
X73029935Y-138437312D03*
X71527333Y-136934710D03*
D67*
X151250000Y-103962500D03*
X151250000Y-106087500D03*
D68*
X88709691Y-146418786D03*
X87185289Y-145787358D03*
D69*
X109880028Y-154547760D03*
X109725652Y-152980344D03*
D70*
X58750000Y-106037500D03*
X58750000Y-103912500D03*
D71*
X131557773Y-142879066D03*
X129790901Y-144059652D03*
D72*
X33000000Y-97055000D03*
X33000000Y-94515000D03*
D73*
X105775000Y-147750000D03*
X104225000Y-147750000D03*
D74*
X67120934Y-131557773D03*
X65940348Y-129790901D03*
D75*
X146777376Y-95899780D03*
X147079766Y-97419998D03*
D76*
X129395016Y-140114759D03*
X128106238Y-140975893D03*
D77*
X120643710Y-65207570D03*
X122075724Y-65800730D03*
D78*
X65968127Y-80167526D03*
X67148713Y-78400654D03*
D79*
X57395125Y-85254355D03*
X60236055Y-86431107D03*
D80*
X66425000Y-110050000D03*
X66425000Y-108500000D03*
D81*
X87231483Y-64193508D03*
X88755885Y-63562080D03*
D82*
X119452548Y-152643668D03*
X118995350Y-151136486D03*
D53*
X104200000Y-60500000D03*
X105850000Y-60500000D03*
D83*
X140114759Y-80604984D03*
X140975893Y-81893762D03*
D84*
X62162024Y-76346513D03*
X64718794Y-78054891D03*
D85*
X142879066Y-78442227D03*
X144059652Y-80209099D03*
D86*
X148126462Y-121740584D03*
X147313260Y-123703828D03*
D87*
X55452240Y-109880028D03*
X57019656Y-109725652D03*
D88*
X141460194Y-68575162D03*
X139285840Y-70749516D03*
D89*
X128469665Y-148908655D03*
X127727215Y-147519629D03*
D90*
X112896891Y-61198982D03*
X114515187Y-61520882D03*
D91*
X130388051Y-141555942D03*
X129016127Y-142472632D03*
D92*
X63222624Y-114100220D03*
X62920234Y-112580002D03*
D93*
X90547452Y-57356332D03*
X91004650Y-58863514D03*
D94*
X72968063Y-74099434D03*
X74134789Y-72932708D03*
D95*
X90547452Y-152643668D03*
X91004650Y-151136486D03*
D35*
X149500000Y-104200000D03*
X149500000Y-105850000D03*
D96*
X59841087Y-115040492D03*
X59426521Y-112956324D03*
D97*
X148908655Y-81530335D03*
X147519629Y-82272785D03*
D98*
X69024107Y-81893762D03*
X69885241Y-80604984D03*
D99*
X115040492Y-150158913D03*
X112956324Y-150573479D03*
D100*
X144792430Y-120643710D03*
X144199270Y-122075724D03*
D101*
X81530335Y-61091345D03*
X82272785Y-62480371D03*
D102*
X71562688Y-73029935D03*
X73065290Y-71527333D03*
D103*
X61091345Y-128469665D03*
X62480371Y-127727215D03*
D104*
X55452240Y-100119972D03*
X57019656Y-100274348D03*
D105*
X123657634Y-147332394D03*
X121694390Y-148145596D03*
D106*
X105000000Y-53462500D03*
X105000000Y-56537500D03*
D107*
X62920234Y-97419998D03*
X63222624Y-95899780D03*
D80*
X62250000Y-105775000D03*
X62250000Y-104225000D03*
D108*
X94959508Y-59841087D03*
X97043676Y-59426521D03*
D109*
X133653487Y-62162024D03*
X131945109Y-64718794D03*
D110*
X67555147Y-80942300D03*
X68471837Y-79570376D03*
D111*
X114100220Y-146777376D03*
X112580002Y-147079766D03*
D112*
X154547760Y-100119972D03*
X152980344Y-100274348D03*
D113*
X74223177Y-75319193D03*
X75319193Y-74223177D03*
D114*
X140975893Y-128106238D03*
X140114759Y-129395016D03*
D115*
X57375991Y-124699451D03*
X60216921Y-123522699D03*
D116*
X135776823Y-134680807D03*
X134680807Y-135776823D03*
D117*
X144199270Y-87924276D03*
X144792430Y-89356290D03*
D118*
X122075724Y-144199270D03*
X120643710Y-144792430D03*
D119*
X155552098Y-94970053D03*
X152536184Y-95569955D03*
D120*
X134680807Y-74223177D03*
X135776823Y-75319193D03*
D121*
X145806492Y-87231483D03*
X146437920Y-88755885D03*
D122*
X94970053Y-54447902D03*
X95569955Y-57463816D03*
D123*
X68444058Y-130388051D03*
X67527368Y-129016127D03*
D124*
X97419998Y-147079766D03*
X95899780Y-146777376D03*
D125*
X150563725Y-113005363D03*
X150149159Y-115089531D03*
D126*
X76388086Y-62134245D03*
X78096464Y-64691015D03*
D127*
X142444853Y-129057700D03*
X141528163Y-130429624D03*
D128*
X129832474Y-65968127D03*
X131599346Y-67148713D03*
D129*
X152643668Y-119452548D03*
X151136486Y-118995350D03*
D130*
X148488872Y-95533852D03*
X148810772Y-97152148D03*
D131*
X63581214Y-88709691D03*
X64212642Y-87185289D03*
D132*
X95899780Y-63222624D03*
X97419998Y-62920234D03*
D133*
X61198982Y-97103109D03*
X61520882Y-95484813D03*
D72*
X33000000Y-118055000D03*
X33000000Y-115515000D03*
D134*
X100119972Y-154547760D03*
X100274348Y-152980344D03*
D135*
X146418786Y-121290309D03*
X145787358Y-122814711D03*
D136*
X61091345Y-81530335D03*
X62480371Y-82272785D03*
D137*
X128469665Y-61091345D03*
X127727215Y-62480371D03*
D138*
X121740584Y-61873538D03*
X123703828Y-62686740D03*
D139*
X144031873Y-129832474D03*
X142851287Y-131599346D03*
D140*
X152643668Y-90547452D03*
X151136486Y-91004650D03*
D141*
X65800730Y-122075724D03*
X65207570Y-120643710D03*
D142*
X61873538Y-88259416D03*
X62686740Y-86296172D03*
D143*
X124745645Y-57395125D03*
X123568893Y-60236055D03*
D144*
X75319193Y-135776823D03*
X74223177Y-134680807D03*
D145*
X115078987Y-54457656D03*
X114479085Y-57473570D03*
D72*
X105540000Y-186000000D03*
X103000000Y-186000000D03*
D146*
X66513742Y-136584856D03*
X67731234Y-135585686D03*
D147*
X95533852Y-61511128D03*
X97152148Y-61189228D03*
D148*
X133611914Y-147865755D03*
X131903536Y-145308985D03*
D149*
X86342366Y-62667606D03*
X88305610Y-61854404D03*
D150*
X147332394Y-86342366D03*
X148145596Y-88305610D03*
D151*
X59436275Y-96994637D03*
X59850841Y-94910469D03*
D152*
X97103109Y-148801018D03*
X95484813Y-148479118D03*
D153*
X80942300Y-142444853D03*
X79570376Y-141528163D03*
D154*
X54447902Y-115029947D03*
X57463816Y-114430045D03*
D155*
X94921013Y-155542344D03*
X95520915Y-152526430D03*
D156*
X136970065Y-71562688D03*
X138472667Y-73065290D03*
D157*
X68515000Y-100350000D03*
X69785000Y-100350000D03*
X71055000Y-100350000D03*
X72325000Y-100350000D03*
X73595000Y-100350000D03*
X74865000Y-100350000D03*
X76135000Y-100350000D03*
X77405000Y-100350000D03*
X78675000Y-100350000D03*
X79945000Y-100350000D03*
X81215000Y-100350000D03*
X82485000Y-100350000D03*
X82485000Y-109650000D03*
X81215000Y-109650000D03*
X79945000Y-109650000D03*
X78675000Y-109650000D03*
X77405000Y-109650000D03*
X76135000Y-109650000D03*
X74865000Y-109650000D03*
X73595000Y-109650000D03*
X72325000Y-109650000D03*
X71055000Y-109650000D03*
X69785000Y-109650000D03*
X68515000Y-109650000D03*
D158*
X141485000Y-109650000D03*
X140215000Y-109650000D03*
X138945000Y-109650000D03*
X137675000Y-109650000D03*
X136405000Y-109650000D03*
X135135000Y-109650000D03*
X133865000Y-109650000D03*
X132595000Y-109650000D03*
X131325000Y-109650000D03*
X130055000Y-109650000D03*
X128785000Y-109650000D03*
X127515000Y-109650000D03*
X127515000Y-100350000D03*
X128785000Y-100350000D03*
X130055000Y-100350000D03*
X131325000Y-100350000D03*
X132595000Y-100350000D03*
X133865000Y-100350000D03*
X135135000Y-100350000D03*
X136405000Y-100350000D03*
X137675000Y-100350000D03*
X138945000Y-100350000D03*
X140215000Y-100350000D03*
X141485000Y-100350000D03*
D72*
X68500000Y-174000000D03*
X68500000Y-176540000D03*
D159*
X147837976Y-133653487D03*
X145281206Y-131945109D03*
D160*
X154547760Y-109880028D03*
X152980344Y-109725652D03*
D161*
X147079766Y-112580002D03*
X146777376Y-114100220D03*
D162*
X69885241Y-129395016D03*
X69024107Y-128106238D03*
D163*
X57356332Y-119452548D03*
X58863514Y-118995350D03*
D164*
X136584856Y-66513741D03*
X135585686Y-67731233D03*
D165*
X152624009Y-85300549D03*
X149783079Y-86477301D03*
D166*
X81530335Y-148908655D03*
X82272785Y-147519629D03*
D167*
X147865755Y-76388086D03*
X145308985Y-78096464D03*
D168*
X109880028Y-55452240D03*
X109725652Y-57019656D03*
D36*
X125575000Y-100000000D03*
X123925000Y-100000000D03*
D169*
X100119972Y-55452240D03*
X100274348Y-57019656D03*
D170*
X106037500Y-151250000D03*
X103912500Y-151250000D03*
D171*
X85254355Y-152604875D03*
X86431107Y-149763945D03*
D172*
X65207570Y-89356290D03*
X65800730Y-87924276D03*
D173*
X74099434Y-137031937D03*
X72932708Y-135865211D03*
D174*
X124699451Y-152624009D03*
X123522699Y-149783079D03*
D175*
X76346513Y-147837976D03*
X78054891Y-145281206D03*
D176*
X122768517Y-145806492D03*
X121244115Y-146437920D03*
D177*
X143500000Y-110075000D03*
X143500000Y-108425000D03*
D178*
X104975000Y-156537500D03*
X104975000Y-153462500D03*
D179*
X143486259Y-136584856D03*
X142268767Y-135585686D03*
D180*
X112580002Y-62920234D03*
X114100220Y-63222624D03*
D181*
X103962500Y-58750000D03*
X106087500Y-58750000D03*
D182*
X57356332Y-90547452D03*
X58863514Y-91004650D03*
D183*
X61511128Y-114466148D03*
X61189228Y-112847852D03*
D30*
X147750000Y-104225000D03*
X147750000Y-105775000D03*
D184*
X73415144Y-143486259D03*
X74414314Y-142268767D03*
D177*
X60500000Y-105800000D03*
X60500000Y-104150000D03*
D185*
X85300549Y-57375991D03*
X86477301Y-60216921D03*
D186*
X115029947Y-155552098D03*
X114430045Y-152536184D03*
D187*
X68575162Y-68539806D03*
X70749516Y-70714160D03*
D188*
X62134245Y-133611914D03*
X64691015Y-131903536D03*
M02*
