0
SECTION
2
HEADER
9
$INSUNITS
70
4
9
$ACADVER
1
AC1014
9
$HANDSEED
5
FFFF
0
ENDSEC
0
SECTION
2
TABLES
0
TABLE
2
VPORT
5
8
100
AcDbSymbolTable
0
ENDTAB
0
TABLE
2
LTYPE
5
5
100
AcDbSymbolTable
0
LTYPE
5
14
100
AcDbSymbolTableRecord
100
AcDbLinetypeTableRecord
2
BYBLOCK
70
0
0
LTYPE
5
15
100
AcDbSymbolTableRecord
100
AcDbLinetypeTableRecord
2
BYLAYER
70
0
0
ENDTAB
0
TABLE
2
LAYER
5
2
100
AcDbSymbolTable
70
2
0
LAYER
5
50
100
AcDbSymbolTableRecord
100
AcDbLayerTableRecord
2
0
70
0
6
CONTINUOUS
0
ENDTAB
0
TABLE
2
STYLE
5
3
100
AcDbSymbolTable
70
1
0
STYLE
5
11
100
AcDbSymbolTableRecord
100
AcDbTextStyleTableRecord
2
STANDARD
70
0
0
ENDTAB
0
TABLE
2
VIEW
5
6
100
AcDbSymbolTable
70
0
0
ENDTAB
0
TABLE
2
UCS
5
7
100
AcDbSymbolTable
70
0
0
ENDTAB
0
TABLE
2
APPID
5
9
100
AcDbSymbolTable
70
2
0
APPID
5
12
100
AcDbSymbolTableRecord
100
AcDbRegAppTableRecord
2
ACAD
70
0
0
ENDTAB
0
TABLE
2
DIMSTYLE
5
A
100
AcDbSymbolTable
70
1
0
ENDTAB
0
TABLE
2
BLOCK_RECORD
5
1
100
AcDbSymbolTable
70
1
0
BLOCK_RECORD
5
1F
100
AcDbSymbolTableRecord
100
AcDbBlockTableRecord
2
*MODEL_SPACE
0
BLOCK_RECORD
5
1B
100
AcDbSymbolTableRecord
100
AcDbBlockTableRecord
2
*PAPER_SPACE
0
ENDTAB
0
ENDSEC
0
SECTION
2
BLOCKS
0
BLOCK
5
20
100
AcDbEntity
100
AcDbBlockBegin
2
*MODEL_SPACE
0
ENDBLK
5
21
100
AcDbEntity
100
AcDbBlockEnd
0
BLOCK
5
1C
100
AcDbEntity
100
AcDbBlockBegin
2
*PAPER_SPACE
0
ENDBLK
5
1D
100
AcDbEntity
100
AcDbBlockEnd
0
ENDSEC
0
SECTION
2
ENTITIES
0
LWPOLYLINE
5
100
100
AcDbEntity
8
0
100
AcDbPolyline
90
40
70
1
43
0.0
10
-33.516260071887459
20
-52.858991486675535
10
-51.518304485175257
20
-67.964500314302001
42
0.49198692782629172
10
-51.319823341794091
20
-72.713655747507545
42
0.032718789597360028
10
-41.395348837209383
20
-78.787214030232974
42
0.56414813106291917
10
-37.00000000000005
20
-76.131465242697104
10
-36.999999999999979
20
-65.131465242697075
42
-0.4142135623730957
10
-32.999999999999979
20
-61.131465242697047
10
33.000000000000007
20
-61.131465242697089
42
-0.41421356237309437
10
37.000000000000007
20
-65.131465242697075
10
37.000000000000021
20
-76.131465242697104
42
0.56414813106290718
10
41.395348837209283
20
-78.787214030233002
42
0.032718779672258426
10
51.319820458119295
20
-72.713657782746722
42
0.49198729315028289
10
51.51830448517407
20
-67.964500314298505
10
33.516260071888986
20
-52.858991486673553
42
-0.41421356237309587
10
33.269746405024108
20
-50.041327381062608
10
55.058318010568364
20
-24.07471889265905
42
-0.41421356237309465
10
57.875982116179415
20
-23.828205225794168
10
75.878026529480493
20
-38.93371405343435
42
0.49198692782621373
10
80.520565731484169
20
-37.913566098179444
42
0.22365171998200478
10
80.520565731493889
20
37.913566098158789
42
0.49198692782629383
10
75.878026529466027
20
38.933714053422179
10
57.875982116178335
20
23.828205225795422
42
-0.41421356237309681
10
55.058318010567213
20
24.074718892660325
10
33.269746405022708
20
50.041327381064193
42
-0.41421356237309731
10
33.516260071887586
20
52.858991486675237
10
51.518304485175292
20
67.964500314301972
42
0.49198692782629466
10
51.319823341794127
20
72.713655747507516
42
0.31734996716617775
10
-51.319823341794084
20
72.713655747507659
42
0.49198692782631331
10
-51.518304485175086
20
67.964500314301489
10
-33.516260071887402
20
52.858991486675606
42
-0.41421356237309176
10
-33.269746405022516
20
50.041327381064498
10
-55.058318010567305
20
24.074718892660336
42
-0.41421356237309193
10
-57.875982116178321
20
23.828205225795458
10
-75.878026529470318
20
38.933714053425746
42
0.49198692782626879
10
-80.520565731495083
20
37.913566098165703
42
0.22365157058504029
10
-80.520587309132424
20
-37.913520272398905
42
0.49199217050276378
10
-75.878026529456307
20
-38.933714053414754
10
-57.875982116178335
20
-23.828205225795458
42
-0.41421356237309553
10
-55.058318010567227
20
-24.074718892660361
10
-33.269746405022559
20
-50.041327381064491
42
-0.41421356237309548
0
CIRCLE
5
101
100
AcDbEntity
8
0
100
AcDbCircle
10
0
20
0
30
0
40
88.999999999999986
210
0
220
0
230
1
0
ENDSEC
0
SECTION
2
OBJECTS
0
DICTIONARY
5
C
100
AcDbDictionary
3
ACAD_GROUP
350
D
3
ACAD_MLINESTYLE
350
17
0
DICTIONARY
5
D
100
AcDbDictionary
0
DICTIONARY
5
1A
330
C
100
AcDbDictionary
0
DICTIONARY
5
17
100
AcDbDictionary
0
ENDSEC
0
EOF
