0
SECTION
2
HEADER
9
$INSUNITS
70
4
9
$ACADVER
1
AC1014
9
$HANDSEED
5
FFFF
0
ENDSEC
0
SECTION
2
TABLES
0
TABLE
2
VPORT
5
8
100
AcDbSymbolTable
0
ENDTAB
0
TABLE
2
LTYPE
5
5
100
AcDbSymbolTable
0
LTYPE
5
14
100
AcDbSymbolTableRecord
100
AcDbLinetypeTableRecord
2
BYBLOCK
70
0
0
LTYPE
5
15
100
AcDbSymbolTableRecord
100
AcDbLinetypeTableRecord
2
BYLAYER
70
0
0
ENDTAB
0
TABLE
2
LAYER
5
2
100
AcDbSymbolTable
70
2
0
LAYER
5
50
100
AcDbSymbolTableRecord
100
AcDbLayerTableRecord
2
0
70
0
6
CONTINUOUS
0
ENDTAB
0
TABLE
2
STYLE
5
3
100
AcDbSymbolTable
70
1
0
STYLE
5
11
100
AcDbSymbolTableRecord
100
AcDbTextStyleTableRecord
2
STANDARD
70
0
0
ENDTAB
0
TABLE
2
VIEW
5
6
100
AcDbSymbolTable
70
0
0
ENDTAB
0
TABLE
2
UCS
5
7
100
AcDbSymbolTable
70
0
0
ENDTAB
0
TABLE
2
APPID
5
9
100
AcDbSymbolTable
70
2
0
APPID
5
12
100
AcDbSymbolTableRecord
100
AcDbRegAppTableRecord
2
ACAD
70
0
0
ENDTAB
0
TABLE
2
DIMSTYLE
5
A
100
AcDbSymbolTable
70
1
0
ENDTAB
0
TABLE
2
BLOCK_RECORD
5
1
100
AcDbSymbolTable
70
1
0
BLOCK_RECORD
5
1F
100
AcDbSymbolTableRecord
100
AcDbBlockTableRecord
2
*MODEL_SPACE
0
BLOCK_RECORD
5
1B
100
AcDbSymbolTableRecord
100
AcDbBlockTableRecord
2
*PAPER_SPACE
0
ENDTAB
0
ENDSEC
0
SECTION
2
BLOCKS
0
BLOCK
5
20
100
AcDbEntity
100
AcDbBlockBegin
2
*MODEL_SPACE
0
ENDBLK
5
21
100
AcDbEntity
100
AcDbBlockEnd
0
BLOCK
5
1C
100
AcDbEntity
100
AcDbBlockBegin
2
*PAPER_SPACE
0
ENDBLK
5
1D
100
AcDbEntity
100
AcDbBlockEnd
0
ENDSEC
0
SECTION
2
ENTITIES
0
LWPOLYLINE
5
100
100
AcDbEntity
8
0
100
AcDbPolyline
90
40
70
1
43
0.0
10
-40.533547140849286
20
-62.150391281395443
10
-49.281640004107352
20
-69.490912776459894
42
0.50180265177313332
10
-49.005135681154073
20
-74.293315156019787
42
0.03136895092101416
10
-39.325581395348991
20
-79.840457463104357
42
0.55557970984102989
10
-35.000000000000007
20
-77.149206087943611
10
-35.000000000000007
20
-66.149206087943654
42
-0.4142135623730957
10
-31
20
-62.149206087943661
10
30.999999999999996
20
-62.149206087943661
42
-0.4142135623730967
10
34.999999999999993
20
-66.149206087943654
10
34.999999999999993
20
-77.149206087943668
42
0.55557970984101268
10
39.325581395348813
20
-79.840457463104485
42
0.031368958725915629
10
49.005137998281718
20
-74.293313627602913
42
0.50180236220821706
10
49.281640004108141
20
-69.49091277645897
10
40.533547140849123
20
-62.150391281395358
42
-0.41421356237309381
10
39.91726297368696
20
-55.106231017367776
10
61.200603518018085
20
-29.741733461255375
42
-0.41421356237309409
10
68.244763782045652
20
-29.125449294093212
10
76.992856645303746
20
-36.465970789157737
42
0.50180265177313288
10
81.674285269980686
20
-35.359738766538037
42
0.20717672091378209
10
81.674285269980714
20
35.359738766538001
42
0.50180265177312966
10
76.992856645303732
20
36.465970789157701
10
68.244763782045638
20
29.125449294093176
42
-0.41421356237309465
10
61.200603518018042
20
29.741733461255365
10
39.917262973687066
20
55.106231017367818
42
-0.41421356237309431
10
40.533547140849265
20
62.150391281395436
10
49.281640004107402
20
69.490912776459922
42
0.5018026517731321
10
49.005135681154101
20
74.293315156019744
42
0.3001049714394724
10
-49.005135681154066
20
74.293315156019787
42
0.50180265177313532
10
-49.281640004107381
20
69.490912776459922
10
-40.533547140849194
20
62.150391281395414
42
-0.41421356237309398
10
-39.917262973687016
20
55.106231017367797
10
-61.20060351801807
20
29.741733461255365
42
-0.41421356237309465
10
-68.244763782045652
20
29.125449294093151
10
-76.992856645309274
20
36.465970789158781
42
0.50180265177312056
10
-81.674285269979535
20
35.359738766540772
42
0.20717673433346806
10
-81.674283450031709
20
-35.359742970274546
42
0.50180217391845139
10
-76.99285664530035
20
-36.465970789161624
10
-68.244763782045595
20
-29.125449294093059
42
-0.4142135623730952
10
-61.200603518018042
20
-29.741733461255272
10
-39.917262973687087
20
-55.106231017367833
42
-0.41421356237309648
0
CIRCLE
5
101
100
AcDbEntity
8
0
100
AcDbCircle
10
0
20
0
30
0
40
88.999999999999986
210
0
220
0
230
1
0
ENDSEC
0
SECTION
2
OBJECTS
0
DICTIONARY
5
C
100
AcDbDictionary
3
ACAD_GROUP
350
D
3
ACAD_MLINESTYLE
350
17
0
DICTIONARY
5
D
100
AcDbDictionary
0
DICTIONARY
5
1A
330
C
100
AcDbDictionary
0
DICTIONARY
5
17
100
AcDbDictionary
0
ENDSEC
0
EOF
