G04 #@! TF.GenerationSoftware,KiCad,Pcbnew,7.0.9*
G04 #@! TF.CreationDate,2023-12-19T12:33:16+08:00*
G04 #@! TF.ProjectId,vnh5019,766e6835-3031-4392-9e6b-696361645f70,rev?*
G04 #@! TF.SameCoordinates,Original*
G04 #@! TF.FileFunction,Legend,Top*
G04 #@! TF.FilePolarity,Positive*
%FSLAX46Y46*%
G04 Gerber Fmt 4.6, Leading zero omitted, Abs format (unit mm)*
G04 Created by KiCad (PCBNEW 7.0.9) date 2023-12-19 12:33:16*
%MOMM*%
%LPD*%
G01*
G04 APERTURE LIST*
G04 Aperture macros list*
%AMRoundRect*
0 Rectangle with rounded corners*
0 $1 Rounding radius*
0 $2 $3 $4 $5 $6 $7 $8 $9 X,Y pos of 4 corners*
0 Add a 4 corners polygon primitive as box body*
4,1,4,$2,$3,$4,$5,$6,$7,$8,$9,$2,$3,0*
0 Add four circle primitives for the rounded corners*
1,1,$1+$1,$2,$3*
1,1,$1+$1,$4,$5*
1,1,$1+$1,$6,$7*
1,1,$1+$1,$8,$9*
0 Add four rect primitives between the rounded corners*
20,1,$1+$1,$2,$3,$4,$5,0*
20,1,$1+$1,$4,$5,$6,$7,0*
20,1,$1+$1,$6,$7,$8,$9,0*
20,1,$1+$1,$8,$9,$2,$3,0*%
G04 Aperture macros list end*
%ADD10C,0.250000*%
%ADD11C,0.150000*%
%ADD12C,0.120000*%
%ADD13C,6.400000*%
%ADD14RoundRect,0.200000X-0.200000X-0.275000X0.200000X-0.275000X0.200000X0.275000X-0.200000X0.275000X0*%
%ADD15RoundRect,0.200000X0.200000X0.275000X-0.200000X0.275000X-0.200000X-0.275000X0.200000X-0.275000X0*%
%ADD16R,1.600000X1.600000*%
%ADD17C,1.600000*%
%ADD18R,1.350000X0.660000*%
%ADD19R,5.250000X10.300000*%
%ADD20R,5.250000X6.230000*%
%ADD21RoundRect,0.225000X0.225000X0.250000X-0.225000X0.250000X-0.225000X-0.250000X0.225000X-0.250000X0*%
%ADD22R,3.000000X3.000000*%
%ADD23C,3.000000*%
G04 APERTURE END LIST*
D10*
G36*
X88341608Y-108614805D02*
G01*
X88102739Y-108614805D01*
X88082443Y-108546840D01*
X88075763Y-108554873D01*
X88066644Y-108564613D01*
X88057064Y-108573680D01*
X88047021Y-108582076D01*
X88036517Y-108589800D01*
X88025551Y-108596853D01*
X88014123Y-108603233D01*
X88002233Y-108608943D01*
X87989882Y-108613980D01*
X87977068Y-108618346D01*
X87963793Y-108622040D01*
X87950057Y-108625063D01*
X87935858Y-108627414D01*
X87921198Y-108629093D01*
X87906076Y-108630100D01*
X87890492Y-108630436D01*
X87871295Y-108630027D01*
X87852600Y-108628799D01*
X87834407Y-108626752D01*
X87816715Y-108623887D01*
X87799526Y-108620204D01*
X87782838Y-108615701D01*
X87766652Y-108610380D01*
X87750968Y-108604241D01*
X87735786Y-108597283D01*
X87721106Y-108589506D01*
X87706927Y-108580911D01*
X87693250Y-108571497D01*
X87680076Y-108561265D01*
X87667403Y-108550214D01*
X87655232Y-108538344D01*
X87643562Y-108525656D01*
X87632501Y-108512170D01*
X87622153Y-108497969D01*
X87612519Y-108483052D01*
X87603598Y-108467419D01*
X87595391Y-108451071D01*
X87587898Y-108434008D01*
X87581118Y-108416228D01*
X87575052Y-108397734D01*
X87572287Y-108388218D01*
X87569700Y-108378523D01*
X87567291Y-108368650D01*
X87565061Y-108358598D01*
X87563009Y-108348366D01*
X87561136Y-108337956D01*
X87559441Y-108327367D01*
X87557925Y-108316599D01*
X87556587Y-108305652D01*
X87555427Y-108294527D01*
X87554446Y-108283222D01*
X87553643Y-108271739D01*
X87553018Y-108260076D01*
X87552572Y-108248235D01*
X87552305Y-108236215D01*
X87552216Y-108224016D01*
X87821127Y-108224016D01*
X87821430Y-108238030D01*
X87822338Y-108251405D01*
X87823851Y-108264139D01*
X87825970Y-108276234D01*
X87828694Y-108287690D01*
X87832023Y-108298505D01*
X87835958Y-108308681D01*
X87840498Y-108318217D01*
X87845644Y-108327114D01*
X87851395Y-108335371D01*
X87855565Y-108340520D01*
X87864526Y-108349851D01*
X87874189Y-108357937D01*
X87884554Y-108364780D01*
X87895621Y-108370378D01*
X87907390Y-108374733D01*
X87919862Y-108377843D01*
X87929677Y-108379359D01*
X87939886Y-108380176D01*
X87946912Y-108380331D01*
X87957341Y-108379981D01*
X87967380Y-108378932D01*
X87977028Y-108377182D01*
X87989284Y-108373761D01*
X88000845Y-108369095D01*
X88011712Y-108363186D01*
X88021884Y-108356032D01*
X88031362Y-108347635D01*
X88038015Y-108340520D01*
X88044213Y-108332689D01*
X88049801Y-108324219D01*
X88054780Y-108315110D01*
X88059149Y-108305360D01*
X88062909Y-108294971D01*
X88066059Y-108283942D01*
X88068599Y-108272274D01*
X88070529Y-108259965D01*
X88071850Y-108247017D01*
X88072562Y-108233430D01*
X88072697Y-108224016D01*
X88072392Y-108210004D01*
X88071478Y-108196636D01*
X88069954Y-108183912D01*
X88067820Y-108171832D01*
X88065076Y-108160396D01*
X88061723Y-108149604D01*
X88057761Y-108139456D01*
X88053188Y-108129952D01*
X88048006Y-108121092D01*
X88042214Y-108112876D01*
X88038015Y-108107756D01*
X88031362Y-108100598D01*
X88021884Y-108092149D01*
X88011712Y-108084951D01*
X88000845Y-108079005D01*
X87989284Y-108074311D01*
X87977028Y-108070869D01*
X87967380Y-108069109D01*
X87957341Y-108068053D01*
X87946912Y-108067701D01*
X87936439Y-108068053D01*
X87926361Y-108069109D01*
X87916678Y-108070869D01*
X87904382Y-108074311D01*
X87892788Y-108079005D01*
X87881897Y-108084951D01*
X87871707Y-108092149D01*
X87862220Y-108100598D01*
X87855565Y-108107756D01*
X87849411Y-108115543D01*
X87843862Y-108123974D01*
X87838918Y-108133048D01*
X87834579Y-108142767D01*
X87830846Y-108153130D01*
X87827719Y-108164136D01*
X87825196Y-108175787D01*
X87823279Y-108188082D01*
X87821968Y-108201020D01*
X87821261Y-108214603D01*
X87821127Y-108224016D01*
X87552216Y-108224016D01*
X87552305Y-108211817D01*
X87552572Y-108199798D01*
X87553018Y-108187958D01*
X87553643Y-108176297D01*
X87554446Y-108164816D01*
X87555427Y-108153514D01*
X87556587Y-108142391D01*
X87557925Y-108131448D01*
X87559441Y-108120684D01*
X87561136Y-108110100D01*
X87563009Y-108099694D01*
X87565061Y-108089469D01*
X87567291Y-108079422D01*
X87569700Y-108069555D01*
X87572287Y-108059868D01*
X87575052Y-108050359D01*
X87577996Y-108041030D01*
X87584419Y-108022911D01*
X87591555Y-108005508D01*
X87599405Y-107988823D01*
X87607969Y-107972856D01*
X87617247Y-107957606D01*
X87627238Y-107943074D01*
X87637942Y-107929259D01*
X87643562Y-107922620D01*
X87655232Y-107909902D01*
X87667403Y-107898005D01*
X87680076Y-107886928D01*
X87693250Y-107876672D01*
X87706927Y-107867236D01*
X87721106Y-107858621D01*
X87735786Y-107850826D01*
X87750968Y-107843852D01*
X87766652Y-107837698D01*
X87782838Y-107832365D01*
X87799526Y-107827852D01*
X87816715Y-107824160D01*
X87834407Y-107821288D01*
X87852600Y-107819237D01*
X87871295Y-107818006D01*
X87890492Y-107817596D01*
X87900801Y-107817787D01*
X87911028Y-107818360D01*
X87921174Y-107819315D01*
X87931238Y-107820653D01*
X87941221Y-107822372D01*
X87951122Y-107824474D01*
X87960942Y-107826957D01*
X87970680Y-107829823D01*
X87980336Y-107833071D01*
X87989911Y-107836701D01*
X87996249Y-107839333D01*
X88005590Y-107843517D01*
X88014561Y-107847914D01*
X88025949Y-107854112D01*
X88036681Y-107860691D01*
X88046756Y-107867652D01*
X88056174Y-107874995D01*
X88064937Y-107882719D01*
X88073042Y-107890825D01*
X88073418Y-107891239D01*
X88072697Y-107614386D01*
X88341608Y-107614386D01*
X88341608Y-108614805D01*
G37*
G36*
X88744365Y-108630436D02*
G01*
X88731681Y-108630159D01*
X88719091Y-108629328D01*
X88706596Y-108627944D01*
X88694196Y-108626005D01*
X88681890Y-108623513D01*
X88669678Y-108620467D01*
X88657561Y-108616867D01*
X88645538Y-108612713D01*
X88633610Y-108608006D01*
X88621776Y-108602744D01*
X88613939Y-108598929D01*
X88602446Y-108592675D01*
X88591322Y-108585731D01*
X88580567Y-108578095D01*
X88570182Y-108569768D01*
X88560165Y-108560750D01*
X88550518Y-108551041D01*
X88541240Y-108540640D01*
X88532332Y-108529548D01*
X88523792Y-108517765D01*
X88518304Y-108509526D01*
X88512981Y-108500979D01*
X88510380Y-108496591D01*
X88505411Y-108487589D01*
X88500763Y-108478292D01*
X88496435Y-108468699D01*
X88492428Y-108458810D01*
X88488742Y-108448625D01*
X88485376Y-108438144D01*
X88482330Y-108427368D01*
X88479606Y-108416296D01*
X88477201Y-108404928D01*
X88475118Y-108393265D01*
X88473355Y-108381305D01*
X88471912Y-108369050D01*
X88470790Y-108356500D01*
X88469989Y-108343653D01*
X88469508Y-108330511D01*
X88469347Y-108317072D01*
X88469347Y-107833227D01*
X88738259Y-107833227D01*
X88738259Y-108268957D01*
X88738499Y-108278898D01*
X88739568Y-108291452D01*
X88741491Y-108303204D01*
X88744269Y-108314155D01*
X88747903Y-108324304D01*
X88752391Y-108333652D01*
X88757733Y-108342199D01*
X88763931Y-108349944D01*
X88765614Y-108351755D01*
X88772762Y-108358453D01*
X88782566Y-108365569D01*
X88793336Y-108371290D01*
X88802648Y-108374862D01*
X88812578Y-108377541D01*
X88823126Y-108379327D01*
X88834293Y-108380220D01*
X88840108Y-108380331D01*
X88851572Y-108379885D01*
X88862395Y-108378545D01*
X88872577Y-108376313D01*
X88882118Y-108373187D01*
X88893142Y-108368025D01*
X88903165Y-108361466D01*
X88912185Y-108353513D01*
X88913869Y-108351755D01*
X88920166Y-108344210D01*
X88925624Y-108335864D01*
X88930241Y-108326716D01*
X88934019Y-108316767D01*
X88936958Y-108306017D01*
X88939057Y-108294465D01*
X88940316Y-108282111D01*
X88940710Y-108272320D01*
X88940736Y-108268957D01*
X88940736Y-107833227D01*
X89209403Y-107833227D01*
X89209403Y-108614805D01*
X88970778Y-108614805D01*
X88949529Y-108544463D01*
X88951971Y-108544463D01*
X88941744Y-108554873D01*
X88931150Y-108564613D01*
X88920189Y-108573680D01*
X88908862Y-108582076D01*
X88897169Y-108589800D01*
X88885110Y-108596853D01*
X88872684Y-108603233D01*
X88859892Y-108608943D01*
X88846733Y-108613980D01*
X88833208Y-108618346D01*
X88819317Y-108622040D01*
X88805059Y-108625063D01*
X88790435Y-108627414D01*
X88775445Y-108629093D01*
X88760088Y-108630100D01*
X88744365Y-108630436D01*
G37*
G36*
X89696668Y-108630436D02*
G01*
X89684922Y-108630333D01*
X89673344Y-108630024D01*
X89661936Y-108629509D01*
X89650697Y-108628787D01*
X89639626Y-108627860D01*
X89628724Y-108626727D01*
X89617991Y-108625387D01*
X89607427Y-108623841D01*
X89597032Y-108622090D01*
X89586806Y-108620132D01*
X89576749Y-108617968D01*
X89566860Y-108615598D01*
X89557141Y-108613022D01*
X89547590Y-108610240D01*
X89538208Y-108607252D01*
X89519951Y-108600657D01*
X89502369Y-108593239D01*
X89485463Y-108584995D01*
X89469232Y-108575928D01*
X89453677Y-108566036D01*
X89438797Y-108555320D01*
X89424593Y-108543779D01*
X89411064Y-108531415D01*
X89404553Y-108524923D01*
X89392131Y-108511383D01*
X89380511Y-108497141D01*
X89369691Y-108482196D01*
X89359674Y-108466549D01*
X89350457Y-108450200D01*
X89342042Y-108433149D01*
X89334429Y-108415395D01*
X89330923Y-108406255D01*
X89327617Y-108396940D01*
X89324511Y-108387449D01*
X89321606Y-108377782D01*
X89318901Y-108367940D01*
X89316397Y-108357922D01*
X89314093Y-108347729D01*
X89311989Y-108337360D01*
X89310086Y-108326815D01*
X89308383Y-108316095D01*
X89306880Y-108305200D01*
X89305578Y-108294129D01*
X89304476Y-108282882D01*
X89303574Y-108271460D01*
X89302873Y-108259862D01*
X89302372Y-108248089D01*
X89302071Y-108236140D01*
X89301971Y-108224016D01*
X89302071Y-108211892D01*
X89302372Y-108199943D01*
X89302873Y-108188169D01*
X89303574Y-108176572D01*
X89304476Y-108165150D01*
X89305578Y-108153903D01*
X89306880Y-108142832D01*
X89308383Y-108131936D01*
X89310086Y-108121216D01*
X89311989Y-108110672D01*
X89314093Y-108100303D01*
X89316397Y-108090110D01*
X89318901Y-108080092D01*
X89321606Y-108070250D01*
X89324511Y-108060583D01*
X89327617Y-108051092D01*
X89330923Y-108041776D01*
X89334429Y-108032636D01*
X89342042Y-108014883D01*
X89350457Y-107997832D01*
X89359674Y-107981483D01*
X89369691Y-107965836D01*
X89380511Y-107950891D01*
X89392131Y-107936649D01*
X89404553Y-107923109D01*
X89417744Y-107910332D01*
X89431611Y-107898379D01*
X89446153Y-107887251D01*
X89461370Y-107876947D01*
X89477263Y-107867467D01*
X89493832Y-107858812D01*
X89511076Y-107850981D01*
X89528995Y-107843974D01*
X89547590Y-107837792D01*
X89557141Y-107835010D01*
X89566860Y-107832434D01*
X89576749Y-107830064D01*
X89586806Y-107827900D01*
X89597032Y-107825942D01*
X89607427Y-107824190D01*
X89617991Y-107822645D01*
X89628724Y-107821305D01*
X89639626Y-107820172D01*
X89650697Y-107819244D01*
X89661936Y-107818523D01*
X89673344Y-107818008D01*
X89684922Y-107817699D01*
X89696668Y-107817596D01*
X89711568Y-107817782D01*
X89726168Y-107818340D01*
X89740465Y-107819270D01*
X89754462Y-107820573D01*
X89768156Y-107822247D01*
X89781550Y-107824293D01*
X89794642Y-107826712D01*
X89807432Y-107829503D01*
X89819921Y-107832665D01*
X89832108Y-107836200D01*
X89843994Y-107840107D01*
X89855578Y-107844386D01*
X89866861Y-107849037D01*
X89877842Y-107854061D01*
X89888522Y-107859456D01*
X89898901Y-107865223D01*
X89908975Y-107871273D01*
X89918742Y-107877515D01*
X89928201Y-107883951D01*
X89937354Y-107890579D01*
X89946199Y-107897399D01*
X89954737Y-107904413D01*
X89962968Y-107911619D01*
X89970891Y-107919018D01*
X89978508Y-107926609D01*
X89985817Y-107934394D01*
X89992819Y-107942371D01*
X89999514Y-107950540D01*
X90005901Y-107958903D01*
X90011981Y-107967458D01*
X90017755Y-107976206D01*
X90023220Y-107985146D01*
X90028416Y-107994246D01*
X90033379Y-108003472D01*
X90038110Y-108012824D01*
X90042607Y-108022302D01*
X90046872Y-108031906D01*
X90050904Y-108041635D01*
X90054703Y-108051491D01*
X90058269Y-108061472D01*
X90061603Y-108071580D01*
X90064704Y-108081813D01*
X90067571Y-108092173D01*
X90070207Y-108102658D01*
X90072609Y-108113269D01*
X90074779Y-108124006D01*
X90076715Y-108134869D01*
X90078419Y-108145858D01*
X89810973Y-108145858D01*
X89806306Y-108135898D01*
X89801341Y-108126655D01*
X89796078Y-108118129D01*
X89789081Y-108108481D01*
X89781619Y-108099954D01*
X89773692Y-108092548D01*
X89765300Y-108086263D01*
X89756174Y-108080915D01*
X89746047Y-108076474D01*
X89734917Y-108072939D01*
X89725293Y-108070764D01*
X89715027Y-108069169D01*
X89704120Y-108068154D01*
X89692572Y-108067719D01*
X89689585Y-108067701D01*
X89677037Y-108068326D01*
X89665038Y-108070204D01*
X89653589Y-108073333D01*
X89642690Y-108077714D01*
X89632340Y-108083347D01*
X89622540Y-108090232D01*
X89613289Y-108098368D01*
X89604588Y-108107756D01*
X89598565Y-108115543D01*
X89593134Y-108123974D01*
X89588295Y-108133048D01*
X89584049Y-108142767D01*
X89580395Y-108153130D01*
X89577334Y-108164136D01*
X89574865Y-108175787D01*
X89572989Y-108188082D01*
X89571706Y-108201020D01*
X89571014Y-108214603D01*
X89570883Y-108224016D01*
X89571179Y-108238030D01*
X89572068Y-108251405D01*
X89573549Y-108264139D01*
X89575622Y-108276234D01*
X89578289Y-108287690D01*
X89581547Y-108298505D01*
X89585398Y-108308681D01*
X89589842Y-108318217D01*
X89594878Y-108327114D01*
X89600507Y-108335371D01*
X89604588Y-108340520D01*
X89613289Y-108349851D01*
X89622540Y-108357937D01*
X89632340Y-108364780D01*
X89642690Y-108370378D01*
X89653589Y-108374733D01*
X89665038Y-108377843D01*
X89677037Y-108379709D01*
X89689585Y-108380331D01*
X89701293Y-108380045D01*
X89712360Y-108379186D01*
X89722786Y-108377755D01*
X89732571Y-108375752D01*
X89743901Y-108372442D01*
X89754229Y-108368238D01*
X89763555Y-108363140D01*
X89765300Y-108362013D01*
X89773692Y-108355658D01*
X89781619Y-108348193D01*
X89789081Y-108339620D01*
X89796078Y-108329937D01*
X89801341Y-108321393D01*
X89806306Y-108312138D01*
X89810973Y-108302174D01*
X90078419Y-108302174D01*
X90076715Y-108313163D01*
X90074779Y-108324026D01*
X90072609Y-108334763D01*
X90070207Y-108345374D01*
X90067571Y-108355859D01*
X90064704Y-108366219D01*
X90061603Y-108376452D01*
X90058269Y-108386560D01*
X90054703Y-108396541D01*
X90050904Y-108406397D01*
X90046872Y-108416126D01*
X90042607Y-108425730D01*
X90038110Y-108435208D01*
X90033379Y-108444560D01*
X90028416Y-108453785D01*
X90023220Y-108462885D01*
X90017755Y-108471826D01*
X90011981Y-108480574D01*
X90005901Y-108489129D01*
X89999514Y-108497492D01*
X89992819Y-108505661D01*
X89985817Y-108513638D01*
X89978508Y-108521423D01*
X89970891Y-108529014D01*
X89962968Y-108536413D01*
X89954737Y-108543619D01*
X89946199Y-108550633D01*
X89937354Y-108557453D01*
X89928201Y-108564081D01*
X89918742Y-108570516D01*
X89908975Y-108576759D01*
X89898901Y-108582809D01*
X89888522Y-108588576D01*
X89877842Y-108593971D01*
X89866861Y-108598995D01*
X89855578Y-108603646D01*
X89843994Y-108607925D01*
X89832108Y-108611832D01*
X89819921Y-108615366D01*
X89807432Y-108618529D01*
X89794642Y-108621320D01*
X89781550Y-108623738D01*
X89768156Y-108625785D01*
X89754462Y-108627459D01*
X89740465Y-108628762D01*
X89726168Y-108629692D01*
X89711568Y-108630250D01*
X89696668Y-108630436D01*
G37*
G36*
X90508531Y-108630436D02*
G01*
X90496785Y-108630333D01*
X90485208Y-108630024D01*
X90473799Y-108629509D01*
X90462560Y-108628787D01*
X90451489Y-108627860D01*
X90440588Y-108626727D01*
X90429855Y-108625387D01*
X90419291Y-108623841D01*
X90408896Y-108622090D01*
X90398669Y-108620132D01*
X90388612Y-108617968D01*
X90378723Y-108615598D01*
X90369004Y-108613022D01*
X90359453Y-108610240D01*
X90350071Y-108607252D01*
X90331814Y-108600657D01*
X90314232Y-108593239D01*
X90297326Y-108584995D01*
X90281096Y-108575928D01*
X90265540Y-108566036D01*
X90250661Y-108555320D01*
X90236456Y-108543779D01*
X90222928Y-108531415D01*
X90216416Y-108524923D01*
X90203994Y-108511383D01*
X90192374Y-108497141D01*
X90181555Y-108482196D01*
X90171537Y-108466549D01*
X90162321Y-108450200D01*
X90153906Y-108433149D01*
X90146292Y-108415395D01*
X90142786Y-108406255D01*
X90139480Y-108396940D01*
X90136374Y-108387449D01*
X90133469Y-108377782D01*
X90130765Y-108367940D01*
X90128260Y-108357922D01*
X90125956Y-108347729D01*
X90123852Y-108337360D01*
X90121949Y-108326815D01*
X90120246Y-108316095D01*
X90118743Y-108305200D01*
X90117441Y-108294129D01*
X90116339Y-108282882D01*
X90115437Y-108271460D01*
X90114736Y-108259862D01*
X90114235Y-108248089D01*
X90113935Y-108236140D01*
X90113834Y-108224016D01*
X90113935Y-108211892D01*
X90114235Y-108199943D01*
X90114736Y-108188169D01*
X90115437Y-108176572D01*
X90116339Y-108165150D01*
X90117441Y-108153903D01*
X90118743Y-108142832D01*
X90120246Y-108131936D01*
X90121949Y-108121216D01*
X90123852Y-108110672D01*
X90125956Y-108100303D01*
X90128260Y-108090110D01*
X90130765Y-108080092D01*
X90133469Y-108070250D01*
X90136374Y-108060583D01*
X90139480Y-108051092D01*
X90142786Y-108041776D01*
X90146292Y-108032636D01*
X90153906Y-108014883D01*
X90162321Y-107997832D01*
X90171537Y-107981483D01*
X90181555Y-107965836D01*
X90192374Y-107950891D01*
X90203994Y-107936649D01*
X90216416Y-107923109D01*
X90229608Y-107910332D01*
X90243474Y-107898379D01*
X90258016Y-107887251D01*
X90273233Y-107876947D01*
X90289126Y-107867467D01*
X90305695Y-107858812D01*
X90322939Y-107850981D01*
X90340858Y-107843974D01*
X90359453Y-107837792D01*
X90369004Y-107835010D01*
X90378723Y-107832434D01*
X90388612Y-107830064D01*
X90398669Y-107827900D01*
X90408896Y-107825942D01*
X90419291Y-107824190D01*
X90429855Y-107822645D01*
X90440588Y-107821305D01*
X90451489Y-107820172D01*
X90462560Y-107819244D01*
X90473799Y-107818523D01*
X90485208Y-107818008D01*
X90496785Y-107817699D01*
X90508531Y-107817596D01*
X90523432Y-107817782D01*
X90538031Y-107818340D01*
X90552329Y-107819270D01*
X90566325Y-107820573D01*
X90580020Y-107822247D01*
X90593413Y-107824293D01*
X90606505Y-107826712D01*
X90619295Y-107829503D01*
X90631784Y-107832665D01*
X90643971Y-107836200D01*
X90655857Y-107840107D01*
X90667441Y-107844386D01*
X90678724Y-107849037D01*
X90689706Y-107854061D01*
X90700386Y-107859456D01*
X90710764Y-107865223D01*
X90720838Y-107871273D01*
X90730605Y-107877515D01*
X90740065Y-107883951D01*
X90749217Y-107890579D01*
X90758062Y-107897399D01*
X90766600Y-107904413D01*
X90774831Y-107911619D01*
X90782755Y-107919018D01*
X90790371Y-107926609D01*
X90797680Y-107934394D01*
X90804682Y-107942371D01*
X90811377Y-107950540D01*
X90817764Y-107958903D01*
X90823845Y-107967458D01*
X90829618Y-107976206D01*
X90835084Y-107985146D01*
X90840280Y-107994246D01*
X90845243Y-108003472D01*
X90849973Y-108012824D01*
X90854470Y-108022302D01*
X90858735Y-108031906D01*
X90862767Y-108041635D01*
X90866566Y-108051491D01*
X90870132Y-108061472D01*
X90873466Y-108071580D01*
X90876567Y-108081813D01*
X90879435Y-108092173D01*
X90882070Y-108102658D01*
X90884472Y-108113269D01*
X90886642Y-108124006D01*
X90888579Y-108134869D01*
X90890283Y-108145858D01*
X90622837Y-108145858D01*
X90618169Y-108135898D01*
X90613204Y-108126655D01*
X90607942Y-108118129D01*
X90600945Y-108108481D01*
X90593483Y-108099954D01*
X90585555Y-108092548D01*
X90577163Y-108086263D01*
X90568037Y-108080915D01*
X90557910Y-108076474D01*
X90546781Y-108072939D01*
X90537156Y-108070764D01*
X90526890Y-108069169D01*
X90515983Y-108068154D01*
X90504435Y-108067719D01*
X90501448Y-108067701D01*
X90488900Y-108068326D01*
X90476901Y-108070204D01*
X90465453Y-108073333D01*
X90454553Y-108077714D01*
X90444203Y-108083347D01*
X90434403Y-108090232D01*
X90425153Y-108098368D01*
X90416451Y-108107756D01*
X90410428Y-108115543D01*
X90404997Y-108123974D01*
X90400158Y-108133048D01*
X90395912Y-108142767D01*
X90392258Y-108153130D01*
X90389197Y-108164136D01*
X90386729Y-108175787D01*
X90384852Y-108188082D01*
X90383569Y-108201020D01*
X90382878Y-108214603D01*
X90382746Y-108224016D01*
X90383042Y-108238030D01*
X90383931Y-108251405D01*
X90385412Y-108264139D01*
X90387486Y-108276234D01*
X90390152Y-108287690D01*
X90393411Y-108298505D01*
X90397262Y-108308681D01*
X90401705Y-108318217D01*
X90406741Y-108327114D01*
X90412370Y-108335371D01*
X90416451Y-108340520D01*
X90425153Y-108349851D01*
X90434403Y-108357937D01*
X90444203Y-108364780D01*
X90454553Y-108370378D01*
X90465453Y-108374733D01*
X90476901Y-108377843D01*
X90488900Y-108379709D01*
X90501448Y-108380331D01*
X90513156Y-108380045D01*
X90524224Y-108379186D01*
X90534650Y-108377755D01*
X90544435Y-108375752D01*
X90555764Y-108372442D01*
X90566092Y-108368238D01*
X90575418Y-108363140D01*
X90577163Y-108362013D01*
X90585555Y-108355658D01*
X90593483Y-108348193D01*
X90600945Y-108339620D01*
X90607942Y-108329937D01*
X90613204Y-108321393D01*
X90618169Y-108312138D01*
X90622837Y-108302174D01*
X90890283Y-108302174D01*
X90888579Y-108313163D01*
X90886642Y-108324026D01*
X90884472Y-108334763D01*
X90882070Y-108345374D01*
X90879435Y-108355859D01*
X90876567Y-108366219D01*
X90873466Y-108376452D01*
X90870132Y-108386560D01*
X90866566Y-108396541D01*
X90862767Y-108406397D01*
X90858735Y-108416126D01*
X90854470Y-108425730D01*
X90849973Y-108435208D01*
X90845243Y-108444560D01*
X90840280Y-108453785D01*
X90835084Y-108462885D01*
X90829618Y-108471826D01*
X90823845Y-108480574D01*
X90817764Y-108489129D01*
X90811377Y-108497492D01*
X90804682Y-108505661D01*
X90797680Y-108513638D01*
X90790371Y-108521423D01*
X90782755Y-108529014D01*
X90774831Y-108536413D01*
X90766600Y-108543619D01*
X90758062Y-108550633D01*
X90749217Y-108557453D01*
X90740065Y-108564081D01*
X90730605Y-108570516D01*
X90720838Y-108576759D01*
X90710764Y-108582809D01*
X90700386Y-108588576D01*
X90689706Y-108593971D01*
X90678724Y-108598995D01*
X90667441Y-108603646D01*
X90655857Y-108607925D01*
X90643971Y-108611832D01*
X90631784Y-108615366D01*
X90619295Y-108618529D01*
X90606505Y-108621320D01*
X90593413Y-108623738D01*
X90580020Y-108625785D01*
X90566325Y-108627459D01*
X90552329Y-108628762D01*
X90538031Y-108629692D01*
X90523432Y-108630250D01*
X90508531Y-108630436D01*
G37*
G36*
X91080548Y-108630436D02*
G01*
X91070303Y-108630086D01*
X91060269Y-108629036D01*
X91050445Y-108627287D01*
X91040832Y-108624838D01*
X91031428Y-108621688D01*
X91022236Y-108617839D01*
X91013253Y-108613291D01*
X91004481Y-108608042D01*
X90995920Y-108602094D01*
X90987568Y-108595445D01*
X90982118Y-108590624D01*
X90974436Y-108582932D01*
X90967509Y-108574874D01*
X90961338Y-108566451D01*
X90955923Y-108557663D01*
X90951263Y-108548510D01*
X90947359Y-108538993D01*
X90944211Y-108529110D01*
X90941818Y-108518863D01*
X90940181Y-108508250D01*
X90939299Y-108497273D01*
X90939131Y-108489752D01*
X90939509Y-108478534D01*
X90940642Y-108467684D01*
X90942531Y-108457204D01*
X90945176Y-108447094D01*
X90948576Y-108437352D01*
X90952732Y-108427980D01*
X90957644Y-108418977D01*
X90963311Y-108410343D01*
X90969734Y-108402078D01*
X90976912Y-108394183D01*
X90982118Y-108389124D01*
X90990329Y-108381966D01*
X90998750Y-108375511D01*
X91007382Y-108369761D01*
X91016224Y-108364715D01*
X91025277Y-108360373D01*
X91034539Y-108356735D01*
X91044013Y-108353801D01*
X91053696Y-108351572D01*
X91063590Y-108350046D01*
X91073695Y-108349225D01*
X91080548Y-108349068D01*
X91090790Y-108349420D01*
X91100818Y-108350476D01*
X91110631Y-108352237D01*
X91120230Y-108354701D01*
X91129613Y-108357870D01*
X91138782Y-108361742D01*
X91147737Y-108366319D01*
X91156477Y-108371600D01*
X91165002Y-108377585D01*
X91173312Y-108384274D01*
X91178733Y-108389124D01*
X91186459Y-108396773D01*
X91193425Y-108404792D01*
X91199631Y-108413180D01*
X91205077Y-108421937D01*
X91209763Y-108431063D01*
X91213690Y-108440558D01*
X91216856Y-108450423D01*
X91219262Y-108460657D01*
X91220909Y-108471260D01*
X91221795Y-108482232D01*
X91221964Y-108489752D01*
X91221584Y-108500973D01*
X91220444Y-108511828D01*
X91218545Y-108522319D01*
X91215885Y-108532445D01*
X91212465Y-108542206D01*
X91208286Y-108551602D01*
X91203346Y-108560633D01*
X91197647Y-108569299D01*
X91191188Y-108577600D01*
X91183968Y-108585536D01*
X91178733Y-108590624D01*
X91170566Y-108597739D01*
X91162184Y-108604154D01*
X91153587Y-108609869D01*
X91144776Y-108614885D01*
X91135750Y-108619200D01*
X91126509Y-108622816D01*
X91117054Y-108625732D01*
X91107384Y-108627948D01*
X91097499Y-108629464D01*
X91087400Y-108630281D01*
X91080548Y-108630436D01*
G37*
D11*
X102437704Y-101304761D02*
X101866276Y-101304761D01*
X101866276Y-101304761D02*
X101751990Y-101266666D01*
X101751990Y-101266666D02*
X101675800Y-101190475D01*
X101675800Y-101190475D02*
X101637704Y-101076190D01*
X101637704Y-101076190D02*
X101637704Y-100999999D01*
X101637704Y-102066666D02*
X101637704Y-101685714D01*
X101637704Y-101685714D02*
X102437704Y-101685714D01*
X101713895Y-102790476D02*
X101675800Y-102752380D01*
X101675800Y-102752380D02*
X101637704Y-102638095D01*
X101637704Y-102638095D02*
X101637704Y-102561904D01*
X101637704Y-102561904D02*
X101675800Y-102447618D01*
X101675800Y-102447618D02*
X101751990Y-102371428D01*
X101751990Y-102371428D02*
X101828180Y-102333333D01*
X101828180Y-102333333D02*
X101980561Y-102295237D01*
X101980561Y-102295237D02*
X102094847Y-102295237D01*
X102094847Y-102295237D02*
X102247228Y-102333333D01*
X102247228Y-102333333D02*
X102323419Y-102371428D01*
X102323419Y-102371428D02*
X102399609Y-102447618D01*
X102399609Y-102447618D02*
X102437704Y-102561904D01*
X102437704Y-102561904D02*
X102437704Y-102638095D01*
X102437704Y-102638095D02*
X102399609Y-102752380D01*
X102399609Y-102752380D02*
X102361514Y-102790476D01*
X102437704Y-103361904D02*
X101866276Y-103361904D01*
X101866276Y-103361904D02*
X101751990Y-103323809D01*
X101751990Y-103323809D02*
X101675800Y-103247618D01*
X101675800Y-103247618D02*
X101637704Y-103133333D01*
X101637704Y-103133333D02*
X101637704Y-103057142D01*
X101637704Y-104123809D02*
X101637704Y-103742857D01*
X101637704Y-103742857D02*
X102437704Y-103742857D01*
X101713895Y-104847619D02*
X101675800Y-104809523D01*
X101675800Y-104809523D02*
X101637704Y-104695238D01*
X101637704Y-104695238D02*
X101637704Y-104619047D01*
X101637704Y-104619047D02*
X101675800Y-104504761D01*
X101675800Y-104504761D02*
X101751990Y-104428571D01*
X101751990Y-104428571D02*
X101828180Y-104390476D01*
X101828180Y-104390476D02*
X101980561Y-104352380D01*
X101980561Y-104352380D02*
X102094847Y-104352380D01*
X102094847Y-104352380D02*
X102247228Y-104390476D01*
X102247228Y-104390476D02*
X102323419Y-104428571D01*
X102323419Y-104428571D02*
X102399609Y-104504761D01*
X102399609Y-104504761D02*
X102437704Y-104619047D01*
X102437704Y-104619047D02*
X102437704Y-104695238D01*
X102437704Y-104695238D02*
X102399609Y-104809523D01*
X102399609Y-104809523D02*
X102361514Y-104847619D01*
X102437704Y-105419047D02*
X101866276Y-105419047D01*
X101866276Y-105419047D02*
X101751990Y-105380952D01*
X101751990Y-105380952D02*
X101675800Y-105304761D01*
X101675800Y-105304761D02*
X101637704Y-105190476D01*
X101637704Y-105190476D02*
X101637704Y-105114285D01*
X101637704Y-106180952D02*
X101637704Y-105800000D01*
X101637704Y-105800000D02*
X102437704Y-105800000D01*
X101713895Y-106904762D02*
X101675800Y-106866666D01*
X101675800Y-106866666D02*
X101637704Y-106752381D01*
X101637704Y-106752381D02*
X101637704Y-106676190D01*
X101637704Y-106676190D02*
X101675800Y-106561904D01*
X101675800Y-106561904D02*
X101751990Y-106485714D01*
X101751990Y-106485714D02*
X101828180Y-106447619D01*
X101828180Y-106447619D02*
X101980561Y-106409523D01*
X101980561Y-106409523D02*
X102094847Y-106409523D01*
X102094847Y-106409523D02*
X102247228Y-106447619D01*
X102247228Y-106447619D02*
X102323419Y-106485714D01*
X102323419Y-106485714D02*
X102399609Y-106561904D01*
X102399609Y-106561904D02*
X102437704Y-106676190D01*
X102437704Y-106676190D02*
X102437704Y-106752381D01*
X102437704Y-106752381D02*
X102399609Y-106866666D01*
X102399609Y-106866666D02*
X102361514Y-106904762D01*
X102437704Y-107476190D02*
X101866276Y-107476190D01*
X101866276Y-107476190D02*
X101751990Y-107438095D01*
X101751990Y-107438095D02*
X101675800Y-107361904D01*
X101675800Y-107361904D02*
X101637704Y-107247619D01*
X101637704Y-107247619D02*
X101637704Y-107171428D01*
X101637704Y-108238095D02*
X101637704Y-107857143D01*
X101637704Y-107857143D02*
X102437704Y-107857143D01*
X101713895Y-108961905D02*
X101675800Y-108923809D01*
X101675800Y-108923809D02*
X101637704Y-108809524D01*
X101637704Y-108809524D02*
X101637704Y-108733333D01*
X101637704Y-108733333D02*
X101675800Y-108619047D01*
X101675800Y-108619047D02*
X101751990Y-108542857D01*
X101751990Y-108542857D02*
X101828180Y-108504762D01*
X101828180Y-108504762D02*
X101980561Y-108466666D01*
X101980561Y-108466666D02*
X102094847Y-108466666D01*
X102094847Y-108466666D02*
X102247228Y-108504762D01*
X102247228Y-108504762D02*
X102323419Y-108542857D01*
X102323419Y-108542857D02*
X102399609Y-108619047D01*
X102399609Y-108619047D02*
X102437704Y-108733333D01*
X102437704Y-108733333D02*
X102437704Y-108809524D01*
X102437704Y-108809524D02*
X102399609Y-108923809D01*
X102399609Y-108923809D02*
X102361514Y-108961905D01*
X131238095Y-93454819D02*
X131238095Y-92454819D01*
X131238095Y-92931009D02*
X131809523Y-92931009D01*
X131809523Y-93454819D02*
X131809523Y-92454819D01*
X132809523Y-93454819D02*
X132238095Y-93454819D01*
X132523809Y-93454819D02*
X132523809Y-92454819D01*
X132523809Y-92454819D02*
X132428571Y-92597676D01*
X132428571Y-92597676D02*
X132333333Y-92692914D01*
X132333333Y-92692914D02*
X132238095Y-92740533D01*
X120208333Y-106454819D02*
X119875000Y-105978628D01*
X119636905Y-106454819D02*
X119636905Y-105454819D01*
X119636905Y-105454819D02*
X120017857Y-105454819D01*
X120017857Y-105454819D02*
X120113095Y-105502438D01*
X120113095Y-105502438D02*
X120160714Y-105550057D01*
X120160714Y-105550057D02*
X120208333Y-105645295D01*
X120208333Y-105645295D02*
X120208333Y-105788152D01*
X120208333Y-105788152D02*
X120160714Y-105883390D01*
X120160714Y-105883390D02*
X120113095Y-105931009D01*
X120113095Y-105931009D02*
X120017857Y-105978628D01*
X120017857Y-105978628D02*
X119636905Y-105978628D01*
X120541667Y-105454819D02*
X121160714Y-105454819D01*
X121160714Y-105454819D02*
X120827381Y-105835771D01*
X120827381Y-105835771D02*
X120970238Y-105835771D01*
X120970238Y-105835771D02*
X121065476Y-105883390D01*
X121065476Y-105883390D02*
X121113095Y-105931009D01*
X121113095Y-105931009D02*
X121160714Y-106026247D01*
X121160714Y-106026247D02*
X121160714Y-106264342D01*
X121160714Y-106264342D02*
X121113095Y-106359580D01*
X121113095Y-106359580D02*
X121065476Y-106407200D01*
X121065476Y-106407200D02*
X120970238Y-106454819D01*
X120970238Y-106454819D02*
X120684524Y-106454819D01*
X120684524Y-106454819D02*
X120589286Y-106407200D01*
X120589286Y-106407200D02*
X120541667Y-106359580D01*
X125279761Y-106454819D02*
X124708333Y-106454819D01*
X124994047Y-106454819D02*
X124994047Y-105454819D01*
X124994047Y-105454819D02*
X124898809Y-105597676D01*
X124898809Y-105597676D02*
X124803571Y-105692914D01*
X124803571Y-105692914D02*
X124708333Y-105740533D01*
X125898809Y-105454819D02*
X125994047Y-105454819D01*
X125994047Y-105454819D02*
X126089285Y-105502438D01*
X126089285Y-105502438D02*
X126136904Y-105550057D01*
X126136904Y-105550057D02*
X126184523Y-105645295D01*
X126184523Y-105645295D02*
X126232142Y-105835771D01*
X126232142Y-105835771D02*
X126232142Y-106073866D01*
X126232142Y-106073866D02*
X126184523Y-106264342D01*
X126184523Y-106264342D02*
X126136904Y-106359580D01*
X126136904Y-106359580D02*
X126089285Y-106407200D01*
X126089285Y-106407200D02*
X125994047Y-106454819D01*
X125994047Y-106454819D02*
X125898809Y-106454819D01*
X125898809Y-106454819D02*
X125803571Y-106407200D01*
X125803571Y-106407200D02*
X125755952Y-106359580D01*
X125755952Y-106359580D02*
X125708333Y-106264342D01*
X125708333Y-106264342D02*
X125660714Y-106073866D01*
X125660714Y-106073866D02*
X125660714Y-105835771D01*
X125660714Y-105835771D02*
X125708333Y-105645295D01*
X125708333Y-105645295D02*
X125755952Y-105550057D01*
X125755952Y-105550057D02*
X125803571Y-105502438D01*
X125803571Y-105502438D02*
X125898809Y-105454819D01*
X126660714Y-106454819D02*
X126660714Y-105454819D01*
X126755952Y-106073866D02*
X127041666Y-106454819D01*
X127041666Y-105788152D02*
X126660714Y-106169104D01*
X131238095Y-117454819D02*
X131238095Y-116454819D01*
X131238095Y-116931009D02*
X131809523Y-116931009D01*
X131809523Y-117454819D02*
X131809523Y-116454819D01*
X132238095Y-116550057D02*
X132285714Y-116502438D01*
X132285714Y-116502438D02*
X132380952Y-116454819D01*
X132380952Y-116454819D02*
X132619047Y-116454819D01*
X132619047Y-116454819D02*
X132714285Y-116502438D01*
X132714285Y-116502438D02*
X132761904Y-116550057D01*
X132761904Y-116550057D02*
X132809523Y-116645295D01*
X132809523Y-116645295D02*
X132809523Y-116740533D01*
X132809523Y-116740533D02*
X132761904Y-116883390D01*
X132761904Y-116883390D02*
X132190476Y-117454819D01*
X132190476Y-117454819D02*
X132809523Y-117454819D01*
X120208333Y-108454819D02*
X119875000Y-107978628D01*
X119636905Y-108454819D02*
X119636905Y-107454819D01*
X119636905Y-107454819D02*
X120017857Y-107454819D01*
X120017857Y-107454819D02*
X120113095Y-107502438D01*
X120113095Y-107502438D02*
X120160714Y-107550057D01*
X120160714Y-107550057D02*
X120208333Y-107645295D01*
X120208333Y-107645295D02*
X120208333Y-107788152D01*
X120208333Y-107788152D02*
X120160714Y-107883390D01*
X120160714Y-107883390D02*
X120113095Y-107931009D01*
X120113095Y-107931009D02*
X120017857Y-107978628D01*
X120017857Y-107978628D02*
X119636905Y-107978628D01*
X121065476Y-107788152D02*
X121065476Y-108454819D01*
X120827381Y-107407200D02*
X120589286Y-108121485D01*
X120589286Y-108121485D02*
X121208333Y-108121485D01*
X125255952Y-108454819D02*
X124684524Y-108454819D01*
X124970238Y-108454819D02*
X124970238Y-107454819D01*
X124970238Y-107454819D02*
X124875000Y-107597676D01*
X124875000Y-107597676D02*
X124779762Y-107692914D01*
X124779762Y-107692914D02*
X124684524Y-107740533D01*
X125684524Y-108454819D02*
X125684524Y-107454819D01*
X125779762Y-108073866D02*
X126065476Y-108454819D01*
X126065476Y-107788152D02*
X125684524Y-108169104D01*
X120208333Y-102454819D02*
X119875000Y-101978628D01*
X119636905Y-102454819D02*
X119636905Y-101454819D01*
X119636905Y-101454819D02*
X120017857Y-101454819D01*
X120017857Y-101454819D02*
X120113095Y-101502438D01*
X120113095Y-101502438D02*
X120160714Y-101550057D01*
X120160714Y-101550057D02*
X120208333Y-101645295D01*
X120208333Y-101645295D02*
X120208333Y-101788152D01*
X120208333Y-101788152D02*
X120160714Y-101883390D01*
X120160714Y-101883390D02*
X120113095Y-101931009D01*
X120113095Y-101931009D02*
X120017857Y-101978628D01*
X120017857Y-101978628D02*
X119636905Y-101978628D01*
X120779762Y-101883390D02*
X120684524Y-101835771D01*
X120684524Y-101835771D02*
X120636905Y-101788152D01*
X120636905Y-101788152D02*
X120589286Y-101692914D01*
X120589286Y-101692914D02*
X120589286Y-101645295D01*
X120589286Y-101645295D02*
X120636905Y-101550057D01*
X120636905Y-101550057D02*
X120684524Y-101502438D01*
X120684524Y-101502438D02*
X120779762Y-101454819D01*
X120779762Y-101454819D02*
X120970238Y-101454819D01*
X120970238Y-101454819D02*
X121065476Y-101502438D01*
X121065476Y-101502438D02*
X121113095Y-101550057D01*
X121113095Y-101550057D02*
X121160714Y-101645295D01*
X121160714Y-101645295D02*
X121160714Y-101692914D01*
X121160714Y-101692914D02*
X121113095Y-101788152D01*
X121113095Y-101788152D02*
X121065476Y-101835771D01*
X121065476Y-101835771D02*
X120970238Y-101883390D01*
X120970238Y-101883390D02*
X120779762Y-101883390D01*
X120779762Y-101883390D02*
X120684524Y-101931009D01*
X120684524Y-101931009D02*
X120636905Y-101978628D01*
X120636905Y-101978628D02*
X120589286Y-102073866D01*
X120589286Y-102073866D02*
X120589286Y-102264342D01*
X120589286Y-102264342D02*
X120636905Y-102359580D01*
X120636905Y-102359580D02*
X120684524Y-102407200D01*
X120684524Y-102407200D02*
X120779762Y-102454819D01*
X120779762Y-102454819D02*
X120970238Y-102454819D01*
X120970238Y-102454819D02*
X121065476Y-102407200D01*
X121065476Y-102407200D02*
X121113095Y-102359580D01*
X121113095Y-102359580D02*
X121160714Y-102264342D01*
X121160714Y-102264342D02*
X121160714Y-102073866D01*
X121160714Y-102073866D02*
X121113095Y-101978628D01*
X121113095Y-101978628D02*
X121065476Y-101931009D01*
X121065476Y-101931009D02*
X120970238Y-101883390D01*
X125279761Y-102454819D02*
X124708333Y-102454819D01*
X124994047Y-102454819D02*
X124994047Y-101454819D01*
X124994047Y-101454819D02*
X124898809Y-101597676D01*
X124898809Y-101597676D02*
X124803571Y-101692914D01*
X124803571Y-101692914D02*
X124708333Y-101740533D01*
X125898809Y-101454819D02*
X125994047Y-101454819D01*
X125994047Y-101454819D02*
X126089285Y-101502438D01*
X126089285Y-101502438D02*
X126136904Y-101550057D01*
X126136904Y-101550057D02*
X126184523Y-101645295D01*
X126184523Y-101645295D02*
X126232142Y-101835771D01*
X126232142Y-101835771D02*
X126232142Y-102073866D01*
X126232142Y-102073866D02*
X126184523Y-102264342D01*
X126184523Y-102264342D02*
X126136904Y-102359580D01*
X126136904Y-102359580D02*
X126089285Y-102407200D01*
X126089285Y-102407200D02*
X125994047Y-102454819D01*
X125994047Y-102454819D02*
X125898809Y-102454819D01*
X125898809Y-102454819D02*
X125803571Y-102407200D01*
X125803571Y-102407200D02*
X125755952Y-102359580D01*
X125755952Y-102359580D02*
X125708333Y-102264342D01*
X125708333Y-102264342D02*
X125660714Y-102073866D01*
X125660714Y-102073866D02*
X125660714Y-101835771D01*
X125660714Y-101835771D02*
X125708333Y-101645295D01*
X125708333Y-101645295D02*
X125755952Y-101550057D01*
X125755952Y-101550057D02*
X125803571Y-101502438D01*
X125803571Y-101502438D02*
X125898809Y-101454819D01*
X126660714Y-102454819D02*
X126660714Y-101454819D01*
X126755952Y-102073866D02*
X127041666Y-102454819D01*
X127041666Y-101788152D02*
X126660714Y-102169104D01*
X120208333Y-98454819D02*
X119875000Y-97978628D01*
X119636905Y-98454819D02*
X119636905Y-97454819D01*
X119636905Y-97454819D02*
X120017857Y-97454819D01*
X120017857Y-97454819D02*
X120113095Y-97502438D01*
X120113095Y-97502438D02*
X120160714Y-97550057D01*
X120160714Y-97550057D02*
X120208333Y-97645295D01*
X120208333Y-97645295D02*
X120208333Y-97788152D01*
X120208333Y-97788152D02*
X120160714Y-97883390D01*
X120160714Y-97883390D02*
X120113095Y-97931009D01*
X120113095Y-97931009D02*
X120017857Y-97978628D01*
X120017857Y-97978628D02*
X119636905Y-97978628D01*
X121065476Y-97454819D02*
X120875000Y-97454819D01*
X120875000Y-97454819D02*
X120779762Y-97502438D01*
X120779762Y-97502438D02*
X120732143Y-97550057D01*
X120732143Y-97550057D02*
X120636905Y-97692914D01*
X120636905Y-97692914D02*
X120589286Y-97883390D01*
X120589286Y-97883390D02*
X120589286Y-98264342D01*
X120589286Y-98264342D02*
X120636905Y-98359580D01*
X120636905Y-98359580D02*
X120684524Y-98407200D01*
X120684524Y-98407200D02*
X120779762Y-98454819D01*
X120779762Y-98454819D02*
X120970238Y-98454819D01*
X120970238Y-98454819D02*
X121065476Y-98407200D01*
X121065476Y-98407200D02*
X121113095Y-98359580D01*
X121113095Y-98359580D02*
X121160714Y-98264342D01*
X121160714Y-98264342D02*
X121160714Y-98026247D01*
X121160714Y-98026247D02*
X121113095Y-97931009D01*
X121113095Y-97931009D02*
X121065476Y-97883390D01*
X121065476Y-97883390D02*
X120970238Y-97835771D01*
X120970238Y-97835771D02*
X120779762Y-97835771D01*
X120779762Y-97835771D02*
X120684524Y-97883390D01*
X120684524Y-97883390D02*
X120636905Y-97931009D01*
X120636905Y-97931009D02*
X120589286Y-98026247D01*
X124636905Y-97454819D02*
X125255952Y-97454819D01*
X125255952Y-97454819D02*
X124922619Y-97835771D01*
X124922619Y-97835771D02*
X125065476Y-97835771D01*
X125065476Y-97835771D02*
X125160714Y-97883390D01*
X125160714Y-97883390D02*
X125208333Y-97931009D01*
X125208333Y-97931009D02*
X125255952Y-98026247D01*
X125255952Y-98026247D02*
X125255952Y-98264342D01*
X125255952Y-98264342D02*
X125208333Y-98359580D01*
X125208333Y-98359580D02*
X125160714Y-98407200D01*
X125160714Y-98407200D02*
X125065476Y-98454819D01*
X125065476Y-98454819D02*
X124779762Y-98454819D01*
X124779762Y-98454819D02*
X124684524Y-98407200D01*
X124684524Y-98407200D02*
X124636905Y-98359580D01*
X125684524Y-98359580D02*
X125732143Y-98407200D01*
X125732143Y-98407200D02*
X125684524Y-98454819D01*
X125684524Y-98454819D02*
X125636905Y-98407200D01*
X125636905Y-98407200D02*
X125684524Y-98359580D01*
X125684524Y-98359580D02*
X125684524Y-98454819D01*
X126113095Y-97550057D02*
X126160714Y-97502438D01*
X126160714Y-97502438D02*
X126255952Y-97454819D01*
X126255952Y-97454819D02*
X126494047Y-97454819D01*
X126494047Y-97454819D02*
X126589285Y-97502438D01*
X126589285Y-97502438D02*
X126636904Y-97550057D01*
X126636904Y-97550057D02*
X126684523Y-97645295D01*
X126684523Y-97645295D02*
X126684523Y-97740533D01*
X126684523Y-97740533D02*
X126636904Y-97883390D01*
X126636904Y-97883390D02*
X126065476Y-98454819D01*
X126065476Y-98454819D02*
X126684523Y-98454819D01*
X127541666Y-97788152D02*
X127541666Y-98454819D01*
X127303571Y-97407200D02*
X127065476Y-98121485D01*
X127065476Y-98121485D02*
X127684523Y-98121485D01*
X128065476Y-98454819D02*
X128065476Y-97454819D01*
X128160714Y-98073866D02*
X128446428Y-98454819D01*
X128446428Y-97788152D02*
X128065476Y-98169104D01*
X75251369Y-100359580D02*
X75203750Y-100407200D01*
X75203750Y-100407200D02*
X75060893Y-100454819D01*
X75060893Y-100454819D02*
X74965655Y-100454819D01*
X74965655Y-100454819D02*
X74822798Y-100407200D01*
X74822798Y-100407200D02*
X74727560Y-100311961D01*
X74727560Y-100311961D02*
X74679941Y-100216723D01*
X74679941Y-100216723D02*
X74632322Y-100026247D01*
X74632322Y-100026247D02*
X74632322Y-99883390D01*
X74632322Y-99883390D02*
X74679941Y-99692914D01*
X74679941Y-99692914D02*
X74727560Y-99597676D01*
X74727560Y-99597676D02*
X74822798Y-99502438D01*
X74822798Y-99502438D02*
X74965655Y-99454819D01*
X74965655Y-99454819D02*
X75060893Y-99454819D01*
X75060893Y-99454819D02*
X75203750Y-99502438D01*
X75203750Y-99502438D02*
X75251369Y-99550057D01*
X76203750Y-100454819D02*
X75632322Y-100454819D01*
X75918036Y-100454819D02*
X75918036Y-99454819D01*
X75918036Y-99454819D02*
X75822798Y-99597676D01*
X75822798Y-99597676D02*
X75727560Y-99692914D01*
X75727560Y-99692914D02*
X75632322Y-99740533D01*
X108613095Y-114054819D02*
X108613095Y-114864342D01*
X108613095Y-114864342D02*
X108660714Y-114959580D01*
X108660714Y-114959580D02*
X108708333Y-115007200D01*
X108708333Y-115007200D02*
X108803571Y-115054819D01*
X108803571Y-115054819D02*
X108994047Y-115054819D01*
X108994047Y-115054819D02*
X109089285Y-115007200D01*
X109089285Y-115007200D02*
X109136904Y-114959580D01*
X109136904Y-114959580D02*
X109184523Y-114864342D01*
X109184523Y-114864342D02*
X109184523Y-114054819D01*
X110184523Y-115054819D02*
X109613095Y-115054819D01*
X109898809Y-115054819D02*
X109898809Y-114054819D01*
X109898809Y-114054819D02*
X109803571Y-114197676D01*
X109803571Y-114197676D02*
X109708333Y-114292914D01*
X109708333Y-114292914D02*
X109613095Y-114340533D01*
X120208333Y-112454819D02*
X119875000Y-111978628D01*
X119636905Y-112454819D02*
X119636905Y-111454819D01*
X119636905Y-111454819D02*
X120017857Y-111454819D01*
X120017857Y-111454819D02*
X120113095Y-111502438D01*
X120113095Y-111502438D02*
X120160714Y-111550057D01*
X120160714Y-111550057D02*
X120208333Y-111645295D01*
X120208333Y-111645295D02*
X120208333Y-111788152D01*
X120208333Y-111788152D02*
X120160714Y-111883390D01*
X120160714Y-111883390D02*
X120113095Y-111931009D01*
X120113095Y-111931009D02*
X120017857Y-111978628D01*
X120017857Y-111978628D02*
X119636905Y-111978628D01*
X121113095Y-111454819D02*
X120636905Y-111454819D01*
X120636905Y-111454819D02*
X120589286Y-111931009D01*
X120589286Y-111931009D02*
X120636905Y-111883390D01*
X120636905Y-111883390D02*
X120732143Y-111835771D01*
X120732143Y-111835771D02*
X120970238Y-111835771D01*
X120970238Y-111835771D02*
X121065476Y-111883390D01*
X121065476Y-111883390D02*
X121113095Y-111931009D01*
X121113095Y-111931009D02*
X121160714Y-112026247D01*
X121160714Y-112026247D02*
X121160714Y-112264342D01*
X121160714Y-112264342D02*
X121113095Y-112359580D01*
X121113095Y-112359580D02*
X121065476Y-112407200D01*
X121065476Y-112407200D02*
X120970238Y-112454819D01*
X120970238Y-112454819D02*
X120732143Y-112454819D01*
X120732143Y-112454819D02*
X120636905Y-112407200D01*
X120636905Y-112407200D02*
X120589286Y-112359580D01*
X124636905Y-111454819D02*
X125255952Y-111454819D01*
X125255952Y-111454819D02*
X124922619Y-111835771D01*
X124922619Y-111835771D02*
X125065476Y-111835771D01*
X125065476Y-111835771D02*
X125160714Y-111883390D01*
X125160714Y-111883390D02*
X125208333Y-111931009D01*
X125208333Y-111931009D02*
X125255952Y-112026247D01*
X125255952Y-112026247D02*
X125255952Y-112264342D01*
X125255952Y-112264342D02*
X125208333Y-112359580D01*
X125208333Y-112359580D02*
X125160714Y-112407200D01*
X125160714Y-112407200D02*
X125065476Y-112454819D01*
X125065476Y-112454819D02*
X124779762Y-112454819D01*
X124779762Y-112454819D02*
X124684524Y-112407200D01*
X124684524Y-112407200D02*
X124636905Y-112359580D01*
X125684524Y-112359580D02*
X125732143Y-112407200D01*
X125732143Y-112407200D02*
X125684524Y-112454819D01*
X125684524Y-112454819D02*
X125636905Y-112407200D01*
X125636905Y-112407200D02*
X125684524Y-112359580D01*
X125684524Y-112359580D02*
X125684524Y-112454819D01*
X126113095Y-111550057D02*
X126160714Y-111502438D01*
X126160714Y-111502438D02*
X126255952Y-111454819D01*
X126255952Y-111454819D02*
X126494047Y-111454819D01*
X126494047Y-111454819D02*
X126589285Y-111502438D01*
X126589285Y-111502438D02*
X126636904Y-111550057D01*
X126636904Y-111550057D02*
X126684523Y-111645295D01*
X126684523Y-111645295D02*
X126684523Y-111740533D01*
X126684523Y-111740533D02*
X126636904Y-111883390D01*
X126636904Y-111883390D02*
X126065476Y-112454819D01*
X126065476Y-112454819D02*
X126684523Y-112454819D01*
X127541666Y-111788152D02*
X127541666Y-112454819D01*
X127303571Y-111407200D02*
X127065476Y-112121485D01*
X127065476Y-112121485D02*
X127684523Y-112121485D01*
X128065476Y-112454819D02*
X128065476Y-111454819D01*
X128160714Y-112073866D02*
X128446428Y-112454819D01*
X128446428Y-111788152D02*
X128065476Y-112169104D01*
X120208333Y-104359580D02*
X120160714Y-104407200D01*
X120160714Y-104407200D02*
X120017857Y-104454819D01*
X120017857Y-104454819D02*
X119922619Y-104454819D01*
X119922619Y-104454819D02*
X119779762Y-104407200D01*
X119779762Y-104407200D02*
X119684524Y-104311961D01*
X119684524Y-104311961D02*
X119636905Y-104216723D01*
X119636905Y-104216723D02*
X119589286Y-104026247D01*
X119589286Y-104026247D02*
X119589286Y-103883390D01*
X119589286Y-103883390D02*
X119636905Y-103692914D01*
X119636905Y-103692914D02*
X119684524Y-103597676D01*
X119684524Y-103597676D02*
X119779762Y-103502438D01*
X119779762Y-103502438D02*
X119922619Y-103454819D01*
X119922619Y-103454819D02*
X120017857Y-103454819D01*
X120017857Y-103454819D02*
X120160714Y-103502438D01*
X120160714Y-103502438D02*
X120208333Y-103550057D01*
X120541667Y-103454819D02*
X121160714Y-103454819D01*
X121160714Y-103454819D02*
X120827381Y-103835771D01*
X120827381Y-103835771D02*
X120970238Y-103835771D01*
X120970238Y-103835771D02*
X121065476Y-103883390D01*
X121065476Y-103883390D02*
X121113095Y-103931009D01*
X121113095Y-103931009D02*
X121160714Y-104026247D01*
X121160714Y-104026247D02*
X121160714Y-104264342D01*
X121160714Y-104264342D02*
X121113095Y-104359580D01*
X121113095Y-104359580D02*
X121065476Y-104407200D01*
X121065476Y-104407200D02*
X120970238Y-104454819D01*
X120970238Y-104454819D02*
X120684524Y-104454819D01*
X120684524Y-104454819D02*
X120589286Y-104407200D01*
X120589286Y-104407200D02*
X120541667Y-104359580D01*
X124660714Y-103454819D02*
X125279761Y-103454819D01*
X125279761Y-103454819D02*
X124946428Y-103835771D01*
X124946428Y-103835771D02*
X125089285Y-103835771D01*
X125089285Y-103835771D02*
X125184523Y-103883390D01*
X125184523Y-103883390D02*
X125232142Y-103931009D01*
X125232142Y-103931009D02*
X125279761Y-104026247D01*
X125279761Y-104026247D02*
X125279761Y-104264342D01*
X125279761Y-104264342D02*
X125232142Y-104359580D01*
X125232142Y-104359580D02*
X125184523Y-104407200D01*
X125184523Y-104407200D02*
X125089285Y-104454819D01*
X125089285Y-104454819D02*
X124803571Y-104454819D01*
X124803571Y-104454819D02*
X124708333Y-104407200D01*
X124708333Y-104407200D02*
X124660714Y-104359580D01*
X125613095Y-103454819D02*
X126232142Y-103454819D01*
X126232142Y-103454819D02*
X125898809Y-103835771D01*
X125898809Y-103835771D02*
X126041666Y-103835771D01*
X126041666Y-103835771D02*
X126136904Y-103883390D01*
X126136904Y-103883390D02*
X126184523Y-103931009D01*
X126184523Y-103931009D02*
X126232142Y-104026247D01*
X126232142Y-104026247D02*
X126232142Y-104264342D01*
X126232142Y-104264342D02*
X126184523Y-104359580D01*
X126184523Y-104359580D02*
X126136904Y-104407200D01*
X126136904Y-104407200D02*
X126041666Y-104454819D01*
X126041666Y-104454819D02*
X125755952Y-104454819D01*
X125755952Y-104454819D02*
X125660714Y-104407200D01*
X125660714Y-104407200D02*
X125613095Y-104359580D01*
X126660714Y-103788152D02*
X126660714Y-104454819D01*
X126660714Y-103883390D02*
X126708333Y-103835771D01*
X126708333Y-103835771D02*
X126803571Y-103788152D01*
X126803571Y-103788152D02*
X126946428Y-103788152D01*
X126946428Y-103788152D02*
X127041666Y-103835771D01*
X127041666Y-103835771D02*
X127089285Y-103931009D01*
X127089285Y-103931009D02*
X127089285Y-104454819D01*
X127898809Y-103931009D02*
X127565476Y-103931009D01*
X127565476Y-104454819D02*
X127565476Y-103454819D01*
X127565476Y-103454819D02*
X128041666Y-103454819D01*
X120208333Y-100454819D02*
X119875000Y-99978628D01*
X119636905Y-100454819D02*
X119636905Y-99454819D01*
X119636905Y-99454819D02*
X120017857Y-99454819D01*
X120017857Y-99454819D02*
X120113095Y-99502438D01*
X120113095Y-99502438D02*
X120160714Y-99550057D01*
X120160714Y-99550057D02*
X120208333Y-99645295D01*
X120208333Y-99645295D02*
X120208333Y-99788152D01*
X120208333Y-99788152D02*
X120160714Y-99883390D01*
X120160714Y-99883390D02*
X120113095Y-99931009D01*
X120113095Y-99931009D02*
X120017857Y-99978628D01*
X120017857Y-99978628D02*
X119636905Y-99978628D01*
X120684524Y-100454819D02*
X120875000Y-100454819D01*
X120875000Y-100454819D02*
X120970238Y-100407200D01*
X120970238Y-100407200D02*
X121017857Y-100359580D01*
X121017857Y-100359580D02*
X121113095Y-100216723D01*
X121113095Y-100216723D02*
X121160714Y-100026247D01*
X121160714Y-100026247D02*
X121160714Y-99645295D01*
X121160714Y-99645295D02*
X121113095Y-99550057D01*
X121113095Y-99550057D02*
X121065476Y-99502438D01*
X121065476Y-99502438D02*
X120970238Y-99454819D01*
X120970238Y-99454819D02*
X120779762Y-99454819D01*
X120779762Y-99454819D02*
X120684524Y-99502438D01*
X120684524Y-99502438D02*
X120636905Y-99550057D01*
X120636905Y-99550057D02*
X120589286Y-99645295D01*
X120589286Y-99645295D02*
X120589286Y-99883390D01*
X120589286Y-99883390D02*
X120636905Y-99978628D01*
X120636905Y-99978628D02*
X120684524Y-100026247D01*
X120684524Y-100026247D02*
X120779762Y-100073866D01*
X120779762Y-100073866D02*
X120970238Y-100073866D01*
X120970238Y-100073866D02*
X121065476Y-100026247D01*
X121065476Y-100026247D02*
X121113095Y-99978628D01*
X121113095Y-99978628D02*
X121160714Y-99883390D01*
X125255952Y-100454819D02*
X124684524Y-100454819D01*
X124970238Y-100454819D02*
X124970238Y-99454819D01*
X124970238Y-99454819D02*
X124875000Y-99597676D01*
X124875000Y-99597676D02*
X124779762Y-99692914D01*
X124779762Y-99692914D02*
X124684524Y-99740533D01*
X125684524Y-100454819D02*
X125684524Y-99454819D01*
X125779762Y-100073866D02*
X126065476Y-100454819D01*
X126065476Y-99788152D02*
X125684524Y-100169104D01*
X120208333Y-96454819D02*
X119875000Y-95978628D01*
X119636905Y-96454819D02*
X119636905Y-95454819D01*
X119636905Y-95454819D02*
X120017857Y-95454819D01*
X120017857Y-95454819D02*
X120113095Y-95502438D01*
X120113095Y-95502438D02*
X120160714Y-95550057D01*
X120160714Y-95550057D02*
X120208333Y-95645295D01*
X120208333Y-95645295D02*
X120208333Y-95788152D01*
X120208333Y-95788152D02*
X120160714Y-95883390D01*
X120160714Y-95883390D02*
X120113095Y-95931009D01*
X120113095Y-95931009D02*
X120017857Y-95978628D01*
X120017857Y-95978628D02*
X119636905Y-95978628D01*
X120589286Y-95550057D02*
X120636905Y-95502438D01*
X120636905Y-95502438D02*
X120732143Y-95454819D01*
X120732143Y-95454819D02*
X120970238Y-95454819D01*
X120970238Y-95454819D02*
X121065476Y-95502438D01*
X121065476Y-95502438D02*
X121113095Y-95550057D01*
X121113095Y-95550057D02*
X121160714Y-95645295D01*
X121160714Y-95645295D02*
X121160714Y-95740533D01*
X121160714Y-95740533D02*
X121113095Y-95883390D01*
X121113095Y-95883390D02*
X120541667Y-96454819D01*
X120541667Y-96454819D02*
X121160714Y-96454819D01*
X122755952Y-94854819D02*
X122184524Y-94854819D01*
X122470238Y-94854819D02*
X122470238Y-93854819D01*
X122470238Y-93854819D02*
X122375000Y-93997676D01*
X122375000Y-93997676D02*
X122279762Y-94092914D01*
X122279762Y-94092914D02*
X122184524Y-94140533D01*
X123184524Y-94854819D02*
X123184524Y-93854819D01*
X123279762Y-94473866D02*
X123565476Y-94854819D01*
X123565476Y-94188152D02*
X123184524Y-94569104D01*
X120208333Y-114454819D02*
X119875000Y-113978628D01*
X119636905Y-114454819D02*
X119636905Y-113454819D01*
X119636905Y-113454819D02*
X120017857Y-113454819D01*
X120017857Y-113454819D02*
X120113095Y-113502438D01*
X120113095Y-113502438D02*
X120160714Y-113550057D01*
X120160714Y-113550057D02*
X120208333Y-113645295D01*
X120208333Y-113645295D02*
X120208333Y-113788152D01*
X120208333Y-113788152D02*
X120160714Y-113883390D01*
X120160714Y-113883390D02*
X120113095Y-113931009D01*
X120113095Y-113931009D02*
X120017857Y-113978628D01*
X120017857Y-113978628D02*
X119636905Y-113978628D01*
X121160714Y-114454819D02*
X120589286Y-114454819D01*
X120875000Y-114454819D02*
X120875000Y-113454819D01*
X120875000Y-113454819D02*
X120779762Y-113597676D01*
X120779762Y-113597676D02*
X120684524Y-113692914D01*
X120684524Y-113692914D02*
X120589286Y-113740533D01*
X122755952Y-116054819D02*
X122184524Y-116054819D01*
X122470238Y-116054819D02*
X122470238Y-115054819D01*
X122470238Y-115054819D02*
X122375000Y-115197676D01*
X122375000Y-115197676D02*
X122279762Y-115292914D01*
X122279762Y-115292914D02*
X122184524Y-115340533D01*
X123184524Y-116054819D02*
X123184524Y-115054819D01*
X123279762Y-115673866D02*
X123565476Y-116054819D01*
X123565476Y-115388152D02*
X123184524Y-115769104D01*
X120208333Y-110454819D02*
X119875000Y-109978628D01*
X119636905Y-110454819D02*
X119636905Y-109454819D01*
X119636905Y-109454819D02*
X120017857Y-109454819D01*
X120017857Y-109454819D02*
X120113095Y-109502438D01*
X120113095Y-109502438D02*
X120160714Y-109550057D01*
X120160714Y-109550057D02*
X120208333Y-109645295D01*
X120208333Y-109645295D02*
X120208333Y-109788152D01*
X120208333Y-109788152D02*
X120160714Y-109883390D01*
X120160714Y-109883390D02*
X120113095Y-109931009D01*
X120113095Y-109931009D02*
X120017857Y-109978628D01*
X120017857Y-109978628D02*
X119636905Y-109978628D01*
X120541667Y-109454819D02*
X121208333Y-109454819D01*
X121208333Y-109454819D02*
X120779762Y-110454819D01*
X125255952Y-110454819D02*
X124684524Y-110454819D01*
X124970238Y-110454819D02*
X124970238Y-109454819D01*
X124970238Y-109454819D02*
X124875000Y-109597676D01*
X124875000Y-109597676D02*
X124779762Y-109692914D01*
X124779762Y-109692914D02*
X124684524Y-109740533D01*
X125875000Y-109454819D02*
X125970238Y-109454819D01*
X125970238Y-109454819D02*
X126065476Y-109502438D01*
X126065476Y-109502438D02*
X126113095Y-109550057D01*
X126113095Y-109550057D02*
X126160714Y-109645295D01*
X126160714Y-109645295D02*
X126208333Y-109835771D01*
X126208333Y-109835771D02*
X126208333Y-110073866D01*
X126208333Y-110073866D02*
X126160714Y-110264342D01*
X126160714Y-110264342D02*
X126113095Y-110359580D01*
X126113095Y-110359580D02*
X126065476Y-110407200D01*
X126065476Y-110407200D02*
X125970238Y-110454819D01*
X125970238Y-110454819D02*
X125875000Y-110454819D01*
X125875000Y-110454819D02*
X125779762Y-110407200D01*
X125779762Y-110407200D02*
X125732143Y-110359580D01*
X125732143Y-110359580D02*
X125684524Y-110264342D01*
X125684524Y-110264342D02*
X125636905Y-110073866D01*
X125636905Y-110073866D02*
X125636905Y-109835771D01*
X125636905Y-109835771D02*
X125684524Y-109645295D01*
X125684524Y-109645295D02*
X125732143Y-109550057D01*
X125732143Y-109550057D02*
X125779762Y-109502438D01*
X125779762Y-109502438D02*
X125875000Y-109454819D01*
X126636905Y-110454819D02*
X126636905Y-109454819D01*
X126732143Y-110073866D02*
X127017857Y-110454819D01*
X127017857Y-109788152D02*
X126636905Y-110169104D01*
X70084702Y-99454819D02*
X70084702Y-100169104D01*
X70084702Y-100169104D02*
X70037083Y-100311961D01*
X70037083Y-100311961D02*
X69941845Y-100407200D01*
X69941845Y-100407200D02*
X69798988Y-100454819D01*
X69798988Y-100454819D02*
X69703750Y-100454819D01*
X71084702Y-100454819D02*
X70513274Y-100454819D01*
X70798988Y-100454819D02*
X70798988Y-99454819D01*
X70798988Y-99454819D02*
X70703750Y-99597676D01*
X70703750Y-99597676D02*
X70608512Y-99692914D01*
X70608512Y-99692914D02*
X70513274Y-99740533D01*
X61846607Y-107614700D02*
X62989465Y-107614700D01*
X62418036Y-108186128D02*
X62418036Y-107043271D01*
X61846607Y-102614700D02*
X62989465Y-102614700D01*
D12*
X122637742Y-105477500D02*
X123112258Y-105477500D01*
X122637742Y-106522500D02*
X123112258Y-106522500D01*
X123112258Y-108522500D02*
X122637742Y-108522500D01*
X123112258Y-107477500D02*
X122637742Y-107477500D01*
X123112258Y-102522500D02*
X122637742Y-102522500D01*
X123112258Y-101477500D02*
X122637742Y-101477500D01*
G36*
X88513338Y-100918094D02*
G01*
X88602663Y-100926574D01*
X88691153Y-100942390D01*
X88778224Y-100965478D01*
X88863286Y-100995772D01*
X88945754Y-101033208D01*
X89025041Y-101077722D01*
X89053098Y-101095737D01*
X89123904Y-101146969D01*
X89188564Y-101202297D01*
X89246828Y-101261368D01*
X89298443Y-101323827D01*
X89343159Y-101389322D01*
X89380724Y-101457497D01*
X89410887Y-101528000D01*
X89433397Y-101600476D01*
X89443125Y-101644768D01*
X89445984Y-101665551D01*
X89448175Y-101692354D01*
X89449680Y-101723273D01*
X89450484Y-101756405D01*
X89450571Y-101789845D01*
X89449923Y-101821691D01*
X89448525Y-101850038D01*
X89446359Y-101872982D01*
X89445165Y-101880841D01*
X89428013Y-101958116D01*
X89404513Y-102032397D01*
X89374116Y-102105172D01*
X89336274Y-102177925D01*
X89333685Y-102182442D01*
X89315285Y-102213564D01*
X89295992Y-102244464D01*
X89275327Y-102275772D01*
X89252813Y-102308116D01*
X89227973Y-102342128D01*
X89200329Y-102378435D01*
X89169403Y-102417667D01*
X89134718Y-102460453D01*
X89095795Y-102507422D01*
X89052159Y-102559204D01*
X89011739Y-102606614D01*
X88957180Y-102671252D01*
X88908404Y-102731118D01*
X88865059Y-102786849D01*
X88826794Y-102839081D01*
X88793257Y-102888448D01*
X88764097Y-102935588D01*
X88738961Y-102981136D01*
X88717498Y-103025728D01*
X88699356Y-103069999D01*
X88684183Y-103114586D01*
X88671629Y-103160125D01*
X88661340Y-103207251D01*
X88653249Y-103254698D01*
X88649476Y-103286910D01*
X88646713Y-103325315D01*
X88644956Y-103368051D01*
X88644201Y-103413256D01*
X88644446Y-103459065D01*
X88645686Y-103503616D01*
X88647919Y-103545046D01*
X88651140Y-103581492D01*
X88653904Y-103602548D01*
X88656174Y-103617155D01*
X88742656Y-103621883D01*
X88849908Y-103630540D01*
X88951749Y-103644607D01*
X89049092Y-103664317D01*
X89142854Y-103689901D01*
X89233950Y-103721591D01*
X89323297Y-103759617D01*
X89362734Y-103778638D01*
X89403580Y-103799793D01*
X89442417Y-103821576D01*
X89480352Y-103844748D01*
X89518491Y-103870071D01*
X89557942Y-103898307D01*
X89599811Y-103930219D01*
X89645205Y-103966567D01*
X89691386Y-104004879D01*
X89737387Y-104043395D01*
X89777953Y-104076969D01*
X89813761Y-104106096D01*
X89845485Y-104131266D01*
X89873804Y-104152974D01*
X89899392Y-104171712D01*
X89922926Y-104187972D01*
X89945083Y-104202248D01*
X89966538Y-104215033D01*
X89987968Y-104226818D01*
X90010049Y-104238097D01*
X90014306Y-104240190D01*
X90084396Y-104270023D01*
X90158681Y-104293160D01*
X90236566Y-104309534D01*
X90317453Y-104319075D01*
X90400745Y-104321714D01*
X90485845Y-104317383D01*
X90572157Y-104306013D01*
X90577125Y-104305147D01*
X90683999Y-104282228D01*
X90789097Y-104251509D01*
X90892552Y-104212933D01*
X90994493Y-104166444D01*
X91095052Y-104111984D01*
X91194360Y-104049498D01*
X91237476Y-104019601D01*
X91281511Y-103989370D01*
X91321189Y-103964785D01*
X91357585Y-103945382D01*
X91391772Y-103930694D01*
X91424826Y-103920254D01*
X91457819Y-103913595D01*
X91488941Y-103910414D01*
X91534024Y-103911046D01*
X91576170Y-103918716D01*
X91616012Y-103933686D01*
X91654178Y-103956215D01*
X91691300Y-103986566D01*
X91704593Y-103999521D01*
X91729316Y-104026333D01*
X91750521Y-104053424D01*
X91769972Y-104083286D01*
X91789433Y-104118406D01*
X91791053Y-104121537D01*
X91820485Y-104186230D01*
X91843678Y-104254090D01*
X91860625Y-104325307D01*
X91871316Y-104400071D01*
X91875744Y-104478572D01*
X91873899Y-104561001D01*
X91865774Y-104647548D01*
X91851360Y-104738402D01*
X91830649Y-104833755D01*
X91803632Y-104933796D01*
X91770301Y-105038715D01*
X91747714Y-105102863D01*
X91692267Y-105243310D01*
X91629543Y-105380340D01*
X91559781Y-105513666D01*
X91483221Y-105642998D01*
X91400102Y-105768047D01*
X91310663Y-105888524D01*
X91215144Y-106004140D01*
X91113783Y-106114605D01*
X91006821Y-106219632D01*
X90894497Y-106318930D01*
X90777049Y-106412211D01*
X90654718Y-106499186D01*
X90527742Y-106579565D01*
X90522690Y-106582568D01*
X90392932Y-106654971D01*
X90259594Y-106720540D01*
X90123170Y-106779140D01*
X89984154Y-106830633D01*
X89843039Y-106874886D01*
X89700318Y-106911762D01*
X89556486Y-106941125D01*
X89412035Y-106962840D01*
X89267459Y-106976771D01*
X89123251Y-106982782D01*
X89066291Y-106982943D01*
X89038975Y-106982668D01*
X89012964Y-106982318D01*
X88989906Y-106981923D01*
X88971452Y-106981512D01*
X88959250Y-106981114D01*
X88957936Y-106981050D01*
X88807682Y-106969524D01*
X88660853Y-106950862D01*
X88517582Y-106925110D01*
X88377998Y-106892313D01*
X88242233Y-106852514D01*
X88110415Y-106805760D01*
X87982677Y-106752093D01*
X87859149Y-106691560D01*
X87739961Y-106624205D01*
X87625243Y-106550072D01*
X87557401Y-106501456D01*
X87460539Y-106425135D01*
X87370812Y-106345773D01*
X87288309Y-106263499D01*
X87213117Y-106178438D01*
X87145325Y-106090716D01*
X87085023Y-106000461D01*
X87032298Y-105907798D01*
X86987239Y-105812854D01*
X86949934Y-105715755D01*
X86920473Y-105616628D01*
X86911534Y-105579267D01*
X86903858Y-105543950D01*
X86897673Y-105512677D01*
X86892823Y-105483860D01*
X86889152Y-105455912D01*
X86886504Y-105427245D01*
X86884723Y-105396273D01*
X86883655Y-105361408D01*
X86883142Y-105321063D01*
X86883030Y-105288906D01*
X86883088Y-105247697D01*
X86883432Y-105213081D01*
X86884185Y-105183476D01*
X86885472Y-105157298D01*
X86887418Y-105132967D01*
X86890147Y-105108897D01*
X86893784Y-105083508D01*
X86898453Y-105055216D01*
X86903783Y-105025175D01*
X86926205Y-104923135D01*
X86956406Y-104821059D01*
X86994025Y-104719697D01*
X87038701Y-104619800D01*
X87090073Y-104522121D01*
X87147781Y-104427409D01*
X87211463Y-104336418D01*
X87270159Y-104262396D01*
X87286081Y-104241615D01*
X87305170Y-104213451D01*
X87327351Y-104178028D01*
X87352551Y-104135470D01*
X87380696Y-104085904D01*
X87411711Y-104029452D01*
X87439162Y-103978246D01*
X87498723Y-103861647D01*
X87551476Y-103748957D01*
X87597562Y-103639769D01*
X87637118Y-103533673D01*
X87670283Y-103430261D01*
X87697195Y-103329126D01*
X87717994Y-103229858D01*
X87732817Y-103132051D01*
X87736069Y-103103411D01*
X87738021Y-103078770D01*
X87739466Y-103048123D01*
X87740404Y-103013295D01*
X87740836Y-102976114D01*
X87740764Y-102938406D01*
X87740186Y-102901996D01*
X87739105Y-102868712D01*
X87737519Y-102840379D01*
X87735983Y-102823324D01*
X87730016Y-102777501D01*
X87722555Y-102733497D01*
X87713254Y-102690167D01*
X87701766Y-102646364D01*
X87687744Y-102600944D01*
X87670842Y-102552760D01*
X87650713Y-102500668D01*
X87627010Y-102443523D01*
X87607306Y-102398082D01*
X87594192Y-102368129D01*
X87581297Y-102338387D01*
X87569249Y-102310328D01*
X87558678Y-102285425D01*
X87550212Y-102265150D01*
X87544770Y-102251711D01*
X87529022Y-102211650D01*
X87473751Y-102175714D01*
X87397312Y-102127574D01*
X87317463Y-102080198D01*
X87236617Y-102034947D01*
X87157189Y-101993180D01*
X87098848Y-101964409D01*
X87075418Y-101953080D01*
X87058186Y-101944288D01*
X87045889Y-101937229D01*
X87037261Y-101931095D01*
X87031038Y-101925080D01*
X87025957Y-101918377D01*
X87025412Y-101917561D01*
X87017565Y-101902727D01*
X87013533Y-101886233D01*
X87012506Y-101875254D01*
X87014330Y-101849042D01*
X87023197Y-101826985D01*
X87039112Y-101809072D01*
X87048756Y-101802250D01*
X87056701Y-101798561D01*
X87071924Y-101792689D01*
X87093878Y-101784821D01*
X87122014Y-101775142D01*
X87136813Y-101770189D01*
X88152742Y-101770189D01*
X88152902Y-101787715D01*
X88153440Y-101800514D01*
X88154436Y-101809735D01*
X88155968Y-101816527D01*
X88158114Y-101822042D01*
X88160842Y-101827227D01*
X88174146Y-101843393D01*
X88191925Y-101854574D01*
X88212150Y-101860249D01*
X88232793Y-101859903D01*
X88251825Y-101853015D01*
X88254694Y-101851197D01*
X88263924Y-101844726D01*
X88271086Y-101838671D01*
X88276459Y-101831924D01*
X88280320Y-101823375D01*
X88282947Y-101811916D01*
X88284617Y-101796439D01*
X88285608Y-101775836D01*
X88286198Y-101748997D01*
X88286545Y-101724039D01*
X88286913Y-101693781D01*
X88287077Y-101670572D01*
X88286951Y-101653282D01*
X88286451Y-101640782D01*
X88285489Y-101631943D01*
X88283980Y-101625637D01*
X88281839Y-101620734D01*
X88278980Y-101616106D01*
X88278270Y-101615048D01*
X88262036Y-101597321D01*
X88242444Y-101586142D01*
X88220958Y-101581894D01*
X88199043Y-101584961D01*
X88185699Y-101590809D01*
X88176346Y-101596334D01*
X88169075Y-101601701D01*
X88163606Y-101607983D01*
X88159664Y-101616251D01*
X88156969Y-101627579D01*
X88155247Y-101643041D01*
X88154217Y-101663707D01*
X88153605Y-101690653D01*
X88153242Y-101716355D01*
X88152882Y-101746786D01*
X88152742Y-101770189D01*
X87136813Y-101770189D01*
X87155784Y-101763840D01*
X87194640Y-101751099D01*
X87238033Y-101737106D01*
X87281382Y-101723320D01*
X87321544Y-101710606D01*
X87359323Y-101698604D01*
X87394006Y-101687545D01*
X87424883Y-101677656D01*
X87451239Y-101669167D01*
X87472365Y-101662307D01*
X87487549Y-101657305D01*
X87496077Y-101654390D01*
X87497708Y-101653734D01*
X87499549Y-101649424D01*
X87503436Y-101638739D01*
X87508878Y-101623077D01*
X87515383Y-101603838D01*
X87518773Y-101593642D01*
X87550445Y-101509460D01*
X87588173Y-101430512D01*
X87632378Y-101356115D01*
X87683478Y-101285583D01*
X87741890Y-101218231D01*
X87758991Y-101200481D01*
X87822554Y-101140981D01*
X87888763Y-101089052D01*
X87958073Y-101044390D01*
X88030941Y-101006686D01*
X88074743Y-100987993D01*
X88159435Y-100958824D01*
X88246227Y-100937314D01*
X88334533Y-100923399D01*
X88423766Y-100917014D01*
X88513338Y-100918094D01*
G37*
X123112258Y-98522500D02*
X122637742Y-98522500D01*
X123112258Y-97477500D02*
X122637742Y-97477500D01*
X73103036Y-109312349D02*
X73103036Y-108512349D01*
X72703036Y-108912349D02*
X73503036Y-108912349D01*
X71338036Y-104902651D02*
X79498036Y-104902651D01*
X71338036Y-104862651D02*
X79498036Y-104862651D01*
X71338036Y-104822651D02*
X79498036Y-104822651D01*
X71339036Y-104782651D02*
X79497036Y-104782651D01*
X71341036Y-104742651D02*
X79495036Y-104742651D01*
X71342036Y-104702651D02*
X79494036Y-104702651D01*
X71344036Y-104662651D02*
X79492036Y-104662651D01*
X71347036Y-104622651D02*
X79489036Y-104622651D01*
X71350036Y-104582651D02*
X79486036Y-104582651D01*
X71353036Y-104542651D02*
X79483036Y-104542651D01*
X71357036Y-104502651D02*
X79479036Y-104502651D01*
X71361036Y-104462651D02*
X79475036Y-104462651D01*
X71366036Y-104422651D02*
X79470036Y-104422651D01*
X71370036Y-104382651D02*
X79466036Y-104382651D01*
X71376036Y-104342651D02*
X79460036Y-104342651D01*
X71381036Y-104302651D02*
X79455036Y-104302651D01*
X71388036Y-104262651D02*
X79448036Y-104262651D01*
X71394036Y-104222651D02*
X79442036Y-104222651D01*
X71401036Y-104181651D02*
X74378036Y-104181651D01*
X76458036Y-104181651D02*
X79435036Y-104181651D01*
X71408036Y-104141651D02*
X74378036Y-104141651D01*
X76458036Y-104141651D02*
X79428036Y-104141651D01*
X71416036Y-104101651D02*
X74378036Y-104101651D01*
X76458036Y-104101651D02*
X79420036Y-104101651D01*
X71424036Y-104061651D02*
X74378036Y-104061651D01*
X76458036Y-104061651D02*
X79412036Y-104061651D01*
X71433036Y-104021651D02*
X74378036Y-104021651D01*
X76458036Y-104021651D02*
X79403036Y-104021651D01*
X71442036Y-103981651D02*
X74378036Y-103981651D01*
X76458036Y-103981651D02*
X79394036Y-103981651D01*
X71451036Y-103941651D02*
X74378036Y-103941651D01*
X76458036Y-103941651D02*
X79385036Y-103941651D01*
X71461036Y-103901651D02*
X74378036Y-103901651D01*
X76458036Y-103901651D02*
X79375036Y-103901651D01*
X71471036Y-103861651D02*
X74378036Y-103861651D01*
X76458036Y-103861651D02*
X79365036Y-103861651D01*
X71482036Y-103821651D02*
X74378036Y-103821651D01*
X76458036Y-103821651D02*
X79354036Y-103821651D01*
X71493036Y-103781651D02*
X74378036Y-103781651D01*
X76458036Y-103781651D02*
X79343036Y-103781651D01*
X71504036Y-103741651D02*
X74378036Y-103741651D01*
X76458036Y-103741651D02*
X79332036Y-103741651D01*
X71516036Y-103701651D02*
X74378036Y-103701651D01*
X76458036Y-103701651D02*
X79320036Y-103701651D01*
X71529036Y-103661651D02*
X74378036Y-103661651D01*
X76458036Y-103661651D02*
X79307036Y-103661651D01*
X71541036Y-103621651D02*
X74378036Y-103621651D01*
X76458036Y-103621651D02*
X79295036Y-103621651D01*
X71555036Y-103581651D02*
X74378036Y-103581651D01*
X76458036Y-103581651D02*
X79281036Y-103581651D01*
X71568036Y-103541651D02*
X74378036Y-103541651D01*
X76458036Y-103541651D02*
X79268036Y-103541651D01*
X71583036Y-103501651D02*
X74378036Y-103501651D01*
X76458036Y-103501651D02*
X79253036Y-103501651D01*
X71597036Y-103461651D02*
X74378036Y-103461651D01*
X76458036Y-103461651D02*
X79239036Y-103461651D01*
X71613036Y-103421651D02*
X74378036Y-103421651D01*
X76458036Y-103421651D02*
X79223036Y-103421651D01*
X71628036Y-103381651D02*
X74378036Y-103381651D01*
X76458036Y-103381651D02*
X79208036Y-103381651D01*
X71644036Y-103341651D02*
X74378036Y-103341651D01*
X76458036Y-103341651D02*
X79192036Y-103341651D01*
X71661036Y-103301651D02*
X74378036Y-103301651D01*
X76458036Y-103301651D02*
X79175036Y-103301651D01*
X71678036Y-103261651D02*
X74378036Y-103261651D01*
X76458036Y-103261651D02*
X79158036Y-103261651D01*
X71696036Y-103221651D02*
X74378036Y-103221651D01*
X76458036Y-103221651D02*
X79140036Y-103221651D01*
X71714036Y-103181651D02*
X74378036Y-103181651D01*
X76458036Y-103181651D02*
X79122036Y-103181651D01*
X71732036Y-103141651D02*
X74378036Y-103141651D01*
X76458036Y-103141651D02*
X79104036Y-103141651D01*
X71752036Y-103101651D02*
X74378036Y-103101651D01*
X76458036Y-103101651D02*
X79084036Y-103101651D01*
X71771036Y-103061651D02*
X74378036Y-103061651D01*
X76458036Y-103061651D02*
X79065036Y-103061651D01*
X71791036Y-103021651D02*
X74378036Y-103021651D01*
X76458036Y-103021651D02*
X79045036Y-103021651D01*
X71812036Y-102981651D02*
X74378036Y-102981651D01*
X76458036Y-102981651D02*
X79024036Y-102981651D01*
X71834036Y-102941651D02*
X74378036Y-102941651D01*
X76458036Y-102941651D02*
X79002036Y-102941651D01*
X71856036Y-102901651D02*
X74378036Y-102901651D01*
X76458036Y-102901651D02*
X78980036Y-102901651D01*
X71878036Y-102861651D02*
X74378036Y-102861651D01*
X76458036Y-102861651D02*
X78958036Y-102861651D01*
X71901036Y-102821651D02*
X74378036Y-102821651D01*
X76458036Y-102821651D02*
X78935036Y-102821651D01*
X71925036Y-102781651D02*
X74378036Y-102781651D01*
X76458036Y-102781651D02*
X78911036Y-102781651D01*
X71949036Y-102741651D02*
X74378036Y-102741651D01*
X76458036Y-102741651D02*
X78887036Y-102741651D01*
X71974036Y-102701651D02*
X74378036Y-102701651D01*
X76458036Y-102701651D02*
X78862036Y-102701651D01*
X72000036Y-102661651D02*
X74378036Y-102661651D01*
X76458036Y-102661651D02*
X78836036Y-102661651D01*
X72026036Y-102621651D02*
X74378036Y-102621651D01*
X76458036Y-102621651D02*
X78810036Y-102621651D01*
X72053036Y-102581651D02*
X74378036Y-102581651D01*
X76458036Y-102581651D02*
X78783036Y-102581651D01*
X72080036Y-102541651D02*
X74378036Y-102541651D01*
X76458036Y-102541651D02*
X78756036Y-102541651D01*
X72109036Y-102501651D02*
X74378036Y-102501651D01*
X76458036Y-102501651D02*
X78727036Y-102501651D01*
X72138036Y-102461651D02*
X74378036Y-102461651D01*
X76458036Y-102461651D02*
X78698036Y-102461651D01*
X72168036Y-102421651D02*
X74378036Y-102421651D01*
X76458036Y-102421651D02*
X78668036Y-102421651D01*
X72198036Y-102381651D02*
X74378036Y-102381651D01*
X76458036Y-102381651D02*
X78638036Y-102381651D01*
X72229036Y-102341651D02*
X74378036Y-102341651D01*
X76458036Y-102341651D02*
X78607036Y-102341651D01*
X72262036Y-102301651D02*
X74378036Y-102301651D01*
X76458036Y-102301651D02*
X78574036Y-102301651D01*
X72294036Y-102261651D02*
X74378036Y-102261651D01*
X76458036Y-102261651D02*
X78542036Y-102261651D01*
X72328036Y-102221651D02*
X74378036Y-102221651D01*
X76458036Y-102221651D02*
X78508036Y-102221651D01*
X72363036Y-102181651D02*
X74378036Y-102181651D01*
X76458036Y-102181651D02*
X78473036Y-102181651D01*
X72399036Y-102141651D02*
X74378036Y-102141651D01*
X76458036Y-102141651D02*
X78437036Y-102141651D01*
X72435036Y-102101651D02*
X78401036Y-102101651D01*
X72473036Y-102061651D02*
X78363036Y-102061651D01*
X72511036Y-102021651D02*
X78325036Y-102021651D01*
X72551036Y-101981651D02*
X78285036Y-101981651D01*
X72592036Y-101941651D02*
X78244036Y-101941651D01*
X72634036Y-101901651D02*
X78202036Y-101901651D01*
X72677036Y-101861651D02*
X78159036Y-101861651D01*
X72721036Y-101821651D02*
X78115036Y-101821651D01*
X72767036Y-101781651D02*
X78069036Y-101781651D01*
X72814036Y-101741651D02*
X78022036Y-101741651D01*
X72862036Y-101701651D02*
X77974036Y-101701651D01*
X72913036Y-101661651D02*
X77923036Y-101661651D01*
X72964036Y-101621651D02*
X77872036Y-101621651D01*
X73018036Y-101581651D02*
X77818036Y-101581651D01*
X73073036Y-101541651D02*
X77763036Y-101541651D01*
X73131036Y-101501651D02*
X77705036Y-101501651D01*
X73190036Y-101461651D02*
X77646036Y-101461651D01*
X73252036Y-101421651D02*
X77584036Y-101421651D01*
X73316036Y-101381651D02*
X77520036Y-101381651D01*
X73384036Y-101341651D02*
X77452036Y-101341651D01*
X73454036Y-101301651D02*
X77382036Y-101301651D01*
X73528036Y-101261651D02*
X77308036Y-101261651D01*
X73605036Y-101221651D02*
X77231036Y-101221651D01*
X73687036Y-101181651D02*
X77149036Y-101181651D01*
X73773036Y-101141651D02*
X77063036Y-101141651D01*
X73866036Y-101101651D02*
X76970036Y-101101651D01*
X73965036Y-101061651D02*
X76871036Y-101061651D01*
X74072036Y-101021651D02*
X76764036Y-101021651D01*
X74189036Y-100981651D02*
X76647036Y-100981651D01*
X74320036Y-100941651D02*
X76516036Y-100941651D01*
X74470036Y-100901651D02*
X76366036Y-100901651D01*
X74650036Y-100861651D02*
X76186036Y-100861651D01*
X74885036Y-100821651D02*
X75951036Y-100821651D01*
X79538036Y-104902651D02*
G75*
G03*
X79538036Y-104902651I-4120000J0D01*
G01*
X117475000Y-113700000D02*
X117475000Y-112500000D01*
X117475000Y-112500000D02*
X119175000Y-112500000D01*
X117475000Y-96300000D02*
X117475000Y-97500000D01*
X117375000Y-113700000D02*
X117475000Y-113700000D01*
X101375000Y-113700000D02*
X117375000Y-113700000D01*
X101375000Y-113700000D02*
X101275000Y-113700000D01*
X101375000Y-96300000D02*
X117475000Y-96300000D01*
X101375000Y-96300000D02*
X101275000Y-96300000D01*
X101275000Y-113700000D02*
X101275000Y-112500000D01*
X101275000Y-96300000D02*
X101275000Y-97500000D01*
X123112258Y-112522500D02*
X122637742Y-112522500D01*
X123112258Y-111477500D02*
X122637742Y-111477500D01*
X123015580Y-104510000D02*
X122734420Y-104510000D01*
X123015580Y-103490000D02*
X122734420Y-103490000D01*
X123112258Y-100522500D02*
X122637742Y-100522500D01*
X123112258Y-99477500D02*
X122637742Y-99477500D01*
X123112258Y-96522500D02*
X122637742Y-96522500D01*
X123112258Y-95477500D02*
X122637742Y-95477500D01*
X123112258Y-114522500D02*
X122637742Y-114522500D01*
X123112258Y-113477500D02*
X122637742Y-113477500D01*
X123112258Y-110522500D02*
X122637742Y-110522500D01*
X123112258Y-109477500D02*
X122637742Y-109477500D01*
X68328036Y-99790000D02*
X65508036Y-99790000D01*
X68328036Y-99790000D02*
X69628036Y-101490000D01*
X65508036Y-99790000D02*
X64208036Y-101490000D01*
X69628036Y-101490000D02*
X69628036Y-110210000D01*
X64208036Y-101490000D02*
X64208036Y-110210000D01*
X69628036Y-110210000D02*
X64208036Y-110210000D01*
%LPC*%
D13*
X127000000Y-93000000D03*
D14*
X122050000Y-106000000D03*
X123700000Y-106000000D03*
D13*
X127000000Y-117000000D03*
D15*
X123700000Y-108000000D03*
X122050000Y-108000000D03*
X123700000Y-102000000D03*
X122050000Y-102000000D03*
X123700000Y-98000000D03*
X122050000Y-98000000D03*
D16*
X75418036Y-106652651D03*
D17*
X75418036Y-103152651D03*
D18*
X118500000Y-112000000D03*
X118500000Y-111000000D03*
X118500000Y-110000000D03*
X118500000Y-109000000D03*
X118500000Y-108000000D03*
X118500000Y-107000000D03*
X118500000Y-106000000D03*
X118500000Y-105000000D03*
X118500000Y-104000000D03*
X118500000Y-103000000D03*
X118500000Y-102000000D03*
X118500000Y-101000000D03*
X118500000Y-100000000D03*
X118500000Y-99000000D03*
X118500000Y-98000000D03*
X100250000Y-98000000D03*
X100250000Y-99000000D03*
X100250000Y-100000000D03*
X100250000Y-101000000D03*
X100250000Y-102000000D03*
X100250000Y-103000000D03*
X100250000Y-104000000D03*
X100250000Y-105000000D03*
X100250000Y-106000000D03*
X100250000Y-107000000D03*
X100250000Y-108000000D03*
X100250000Y-109000000D03*
X100250000Y-110000000D03*
X100250000Y-111000000D03*
X100250000Y-112000000D03*
D19*
X112425000Y-105000000D03*
D20*
X106325000Y-100835000D03*
X106325000Y-109165000D03*
D15*
X123700000Y-112000000D03*
X122050000Y-112000000D03*
D21*
X123650000Y-104000000D03*
X122100000Y-104000000D03*
D15*
X123700000Y-100000000D03*
X122050000Y-100000000D03*
X123700000Y-96000000D03*
X122050000Y-96000000D03*
X123700000Y-114000000D03*
X122050000Y-114000000D03*
X123700000Y-110000000D03*
X122050000Y-110000000D03*
D22*
X66918036Y-102500000D03*
D23*
X66918036Y-107500000D03*
%LPD*%
M02*
