G04 #@! TF.GenerationSoftware,KiCad,Pcbnew,7.0.9*
G04 #@! TF.CreationDate,2023-12-19T12:33:16+08:00*
G04 #@! TF.ProjectId,vnh5019,766e6835-3031-4392-9e6b-696361645f70,rev?*
G04 #@! TF.SameCoordinates,Original*
G04 #@! TF.FileFunction,Copper,L1,Top*
G04 #@! TF.FilePolarity,Positive*
%FSLAX46Y46*%
G04 Gerber Fmt 4.6, Leading zero omitted, Abs format (unit mm)*
G04 Created by KiCad (PCBNEW 7.0.9) date 2023-12-19 12:33:16*
%MOMM*%
%LPD*%
G01*
G04 APERTURE LIST*
G04 Aperture macros list*
%AMRoundRect*
0 Rectangle with rounded corners*
0 $1 Rounding radius*
0 $2 $3 $4 $5 $6 $7 $8 $9 X,Y pos of 4 corners*
0 Add a 4 corners polygon primitive as box body*
4,1,4,$2,$3,$4,$5,$6,$7,$8,$9,$2,$3,0*
0 Add four circle primitives for the rounded corners*
1,1,$1+$1,$2,$3*
1,1,$1+$1,$4,$5*
1,1,$1+$1,$6,$7*
1,1,$1+$1,$8,$9*
0 Add four rect primitives between the rounded corners*
20,1,$1+$1,$2,$3,$4,$5,0*
20,1,$1+$1,$4,$5,$6,$7,0*
20,1,$1+$1,$6,$7,$8,$9,0*
20,1,$1+$1,$8,$9,$2,$3,0*%
G04 Aperture macros list end*
G04 #@! TA.AperFunction,ComponentPad*
%ADD10C,6.400000*%
G04 #@! TD*
G04 #@! TA.AperFunction,SMDPad,CuDef*
%ADD11RoundRect,0.200000X-0.200000X-0.275000X0.200000X-0.275000X0.200000X0.275000X-0.200000X0.275000X0*%
G04 #@! TD*
G04 #@! TA.AperFunction,SMDPad,CuDef*
%ADD12RoundRect,0.200000X0.200000X0.275000X-0.200000X0.275000X-0.200000X-0.275000X0.200000X-0.275000X0*%
G04 #@! TD*
G04 #@! TA.AperFunction,ComponentPad*
%ADD13R,1.600000X1.600000*%
G04 #@! TD*
G04 #@! TA.AperFunction,ComponentPad*
%ADD14C,1.600000*%
G04 #@! TD*
G04 #@! TA.AperFunction,SMDPad,CuDef*
%ADD15R,1.350000X0.660000*%
G04 #@! TD*
G04 #@! TA.AperFunction,SMDPad,CuDef*
%ADD16R,5.250000X10.300000*%
G04 #@! TD*
G04 #@! TA.AperFunction,SMDPad,CuDef*
%ADD17R,5.250000X6.230000*%
G04 #@! TD*
G04 #@! TA.AperFunction,SMDPad,CuDef*
%ADD18RoundRect,0.225000X0.225000X0.250000X-0.225000X0.250000X-0.225000X-0.250000X0.225000X-0.250000X0*%
G04 #@! TD*
G04 #@! TA.AperFunction,ComponentPad*
%ADD19R,3.000000X3.000000*%
G04 #@! TD*
G04 #@! TA.AperFunction,ComponentPad*
%ADD20C,3.000000*%
G04 #@! TD*
G04 #@! TA.AperFunction,ViaPad*
%ADD21C,0.800000*%
G04 #@! TD*
G04 #@! TA.AperFunction,Conductor*
%ADD22C,0.750000*%
G04 #@! TD*
G04 #@! TA.AperFunction,Conductor*
%ADD23C,0.250000*%
G04 #@! TD*
G04 APERTURE END LIST*
D10*
X127000000Y-93000000D03*
D11*
X122050000Y-106000000D03*
X123700000Y-106000000D03*
D10*
X127000000Y-117000000D03*
D12*
X123700000Y-108000000D03*
X122050000Y-108000000D03*
X123700000Y-102000000D03*
X122050000Y-102000000D03*
X123700000Y-98000000D03*
X122050000Y-98000000D03*
D13*
X75418036Y-106652651D03*
D14*
X75418036Y-103152651D03*
D15*
X118500000Y-112000000D03*
X118500000Y-111000000D03*
X118500000Y-110000000D03*
X118500000Y-109000000D03*
X118500000Y-108000000D03*
X118500000Y-107000000D03*
X118500000Y-106000000D03*
X118500000Y-105000000D03*
X118500000Y-104000000D03*
X118500000Y-103000000D03*
X118500000Y-102000000D03*
X118500000Y-101000000D03*
X118500000Y-100000000D03*
X118500000Y-99000000D03*
X118500000Y-98000000D03*
X100250000Y-98000000D03*
X100250000Y-99000000D03*
X100250000Y-100000000D03*
X100250000Y-101000000D03*
X100250000Y-102000000D03*
X100250000Y-103000000D03*
X100250000Y-104000000D03*
X100250000Y-105000000D03*
X100250000Y-106000000D03*
X100250000Y-107000000D03*
X100250000Y-108000000D03*
X100250000Y-109000000D03*
X100250000Y-110000000D03*
X100250000Y-111000000D03*
X100250000Y-112000000D03*
D16*
X112425000Y-105000000D03*
D17*
X106325000Y-100835000D03*
X106325000Y-109165000D03*
D12*
X123700000Y-112000000D03*
X122050000Y-112000000D03*
D18*
X123650000Y-104000000D03*
X122100000Y-104000000D03*
D12*
X123700000Y-100000000D03*
X122050000Y-100000000D03*
X123700000Y-96000000D03*
X122050000Y-96000000D03*
X123700000Y-114000000D03*
X122050000Y-114000000D03*
X123700000Y-110000000D03*
X122050000Y-110000000D03*
D19*
X66918036Y-102500000D03*
D20*
X66918036Y-107500000D03*
D21*
X112500000Y-115250000D03*
X114500000Y-116250000D03*
X116500000Y-93750000D03*
X113500000Y-117250000D03*
X115500000Y-116250000D03*
X116500000Y-91750000D03*
X113500000Y-116250000D03*
X113500000Y-92750000D03*
X114500000Y-93750000D03*
X114500000Y-94750000D03*
X115500000Y-118250000D03*
X115500000Y-117250000D03*
X112500000Y-91750000D03*
X112500000Y-116250000D03*
X115500000Y-93750000D03*
X111500000Y-118250000D03*
X112500000Y-118250000D03*
X111500000Y-94750000D03*
X116500000Y-94750000D03*
X116500000Y-92750000D03*
X112500000Y-94750000D03*
X111500000Y-93750000D03*
X113500000Y-118250000D03*
X111500000Y-115250000D03*
X116500000Y-116250000D03*
X113500000Y-115250000D03*
X114500000Y-92750000D03*
X114500000Y-115250000D03*
X115500000Y-94750000D03*
X115500000Y-92750000D03*
X114500000Y-91750000D03*
X112500000Y-93750000D03*
X113500000Y-91750000D03*
X111500000Y-92750000D03*
X116500000Y-115250000D03*
X113500000Y-94750000D03*
X114500000Y-118250000D03*
X115500000Y-115250000D03*
X111500000Y-117250000D03*
X111500000Y-116250000D03*
X111500000Y-91750000D03*
X112500000Y-117250000D03*
X116500000Y-117250000D03*
X113500000Y-93750000D03*
X112500000Y-92750000D03*
X116500000Y-118250000D03*
X115500000Y-91750000D03*
X114500000Y-117250000D03*
X97500000Y-102000000D03*
X98500000Y-103000000D03*
X98500000Y-100000000D03*
X95500000Y-104000000D03*
X95500000Y-101000000D03*
X95500000Y-103000000D03*
X97500000Y-100000000D03*
X97500000Y-103000000D03*
X98500000Y-102000000D03*
X98500000Y-104000000D03*
X98500000Y-101000000D03*
X96500000Y-104000000D03*
X95500000Y-100000000D03*
X96500000Y-100000000D03*
X125000000Y-110000000D03*
X101500000Y-96200500D03*
X95500000Y-102000000D03*
X97500000Y-104000000D03*
X96500000Y-102000000D03*
X96500000Y-103000000D03*
X96500000Y-101000000D03*
X97500000Y-101000000D03*
X120299500Y-96200500D03*
X124250000Y-101000000D03*
X123000000Y-113000000D03*
X123000000Y-99000000D03*
X124750000Y-112500000D03*
X123000000Y-96925500D03*
X125250000Y-105000000D03*
X86000000Y-107000000D03*
X84000000Y-107000000D03*
X111250000Y-113500000D03*
X116000000Y-113500000D03*
X116875000Y-102000000D03*
X116875000Y-101000000D03*
X116000000Y-98000000D03*
X86000000Y-103000000D03*
X111250000Y-98000000D03*
D22*
X112425000Y-105000000D02*
X100250000Y-105000000D01*
D23*
X122975000Y-100725000D02*
X123700000Y-100000000D01*
X122100000Y-104000000D02*
X122975000Y-103125000D01*
X123700000Y-110000000D02*
X122975000Y-109275000D01*
X123700000Y-110000000D02*
X125000000Y-110000000D01*
X122975000Y-106925000D02*
X122050000Y-106000000D01*
X100250000Y-102000000D02*
X100250000Y-101000000D01*
X122975000Y-109275000D02*
X122975000Y-106925000D01*
X100500000Y-110000000D02*
X100500000Y-109000000D01*
X100500000Y-109000000D02*
X100500000Y-108000000D01*
X100250000Y-101000000D02*
X100250000Y-100000000D01*
X122100000Y-105950000D02*
X122050000Y-106000000D01*
X122100000Y-104000000D02*
X122100000Y-105950000D01*
X101500000Y-96200500D02*
X120299502Y-96200500D01*
X122975000Y-103125000D02*
X122975000Y-100725000D01*
X123650000Y-102050000D02*
X123700000Y-102000000D01*
X124250000Y-101000000D02*
X123700000Y-101550000D01*
X123700000Y-101550000D02*
X123700000Y-102000000D01*
X123650000Y-104000000D02*
X123650000Y-102050000D01*
X123700000Y-113700000D02*
X123700000Y-114000000D01*
X123000000Y-113000000D02*
X123700000Y-113700000D01*
X123700000Y-98000000D02*
X123700000Y-98300000D01*
X124250000Y-112000000D02*
X123700000Y-112000000D01*
X124750000Y-112500000D02*
X124250000Y-112000000D01*
X123700000Y-98300000D02*
X123000000Y-99000000D01*
X123000000Y-96925500D02*
X123700000Y-96225500D01*
X123700000Y-96225500D02*
X123700000Y-96000000D01*
X119425000Y-109000000D02*
X120875000Y-110450000D01*
X120875000Y-110450000D02*
X120875000Y-112825000D01*
X120875000Y-112825000D02*
X122050000Y-114000000D01*
X118500000Y-109000000D02*
X119425000Y-109000000D01*
X124700000Y-105000000D02*
X123700000Y-106000000D01*
X123700000Y-106000000D02*
X123700000Y-108000000D01*
X125250000Y-105000000D02*
X124700000Y-105000000D01*
X120875000Y-101550000D02*
X120875000Y-97175000D01*
X118500000Y-103000000D02*
X119425000Y-103000000D01*
X120875000Y-97175000D02*
X122050000Y-96000000D01*
X119425000Y-103000000D02*
X120875000Y-101550000D01*
X122050000Y-107675000D02*
X120375000Y-106000000D01*
X122050000Y-108000000D02*
X122050000Y-107675000D01*
X120375000Y-106000000D02*
X118500000Y-106000000D01*
X121325000Y-111275000D02*
X121325000Y-109586396D01*
X121325000Y-109586396D02*
X119738604Y-108000000D01*
X122050000Y-112000000D02*
X121325000Y-111275000D01*
X119738604Y-108000000D02*
X118500000Y-108000000D01*
X118500000Y-104000000D02*
X119425000Y-104000000D01*
X121325000Y-102100000D02*
X121325000Y-98725000D01*
X121325000Y-98725000D02*
X122050000Y-98000000D01*
X119425000Y-104000000D02*
X121325000Y-102100000D01*
X122050000Y-109311396D02*
X122050000Y-110000000D01*
X119738604Y-107000000D02*
X122050000Y-109311396D01*
X118500000Y-107000000D02*
X119738604Y-107000000D01*
X122050000Y-102000000D02*
X122050000Y-100000000D01*
X119425000Y-105000000D02*
X122050000Y-102375000D01*
X118500000Y-105000000D02*
X119425000Y-105000000D01*
X122050000Y-102375000D02*
X122050000Y-102000000D01*
X111250000Y-113500000D02*
X110660000Y-113500000D01*
X118250000Y-112000000D02*
X116750000Y-113500000D01*
X110660000Y-113500000D02*
X106325000Y-109165000D01*
X118500000Y-112000000D02*
X118250000Y-112000000D01*
X116750000Y-113500000D02*
X116000000Y-113500000D01*
X118500000Y-102000000D02*
X116875000Y-102000000D01*
X118500000Y-101000000D02*
X116875000Y-101000000D01*
X111250000Y-98000000D02*
X109160000Y-98000000D01*
X109160000Y-98000000D02*
X106325000Y-100835000D01*
X116000000Y-98000000D02*
X118500000Y-98000000D01*
G04 #@! TA.AperFunction,Conductor*
G36*
X109192121Y-91120502D02*
G01*
X109238614Y-91174158D01*
X109250000Y-91226500D01*
X109250000Y-95441000D01*
X109229998Y-95509121D01*
X109176342Y-95555614D01*
X109124000Y-95567000D01*
X102208200Y-95567000D01*
X102140079Y-95546998D01*
X102114563Y-95525310D01*
X102111252Y-95521633D01*
X101956752Y-95409382D01*
X101782288Y-95331706D01*
X101595487Y-95292000D01*
X101404513Y-95292000D01*
X101217711Y-95331706D01*
X101043247Y-95409382D01*
X100888744Y-95521635D01*
X100760965Y-95663548D01*
X100760958Y-95663558D01*
X100665476Y-95828938D01*
X100665473Y-95828945D01*
X100606457Y-96010572D01*
X100586496Y-96200500D01*
X100606457Y-96390427D01*
X100636526Y-96482970D01*
X100665473Y-96572056D01*
X100665476Y-96572061D01*
X100760958Y-96737441D01*
X100760965Y-96737451D01*
X100888744Y-96879364D01*
X100888747Y-96879366D01*
X101043248Y-96991618D01*
X101217712Y-97069294D01*
X101404513Y-97109000D01*
X101595487Y-97109000D01*
X101782288Y-97069294D01*
X101956752Y-96991618D01*
X102111253Y-96879366D01*
X102114563Y-96875690D01*
X102175009Y-96838450D01*
X102208200Y-96834000D01*
X109124000Y-96834000D01*
X109192121Y-96854002D01*
X109238614Y-96907658D01*
X109250000Y-96960000D01*
X109250000Y-103990500D01*
X109229998Y-104058621D01*
X109176342Y-104105114D01*
X109124000Y-104116500D01*
X101559500Y-104116500D01*
X101491379Y-104096498D01*
X101444886Y-104042842D01*
X101433500Y-103990500D01*
X101433500Y-103621367D01*
X101433499Y-103621350D01*
X101426990Y-103560803D01*
X101426988Y-103560795D01*
X101391230Y-103464926D01*
X101375889Y-103423796D01*
X101375888Y-103423794D01*
X101375887Y-103423792D01*
X101288261Y-103306738D01*
X101171207Y-103219112D01*
X101171202Y-103219110D01*
X101034204Y-103168011D01*
X101034196Y-103168009D01*
X100973649Y-103161500D01*
X100973638Y-103161500D01*
X99706000Y-103161500D01*
X99637879Y-103141498D01*
X99591386Y-103087842D01*
X99580000Y-103035500D01*
X99580000Y-102964500D01*
X99600002Y-102896379D01*
X99653658Y-102849886D01*
X99706000Y-102838500D01*
X100973632Y-102838500D01*
X100973638Y-102838500D01*
X100973645Y-102838499D01*
X100973649Y-102838499D01*
X101034196Y-102831990D01*
X101034199Y-102831989D01*
X101034201Y-102831989D01*
X101171204Y-102780889D01*
X101288261Y-102693261D01*
X101288260Y-102693261D01*
X101295476Y-102687860D01*
X101296448Y-102689159D01*
X101340002Y-102663314D01*
X101389657Y-102648735D01*
X101512612Y-102569717D01*
X101565011Y-102524313D01*
X101566101Y-102523418D01*
X101589944Y-102495901D01*
X101661982Y-102412764D01*
X101722698Y-102279815D01*
X101742700Y-102211694D01*
X101763500Y-102067025D01*
X101763500Y-99919220D01*
X101762028Y-99891752D01*
X101757677Y-99851292D01*
X101748883Y-99797027D01*
X101697803Y-99660086D01*
X101663777Y-99597775D01*
X101576194Y-99480779D01*
X101541258Y-99454626D01*
X101483991Y-99411756D01*
X101441444Y-99354920D01*
X101433500Y-99310888D01*
X101433500Y-98621367D01*
X101433499Y-98621350D01*
X101426990Y-98560803D01*
X101426988Y-98560795D01*
X101375889Y-98423797D01*
X101375887Y-98423792D01*
X101288261Y-98306738D01*
X101171207Y-98219112D01*
X101171202Y-98219110D01*
X101034204Y-98168011D01*
X101034196Y-98168009D01*
X100973649Y-98161500D01*
X100973638Y-98161500D01*
X99526362Y-98161500D01*
X99526350Y-98161500D01*
X99465803Y-98168009D01*
X99465795Y-98168011D01*
X99328797Y-98219110D01*
X99328792Y-98219112D01*
X99211738Y-98306738D01*
X99124112Y-98423792D01*
X99124110Y-98423797D01*
X99073011Y-98560795D01*
X99073009Y-98560803D01*
X99066500Y-98621350D01*
X99066500Y-98860500D01*
X99046498Y-98928621D01*
X98992842Y-98975114D01*
X98940500Y-98986500D01*
X95125990Y-98986500D01*
X95037267Y-98996039D01*
X95016851Y-98998234D01*
X95016848Y-98998234D01*
X95016844Y-98998235D01*
X95016840Y-98998235D01*
X94964519Y-99009617D01*
X94964498Y-99009623D01*
X94860345Y-99044288D01*
X94737385Y-99123310D01*
X94685019Y-99168685D01*
X94683904Y-99169599D01*
X94588019Y-99280258D01*
X94588017Y-99280261D01*
X94527301Y-99413210D01*
X94507302Y-99481322D01*
X94507300Y-99481329D01*
X94498980Y-99539198D01*
X94489685Y-99603852D01*
X94486500Y-99626003D01*
X94486500Y-104524000D01*
X94466498Y-104592121D01*
X94412842Y-104638614D01*
X94360500Y-104650000D01*
X75842573Y-104650000D01*
X75774452Y-104629998D01*
X75727959Y-104576342D01*
X75717855Y-104506068D01*
X75747349Y-104441488D01*
X75807075Y-104403104D01*
X75809950Y-104402296D01*
X75867279Y-104386935D01*
X76074785Y-104290174D01*
X76262336Y-104158849D01*
X76424234Y-103996951D01*
X76555559Y-103809400D01*
X76652320Y-103601894D01*
X76711579Y-103380738D01*
X76731534Y-103152651D01*
X76711579Y-102924564D01*
X76652320Y-102703408D01*
X76555559Y-102495902D01*
X76424234Y-102308351D01*
X76262336Y-102146453D01*
X76164065Y-102077643D01*
X76074785Y-102015128D01*
X75867282Y-101918368D01*
X75867276Y-101918366D01*
X75773807Y-101893321D01*
X75646123Y-101859108D01*
X75418036Y-101839153D01*
X75189949Y-101859108D01*
X74968795Y-101918366D01*
X74968789Y-101918368D01*
X74761286Y-102015128D01*
X74573739Y-102146450D01*
X74573733Y-102146455D01*
X74411840Y-102308348D01*
X74411835Y-102308354D01*
X74280513Y-102495901D01*
X74183753Y-102703404D01*
X74183751Y-102703410D01*
X74149298Y-102831990D01*
X74124493Y-102924564D01*
X74104538Y-103152651D01*
X74124493Y-103380738D01*
X74136031Y-103423797D01*
X74183751Y-103601891D01*
X74183753Y-103601897D01*
X74280513Y-103809400D01*
X74395337Y-103973386D01*
X74411838Y-103996951D01*
X74573736Y-104158849D01*
X74761287Y-104290174D01*
X74968793Y-104386935D01*
X75026110Y-104402293D01*
X75086733Y-104439245D01*
X75117754Y-104503106D01*
X75109326Y-104573600D01*
X75064123Y-104628347D01*
X74996497Y-104649964D01*
X74993499Y-104650000D01*
X60226500Y-104650000D01*
X60158379Y-104629998D01*
X60111886Y-104576342D01*
X60100500Y-104524000D01*
X60100500Y-100003094D01*
X60100804Y-99996915D01*
X60110850Y-99894915D01*
X60116567Y-99836863D01*
X60121383Y-99812648D01*
X60165371Y-99667639D01*
X60174813Y-99644843D01*
X60246248Y-99511199D01*
X60259960Y-99490678D01*
X60356090Y-99373542D01*
X60373542Y-99356090D01*
X60490678Y-99259960D01*
X60511199Y-99246248D01*
X60644843Y-99174813D01*
X60667639Y-99165371D01*
X60812648Y-99121383D01*
X60836863Y-99116567D01*
X60954484Y-99104982D01*
X60996915Y-99100804D01*
X61003094Y-99100500D01*
X83137667Y-99100500D01*
X83137674Y-99100500D01*
X83384391Y-99068019D01*
X83410659Y-99064561D01*
X83410659Y-99064560D01*
X83410666Y-99064560D01*
X83676632Y-98993295D01*
X83931021Y-98887923D01*
X84169479Y-98750249D01*
X84387928Y-98582628D01*
X84582628Y-98387928D01*
X84750249Y-98169479D01*
X84887923Y-97931021D01*
X84993295Y-97676632D01*
X85064560Y-97410666D01*
X85100500Y-97137674D01*
X85100500Y-97000000D01*
X85100500Y-96898024D01*
X85100500Y-93002059D01*
X85100635Y-92997938D01*
X85116479Y-92756193D01*
X85117553Y-92748027D01*
X85164419Y-92512417D01*
X85166548Y-92504472D01*
X85243766Y-92276994D01*
X85246912Y-92269399D01*
X85353168Y-92053934D01*
X85357270Y-92046829D01*
X85490736Y-91847083D01*
X85495748Y-91840553D01*
X85654134Y-91659948D01*
X85659948Y-91654134D01*
X85840553Y-91495747D01*
X85847083Y-91490736D01*
X86046829Y-91357270D01*
X86053934Y-91353168D01*
X86269399Y-91246912D01*
X86276994Y-91243766D01*
X86504472Y-91166548D01*
X86512417Y-91164419D01*
X86748027Y-91117553D01*
X86756186Y-91116479D01*
X86997942Y-91100634D01*
X87002059Y-91100500D01*
X87101976Y-91100500D01*
X109124000Y-91100500D01*
X109192121Y-91120502D01*
G37*
G04 #@! TD.AperFunction*
G04 #@! TA.AperFunction,Conductor*
G36*
X74175526Y-105370002D02*
G01*
X74222019Y-105423658D01*
X74232123Y-105493932D01*
X74208273Y-105551508D01*
X74195270Y-105568879D01*
X74167146Y-105606447D01*
X74167146Y-105606448D01*
X74116047Y-105743446D01*
X74116045Y-105743454D01*
X74109536Y-105804001D01*
X74109536Y-107501300D01*
X74116045Y-107561847D01*
X74116047Y-107561855D01*
X74167146Y-107698853D01*
X74167148Y-107698858D01*
X74254774Y-107815912D01*
X74371828Y-107903538D01*
X74371830Y-107903539D01*
X74371832Y-107903540D01*
X74430911Y-107925575D01*
X74508831Y-107954639D01*
X74508839Y-107954641D01*
X74569386Y-107961150D01*
X74569391Y-107961150D01*
X74569398Y-107961151D01*
X74569404Y-107961151D01*
X76266668Y-107961151D01*
X76266674Y-107961151D01*
X76266681Y-107961150D01*
X76266685Y-107961150D01*
X76327232Y-107954641D01*
X76327235Y-107954640D01*
X76327237Y-107954640D01*
X76464240Y-107903540D01*
X76581297Y-107815912D01*
X76668925Y-107698855D01*
X76720025Y-107561852D01*
X76726536Y-107501289D01*
X76726536Y-105804013D01*
X76726114Y-105800084D01*
X76720026Y-105743454D01*
X76720024Y-105743446D01*
X76688829Y-105659812D01*
X76668925Y-105606447D01*
X76627798Y-105551508D01*
X76602988Y-105484990D01*
X76618079Y-105415615D01*
X76668281Y-105365413D01*
X76728667Y-105350000D01*
X94360500Y-105350000D01*
X94428621Y-105370002D01*
X94475114Y-105423658D01*
X94486500Y-105476000D01*
X94486500Y-110374009D01*
X94498235Y-110483155D01*
X94498235Y-110483159D01*
X94509617Y-110535480D01*
X94509623Y-110535501D01*
X94544288Y-110639654D01*
X94544290Y-110639657D01*
X94623308Y-110762612D01*
X94623311Y-110762615D01*
X94623315Y-110762621D01*
X94668685Y-110814981D01*
X94669601Y-110816097D01*
X94780258Y-110911980D01*
X94780261Y-110911982D01*
X94913210Y-110972698D01*
X94981331Y-110992700D01*
X95126000Y-111013500D01*
X95126004Y-111013500D01*
X98940500Y-111013500D01*
X99008621Y-111033502D01*
X99055114Y-111087158D01*
X99066500Y-111139500D01*
X99066500Y-111378649D01*
X99073009Y-111439196D01*
X99073011Y-111439204D01*
X99124110Y-111576202D01*
X99124112Y-111576207D01*
X99211738Y-111693261D01*
X99328792Y-111780887D01*
X99328794Y-111780888D01*
X99328796Y-111780889D01*
X99380265Y-111800086D01*
X99465795Y-111831988D01*
X99465803Y-111831990D01*
X99526350Y-111838499D01*
X99526355Y-111838499D01*
X99526362Y-111838500D01*
X99526368Y-111838500D01*
X100973632Y-111838500D01*
X100973638Y-111838500D01*
X100973645Y-111838499D01*
X100973649Y-111838499D01*
X101034196Y-111831990D01*
X101034199Y-111831989D01*
X101034201Y-111831989D01*
X101171204Y-111780889D01*
X101217597Y-111746160D01*
X101288261Y-111693261D01*
X101375887Y-111576207D01*
X101375887Y-111576206D01*
X101375889Y-111576204D01*
X101426989Y-111439201D01*
X101429122Y-111419368D01*
X101433499Y-111378649D01*
X101433500Y-111378632D01*
X101433500Y-110689360D01*
X101453502Y-110621239D01*
X101491383Y-110583360D01*
X101512608Y-110569720D01*
X101512609Y-110569718D01*
X101512612Y-110569717D01*
X101565011Y-110524313D01*
X101566101Y-110523418D01*
X101661980Y-110412766D01*
X101661982Y-110412764D01*
X101722698Y-110279815D01*
X101742700Y-110211694D01*
X101763500Y-110067025D01*
X101763500Y-107919220D01*
X101762028Y-107891752D01*
X101757677Y-107851292D01*
X101748883Y-107797027D01*
X101697803Y-107660086D01*
X101663777Y-107597775D01*
X101576194Y-107480779D01*
X101576193Y-107480778D01*
X101459192Y-107393191D01*
X101396877Y-107359164D01*
X101332941Y-107335317D01*
X101295930Y-107311530D01*
X101295475Y-107312139D01*
X101171207Y-107219112D01*
X101171202Y-107219110D01*
X101034204Y-107168011D01*
X101034196Y-107168009D01*
X100973649Y-107161500D01*
X100973638Y-107161500D01*
X99706000Y-107161500D01*
X99637879Y-107141498D01*
X99591386Y-107087842D01*
X99580000Y-107035500D01*
X99580000Y-106964500D01*
X99600002Y-106896379D01*
X99653658Y-106849886D01*
X99706000Y-106838500D01*
X100973632Y-106838500D01*
X100973638Y-106838500D01*
X100973645Y-106838499D01*
X100973649Y-106838499D01*
X101034196Y-106831990D01*
X101034199Y-106831989D01*
X101034201Y-106831989D01*
X101171204Y-106780889D01*
X101288261Y-106693261D01*
X101375889Y-106576204D01*
X101426989Y-106439201D01*
X101429122Y-106419368D01*
X101433499Y-106378649D01*
X101433500Y-106378632D01*
X101433500Y-106009500D01*
X101453502Y-105941379D01*
X101507158Y-105894886D01*
X101559500Y-105883500D01*
X109124000Y-105883500D01*
X109192121Y-105903502D01*
X109238614Y-105957158D01*
X109250000Y-106009500D01*
X109250000Y-118773500D01*
X109229998Y-118841621D01*
X109176342Y-118888114D01*
X109124000Y-118899500D01*
X87002059Y-118899500D01*
X86997942Y-118899365D01*
X86942286Y-118895717D01*
X86756192Y-118883520D01*
X86748013Y-118882444D01*
X86512423Y-118835581D01*
X86504458Y-118833447D01*
X86277007Y-118756237D01*
X86269386Y-118753081D01*
X86053946Y-118646837D01*
X86046818Y-118642722D01*
X85847093Y-118509270D01*
X85840553Y-118504251D01*
X85659958Y-118345874D01*
X85654125Y-118340041D01*
X85620148Y-118301298D01*
X85608444Y-118287952D01*
X85495748Y-118159446D01*
X85490731Y-118152909D01*
X85357274Y-117953176D01*
X85353164Y-117946058D01*
X85246914Y-117730605D01*
X85243764Y-117723000D01*
X85166549Y-117495531D01*
X85164418Y-117487576D01*
X85117553Y-117251974D01*
X85116479Y-117243806D01*
X85100635Y-117002061D01*
X85100500Y-116997940D01*
X85100500Y-112862333D01*
X85100500Y-112862326D01*
X85064560Y-112589334D01*
X84993295Y-112323368D01*
X84887923Y-112068979D01*
X84887922Y-112068977D01*
X84887916Y-112068966D01*
X84750251Y-111830524D01*
X84726895Y-111800086D01*
X84582628Y-111612072D01*
X84582627Y-111612071D01*
X84582618Y-111612061D01*
X84387938Y-111417381D01*
X84387928Y-111417372D01*
X84169475Y-111249748D01*
X83931033Y-111112083D01*
X83931022Y-111112077D01*
X83693036Y-111013500D01*
X83676632Y-111006705D01*
X83410666Y-110935440D01*
X83410659Y-110935438D01*
X83137676Y-110899500D01*
X83137674Y-110899500D01*
X83105085Y-110899500D01*
X61003094Y-110899500D01*
X60996915Y-110899196D01*
X60836867Y-110883432D01*
X60812643Y-110878614D01*
X60667650Y-110834632D01*
X60644835Y-110825182D01*
X60511207Y-110753755D01*
X60490673Y-110740035D01*
X60456531Y-110712015D01*
X60373548Y-110643914D01*
X60356083Y-110626449D01*
X60351908Y-110621362D01*
X60259963Y-110509325D01*
X60246245Y-110488795D01*
X60174815Y-110355159D01*
X60165370Y-110332356D01*
X60121384Y-110187353D01*
X60116567Y-110163131D01*
X60100804Y-110003084D01*
X60100500Y-109996905D01*
X60100500Y-105476000D01*
X60120502Y-105407879D01*
X60174158Y-105361386D01*
X60226500Y-105350000D01*
X74107405Y-105350000D01*
X74175526Y-105370002D01*
G37*
G04 #@! TD.AperFunction*
G04 #@! TA.AperFunction,Conductor*
G36*
X99124110Y-107576202D02*
G01*
X99124112Y-107576207D01*
X99211738Y-107693261D01*
X99328792Y-107780887D01*
X99328794Y-107780888D01*
X99328796Y-107780889D01*
X99387875Y-107802924D01*
X99465795Y-107831988D01*
X99465803Y-107831990D01*
X99526350Y-107838499D01*
X99526355Y-107838499D01*
X99526362Y-107838500D01*
X99526368Y-107838500D01*
X100973632Y-107838500D01*
X100973638Y-107838500D01*
X100973645Y-107838499D01*
X100973649Y-107838499D01*
X101034196Y-107831990D01*
X101034201Y-107831989D01*
X101034204Y-107831988D01*
X101079967Y-107814918D01*
X101150782Y-107809853D01*
X101213094Y-107843878D01*
X101247120Y-107906189D01*
X101250000Y-107932974D01*
X101250000Y-110067025D01*
X101229998Y-110135146D01*
X101176342Y-110181639D01*
X101106068Y-110191743D01*
X101079968Y-110185081D01*
X101034200Y-110168010D01*
X101034196Y-110168009D01*
X100973649Y-110161500D01*
X100973638Y-110161500D01*
X99526362Y-110161500D01*
X99526350Y-110161500D01*
X99465803Y-110168009D01*
X99465795Y-110168011D01*
X99328797Y-110219110D01*
X99328792Y-110219112D01*
X99211738Y-110306738D01*
X99124112Y-110423792D01*
X99119795Y-110431701D01*
X99117123Y-110430242D01*
X99083700Y-110474878D01*
X99017177Y-110499680D01*
X99008205Y-110500000D01*
X95126000Y-110500000D01*
X95057879Y-110479998D01*
X95011386Y-110426342D01*
X95000000Y-110374000D01*
X95000000Y-107500000D01*
X99095687Y-107500000D01*
X99124110Y-107576202D01*
G37*
G04 #@! TD.AperFunction*
G04 #@! TA.AperFunction,Conductor*
G36*
X119659421Y-96854002D02*
G01*
X119684937Y-96875690D01*
X119688247Y-96879366D01*
X119842748Y-96991618D01*
X120017212Y-97069294D01*
X120141697Y-97095754D01*
X120204170Y-97129482D01*
X120238492Y-97191632D01*
X120241500Y-97219001D01*
X120241500Y-101235405D01*
X120221498Y-101303526D01*
X120204599Y-101324495D01*
X120029095Y-101500000D01*
X119891489Y-101637606D01*
X119829177Y-101671631D01*
X119758361Y-101666566D01*
X119701526Y-101624019D01*
X119679598Y-101568284D01*
X119678803Y-101568472D01*
X119677495Y-101562941D01*
X119677115Y-101561973D01*
X119676989Y-101560799D01*
X119670736Y-101544037D01*
X119665668Y-101473224D01*
X119670735Y-101455967D01*
X119676989Y-101439201D01*
X119683500Y-101378638D01*
X119683500Y-100621362D01*
X119683499Y-100621350D01*
X119676990Y-100560803D01*
X119676988Y-100560795D01*
X119625889Y-100423797D01*
X119625887Y-100423792D01*
X119538261Y-100306738D01*
X119421207Y-100219112D01*
X119421202Y-100219110D01*
X119284204Y-100168011D01*
X119284196Y-100168009D01*
X119223649Y-100161500D01*
X119223638Y-100161500D01*
X117776362Y-100161500D01*
X117776350Y-100161500D01*
X117715803Y-100168009D01*
X117715795Y-100168011D01*
X117578797Y-100219110D01*
X117538443Y-100249318D01*
X117471922Y-100274127D01*
X117402548Y-100259034D01*
X117388875Y-100250384D01*
X117331756Y-100208884D01*
X117233498Y-100165137D01*
X117157288Y-100131206D01*
X116970487Y-100091500D01*
X116779513Y-100091500D01*
X116592711Y-100131206D01*
X116418247Y-100208882D01*
X116263744Y-100321135D01*
X116135965Y-100463048D01*
X116135958Y-100463058D01*
X116040476Y-100628438D01*
X116040473Y-100628445D01*
X115981457Y-100810072D01*
X115961496Y-101000000D01*
X115981457Y-101189927D01*
X115996234Y-101235405D01*
X116040473Y-101371556D01*
X116040474Y-101371559D01*
X116078257Y-101437001D01*
X116094994Y-101505997D01*
X116078257Y-101562999D01*
X116040474Y-101628440D01*
X116040473Y-101628445D01*
X115981457Y-101810072D01*
X115961496Y-102000000D01*
X115981457Y-102189927D01*
X116011526Y-102282470D01*
X116040473Y-102371556D01*
X116040476Y-102371561D01*
X116135958Y-102536941D01*
X116135965Y-102536951D01*
X116263744Y-102678864D01*
X116263747Y-102678866D01*
X116418248Y-102791118D01*
X116592712Y-102868794D01*
X116779513Y-102908500D01*
X116970487Y-102908500D01*
X117132758Y-102874008D01*
X117157288Y-102868794D01*
X117157288Y-102868793D01*
X117163747Y-102867421D01*
X117164359Y-102870301D01*
X117222463Y-102868609D01*
X117283282Y-102905237D01*
X117314643Y-102968932D01*
X117316500Y-102990487D01*
X117316500Y-103378649D01*
X117323009Y-103439195D01*
X117323011Y-103439200D01*
X117329266Y-103455973D01*
X117334327Y-103526789D01*
X117329266Y-103544027D01*
X117323011Y-103560799D01*
X117323009Y-103560804D01*
X117316500Y-103621350D01*
X117316500Y-104378649D01*
X117323009Y-104439195D01*
X117323011Y-104439200D01*
X117329266Y-104455973D01*
X117334327Y-104526789D01*
X117329266Y-104544027D01*
X117323011Y-104560799D01*
X117323009Y-104560804D01*
X117316500Y-104621350D01*
X117316500Y-105378649D01*
X117323009Y-105439195D01*
X117323011Y-105439200D01*
X117329266Y-105455973D01*
X117334327Y-105526789D01*
X117329266Y-105544027D01*
X117323011Y-105560799D01*
X117323009Y-105560804D01*
X117316500Y-105621350D01*
X117316500Y-106378649D01*
X117323009Y-106439195D01*
X117323011Y-106439200D01*
X117329266Y-106455973D01*
X117334327Y-106526789D01*
X117329266Y-106544027D01*
X117323011Y-106560799D01*
X117323009Y-106560804D01*
X117316500Y-106621350D01*
X117316500Y-107378649D01*
X117323009Y-107439195D01*
X117323011Y-107439200D01*
X117329266Y-107455973D01*
X117334327Y-107526789D01*
X117329266Y-107544027D01*
X117323011Y-107560799D01*
X117323009Y-107560804D01*
X117316500Y-107621350D01*
X117316500Y-108378649D01*
X117323009Y-108439195D01*
X117323011Y-108439200D01*
X117329266Y-108455973D01*
X117334327Y-108526789D01*
X117329266Y-108544027D01*
X117323011Y-108560799D01*
X117323009Y-108560804D01*
X117316500Y-108621350D01*
X117316500Y-109378649D01*
X117323009Y-109439196D01*
X117323011Y-109439204D01*
X117374110Y-109576202D01*
X117374112Y-109576207D01*
X117461738Y-109693261D01*
X117578792Y-109780887D01*
X117578794Y-109780888D01*
X117578796Y-109780889D01*
X117637875Y-109802924D01*
X117715795Y-109831988D01*
X117715803Y-109831990D01*
X117776350Y-109838499D01*
X117776355Y-109838499D01*
X117776362Y-109838500D01*
X117776368Y-109838500D01*
X119223632Y-109838500D01*
X119223638Y-109838500D01*
X119284201Y-109831989D01*
X119284203Y-109831988D01*
X119292037Y-109831146D01*
X119292368Y-109834231D01*
X119348847Y-109837234D01*
X119396076Y-109866980D01*
X119533159Y-110004063D01*
X119567185Y-110066375D01*
X119562120Y-110137190D01*
X119519573Y-110194026D01*
X119453053Y-110218837D01*
X119400031Y-110211214D01*
X119284201Y-110168011D01*
X119284199Y-110168010D01*
X119284197Y-110168010D01*
X119284196Y-110168009D01*
X119223649Y-110161500D01*
X119223638Y-110161500D01*
X117776362Y-110161500D01*
X117776350Y-110161500D01*
X117715803Y-110168009D01*
X117715795Y-110168011D01*
X117578797Y-110219110D01*
X117578792Y-110219112D01*
X117461738Y-110306738D01*
X117374112Y-110423792D01*
X117374110Y-110423797D01*
X117323011Y-110560795D01*
X117323009Y-110560803D01*
X117316500Y-110621350D01*
X117316500Y-111378649D01*
X117323009Y-111439195D01*
X117323011Y-111439200D01*
X117329266Y-111455973D01*
X117334327Y-111526789D01*
X117329266Y-111544027D01*
X117323011Y-111560799D01*
X117323009Y-111560804D01*
X117316500Y-111621350D01*
X117316500Y-111985403D01*
X117296498Y-112053524D01*
X117279595Y-112074499D01*
X116642000Y-112712093D01*
X116579688Y-112746118D01*
X116508872Y-112741053D01*
X116478844Y-112724933D01*
X116456752Y-112708882D01*
X116282288Y-112631206D01*
X116095487Y-112591500D01*
X115904513Y-112591500D01*
X115717711Y-112631206D01*
X115543247Y-112708882D01*
X115388744Y-112821135D01*
X115260965Y-112963048D01*
X115260958Y-112963058D01*
X115165476Y-113128438D01*
X115165473Y-113128445D01*
X115106457Y-113310072D01*
X115086496Y-113500000D01*
X115106457Y-113689927D01*
X115114506Y-113714698D01*
X115165473Y-113871556D01*
X115193841Y-113920691D01*
X115260958Y-114036941D01*
X115260965Y-114036951D01*
X115388744Y-114178864D01*
X115388747Y-114178866D01*
X115543248Y-114291118D01*
X115717712Y-114368794D01*
X115904513Y-114408500D01*
X116095487Y-114408500D01*
X116282288Y-114368794D01*
X116456752Y-114291118D01*
X116611253Y-114178866D01*
X116612991Y-114176934D01*
X116614280Y-114176140D01*
X116616163Y-114174446D01*
X116616472Y-114174789D01*
X116673432Y-114139691D01*
X116702670Y-114135300D01*
X116757382Y-114133580D01*
X116759959Y-114133500D01*
X116789851Y-114133500D01*
X116789856Y-114133500D01*
X116796818Y-114132619D01*
X116802719Y-114132154D01*
X116849889Y-114130673D01*
X116869347Y-114125019D01*
X116888694Y-114121013D01*
X116908797Y-114118474D01*
X116952679Y-114101099D01*
X116958274Y-114099183D01*
X116986816Y-114090891D01*
X117003591Y-114086019D01*
X117003595Y-114086017D01*
X117021026Y-114075708D01*
X117038780Y-114067009D01*
X117057617Y-114059552D01*
X117095786Y-114031818D01*
X117100744Y-114028562D01*
X117141362Y-114004542D01*
X117155685Y-113990218D01*
X117170724Y-113977374D01*
X117187107Y-113965472D01*
X117217193Y-113929103D01*
X117221161Y-113924741D01*
X118270501Y-112875402D01*
X118332811Y-112841379D01*
X118359594Y-112838500D01*
X119223632Y-112838500D01*
X119223638Y-112838500D01*
X119223645Y-112838499D01*
X119223649Y-112838499D01*
X119284196Y-112831990D01*
X119284199Y-112831989D01*
X119284201Y-112831989D01*
X119421204Y-112780889D01*
X119442554Y-112764907D01*
X119538261Y-112693261D01*
X119625887Y-112576207D01*
X119625887Y-112576206D01*
X119625889Y-112576204D01*
X119676989Y-112439201D01*
X119682365Y-112389201D01*
X119683499Y-112378649D01*
X119683500Y-112378632D01*
X119683500Y-111621367D01*
X119683499Y-111621350D01*
X119678139Y-111571498D01*
X119676989Y-111560799D01*
X119670736Y-111544037D01*
X119665668Y-111473224D01*
X119670735Y-111455967D01*
X119676989Y-111439201D01*
X119683500Y-111378638D01*
X119683500Y-110621362D01*
X119682347Y-110610636D01*
X119676990Y-110560803D01*
X119676988Y-110560795D01*
X119633786Y-110444968D01*
X119628720Y-110374152D01*
X119662745Y-110311840D01*
X119725057Y-110277815D01*
X119795873Y-110282879D01*
X119840936Y-110311840D01*
X120204595Y-110675499D01*
X120238621Y-110737811D01*
X120241500Y-110764594D01*
X120241500Y-112741146D01*
X120239751Y-112756988D01*
X120240044Y-112757016D01*
X120239298Y-112764907D01*
X120239298Y-112764909D01*
X120241407Y-112831988D01*
X120241500Y-112834957D01*
X120241500Y-112864851D01*
X120241501Y-112864872D01*
X120242378Y-112871820D01*
X120242844Y-112877732D01*
X120244326Y-112924888D01*
X120244327Y-112924893D01*
X120249977Y-112944339D01*
X120253986Y-112963697D01*
X120256525Y-112983793D01*
X120256526Y-112983799D01*
X120273893Y-113027662D01*
X120275816Y-113033279D01*
X120288982Y-113078593D01*
X120299294Y-113096031D01*
X120307988Y-113113779D01*
X120315444Y-113132609D01*
X120315450Y-113132620D01*
X120343177Y-113170783D01*
X120346437Y-113175746D01*
X120370460Y-113216365D01*
X120384779Y-113230684D01*
X120397617Y-113245714D01*
X120409526Y-113262104D01*
X120409530Y-113262109D01*
X120445880Y-113292180D01*
X120450273Y-113296177D01*
X121104596Y-113950501D01*
X121138621Y-114012813D01*
X121141500Y-114039596D01*
X121141500Y-114332261D01*
X121147986Y-114403646D01*
X121147986Y-114403647D01*
X121199170Y-114567906D01*
X121199172Y-114567911D01*
X121288184Y-114715155D01*
X121288188Y-114715160D01*
X121409839Y-114836811D01*
X121409844Y-114836815D01*
X121409845Y-114836816D01*
X121557087Y-114925827D01*
X121721351Y-114977013D01*
X121792735Y-114983500D01*
X122307264Y-114983499D01*
X122378649Y-114977013D01*
X122542913Y-114925827D01*
X122690155Y-114836816D01*
X122690160Y-114836811D01*
X122785905Y-114741067D01*
X122848217Y-114707041D01*
X122919032Y-114712106D01*
X122964095Y-114741067D01*
X123059839Y-114836811D01*
X123059844Y-114836815D01*
X123059845Y-114836816D01*
X123207087Y-114925827D01*
X123371351Y-114977013D01*
X123442735Y-114983500D01*
X123659698Y-114983499D01*
X123727818Y-115003501D01*
X123774311Y-115057156D01*
X123784416Y-115127430D01*
X123771965Y-115166702D01*
X123607467Y-115489548D01*
X123607463Y-115489556D01*
X123468168Y-115852431D01*
X123367561Y-116227902D01*
X123306752Y-116611832D01*
X123286411Y-116999993D01*
X123286411Y-117000006D01*
X123306752Y-117388167D01*
X123367561Y-117772097D01*
X123468168Y-118147568D01*
X123607463Y-118510443D01*
X123607467Y-118510451D01*
X123712351Y-118716297D01*
X123725455Y-118786074D01*
X123698755Y-118851859D01*
X123640727Y-118892765D01*
X123600084Y-118899500D01*
X110126000Y-118899500D01*
X110057879Y-118879498D01*
X110011386Y-118825842D01*
X110000000Y-118773500D01*
X110000000Y-114040423D01*
X110020002Y-113972302D01*
X110073658Y-113925809D01*
X110143932Y-113915705D01*
X110208512Y-113945199D01*
X110212224Y-113948546D01*
X110218075Y-113954041D01*
X110219082Y-113954987D01*
X110240223Y-113976129D01*
X110240227Y-113976132D01*
X110240230Y-113976135D01*
X110245782Y-113980442D01*
X110250269Y-113984273D01*
X110271852Y-114004541D01*
X110284677Y-114016585D01*
X110284679Y-114016586D01*
X110302428Y-114026343D01*
X110318953Y-114037198D01*
X110334959Y-114049614D01*
X110375149Y-114067005D01*
X110378262Y-114068352D01*
X110383583Y-114070958D01*
X110424940Y-114093695D01*
X110424948Y-114093697D01*
X110444558Y-114098732D01*
X110463267Y-114105137D01*
X110481855Y-114113181D01*
X110528457Y-114120561D01*
X110534262Y-114121763D01*
X110546956Y-114125023D01*
X110566447Y-114130028D01*
X110627452Y-114166344D01*
X110628744Y-114167757D01*
X110638747Y-114178866D01*
X110793248Y-114291118D01*
X110967712Y-114368794D01*
X111154513Y-114408500D01*
X111345487Y-114408500D01*
X111532288Y-114368794D01*
X111706752Y-114291118D01*
X111861253Y-114178866D01*
X111862991Y-114176936D01*
X111989034Y-114036951D01*
X111989035Y-114036949D01*
X111989040Y-114036944D01*
X112084527Y-113871556D01*
X112143542Y-113689928D01*
X112163504Y-113500000D01*
X112143542Y-113310072D01*
X112084527Y-113128444D01*
X111989040Y-112963056D01*
X111989038Y-112963054D01*
X111989034Y-112963048D01*
X111861255Y-112821135D01*
X111706752Y-112708882D01*
X111532288Y-112631206D01*
X111345487Y-112591500D01*
X111154513Y-112591500D01*
X110967711Y-112631206D01*
X110852665Y-112682428D01*
X110782298Y-112691862D01*
X110718001Y-112661755D01*
X110712320Y-112656416D01*
X110036904Y-111980999D01*
X110002879Y-111918687D01*
X110000000Y-111891904D01*
X110000000Y-98759500D01*
X110020002Y-98691379D01*
X110073658Y-98644886D01*
X110126000Y-98633500D01*
X110541800Y-98633500D01*
X110609921Y-98653502D01*
X110635437Y-98675190D01*
X110638747Y-98678866D01*
X110793248Y-98791118D01*
X110967712Y-98868794D01*
X111154513Y-98908500D01*
X111345487Y-98908500D01*
X111532288Y-98868794D01*
X111706752Y-98791118D01*
X111861253Y-98678866D01*
X111902101Y-98633500D01*
X111989034Y-98536951D01*
X111989035Y-98536949D01*
X111989040Y-98536944D01*
X112084527Y-98371556D01*
X112143542Y-98189928D01*
X112163504Y-98000000D01*
X115086496Y-98000000D01*
X115106457Y-98189927D01*
X115136526Y-98282470D01*
X115165473Y-98371556D01*
X115165476Y-98371561D01*
X115260958Y-98536941D01*
X115260965Y-98536951D01*
X115388744Y-98678864D01*
X115427687Y-98707158D01*
X115543248Y-98791118D01*
X115717712Y-98868794D01*
X115904513Y-98908500D01*
X116095487Y-98908500D01*
X116282288Y-98868794D01*
X116456752Y-98791118D01*
X116611253Y-98678866D01*
X116614563Y-98675190D01*
X116675009Y-98637950D01*
X116708200Y-98633500D01*
X117190500Y-98633500D01*
X117258621Y-98653502D01*
X117305114Y-98707158D01*
X117316500Y-98759500D01*
X117316500Y-99378649D01*
X117323009Y-99439196D01*
X117323011Y-99439204D01*
X117374110Y-99576202D01*
X117374112Y-99576207D01*
X117461738Y-99693261D01*
X117578792Y-99780887D01*
X117578794Y-99780888D01*
X117578796Y-99780889D01*
X117637875Y-99802924D01*
X117715795Y-99831988D01*
X117715803Y-99831990D01*
X117776350Y-99838499D01*
X117776355Y-99838499D01*
X117776362Y-99838500D01*
X117776368Y-99838500D01*
X119223632Y-99838500D01*
X119223638Y-99838500D01*
X119223645Y-99838499D01*
X119223649Y-99838499D01*
X119284196Y-99831990D01*
X119284199Y-99831989D01*
X119284201Y-99831989D01*
X119421204Y-99780889D01*
X119538261Y-99693261D01*
X119610806Y-99596353D01*
X119625887Y-99576207D01*
X119625887Y-99576206D01*
X119625889Y-99576204D01*
X119676989Y-99439201D01*
X119677754Y-99432093D01*
X119683499Y-99378649D01*
X119683500Y-99378632D01*
X119683500Y-98621367D01*
X119683499Y-98621350D01*
X119676989Y-98560800D01*
X119676989Y-98560799D01*
X119670736Y-98544037D01*
X119665668Y-98473224D01*
X119670735Y-98455967D01*
X119676989Y-98439201D01*
X119683500Y-98378638D01*
X119683500Y-97621362D01*
X119683499Y-97621350D01*
X119676990Y-97560803D01*
X119676988Y-97560795D01*
X119640529Y-97463048D01*
X119625889Y-97423796D01*
X119625888Y-97423794D01*
X119625887Y-97423792D01*
X119538261Y-97306738D01*
X119421207Y-97219112D01*
X119421202Y-97219110D01*
X119284204Y-97168011D01*
X119284196Y-97168009D01*
X119223649Y-97161500D01*
X119223638Y-97161500D01*
X117776362Y-97161500D01*
X117776350Y-97161500D01*
X117715803Y-97168009D01*
X117715795Y-97168011D01*
X117578797Y-97219110D01*
X117578792Y-97219112D01*
X117461740Y-97306737D01*
X117454798Y-97316011D01*
X117397961Y-97358556D01*
X117353931Y-97366500D01*
X116708200Y-97366500D01*
X116640079Y-97346498D01*
X116614563Y-97324810D01*
X116611252Y-97321133D01*
X116456752Y-97208882D01*
X116282288Y-97131206D01*
X116095487Y-97091500D01*
X115904513Y-97091500D01*
X115717711Y-97131206D01*
X115543247Y-97208882D01*
X115388744Y-97321135D01*
X115260965Y-97463048D01*
X115260958Y-97463058D01*
X115165476Y-97628438D01*
X115165473Y-97628445D01*
X115106457Y-97810072D01*
X115086496Y-98000000D01*
X112163504Y-98000000D01*
X112143542Y-97810072D01*
X112084527Y-97628444D01*
X111989040Y-97463056D01*
X111989038Y-97463054D01*
X111989034Y-97463048D01*
X111861255Y-97321135D01*
X111706752Y-97208882D01*
X111532288Y-97131206D01*
X111345487Y-97091500D01*
X111154513Y-97091500D01*
X110967711Y-97131206D01*
X110793247Y-97208882D01*
X110638747Y-97321133D01*
X110635437Y-97324810D01*
X110574991Y-97362050D01*
X110541800Y-97366500D01*
X110126000Y-97366500D01*
X110057879Y-97346498D01*
X110011386Y-97292842D01*
X110000000Y-97240500D01*
X110000000Y-96960000D01*
X110020002Y-96891879D01*
X110073658Y-96845386D01*
X110126000Y-96834000D01*
X119591300Y-96834000D01*
X119659421Y-96854002D01*
G37*
G04 #@! TD.AperFunction*
G04 #@! TA.AperFunction,Conductor*
G36*
X123668205Y-91120502D02*
G01*
X123714698Y-91174158D01*
X123724802Y-91244432D01*
X123712351Y-91283703D01*
X123607467Y-91489548D01*
X123607463Y-91489556D01*
X123468168Y-91852431D01*
X123367561Y-92227902D01*
X123306752Y-92611832D01*
X123286411Y-92999993D01*
X123286411Y-93000006D01*
X123306752Y-93388167D01*
X123367561Y-93772097D01*
X123468168Y-94147568D01*
X123607463Y-94510443D01*
X123607467Y-94510451D01*
X123771965Y-94833297D01*
X123785069Y-94903074D01*
X123758369Y-94968859D01*
X123700341Y-95009765D01*
X123659699Y-95016500D01*
X123442738Y-95016500D01*
X123371353Y-95022986D01*
X123371352Y-95022986D01*
X123207093Y-95074170D01*
X123207088Y-95074172D01*
X123059844Y-95163184D01*
X123059839Y-95163188D01*
X122964095Y-95258933D01*
X122901783Y-95292959D01*
X122830968Y-95287894D01*
X122785905Y-95258933D01*
X122690160Y-95163188D01*
X122690155Y-95163184D01*
X122542911Y-95074172D01*
X122542906Y-95074170D01*
X122378646Y-95022986D01*
X122326723Y-95018268D01*
X122307265Y-95016500D01*
X122307262Y-95016500D01*
X121792738Y-95016500D01*
X121721353Y-95022986D01*
X121721352Y-95022986D01*
X121557093Y-95074170D01*
X121557088Y-95074172D01*
X121409844Y-95163184D01*
X121409839Y-95163188D01*
X121288188Y-95284839D01*
X121288184Y-95284844D01*
X121199172Y-95432088D01*
X121199170Y-95432091D01*
X121170132Y-95525283D01*
X121130770Y-95584369D01*
X121065712Y-95612794D01*
X120995614Y-95601534D01*
X120956201Y-95572108D01*
X120910755Y-95521635D01*
X120756252Y-95409382D01*
X120581788Y-95331706D01*
X120394987Y-95292000D01*
X120204013Y-95292000D01*
X120017211Y-95331706D01*
X119842747Y-95409382D01*
X119688247Y-95521633D01*
X119684937Y-95525310D01*
X119624491Y-95562550D01*
X119591300Y-95567000D01*
X110126000Y-95567000D01*
X110057879Y-95546998D01*
X110011386Y-95493342D01*
X110000000Y-95441000D01*
X110000000Y-91226500D01*
X110020002Y-91158379D01*
X110073658Y-91111886D01*
X110126000Y-91100500D01*
X123600084Y-91100500D01*
X123668205Y-91120502D01*
G37*
G04 #@! TD.AperFunction*
G04 #@! TA.AperFunction,Conductor*
G36*
X99076326Y-99520002D02*
G01*
X99118695Y-99568899D01*
X99119795Y-99568299D01*
X99122553Y-99573352D01*
X99122819Y-99573658D01*
X99123127Y-99574402D01*
X99124112Y-99576207D01*
X99211738Y-99693261D01*
X99328792Y-99780887D01*
X99328794Y-99780888D01*
X99328796Y-99780889D01*
X99387875Y-99802924D01*
X99465795Y-99831988D01*
X99465803Y-99831990D01*
X99526350Y-99838499D01*
X99526355Y-99838499D01*
X99526362Y-99838500D01*
X99526368Y-99838500D01*
X100973632Y-99838500D01*
X100973638Y-99838500D01*
X100973645Y-99838499D01*
X100973649Y-99838499D01*
X101034196Y-99831990D01*
X101034201Y-99831989D01*
X101034204Y-99831988D01*
X101079967Y-99814918D01*
X101150782Y-99809853D01*
X101213094Y-99843878D01*
X101247120Y-99906189D01*
X101250000Y-99932974D01*
X101250000Y-102067025D01*
X101229998Y-102135146D01*
X101176342Y-102181639D01*
X101106068Y-102191743D01*
X101079968Y-102185081D01*
X101034200Y-102168010D01*
X101034196Y-102168009D01*
X100973649Y-102161500D01*
X100973638Y-102161500D01*
X99526362Y-102161500D01*
X99526350Y-102161500D01*
X99465803Y-102168009D01*
X99465795Y-102168011D01*
X99328797Y-102219110D01*
X99328792Y-102219112D01*
X99211738Y-102306738D01*
X99124112Y-102423792D01*
X99124110Y-102423797D01*
X99073011Y-102560795D01*
X99073009Y-102560803D01*
X99066500Y-102621350D01*
X99066500Y-103378649D01*
X99073009Y-103439195D01*
X99073011Y-103439200D01*
X99079266Y-103455973D01*
X99084327Y-103526789D01*
X99079266Y-103544027D01*
X99073011Y-103560799D01*
X99073009Y-103560804D01*
X99066500Y-103621350D01*
X99066500Y-104378649D01*
X99073009Y-104439195D01*
X99073011Y-104439200D01*
X99079266Y-104455973D01*
X99084327Y-104526789D01*
X99079266Y-104544027D01*
X99073011Y-104560799D01*
X99073009Y-104560804D01*
X99066500Y-104621350D01*
X99066500Y-105378649D01*
X99073009Y-105439195D01*
X99073011Y-105439200D01*
X99079266Y-105455973D01*
X99084327Y-105526789D01*
X99079266Y-105544027D01*
X99073011Y-105560799D01*
X99073009Y-105560804D01*
X99066500Y-105621350D01*
X99066500Y-106378649D01*
X99073009Y-106439195D01*
X99073011Y-106439200D01*
X99079266Y-106455973D01*
X99084327Y-106526789D01*
X99079266Y-106544027D01*
X99073011Y-106560799D01*
X99073009Y-106560804D01*
X99066500Y-106621350D01*
X99066500Y-107378649D01*
X99073009Y-107439196D01*
X99073011Y-107439204D01*
X99124110Y-107576202D01*
X99124112Y-107576207D01*
X99211738Y-107693261D01*
X99328792Y-107780887D01*
X99328794Y-107780888D01*
X99328796Y-107780889D01*
X99387875Y-107802924D01*
X99465795Y-107831988D01*
X99465803Y-107831990D01*
X99526350Y-107838499D01*
X99526355Y-107838499D01*
X99526362Y-107838500D01*
X99526368Y-107838500D01*
X100973632Y-107838500D01*
X100973638Y-107838500D01*
X100973645Y-107838499D01*
X100973649Y-107838499D01*
X101034196Y-107831990D01*
X101034201Y-107831989D01*
X101034204Y-107831988D01*
X101079967Y-107814918D01*
X101150782Y-107809853D01*
X101213094Y-107843878D01*
X101247120Y-107906189D01*
X101250000Y-107932974D01*
X101250000Y-110067025D01*
X101229998Y-110135146D01*
X101176342Y-110181639D01*
X101106068Y-110191743D01*
X101079968Y-110185081D01*
X101034200Y-110168010D01*
X101034196Y-110168009D01*
X100973649Y-110161500D01*
X100973638Y-110161500D01*
X99526362Y-110161500D01*
X99526350Y-110161500D01*
X99465803Y-110168009D01*
X99465795Y-110168011D01*
X99328797Y-110219110D01*
X99328792Y-110219112D01*
X99211738Y-110306738D01*
X99124112Y-110423792D01*
X99119795Y-110431701D01*
X99117123Y-110430242D01*
X99083700Y-110474878D01*
X99017177Y-110499680D01*
X99008205Y-110500000D01*
X95126000Y-110500000D01*
X95057879Y-110479998D01*
X95011386Y-110426342D01*
X95000000Y-110374000D01*
X95000000Y-99626000D01*
X95020002Y-99557879D01*
X95073658Y-99511386D01*
X95126000Y-99500000D01*
X99008205Y-99500000D01*
X99076326Y-99520002D01*
G37*
G04 #@! TD.AperFunction*
M02*
