G04 #@! TF.GenerationSoftware,KiCad,Pcbnew,7.0.9*
G04 #@! TF.CreationDate,2023-12-19T12:33:16+08:00*
G04 #@! TF.ProjectId,vnh5019,766e6835-3031-4392-9e6b-696361645f70,rev?*
G04 #@! TF.SameCoordinates,Original*
G04 #@! TF.FileFunction,Copper,L2,Bot*
G04 #@! TF.FilePolarity,Positive*
%FSLAX46Y46*%
G04 Gerber Fmt 4.6, Leading zero omitted, Abs format (unit mm)*
G04 Created by KiCad (PCBNEW 7.0.9) date 2023-12-19 12:33:16*
%MOMM*%
%LPD*%
G01*
G04 APERTURE LIST*
G04 Aperture macros list*
%AMRoundRect*
0 Rectangle with rounded corners*
0 $1 Rounding radius*
0 $2 $3 $4 $5 $6 $7 $8 $9 X,Y pos of 4 corners*
0 Add a 4 corners polygon primitive as box body*
4,1,4,$2,$3,$4,$5,$6,$7,$8,$9,$2,$3,0*
0 Add four circle primitives for the rounded corners*
1,1,$1+$1,$2,$3*
1,1,$1+$1,$4,$5*
1,1,$1+$1,$6,$7*
1,1,$1+$1,$8,$9*
0 Add four rect primitives between the rounded corners*
20,1,$1+$1,$2,$3,$4,$5,0*
20,1,$1+$1,$4,$5,$6,$7,0*
20,1,$1+$1,$6,$7,$8,$9,0*
20,1,$1+$1,$8,$9,$2,$3,0*%
G04 Aperture macros list end*
G04 #@! TA.AperFunction,ComponentPad*
%ADD10C,6.400000*%
G04 #@! TD*
G04 #@! TA.AperFunction,ComponentPad*
%ADD11R,1.600000X1.600000*%
G04 #@! TD*
G04 #@! TA.AperFunction,ComponentPad*
%ADD12C,1.600000*%
G04 #@! TD*
G04 #@! TA.AperFunction,ComponentPad*
%ADD13R,3.000000X3.000000*%
G04 #@! TD*
G04 #@! TA.AperFunction,ComponentPad*
%ADD14C,3.000000*%
G04 #@! TD*
G04 #@! TA.AperFunction,SMDPad,CuDef*
%ADD15RoundRect,0.218750X0.256250X-0.218750X0.256250X0.218750X-0.256250X0.218750X-0.256250X-0.218750X0*%
G04 #@! TD*
G04 #@! TA.AperFunction,SMDPad,CuDef*
%ADD16RoundRect,0.250000X0.850000X0.350000X-0.850000X0.350000X-0.850000X-0.350000X0.850000X-0.350000X0*%
G04 #@! TD*
G04 #@! TA.AperFunction,SMDPad,CuDef*
%ADD17RoundRect,0.250000X1.275000X1.125000X-1.275000X1.125000X-1.275000X-1.125000X1.275000X-1.125000X0*%
G04 #@! TD*
G04 #@! TA.AperFunction,SMDPad,CuDef*
%ADD18RoundRect,0.249997X2.950003X2.650003X-2.950003X2.650003X-2.950003X-2.650003X2.950003X-2.650003X0*%
G04 #@! TD*
G04 #@! TA.AperFunction,SMDPad,CuDef*
%ADD19RoundRect,0.150000X-0.625000X0.150000X-0.625000X-0.150000X0.625000X-0.150000X0.625000X0.150000X0*%
G04 #@! TD*
G04 #@! TA.AperFunction,SMDPad,CuDef*
%ADD20RoundRect,0.250000X-0.650000X0.350000X-0.650000X-0.350000X0.650000X-0.350000X0.650000X0.350000X0*%
G04 #@! TD*
G04 #@! TA.AperFunction,SMDPad,CuDef*
%ADD21RoundRect,0.225000X0.250000X-0.225000X0.250000X0.225000X-0.250000X0.225000X-0.250000X-0.225000X0*%
G04 #@! TD*
G04 #@! TA.AperFunction,SMDPad,CuDef*
%ADD22R,10.000000X5.000000*%
G04 #@! TD*
G04 #@! TA.AperFunction,SMDPad,CuDef*
%ADD23RoundRect,0.218750X-0.256250X0.218750X-0.256250X-0.218750X0.256250X-0.218750X0.256250X0.218750X0*%
G04 #@! TD*
G04 #@! TA.AperFunction,SMDPad,CuDef*
%ADD24RoundRect,0.200000X0.275000X-0.200000X0.275000X0.200000X-0.275000X0.200000X-0.275000X-0.200000X0*%
G04 #@! TD*
G04 #@! TA.AperFunction,ViaPad*
%ADD25C,0.800000*%
G04 #@! TD*
G04 #@! TA.AperFunction,Conductor*
%ADD26C,0.250000*%
G04 #@! TD*
G04 APERTURE END LIST*
D10*
X127000000Y-93000000D03*
X127000000Y-117000000D03*
D11*
X75418036Y-106652651D03*
D12*
X75418036Y-103152651D03*
D13*
X66918036Y-102500000D03*
D14*
X66918036Y-107500000D03*
D15*
X86000000Y-105827500D03*
X86000000Y-104252500D03*
D16*
X114415000Y-102720000D03*
D17*
X109790000Y-106525000D03*
X109790000Y-103475000D03*
D18*
X108115000Y-105000000D03*
D17*
X106440000Y-106525000D03*
X106440000Y-103475000D03*
D16*
X114415000Y-107280000D03*
D19*
X118750000Y-102750000D03*
X118750000Y-103750000D03*
X118750000Y-104750000D03*
X118750000Y-105750000D03*
X118750000Y-106750000D03*
D20*
X122625000Y-101450000D03*
X122625000Y-108050000D03*
D21*
X93500000Y-105775000D03*
X93500000Y-104225000D03*
D22*
X91592400Y-95000000D03*
X91592400Y-115000000D03*
D23*
X84000000Y-104252500D03*
X84000000Y-105827500D03*
D24*
X88000000Y-105825000D03*
X88000000Y-104175000D03*
D25*
X112500000Y-115250000D03*
X114500000Y-116250000D03*
X116500000Y-93750000D03*
X113500000Y-117250000D03*
X115500000Y-116250000D03*
X116500000Y-91750000D03*
X113500000Y-116250000D03*
X113500000Y-92750000D03*
X114500000Y-93750000D03*
X114500000Y-94750000D03*
X115500000Y-118250000D03*
X115500000Y-117250000D03*
X112500000Y-91750000D03*
X112500000Y-116250000D03*
X115500000Y-93750000D03*
X111500000Y-118250000D03*
X112500000Y-118250000D03*
X111500000Y-94750000D03*
X116500000Y-94750000D03*
X116500000Y-92750000D03*
X112500000Y-94750000D03*
X111500000Y-93750000D03*
X113500000Y-118250000D03*
X111500000Y-115250000D03*
X116500000Y-116250000D03*
X113500000Y-115250000D03*
X114500000Y-92750000D03*
X114500000Y-115250000D03*
X115500000Y-94750000D03*
X115500000Y-92750000D03*
X114500000Y-91750000D03*
X112500000Y-93750000D03*
X113500000Y-91750000D03*
X111500000Y-92750000D03*
X116500000Y-115250000D03*
X113500000Y-94750000D03*
X114500000Y-118250000D03*
X115500000Y-115250000D03*
X111500000Y-117250000D03*
X111500000Y-116250000D03*
X111500000Y-91750000D03*
X112500000Y-117250000D03*
X116500000Y-117250000D03*
X113500000Y-93750000D03*
X112500000Y-92750000D03*
X116500000Y-118250000D03*
X115500000Y-91750000D03*
X114500000Y-117250000D03*
X97500000Y-102000000D03*
X98500000Y-103000000D03*
X98500000Y-100000000D03*
X95500000Y-104000000D03*
X95500000Y-101000000D03*
X95500000Y-103000000D03*
X97500000Y-100000000D03*
X97500000Y-103000000D03*
X98500000Y-102000000D03*
X98500000Y-104000000D03*
X98500000Y-101000000D03*
X96500000Y-104000000D03*
X95500000Y-100000000D03*
X96500000Y-100000000D03*
X125000000Y-110000000D03*
X101500000Y-96200500D03*
X95500000Y-102000000D03*
X97500000Y-104000000D03*
X96500000Y-102000000D03*
X96500000Y-103000000D03*
X96500000Y-101000000D03*
X97500000Y-101000000D03*
X120299500Y-96200500D03*
X124250000Y-101000000D03*
X123000000Y-113000000D03*
X123000000Y-99000000D03*
X124750000Y-112500000D03*
X123000000Y-96925500D03*
X125250000Y-105000000D03*
X86000000Y-107000000D03*
X84000000Y-107000000D03*
X111250000Y-113500000D03*
X116000000Y-113500000D03*
X116875000Y-102000000D03*
X116875000Y-101000000D03*
X116000000Y-98000000D03*
X86000000Y-103000000D03*
X111250000Y-98000000D03*
D26*
X125000000Y-110000000D02*
X126450000Y-108550000D01*
X126450000Y-98950000D02*
X123700500Y-96200500D01*
X126450000Y-108550000D02*
X126450000Y-98950000D01*
X123700500Y-96200500D02*
X120299500Y-96200500D01*
X126000000Y-101750000D02*
X126000000Y-105275305D01*
X124250000Y-101000000D02*
X125250000Y-101000000D01*
X118750000Y-105750000D02*
X125525305Y-105750000D01*
X126000000Y-105275305D02*
X125525305Y-105750000D01*
X125250000Y-101000000D02*
X126000000Y-101750000D01*
X123000000Y-113000000D02*
X118750000Y-108750000D01*
X118750000Y-108750000D02*
X118750000Y-106750000D01*
X120750000Y-102524999D02*
X120750000Y-101011827D01*
X118750000Y-103750000D02*
X119524999Y-103750000D01*
X123750000Y-113750000D02*
X122724695Y-113750000D01*
X119524999Y-103750000D02*
X120750000Y-102524999D01*
X117975001Y-103750000D02*
X117500000Y-104225001D01*
X120750000Y-101011827D02*
X122761827Y-99000000D01*
X122761827Y-99000000D02*
X123000000Y-99000000D01*
X122724695Y-113750000D02*
X117500000Y-108525305D01*
X117500000Y-108525305D02*
X117500000Y-104225001D01*
X118750000Y-103750000D02*
X117975001Y-103750000D01*
X124750000Y-112750000D02*
X123750000Y-113750000D01*
X124750000Y-112500000D02*
X124750000Y-112750000D01*
X118750000Y-101250000D02*
X118750000Y-102750000D01*
X123000000Y-97000000D02*
X118750000Y-101250000D01*
X123000000Y-96925500D02*
X123000000Y-97000000D01*
X119500000Y-104750000D02*
X120725000Y-103525000D01*
X118750000Y-104750000D02*
X119500000Y-104750000D01*
X125275000Y-103525000D02*
X125550480Y-103800480D01*
X120725000Y-103525000D02*
X125275000Y-103525000D01*
X125550480Y-104699520D02*
X125250000Y-105000000D01*
X125550480Y-103800480D02*
X125550480Y-104699520D01*
X86000000Y-105827500D02*
X86000000Y-107000000D01*
X84000000Y-105827500D02*
X84000000Y-107000000D01*
X116000000Y-113500000D02*
X111250000Y-113500000D01*
X113575000Y-102720000D02*
X116155000Y-102720000D01*
X116155000Y-102720000D02*
X116875000Y-102000000D01*
X111875000Y-102070000D02*
X111875000Y-105580000D01*
X112945000Y-101000000D02*
X111875000Y-102070000D01*
X111875000Y-105580000D02*
X113575000Y-107280000D01*
X116875000Y-101000000D02*
X112945000Y-101000000D01*
X86000000Y-103000000D02*
X86825000Y-103000000D01*
X86825000Y-103000000D02*
X88000000Y-104175000D01*
X111250000Y-98000000D02*
X116000000Y-98000000D01*
X88000000Y-105825000D02*
X86427500Y-104252500D01*
X86427500Y-104252500D02*
X86000000Y-104252500D01*
X84000000Y-104252500D02*
X86000000Y-104252500D01*
G04 #@! TA.AperFunction,Conductor*
G36*
X123668205Y-91120502D02*
G01*
X123714698Y-91174158D01*
X123724802Y-91244432D01*
X123712351Y-91283703D01*
X123607467Y-91489548D01*
X123607463Y-91489556D01*
X123468168Y-91852431D01*
X123367561Y-92227902D01*
X123306752Y-92611832D01*
X123286411Y-92999993D01*
X123286411Y-93000006D01*
X123306752Y-93388167D01*
X123367561Y-93772097D01*
X123468168Y-94147568D01*
X123607463Y-94510443D01*
X123607467Y-94510451D01*
X123783938Y-94856795D01*
X123995637Y-95182785D01*
X123995649Y-95182802D01*
X124240253Y-95484862D01*
X124240267Y-95484877D01*
X124369147Y-95613757D01*
X124370153Y-95615600D01*
X124374934Y-95619544D01*
X124515122Y-95759732D01*
X124515137Y-95759746D01*
X124817197Y-96004350D01*
X124817214Y-96004362D01*
X124826777Y-96010572D01*
X125143205Y-96216062D01*
X125489547Y-96392532D01*
X125489551Y-96392533D01*
X125489556Y-96392536D01*
X125852431Y-96531831D01*
X125852436Y-96531832D01*
X125852438Y-96531833D01*
X126227901Y-96632438D01*
X126611824Y-96693246D01*
X126611826Y-96693246D01*
X126611832Y-96693247D01*
X126999994Y-96713589D01*
X127000000Y-96713589D01*
X127000006Y-96713589D01*
X127388167Y-96693247D01*
X127388171Y-96693246D01*
X127388176Y-96693246D01*
X127772099Y-96632438D01*
X128147562Y-96531833D01*
X128147565Y-96531831D01*
X128147568Y-96531831D01*
X128510443Y-96392536D01*
X128510444Y-96392535D01*
X128510453Y-96392532D01*
X128716297Y-96287648D01*
X128786074Y-96274545D01*
X128851859Y-96301245D01*
X128892765Y-96359273D01*
X128899500Y-96399916D01*
X128899500Y-113600084D01*
X128879498Y-113668205D01*
X128825842Y-113714698D01*
X128755568Y-113724802D01*
X128716298Y-113712351D01*
X128510453Y-113607468D01*
X128510452Y-113607467D01*
X128510451Y-113607467D01*
X128510443Y-113607463D01*
X128147568Y-113468168D01*
X127772097Y-113367561D01*
X127388167Y-113306752D01*
X127000006Y-113286411D01*
X126999994Y-113286411D01*
X126611832Y-113306752D01*
X126227902Y-113367561D01*
X125852431Y-113468168D01*
X125489556Y-113607463D01*
X125489548Y-113607467D01*
X125143205Y-113783938D01*
X124817203Y-113995645D01*
X124817200Y-113995647D01*
X124515137Y-114240253D01*
X124386594Y-114368796D01*
X124362075Y-114382184D01*
X124355916Y-114398004D01*
X124345232Y-114410158D01*
X124240253Y-114515137D01*
X123995647Y-114817200D01*
X123995645Y-114817203D01*
X123783938Y-115143205D01*
X123607467Y-115489548D01*
X123607463Y-115489556D01*
X123468168Y-115852431D01*
X123367561Y-116227902D01*
X123306752Y-116611832D01*
X123286411Y-116999993D01*
X123286411Y-117000006D01*
X123306752Y-117388167D01*
X123367561Y-117772097D01*
X123468168Y-118147568D01*
X123607463Y-118510443D01*
X123607467Y-118510451D01*
X123712351Y-118716297D01*
X123725455Y-118786074D01*
X123698755Y-118851859D01*
X123640727Y-118892765D01*
X123600084Y-118899500D01*
X110639500Y-118899500D01*
X110571379Y-118879498D01*
X110524886Y-118825842D01*
X110513500Y-118773500D01*
X110513500Y-114546439D01*
X110533502Y-114478318D01*
X110583898Y-114433371D01*
X110591807Y-114429482D01*
X110592013Y-114429398D01*
X110595444Y-114427694D01*
X110595549Y-114427643D01*
X110595552Y-114427642D01*
X110716200Y-114345143D01*
X110716206Y-114345135D01*
X110720082Y-114341579D01*
X110783792Y-114310249D01*
X110854327Y-114318337D01*
X110856493Y-114319276D01*
X110967712Y-114368794D01*
X111154513Y-114408500D01*
X111345487Y-114408500D01*
X111532288Y-114368794D01*
X111706752Y-114291118D01*
X111861253Y-114178866D01*
X111864563Y-114175190D01*
X111925009Y-114137950D01*
X111958200Y-114133500D01*
X115291800Y-114133500D01*
X115359921Y-114153502D01*
X115385437Y-114175190D01*
X115388747Y-114178866D01*
X115543248Y-114291118D01*
X115717712Y-114368794D01*
X115904513Y-114408500D01*
X116095487Y-114408500D01*
X116282288Y-114368794D01*
X116456752Y-114291118D01*
X116611253Y-114178866D01*
X116634091Y-114153502D01*
X116739034Y-114036951D01*
X116739035Y-114036949D01*
X116739040Y-114036944D01*
X116834527Y-113871556D01*
X116893542Y-113689928D01*
X116894705Y-113678862D01*
X116921716Y-113613208D01*
X116979938Y-113572577D01*
X116995098Y-113568979D01*
X116995028Y-113568656D01*
X116999413Y-113567701D01*
X116999422Y-113567700D01*
X117139657Y-113526523D01*
X117262612Y-113447505D01*
X117315011Y-113402101D01*
X117316101Y-113401206D01*
X117397945Y-113306752D01*
X117411982Y-113290552D01*
X117472698Y-113157603D01*
X117492700Y-113089482D01*
X117513500Y-112944813D01*
X117513500Y-109738899D01*
X117533502Y-109670778D01*
X117587158Y-109624285D01*
X117657432Y-109614181D01*
X117722012Y-109643675D01*
X117728595Y-109649804D01*
X122217448Y-114138657D01*
X122227415Y-114151097D01*
X122227642Y-114150910D01*
X122232694Y-114157017D01*
X122232695Y-114157018D01*
X122283790Y-114204999D01*
X122304926Y-114226135D01*
X122310465Y-114230431D01*
X122314977Y-114234285D01*
X122336548Y-114254542D01*
X122349373Y-114266585D01*
X122349377Y-114266588D01*
X122367125Y-114276345D01*
X122383652Y-114287201D01*
X122388700Y-114291117D01*
X122399655Y-114299614D01*
X122442954Y-114318351D01*
X122448280Y-114320960D01*
X122489630Y-114343693D01*
X122489633Y-114343694D01*
X122489635Y-114343695D01*
X122509257Y-114348733D01*
X122527958Y-114355135D01*
X122540509Y-114360567D01*
X122546547Y-114363180D01*
X122546548Y-114363180D01*
X122546550Y-114363181D01*
X122593172Y-114370564D01*
X122598957Y-114371763D01*
X122644665Y-114383500D01*
X122664919Y-114383500D01*
X122684629Y-114385051D01*
X122686836Y-114385400D01*
X122704638Y-114388220D01*
X122739167Y-114384956D01*
X122751612Y-114383780D01*
X122757545Y-114383500D01*
X123666147Y-114383500D01*
X123681988Y-114385249D01*
X123682016Y-114384956D01*
X123689902Y-114385700D01*
X123689909Y-114385702D01*
X123759958Y-114383500D01*
X123789856Y-114383500D01*
X123796818Y-114382619D01*
X123802719Y-114382154D01*
X123849889Y-114380673D01*
X123869347Y-114375019D01*
X123888694Y-114371013D01*
X123908797Y-114368474D01*
X123952679Y-114351099D01*
X123958274Y-114349183D01*
X123986816Y-114340891D01*
X124003591Y-114336019D01*
X124003595Y-114336017D01*
X124021026Y-114325708D01*
X124038780Y-114317009D01*
X124057617Y-114309552D01*
X124095786Y-114281818D01*
X124100744Y-114278562D01*
X124141362Y-114254542D01*
X124155685Y-114240218D01*
X124170711Y-114227383D01*
X124182078Y-114219125D01*
X124188621Y-114216790D01*
X124200414Y-114199386D01*
X124217202Y-114179092D01*
X124221162Y-114174740D01*
X125006441Y-113389461D01*
X125044282Y-113363453D01*
X125206752Y-113291118D01*
X125361253Y-113178866D01*
X125431814Y-113100500D01*
X125489034Y-113036951D01*
X125489035Y-113036949D01*
X125489040Y-113036944D01*
X125584527Y-112871556D01*
X125643542Y-112689928D01*
X125663504Y-112500000D01*
X125643542Y-112310072D01*
X125584527Y-112128444D01*
X125489040Y-111963056D01*
X125489038Y-111963054D01*
X125489034Y-111963048D01*
X125361255Y-111821135D01*
X125206752Y-111708882D01*
X125032288Y-111631206D01*
X124845487Y-111591500D01*
X124654513Y-111591500D01*
X124467711Y-111631206D01*
X124293247Y-111708882D01*
X124138744Y-111821135D01*
X124010965Y-111963048D01*
X124010958Y-111963058D01*
X123915476Y-112128438D01*
X123915472Y-112128445D01*
X123856234Y-112310758D01*
X123816160Y-112369364D01*
X123750763Y-112397000D01*
X123680806Y-112384893D01*
X123642764Y-112356131D01*
X123611252Y-112321133D01*
X123456752Y-112208882D01*
X123282288Y-112131206D01*
X123095487Y-112091500D01*
X123039594Y-112091500D01*
X122971473Y-112071498D01*
X122950499Y-112054595D01*
X119420405Y-108524500D01*
X119386379Y-108462188D01*
X119385127Y-108450544D01*
X121216500Y-108450544D01*
X121227112Y-108554425D01*
X121282885Y-108722738D01*
X121375970Y-108873652D01*
X121375975Y-108873658D01*
X121501341Y-108999024D01*
X121501347Y-108999029D01*
X121501348Y-108999030D01*
X121652262Y-109092115D01*
X121820574Y-109147887D01*
X121924455Y-109158500D01*
X123325544Y-109158499D01*
X123429426Y-109147887D01*
X123597738Y-109092115D01*
X123748652Y-108999030D01*
X123874030Y-108873652D01*
X123967115Y-108722738D01*
X124022887Y-108554426D01*
X124033500Y-108450545D01*
X124033499Y-107649456D01*
X124022887Y-107545574D01*
X123967115Y-107377262D01*
X123874030Y-107226348D01*
X123874029Y-107226347D01*
X123874024Y-107226341D01*
X123748658Y-107100975D01*
X123748652Y-107100970D01*
X123597738Y-107007885D01*
X123513582Y-106979999D01*
X123429427Y-106952113D01*
X123429420Y-106952112D01*
X123325553Y-106941500D01*
X121924455Y-106941500D01*
X121820574Y-106952112D01*
X121652261Y-107007885D01*
X121501347Y-107100970D01*
X121501341Y-107100975D01*
X121375975Y-107226341D01*
X121375970Y-107226347D01*
X121282885Y-107377262D01*
X121227113Y-107545572D01*
X121227112Y-107545579D01*
X121216500Y-107649446D01*
X121216500Y-108450544D01*
X119385127Y-108450544D01*
X119383500Y-108435405D01*
X119383500Y-107677861D01*
X119403502Y-107609740D01*
X119457158Y-107563247D01*
X119474348Y-107556864D01*
X119478828Y-107555562D01*
X119478831Y-107555562D01*
X119638601Y-107509145D01*
X119781807Y-107424453D01*
X119899453Y-107306807D01*
X119968576Y-107189927D01*
X119984143Y-107163605D01*
X119984143Y-107163603D01*
X119984145Y-107163601D01*
X120030562Y-107003831D01*
X120033500Y-106966502D01*
X120033500Y-106533498D01*
X120033500Y-106533494D01*
X120032390Y-106519388D01*
X120046984Y-106449908D01*
X120096826Y-106399347D01*
X120158001Y-106383500D01*
X125441452Y-106383500D01*
X125457293Y-106385249D01*
X125457321Y-106384956D01*
X125465207Y-106385700D01*
X125465214Y-106385702D01*
X125535263Y-106383500D01*
X125565161Y-106383500D01*
X125572123Y-106382619D01*
X125578024Y-106382154D01*
X125625194Y-106380673D01*
X125644652Y-106375019D01*
X125663993Y-106371013D01*
X125674715Y-106369659D01*
X125744802Y-106380968D01*
X125797652Y-106428375D01*
X125816500Y-106494666D01*
X125816500Y-108235405D01*
X125796498Y-108303526D01*
X125779595Y-108324500D01*
X125049500Y-109054595D01*
X124987188Y-109088621D01*
X124960405Y-109091500D01*
X124904513Y-109091500D01*
X124717711Y-109131206D01*
X124543247Y-109208882D01*
X124388744Y-109321135D01*
X124260965Y-109463048D01*
X124260958Y-109463058D01*
X124165476Y-109628438D01*
X124165473Y-109628445D01*
X124106457Y-109810072D01*
X124086496Y-110000000D01*
X124106457Y-110189927D01*
X124136526Y-110282470D01*
X124165473Y-110371556D01*
X124165476Y-110371561D01*
X124260958Y-110536941D01*
X124260965Y-110536951D01*
X124388744Y-110678864D01*
X124388747Y-110678866D01*
X124543248Y-110791118D01*
X124717712Y-110868794D01*
X124904513Y-110908500D01*
X125095487Y-110908500D01*
X125282288Y-110868794D01*
X125456752Y-110791118D01*
X125611253Y-110678866D01*
X125655408Y-110629827D01*
X125739034Y-110536951D01*
X125739035Y-110536949D01*
X125739040Y-110536944D01*
X125834527Y-110371556D01*
X125893542Y-110189928D01*
X125910907Y-110024703D01*
X125937920Y-109959048D01*
X125947113Y-109948789D01*
X126838657Y-109057245D01*
X126851092Y-109047284D01*
X126850905Y-109047057D01*
X126857009Y-109042005D01*
X126857018Y-109042000D01*
X126904999Y-108990904D01*
X126926135Y-108969769D01*
X126930437Y-108964221D01*
X126934267Y-108959735D01*
X126966586Y-108925321D01*
X126976345Y-108907567D01*
X126987204Y-108891038D01*
X126999614Y-108875040D01*
X127018354Y-108831732D01*
X127020965Y-108826404D01*
X127043694Y-108785061D01*
X127043695Y-108785060D01*
X127048733Y-108765435D01*
X127055138Y-108746730D01*
X127063181Y-108728145D01*
X127070561Y-108681547D01*
X127071762Y-108675740D01*
X127083500Y-108630030D01*
X127083500Y-108609775D01*
X127085051Y-108590063D01*
X127088220Y-108570057D01*
X127083914Y-108524500D01*
X127083780Y-108523080D01*
X127083500Y-108517148D01*
X127083500Y-99033855D01*
X127085249Y-99018014D01*
X127084956Y-99017987D01*
X127085701Y-99010094D01*
X127085702Y-99010091D01*
X127083500Y-98940041D01*
X127083500Y-98910144D01*
X127082619Y-98903178D01*
X127082155Y-98897282D01*
X127080673Y-98850110D01*
X127075022Y-98830663D01*
X127071012Y-98811300D01*
X127070857Y-98810072D01*
X127068474Y-98791203D01*
X127068440Y-98791118D01*
X127064299Y-98780660D01*
X127051099Y-98747320D01*
X127049179Y-98741711D01*
X127036018Y-98696407D01*
X127025705Y-98678969D01*
X127017010Y-98661222D01*
X127009552Y-98642383D01*
X126981821Y-98604215D01*
X126978562Y-98599255D01*
X126968729Y-98582628D01*
X126954542Y-98558637D01*
X126954541Y-98558635D01*
X126940218Y-98544312D01*
X126927377Y-98529279D01*
X126915471Y-98512892D01*
X126908029Y-98506735D01*
X126879108Y-98482810D01*
X126874736Y-98478831D01*
X124207744Y-95811839D01*
X124197779Y-95799401D01*
X124197552Y-95799590D01*
X124192501Y-95793484D01*
X124192500Y-95793482D01*
X124141421Y-95745516D01*
X124120277Y-95724371D01*
X124120272Y-95724366D01*
X124114725Y-95720063D01*
X124110217Y-95716212D01*
X124075825Y-95683917D01*
X124075819Y-95683913D01*
X124058063Y-95674151D01*
X124041547Y-95663302D01*
X124025541Y-95650886D01*
X123994789Y-95637578D01*
X123982240Y-95632148D01*
X123976908Y-95629536D01*
X123935561Y-95606805D01*
X123915936Y-95601766D01*
X123897236Y-95595364D01*
X123878645Y-95587319D01*
X123878643Y-95587318D01*
X123878642Y-95587318D01*
X123832042Y-95579937D01*
X123826229Y-95578733D01*
X123780530Y-95567000D01*
X123760276Y-95567000D01*
X123740566Y-95565449D01*
X123720557Y-95562280D01*
X123720556Y-95562280D01*
X123673583Y-95566720D01*
X123667650Y-95567000D01*
X121007700Y-95567000D01*
X120939579Y-95546998D01*
X120914063Y-95525310D01*
X120910752Y-95521633D01*
X120756252Y-95409382D01*
X120581788Y-95331706D01*
X120394987Y-95292000D01*
X120204013Y-95292000D01*
X120017211Y-95331706D01*
X119842747Y-95409382D01*
X119688244Y-95521635D01*
X119560465Y-95663548D01*
X119560458Y-95663558D01*
X119464976Y-95828938D01*
X119464973Y-95828945D01*
X119405957Y-96010572D01*
X119385996Y-96200500D01*
X119405957Y-96390427D01*
X119436026Y-96482970D01*
X119464973Y-96572056D01*
X119464976Y-96572061D01*
X119560458Y-96737441D01*
X119560465Y-96737451D01*
X119688244Y-96879364D01*
X119688247Y-96879366D01*
X119842748Y-96991618D01*
X120017212Y-97069294D01*
X120204013Y-97109000D01*
X120394987Y-97109000D01*
X120581788Y-97069294D01*
X120756252Y-96991618D01*
X120910753Y-96879366D01*
X120914063Y-96875690D01*
X120974509Y-96838450D01*
X121007700Y-96834000D01*
X121963428Y-96834000D01*
X122031549Y-96854002D01*
X122078042Y-96907658D01*
X122088741Y-96946859D01*
X122088976Y-96949100D01*
X122076187Y-97018936D01*
X122052758Y-97051336D01*
X118361336Y-100742757D01*
X118348901Y-100752721D01*
X118349089Y-100752948D01*
X118342980Y-100758001D01*
X118295016Y-100809078D01*
X118273866Y-100830227D01*
X118269560Y-100835777D01*
X118265714Y-100840279D01*
X118233417Y-100874674D01*
X118233411Y-100874683D01*
X118223651Y-100892435D01*
X118212803Y-100908950D01*
X118200386Y-100924958D01*
X118181645Y-100968264D01*
X118179034Y-100973594D01*
X118156305Y-101014939D01*
X118156303Y-101014944D01*
X118151267Y-101034559D01*
X118144864Y-101053262D01*
X118136819Y-101071852D01*
X118129437Y-101118456D01*
X118128233Y-101124268D01*
X118116500Y-101169968D01*
X118116500Y-101190223D01*
X118114949Y-101209933D01*
X118111780Y-101229942D01*
X118111780Y-101229943D01*
X118116220Y-101276917D01*
X118116500Y-101282850D01*
X118116500Y-101822138D01*
X118096498Y-101890259D01*
X118042842Y-101936752D01*
X118025651Y-101943135D01*
X117934440Y-101969633D01*
X117863444Y-101969430D01*
X117803828Y-101930875D01*
X117774521Y-101866210D01*
X117773979Y-101861805D01*
X117773217Y-101854559D01*
X117768542Y-101810072D01*
X117709527Y-101628444D01*
X117671742Y-101563000D01*
X117655005Y-101494005D01*
X117671743Y-101436999D01*
X117709527Y-101371556D01*
X117768542Y-101189928D01*
X117788504Y-101000000D01*
X117768542Y-100810072D01*
X117709527Y-100628444D01*
X117614040Y-100463056D01*
X117614038Y-100463054D01*
X117614034Y-100463048D01*
X117486255Y-100321135D01*
X117331752Y-100208882D01*
X117157288Y-100131206D01*
X116970487Y-100091500D01*
X116779513Y-100091500D01*
X116592711Y-100131206D01*
X116418247Y-100208882D01*
X116263747Y-100321133D01*
X116260437Y-100324810D01*
X116199991Y-100362050D01*
X116166800Y-100366500D01*
X113028854Y-100366500D01*
X113013012Y-100364750D01*
X113012985Y-100365044D01*
X113005092Y-100364297D01*
X112935029Y-100366500D01*
X112905144Y-100366500D01*
X112905140Y-100366500D01*
X112905129Y-100366501D01*
X112898190Y-100367377D01*
X112892277Y-100367843D01*
X112845111Y-100369325D01*
X112825650Y-100374979D01*
X112806304Y-100378985D01*
X112786204Y-100381525D01*
X112786203Y-100381525D01*
X112742335Y-100398893D01*
X112736720Y-100400815D01*
X112691413Y-100413978D01*
X112691404Y-100413982D01*
X112673962Y-100424297D01*
X112656215Y-100432991D01*
X112637383Y-100440447D01*
X112637381Y-100440448D01*
X112599214Y-100468178D01*
X112594254Y-100471436D01*
X112553636Y-100495459D01*
X112553633Y-100495461D01*
X112539312Y-100509783D01*
X112524283Y-100522619D01*
X112507893Y-100534527D01*
X112477808Y-100570892D01*
X112473812Y-100575283D01*
X111486340Y-101562754D01*
X111473903Y-101572719D01*
X111474091Y-101572946D01*
X111467982Y-101577999D01*
X111420015Y-101629079D01*
X111398866Y-101650227D01*
X111394560Y-101655777D01*
X111390714Y-101660279D01*
X111358417Y-101694674D01*
X111358411Y-101694683D01*
X111348651Y-101712435D01*
X111337803Y-101728950D01*
X111325386Y-101744958D01*
X111306645Y-101788264D01*
X111304034Y-101793594D01*
X111281305Y-101834939D01*
X111281303Y-101834944D01*
X111276267Y-101854559D01*
X111269864Y-101873262D01*
X111261819Y-101891852D01*
X111254437Y-101938456D01*
X111253233Y-101944268D01*
X111241500Y-101989968D01*
X111241500Y-102010223D01*
X111239949Y-102029933D01*
X111236780Y-102049942D01*
X111236780Y-102049943D01*
X111241220Y-102096917D01*
X111241500Y-102102850D01*
X111241500Y-105496146D01*
X111239751Y-105511988D01*
X111240044Y-105512016D01*
X111239298Y-105519907D01*
X111241500Y-105589957D01*
X111241500Y-105619851D01*
X111241501Y-105619872D01*
X111242378Y-105626820D01*
X111242844Y-105632732D01*
X111244326Y-105679888D01*
X111244327Y-105679893D01*
X111249977Y-105699339D01*
X111253986Y-105718697D01*
X111256525Y-105738793D01*
X111256526Y-105738799D01*
X111273893Y-105782662D01*
X111275816Y-105788279D01*
X111288982Y-105833593D01*
X111292454Y-105839464D01*
X111310000Y-105903602D01*
X111310000Y-107671185D01*
X111309672Y-107677593D01*
X111309389Y-107680357D01*
X111309158Y-107682615D01*
X111303421Y-107709391D01*
X111293190Y-107740267D01*
X111280826Y-107766782D01*
X111266220Y-107790462D01*
X111248074Y-107813410D01*
X111228410Y-107833074D01*
X111205462Y-107851220D01*
X111181782Y-107865826D01*
X111155268Y-107878189D01*
X111135613Y-107884702D01*
X111124391Y-107888421D01*
X111097615Y-107894158D01*
X111095187Y-107894407D01*
X111092595Y-107894672D01*
X111086185Y-107895000D01*
X108725990Y-107895000D01*
X108637267Y-107904539D01*
X108616851Y-107906734D01*
X108616848Y-107906734D01*
X108616844Y-107906735D01*
X108616840Y-107906735D01*
X108564519Y-107918117D01*
X108564498Y-107918123D01*
X108460345Y-107952788D01*
X108337385Y-108031810D01*
X108285019Y-108077185D01*
X108283904Y-108078099D01*
X108188019Y-108188758D01*
X108188017Y-108188761D01*
X108127301Y-108321710D01*
X108107302Y-108389822D01*
X108107300Y-108389829D01*
X108086500Y-108534503D01*
X108086500Y-110360500D01*
X108066498Y-110428621D01*
X108012842Y-110475114D01*
X107960500Y-110486500D01*
X84207136Y-110486500D01*
X84150366Y-110491240D01*
X84121980Y-110493610D01*
X84121981Y-110493610D01*
X84105429Y-110496393D01*
X84094358Y-110498255D01*
X84073463Y-110500000D01*
X60327756Y-110500000D01*
X60259635Y-110479998D01*
X60216635Y-110433397D01*
X60174821Y-110355171D01*
X60165370Y-110332356D01*
X60121384Y-110187353D01*
X60116567Y-110163131D01*
X60100804Y-110003084D01*
X60100500Y-109996905D01*
X60100500Y-107500004D01*
X64904843Y-107500004D01*
X64923592Y-107774116D01*
X64923593Y-107774122D01*
X64923594Y-107774130D01*
X64945218Y-107878190D01*
X64979496Y-108043146D01*
X64979498Y-108043154D01*
X64991990Y-108078302D01*
X65071513Y-108302058D01*
X65191954Y-108534500D01*
X65197928Y-108546028D01*
X65235925Y-108599857D01*
X65356379Y-108770502D01*
X65454011Y-108875040D01*
X65542488Y-108969776D01*
X65543925Y-108971314D01*
X65757067Y-109144718D01*
X65991836Y-109287484D01*
X66243859Y-109396953D01*
X66508440Y-109471085D01*
X66603540Y-109484156D01*
X66780640Y-109508499D01*
X66780651Y-109508500D01*
X67055421Y-109508500D01*
X67055431Y-109508499D01*
X67184981Y-109490692D01*
X67327632Y-109471085D01*
X67592213Y-109396953D01*
X67844236Y-109287484D01*
X68079005Y-109144718D01*
X68292147Y-108971314D01*
X68479693Y-108770502D01*
X68638147Y-108546023D01*
X68764559Y-108302058D01*
X68856574Y-108043153D01*
X68912478Y-107774130D01*
X68926903Y-107563247D01*
X68931229Y-107500004D01*
X68931229Y-107499995D01*
X68912479Y-107225883D01*
X68912478Y-107225877D01*
X68912478Y-107225870D01*
X68856574Y-106956847D01*
X68764559Y-106697942D01*
X68638147Y-106453977D01*
X68479693Y-106229498D01*
X68292147Y-106028686D01*
X68079005Y-105855282D01*
X67844236Y-105712516D01*
X67844237Y-105712516D01*
X67844233Y-105712514D01*
X67592216Y-105603048D01*
X67592214Y-105603047D01*
X67592213Y-105603047D01*
X67439611Y-105560290D01*
X67327629Y-105528914D01*
X67055431Y-105491500D01*
X67055421Y-105491500D01*
X66780651Y-105491500D01*
X66780640Y-105491500D01*
X66508442Y-105528914D01*
X66243855Y-105603048D01*
X65991838Y-105712514D01*
X65757064Y-105855284D01*
X65543922Y-106028688D01*
X65356379Y-106229498D01*
X65197928Y-106453971D01*
X65071513Y-106697941D01*
X64979498Y-106956845D01*
X64979496Y-106956853D01*
X64968892Y-107007885D01*
X64934688Y-107172486D01*
X64923593Y-107225877D01*
X64923592Y-107225883D01*
X64904843Y-107499995D01*
X64904843Y-107500004D01*
X60100500Y-107500004D01*
X60100500Y-105126000D01*
X60120502Y-105057879D01*
X60174158Y-105011386D01*
X60226500Y-105000000D01*
X83039008Y-105000000D01*
X83107129Y-105020002D01*
X83153622Y-105073658D01*
X83163726Y-105143932D01*
X83146249Y-105192147D01*
X83080151Y-105299307D01*
X83026675Y-105460690D01*
X83016500Y-105560280D01*
X83016500Y-106094710D01*
X83026675Y-106194309D01*
X83026676Y-106194314D01*
X83073632Y-106336018D01*
X83080151Y-106355692D01*
X83166076Y-106494998D01*
X83184813Y-106563478D01*
X83167958Y-106624138D01*
X83165475Y-106628437D01*
X83165470Y-106628449D01*
X83106457Y-106810071D01*
X83086496Y-107000000D01*
X83106457Y-107189927D01*
X83136526Y-107282470D01*
X83165473Y-107371556D01*
X83165476Y-107371561D01*
X83260958Y-107536941D01*
X83260965Y-107536951D01*
X83388744Y-107678864D01*
X83388747Y-107678866D01*
X83543248Y-107791118D01*
X83717712Y-107868794D01*
X83904513Y-107908500D01*
X84095487Y-107908500D01*
X84282288Y-107868794D01*
X84456752Y-107791118D01*
X84611253Y-107678866D01*
X84637743Y-107649446D01*
X84739034Y-107536951D01*
X84739035Y-107536949D01*
X84739040Y-107536944D01*
X84834527Y-107371556D01*
X84880167Y-107231090D01*
X84920241Y-107172486D01*
X84985638Y-107144849D01*
X85055594Y-107156956D01*
X85107900Y-107204962D01*
X85119832Y-107231089D01*
X85165473Y-107371556D01*
X85165476Y-107371561D01*
X85260958Y-107536941D01*
X85260965Y-107536951D01*
X85388744Y-107678864D01*
X85388747Y-107678866D01*
X85543248Y-107791118D01*
X85717712Y-107868794D01*
X85904513Y-107908500D01*
X86095487Y-107908500D01*
X86282288Y-107868794D01*
X86456752Y-107791118D01*
X86611253Y-107678866D01*
X86637743Y-107649446D01*
X86739034Y-107536951D01*
X86739035Y-107536949D01*
X86739040Y-107536944D01*
X86834527Y-107371556D01*
X86893542Y-107189928D01*
X86913504Y-107000000D01*
X86893542Y-106810072D01*
X86834527Y-106628444D01*
X86832045Y-106624145D01*
X86815307Y-106555150D01*
X86833921Y-106495002D01*
X86901001Y-106386249D01*
X86953784Y-106338774D01*
X87023859Y-106327371D01*
X87088975Y-106355664D01*
X87116067Y-106387214D01*
X87163184Y-106465155D01*
X87163188Y-106465160D01*
X87284839Y-106586811D01*
X87284844Y-106586815D01*
X87284845Y-106586816D01*
X87432087Y-106675827D01*
X87596351Y-106727013D01*
X87667735Y-106733500D01*
X88332264Y-106733499D01*
X88403649Y-106727013D01*
X88567913Y-106675827D01*
X88715155Y-106586816D01*
X88836816Y-106465155D01*
X88925827Y-106317913D01*
X88977013Y-106153649D01*
X88983500Y-106082265D01*
X88983499Y-105567736D01*
X88977013Y-105496351D01*
X88925827Y-105332087D01*
X88840647Y-105191183D01*
X88822523Y-105122541D01*
X88844388Y-105054995D01*
X88899300Y-105009992D01*
X88948476Y-105000000D01*
X92711127Y-105000000D01*
X92779248Y-105020002D01*
X92789273Y-105027161D01*
X92791955Y-105029281D01*
X92791957Y-105029282D01*
X92791960Y-105029285D01*
X92937899Y-105119302D01*
X93100664Y-105173236D01*
X93120756Y-105175288D01*
X93201120Y-105183500D01*
X93201128Y-105183500D01*
X93798880Y-105183500D01*
X93871936Y-105176035D01*
X93899336Y-105173236D01*
X94062101Y-105119302D01*
X94208040Y-105029285D01*
X94208044Y-105029281D01*
X94210727Y-105027161D01*
X94212911Y-105026279D01*
X94214286Y-105025432D01*
X94214430Y-105025666D01*
X94276569Y-105000602D01*
X94288873Y-105000000D01*
X102500000Y-105000000D01*
X102500000Y-98000000D01*
X110336496Y-98000000D01*
X110356457Y-98189927D01*
X110386526Y-98282470D01*
X110415473Y-98371556D01*
X110415476Y-98371561D01*
X110510958Y-98536941D01*
X110510965Y-98536951D01*
X110638744Y-98678864D01*
X110638747Y-98678866D01*
X110793248Y-98791118D01*
X110967712Y-98868794D01*
X111154513Y-98908500D01*
X111345487Y-98908500D01*
X111532288Y-98868794D01*
X111706752Y-98791118D01*
X111861253Y-98678866D01*
X111864563Y-98675190D01*
X111925009Y-98637950D01*
X111958200Y-98633500D01*
X115291800Y-98633500D01*
X115359921Y-98653502D01*
X115385437Y-98675190D01*
X115388747Y-98678866D01*
X115543248Y-98791118D01*
X115717712Y-98868794D01*
X115904513Y-98908500D01*
X116095487Y-98908500D01*
X116282288Y-98868794D01*
X116456752Y-98791118D01*
X116611253Y-98678866D01*
X116614563Y-98675190D01*
X116739034Y-98536951D01*
X116739035Y-98536949D01*
X116739040Y-98536944D01*
X116834527Y-98371556D01*
X116893542Y-98189928D01*
X116913504Y-98000000D01*
X116893542Y-97810072D01*
X116834527Y-97628444D01*
X116739040Y-97463056D01*
X116739038Y-97463054D01*
X116739034Y-97463048D01*
X116611255Y-97321135D01*
X116456752Y-97208882D01*
X116282288Y-97131206D01*
X116095487Y-97091500D01*
X115904513Y-97091500D01*
X115717711Y-97131206D01*
X115543247Y-97208882D01*
X115388747Y-97321133D01*
X115385437Y-97324810D01*
X115324991Y-97362050D01*
X115291800Y-97366500D01*
X111958200Y-97366500D01*
X111890079Y-97346498D01*
X111864563Y-97324810D01*
X111861252Y-97321133D01*
X111706752Y-97208882D01*
X111532288Y-97131206D01*
X111345487Y-97091500D01*
X111154513Y-97091500D01*
X110967711Y-97131206D01*
X110793247Y-97208882D01*
X110638744Y-97321135D01*
X110510965Y-97463048D01*
X110510958Y-97463058D01*
X110415476Y-97628438D01*
X110415473Y-97628445D01*
X110356457Y-97810072D01*
X110336496Y-98000000D01*
X102500000Y-98000000D01*
X102500000Y-91226500D01*
X102520002Y-91158379D01*
X102573658Y-91111886D01*
X102626000Y-91100500D01*
X123600084Y-91100500D01*
X123668205Y-91120502D01*
G37*
G04 #@! TD.AperFunction*
G04 #@! TA.AperFunction,Conductor*
G36*
X113375892Y-103806395D02*
G01*
X113386989Y-103810072D01*
X113410574Y-103817887D01*
X113514455Y-103828500D01*
X115315544Y-103828499D01*
X115419426Y-103817887D01*
X115433812Y-103813120D01*
X115454109Y-103806395D01*
X115493739Y-103800000D01*
X116797671Y-103800000D01*
X116865792Y-103820002D01*
X116912285Y-103873658D01*
X116922389Y-103943932D01*
X116908087Y-103986698D01*
X116906306Y-103989936D01*
X116906303Y-103989945D01*
X116901267Y-104009560D01*
X116894864Y-104028263D01*
X116886819Y-104046853D01*
X116879437Y-104093457D01*
X116878233Y-104099269D01*
X116866500Y-104144969D01*
X116866500Y-104165224D01*
X116864949Y-104184934D01*
X116861780Y-104204943D01*
X116861780Y-104204944D01*
X116866220Y-104251918D01*
X116866500Y-104257851D01*
X116866500Y-108441451D01*
X116864751Y-108457293D01*
X116865044Y-108457321D01*
X116864298Y-108465212D01*
X116866500Y-108535262D01*
X116866500Y-108565156D01*
X116866501Y-108565177D01*
X116867378Y-108572125D01*
X116867844Y-108578037D01*
X116869326Y-108625193D01*
X116869327Y-108625198D01*
X116874977Y-108644644D01*
X116878986Y-108664002D01*
X116881525Y-108684098D01*
X116881526Y-108684104D01*
X116898893Y-108727967D01*
X116900816Y-108733584D01*
X116913982Y-108778898D01*
X116924294Y-108796336D01*
X116932988Y-108814084D01*
X116940444Y-108832914D01*
X116940449Y-108832925D01*
X116968177Y-108871087D01*
X116971436Y-108876049D01*
X116982451Y-108894673D01*
X117000000Y-108958816D01*
X117000000Y-112944813D01*
X116979998Y-113012934D01*
X116926342Y-113059427D01*
X116856068Y-113069531D01*
X116791488Y-113040037D01*
X116764881Y-113007814D01*
X116739039Y-112963055D01*
X116739034Y-112963048D01*
X116611255Y-112821135D01*
X116456752Y-112708882D01*
X116282288Y-112631206D01*
X116095487Y-112591500D01*
X115904513Y-112591500D01*
X115717711Y-112631206D01*
X115543247Y-112708882D01*
X115388747Y-112821133D01*
X115385437Y-112824810D01*
X115324991Y-112862050D01*
X115291800Y-112866500D01*
X111958200Y-112866500D01*
X111890079Y-112846498D01*
X111864563Y-112824810D01*
X111861252Y-112821133D01*
X111706752Y-112708882D01*
X111532288Y-112631206D01*
X111345487Y-112591500D01*
X111154513Y-112591500D01*
X110967711Y-112631206D01*
X110793247Y-112708882D01*
X110638744Y-112821135D01*
X110510965Y-112963048D01*
X110510958Y-112963058D01*
X110415476Y-113128438D01*
X110415473Y-113128445D01*
X110356457Y-113310072D01*
X110336496Y-113500000D01*
X110356457Y-113689927D01*
X110403616Y-113835063D01*
X110405644Y-113906031D01*
X110368982Y-113966829D01*
X110305270Y-113998154D01*
X110283783Y-114000000D01*
X110000000Y-114000000D01*
X110000000Y-118773500D01*
X109979998Y-118841621D01*
X109926342Y-118888114D01*
X109874000Y-118899500D01*
X87002059Y-118899500D01*
X86997942Y-118899365D01*
X86942286Y-118895717D01*
X86756192Y-118883520D01*
X86748013Y-118882444D01*
X86512423Y-118835581D01*
X86504458Y-118833447D01*
X86277007Y-118756237D01*
X86269386Y-118753081D01*
X86053946Y-118646837D01*
X86046818Y-118642722D01*
X85847093Y-118509270D01*
X85840553Y-118504251D01*
X85659958Y-118345874D01*
X85654125Y-118340041D01*
X85495748Y-118159446D01*
X85490731Y-118152909D01*
X85357274Y-117953176D01*
X85353164Y-117946058D01*
X85246914Y-117730605D01*
X85243764Y-117723000D01*
X85166549Y-117495531D01*
X85164418Y-117487576D01*
X85154940Y-117439928D01*
X85117553Y-117251974D01*
X85116479Y-117243806D01*
X85100635Y-117002061D01*
X85100500Y-116997940D01*
X85100500Y-112862333D01*
X85100500Y-112862326D01*
X85064560Y-112589334D01*
X84993295Y-112323368D01*
X84887923Y-112068979D01*
X84887922Y-112068977D01*
X84887916Y-112068966D01*
X84750251Y-111830524D01*
X84582627Y-111612071D01*
X84582618Y-111612061D01*
X84387938Y-111417381D01*
X84387928Y-111417372D01*
X84169475Y-111249748D01*
X84144136Y-111235119D01*
X84095143Y-111183737D01*
X84081707Y-111114023D01*
X84108093Y-111048112D01*
X84165925Y-111006930D01*
X84207136Y-111000000D01*
X108600000Y-111000000D01*
X108600000Y-108534500D01*
X108620002Y-108466379D01*
X108673658Y-108419886D01*
X108726000Y-108408500D01*
X111115556Y-108408500D01*
X111191097Y-108400781D01*
X111219429Y-108397887D01*
X111387740Y-108342115D01*
X111538653Y-108249031D01*
X111664031Y-108123653D01*
X111757115Y-107972740D01*
X111812887Y-107804429D01*
X111815781Y-107776097D01*
X111823500Y-107700556D01*
X111823500Y-103926000D01*
X111843502Y-103857879D01*
X111897158Y-103811386D01*
X111949500Y-103800000D01*
X113336261Y-103800000D01*
X113375892Y-103806395D01*
G37*
G04 #@! TD.AperFunction*
G04 #@! TA.AperFunction,Conductor*
G36*
X101928621Y-91120502D02*
G01*
X101975114Y-91174158D01*
X101986500Y-91226500D01*
X101986500Y-104360500D01*
X101966498Y-104428621D01*
X101912842Y-104475114D01*
X101860500Y-104486500D01*
X94282596Y-104486500D01*
X94270048Y-104486807D01*
X94251475Y-104487716D01*
X94249490Y-104487861D01*
X94226433Y-104489555D01*
X94084488Y-104524380D01*
X94068996Y-104530629D01*
X94068917Y-104530636D01*
X94019796Y-104550473D01*
X93998119Y-104559217D01*
X93994657Y-104563432D01*
X93974760Y-104569846D01*
X93942239Y-104589907D01*
X93899443Y-104616268D01*
X93899215Y-104616443D01*
X93856141Y-104643013D01*
X93829629Y-104655376D01*
X93804800Y-104663604D01*
X93765165Y-104670000D01*
X93234832Y-104670000D01*
X93195196Y-104663603D01*
X93186895Y-104660852D01*
X93170370Y-104655376D01*
X93143860Y-104643014D01*
X93078796Y-104602882D01*
X93077666Y-104602116D01*
X93056866Y-104588018D01*
X93021159Y-104571711D01*
X92923916Y-104527301D01*
X92855804Y-104507302D01*
X92855797Y-104507300D01*
X92826862Y-104503140D01*
X92711127Y-104486500D01*
X92711123Y-104486500D01*
X89109500Y-104486500D01*
X89041379Y-104466498D01*
X88994886Y-104412842D01*
X88983500Y-104360500D01*
X88983499Y-103917738D01*
X88977013Y-103846353D01*
X88977013Y-103846352D01*
X88925829Y-103682093D01*
X88925827Y-103682088D01*
X88925827Y-103682087D01*
X88836816Y-103534845D01*
X88836815Y-103534844D01*
X88836811Y-103534839D01*
X88715160Y-103413188D01*
X88715155Y-103413184D01*
X88699730Y-103403859D01*
X88567913Y-103324173D01*
X88567912Y-103324172D01*
X88567911Y-103324172D01*
X88567906Y-103324170D01*
X88403646Y-103272986D01*
X88351723Y-103268268D01*
X88332265Y-103266500D01*
X88332262Y-103266500D01*
X88039595Y-103266500D01*
X87971474Y-103246498D01*
X87950499Y-103229595D01*
X87650157Y-102929253D01*
X87332241Y-102611336D01*
X87322279Y-102598901D01*
X87322052Y-102599090D01*
X87317001Y-102592984D01*
X87317000Y-102592982D01*
X87265920Y-102545015D01*
X87261682Y-102540777D01*
X87244777Y-102523871D01*
X87244772Y-102523866D01*
X87239225Y-102519563D01*
X87234717Y-102515712D01*
X87200325Y-102483417D01*
X87200319Y-102483413D01*
X87182563Y-102473651D01*
X87166047Y-102462802D01*
X87150041Y-102450386D01*
X87111343Y-102433640D01*
X87106740Y-102431648D01*
X87101408Y-102429036D01*
X87060061Y-102406305D01*
X87040436Y-102401266D01*
X87021736Y-102394864D01*
X87003145Y-102386819D01*
X87003143Y-102386818D01*
X87003142Y-102386818D01*
X86956542Y-102379437D01*
X86950729Y-102378233D01*
X86905030Y-102366500D01*
X86884776Y-102366500D01*
X86865066Y-102364949D01*
X86845057Y-102361780D01*
X86845056Y-102361780D01*
X86798083Y-102366220D01*
X86792150Y-102366500D01*
X86708200Y-102366500D01*
X86640079Y-102346498D01*
X86614563Y-102324810D01*
X86611252Y-102321133D01*
X86456752Y-102208882D01*
X86282288Y-102131206D01*
X86095487Y-102091500D01*
X85904513Y-102091500D01*
X85717711Y-102131206D01*
X85543247Y-102208882D01*
X85388744Y-102321135D01*
X85260965Y-102463048D01*
X85260958Y-102463058D01*
X85165476Y-102628438D01*
X85165473Y-102628445D01*
X85106457Y-102810072D01*
X85086496Y-103000000D01*
X85106457Y-103189927D01*
X85137836Y-103286500D01*
X85165016Y-103370151D01*
X85165474Y-103371558D01*
X85194723Y-103422219D01*
X85211460Y-103491214D01*
X85188239Y-103558306D01*
X85174704Y-103574308D01*
X85166923Y-103582090D01*
X85104613Y-103616119D01*
X85077822Y-103619000D01*
X84922178Y-103619000D01*
X84854057Y-103598998D01*
X84833083Y-103582095D01*
X84710393Y-103459405D01*
X84710387Y-103459400D01*
X84565692Y-103370151D01*
X84547727Y-103364198D01*
X84404314Y-103316676D01*
X84404311Y-103316675D01*
X84404309Y-103316675D01*
X84304719Y-103306500D01*
X83695289Y-103306500D01*
X83595690Y-103316675D01*
X83595687Y-103316675D01*
X83595686Y-103316676D01*
X83515723Y-103343172D01*
X83434307Y-103370151D01*
X83289612Y-103459400D01*
X83289606Y-103459405D01*
X83169405Y-103579606D01*
X83169400Y-103579612D01*
X83080151Y-103724307D01*
X83026675Y-103885690D01*
X83016500Y-103985280D01*
X83016500Y-103985288D01*
X83016500Y-103985289D01*
X83016500Y-104229352D01*
X83016501Y-104360500D01*
X82996499Y-104428620D01*
X82942844Y-104475113D01*
X82890501Y-104486500D01*
X68940758Y-104486500D01*
X68872637Y-104466498D01*
X68826144Y-104412842D01*
X68816040Y-104342568D01*
X68839890Y-104284991D01*
X68868923Y-104246207D01*
X68868923Y-104246206D01*
X68868925Y-104246204D01*
X68920025Y-104109201D01*
X68926536Y-104048638D01*
X68926536Y-100951362D01*
X68926535Y-100951350D01*
X68920026Y-100890803D01*
X68920024Y-100890795D01*
X68890505Y-100811653D01*
X68868925Y-100753796D01*
X68868924Y-100753794D01*
X68868923Y-100753792D01*
X68781297Y-100636738D01*
X68664243Y-100549112D01*
X68664238Y-100549110D01*
X68527240Y-100498011D01*
X68527232Y-100498009D01*
X68466685Y-100491500D01*
X68466674Y-100491500D01*
X65369398Y-100491500D01*
X65369386Y-100491500D01*
X65308839Y-100498009D01*
X65308831Y-100498011D01*
X65171833Y-100549110D01*
X65171828Y-100549112D01*
X65054774Y-100636738D01*
X64967148Y-100753792D01*
X64967146Y-100753797D01*
X64916047Y-100890795D01*
X64916045Y-100890803D01*
X64909536Y-100951350D01*
X64909536Y-104048649D01*
X64916045Y-104109196D01*
X64916047Y-104109204D01*
X64967146Y-104246202D01*
X64967148Y-104246207D01*
X64996182Y-104284991D01*
X65020993Y-104351511D01*
X65005902Y-104420885D01*
X64955699Y-104471087D01*
X64895314Y-104486500D01*
X60226500Y-104486500D01*
X60158379Y-104466498D01*
X60111886Y-104412842D01*
X60100500Y-104360500D01*
X60100500Y-100003094D01*
X60100804Y-99996915D01*
X60116567Y-99836868D01*
X60121383Y-99812648D01*
X60165371Y-99667639D01*
X60174813Y-99644843D01*
X60246248Y-99511199D01*
X60259960Y-99490678D01*
X60356090Y-99373542D01*
X60373542Y-99356090D01*
X60490678Y-99259960D01*
X60511199Y-99246248D01*
X60644843Y-99174813D01*
X60667639Y-99165371D01*
X60812648Y-99121383D01*
X60836863Y-99116567D01*
X60954484Y-99104982D01*
X60996915Y-99100804D01*
X61003094Y-99100500D01*
X83137667Y-99100500D01*
X83137674Y-99100500D01*
X83384391Y-99068019D01*
X83410659Y-99064561D01*
X83410659Y-99064560D01*
X83410666Y-99064560D01*
X83676632Y-98993295D01*
X83931021Y-98887923D01*
X84169479Y-98750249D01*
X84387928Y-98582628D01*
X84582628Y-98387928D01*
X84750249Y-98169479D01*
X84887923Y-97931021D01*
X84993295Y-97676632D01*
X85064560Y-97410666D01*
X85100500Y-97137674D01*
X85100500Y-97000000D01*
X85100500Y-96898024D01*
X85100500Y-93002059D01*
X85100635Y-92997938D01*
X85116479Y-92756193D01*
X85117553Y-92748027D01*
X85164419Y-92512417D01*
X85166548Y-92504472D01*
X85243766Y-92276994D01*
X85246912Y-92269399D01*
X85353168Y-92053934D01*
X85357270Y-92046829D01*
X85490736Y-91847083D01*
X85495748Y-91840553D01*
X85654134Y-91659948D01*
X85659948Y-91654134D01*
X85840553Y-91495747D01*
X85847083Y-91490736D01*
X86046829Y-91357270D01*
X86053934Y-91353168D01*
X86269399Y-91246912D01*
X86276994Y-91243766D01*
X86504472Y-91166548D01*
X86512417Y-91164419D01*
X86748027Y-91117553D01*
X86756186Y-91116479D01*
X86997942Y-91100634D01*
X87002059Y-91100500D01*
X87101976Y-91100500D01*
X101860500Y-91100500D01*
X101928621Y-91120502D01*
G37*
G04 #@! TD.AperFunction*
M02*
