M48
; DRILL file {KiCad 7.0.9} date 
; FORMAT={-:-/ absolute / metric / decimal}
; #@! TF.CreationDate,2023-12-19T12:33:20+08:00
; #@! TF.GenerationSoftware,Kicad,Pcbnew,7.0.9
; #@! TF.FileFunction,Plated,1,2,PTH
FMAT,2
METRIC
; #@! TA.AperFunction,Plated,PTH,ViaDrill
T1C0.400
; #@! TA.AperFunction,Plated,PTH,ComponentDrill
T2C0.800
; #@! TA.AperFunction,Plated,PTH,ComponentDrill
T3C1.800
; #@! TA.AperFunction,Plated,PTH,ComponentDrill
T4C3.200
%
G90
G05
T1
X84.0Y-107.0
X86.0Y-103.0
X86.0Y-107.0
X95.5Y-100.0
X95.5Y-101.0
X95.5Y-102.0
X95.5Y-103.0
X95.5Y-104.0
X96.5Y-100.0
X96.5Y-101.0
X96.5Y-102.0
X96.5Y-103.0
X96.5Y-104.0
X97.5Y-100.0
X97.5Y-101.0
X97.5Y-102.0
X97.5Y-103.0
X97.5Y-104.0
X98.5Y-100.0
X98.5Y-101.0
X98.5Y-102.0
X98.5Y-103.0
X98.5Y-104.0
X101.5Y-96.2
X111.25Y-98.0
X111.25Y-113.5
X111.5Y-91.75
X111.5Y-92.75
X111.5Y-93.75
X111.5Y-94.75
X111.5Y-115.25
X111.5Y-116.25
X111.5Y-117.25
X111.5Y-118.25
X112.5Y-91.75
X112.5Y-92.75
X112.5Y-93.75
X112.5Y-94.75
X112.5Y-115.25
X112.5Y-116.25
X112.5Y-117.25
X112.5Y-118.25
X113.5Y-91.75
X113.5Y-92.75
X113.5Y-93.75
X113.5Y-94.75
X113.5Y-115.25
X113.5Y-116.25
X113.5Y-117.25
X113.5Y-118.25
X114.5Y-91.75
X114.5Y-92.75
X114.5Y-93.75
X114.5Y-94.75
X114.5Y-115.25
X114.5Y-116.25
X114.5Y-117.25
X114.5Y-118.25
X115.5Y-91.75
X115.5Y-92.75
X115.5Y-93.75
X115.5Y-94.75
X115.5Y-115.25
X115.5Y-116.25
X115.5Y-117.25
X115.5Y-118.25
X116.0Y-98.0
X116.0Y-113.5
X116.5Y-91.75
X116.5Y-92.75
X116.5Y-93.75
X116.5Y-94.75
X116.5Y-115.25
X116.5Y-116.25
X116.5Y-117.25
X116.5Y-118.25
X116.875Y-101.0
X116.875Y-102.0
X120.299Y-96.2
X123.0Y-96.925
X123.0Y-99.0
X123.0Y-113.0
X124.25Y-101.0
X124.75Y-112.5
X125.0Y-110.0
X125.25Y-105.0
T2
X75.418Y-103.153
X75.418Y-106.653
T3
X66.918Y-102.5
X66.918Y-107.5
T4
X127.0Y-93.0
X127.0Y-117.0
T0
M30
