0
SECTION
2
HEADER
9
$INSUNITS
70
4
9
$ACADVER
1
AC1014
9
$HANDSEED
5
FFFF
0
ENDSEC
0
SECTION
2
TABLES
0
TABLE
2
VPORT
5
8
100
AcDbSymbolTable
0
ENDTAB
0
TABLE
2
LTYPE
5
5
100
AcDbSymbolTable
0
LTYPE
5
14
100
AcDbSymbolTableRecord
100
AcDbLinetypeTableRecord
2
BYBLOCK
70
0
0
LTYPE
5
15
100
AcDbSymbolTableRecord
100
AcDbLinetypeTableRecord
2
BYLAYER
70
0
0
ENDTAB
0
TABLE
2
LAYER
5
2
100
AcDbSymbolTable
70
2
0
LAYER
5
50
100
AcDbSymbolTableRecord
100
AcDbLayerTableRecord
2
0
70
0
6
CONTINUOUS
0
ENDTAB
0
TABLE
2
STYLE
5
3
100
AcDbSymbolTable
70
1
0
STYLE
5
11
100
AcDbSymbolTableRecord
100
AcDbTextStyleTableRecord
2
STANDARD
70
0
0
ENDTAB
0
TABLE
2
VIEW
5
6
100
AcDbSymbolTable
70
0
0
ENDTAB
0
TABLE
2
UCS
5
7
100
AcDbSymbolTable
70
0
0
ENDTAB
0
TABLE
2
APPID
5
9
100
AcDbSymbolTable
70
2
0
APPID
5
12
100
AcDbSymbolTableRecord
100
AcDbRegAppTableRecord
2
ACAD
70
0
0
ENDTAB
0
TABLE
2
DIMSTYLE
5
A
100
AcDbSymbolTable
70
1
0
ENDTAB
0
TABLE
2
BLOCK_RECORD
5
1
100
AcDbSymbolTable
70
1
0
BLOCK_RECORD
5
1F
100
AcDbSymbolTableRecord
100
AcDbBlockTableRecord
2
*MODEL_SPACE
0
BLOCK_RECORD
5
1B
100
AcDbSymbolTableRecord
100
AcDbBlockTableRecord
2
*PAPER_SPACE
0
ENDTAB
0
ENDSEC
0
SECTION
2
BLOCKS
0
BLOCK
5
20
100
AcDbEntity
100
AcDbBlockBegin
2
*MODEL_SPACE
0
ENDBLK
5
21
100
AcDbEntity
100
AcDbBlockEnd
0
BLOCK
5
1C
100
AcDbEntity
100
AcDbBlockBegin
2
*PAPER_SPACE
0
ENDBLK
5
1D
100
AcDbEntity
100
AcDbBlockEnd
0
ENDSEC
0
SECTION
2
ENTITIES
0
LWPOLYLINE
5
100
100
AcDbEntity
8
0
100
AcDbPolyline
90
453
70
1
43
0.0
10
-145.75814399999999
20
25.965877000000003
10
-145.42261400000001
20
25.898416000000001
10
-145.08158500000002
20
25.869610000000005
10
-144.73949300000001
20
25.879832
10
-144.400792
20
25.928951000000001
10
-144.06988999999999
20
26.016326000000003
10
-143.751092
20
26.140822000000004
10
-143.44854900000001
20
26.300816999999999
10
-143.16619600000001
20
26.494229000000004
10
-142.90771000000001
20
26.718541000000002
10
-142.676455
20
26.970834000000004
10
-142.47543899999999
20
27.247824000000005
10
-142.30727899999999
20
27.545907
10
-142.17416399999999
20
27.861201999999999
10
-142.07782500000002
20
28.189606999999999
10
-142.01951800000001
20
28.526848000000005
10
-142
20
28.868535000000005
10
-142
20
39.868535000000008
10
-141.980671
20
40.260598000000002
10
-141.92307199999999
20
40.648885999999997
10
-141.82769200000001
20
41.029657999999998
10
-141.69544999999999
20
41.399248
10
-141.52761899999999
20
41.754097000000002
10
-141.32581600000003
20
42.090786999999999
10
-141.091984
20
42.40607700000001
10
-140.82837499999999
20
42.696928999999997
10
-140.53752700000001
20
42.960543000000008
10
-140.222241
20
43.19438000000001
10
-139.88555400000001
20
43.396189000000007
10
-139.530708
20
43.564025000000008
10
-139.16112000000001
20
43.696273000000005
10
-138.78035
20
43.791659000000003
10
-138.39206300000001
20
43.849265000000003
10
-138
20
43.868535000000001
10
-72
20
43.868535000000001
10
-71.607927000000004
20
43.849339000000001
10
-71.219631000000007
20
43.791739999999997
10
-70.838849999999994
20
43.696358000000004
10
-70.469251
20
43.564112000000002
10
-70.114395000000002
20
43.396275000000003
10
-69.777698999999998
20
43.194465000000008
10
-69.462405000000004
20
42.960624000000003
10
-69.171549999999996
20
42.697004000000007
10
-68.907934999999995
20
42.406145000000002
10
-68.674098999999998
20
42.090846999999997
10
-68.472294000000005
20
41.754148000000001
10
-68.304462999999998
20
41.399289000000003
10
-68.172223000000002
20
41.029688
10
-68.076848000000012
20
40.648905999999997
10
-68.019255000000001
20
40.260607999999998
10
-68
20
39.868535000000008
10
-68
20
28.868535000000005
10
-67.980452000000014
20
28.526851000000004
10
-67.922145
20
28.189613999999999
10
-67.825806999999998
20
27.861212999999999
10
-67.692694000000003
20
27.545920000000002
10
-67.524535
20
27.247841000000005
10
-67.323521999999997
20
26.970853000000005
10
-67.092268000000004
20
26.718563
10
-66.833785000000006
20
26.494253000000004
10
-66.551435999999995
20
26.300843
10
-66.248895000000005
20
26.14085
10
-65.930100999999993
20
26.016355000000004
10
-65.599202000000005
20
25.928981
10
-65.260503999999997
20
25.879863000000004
10
-64.918415999999993
20
25.86964
10
-64.577390000000008
20
25.898447000000004
10
-64.241864000000007
20
25.965907000000001
10
-63.916205000000005
20
26.071142999999999
10
-63.604650999999997
20
26.212786000000001
10
-61.896692999999999
20
27.134058000000003
10
-60.209226000000001
20
28.092348999999999
10
-58.54305500000001
20
29.087205000000004
10
-56.898971000000003
20
30.118151000000001
10
-55.277755999999997
20
31.184700000000003
10
-53.68018
20
32.286342000000005
10
-53.411923000000002
20
32.499643000000006
10
-53.169744000000001
20
32.742148
10
-52.956804000000005
20
33.010691000000001
10
-52.775880999999998
20
33.301769
10
-52.629337000000007
20
33.611581999999999
10
-52.519084000000007
20
33.936087000000001
10
-52.446561000000003
20
34.271048999999998
10
-52.412714000000008
20
34.612096999999999
10
-52.417985999999999
20
34.954779000000002
10
-52.462306000000005
20
35.294625000000003
10
-52.54509800000001
20
35.627198
10
-52.66528000000001
20
35.948157999999999
10
-52.821284000000006
20
36.253317000000003
10
-53.011074000000001
20
36.538691999999998
10
-53.232173000000003
20
36.800559
10
-53.481695999999999
20
37.035499999999999
10
-71.483740000000012
20
52.141008999999997
10
-71.688692000000003
20
52.339562999999998
10
-71.863305999999994
20
52.565258999999998
10
-72.004020999999995
20
52.813509000000003
10
-72.107974000000013
20
53.079258000000003
10
-72.173049000000006
20
53.357096000000006
10
-72.197919999999996
20
53.641367000000002
10
-72.182080999999997
20
53.926284000000003
10
-72.125855000000001
20
54.206046999999998
10
-72.030385999999993
20
54.474961000000008
10
-71.897617999999994
20
54.727550000000001
10
-71.730254000000002
20
54.958673000000005
10
-49.941682000000007
20
80.925281000000012
10
-49.743138000000009
20
81.130241000000012
10
-49.517439000000003
20
81.304850999999999
10
-49.269188
20
81.445564000000005
10
-49.00343800000001
20
81.549515000000014
10
-48.725599000000003
20
81.614587999999998
10
-48.441327000000001
20
81.639456999999993
10
-48.156410000000001
20
81.623617999999993
10
-47.876646999999998
20
81.567392000000012
10
-47.607733000000003
20
81.471924000000001
10
-47.355142999999998
20
81.339157999999998
10
-47.124018000000007
20
81.171795000000003
10
-29.121973000000004
20
66.066286000000005
10
-28.847270000000002
20
65.861348000000007
10
-28.550989999999999
20
65.689071000000013
10
-28.236995
20
65.551710999999997
10
-27.909381
20
65.451060000000012
10
-27.572426
20
65.388431999999995
10
-27.230527000000002
20
65.364644999999996
10
-26.888146000000003
20
65.380009000000001
10
-26.549751000000001
20
65.434323000000006
10
-26.219759000000003
20
65.526878999999994
10
-25.902477000000005
20
65.656468000000004
10
-25.602046999999999
20
65.821399
10
-25.322388
20
66.019520999999997
10
-25.067151000000003
20
66.248245999999995
10
-24.839666999999999
20
66.50458900000001
10
-24.642906
20
66.785206000000002
10
-24.479434000000001
20
67.086433999999997
10
-23.702680000000001
20
68.781968000000006
10
-22.961625000000005
20
70.493405999999993
10
-22.256592999999999
20
72.219996000000009
10
-21.587895000000003
20
73.960980000000006
10
-20.955824
20
75.715593000000013
10
-20.360657
20
77.483064999999996
10
-19.802655999999999
20
79.262620999999996
10
-19.282067000000001
20
81.053478000000013
10
-18.799116000000001
20
82.854849999999999
10
-18.354018
20
84.665946000000005
10
-17.946966
20
86.485971000000021
10
-17.578140000000001
20
88.314125000000004
10
-17.247702
20
90.149607000000017
10
-16.955795999999999
20
91.991610000000009
10
-16.702552000000001
20
93.839324000000005
10
-16.48808
20
95.691940000000017
10
-16.312474000000002
20
97.548642000000001
10
-16.175810999999999
20
99.408617000000007
10
-16.078153
20
101.27104700000001
10
-16.019539999999999
20
103.13511400000002
10
-16
20
105
10
-16.019539999999999
20
106.86488600000001
10
-16.078153
20
108.72895300000002
10
-16.175810999999999
20
110.59138300000001
10
-16.312474000000002
20
112.451358
10
-16.48808
20
114.30806000000001
10
-16.702552000000001
20
116.16067600000001
10
-16.955795999999999
20
118.00839000000002
10
-17.247702
20
119.850393
10
-17.578140000000001
20
121.68587500000001
10
-17.946966
20
123.51402899999999
10
-18.354018
20
125.33405399999999
10
-18.799116000000001
20
127.14515
10
-19.282067000000001
20
128.94652199999999
10
-19.802655999999999
20
130.737379
10
-20.360657
20
132.51693499999999
10
-20.955824
20
134.28440699999999
10
-21.587895000000003
20
136.03901999999999
10
-22.256592999999999
20
137.78000399999999
10
-22.961625000000005
20
139.50659400000001
10
-23.702680000000001
20
141.21803199999999
10
-24.479434000000001
20
142.913566
10
-24.642897999999999
20
143.214799
10
-24.839660000000002
20
143.49541600000003
10
-25.067143999999999
20
143.75176099999999
10
-25.322382000000001
20
143.98048700000001
10
-25.602042000000004
20
144.17860899999999
10
-25.902473000000001
20
144.34354100000002
10
-26.219756000000004
20
144.47313000000003
10
-26.549748999999998
20
144.565686
10
-26.888145000000002
20
144.620001
10
-27.230527000000002
20
144.63536400000004
10
-27.572427000000005
20
144.61157700000001
10
-27.909383999999999
20
144.54894899999999
10
-28.236998
20
144.44829800000002
10
-28.550994000000003
20
144.310937
10
-28.847275000000003
20
144.13865999999999
10
-29.121973000000004
20
143.93371400000001
10
-47.124018000000007
20
128.82820500000003
10
-47.355148
20
128.66085100000001
10
-47.607737000000007
20
128.528086
10
-47.876649999999998
20
128.43261799999999
10
-48.156411000000006
20
128.37639200000001
10
-48.441327000000001
20
128.36055300000001
10
-48.725597
20
128.385423
10
-49.003434000000006
20
128.45049499999999
10
-49.269183000000005
20
128.55444499999999
10
-49.517433000000004
20
128.69515699999999
10
-49.743130999999998
20
128.869767
10
-49.941682000000007
20
129.07471899999999
10
-71.730254000000002
20
155.041327
10
-71.897623999999993
20
155.272446
10
-72.030393000000004
20
155.525037
10
-72.125862000000012
20
155.79395099999999
10
-72.182087999999993
20
156.07371499999999
10
-72.197927000000007
20
156.358633
10
-72.173056000000003
20
156.64290500000001
10
-72.107980999999995
20
156.92074500000001
10
-72.004028000000005
20
157.18649400000001
10
-71.86331100000001
20
157.43474499999999
10
-71.688697000000005
20
157.66044199999999
10
-71.483740000000012
20
157.858991
10
-53.481695999999999
20
172.96449999999999
10
-53.23215900000001
20
173.199431
10
-53.011051000000009
20
173.461296
10
-52.821253000000006
20
173.74666999999999
10
-52.665241999999999
20
174.051829
10
-52.545055000000005
20
174.37279100000001
10
-52.462259000000003
20
174.705367
10
-52.417936000000005
20
175.04521500000004
10
-52.412664000000007
20
175.387902
10
-52.446511999999998
20
175.72895299999999
10
-52.519038000000009
20
176.063918
10
-52.629295999999997
20
176.38842500000004
10
-52.775846000000008
20
176.69824000000003
10
-52.956776000000005
20
176.989317
10
-53.169724000000009
20
177.25785900000002
10
-53.411911000000003
20
177.50036
10
-53.680177
20
177.71365599999999
10
-55.232600000000005
20
178.784862
10
-56.807375
20
179.82293000000001
10
-58.403793999999998
20
180.82739400000003
10
-60.021141
20
181.79780099999999
10
-61.658689000000003
20
182.73371700000001
10
-63.315702000000009
20
183.63472100000001
10
-64.991437000000019
20
184.50040799999999
10
-66.685140000000004
20
185.33038999999999
10
-68.396051
20
186.12429299999999
10
-70.123402999999996
20
186.88176200000001
10
-71.86641800000001
20
187.60245600000002
10
-73.624313999999998
20
188.28605100000001
10
-75.396300999999994
20
188.932241
10
-77.181584000000001
20
189.54073399999999
10
-78.979362000000009
20
190.11125899999999
10
-80.788825000000003
20
190.64355800000001
10
-82.609162999999995
20
191.13739300000003
10
-84.43955600000001
20
191.59254100000001
10
-86.279184000000001
20
192.00879900000004
10
-88.127219999999994
20
192.38597900000002
10
-89.982832999999999
20
192.72391200000001
10
-91.845191999999997
20
193.022446
10
-93.713458000000003
20
193.28144699999999
10
-95.586793
20
193.50080000000003
10
-97.464355999999995
20
193.68040400000001
10
-99.345303999999999
20
193.82018000000002
10
-101.228791
20
193.92006500000002
10
-103.11397200000002
20
193.98001400000001
10
-105
20
194.00000000000003
10
-106.886028
20
193.98001400000001
10
-108.77120900000001
20
193.92006500000002
10
-110.654696
20
193.82018000000002
10
-112.53564400000002
20
193.68040400000001
10
-114.413207
20
193.50080000000003
10
-116.286542
20
193.28144699999999
10
-118.15480800000002
20
193.022446
10
-120.01716700000001
20
192.72391200000001
10
-121.87278000000001
20
192.38597900000002
10
-123.72081600000001
20
192.00879900000004
10
-125.56044400000002
20
191.59254100000001
10
-127.39083700000002
20
191.13739300000003
10
-129.21117500000003
20
190.64355800000001
10
-131.02063799999999
20
190.11125899999999
10
-132.81841600000001
20
189.54073399999999
10
-134.60369900000001
20
188.932241
10
-136.37568600000003
20
188.28605100000001
10
-138.13358199999999
20
187.60245600000002
10
-139.876597
20
186.88176200000001
10
-141.603949
20
186.12429299999999
10
-143.31486000000001
20
185.33038999999999
10
-145.00856300000004
20
184.50040799999999
10
-146.68429800000001
20
183.63472100000001
10
-148.34131100000002
20
182.73371700000001
10
-149.978859
20
181.79780099999999
10
-151.596206
20
180.82739400000003
10
-153.19262500000002
20
179.82293000000001
10
-154.76740000000001
20
178.784862
10
-156.31982300000001
20
177.71365599999999
10
-156.588054
20
177.50031899999999
10
-156.83023600000001
20
177.25782000000004
10
-157.04317900000001
20
176.98928100000001
10
-157.22410500000001
20
176.698207
10
-157.370653
20
176.38839700000003
10
-157.480909
20
176.06389500000003
10
-157.55343500000004
20
175.72893500000004
10
-157.58728400000001
20
175.387889
10
-157.58201399999999
20
175.045208
10
-157.53769500000001
20
174.705364
10
-157.454904
20
174.37279200000003
10
-157.334722
20
174.05183300000002
10
-157.178718
20
173.74667600000004
10
-156.98892799999999
20
173.46130299999999
10
-156.76782800000001
20
173.19943800000001
10
-156.518304
20
172.96449999999999
10
-138.51625999999999
20
157.858991
10
-138.311308
20
157.660437
10
-138.13669400000003
20
157.434741
10
-137.99597900000003
20
157.18649099999999
10
-137.89202599999999
20
156.92074200000002
10
-137.82695100000001
20
156.64290399999999
10
-137.80207999999999
20
156.358633
10
-137.81791899999999
20
156.07371599999999
10
-137.874145
20
155.79395299999999
10
-137.96961400000001
20
155.52503899999999
10
-138.10238200000001
20
155.27244999999999
10
-138.269746
20
155.041327
10
-160.05831800000004
20
129.07471899999999
10
-160.25686200000001
20
128.86975899999999
10
-160.482561
20
128.69514899999999
10
-160.73081200000001
20
128.55443600000001
10
-160.99656200000001
20
128.45048499999999
10
-161.27440100000001
20
128.38541200000003
10
-161.558673
20
128.36054300000001
10
-161.84359000000001
20
128.37638200000001
10
-162.12335300000004
20
128.43260799999999
10
-162.392267
20
128.528076
10
-162.644857
20
128.660842
10
-162.87598200000002
20
128.82820500000003
10
-180.878027
20
143.93371400000001
10
-181.15272999999999
20
144.13865200000001
10
-181.44901000000002
20
144.31092899999999
10
-181.76300499999999
20
144.44828899999999
10
-182.090619
20
144.54893999999999
10
-182.42757399999999
20
144.61156800000001
10
-182.769473
20
144.635355
10
-183.11185399999999
20
144.619991
10
-183.45024900000001
20
144.56567699999999
10
-183.78024100000002
20
144.47312099999999
10
-184.09752300000002
20
144.34353200000001
10
-184.397953
20
144.17860099999999
10
-184.67761200000001
20
143.980479
10
-184.93284900000003
20
143.75175400000001
10
-185.16033300000001
20
143.49541099999999
10
-185.35709399999999
20
143.21479400000001
10
-185.520566
20
142.913566
10
-186.29731899999999
20
141.21803299999999
10
-187.038374
20
139.506596
10
-187.743405
20
137.78000700000001
10
-188.412103
20
136.03902500000001
10
-189.044174
20
134.284413
10
-189.63934
20
132.51694100000003
10
-190.19734099999999
20
130.73738700000001
10
-190.71793
20
128.94653199999999
10
-191.20088000000004
20
127.145161
10
-191.64597900000001
20
125.33406600000001
10
-192.05303100000003
20
123.51404200000002
10
-192.42185699999999
20
121.68588900000002
10
-192.752295
20
119.850408
10
-193.04420100000002
20
118.00840700000002
10
-193.29744500000004
20
116.16069400000001
10
-193.51191800000004
20
114.30808
10
-193.68752400000002
20
112.45137800000002
10
-193.82418700000002
20
110.59140499999999
10
-193.92184600000002
20
108.72897600000002
10
-193.980459
20
106.86491000000001
10
-194.00000000000003
20
105.00002500000001
10
-193.98045999999999
20
103.13514000000001
10
-193.92184800000001
20
101.271074
10
-193.82418999999999
20
99.408646000000005
10
-193.68752799999999
20
97.548671999999996
10
-193.51192300000002
20
95.691970999999995
10
-193.29745200000002
20
93.839355999999995
10
-193.04420800000003
20
91.991642999999996
10
-192.75230400000001
20
90.149641000000003
10
-192.42186599999999
20
88.314160999999999
10
-192.05304100000004
20
86.486007000000015
10
-191.64599100000001
20
84.665982999999997
10
-191.20089300000001
20
82.854888000000017
10
-190.71794399999999
20
81.053516999999999
10
-190.19735499999999
20
79.262660999999994
10
-189.63935599999999
20
77.483107000000018
10
-189.04419000000001
20
75.715635000000006
10
-188.41211999999999
20
73.961022999999997
10
-187.74342300000001
20
72.220039999999997
10
-187.03839300000001
20
70.493449999999996
10
-186.29733900000002
20
68.782013000000006
10
-185.52058700000001
20
67.086479999999995
10
-185.35712700000002
20
66.785241999999997
10
-185.16036700000001
20
66.504617999999994
10
-184.93288500000003
20
66.248267999999996
10
-184.677648
20
66.019537
10
-184.39798800000003
20
65.82141
10
-184.097555
20
65.656473000000005
10
-183.780271
20
65.526878999999994
10
-183.45027600000003
20
65.434319000000002
10
-183.11187700000002
20
65.380002000000005
10
-182.76949200000001
20
65.364635000000007
10
-182.42758800000001
20
65.388420999999994
10
-182.09062900000004
20
65.451048000000014
10
-181.76301100000001
20
65.551698999999999
10
-181.44901100000001
20
65.689059999999998
10
-181.152728
20
65.861338000000003
10
-180.878027
20
66.066286000000005
10
-162.87598200000002
20
81.171795000000003
10
-162.64485199999999
20
81.339149000000006
10
-162.39226300000001
20
81.471913999999998
10
-162.12334999999999
20
81.567381999999995
10
-161.84358900000004
20
81.623608000000004
10
-161.558673
20
81.639447000000004
10
-161.27440300000001
20
81.614576999999997
10
-160.996566
20
81.549504999999996
10
-160.730817
20
81.445555000000013
10
-160.48256699999999
20
81.304843000000005
10
-160.25686899999999
20
81.130233000000004
10
-160.05831800000004
20
80.925281000000012
10
-138.269746
20
54.958673000000005
10
-138.10237599999999
20
54.727554000000005
10
-137.969607
20
54.47496300000001
10
-137.87413799999999
20
54.206049000000007
10
-137.81791200000001
20
53.926285000000007
10
-137.80207300000001
20
53.641367000000002
10
-137.826944
20
53.357095000000001
10
-137.892019
20
53.079255000000003
10
-137.99597199999999
20
52.813505999999997
10
-138.13668899999999
20
52.565255000000008
10
-138.31130300000001
20
52.339558000000004
10
-138.51625999999999
20
52.141008999999997
10
-156.518304
20
37.035499999999999
10
-156.767865
20
36.800595999999999
10
-156.988968
20
36.538728000000006
10
-157.17876200000001
20
36.253349999999998
10
-157.33476899999999
20
35.948186999999997
10
-157.45495199999999
20
35.627223000000001
10
-157.537744
20
35.294646
10
-157.582064
20
34.954796000000002
10
-157.587334
20
34.612108999999997
10
-157.55348499999999
20
34.271056999999999
10
-157.48095799999999
20
33.936092000000002
10
-157.3707
20
33.611584000000001
10
-157.22415000000001
20
33.301769
10
-157.04322099999999
20
33.010689999999997
10
-156.83027300000001
20
32.742147000000003
10
-156.58808700000003
20
32.499643000000006
10
-156.31982300000001
20
32.286344
10
-154.72224399999999
20
31.184705000000005
10
-153.10103000000001
20
30.118155000000005
10
-151.45694599999999
20
29.087206000000002
10
-149.790775
20
28.092350000000003
10
-148.103308
20
27.134058000000003
10
-146.39534900000001
20
26.212786000000001
10
-146.08380600000001
20
26.071115000000002
0
LWPOLYLINE
5
101
100
AcDbEntity
8
0
100
AcDbPolyline
90
36
70
1
43
0.0
10
-95.804910000000007
20
177.51921500000003
10
-96.000000000000014
20
177.5
10
-114
20
177.5
10
-114.19508999999999
20
177.51921500000003
10
-114.38268300000001
20
177.57612
10
-114.55557
20
177.66853
10
-114.70710699999999
20
177.79289299999999
10
-114.83147000000001
20
177.94443000000001
10
-114.92388
20
178.11731700000001
10
-114.980785
20
178.30491000000001
10
-115
20
178.5
10
-115
20
181.50000000000003
10
-114.980785
20
181.69509000000002
10
-114.92388
20
181.88268300000001
10
-114.83147000000001
20
182.05556999999999
10
-114.70710699999999
20
182.20710700000001
10
-114.55557
20
182.33147
10
-114.38268300000001
20
182.42388000000003
10
-114.19508999999999
20
182.48078500000003
10
-114
20
182.5
10
-96.000000000000014
20
182.5
10
-95.804910000000007
20
182.48078500000003
10
-95.617317000000014
20
182.42388000000003
10
-95.444429999999997
20
182.33147
10
-95.292893000000007
20
182.20710700000001
10
-95.168530000000004
20
182.05556999999999
10
-95.076120000000003
20
181.88268300000001
10
-95.019215000000003
20
181.69509000000002
10
-95
20
181.50000000000003
10
-95
20
178.5
10
-95.019215000000003
20
178.30491000000001
10
-95.076120000000003
20
178.11731700000001
10
-95.168530000000004
20
177.94443000000001
10
-95.292893000000007
20
177.79289299999999
10
-95.444429999999997
20
177.66853
10
-95.617317000000014
20
177.57612
0
CIRCLE
5
102
100
AcDbEntity
8
0
100
AcDbCircle
10
-150.36200000000002
20
175.69900000000001
30
0
40
1.6000000000000003
210
0
220
0
230
1
0
CIRCLE
5
103
100
AcDbEntity
8
0
100
AcDbCircle
10
-137.25
20
179.00000000000003
30
0
40
0.90000000000000013
210
0
220
0
230
1
0
CIRCLE
5
104
100
AcDbEntity
8
0
100
AcDbCircle
10
-137.25
20
174.00000000000003
30
0
40
0.90000000000000013
210
0
220
0
230
1
0
CIRCLE
5
105
100
AcDbEntity
8
0
100
AcDbCircle
10
-121.76400000000001
20
173.88200000000001
30
0
40
1.6000000000000003
210
0
220
0
230
1
0
CIRCLE
5
106
100
AcDbEntity
8
0
100
AcDbCircle
10
-138
20
166
30
0
40
0.55000000000000004
210
0
220
0
230
1
0
CIRCLE
5
107
100
AcDbEntity
8
0
100
AcDbCircle
10
-135.46000000000001
20
166
30
0
40
0.55000000000000004
210
0
220
0
230
1
0
CIRCLE
5
108
100
AcDbEntity
8
0
100
AcDbCircle
10
-132.91999999999999
20
166
30
0
40
0.55000000000000004
210
0
220
0
230
1
0
CIRCLE
5
109
100
AcDbEntity
8
0
100
AcDbCircle
10
-127.24000000000001
20
165
30
0
40
0.59999999999999998
210
0
220
0
230
1
0
CIRCLE
5
110
100
AcDbEntity
8
0
100
AcDbCircle
10
-137.86699999999999
20
150.85400000000001
30
0
40
1.6000000000000003
210
0
220
0
230
1
0
CIRCLE
5
111
100
AcDbEntity
8
0
100
AcDbCircle
10
-122.16000000000001
20
160
30
0
40
0.55000000000000004
210
0
220
0
230
1
0
CIRCLE
5
112
100
AcDbEntity
8
0
100
AcDbCircle
10
-112.00000000000001
20
165
30
0
40
0.59999999999999998
210
0
220
0
230
1
0
CIRCLE
5
113
100
AcDbEntity
8
0
100
AcDbCircle
10
-112.00000000000001
20
160
30
0
40
0.55000000000000004
210
0
220
0
230
1
0
CIRCLE
5
114
100
AcDbEntity
8
0
100
AcDbCircle
10
-119
20
148.512754
30
0
40
0.59999999999999998
210
0
220
0
230
1
0
CIRCLE
5
115
100
AcDbEntity
8
0
100
AcDbCircle
10
-182.501
20
137.39599999999999
30
0
40
1.6000000000000003
210
0
220
0
230
1
0
CIRCLE
5
116
100
AcDbEntity
8
0
100
AcDbCircle
10
-155.86500000000001
20
129.405
30
0
40
1.6000000000000003
210
0
220
0
230
1
0
CIRCLE
5
117
100
AcDbEntity
8
0
100
AcDbCircle
10
-186.87
20
112.62
30
0
40
0.5
210
0
220
0
230
1
0
CIRCLE
5
118
100
AcDbEntity
8
0
100
AcDbCircle
10
-184.33000000000004
20
112.62
30
0
40
0.5
210
0
220
0
230
1
0
CIRCLE
5
119
100
AcDbEntity
8
0
100
AcDbCircle
10
-181.78999999999999
20
112.62
30
0
40
0.5
210
0
220
0
230
1
0
CIRCLE
5
120
100
AcDbEntity
8
0
100
AcDbCircle
10
-179.25
20
112.62
30
0
40
0.5
210
0
220
0
230
1
0
CIRCLE
5
121
100
AcDbEntity
8
0
100
AcDbCircle
10
-176.71000000000004
20
112.62
30
0
40
0.5
210
0
220
0
230
1
0
CIRCLE
5
122
100
AcDbEntity
8
0
100
AcDbCircle
10
-174.16999999999999
20
112.62
30
0
40
0.5
210
0
220
0
230
1
0
CIRCLE
5
123
100
AcDbEntity
8
0
100
AcDbCircle
10
-171.63
20
112.62
30
0
40
0.5
210
0
220
0
230
1
0
CIRCLE
5
124
100
AcDbEntity
8
0
100
AcDbCircle
10
-119
20
141.012754
30
0
40
0.59999999999999998
210
0
220
0
230
1
0
CIRCLE
5
125
100
AcDbEntity
8
0
100
AcDbCircle
10
-117.00000000000001
20
114
30
0
40
1.6000000000000003
210
0
220
0
230
1
0
CIRCLE
5
126
100
AcDbEntity
8
0
100
AcDbCircle
10
-105.54000000000002
20
186
30
0
40
0.40000000000000008
210
0
220
0
230
1
0
CIRCLE
5
127
100
AcDbEntity
8
0
100
AcDbCircle
10
-103
20
186
30
0
40
0.40000000000000008
210
0
220
0
230
1
0
CIRCLE
5
128
100
AcDbEntity
8
0
100
AcDbCircle
10
-73
20
179.00000000000003
30
0
40
0.90000000000000013
210
0
220
0
230
1
0
CIRCLE
5
129
100
AcDbEntity
8
0
100
AcDbCircle
10
-73
20
174.00000000000003
30
0
40
0.90000000000000013
210
0
220
0
230
1
0
CIRCLE
5
130
100
AcDbEntity
8
0
100
AcDbCircle
10
-68.5
20
176.53999999999999
30
0
40
0.40000000000000008
210
0
220
0
230
1
0
CIRCLE
5
131
100
AcDbEntity
8
0
100
AcDbCircle
10
-68.5
20
174.00000000000003
30
0
40
0.40000000000000008
210
0
220
0
230
1
0
CIRCLE
5
132
100
AcDbEntity
8
0
100
AcDbCircle
10
-88.236000000000004
20
157.11799999999999
30
0
40
1.6000000000000003
210
0
220
0
230
1
0
CIRCLE
5
133
100
AcDbEntity
8
0
100
AcDbCircle
10
-72.133099999999999
20
150.85400000000001
30
0
40
1.6000000000000003
210
0
220
0
230
1
0
CIRCLE
5
134
100
AcDbEntity
8
0
100
AcDbCircle
10
-59.637900000000002
20
175.69900000000001
30
0
40
1.6000000000000003
210
0
220
0
230
1
0
CIRCLE
5
135
100
AcDbEntity
8
0
100
AcDbCircle
10
-88.5
20
122.25000000000001
30
0
40
0.55000000000000004
210
0
220
0
230
1
0
CIRCLE
5
136
100
AcDbEntity
8
0
100
AcDbCircle
10
-93
20
114
30
0
40
1.6000000000000003
210
0
220
0
230
1
0
CIRCLE
5
137
100
AcDbEntity
8
0
100
AcDbCircle
10
-54.135100000000008
20
129.405
30
0
40
1.6000000000000003
210
0
220
0
230
1
0
CIRCLE
5
138
100
AcDbEntity
8
0
100
AcDbCircle
10
-27.498500000000003
20
137.39599999999999
30
0
40
1.6000000000000003
210
0
220
0
230
1
0
CIRCLE
5
139
100
AcDbEntity
8
0
100
AcDbCircle
10
-41.75
20
123
30
0
40
0.50800000000000001
210
0
220
0
230
1
0
CIRCLE
5
140
100
AcDbEntity
8
0
100
AcDbCircle
10
-39.032200000000003
20
123
30
0
40
0.50800000000000001
210
0
220
0
230
1
0
CIRCLE
5
141
100
AcDbEntity
8
0
100
AcDbCircle
10
-36.314399999999999
20
123
30
0
40
0.50800000000000001
210
0
220
0
230
1
0
CIRCLE
5
142
100
AcDbEntity
8
0
100
AcDbCircle
10
-37.799999999999997
20
118.05500000000002
30
0
40
0.5
210
0
220
0
230
1
0
CIRCLE
5
143
100
AcDbEntity
8
0
100
AcDbCircle
10
-37.799999999999997
20
115.51500000000001
30
0
40
0.5
210
0
220
0
230
1
0
CIRCLE
5
144
100
AcDbEntity
8
0
100
AcDbCircle
10
-37.799999999999997
20
112.97499999999999
30
0
40
0.5
210
0
220
0
230
1
0
CIRCLE
5
145
100
AcDbEntity
8
0
100
AcDbCircle
10
-33
20
115.54000000000002
30
0
40
0.40000000000000008
210
0
220
0
230
1
0
CIRCLE
5
146
100
AcDbEntity
8
0
100
AcDbCircle
10
-33
20
113
30
0
40
0.40000000000000008
210
0
220
0
230
1
0
CIRCLE
5
147
100
AcDbEntity
8
0
100
AcDbCircle
10
-186.87
20
97.379999999999995
30
0
40
0.5
210
0
220
0
230
1
0
CIRCLE
5
148
100
AcDbEntity
8
0
100
AcDbCircle
10
-184.33000000000004
20
97.379999999999995
30
0
40
0.5
210
0
220
0
230
1
0
CIRCLE
5
149
100
AcDbEntity
8
0
100
AcDbCircle
10
-181.78999999999999
20
97.379999999999995
30
0
40
0.5
210
0
220
0
230
1
0
CIRCLE
5
150
100
AcDbEntity
8
0
100
AcDbCircle
10
-179.25
20
97.379999999999995
30
0
40
0.5
210
0
220
0
230
1
0
CIRCLE
5
151
100
AcDbEntity
8
0
100
AcDbCircle
10
-176.71000000000004
20
97.379999999999995
30
0
40
0.5
210
0
220
0
230
1
0
CIRCLE
5
152
100
AcDbEntity
8
0
100
AcDbCircle
10
-174.16999999999999
20
97.379999999999995
30
0
40
0.5
210
0
220
0
230
1
0
CIRCLE
5
153
100
AcDbEntity
8
0
100
AcDbCircle
10
-171.63
20
97.379999999999995
30
0
40
0.5
210
0
220
0
230
1
0
CIRCLE
5
154
100
AcDbEntity
8
0
100
AcDbCircle
10
-182.501
20
72.603700000000003
30
0
40
1.6000000000000003
210
0
220
0
230
1
0
CIRCLE
5
155
100
AcDbEntity
8
0
100
AcDbCircle
10
-155.86500000000001
20
80.594999999999999
30
0
40
1.6000000000000003
210
0
220
0
230
1
0
CIRCLE
5
156
100
AcDbEntity
8
0
100
AcDbCircle
10
-117.00000000000001
20
96.000000000000014
30
0
40
1.6000000000000003
210
0
220
0
230
1
0
CIRCLE
5
157
100
AcDbEntity
8
0
100
AcDbCircle
10
-150.36200000000002
20
34.301499999999997
30
0
40
1.6000000000000003
210
0
220
0
230
1
0
CIRCLE
5
158
100
AcDbEntity
8
0
100
AcDbCircle
10
-137.86699999999999
20
59.145700000000005
30
0
40
1.6000000000000003
210
0
220
0
230
1
0
CIRCLE
5
159
100
AcDbEntity
8
0
100
AcDbCircle
10
-145
20
35.540000000000006
30
0
40
0.5
210
0
220
0
230
1
0
CIRCLE
5
160
100
AcDbEntity
8
0
100
AcDbCircle
10
-145
20
33
30
0
40
0.5
210
0
220
0
230
1
0
CIRCLE
5
161
100
AcDbEntity
8
0
100
AcDbCircle
10
-120
20
48.868499999999997
30
0
40
1.6000000000000003
210
0
220
0
230
1
0
CIRCLE
5
162
100
AcDbEntity
8
0
100
AcDbCircle
10
-93
20
96.000000000000014
30
0
40
1.6000000000000003
210
0
220
0
230
1
0
CIRCLE
5
163
100
AcDbEntity
8
0
100
AcDbCircle
10
-37.799999999999997
20
97.055000000000007
30
0
40
0.5
210
0
220
0
230
1
0
CIRCLE
5
164
100
AcDbEntity
8
0
100
AcDbCircle
10
-37.799999999999997
20
94.515000000000015
30
0
40
0.5
210
0
220
0
230
1
0
CIRCLE
5
165
100
AcDbEntity
8
0
100
AcDbCircle
10
-37.799999999999997
20
91.974999999999994
30
0
40
0.5
210
0
220
0
230
1
0
CIRCLE
5
166
100
AcDbEntity
8
0
100
AcDbCircle
10
-33
20
94.540000000000006
30
0
40
0.40000000000000008
210
0
220
0
230
1
0
CIRCLE
5
167
100
AcDbEntity
8
0
100
AcDbCircle
10
-33
20
92.000000000000014
30
0
40
0.40000000000000008
210
0
220
0
230
1
0
CIRCLE
5
168
100
AcDbEntity
8
0
100
AcDbCircle
10
-54.135100000000008
20
80.594999999999999
30
0
40
1.6000000000000003
210
0
220
0
230
1
0
CIRCLE
5
169
100
AcDbEntity
8
0
100
AcDbCircle
10
-27.498500000000003
20
72.603700000000003
30
0
40
1.6000000000000003
210
0
220
0
230
1
0
CIRCLE
5
170
100
AcDbEntity
8
0
100
AcDbCircle
10
-72.133127999999999
20
59.145716999999998
30
0
40
1.6000000000000003
210
0
220
0
230
1
0
CIRCLE
5
171
100
AcDbEntity
8
0
100
AcDbCircle
10
-90
20
48.868499999999997
30
0
40
1.6000000000000003
210
0
220
0
230
1
0
CIRCLE
5
172
100
AcDbEntity
8
0
100
AcDbCircle
10
-65
20
35.540000000000006
30
0
40
0.5
210
0
220
0
230
1
0
CIRCLE
5
173
100
AcDbEntity
8
0
100
AcDbCircle
10
-65
20
33
30
0
40
0.5
210
0
220
0
230
1
0
CIRCLE
5
174
100
AcDbEntity
8
0
100
AcDbCircle
10
-59.637900000000002
20
34.301499999999997
30
0
40
1.6000000000000003
210
0
220
0
230
1
0
ENDSEC
0
SECTION
2
OBJECTS
0
DICTIONARY
5
C
100
AcDbDictionary
3
ACAD_GROUP
350
D
3
ACAD_MLINESTYLE
350
17
0
DICTIONARY
5
D
100
AcDbDictionary
0
DICTIONARY
5
1A
330
C
100
AcDbDictionary
0
DICTIONARY
5
17
100
AcDbDictionary
0
ENDSEC
0
EOF
