%TF.GenerationSoftware,KiCad,Pcbnew,7.0.9*%
%TF.CreationDate,2023-12-19T12:29:03+08:00*%
%TF.ProjectId,layer2,6c617965-7232-42e6-9b69-6361645f7063,rev?*%
%TF.SameCoordinates,Original*%
%TF.FileFunction,Drillmap*%
%TF.FilePolarity,Positive*%
%FSLAX45Y45*%
G04 Gerber Fmt 4.5, Leading zero omitted, Abs format (unit mm)*
G04 Created by KiCad (PCBNEW 7.0.9) date 2023-12-19 12:29:03*
%MOMM*%
%LPD*%
G01*
G04 APERTURE LIST*
%ADD10C,0.200000*%
G04 APERTURE END LIST*
D10*
X2994466Y-6436770D02*
G75*
G03*
X2533081Y-6532859I-192838J-229807D01*
G01*
X2994465Y-14563230D02*
X4113937Y-13623881D01*
X15196211Y-17569851D02*
G75*
G03*
X15196211Y-17569851I-160000J0D01*
G01*
X5650000Y-12650000D02*
X3650000Y-12650000D01*
X14779363Y-2978270D02*
G75*
G03*
X14779363Y-2978270I-110000J0D01*
G01*
X15350000Y-11350000D02*
X17350000Y-11350000D01*
X7300000Y-11000000D02*
X10000000Y-11000000D01*
X10960000Y-10800000D02*
G75*
G03*
X10960000Y-10800000I-160000J0D01*
G01*
X7300000Y-10000000D02*
X7300000Y-8000000D01*
X6123789Y-3430149D02*
G75*
G03*
X6123789Y-3430149I-160000J0D01*
G01*
X2533084Y-14467139D02*
G75*
G03*
X2994465Y-14563230I268546J133719D01*
G01*
X15746489Y-8059499D02*
G75*
G03*
X15746489Y-8059499I-160000J0D01*
G01*
X15790311Y-3343004D02*
G75*
G03*
X14639536Y-2621279I-5290361J-7157066D01*
G01*
X8500000Y-16800000D02*
G75*
G03*
X8700000Y-17000000I200000J0D01*
G01*
X2909851Y-13739629D02*
G75*
G03*
X2909851Y-13739629I-160000J0D01*
G01*
X17350000Y-8350000D02*
X17350000Y-9650000D01*
X18410149Y-7260371D02*
G75*
G03*
X18410149Y-7260371I-160000J0D01*
G01*
X6799997Y-2886853D02*
G75*
G03*
X6360465Y-2621279I-299997J4D01*
G01*
X6800000Y-5100000D02*
G75*
G03*
X7200000Y-5500000I400000J0D01*
G01*
X5573511Y-12940501D02*
G75*
G03*
X5573511Y-12940501I-160000J0D01*
G01*
X7700000Y-6900000D02*
G75*
G03*
X8000000Y-7200000I300000J0D01*
G01*
X13000000Y-7200000D02*
G75*
G03*
X13300000Y-6900000I0J300000D01*
G01*
X16886064Y-13623880D02*
G75*
G03*
X16181647Y-13685510I-321394J-383020D01*
G01*
X13000000Y-7200000D02*
X8000000Y-7200000D01*
X6376278Y-5457829D02*
G75*
G03*
X6314649Y-4753412I-383023J321394D01*
G01*
X15350000Y-12650000D02*
X15350000Y-11350000D01*
X5195177Y-17185937D02*
G75*
G03*
X5209688Y-17656997I192833J-229813D01*
G01*
X10960000Y-7800000D02*
G75*
G03*
X10960000Y-7800000I-160000J0D01*
G01*
X7373317Y-15085425D02*
G75*
G03*
X7373317Y-15085425I-160000J0D01*
G01*
X15350000Y-9650000D02*
X15350000Y-8350000D01*
X17350000Y-9650000D02*
X15350000Y-9650000D01*
X10000000Y-8000000D02*
X10000000Y-10000000D01*
X4113937Y-7376119D02*
X2994465Y-6436770D01*
X7700000Y-5800000D02*
G75*
G03*
X7400000Y-5500000I-300000J0D01*
G01*
X3650000Y-12650000D02*
X3650000Y-11350000D01*
X8500000Y-16200000D02*
X8500000Y-16800000D01*
X13700000Y-11000000D02*
X13700000Y-13000000D01*
X7300000Y-8000000D02*
X10000000Y-8000000D01*
X15196211Y-3430149D02*
G75*
G03*
X15196211Y-3430149I-160000J0D01*
G01*
X7373317Y-5914575D02*
G75*
G03*
X7373317Y-5914575I-160000J0D01*
G01*
X16181648Y-7314489D02*
G75*
G03*
X16886063Y-7376119I383022J321389D01*
G01*
X13946683Y-5914575D02*
G75*
G03*
X13946683Y-5914575I-160000J0D01*
G01*
X10360000Y-10200000D02*
G75*
G03*
X10360000Y-10200000I-160000J0D01*
G01*
X10000000Y-10000000D02*
X7300000Y-10000000D01*
X3650000Y-9650000D02*
X3650000Y-8350000D01*
X13300000Y-5800000D02*
X13300000Y-6900000D01*
X11000000Y-13000000D02*
X11000000Y-11000000D01*
X7300000Y-13000000D02*
X7300000Y-11000000D01*
X6376278Y-5457828D02*
X4818353Y-7314490D01*
X14200000Y-2886853D02*
X14200000Y-5100000D01*
X7700000Y-6900000D02*
X7700000Y-5800000D01*
X4818353Y-13685510D02*
X6376278Y-15542172D01*
X12500000Y-16800000D02*
X12500000Y-16200000D01*
X7400000Y-5500000D02*
X7200000Y-5500000D01*
X10000000Y-11000000D02*
X10000000Y-13000000D01*
X11000000Y-10000000D02*
X11000000Y-8000000D01*
X5650000Y-9650000D02*
X3650000Y-9650000D01*
X8700000Y-17000000D02*
X12300000Y-17000000D01*
X18005533Y-14563232D02*
G75*
G03*
X18466919Y-14467140I192837J229812D01*
G01*
X10360000Y-10800000D02*
G75*
G03*
X10360000Y-10800000I-160000J0D01*
G01*
X14685351Y-4753412D02*
X15804823Y-3814064D01*
X11310000Y-18000000D02*
G75*
G03*
X11310000Y-18000000I-810000J0D01*
G01*
X10360000Y-7800000D02*
G75*
G03*
X10360000Y-7800000I-160000J0D01*
G01*
X13946683Y-15085425D02*
G75*
G03*
X13946683Y-15085425I-160000J0D01*
G01*
X15746489Y-12940501D02*
G75*
G03*
X15746489Y-12940501I-160000J0D01*
G01*
X18005535Y-6436770D02*
X16886063Y-7376119D01*
X10960000Y-13200000D02*
G75*
G03*
X10960000Y-13200000I-160000J0D01*
G01*
X13800000Y-5500000D02*
G75*
G03*
X14200000Y-5100000I0J400000D01*
G01*
X12300000Y-16000000D02*
X8700000Y-16000000D01*
X14623722Y-15542172D02*
X16181647Y-13685510D01*
X13700000Y-8000000D02*
X13700000Y-10000000D01*
X4113938Y-7376118D02*
G75*
G03*
X4818353Y-7314490I321394J383015D01*
G01*
X17350000Y-12650000D02*
X15350000Y-12650000D01*
X18466919Y-14467140D02*
G75*
G03*
X18466919Y-6532859I-7966919J3967140D01*
G01*
X2533081Y-6532859D02*
G75*
G03*
X2533081Y-14467140I7966919J-3967141D01*
G01*
X11000000Y-8000000D02*
X13700000Y-8000000D01*
X13700000Y-10000000D02*
X11000000Y-10000000D01*
X13600000Y-5500000D02*
G75*
G03*
X13300000Y-5800000I0J-300000D01*
G01*
X5650000Y-8350000D02*
X5650000Y-9650000D01*
X5650000Y-11350000D02*
X5650000Y-12650000D01*
X15790312Y-17656997D02*
G75*
G03*
X15804823Y-17185936I-178322J241247D01*
G01*
X6360465Y-2621279D02*
G75*
G03*
X5209688Y-3343003I4139525J-7878711D01*
G01*
X5195177Y-3814064D02*
X6314649Y-4753412D01*
X10960000Y-10200000D02*
G75*
G03*
X10960000Y-10200000I-160000J0D01*
G01*
X15350000Y-8350000D02*
X17350000Y-8350000D01*
X13700000Y-13000000D02*
X11000000Y-13000000D01*
X5209688Y-17656997D02*
G75*
G03*
X15790312Y-17656997I5290312J7156997D01*
G01*
X14623722Y-15542171D02*
G75*
G03*
X14685351Y-16246588I383023J-321394D01*
G01*
X2909851Y-7260371D02*
G75*
G03*
X2909851Y-7260371I-160000J0D01*
G01*
X4818352Y-13685511D02*
G75*
G03*
X4113937Y-13623881I-383022J-321389D01*
G01*
X18410149Y-13739629D02*
G75*
G03*
X18410149Y-13739629I-160000J0D01*
G01*
X12300000Y-17000000D02*
G75*
G03*
X12500000Y-16800000I0J200000D01*
G01*
X6314649Y-16246588D02*
X5195177Y-17185936D01*
X14639537Y-2621277D02*
G75*
G03*
X14200000Y-2886853I-139538J-265573D01*
G01*
X6123789Y-17569851D02*
G75*
G03*
X6123789Y-17569851I-160000J0D01*
G01*
X18466916Y-6532861D02*
G75*
G03*
X18005535Y-6436770I-268546J-133719D01*
G01*
X6440637Y-2978270D02*
G75*
G03*
X6440637Y-2978270I-110000J0D01*
G01*
X13800000Y-5500000D02*
X13600000Y-5500000D01*
X16181647Y-7314490D02*
X14623722Y-5457828D01*
X15804823Y-3814063D02*
G75*
G03*
X15790312Y-3343003I-192833J229813D01*
G01*
X6314650Y-16246588D02*
G75*
G03*
X6376278Y-15542172I-321393J383022D01*
G01*
X3650000Y-8350000D02*
X5650000Y-8350000D01*
X8700000Y-16000000D02*
G75*
G03*
X8500000Y-16200000I0J-200000D01*
G01*
X5209688Y-3343003D02*
G75*
G03*
X5195177Y-3814064I178322J-241247D01*
G01*
X10000000Y-13000000D02*
X7300000Y-13000000D01*
X3650000Y-11350000D02*
X5650000Y-11350000D01*
X17350000Y-11350000D02*
X17350000Y-12650000D01*
X12500000Y-16200000D02*
G75*
G03*
X12300000Y-16000000I-200000J0D01*
G01*
X11000000Y-11000000D02*
X13700000Y-11000000D01*
X14685350Y-4753412D02*
G75*
G03*
X14623722Y-5457828I321393J-383022D01*
G01*
X10360000Y-13200000D02*
G75*
G03*
X10360000Y-13200000I-160000J0D01*
G01*
X5573511Y-8059499D02*
G75*
G03*
X5573511Y-8059499I-160000J0D01*
G01*
X6800000Y-5100000D02*
X6800000Y-2886853D01*
X16886063Y-13623881D02*
X18005535Y-14563230D01*
X15804823Y-17185936D02*
X14685351Y-16246588D01*
X1850777Y-19721484D02*
X1850777Y-19521484D01*
X1850777Y-19521484D02*
X1898396Y-19521484D01*
X1898396Y-19521484D02*
X1926967Y-19531008D01*
X1926967Y-19531008D02*
X1946015Y-19550055D01*
X1946015Y-19550055D02*
X1955539Y-19569103D01*
X1955539Y-19569103D02*
X1965062Y-19607198D01*
X1965062Y-19607198D02*
X1965062Y-19635770D01*
X1965062Y-19635770D02*
X1955539Y-19673865D01*
X1955539Y-19673865D02*
X1946015Y-19692912D01*
X1946015Y-19692912D02*
X1926967Y-19711960D01*
X1926967Y-19711960D02*
X1898396Y-19721484D01*
X1898396Y-19721484D02*
X1850777Y-19721484D01*
X2050777Y-19721484D02*
X2050777Y-19588150D01*
X2050777Y-19626246D02*
X2060301Y-19607198D01*
X2060301Y-19607198D02*
X2069824Y-19597674D01*
X2069824Y-19597674D02*
X2088872Y-19588150D01*
X2088872Y-19588150D02*
X2107920Y-19588150D01*
X2174586Y-19721484D02*
X2174586Y-19588150D01*
X2174586Y-19521484D02*
X2165063Y-19531008D01*
X2165063Y-19531008D02*
X2174586Y-19540531D01*
X2174586Y-19540531D02*
X2184110Y-19531008D01*
X2184110Y-19531008D02*
X2174586Y-19521484D01*
X2174586Y-19521484D02*
X2174586Y-19540531D01*
X2298396Y-19721484D02*
X2279348Y-19711960D01*
X2279348Y-19711960D02*
X2269824Y-19692912D01*
X2269824Y-19692912D02*
X2269824Y-19521484D01*
X2403158Y-19721484D02*
X2384110Y-19711960D01*
X2384110Y-19711960D02*
X2374586Y-19692912D01*
X2374586Y-19692912D02*
X2374586Y-19521484D01*
X2631729Y-19721484D02*
X2631729Y-19521484D01*
X2631729Y-19521484D02*
X2698396Y-19664341D01*
X2698396Y-19664341D02*
X2765063Y-19521484D01*
X2765063Y-19521484D02*
X2765063Y-19721484D01*
X2946015Y-19721484D02*
X2946015Y-19616722D01*
X2946015Y-19616722D02*
X2936491Y-19597674D01*
X2936491Y-19597674D02*
X2917443Y-19588150D01*
X2917443Y-19588150D02*
X2879348Y-19588150D01*
X2879348Y-19588150D02*
X2860301Y-19597674D01*
X2946015Y-19711960D02*
X2926967Y-19721484D01*
X2926967Y-19721484D02*
X2879348Y-19721484D01*
X2879348Y-19721484D02*
X2860301Y-19711960D01*
X2860301Y-19711960D02*
X2850777Y-19692912D01*
X2850777Y-19692912D02*
X2850777Y-19673865D01*
X2850777Y-19673865D02*
X2860301Y-19654817D01*
X2860301Y-19654817D02*
X2879348Y-19645293D01*
X2879348Y-19645293D02*
X2926967Y-19645293D01*
X2926967Y-19645293D02*
X2946015Y-19635770D01*
X3041253Y-19588150D02*
X3041253Y-19788150D01*
X3041253Y-19597674D02*
X3060301Y-19588150D01*
X3060301Y-19588150D02*
X3098396Y-19588150D01*
X3098396Y-19588150D02*
X3117443Y-19597674D01*
X3117443Y-19597674D02*
X3126967Y-19607198D01*
X3126967Y-19607198D02*
X3136491Y-19626246D01*
X3136491Y-19626246D02*
X3136491Y-19683389D01*
X3136491Y-19683389D02*
X3126967Y-19702436D01*
X3126967Y-19702436D02*
X3117443Y-19711960D01*
X3117443Y-19711960D02*
X3098396Y-19721484D01*
X3098396Y-19721484D02*
X3060301Y-19721484D01*
X3060301Y-19721484D02*
X3041253Y-19711960D01*
X3222205Y-19702436D02*
X3231729Y-19711960D01*
X3231729Y-19711960D02*
X3222205Y-19721484D01*
X3222205Y-19721484D02*
X3212682Y-19711960D01*
X3212682Y-19711960D02*
X3222205Y-19702436D01*
X3222205Y-19702436D02*
X3222205Y-19721484D01*
X3222205Y-19597674D02*
X3231729Y-19607198D01*
X3231729Y-19607198D02*
X3222205Y-19616722D01*
X3222205Y-19616722D02*
X3212682Y-19607198D01*
X3212682Y-19607198D02*
X3222205Y-19597674D01*
X3222205Y-19597674D02*
X3222205Y-19616722D01*
M02*
