0
SECTION
2
HEADER
9
$INSUNITS
70
4
9
$ACADVER
1
AC1014
9
$HANDSEED
5
FFFF
0
ENDSEC
0
SECTION
2
TABLES
0
TABLE
2
VPORT
5
8
100
AcDbSymbolTable
0
ENDTAB
0
TABLE
2
LTYPE
5
5
100
AcDbSymbolTable
0
LTYPE
5
14
100
AcDbSymbolTableRecord
100
AcDbLinetypeTableRecord
2
BYBLOCK
70
0
0
LTYPE
5
15
100
AcDbSymbolTableRecord
100
AcDbLinetypeTableRecord
2
BYLAYER
70
0
0
ENDTAB
0
TABLE
2
LAYER
5
2
100
AcDbSymbolTable
70
2
0
LAYER
5
50
100
AcDbSymbolTableRecord
100
AcDbLayerTableRecord
2
0
70
0
6
CONTINUOUS
0
ENDTAB
0
TABLE
2
STYLE
5
3
100
AcDbSymbolTable
70
1
0
STYLE
5
11
100
AcDbSymbolTableRecord
100
AcDbTextStyleTableRecord
2
STANDARD
70
0
0
ENDTAB
0
TABLE
2
VIEW
5
6
100
AcDbSymbolTable
70
0
0
ENDTAB
0
TABLE
2
UCS
5
7
100
AcDbSymbolTable
70
0
0
ENDTAB
0
TABLE
2
APPID
5
9
100
AcDbSymbolTable
70
2
0
APPID
5
12
100
AcDbSymbolTableRecord
100
AcDbRegAppTableRecord
2
ACAD
70
0
0
ENDTAB
0
TABLE
2
DIMSTYLE
5
A
100
AcDbSymbolTable
70
1
0
ENDTAB
0
TABLE
2
BLOCK_RECORD
5
1
100
AcDbSymbolTable
70
1
0
BLOCK_RECORD
5
1F
100
AcDbSymbolTableRecord
100
AcDbBlockTableRecord
2
*MODEL_SPACE
0
BLOCK_RECORD
5
1B
100
AcDbSymbolTableRecord
100
AcDbBlockTableRecord
2
*PAPER_SPACE
0
ENDTAB
0
ENDSEC
0
SECTION
2
BLOCKS
0
BLOCK
5
20
100
AcDbEntity
100
AcDbBlockBegin
2
*MODEL_SPACE
0
ENDBLK
5
21
100
AcDbEntity
100
AcDbBlockEnd
0
BLOCK
5
1C
100
AcDbEntity
100
AcDbBlockBegin
2
*PAPER_SPACE
0
ENDBLK
5
1D
100
AcDbEntity
100
AcDbBlockEnd
0
ENDSEC
0
SECTION
2
ENTITIES
0
CIRCLE
5
100
100
AcDbEntity
8
0
100
AcDbCircle
10
-45.362107023487283
20
70.698509506139445
30
0
40
1.6000000000000014
210
0
220
-0
230
1
0
CIRCLE
5
101
100
AcDbEntity
8
0
100
AcDbCircle
10
-77.501487507814232
20
-32.396287350190505
30
0
40
1.6000000000000014
210
0
220
-0
230
1
0
CIRCLE
5
102
100
AcDbEntity
8
0
100
AcDbCircle
10
77.501487507814232
20
-32.396287350190505
30
0
40
1.6000000000000014
210
0
220
-0
230
1
0
CIRCLE
5
103
100
AcDbEntity
8
0
100
AcDbCircle
10
-77.501487507814232
20
32.396287350190505
30
0
40
1.6000000000000014
210
0
220
-0
230
1
0
CIRCLE
5
104
100
AcDbEntity
8
0
100
AcDbCircle
10
45.362107023487312
20
70.698509506139445
30
0
40
1.599999999999997
210
0
220
-0
230
1
0
CIRCLE
5
105
100
AcDbEntity
8
0
100
AcDbCircle
10
77.501487507814232
20
32.396287350190505
30
0
40
1.6000000000000014
210
0
220
-0
230
1
0
LINE
5
106
100
AcDbEntity
8
0
100
AcDbLine
10
41.237222711627851
20
-50.421716603875417
30
0
11
56.816466007601022
21
-31.85509743600133
31
0
0
ARC
5
107
100
AcDbEntity
8
0
100
AcDbCircle
10
60.646688223195902
20
-35.069035484434032
30
0
40
4.9999999999999991
210
0
220
-0
230
1
100
AcDbArc
50
49.999999999999837
51
139.99999999999989
0
LINE
5
108
100
AcDbEntity
8
0
100
AcDbLine
10
63.860626271628611
20
-31.238813268839149
30
0
11
75.055347641611974
21
-40.632299841524578
31
0
0
ARC
5
109
100
AcDbEntity
8
0
100
AcDbCircle
10
76.983710470672719
20
-38.334166512166298
30
0
40
3.0000000000017568
210
0
220
0
230
1
100
AcDbArc
50
230.00000000000006
51
333.52891466411842
0
ARC
5
110
100
AcDbEntity
8
0
100
AcDbCircle
10
0
20
0
30
0
40
89.000000000088136
210
-0
220
0
230
1
100
AcDbArc
50
-26.471085335881611
51
26.471085335938557
0
ARC
5
111
100
AcDbEntity
8
0
100
AcDbCircle
10
76.98371047061633
20
38.334166512233658
30
0
40
3.0000000000222284
210
0
220
-0
230
1
100
AcDbArc
50
26.471085335938383
51
129.99999999999989
0
LINE
5
112
100
AcDbEntity
8
0
100
AcDbLine
10
75.055347641612073
20
40.632299841524627
30
0
11
63.860626271628576
21
31.238813268839223
31
0
0
ARC
5
113
100
AcDbEntity
8
0
100
AcDbCircle
10
60.64668822319593
20
35.069035484434053
30
0
40
4.9999999999999254
210
0
220
0
230
1
100
AcDbArc
50
219.99999999999997
51
310
0
LINE
5
114
100
AcDbEntity
8
0
100
AcDbLine
10
56.8164660076011
20
31.855097436001408
30
0
11
41.237222711628469
21
50.421716603875922
31
0
0
ARC
5
115
100
AcDbEntity
8
0
100
AcDbCircle
10
45.067444927223335
20
53.635654652308631
30
0
40
4.9999999999999787
210
0
220
0
230
1
100
AcDbArc
50
130
51
220.00000000000031
0
LINE
5
116
100
AcDbEntity
8
0
100
AcDbLine
10
41.853506878790654
20
57.465876867903503
30
0
11
53.048228248802488
21
66.859363440612839
31
0
0
ARC
5
117
100
AcDbEntity
8
0
100
AcDbCircle
10
51.119865419761119
20
69.157496769948025
30
0
40
2.9999999999716156
210
-0
220
0
230
1
100
AcDbArc
50
-49.999999999999993
51
53.528914664092682
0
ARC
5
118
100
AcDbEntity
8
0
100
AcDbCircle
10
0
20
0
30
0
40
89.000000000087084
210
0
220
-0
230
1
100
AcDbArc
50
53.528914664093001
51
126.47108533588626
0
ARC
5
119
100
AcDbEntity
8
0
100
AcDbCircle
10
-51.119865419717939
20
69.157496769941943
30
0
40
2.9999999999177951
210
0
220
0
230
1
100
AcDbArc
50
126.4710853358859
51
230.00000000004513
0
LINE
5
120
100
AcDbEntity
8
0
100
AcDbLine
10
-53.048228248723504
20
66.859363440645751
30
0
11
-41.853506878790661
21
57.465876867903532
31
0
0
ARC
5
121
100
AcDbEntity
8
0
100
AcDbCircle
10
-45.06744492722337
20
53.635654652308645
30
0
40
5.0000000000000098
210
-0
220
0
230
1
100
AcDbArc
50
-40.000000000000007
51
49.999999999999865
0
LINE
5
122
100
AcDbEntity
8
0
100
AcDbLine
10
-41.237222711628476
20
50.421716603875943
30
0
11
-56.816466007601029
21
31.855097436001351
31
0
0
ARC
5
123
100
AcDbEntity
8
0
100
AcDbCircle
10
-60.646688223195909
20
35.069035484434039
30
0
40
4.9999999999999902
210
0
220
0
230
1
100
AcDbArc
50
230.00000000000023
51
320
0
LINE
5
124
100
AcDbEntity
8
0
100
AcDbLine
10
-63.860626271628583
20
31.238813268839142
30
0
11
-75.055347641618525
21
40.63229984153012
31
0
0
ARC
5
125
100
AcDbEntity
8
0
100
AcDbCircle
10
-76.983710470676527
20
38.334166512175123
30
0
40
2.9999999999974807
210
0
220
-0
230
1
100
AcDbArc
50
49.999999999999851
51
153.52891466411484
0
ARC
5
126
100
AcDbEntity
8
0
100
AcDbCircle
10
0
20
0
30
0
40
89.000000000091205
210
0
220
0
230
1
100
AcDbArc
50
153.52891466411424
51
206.47108533589463
0
ARC
5
127
100
AcDbEntity
8
0
100
AcDbCircle
10
-76.983710470678218
20
-38.334166512190791
30
0
40
2.9999999999002158
210
0
220
0
230
1
100
AcDbArc
50
206.47108533589537
51
310.00000000000034
0
LINE
5
128
100
AcDbEntity
8
0
100
AcDbLine
10
-75.055347641682715
20
-40.632299841471287
30
0
11
-63.860626271628497
21
-31.238813268839067
31
0
0
ARC
5
129
100
AcDbEntity
8
0
100
AcDbCircle
10
-60.646688223195767
20
-35.069035484433911
30
0
40
4.999999999999992
210
0
220
-0
230
1
100
AcDbArc
50
39.999999999999993
51
130.00000000000065
0
LINE
5
130
100
AcDbEntity
8
0
100
AcDbLine
10
-56.816466007600887
20
-31.855097436001223
30
0
11
-41.237222711628327
21
-50.421716603875808
31
0
0
ARC
5
131
100
AcDbEntity
8
0
100
AcDbCircle
10
-45.067444927223256
20
-53.635654652308553
30
0
40
5.0000000000000613
210
0
220
0
230
1
100
AcDbArc
50
-49.999999999999993
51
40.000000000000128
0
LINE
5
132
100
AcDbEntity
8
0
100
AcDbLine
10
-41.853506878790519
20
-57.465876867903489
30
0
11
-53.048228248706046
21
-66.859363440532121
31
0
0
ARC
5
133
100
AcDbEntity
8
0
100
AcDbCircle
10
-51.119865419646388
20
-69.157496769889136
30
0
40
3.0000000000000875
210
0
220
0
230
1
100
AcDbArc
50
129.9999999999996
51
233.52891466413124
0
ARC
5
134
100
AcDbEntity
8
0
100
AcDbCircle
10
0
20
0
30
0
40
89
210
0
220
0
230
1
100
AcDbArc
50
233.52891466413118
51
242.28225318399629
0
ARC
5
135
100
AcDbEntity
8
0
100
AcDbCircle
10
-40.000000000000036
20
-76.131465242697104
30
0
40
3.0000000000003095
210
0
220
0
230
1
100
AcDbArc
50
-117.71772177263671
51
0
0
LINE
5
136
100
AcDbEntity
8
0
100
AcDbLine
10
-36.999999999999993
20
-76.131465242697104
30
0
11
-37.000000000000043
21
-54
31
0
0
ARC
5
137
100
AcDbEntity
8
0
100
AcDbCircle
10
-33.000000000000028
20
-54.000000000000014
30
0
40
4.0000000000000124
210
0
220
0
230
1
100
AcDbArc
50
90
51
180
0
LINE
5
138
100
AcDbEntity
8
0
100
AcDbLine
10
-33.000000000000028
20
-50
30
0
11
32.999999999999972
21
-49.999999999999993
31
0
0
ARC
5
139
100
AcDbEntity
8
0
100
AcDbCircle
10
32.999999999999964
20
-54.000000000000014
30
0
40
4.0000000000000258
210
-0
220
0
230
1
100
AcDbArc
50
0
51
89.999999999999901
0
LINE
5
140
100
AcDbEntity
8
0
100
AcDbLine
10
36.999999999999993
20
-54.000000000000021
30
0
11
36.999999999999993
21
-76.131465242697189
31
0
0
ARC
5
141
100
AcDbEntity
8
0
100
AcDbCircle
10
39.999999999999979
20
-76.131465242697175
30
0
40
2.9999999999999893
210
0
220
0
230
1
100
AcDbArc
50
180
51
297.71774768960944
0
ARC
5
142
100
AcDbEntity
8
0
100
AcDbCircle
10
0
20
0
30
0
40
89.000000000000043
210
-0
220
0
230
1
100
AcDbArc
50
297.71774768960955
51
306.4710853358693
0
ARC
5
143
100
AcDbEntity
8
0
100
AcDbCircle
10
51.119865419646956
20
-69.157496769888851
30
0
40
3.0000000000000053
210
-0
220
0
230
1
100
AcDbArc
50
-53.528914664130717
51
49.999999999972701
0
LINE
5
144
100
AcDbEntity
8
0
100
AcDbLine
10
53.048228248707673
20
-66.859363440532832
30
0
11
41.853506878790128
21
-57.465876867903887
31
0
0
ARC
5
145
100
AcDbEntity
8
0
100
AcDbCircle
10
45.067444927223207
20
-53.635654652308517
30
0
40
5.0000000000006137
210
0
220
0
230
1
100
AcDbArc
50
139.99999999999989
51
230.00000000000017
0
LINE
5
146
100
AcDbEntity
8
0
100
AcDbLine
10
-31.999999999999989
20
25.000000000000004
30
0
11
-5
21
24.999999999999996
31
0
0
LINE
5
147
100
AcDbEntity
8
0
100
AcDbLine
10
-5
20
24.999999999999996
30
0
11
-5
21
4.9999999999999911
31
0
0
LINE
5
148
100
AcDbEntity
8
0
100
AcDbLine
10
-5
20
4.9999999999999911
30
0
11
-32
21
5.0000000000000009
31
0
0
LINE
5
149
100
AcDbEntity
8
0
100
AcDbLine
10
-32
20
5.0000000000000009
30
0
11
-31.999999999999989
21
24.999999999999996
31
0
0
CIRCLE
5
150
100
AcDbEntity
8
0
100
AcDbCircle
10
-2.9999999999999973
20
2.9999999999999978
30
0
40
1.6000000000000003
210
0
220
-0
230
1
0
CIRCLE
5
151
100
AcDbEntity
8
0
100
AcDbCircle
10
-2.9999999999999929
20
27
30
0
40
1.6000000000000014
210
0
220
-0
230
1
0
LINE
5
152
100
AcDbEntity
8
0
100
AcDbLine
10
5
20
24.999999999999996
30
0
11
31.999999999999989
21
25.000000000000004
31
0
0
LINE
5
153
100
AcDbEntity
8
0
100
AcDbLine
10
31.999999999999989
20
24.999999999999996
30
0
11
32
21
5.0000000000000009
31
0
0
LINE
5
154
100
AcDbEntity
8
0
100
AcDbLine
10
32
20
5.0000000000000009
30
0
11
5
21
4.9999999999999929
31
0
0
LINE
5
155
100
AcDbEntity
8
0
100
AcDbLine
10
5
20
4.9999999999999929
30
0
11
5
21
24.999999999999996
31
0
0
CIRCLE
5
156
100
AcDbEntity
8
0
100
AcDbCircle
10
2.9999999999999973
20
2.9999999999999978
30
0
40
1.6000000000000003
210
0
220
0
230
1
0
CIRCLE
5
157
100
AcDbEntity
8
0
100
AcDbCircle
10
2.9999999999999929
20
27
30
0
40
1.6000000000000014
210
0
220
0
230
1
0
LINE
5
158
100
AcDbEntity
8
0
100
AcDbLine
10
-5
20
-24.999999999999996
30
0
11
-31.999999999999989
21
-25.000000000000004
31
0
0
LINE
5
159
100
AcDbEntity
8
0
100
AcDbLine
10
-31.999999999999989
20
-24.999999999999996
30
0
11
-32
21
-5.0000000000000009
31
0
0
LINE
5
160
100
AcDbEntity
8
0
100
AcDbLine
10
-32
20
-5.0000000000000009
30
0
11
-5
21
-4.9999999999999929
31
0
0
LINE
5
161
100
AcDbEntity
8
0
100
AcDbLine
10
-5
20
-4.9999999999999929
30
0
11
-5
21
-24.999999999999996
31
0
0
CIRCLE
5
162
100
AcDbEntity
8
0
100
AcDbCircle
10
-2.9999999999999973
20
-2.9999999999999978
30
0
40
1.6000000000000003
210
0
220
-0
230
1
0
CIRCLE
5
163
100
AcDbEntity
8
0
100
AcDbCircle
10
-2.9999999999999929
20
-27
30
0
40
1.6000000000000014
210
0
220
-0
230
1
0
LINE
5
164
100
AcDbEntity
8
0
100
AcDbLine
10
31.999999999999989
20
-25.000000000000004
30
0
11
5
21
-24.999999999999996
31
0
0
LINE
5
165
100
AcDbEntity
8
0
100
AcDbLine
10
5
20
-24.999999999999996
30
0
11
5
21
-4.9999999999999911
31
0
0
LINE
5
166
100
AcDbEntity
8
0
100
AcDbLine
10
5
20
-4.9999999999999911
30
0
11
32
21
-5.0000000000000009
31
0
0
LINE
5
167
100
AcDbEntity
8
0
100
AcDbLine
10
32
20
-5.0000000000000009
30
0
11
31.999999999999989
21
-24.999999999999996
31
0
0
CIRCLE
5
168
100
AcDbEntity
8
0
100
AcDbCircle
10
2.9999999999999973
20
-2.9999999999999978
30
0
40
1.6000000000000003
210
0
220
0
230
1
0
CIRCLE
5
169
100
AcDbEntity
8
0
100
AcDbCircle
10
2.9999999999999929
20
-27
30
0
40
1.6000000000000014
210
0
220
0
230
1
0
CIRCLE
5
170
100
AcDbEntity
8
0
100
AcDbCircle
10
50.864887440949943
20
-24.405006240923047
30
0
40
1.6000000000000014
210
0
220
-0
230
1
0
CIRCLE
5
171
100
AcDbEntity
8
0
100
AcDbCircle
10
32.866834369726838
20
-45.854250648254435
30
0
40
1.6000000000000014
210
0
220
-0
230
1
0
CIRCLE
5
172
100
AcDbEntity
8
0
100
AcDbCircle
10
-50.864887440949943
20
-24.405006240923047
30
0
40
1.6000000000000014
210
0
220
-0
230
1
0
CIRCLE
5
173
100
AcDbEntity
8
0
100
AcDbCircle
10
50.864887440949943
20
24.405006240923047
30
0
40
1.6000000000000014
210
0
220
-0
230
1
0
CIRCLE
5
174
100
AcDbEntity
8
0
100
AcDbCircle
10
-50.864887440949943
20
24.405006240923047
30
0
40
1.6000000000000014
210
0
220
-0
230
1
0
CIRCLE
5
175
100
AcDbEntity
8
0
100
AcDbCircle
10
-32.866834369726838
20
45.854250648254435
30
0
40
1.6000000000000014
210
0
220
-0
230
1
0
CIRCLE
5
176
100
AcDbEntity
8
0
100
AcDbCircle
10
32.866834369726838
20
45.854250648254435
30
0
40
1.6000000000000014
210
0
220
-0
230
1
0
CIRCLE
5
177
100
AcDbEntity
8
0
100
AcDbCircle
10
-32.866834369726838
20
-45.854250648254435
30
0
40
1.6000000000000014
210
0
220
-0
230
1
0
CIRCLE
5
178
100
AcDbEntity
8
0
100
AcDbCircle
10
-41.693627341185007
20
-75.217294813988048
30
0
40
1.1000000000000032
210
0
220
-0
230
1
0
CIRCLE
5
179
100
AcDbEntity
8
0
100
AcDbCircle
10
41.6936273411849
20
-75.21729481398809
30
0
40
1.1000000000000032
210
0
220
-0
230
1
0
CIRCLE
5
180
100
AcDbEntity
8
0
100
AcDbCircle
10
-45.362107023487283
20
-70.69850950613943
30
0
40
1.6000000000000014
210
0
220
-0
230
1
0
CIRCLE
5
181
100
AcDbEntity
8
0
100
AcDbCircle
10
45.362107023487297
20
-70.69850950613943
30
0
40
1.6000000000000014
210
0
220
-0
230
1
0
CIRCLE
5
182
100
AcDbEntity
8
0
100
AcDbCircle
10
0
20
0
30
0
40
89
210
0
220
0
230
1
0
LWPOLYLINE
5
183
100
AcDbEntity
8
0
100
AcDbPolyline
90
4
70
1
43
0.0
10
-68.500000000000028
20
21.5
10
-48.500000000000028
20
21.500000000000004
10
-48.500000000000028
20
8.4999999999999964
10
-68.500000000000028
20
8.4999999999999947
0
LWPOLYLINE
5
184
100
AcDbEntity
8
0
100
AcDbPolyline
90
4
70
1
43
0.0
10
48.500000000000028
20
21.500000000000004
10
68.500000000000028
20
21.5
10
68.500000000000028
20
8.4999999999999964
10
48.500000000000028
20
8.4999999999999947
0
LWPOLYLINE
5
185
100
AcDbEntity
8
0
100
AcDbPolyline
90
4
70
1
43
0.0
10
-48.500000000000028
20
-21.500000000000004
10
-68.500000000000028
20
-21.5
10
-68.500000000000028
20
-8.4999999999999964
10
-48.500000000000028
20
-8.4999999999999947
0
LWPOLYLINE
5
186
100
AcDbEntity
8
0
100
AcDbPolyline
90
4
70
1
43
0.0
10
68.500000000000028
20
-21.5
10
48.500000000000028
20
-21.500000000000004
10
48.500000000000028
20
-8.4999999999999964
10
68.500000000000028
20
-8.4999999999999947
0
CIRCLE
5
187
100
AcDbEntity
8
0
100
AcDbCircle
10
0
20
73
30
0
40
11
210
0
220
-0
230
1
0
ENDSEC
0
SECTION
2
OBJECTS
0
DICTIONARY
5
C
100
AcDbDictionary
3
ACAD_GROUP
350
D
3
ACAD_MLINESTYLE
350
17
0
DICTIONARY
5
D
100
AcDbDictionary
0
DICTIONARY
5
1A
330
C
100
AcDbDictionary
0
DICTIONARY
5
17
100
AcDbDictionary
0
ENDSEC
0
EOF
