0
SECTION
2
HEADER
9
$INSUNITS
70
4
9
$ACADVER
1
AC1014
9
$HANDSEED
5
FFFF
0
ENDSEC
0
SECTION
2
TABLES
0
TABLE
2
VPORT
5
8
100
AcDbSymbolTable
0
ENDTAB
0
TABLE
2
LTYPE
5
5
100
AcDbSymbolTable
0
LTYPE
5
14
100
AcDbSymbolTableRecord
100
AcDbLinetypeTableRecord
2
BYBLOCK
70
0
0
LTYPE
5
15
100
AcDbSymbolTableRecord
100
AcDbLinetypeTableRecord
2
BYLAYER
70
0
0
ENDTAB
0
TABLE
2
LAYER
5
2
100
AcDbSymbolTable
70
2
0
LAYER
5
50
100
AcDbSymbolTableRecord
100
AcDbLayerTableRecord
2
0
70
0
6
CONTINUOUS
0
ENDTAB
0
TABLE
2
STYLE
5
3
100
AcDbSymbolTable
70
1
0
STYLE
5
11
100
AcDbSymbolTableRecord
100
AcDbTextStyleTableRecord
2
STANDARD
70
0
0
ENDTAB
0
TABLE
2
VIEW
5
6
100
AcDbSymbolTable
70
0
0
ENDTAB
0
TABLE
2
UCS
5
7
100
AcDbSymbolTable
70
0
0
ENDTAB
0
TABLE
2
APPID
5
9
100
AcDbSymbolTable
70
2
0
APPID
5
12
100
AcDbSymbolTableRecord
100
AcDbRegAppTableRecord
2
ACAD
70
0
0
ENDTAB
0
TABLE
2
DIMSTYLE
5
A
100
AcDbSymbolTable
70
1
0
ENDTAB
0
TABLE
2
BLOCK_RECORD
5
1
100
AcDbSymbolTable
70
1
0
BLOCK_RECORD
5
1F
100
AcDbSymbolTableRecord
100
AcDbBlockTableRecord
2
*MODEL_SPACE
0
BLOCK_RECORD
5
1B
100
AcDbSymbolTableRecord
100
AcDbBlockTableRecord
2
*PAPER_SPACE
0
ENDTAB
0
ENDSEC
0
SECTION
2
BLOCKS
0
BLOCK
5
20
100
AcDbEntity
100
AcDbBlockBegin
2
*MODEL_SPACE
0
ENDBLK
5
21
100
AcDbEntity
100
AcDbBlockEnd
0
BLOCK
5
1C
100
AcDbEntity
100
AcDbBlockBegin
2
*PAPER_SPACE
0
ENDBLK
5
1D
100
AcDbEntity
100
AcDbBlockEnd
0
ENDSEC
0
SECTION
2
ENTITIES
0
LWPOLYLINE
5
100
100
AcDbEntity
8
0
100
AcDbPolyline
90
8
70
1
43
0.0
10
-27.000000000000011
20
52
42
0.41421356237309509
10
-29.999999999999993
20
49.000000000000021
10
-29.999999999999996
20
34.999999999999993
42
0.41421356237309681
10
-26.999999999999996
20
31.999999999999993
10
27.000000000000007
20
31.999999999999996
42
0.41421356237309587
10
30
20
35
10
30.000000000000004
20
49.000000000000014
42
0.41421356237309759
10
27.000000000000011
20
51.999999999999993
0
LWPOLYLINE
5
101
100
AcDbEntity
8
0
100
AcDbPolyline
90
40
70
1
43
0.0
10
39.631543881181429
20
-55.446737772334188
10
61.486322610523672
20
-29.401226706289005
42
-0.41421356237309465
10
68.530482874551268
20
-28.78494253912681
10
77.176126575878925
20
-36.039498980201003
42
0.5034929485283266
10
81.863948337669001
20
-34.918390034013029
42
0.20436370793097733
10
81.863948337669086
20
34.918390034012965
42
0.50349294852832949
10
77.176126575878868
20
36.039498980200989
10
68.530482874551254
20
28.784942539126792
42
-0.41421356237309481
10
61.486322610523672
20
29.401226706288991
10
39.631543881181422
20
55.446737772334188
42
-0.41421356237309431
10
40.247828048343621
20
62.490898036361777
10
48.893471749700687
20
69.745454477460655
42
0.50349294852818505
10
48.603426673689533
20
74.556736218636146
42
0.29716554510291759
10
-48.603426673648627
20
74.556736218662806
42
0.5034929485283608
10
-48.893471749664592
20
69.745454477430386
10
-40.247828048343621
20
62.490898036361784
42
-0.41421356237309404
10
-39.631543881181422
20
55.446737772334188
10
-61.486322610523686
20
29.401226706289005
42
-0.41421356237309576
10
-68.530482874551225
20
28.78494253912681
10
-77.176126575881568
20
36.039498980203248
42
0.50349294852831361
10
-81.863948337667679
20
34.918390034016362
42
0.20436370793103972
10
-81.863948337662094
20
-34.918390034029294
42
0.50349294852827009
10
-77.176126575892013
20
-36.039498980212059
10
-68.53048287455124
20
-28.784942539126824
42
-0.41421356237309442
10
-61.486322610523686
20
-29.401226706289009
10
-39.631543881181422
20
-55.446737772334195
42
-0.41421356237309331
10
-40.247828048343635
20
-62.490898036361848
10
-48.893471749671171
20
-69.745454477435928
42
0.5034929485283256
10
-48.603426673656131
20
-74.556736218657761
42
0.030018305449224347
10
-39.325582203428894
20
-79.840457065082859
42
0.55557980807685681
10
-34.999999999999979
20
-77.149206087943526
10
-34.999999999999986
20
-41.000000000000014
42
-0.41421356237309537
10
-30.999999999999979
20
-37
10
30.999999999999996
20
-37.000000000000007
42
-0.41421356237309537
10
35
20
-41.000000000000007
10
35
20
-77.149206087943668
42
0.55557970984101845
10
39.325581395348856
20
-79.840457463104485
42
0.030018307981800989
10
48.603426673656251
20
-74.556736218657832
42
0.50349294852832738
10
48.893471749671285
20
-69.745454477436041
10
40.247828048343621
20
-62.490898036361784
42
-0.41421356237309592
0
CIRCLE
5
102
100
AcDbEntity
8
0
100
AcDbCircle
10
0
20
0
30
0
40
88.999999999999986
210
0
220
0
230
1
0
ENDSEC
0
SECTION
2
OBJECTS
0
DICTIONARY
5
C
100
AcDbDictionary
3
ACAD_GROUP
350
D
3
ACAD_MLINESTYLE
350
17
0
DICTIONARY
5
D
100
AcDbDictionary
0
DICTIONARY
5
1A
330
C
100
AcDbDictionary
0
DICTIONARY
5
17
100
AcDbDictionary
0
ENDSEC
0
EOF
