%TF.GenerationSoftware,KiCad,Pcbnew,7.0.9*%
%TF.CreationDate,2023-12-19T12:29:38+08:00*%
%TF.ProjectId,layer3,6c617965-7233-42e6-9b69-6361645f7063,rev?*%
%TF.SameCoordinates,Original*%
%TF.FileFunction,Legend,Top*%
%TF.FilePolarity,Positive*%
%FSLAX46Y46*%
G04 Gerber Fmt 4.6, Leading zero omitted, Abs format (unit mm)*
G04 Created by KiCad (PCBNEW 7.0.9) date 2023-12-19 12:29:38*
%MOMM*%
%LPD*%
G01*
G04 APERTURE LIST*
G04 Aperture macros list*
%AMRoundRect*
0 Rectangle with rounded corners*
0 $1 Rounding radius*
0 $2 $3 $4 $5 $6 $7 $8 $9 X,Y pos of 4 corners*
0 Add a 4 corners polygon primitive as box body*
4,1,4,$2,$3,$4,$5,$6,$7,$8,$9,$2,$3,0*
0 Add four circle primitives for the rounded corners*
1,1,$1+$1,$2,$3*
1,1,$1+$1,$4,$5*
1,1,$1+$1,$6,$7*
1,1,$1+$1,$8,$9*
0 Add four rect primitives between the rounded corners*
20,1,$1+$1,$2,$3,$4,$5,0*
20,1,$1+$1,$4,$5,$6,$7,0*
20,1,$1+$1,$6,$7,$8,$9,0*
20,1,$1+$1,$8,$9,$2,$3,0*%
%AMHorizOval*
0 Thick line with rounded ends*
0 $1 width*
0 $2 $3 position (X,Y) of the first rounded end (center of the circle)*
0 $4 $5 position (X,Y) of the second rounded end (center of the circle)*
0 Add line between two ends*
20,1,$1,$2,$3,$4,$5,0*
0 Add two circle primitives to create the rounded ends*
1,1,$1,$2,$3*
1,1,$1,$4,$5*%
G04 Aperture macros list end*
%ADD10C,0.200000*%
%ADD11C,0.400000*%
%ADD12C,0.300000*%
%ADD13C,0.250000*%
%ADD14C,0.150000*%
%ADD15C,0.120000*%
%ADD16C,0.100000*%
%ADD17RoundRect,0.150000X-0.600000X-0.600000X0.600000X-0.600000X0.600000X0.600000X-0.600000X0.600000X0*%
%ADD18RoundRect,0.150000X0.600000X0.600000X-0.600000X0.600000X-0.600000X-0.600000X0.600000X-0.600000X0*%
%ADD19R,1.700000X1.700000*%
%ADD20O,1.700000X1.700000*%
%ADD21C,6.400000*%
%ADD22RoundRect,0.200000X-0.200000X-0.275000X0.200000X-0.275000X0.200000X0.275000X-0.200000X0.275000X0*%
%ADD23RoundRect,0.150000X-0.512500X-0.150000X0.512500X-0.150000X0.512500X0.150000X-0.512500X0.150000X0*%
%ADD24RoundRect,0.200000X0.200000X0.275000X-0.200000X0.275000X-0.200000X-0.275000X0.200000X-0.275000X0*%
%ADD25RoundRect,0.150000X0.444908X-0.463877X0.606980X-0.211424X-0.444908X0.463877X-0.606980X0.211424X0*%
%ADD26RoundRect,0.250000X0.357898X-0.645685X0.736066X-0.056627X-0.357898X0.645685X-0.736066X0.056627X0*%
%ADD27RoundRect,0.150000X0.150000X0.625000X-0.150000X0.625000X-0.150000X-0.625000X0.150000X-0.625000X0*%
%ADD28RoundRect,0.250000X0.350000X0.650000X-0.350000X0.650000X-0.350000X-0.650000X0.350000X-0.650000X0*%
%ADD29RoundRect,0.150000X-0.670094X-0.251942X-0.508021X-0.504395X0.670094X0.251942X0.508021X0.504395X0*%
%ADD30RoundRect,0.250000X-1.102797X-0.410899X-0.832677X-0.831654X1.102797X0.410899X0.832677X0.831654X0*%
%ADD31RoundRect,0.150000X-0.150000X-0.625000X0.150000X-0.625000X0.150000X0.625000X-0.150000X0.625000X0*%
%ADD32RoundRect,0.250000X-0.350000X-0.650000X0.350000X-0.650000X0.350000X0.650000X-0.350000X0.650000X0*%
%ADD33RoundRect,0.150000X0.508021X-0.504395X0.670094X-0.251942X-0.508021X0.504395X-0.670094X0.251942X0*%
%ADD34RoundRect,0.250000X0.832677X-0.831654X1.102797X-0.410899X-0.832677X0.831654X-1.102797X0.410899X0*%
%ADD35C,3.703200*%
%ADD36RoundRect,0.200000X0.275000X-0.200000X0.275000X0.200000X-0.275000X0.200000X-0.275000X-0.200000X0*%
%ADD37C,1.600000*%
%ADD38R,2.440000X1.120000*%
%ADD39RoundRect,0.250000X-0.955277X0.099726X-0.306989X-0.910087X0.955277X-0.099726X0.306989X0.910087X0*%
%ADD40HorizOval,1.700000X-0.126227X-0.081036X0.126227X0.081036X0*%
%ADD41RoundRect,0.250000X-0.725000X0.600000X-0.725000X-0.600000X0.725000X-0.600000X0.725000X0.600000X0*%
%ADD42O,1.950000X1.700000*%
%ADD43C,1.400000*%
%ADD44RoundRect,0.250000X0.750000X-0.600000X0.750000X0.600000X-0.750000X0.600000X-0.750000X-0.600000X0*%
%ADD45O,2.000000X1.700000*%
G04 APERTURE END LIST*
D10*
X99000000Y-93000000D02*
X111000000Y-93000000D01*
X111000000Y-117000000D01*
X99000000Y-117000000D01*
X99000000Y-93000000D01*
D11*
X143000000Y-105000000D02*
G75*
G03*
X143000000Y-105000000I-38000000J0D01*
G01*
D12*
X48571429Y-82305828D02*
X48857143Y-82305828D01*
X48857143Y-82305828D02*
X49000000Y-82377257D01*
X49000000Y-82377257D02*
X49142857Y-82520114D01*
X49142857Y-82520114D02*
X49214286Y-82805828D01*
X49214286Y-82805828D02*
X49214286Y-83305828D01*
X49214286Y-83305828D02*
X49142857Y-83591542D01*
X49142857Y-83591542D02*
X49000000Y-83734400D01*
X49000000Y-83734400D02*
X48857143Y-83805828D01*
X48857143Y-83805828D02*
X48571429Y-83805828D01*
X48571429Y-83805828D02*
X48428572Y-83734400D01*
X48428572Y-83734400D02*
X48285714Y-83591542D01*
X48285714Y-83591542D02*
X48214286Y-83305828D01*
X48214286Y-83305828D02*
X48214286Y-82805828D01*
X48214286Y-82805828D02*
X48285714Y-82520114D01*
X48285714Y-82520114D02*
X48428572Y-82377257D01*
X48428572Y-82377257D02*
X48571429Y-82305828D01*
X50357143Y-83020114D02*
X49857143Y-83020114D01*
X49857143Y-83805828D02*
X49857143Y-82305828D01*
X49857143Y-82305828D02*
X50571429Y-82305828D01*
X51642857Y-83020114D02*
X51142857Y-83020114D01*
X51142857Y-83805828D02*
X51142857Y-82305828D01*
X51142857Y-82305828D02*
X51857143Y-82305828D01*
X100892857Y-94892614D02*
X101107143Y-94964042D01*
X101107143Y-94964042D02*
X101178572Y-95035471D01*
X101178572Y-95035471D02*
X101250000Y-95178328D01*
X101250000Y-95178328D02*
X101250000Y-95392614D01*
X101250000Y-95392614D02*
X101178572Y-95535471D01*
X101178572Y-95535471D02*
X101107143Y-95606900D01*
X101107143Y-95606900D02*
X100964286Y-95678328D01*
X100964286Y-95678328D02*
X100392857Y-95678328D01*
X100392857Y-95678328D02*
X100392857Y-94178328D01*
X100392857Y-94178328D02*
X100892857Y-94178328D01*
X100892857Y-94178328D02*
X101035715Y-94249757D01*
X101035715Y-94249757D02*
X101107143Y-94321185D01*
X101107143Y-94321185D02*
X101178572Y-94464042D01*
X101178572Y-94464042D02*
X101178572Y-94606900D01*
X101178572Y-94606900D02*
X101107143Y-94749757D01*
X101107143Y-94749757D02*
X101035715Y-94821185D01*
X101035715Y-94821185D02*
X100892857Y-94892614D01*
X100892857Y-94892614D02*
X100392857Y-94892614D01*
X102107143Y-95678328D02*
X101964286Y-95606900D01*
X101964286Y-95606900D02*
X101892857Y-95464042D01*
X101892857Y-95464042D02*
X101892857Y-94178328D01*
X102678571Y-95678328D02*
X102678571Y-94178328D01*
X102678571Y-94892614D02*
X103535714Y-94892614D01*
X103535714Y-95678328D02*
X103535714Y-94178328D01*
X104821429Y-95606900D02*
X104678572Y-95678328D01*
X104678572Y-95678328D02*
X104392858Y-95678328D01*
X104392858Y-95678328D02*
X104250000Y-95606900D01*
X104250000Y-95606900D02*
X104178572Y-95464042D01*
X104178572Y-95464042D02*
X104178572Y-94892614D01*
X104178572Y-94892614D02*
X104250000Y-94749757D01*
X104250000Y-94749757D02*
X104392858Y-94678328D01*
X104392858Y-94678328D02*
X104678572Y-94678328D01*
X104678572Y-94678328D02*
X104821429Y-94749757D01*
X104821429Y-94749757D02*
X104892858Y-94892614D01*
X104892858Y-94892614D02*
X104892858Y-95035471D01*
X104892858Y-95035471D02*
X104178572Y-95178328D01*
X105750000Y-95678328D02*
X105607143Y-95606900D01*
X105607143Y-95606900D02*
X105535714Y-95464042D01*
X105535714Y-95464042D02*
X105535714Y-94178328D01*
X106321428Y-95678328D02*
X106321428Y-94678328D01*
X106321428Y-94178328D02*
X106250000Y-94249757D01*
X106250000Y-94249757D02*
X106321428Y-94321185D01*
X106321428Y-94321185D02*
X106392857Y-94249757D01*
X106392857Y-94249757D02*
X106321428Y-94178328D01*
X106321428Y-94178328D02*
X106321428Y-94321185D01*
X107035714Y-95106900D02*
X108178572Y-95106900D01*
X108821429Y-95606900D02*
X109035715Y-95678328D01*
X109035715Y-95678328D02*
X109392857Y-95678328D01*
X109392857Y-95678328D02*
X109535715Y-95606900D01*
X109535715Y-95606900D02*
X109607143Y-95535471D01*
X109607143Y-95535471D02*
X109678572Y-95392614D01*
X109678572Y-95392614D02*
X109678572Y-95249757D01*
X109678572Y-95249757D02*
X109607143Y-95106900D01*
X109607143Y-95106900D02*
X109535715Y-95035471D01*
X109535715Y-95035471D02*
X109392857Y-94964042D01*
X109392857Y-94964042D02*
X109107143Y-94892614D01*
X109107143Y-94892614D02*
X108964286Y-94821185D01*
X108964286Y-94821185D02*
X108892857Y-94749757D01*
X108892857Y-94749757D02*
X108821429Y-94606900D01*
X108821429Y-94606900D02*
X108821429Y-94464042D01*
X108821429Y-94464042D02*
X108892857Y-94321185D01*
X108892857Y-94321185D02*
X108964286Y-94249757D01*
X108964286Y-94249757D02*
X109107143Y-94178328D01*
X109107143Y-94178328D02*
X109464286Y-94178328D01*
X109464286Y-94178328D02*
X109678572Y-94249757D01*
X97392857Y-139678328D02*
X96892857Y-138964042D01*
X96535714Y-139678328D02*
X96535714Y-138178328D01*
X96535714Y-138178328D02*
X97107143Y-138178328D01*
X97107143Y-138178328D02*
X97250000Y-138249757D01*
X97250000Y-138249757D02*
X97321429Y-138321185D01*
X97321429Y-138321185D02*
X97392857Y-138464042D01*
X97392857Y-138464042D02*
X97392857Y-138678328D01*
X97392857Y-138678328D02*
X97321429Y-138821185D01*
X97321429Y-138821185D02*
X97250000Y-138892614D01*
X97250000Y-138892614D02*
X97107143Y-138964042D01*
X97107143Y-138964042D02*
X96535714Y-138964042D01*
X98035714Y-139678328D02*
X98035714Y-138178328D01*
X98035714Y-138178328D02*
X98607143Y-138178328D01*
X98607143Y-138178328D02*
X98750000Y-138249757D01*
X98750000Y-138249757D02*
X98821429Y-138321185D01*
X98821429Y-138321185D02*
X98892857Y-138464042D01*
X98892857Y-138464042D02*
X98892857Y-138678328D01*
X98892857Y-138678328D02*
X98821429Y-138821185D01*
X98821429Y-138821185D02*
X98750000Y-138892614D01*
X98750000Y-138892614D02*
X98607143Y-138964042D01*
X98607143Y-138964042D02*
X98035714Y-138964042D01*
X100250000Y-139678328D02*
X99535714Y-139678328D01*
X99535714Y-139678328D02*
X99535714Y-138178328D01*
X100750000Y-139678328D02*
X100750000Y-138178328D01*
X101464286Y-139678328D02*
X101464286Y-138178328D01*
X101464286Y-138178328D02*
X101821429Y-138178328D01*
X101821429Y-138178328D02*
X102035715Y-138249757D01*
X102035715Y-138249757D02*
X102178572Y-138392614D01*
X102178572Y-138392614D02*
X102250001Y-138535471D01*
X102250001Y-138535471D02*
X102321429Y-138821185D01*
X102321429Y-138821185D02*
X102321429Y-139035471D01*
X102321429Y-139035471D02*
X102250001Y-139321185D01*
X102250001Y-139321185D02*
X102178572Y-139464042D01*
X102178572Y-139464042D02*
X102035715Y-139606900D01*
X102035715Y-139606900D02*
X101821429Y-139678328D01*
X101821429Y-139678328D02*
X101464286Y-139678328D01*
X102892858Y-139249757D02*
X103607144Y-139249757D01*
X102750001Y-139678328D02*
X103250001Y-138178328D01*
X103250001Y-138178328D02*
X103750001Y-139678328D01*
X105107143Y-139678328D02*
X104607143Y-138964042D01*
X104250000Y-139678328D02*
X104250000Y-138178328D01*
X104250000Y-138178328D02*
X104821429Y-138178328D01*
X104821429Y-138178328D02*
X104964286Y-138249757D01*
X104964286Y-138249757D02*
X105035715Y-138321185D01*
X105035715Y-138321185D02*
X105107143Y-138464042D01*
X105107143Y-138464042D02*
X105107143Y-138678328D01*
X105107143Y-138678328D02*
X105035715Y-138821185D01*
X105035715Y-138821185D02*
X104964286Y-138892614D01*
X104964286Y-138892614D02*
X104821429Y-138964042D01*
X104821429Y-138964042D02*
X104250000Y-138964042D01*
X106821429Y-139249757D02*
X107535715Y-139249757D01*
X106678572Y-139678328D02*
X107178572Y-138178328D01*
X107178572Y-138178328D02*
X107678572Y-139678328D01*
X108107143Y-138321185D02*
X108178571Y-138249757D01*
X108178571Y-138249757D02*
X108321429Y-138178328D01*
X108321429Y-138178328D02*
X108678571Y-138178328D01*
X108678571Y-138178328D02*
X108821429Y-138249757D01*
X108821429Y-138249757D02*
X108892857Y-138321185D01*
X108892857Y-138321185D02*
X108964286Y-138464042D01*
X108964286Y-138464042D02*
X108964286Y-138606900D01*
X108964286Y-138606900D02*
X108892857Y-138821185D01*
X108892857Y-138821185D02*
X108035714Y-139678328D01*
X108035714Y-139678328D02*
X108964286Y-139678328D01*
X109607142Y-139678328D02*
X109607142Y-138178328D01*
X109607142Y-138178328D02*
X110107142Y-139249757D01*
X110107142Y-139249757D02*
X110607142Y-138178328D01*
X110607142Y-138178328D02*
X110607142Y-139678328D01*
X112107143Y-139678328D02*
X111250000Y-139678328D01*
X111678571Y-139678328D02*
X111678571Y-138178328D01*
X111678571Y-138178328D02*
X111535714Y-138392614D01*
X111535714Y-138392614D02*
X111392857Y-138535471D01*
X111392857Y-138535471D02*
X111250000Y-138606900D01*
X112678571Y-138321185D02*
X112749999Y-138249757D01*
X112749999Y-138249757D02*
X112892857Y-138178328D01*
X112892857Y-138178328D02*
X113249999Y-138178328D01*
X113249999Y-138178328D02*
X113392857Y-138249757D01*
X113392857Y-138249757D02*
X113464285Y-138321185D01*
X113464285Y-138321185D02*
X113535714Y-138464042D01*
X113535714Y-138464042D02*
X113535714Y-138606900D01*
X113535714Y-138606900D02*
X113464285Y-138821185D01*
X113464285Y-138821185D02*
X112607142Y-139678328D01*
X112607142Y-139678328D02*
X113535714Y-139678328D01*
X143874060Y-118499757D02*
X143731203Y-118428328D01*
X143731203Y-118428328D02*
X143516917Y-118428328D01*
X143516917Y-118428328D02*
X143302631Y-118499757D01*
X143302631Y-118499757D02*
X143159774Y-118642614D01*
X143159774Y-118642614D02*
X143088345Y-118785471D01*
X143088345Y-118785471D02*
X143016917Y-119071185D01*
X143016917Y-119071185D02*
X143016917Y-119285471D01*
X143016917Y-119285471D02*
X143088345Y-119571185D01*
X143088345Y-119571185D02*
X143159774Y-119714042D01*
X143159774Y-119714042D02*
X143302631Y-119856900D01*
X143302631Y-119856900D02*
X143516917Y-119928328D01*
X143516917Y-119928328D02*
X143659774Y-119928328D01*
X143659774Y-119928328D02*
X143874060Y-119856900D01*
X143874060Y-119856900D02*
X143945488Y-119785471D01*
X143945488Y-119785471D02*
X143945488Y-119285471D01*
X143945488Y-119285471D02*
X143659774Y-119285471D01*
X144588345Y-119928328D02*
X144588345Y-118428328D01*
X144588345Y-118428328D02*
X145445488Y-119928328D01*
X145445488Y-119928328D02*
X145445488Y-118428328D01*
X146159774Y-119928328D02*
X146159774Y-118428328D01*
X146159774Y-118428328D02*
X146516917Y-118428328D01*
X146516917Y-118428328D02*
X146731203Y-118499757D01*
X146731203Y-118499757D02*
X146874060Y-118642614D01*
X146874060Y-118642614D02*
X146945489Y-118785471D01*
X146945489Y-118785471D02*
X147016917Y-119071185D01*
X147016917Y-119071185D02*
X147016917Y-119285471D01*
X147016917Y-119285471D02*
X146945489Y-119571185D01*
X146945489Y-119571185D02*
X146874060Y-119714042D01*
X146874060Y-119714042D02*
X146731203Y-119856900D01*
X146731203Y-119856900D02*
X146516917Y-119928328D01*
X146516917Y-119928328D02*
X146159774Y-119928328D01*
D10*
X100380951Y-104452219D02*
X100380951Y-105166504D01*
X100380951Y-105166504D02*
X100333332Y-105309361D01*
X100333332Y-105309361D02*
X100238094Y-105404600D01*
X100238094Y-105404600D02*
X100095237Y-105452219D01*
X100095237Y-105452219D02*
X99999999Y-105452219D01*
X101333332Y-105452219D02*
X100857142Y-105452219D01*
X100857142Y-105452219D02*
X100857142Y-104452219D01*
X102238094Y-105356980D02*
X102190475Y-105404600D01*
X102190475Y-105404600D02*
X102047618Y-105452219D01*
X102047618Y-105452219D02*
X101952380Y-105452219D01*
X101952380Y-105452219D02*
X101809523Y-105404600D01*
X101809523Y-105404600D02*
X101714285Y-105309361D01*
X101714285Y-105309361D02*
X101666666Y-105214123D01*
X101666666Y-105214123D02*
X101619047Y-105023647D01*
X101619047Y-105023647D02*
X101619047Y-104880790D01*
X101619047Y-104880790D02*
X101666666Y-104690314D01*
X101666666Y-104690314D02*
X101714285Y-104595076D01*
X101714285Y-104595076D02*
X101809523Y-104499838D01*
X101809523Y-104499838D02*
X101952380Y-104452219D01*
X101952380Y-104452219D02*
X102047618Y-104452219D01*
X102047618Y-104452219D02*
X102190475Y-104499838D01*
X102190475Y-104499838D02*
X102238094Y-104547457D01*
X102952380Y-104452219D02*
X102952380Y-105166504D01*
X102952380Y-105166504D02*
X102904761Y-105309361D01*
X102904761Y-105309361D02*
X102809523Y-105404600D01*
X102809523Y-105404600D02*
X102666666Y-105452219D01*
X102666666Y-105452219D02*
X102571428Y-105452219D01*
X103904761Y-105452219D02*
X103428571Y-105452219D01*
X103428571Y-105452219D02*
X103428571Y-104452219D01*
X104809523Y-105356980D02*
X104761904Y-105404600D01*
X104761904Y-105404600D02*
X104619047Y-105452219D01*
X104619047Y-105452219D02*
X104523809Y-105452219D01*
X104523809Y-105452219D02*
X104380952Y-105404600D01*
X104380952Y-105404600D02*
X104285714Y-105309361D01*
X104285714Y-105309361D02*
X104238095Y-105214123D01*
X104238095Y-105214123D02*
X104190476Y-105023647D01*
X104190476Y-105023647D02*
X104190476Y-104880790D01*
X104190476Y-104880790D02*
X104238095Y-104690314D01*
X104238095Y-104690314D02*
X104285714Y-104595076D01*
X104285714Y-104595076D02*
X104380952Y-104499838D01*
X104380952Y-104499838D02*
X104523809Y-104452219D01*
X104523809Y-104452219D02*
X104619047Y-104452219D01*
X104619047Y-104452219D02*
X104761904Y-104499838D01*
X104761904Y-104499838D02*
X104809523Y-104547457D01*
X105523809Y-104452219D02*
X105523809Y-105166504D01*
X105523809Y-105166504D02*
X105476190Y-105309361D01*
X105476190Y-105309361D02*
X105380952Y-105404600D01*
X105380952Y-105404600D02*
X105238095Y-105452219D01*
X105238095Y-105452219D02*
X105142857Y-105452219D01*
X106476190Y-105452219D02*
X106000000Y-105452219D01*
X106000000Y-105452219D02*
X106000000Y-104452219D01*
X107380952Y-105356980D02*
X107333333Y-105404600D01*
X107333333Y-105404600D02*
X107190476Y-105452219D01*
X107190476Y-105452219D02*
X107095238Y-105452219D01*
X107095238Y-105452219D02*
X106952381Y-105404600D01*
X106952381Y-105404600D02*
X106857143Y-105309361D01*
X106857143Y-105309361D02*
X106809524Y-105214123D01*
X106809524Y-105214123D02*
X106761905Y-105023647D01*
X106761905Y-105023647D02*
X106761905Y-104880790D01*
X106761905Y-104880790D02*
X106809524Y-104690314D01*
X106809524Y-104690314D02*
X106857143Y-104595076D01*
X106857143Y-104595076D02*
X106952381Y-104499838D01*
X106952381Y-104499838D02*
X107095238Y-104452219D01*
X107095238Y-104452219D02*
X107190476Y-104452219D01*
X107190476Y-104452219D02*
X107333333Y-104499838D01*
X107333333Y-104499838D02*
X107380952Y-104547457D01*
X108095238Y-104452219D02*
X108095238Y-105166504D01*
X108095238Y-105166504D02*
X108047619Y-105309361D01*
X108047619Y-105309361D02*
X107952381Y-105404600D01*
X107952381Y-105404600D02*
X107809524Y-105452219D01*
X107809524Y-105452219D02*
X107714286Y-105452219D01*
X109047619Y-105452219D02*
X108571429Y-105452219D01*
X108571429Y-105452219D02*
X108571429Y-104452219D01*
X109952381Y-105356980D02*
X109904762Y-105404600D01*
X109904762Y-105404600D02*
X109761905Y-105452219D01*
X109761905Y-105452219D02*
X109666667Y-105452219D01*
X109666667Y-105452219D02*
X109523810Y-105404600D01*
X109523810Y-105404600D02*
X109428572Y-105309361D01*
X109428572Y-105309361D02*
X109380953Y-105214123D01*
X109380953Y-105214123D02*
X109333334Y-105023647D01*
X109333334Y-105023647D02*
X109333334Y-104880790D01*
X109333334Y-104880790D02*
X109380953Y-104690314D01*
X109380953Y-104690314D02*
X109428572Y-104595076D01*
X109428572Y-104595076D02*
X109523810Y-104499838D01*
X109523810Y-104499838D02*
X109666667Y-104452219D01*
X109666667Y-104452219D02*
X109761905Y-104452219D01*
X109761905Y-104452219D02*
X109904762Y-104499838D01*
X109904762Y-104499838D02*
X109952381Y-104547457D01*
D12*
X49071428Y-66050828D02*
X49357142Y-66050828D01*
X49357142Y-66050828D02*
X49499999Y-66122257D01*
X49499999Y-66122257D02*
X49642856Y-66265114D01*
X49642856Y-66265114D02*
X49714285Y-66550828D01*
X49714285Y-66550828D02*
X49714285Y-67050828D01*
X49714285Y-67050828D02*
X49642856Y-67336542D01*
X49642856Y-67336542D02*
X49499999Y-67479400D01*
X49499999Y-67479400D02*
X49357142Y-67550828D01*
X49357142Y-67550828D02*
X49071428Y-67550828D01*
X49071428Y-67550828D02*
X48928571Y-67479400D01*
X48928571Y-67479400D02*
X48785713Y-67336542D01*
X48785713Y-67336542D02*
X48714285Y-67050828D01*
X48714285Y-67050828D02*
X48714285Y-66550828D01*
X48714285Y-66550828D02*
X48785713Y-66265114D01*
X48785713Y-66265114D02*
X48928571Y-66122257D01*
X48928571Y-66122257D02*
X49071428Y-66050828D01*
X50357142Y-67550828D02*
X50357142Y-66050828D01*
X50357142Y-66050828D02*
X51214285Y-67550828D01*
X51214285Y-67550828D02*
X51214285Y-66050828D01*
D13*
G36*
X103966608Y-84665000D02*
G01*
X103727739Y-84665000D01*
X103707443Y-84597035D01*
X103700763Y-84605068D01*
X103691644Y-84614808D01*
X103682064Y-84623875D01*
X103672021Y-84632271D01*
X103661517Y-84639995D01*
X103650551Y-84647048D01*
X103639123Y-84653428D01*
X103627233Y-84659138D01*
X103614882Y-84664175D01*
X103602068Y-84668541D01*
X103588793Y-84672235D01*
X103575057Y-84675258D01*
X103560858Y-84677609D01*
X103546198Y-84679288D01*
X103531076Y-84680295D01*
X103515492Y-84680631D01*
X103496295Y-84680222D01*
X103477600Y-84678994D01*
X103459407Y-84676947D01*
X103441715Y-84674082D01*
X103424526Y-84670399D01*
X103407838Y-84665896D01*
X103391652Y-84660575D01*
X103375968Y-84654436D01*
X103360786Y-84647478D01*
X103346106Y-84639701D01*
X103331927Y-84631106D01*
X103318250Y-84621692D01*
X103305076Y-84611460D01*
X103292403Y-84600409D01*
X103280232Y-84588539D01*
X103268562Y-84575851D01*
X103257501Y-84562365D01*
X103247153Y-84548164D01*
X103237519Y-84533247D01*
X103228598Y-84517614D01*
X103220391Y-84501266D01*
X103212898Y-84484203D01*
X103206118Y-84466423D01*
X103200052Y-84447929D01*
X103197287Y-84438413D01*
X103194700Y-84428718D01*
X103192291Y-84418845D01*
X103190061Y-84408793D01*
X103188009Y-84398561D01*
X103186136Y-84388151D01*
X103184441Y-84377562D01*
X103182925Y-84366794D01*
X103181587Y-84355847D01*
X103180427Y-84344722D01*
X103179446Y-84333417D01*
X103178643Y-84321934D01*
X103178018Y-84310271D01*
X103177572Y-84298430D01*
X103177305Y-84286410D01*
X103177216Y-84274211D01*
X103446127Y-84274211D01*
X103446430Y-84288225D01*
X103447338Y-84301600D01*
X103448851Y-84314334D01*
X103450970Y-84326429D01*
X103453694Y-84337885D01*
X103457023Y-84348700D01*
X103460958Y-84358876D01*
X103465498Y-84368412D01*
X103470644Y-84377309D01*
X103476395Y-84385566D01*
X103480565Y-84390715D01*
X103489526Y-84400046D01*
X103499189Y-84408132D01*
X103509554Y-84414975D01*
X103520621Y-84420573D01*
X103532390Y-84424928D01*
X103544862Y-84428038D01*
X103554677Y-84429554D01*
X103564886Y-84430371D01*
X103571912Y-84430526D01*
X103582341Y-84430176D01*
X103592380Y-84429127D01*
X103602028Y-84427377D01*
X103614284Y-84423956D01*
X103625845Y-84419290D01*
X103636712Y-84413381D01*
X103646884Y-84406227D01*
X103656362Y-84397830D01*
X103663015Y-84390715D01*
X103669213Y-84382884D01*
X103674801Y-84374414D01*
X103679780Y-84365305D01*
X103684149Y-84355555D01*
X103687909Y-84345166D01*
X103691059Y-84334137D01*
X103693599Y-84322469D01*
X103695529Y-84310160D01*
X103696850Y-84297212D01*
X103697562Y-84283625D01*
X103697697Y-84274211D01*
X103697392Y-84260199D01*
X103696478Y-84246831D01*
X103694954Y-84234107D01*
X103692820Y-84222027D01*
X103690076Y-84210591D01*
X103686723Y-84199799D01*
X103682761Y-84189651D01*
X103678188Y-84180147D01*
X103673006Y-84171287D01*
X103667214Y-84163071D01*
X103663015Y-84157951D01*
X103656362Y-84150793D01*
X103646884Y-84142344D01*
X103636712Y-84135146D01*
X103625845Y-84129200D01*
X103614284Y-84124506D01*
X103602028Y-84121064D01*
X103592380Y-84119304D01*
X103582341Y-84118248D01*
X103571912Y-84117896D01*
X103561439Y-84118248D01*
X103551361Y-84119304D01*
X103541678Y-84121064D01*
X103529382Y-84124506D01*
X103517788Y-84129200D01*
X103506897Y-84135146D01*
X103496707Y-84142344D01*
X103487220Y-84150793D01*
X103480565Y-84157951D01*
X103474411Y-84165738D01*
X103468862Y-84174169D01*
X103463918Y-84183243D01*
X103459579Y-84192962D01*
X103455846Y-84203325D01*
X103452719Y-84214331D01*
X103450196Y-84225982D01*
X103448279Y-84238277D01*
X103446968Y-84251215D01*
X103446261Y-84264798D01*
X103446127Y-84274211D01*
X103177216Y-84274211D01*
X103177305Y-84262012D01*
X103177572Y-84249993D01*
X103178018Y-84238153D01*
X103178643Y-84226492D01*
X103179446Y-84215011D01*
X103180427Y-84203709D01*
X103181587Y-84192586D01*
X103182925Y-84181643D01*
X103184441Y-84170879D01*
X103186136Y-84160295D01*
X103188009Y-84149889D01*
X103190061Y-84139664D01*
X103192291Y-84129617D01*
X103194700Y-84119750D01*
X103197287Y-84110063D01*
X103200052Y-84100554D01*
X103202996Y-84091225D01*
X103209419Y-84073106D01*
X103216555Y-84055703D01*
X103224405Y-84039018D01*
X103232969Y-84023051D01*
X103242247Y-84007801D01*
X103252238Y-83993269D01*
X103262942Y-83979454D01*
X103268562Y-83972815D01*
X103280232Y-83960097D01*
X103292403Y-83948200D01*
X103305076Y-83937123D01*
X103318250Y-83926867D01*
X103331927Y-83917431D01*
X103346106Y-83908816D01*
X103360786Y-83901021D01*
X103375968Y-83894047D01*
X103391652Y-83887893D01*
X103407838Y-83882560D01*
X103424526Y-83878047D01*
X103441715Y-83874355D01*
X103459407Y-83871483D01*
X103477600Y-83869432D01*
X103496295Y-83868201D01*
X103515492Y-83867791D01*
X103525801Y-83867982D01*
X103536028Y-83868555D01*
X103546174Y-83869510D01*
X103556238Y-83870848D01*
X103566221Y-83872567D01*
X103576122Y-83874669D01*
X103585942Y-83877152D01*
X103595680Y-83880018D01*
X103605336Y-83883266D01*
X103614911Y-83886896D01*
X103621249Y-83889528D01*
X103630590Y-83893712D01*
X103639561Y-83898109D01*
X103650949Y-83904307D01*
X103661681Y-83910886D01*
X103671756Y-83917847D01*
X103681174Y-83925190D01*
X103689937Y-83932914D01*
X103698042Y-83941020D01*
X103698418Y-83941434D01*
X103697697Y-83664581D01*
X103966608Y-83664581D01*
X103966608Y-84665000D01*
G37*
G36*
X104369365Y-84680631D02*
G01*
X104356681Y-84680354D01*
X104344091Y-84679523D01*
X104331596Y-84678139D01*
X104319196Y-84676200D01*
X104306890Y-84673708D01*
X104294678Y-84670662D01*
X104282561Y-84667062D01*
X104270538Y-84662908D01*
X104258610Y-84658201D01*
X104246776Y-84652939D01*
X104238939Y-84649124D01*
X104227446Y-84642870D01*
X104216322Y-84635926D01*
X104205567Y-84628290D01*
X104195182Y-84619963D01*
X104185165Y-84610945D01*
X104175518Y-84601236D01*
X104166240Y-84590835D01*
X104157332Y-84579743D01*
X104148792Y-84567960D01*
X104143304Y-84559721D01*
X104137981Y-84551174D01*
X104135380Y-84546786D01*
X104130411Y-84537784D01*
X104125763Y-84528487D01*
X104121435Y-84518894D01*
X104117428Y-84509005D01*
X104113742Y-84498820D01*
X104110376Y-84488339D01*
X104107330Y-84477563D01*
X104104606Y-84466491D01*
X104102201Y-84455123D01*
X104100118Y-84443460D01*
X104098355Y-84431500D01*
X104096912Y-84419245D01*
X104095790Y-84406695D01*
X104094989Y-84393848D01*
X104094508Y-84380706D01*
X104094347Y-84367267D01*
X104094347Y-83883422D01*
X104363259Y-83883422D01*
X104363259Y-84319152D01*
X104363499Y-84329093D01*
X104364568Y-84341647D01*
X104366491Y-84353399D01*
X104369269Y-84364350D01*
X104372903Y-84374499D01*
X104377391Y-84383847D01*
X104382733Y-84392394D01*
X104388931Y-84400139D01*
X104390614Y-84401950D01*
X104397762Y-84408648D01*
X104407566Y-84415764D01*
X104418336Y-84421485D01*
X104427648Y-84425057D01*
X104437578Y-84427736D01*
X104448126Y-84429522D01*
X104459293Y-84430415D01*
X104465108Y-84430526D01*
X104476572Y-84430080D01*
X104487395Y-84428740D01*
X104497577Y-84426508D01*
X104507118Y-84423382D01*
X104518142Y-84418220D01*
X104528165Y-84411661D01*
X104537185Y-84403708D01*
X104538869Y-84401950D01*
X104545166Y-84394405D01*
X104550624Y-84386059D01*
X104555241Y-84376911D01*
X104559019Y-84366962D01*
X104561958Y-84356212D01*
X104564057Y-84344660D01*
X104565316Y-84332306D01*
X104565710Y-84322515D01*
X104565736Y-84319152D01*
X104565736Y-83883422D01*
X104834403Y-83883422D01*
X104834403Y-84665000D01*
X104595778Y-84665000D01*
X104574529Y-84594658D01*
X104576971Y-84594658D01*
X104566744Y-84605068D01*
X104556150Y-84614808D01*
X104545189Y-84623875D01*
X104533862Y-84632271D01*
X104522169Y-84639995D01*
X104510110Y-84647048D01*
X104497684Y-84653428D01*
X104484892Y-84659138D01*
X104471733Y-84664175D01*
X104458208Y-84668541D01*
X104444317Y-84672235D01*
X104430059Y-84675258D01*
X104415435Y-84677609D01*
X104400445Y-84679288D01*
X104385088Y-84680295D01*
X104369365Y-84680631D01*
G37*
G36*
X105321668Y-84680631D02*
G01*
X105309922Y-84680528D01*
X105298344Y-84680219D01*
X105286936Y-84679704D01*
X105275697Y-84678982D01*
X105264626Y-84678055D01*
X105253724Y-84676922D01*
X105242991Y-84675582D01*
X105232427Y-84674036D01*
X105222032Y-84672285D01*
X105211806Y-84670327D01*
X105201749Y-84668163D01*
X105191860Y-84665793D01*
X105182141Y-84663217D01*
X105172590Y-84660435D01*
X105163208Y-84657447D01*
X105144951Y-84650852D01*
X105127369Y-84643434D01*
X105110463Y-84635190D01*
X105094232Y-84626123D01*
X105078677Y-84616231D01*
X105063797Y-84605515D01*
X105049593Y-84593974D01*
X105036064Y-84581610D01*
X105029553Y-84575118D01*
X105017131Y-84561578D01*
X105005511Y-84547336D01*
X104994691Y-84532391D01*
X104984674Y-84516744D01*
X104975457Y-84500395D01*
X104967042Y-84483344D01*
X104959429Y-84465590D01*
X104955923Y-84456450D01*
X104952617Y-84447135D01*
X104949511Y-84437644D01*
X104946606Y-84427977D01*
X104943901Y-84418135D01*
X104941397Y-84408117D01*
X104939093Y-84397924D01*
X104936989Y-84387555D01*
X104935086Y-84377010D01*
X104933383Y-84366290D01*
X104931880Y-84355395D01*
X104930578Y-84344324D01*
X104929476Y-84333077D01*
X104928574Y-84321655D01*
X104927873Y-84310057D01*
X104927372Y-84298284D01*
X104927071Y-84286335D01*
X104926971Y-84274211D01*
X104927071Y-84262087D01*
X104927372Y-84250138D01*
X104927873Y-84238364D01*
X104928574Y-84226767D01*
X104929476Y-84215345D01*
X104930578Y-84204098D01*
X104931880Y-84193027D01*
X104933383Y-84182131D01*
X104935086Y-84171411D01*
X104936989Y-84160867D01*
X104939093Y-84150498D01*
X104941397Y-84140305D01*
X104943901Y-84130287D01*
X104946606Y-84120445D01*
X104949511Y-84110778D01*
X104952617Y-84101287D01*
X104955923Y-84091971D01*
X104959429Y-84082831D01*
X104967042Y-84065078D01*
X104975457Y-84048027D01*
X104984674Y-84031678D01*
X104994691Y-84016031D01*
X105005511Y-84001086D01*
X105017131Y-83986844D01*
X105029553Y-83973304D01*
X105042744Y-83960527D01*
X105056611Y-83948574D01*
X105071153Y-83937446D01*
X105086370Y-83927142D01*
X105102263Y-83917662D01*
X105118832Y-83909007D01*
X105136076Y-83901176D01*
X105153995Y-83894169D01*
X105172590Y-83887987D01*
X105182141Y-83885205D01*
X105191860Y-83882629D01*
X105201749Y-83880259D01*
X105211806Y-83878095D01*
X105222032Y-83876137D01*
X105232427Y-83874385D01*
X105242991Y-83872840D01*
X105253724Y-83871500D01*
X105264626Y-83870367D01*
X105275697Y-83869439D01*
X105286936Y-83868718D01*
X105298344Y-83868203D01*
X105309922Y-83867894D01*
X105321668Y-83867791D01*
X105336568Y-83867977D01*
X105351168Y-83868535D01*
X105365465Y-83869465D01*
X105379462Y-83870768D01*
X105393156Y-83872442D01*
X105406550Y-83874488D01*
X105419642Y-83876907D01*
X105432432Y-83879698D01*
X105444921Y-83882860D01*
X105457108Y-83886395D01*
X105468994Y-83890302D01*
X105480578Y-83894581D01*
X105491861Y-83899232D01*
X105502842Y-83904256D01*
X105513522Y-83909651D01*
X105523901Y-83915418D01*
X105533975Y-83921468D01*
X105543742Y-83927710D01*
X105553201Y-83934146D01*
X105562354Y-83940774D01*
X105571199Y-83947594D01*
X105579737Y-83954608D01*
X105587968Y-83961814D01*
X105595891Y-83969213D01*
X105603508Y-83976804D01*
X105610817Y-83984589D01*
X105617819Y-83992566D01*
X105624514Y-84000735D01*
X105630901Y-84009098D01*
X105636981Y-84017653D01*
X105642755Y-84026401D01*
X105648220Y-84035341D01*
X105653416Y-84044441D01*
X105658379Y-84053667D01*
X105663110Y-84063019D01*
X105667607Y-84072497D01*
X105671872Y-84082101D01*
X105675904Y-84091830D01*
X105679703Y-84101686D01*
X105683269Y-84111667D01*
X105686603Y-84121775D01*
X105689704Y-84132008D01*
X105692571Y-84142368D01*
X105695207Y-84152853D01*
X105697609Y-84163464D01*
X105699779Y-84174201D01*
X105701715Y-84185064D01*
X105703419Y-84196053D01*
X105435973Y-84196053D01*
X105431306Y-84186093D01*
X105426341Y-84176850D01*
X105421078Y-84168324D01*
X105414081Y-84158676D01*
X105406619Y-84150149D01*
X105398692Y-84142743D01*
X105390300Y-84136458D01*
X105381174Y-84131110D01*
X105371047Y-84126669D01*
X105359917Y-84123134D01*
X105350293Y-84120959D01*
X105340027Y-84119364D01*
X105329120Y-84118349D01*
X105317572Y-84117914D01*
X105314585Y-84117896D01*
X105302037Y-84118521D01*
X105290038Y-84120399D01*
X105278589Y-84123528D01*
X105267690Y-84127909D01*
X105257340Y-84133542D01*
X105247540Y-84140427D01*
X105238289Y-84148563D01*
X105229588Y-84157951D01*
X105223565Y-84165738D01*
X105218134Y-84174169D01*
X105213295Y-84183243D01*
X105209049Y-84192962D01*
X105205395Y-84203325D01*
X105202334Y-84214331D01*
X105199865Y-84225982D01*
X105197989Y-84238277D01*
X105196706Y-84251215D01*
X105196014Y-84264798D01*
X105195883Y-84274211D01*
X105196179Y-84288225D01*
X105197068Y-84301600D01*
X105198549Y-84314334D01*
X105200622Y-84326429D01*
X105203289Y-84337885D01*
X105206547Y-84348700D01*
X105210398Y-84358876D01*
X105214842Y-84368412D01*
X105219878Y-84377309D01*
X105225507Y-84385566D01*
X105229588Y-84390715D01*
X105238289Y-84400046D01*
X105247540Y-84408132D01*
X105257340Y-84414975D01*
X105267690Y-84420573D01*
X105278589Y-84424928D01*
X105290038Y-84428038D01*
X105302037Y-84429904D01*
X105314585Y-84430526D01*
X105326293Y-84430240D01*
X105337360Y-84429381D01*
X105347786Y-84427950D01*
X105357571Y-84425947D01*
X105368901Y-84422637D01*
X105379229Y-84418433D01*
X105388555Y-84413335D01*
X105390300Y-84412208D01*
X105398692Y-84405853D01*
X105406619Y-84398388D01*
X105414081Y-84389815D01*
X105421078Y-84380132D01*
X105426341Y-84371588D01*
X105431306Y-84362333D01*
X105435973Y-84352369D01*
X105703419Y-84352369D01*
X105701715Y-84363358D01*
X105699779Y-84374221D01*
X105697609Y-84384958D01*
X105695207Y-84395569D01*
X105692571Y-84406054D01*
X105689704Y-84416414D01*
X105686603Y-84426647D01*
X105683269Y-84436755D01*
X105679703Y-84446736D01*
X105675904Y-84456592D01*
X105671872Y-84466321D01*
X105667607Y-84475925D01*
X105663110Y-84485403D01*
X105658379Y-84494755D01*
X105653416Y-84503980D01*
X105648220Y-84513080D01*
X105642755Y-84522021D01*
X105636981Y-84530769D01*
X105630901Y-84539324D01*
X105624514Y-84547687D01*
X105617819Y-84555856D01*
X105610817Y-84563833D01*
X105603508Y-84571618D01*
X105595891Y-84579209D01*
X105587968Y-84586608D01*
X105579737Y-84593814D01*
X105571199Y-84600828D01*
X105562354Y-84607648D01*
X105553201Y-84614276D01*
X105543742Y-84620711D01*
X105533975Y-84626954D01*
X105523901Y-84633004D01*
X105513522Y-84638771D01*
X105502842Y-84644166D01*
X105491861Y-84649190D01*
X105480578Y-84653841D01*
X105468994Y-84658120D01*
X105457108Y-84662027D01*
X105444921Y-84665561D01*
X105432432Y-84668724D01*
X105419642Y-84671515D01*
X105406550Y-84673933D01*
X105393156Y-84675980D01*
X105379462Y-84677654D01*
X105365465Y-84678957D01*
X105351168Y-84679887D01*
X105336568Y-84680445D01*
X105321668Y-84680631D01*
G37*
G36*
X106133531Y-84680631D02*
G01*
X106121785Y-84680528D01*
X106110208Y-84680219D01*
X106098799Y-84679704D01*
X106087560Y-84678982D01*
X106076489Y-84678055D01*
X106065588Y-84676922D01*
X106054855Y-84675582D01*
X106044291Y-84674036D01*
X106033896Y-84672285D01*
X106023669Y-84670327D01*
X106013612Y-84668163D01*
X106003723Y-84665793D01*
X105994004Y-84663217D01*
X105984453Y-84660435D01*
X105975071Y-84657447D01*
X105956814Y-84650852D01*
X105939232Y-84643434D01*
X105922326Y-84635190D01*
X105906096Y-84626123D01*
X105890540Y-84616231D01*
X105875661Y-84605515D01*
X105861456Y-84593974D01*
X105847928Y-84581610D01*
X105841416Y-84575118D01*
X105828994Y-84561578D01*
X105817374Y-84547336D01*
X105806555Y-84532391D01*
X105796537Y-84516744D01*
X105787321Y-84500395D01*
X105778906Y-84483344D01*
X105771292Y-84465590D01*
X105767786Y-84456450D01*
X105764480Y-84447135D01*
X105761374Y-84437644D01*
X105758469Y-84427977D01*
X105755765Y-84418135D01*
X105753260Y-84408117D01*
X105750956Y-84397924D01*
X105748852Y-84387555D01*
X105746949Y-84377010D01*
X105745246Y-84366290D01*
X105743743Y-84355395D01*
X105742441Y-84344324D01*
X105741339Y-84333077D01*
X105740437Y-84321655D01*
X105739736Y-84310057D01*
X105739235Y-84298284D01*
X105738935Y-84286335D01*
X105738834Y-84274211D01*
X105738935Y-84262087D01*
X105739235Y-84250138D01*
X105739736Y-84238364D01*
X105740437Y-84226767D01*
X105741339Y-84215345D01*
X105742441Y-84204098D01*
X105743743Y-84193027D01*
X105745246Y-84182131D01*
X105746949Y-84171411D01*
X105748852Y-84160867D01*
X105750956Y-84150498D01*
X105753260Y-84140305D01*
X105755765Y-84130287D01*
X105758469Y-84120445D01*
X105761374Y-84110778D01*
X105764480Y-84101287D01*
X105767786Y-84091971D01*
X105771292Y-84082831D01*
X105778906Y-84065078D01*
X105787321Y-84048027D01*
X105796537Y-84031678D01*
X105806555Y-84016031D01*
X105817374Y-84001086D01*
X105828994Y-83986844D01*
X105841416Y-83973304D01*
X105854608Y-83960527D01*
X105868474Y-83948574D01*
X105883016Y-83937446D01*
X105898233Y-83927142D01*
X105914126Y-83917662D01*
X105930695Y-83909007D01*
X105947939Y-83901176D01*
X105965858Y-83894169D01*
X105984453Y-83887987D01*
X105994004Y-83885205D01*
X106003723Y-83882629D01*
X106013612Y-83880259D01*
X106023669Y-83878095D01*
X106033896Y-83876137D01*
X106044291Y-83874385D01*
X106054855Y-83872840D01*
X106065588Y-83871500D01*
X106076489Y-83870367D01*
X106087560Y-83869439D01*
X106098799Y-83868718D01*
X106110208Y-83868203D01*
X106121785Y-83867894D01*
X106133531Y-83867791D01*
X106148432Y-83867977D01*
X106163031Y-83868535D01*
X106177329Y-83869465D01*
X106191325Y-83870768D01*
X106205020Y-83872442D01*
X106218413Y-83874488D01*
X106231505Y-83876907D01*
X106244295Y-83879698D01*
X106256784Y-83882860D01*
X106268971Y-83886395D01*
X106280857Y-83890302D01*
X106292441Y-83894581D01*
X106303724Y-83899232D01*
X106314706Y-83904256D01*
X106325386Y-83909651D01*
X106335764Y-83915418D01*
X106345838Y-83921468D01*
X106355605Y-83927710D01*
X106365065Y-83934146D01*
X106374217Y-83940774D01*
X106383062Y-83947594D01*
X106391600Y-83954608D01*
X106399831Y-83961814D01*
X106407755Y-83969213D01*
X106415371Y-83976804D01*
X106422680Y-83984589D01*
X106429682Y-83992566D01*
X106436377Y-84000735D01*
X106442764Y-84009098D01*
X106448845Y-84017653D01*
X106454618Y-84026401D01*
X106460084Y-84035341D01*
X106465280Y-84044441D01*
X106470243Y-84053667D01*
X106474973Y-84063019D01*
X106479470Y-84072497D01*
X106483735Y-84082101D01*
X106487767Y-84091830D01*
X106491566Y-84101686D01*
X106495132Y-84111667D01*
X106498466Y-84121775D01*
X106501567Y-84132008D01*
X106504435Y-84142368D01*
X106507070Y-84152853D01*
X106509472Y-84163464D01*
X106511642Y-84174201D01*
X106513579Y-84185064D01*
X106515283Y-84196053D01*
X106247837Y-84196053D01*
X106243169Y-84186093D01*
X106238204Y-84176850D01*
X106232942Y-84168324D01*
X106225945Y-84158676D01*
X106218483Y-84150149D01*
X106210555Y-84142743D01*
X106202163Y-84136458D01*
X106193037Y-84131110D01*
X106182910Y-84126669D01*
X106171781Y-84123134D01*
X106162156Y-84120959D01*
X106151890Y-84119364D01*
X106140983Y-84118349D01*
X106129435Y-84117914D01*
X106126448Y-84117896D01*
X106113900Y-84118521D01*
X106101901Y-84120399D01*
X106090453Y-84123528D01*
X106079553Y-84127909D01*
X106069203Y-84133542D01*
X106059403Y-84140427D01*
X106050153Y-84148563D01*
X106041451Y-84157951D01*
X106035428Y-84165738D01*
X106029997Y-84174169D01*
X106025158Y-84183243D01*
X106020912Y-84192962D01*
X106017258Y-84203325D01*
X106014197Y-84214331D01*
X106011729Y-84225982D01*
X106009852Y-84238277D01*
X106008569Y-84251215D01*
X106007878Y-84264798D01*
X106007746Y-84274211D01*
X106008042Y-84288225D01*
X106008931Y-84301600D01*
X106010412Y-84314334D01*
X106012486Y-84326429D01*
X106015152Y-84337885D01*
X106018411Y-84348700D01*
X106022262Y-84358876D01*
X106026705Y-84368412D01*
X106031741Y-84377309D01*
X106037370Y-84385566D01*
X106041451Y-84390715D01*
X106050153Y-84400046D01*
X106059403Y-84408132D01*
X106069203Y-84414975D01*
X106079553Y-84420573D01*
X106090453Y-84424928D01*
X106101901Y-84428038D01*
X106113900Y-84429904D01*
X106126448Y-84430526D01*
X106138156Y-84430240D01*
X106149224Y-84429381D01*
X106159650Y-84427950D01*
X106169435Y-84425947D01*
X106180764Y-84422637D01*
X106191092Y-84418433D01*
X106200418Y-84413335D01*
X106202163Y-84412208D01*
X106210555Y-84405853D01*
X106218483Y-84398388D01*
X106225945Y-84389815D01*
X106232942Y-84380132D01*
X106238204Y-84371588D01*
X106243169Y-84362333D01*
X106247837Y-84352369D01*
X106515283Y-84352369D01*
X106513579Y-84363358D01*
X106511642Y-84374221D01*
X106509472Y-84384958D01*
X106507070Y-84395569D01*
X106504435Y-84406054D01*
X106501567Y-84416414D01*
X106498466Y-84426647D01*
X106495132Y-84436755D01*
X106491566Y-84446736D01*
X106487767Y-84456592D01*
X106483735Y-84466321D01*
X106479470Y-84475925D01*
X106474973Y-84485403D01*
X106470243Y-84494755D01*
X106465280Y-84503980D01*
X106460084Y-84513080D01*
X106454618Y-84522021D01*
X106448845Y-84530769D01*
X106442764Y-84539324D01*
X106436377Y-84547687D01*
X106429682Y-84555856D01*
X106422680Y-84563833D01*
X106415371Y-84571618D01*
X106407755Y-84579209D01*
X106399831Y-84586608D01*
X106391600Y-84593814D01*
X106383062Y-84600828D01*
X106374217Y-84607648D01*
X106365065Y-84614276D01*
X106355605Y-84620711D01*
X106345838Y-84626954D01*
X106335764Y-84633004D01*
X106325386Y-84638771D01*
X106314706Y-84644166D01*
X106303724Y-84649190D01*
X106292441Y-84653841D01*
X106280857Y-84658120D01*
X106268971Y-84662027D01*
X106256784Y-84665561D01*
X106244295Y-84668724D01*
X106231505Y-84671515D01*
X106218413Y-84673933D01*
X106205020Y-84675980D01*
X106191325Y-84677654D01*
X106177329Y-84678957D01*
X106163031Y-84679887D01*
X106148432Y-84680445D01*
X106133531Y-84680631D01*
G37*
G36*
X106705548Y-84680631D02*
G01*
X106695303Y-84680281D01*
X106685269Y-84679231D01*
X106675445Y-84677482D01*
X106665832Y-84675033D01*
X106656428Y-84671883D01*
X106647236Y-84668034D01*
X106638253Y-84663486D01*
X106629481Y-84658237D01*
X106620920Y-84652289D01*
X106612568Y-84645640D01*
X106607118Y-84640819D01*
X106599436Y-84633127D01*
X106592509Y-84625069D01*
X106586338Y-84616646D01*
X106580923Y-84607858D01*
X106576263Y-84598705D01*
X106572359Y-84589188D01*
X106569211Y-84579305D01*
X106566818Y-84569058D01*
X106565181Y-84558445D01*
X106564299Y-84547468D01*
X106564131Y-84539947D01*
X106564509Y-84528729D01*
X106565642Y-84517879D01*
X106567531Y-84507399D01*
X106570176Y-84497289D01*
X106573576Y-84487547D01*
X106577732Y-84478175D01*
X106582644Y-84469172D01*
X106588311Y-84460538D01*
X106594734Y-84452273D01*
X106601912Y-84444378D01*
X106607118Y-84439319D01*
X106615329Y-84432161D01*
X106623750Y-84425706D01*
X106632382Y-84419956D01*
X106641224Y-84414910D01*
X106650277Y-84410568D01*
X106659539Y-84406930D01*
X106669013Y-84403996D01*
X106678696Y-84401767D01*
X106688590Y-84400241D01*
X106698695Y-84399420D01*
X106705548Y-84399263D01*
X106715790Y-84399615D01*
X106725818Y-84400671D01*
X106735631Y-84402432D01*
X106745230Y-84404896D01*
X106754613Y-84408065D01*
X106763782Y-84411937D01*
X106772737Y-84416514D01*
X106781477Y-84421795D01*
X106790002Y-84427780D01*
X106798312Y-84434469D01*
X106803733Y-84439319D01*
X106811459Y-84446968D01*
X106818425Y-84454987D01*
X106824631Y-84463375D01*
X106830077Y-84472132D01*
X106834763Y-84481258D01*
X106838690Y-84490753D01*
X106841856Y-84500618D01*
X106844262Y-84510852D01*
X106845909Y-84521455D01*
X106846795Y-84532427D01*
X106846964Y-84539947D01*
X106846584Y-84551168D01*
X106845444Y-84562023D01*
X106843545Y-84572514D01*
X106840885Y-84582640D01*
X106837465Y-84592401D01*
X106833286Y-84601797D01*
X106828346Y-84610828D01*
X106822647Y-84619494D01*
X106816188Y-84627795D01*
X106808968Y-84635731D01*
X106803733Y-84640819D01*
X106795566Y-84647934D01*
X106787184Y-84654349D01*
X106778587Y-84660064D01*
X106769776Y-84665080D01*
X106760750Y-84669395D01*
X106751509Y-84673011D01*
X106742054Y-84675927D01*
X106732384Y-84678143D01*
X106722499Y-84679659D01*
X106712400Y-84680476D01*
X106705548Y-84680631D01*
G37*
D12*
X143088346Y-116856900D02*
X144231204Y-116856900D01*
X143659775Y-117428328D02*
X143659775Y-116285471D01*
X145659775Y-115928328D02*
X144945489Y-115928328D01*
X144945489Y-115928328D02*
X144874061Y-116642614D01*
X144874061Y-116642614D02*
X144945489Y-116571185D01*
X144945489Y-116571185D02*
X145088347Y-116499757D01*
X145088347Y-116499757D02*
X145445489Y-116499757D01*
X145445489Y-116499757D02*
X145588347Y-116571185D01*
X145588347Y-116571185D02*
X145659775Y-116642614D01*
X145659775Y-116642614D02*
X145731204Y-116785471D01*
X145731204Y-116785471D02*
X145731204Y-117142614D01*
X145731204Y-117142614D02*
X145659775Y-117285471D01*
X145659775Y-117285471D02*
X145588347Y-117356900D01*
X145588347Y-117356900D02*
X145445489Y-117428328D01*
X145445489Y-117428328D02*
X145088347Y-117428328D01*
X145088347Y-117428328D02*
X144945489Y-117356900D01*
X144945489Y-117356900D02*
X144874061Y-117285471D01*
X146159775Y-115928328D02*
X146659775Y-117428328D01*
X146659775Y-117428328D02*
X147159775Y-115928328D01*
D14*
X64134819Y-108939285D02*
X63134819Y-108939285D01*
X63134819Y-108939285D02*
X63134819Y-108701190D01*
X63134819Y-108701190D02*
X63182438Y-108558333D01*
X63182438Y-108558333D02*
X63277676Y-108463095D01*
X63277676Y-108463095D02*
X63372914Y-108415476D01*
X63372914Y-108415476D02*
X63563390Y-108367857D01*
X63563390Y-108367857D02*
X63706247Y-108367857D01*
X63706247Y-108367857D02*
X63896723Y-108415476D01*
X63896723Y-108415476D02*
X63991961Y-108463095D01*
X63991961Y-108463095D02*
X64087200Y-108558333D01*
X64087200Y-108558333D02*
X64134819Y-108701190D01*
X64134819Y-108701190D02*
X64134819Y-108939285D01*
X64134819Y-107367857D02*
X63658628Y-107701190D01*
X64134819Y-107939285D02*
X63134819Y-107939285D01*
X63134819Y-107939285D02*
X63134819Y-107558333D01*
X63134819Y-107558333D02*
X63182438Y-107463095D01*
X63182438Y-107463095D02*
X63230057Y-107415476D01*
X63230057Y-107415476D02*
X63325295Y-107367857D01*
X63325295Y-107367857D02*
X63468152Y-107367857D01*
X63468152Y-107367857D02*
X63563390Y-107415476D01*
X63563390Y-107415476D02*
X63611009Y-107463095D01*
X63611009Y-107463095D02*
X63658628Y-107558333D01*
X63658628Y-107558333D02*
X63658628Y-107939285D01*
X64134819Y-106939285D02*
X63134819Y-106939285D01*
X63611009Y-106129762D02*
X63658628Y-105986905D01*
X63658628Y-105986905D02*
X63706247Y-105939286D01*
X63706247Y-105939286D02*
X63801485Y-105891667D01*
X63801485Y-105891667D02*
X63944342Y-105891667D01*
X63944342Y-105891667D02*
X64039580Y-105939286D01*
X64039580Y-105939286D02*
X64087200Y-105986905D01*
X64087200Y-105986905D02*
X64134819Y-106082143D01*
X64134819Y-106082143D02*
X64134819Y-106463095D01*
X64134819Y-106463095D02*
X63134819Y-106463095D01*
X63134819Y-106463095D02*
X63134819Y-106129762D01*
X63134819Y-106129762D02*
X63182438Y-106034524D01*
X63182438Y-106034524D02*
X63230057Y-105986905D01*
X63230057Y-105986905D02*
X63325295Y-105939286D01*
X63325295Y-105939286D02*
X63420533Y-105939286D01*
X63420533Y-105939286D02*
X63515771Y-105986905D01*
X63515771Y-105986905D02*
X63563390Y-106034524D01*
X63563390Y-106034524D02*
X63611009Y-106129762D01*
X63611009Y-106129762D02*
X63611009Y-106463095D01*
X63611009Y-105129762D02*
X63658628Y-104986905D01*
X63658628Y-104986905D02*
X63706247Y-104939286D01*
X63706247Y-104939286D02*
X63801485Y-104891667D01*
X63801485Y-104891667D02*
X63944342Y-104891667D01*
X63944342Y-104891667D02*
X64039580Y-104939286D01*
X64039580Y-104939286D02*
X64087200Y-104986905D01*
X64087200Y-104986905D02*
X64134819Y-105082143D01*
X64134819Y-105082143D02*
X64134819Y-105463095D01*
X64134819Y-105463095D02*
X63134819Y-105463095D01*
X63134819Y-105463095D02*
X63134819Y-105129762D01*
X63134819Y-105129762D02*
X63182438Y-105034524D01*
X63182438Y-105034524D02*
X63230057Y-104986905D01*
X63230057Y-104986905D02*
X63325295Y-104939286D01*
X63325295Y-104939286D02*
X63420533Y-104939286D01*
X63420533Y-104939286D02*
X63515771Y-104986905D01*
X63515771Y-104986905D02*
X63563390Y-105034524D01*
X63563390Y-105034524D02*
X63611009Y-105129762D01*
X63611009Y-105129762D02*
X63611009Y-105463095D01*
X64134819Y-103986905D02*
X64134819Y-104463095D01*
X64134819Y-104463095D02*
X63134819Y-104463095D01*
X63611009Y-103653571D02*
X63611009Y-103320238D01*
X64134819Y-103177381D02*
X64134819Y-103653571D01*
X64134819Y-103653571D02*
X63134819Y-103653571D01*
X63134819Y-103653571D02*
X63134819Y-103177381D01*
X64134819Y-102177381D02*
X63658628Y-102510714D01*
X64134819Y-102748809D02*
X63134819Y-102748809D01*
X63134819Y-102748809D02*
X63134819Y-102367857D01*
X63134819Y-102367857D02*
X63182438Y-102272619D01*
X63182438Y-102272619D02*
X63230057Y-102225000D01*
X63230057Y-102225000D02*
X63325295Y-102177381D01*
X63325295Y-102177381D02*
X63468152Y-102177381D01*
X63468152Y-102177381D02*
X63563390Y-102225000D01*
X63563390Y-102225000D02*
X63611009Y-102272619D01*
X63611009Y-102272619D02*
X63658628Y-102367857D01*
X63658628Y-102367857D02*
X63658628Y-102748809D01*
X63134819Y-101463095D02*
X63849104Y-101463095D01*
X63849104Y-101463095D02*
X63991961Y-101510714D01*
X63991961Y-101510714D02*
X64087200Y-101605952D01*
X64087200Y-101605952D02*
X64134819Y-101748809D01*
X64134819Y-101748809D02*
X64134819Y-101844047D01*
X64134819Y-100463095D02*
X64134819Y-101034523D01*
X64134819Y-100748809D02*
X63134819Y-100748809D01*
X63134819Y-100748809D02*
X63277676Y-100844047D01*
X63277676Y-100844047D02*
X63372914Y-100939285D01*
X63372914Y-100939285D02*
X63420533Y-101034523D01*
X147983333Y-74184819D02*
X147650000Y-73708628D01*
X147411905Y-74184819D02*
X147411905Y-73184819D01*
X147411905Y-73184819D02*
X147792857Y-73184819D01*
X147792857Y-73184819D02*
X147888095Y-73232438D01*
X147888095Y-73232438D02*
X147935714Y-73280057D01*
X147935714Y-73280057D02*
X147983333Y-73375295D01*
X147983333Y-73375295D02*
X147983333Y-73518152D01*
X147983333Y-73518152D02*
X147935714Y-73613390D01*
X147935714Y-73613390D02*
X147888095Y-73661009D01*
X147888095Y-73661009D02*
X147792857Y-73708628D01*
X147792857Y-73708628D02*
X147411905Y-73708628D01*
X148316667Y-73184819D02*
X148935714Y-73184819D01*
X148935714Y-73184819D02*
X148602381Y-73565771D01*
X148602381Y-73565771D02*
X148745238Y-73565771D01*
X148745238Y-73565771D02*
X148840476Y-73613390D01*
X148840476Y-73613390D02*
X148888095Y-73661009D01*
X148888095Y-73661009D02*
X148935714Y-73756247D01*
X148935714Y-73756247D02*
X148935714Y-73994342D01*
X148935714Y-73994342D02*
X148888095Y-74089580D01*
X148888095Y-74089580D02*
X148840476Y-74137200D01*
X148840476Y-74137200D02*
X148745238Y-74184819D01*
X148745238Y-74184819D02*
X148459524Y-74184819D01*
X148459524Y-74184819D02*
X148364286Y-74137200D01*
X148364286Y-74137200D02*
X148316667Y-74089580D01*
X153304761Y-74184819D02*
X152733333Y-74184819D01*
X153019047Y-74184819D02*
X153019047Y-73184819D01*
X153019047Y-73184819D02*
X152923809Y-73327676D01*
X152923809Y-73327676D02*
X152828571Y-73422914D01*
X152828571Y-73422914D02*
X152733333Y-73470533D01*
X153923809Y-73184819D02*
X154019047Y-73184819D01*
X154019047Y-73184819D02*
X154114285Y-73232438D01*
X154114285Y-73232438D02*
X154161904Y-73280057D01*
X154161904Y-73280057D02*
X154209523Y-73375295D01*
X154209523Y-73375295D02*
X154257142Y-73565771D01*
X154257142Y-73565771D02*
X154257142Y-73803866D01*
X154257142Y-73803866D02*
X154209523Y-73994342D01*
X154209523Y-73994342D02*
X154161904Y-74089580D01*
X154161904Y-74089580D02*
X154114285Y-74137200D01*
X154114285Y-74137200D02*
X154019047Y-74184819D01*
X154019047Y-74184819D02*
X153923809Y-74184819D01*
X153923809Y-74184819D02*
X153828571Y-74137200D01*
X153828571Y-74137200D02*
X153780952Y-74089580D01*
X153780952Y-74089580D02*
X153733333Y-73994342D01*
X153733333Y-73994342D02*
X153685714Y-73803866D01*
X153685714Y-73803866D02*
X153685714Y-73565771D01*
X153685714Y-73565771D02*
X153733333Y-73375295D01*
X153733333Y-73375295D02*
X153780952Y-73280057D01*
X153780952Y-73280057D02*
X153828571Y-73232438D01*
X153828571Y-73232438D02*
X153923809Y-73184819D01*
X154685714Y-74184819D02*
X154685714Y-73184819D01*
X154780952Y-73803866D02*
X155066666Y-74184819D01*
X155066666Y-73518152D02*
X154685714Y-73899104D01*
X93238095Y-102054819D02*
X93238095Y-102864342D01*
X93238095Y-102864342D02*
X93285714Y-102959580D01*
X93285714Y-102959580D02*
X93333333Y-103007200D01*
X93333333Y-103007200D02*
X93428571Y-103054819D01*
X93428571Y-103054819D02*
X93619047Y-103054819D01*
X93619047Y-103054819D02*
X93714285Y-103007200D01*
X93714285Y-103007200D02*
X93761904Y-102959580D01*
X93761904Y-102959580D02*
X93809523Y-102864342D01*
X93809523Y-102864342D02*
X93809523Y-102054819D01*
X94761904Y-102054819D02*
X94285714Y-102054819D01*
X94285714Y-102054819D02*
X94238095Y-102531009D01*
X94238095Y-102531009D02*
X94285714Y-102483390D01*
X94285714Y-102483390D02*
X94380952Y-102435771D01*
X94380952Y-102435771D02*
X94619047Y-102435771D01*
X94619047Y-102435771D02*
X94714285Y-102483390D01*
X94714285Y-102483390D02*
X94761904Y-102531009D01*
X94761904Y-102531009D02*
X94809523Y-102626247D01*
X94809523Y-102626247D02*
X94809523Y-102864342D01*
X94809523Y-102864342D02*
X94761904Y-102959580D01*
X94761904Y-102959580D02*
X94714285Y-103007200D01*
X94714285Y-103007200D02*
X94619047Y-103054819D01*
X94619047Y-103054819D02*
X94380952Y-103054819D01*
X94380952Y-103054819D02*
X94285714Y-103007200D01*
X94285714Y-103007200D02*
X94238095Y-102959580D01*
X96333333Y-162744819D02*
X96000000Y-162268628D01*
X95761905Y-162744819D02*
X95761905Y-161744819D01*
X95761905Y-161744819D02*
X96142857Y-161744819D01*
X96142857Y-161744819D02*
X96238095Y-161792438D01*
X96238095Y-161792438D02*
X96285714Y-161840057D01*
X96285714Y-161840057D02*
X96333333Y-161935295D01*
X96333333Y-161935295D02*
X96333333Y-162078152D01*
X96333333Y-162078152D02*
X96285714Y-162173390D01*
X96285714Y-162173390D02*
X96238095Y-162221009D01*
X96238095Y-162221009D02*
X96142857Y-162268628D01*
X96142857Y-162268628D02*
X95761905Y-162268628D01*
X97190476Y-161744819D02*
X97000000Y-161744819D01*
X97000000Y-161744819D02*
X96904762Y-161792438D01*
X96904762Y-161792438D02*
X96857143Y-161840057D01*
X96857143Y-161840057D02*
X96761905Y-161982914D01*
X96761905Y-161982914D02*
X96714286Y-162173390D01*
X96714286Y-162173390D02*
X96714286Y-162554342D01*
X96714286Y-162554342D02*
X96761905Y-162649580D01*
X96761905Y-162649580D02*
X96809524Y-162697200D01*
X96809524Y-162697200D02*
X96904762Y-162744819D01*
X96904762Y-162744819D02*
X97095238Y-162744819D01*
X97095238Y-162744819D02*
X97190476Y-162697200D01*
X97190476Y-162697200D02*
X97238095Y-162649580D01*
X97238095Y-162649580D02*
X97285714Y-162554342D01*
X97285714Y-162554342D02*
X97285714Y-162316247D01*
X97285714Y-162316247D02*
X97238095Y-162221009D01*
X97238095Y-162221009D02*
X97190476Y-162173390D01*
X97190476Y-162173390D02*
X97095238Y-162125771D01*
X97095238Y-162125771D02*
X96904762Y-162125771D01*
X96904762Y-162125771D02*
X96809524Y-162173390D01*
X96809524Y-162173390D02*
X96761905Y-162221009D01*
X96761905Y-162221009D02*
X96714286Y-162316247D01*
X101559523Y-162744819D02*
X101226190Y-162268628D01*
X100988095Y-162744819D02*
X100988095Y-161744819D01*
X100988095Y-161744819D02*
X101369047Y-161744819D01*
X101369047Y-161744819D02*
X101464285Y-161792438D01*
X101464285Y-161792438D02*
X101511904Y-161840057D01*
X101511904Y-161840057D02*
X101559523Y-161935295D01*
X101559523Y-161935295D02*
X101559523Y-162078152D01*
X101559523Y-162078152D02*
X101511904Y-162173390D01*
X101511904Y-162173390D02*
X101464285Y-162221009D01*
X101464285Y-162221009D02*
X101369047Y-162268628D01*
X101369047Y-162268628D02*
X100988095Y-162268628D01*
X147983333Y-71684819D02*
X147650000Y-71208628D01*
X147411905Y-71684819D02*
X147411905Y-70684819D01*
X147411905Y-70684819D02*
X147792857Y-70684819D01*
X147792857Y-70684819D02*
X147888095Y-70732438D01*
X147888095Y-70732438D02*
X147935714Y-70780057D01*
X147935714Y-70780057D02*
X147983333Y-70875295D01*
X147983333Y-70875295D02*
X147983333Y-71018152D01*
X147983333Y-71018152D02*
X147935714Y-71113390D01*
X147935714Y-71113390D02*
X147888095Y-71161009D01*
X147888095Y-71161009D02*
X147792857Y-71208628D01*
X147792857Y-71208628D02*
X147411905Y-71208628D01*
X148840476Y-71018152D02*
X148840476Y-71684819D01*
X148602381Y-70637200D02*
X148364286Y-71351485D01*
X148364286Y-71351485D02*
X148983333Y-71351485D01*
X153304761Y-71684819D02*
X152733333Y-71684819D01*
X153019047Y-71684819D02*
X153019047Y-70684819D01*
X153019047Y-70684819D02*
X152923809Y-70827676D01*
X152923809Y-70827676D02*
X152828571Y-70922914D01*
X152828571Y-70922914D02*
X152733333Y-70970533D01*
X153923809Y-70684819D02*
X154019047Y-70684819D01*
X154019047Y-70684819D02*
X154114285Y-70732438D01*
X154114285Y-70732438D02*
X154161904Y-70780057D01*
X154161904Y-70780057D02*
X154209523Y-70875295D01*
X154209523Y-70875295D02*
X154257142Y-71065771D01*
X154257142Y-71065771D02*
X154257142Y-71303866D01*
X154257142Y-71303866D02*
X154209523Y-71494342D01*
X154209523Y-71494342D02*
X154161904Y-71589580D01*
X154161904Y-71589580D02*
X154114285Y-71637200D01*
X154114285Y-71637200D02*
X154019047Y-71684819D01*
X154019047Y-71684819D02*
X153923809Y-71684819D01*
X153923809Y-71684819D02*
X153828571Y-71637200D01*
X153828571Y-71637200D02*
X153780952Y-71589580D01*
X153780952Y-71589580D02*
X153733333Y-71494342D01*
X153733333Y-71494342D02*
X153685714Y-71303866D01*
X153685714Y-71303866D02*
X153685714Y-71065771D01*
X153685714Y-71065771D02*
X153733333Y-70875295D01*
X153733333Y-70875295D02*
X153780952Y-70780057D01*
X153780952Y-70780057D02*
X153828571Y-70732438D01*
X153828571Y-70732438D02*
X153923809Y-70684819D01*
X154685714Y-71684819D02*
X154685714Y-70684819D01*
X154780952Y-71303866D02*
X155066666Y-71684819D01*
X155066666Y-71018152D02*
X154685714Y-71399104D01*
X74169756Y-158693839D02*
X74770835Y-159079725D01*
X74770835Y-159079725D02*
X74865325Y-159196975D01*
X74865325Y-159196975D02*
X74894017Y-159328570D01*
X74894017Y-159328570D02*
X74856912Y-159474511D01*
X74856912Y-159474511D02*
X74805461Y-159554655D01*
X74864838Y-158404436D02*
X74773314Y-158458854D01*
X74773314Y-158458854D02*
X74707517Y-158473200D01*
X74707517Y-158473200D02*
X74601647Y-158461820D01*
X74601647Y-158461820D02*
X74561575Y-158436095D01*
X74561575Y-158436095D02*
X74507157Y-158344571D01*
X74507157Y-158344571D02*
X74492811Y-158278774D01*
X74492811Y-158278774D02*
X74504190Y-158172904D01*
X74504190Y-158172904D02*
X74607093Y-158012616D01*
X74607093Y-158012616D02*
X74698617Y-157958198D01*
X74698617Y-157958198D02*
X74764414Y-157943852D01*
X74764414Y-157943852D02*
X74870284Y-157955231D01*
X74870284Y-157955231D02*
X74910356Y-157980957D01*
X74910356Y-157980957D02*
X74964774Y-158072481D01*
X74964774Y-158072481D02*
X74979120Y-158138278D01*
X74979120Y-158138278D02*
X74967741Y-158244148D01*
X74967741Y-158244148D02*
X74864838Y-158404436D01*
X74864838Y-158404436D02*
X74853458Y-158510305D01*
X74853458Y-158510305D02*
X74867804Y-158576103D01*
X74867804Y-158576103D02*
X74922223Y-158667626D01*
X74922223Y-158667626D02*
X75082510Y-158770529D01*
X75082510Y-158770529D02*
X75188380Y-158781909D01*
X75188380Y-158781909D02*
X75254178Y-158767563D01*
X75254178Y-158767563D02*
X75345701Y-158713144D01*
X75345701Y-158713144D02*
X75448604Y-158552857D01*
X75448604Y-158552857D02*
X75459983Y-158446987D01*
X75459983Y-158446987D02*
X75445637Y-158381189D01*
X75445637Y-158381189D02*
X75391219Y-158289666D01*
X75391219Y-158289666D02*
X75230931Y-158186763D01*
X75230931Y-158186763D02*
X75125062Y-158175383D01*
X75125062Y-158175383D02*
X75059264Y-158189730D01*
X75059264Y-158189730D02*
X74967741Y-158244148D01*
X84666666Y-103434819D02*
X84666666Y-104149104D01*
X84666666Y-104149104D02*
X84619047Y-104291961D01*
X84619047Y-104291961D02*
X84523809Y-104387200D01*
X84523809Y-104387200D02*
X84380952Y-104434819D01*
X84380952Y-104434819D02*
X84285714Y-104434819D01*
X85666666Y-104434819D02*
X85095238Y-104434819D01*
X85380952Y-104434819D02*
X85380952Y-103434819D01*
X85380952Y-103434819D02*
X85285714Y-103577676D01*
X85285714Y-103577676D02*
X85190476Y-103672914D01*
X85190476Y-103672914D02*
X85095238Y-103720533D01*
X141059140Y-152754664D02*
X140458061Y-153140550D01*
X140458061Y-153140550D02*
X140312119Y-153177655D01*
X140312119Y-153177655D02*
X140180524Y-153148963D01*
X140180524Y-153148963D02*
X140063275Y-153054473D01*
X140063275Y-153054473D02*
X140011823Y-152974329D01*
X141264946Y-153075240D02*
X141625106Y-153636247D01*
X141625106Y-153636247D02*
X140552064Y-153815840D01*
X84666666Y-105474819D02*
X84666666Y-106189104D01*
X84666666Y-106189104D02*
X84619047Y-106331961D01*
X84619047Y-106331961D02*
X84523809Y-106427200D01*
X84523809Y-106427200D02*
X84380952Y-106474819D01*
X84380952Y-106474819D02*
X84285714Y-106474819D01*
X85047619Y-105474819D02*
X85666666Y-105474819D01*
X85666666Y-105474819D02*
X85333333Y-105855771D01*
X85333333Y-105855771D02*
X85476190Y-105855771D01*
X85476190Y-105855771D02*
X85571428Y-105903390D01*
X85571428Y-105903390D02*
X85619047Y-105951009D01*
X85619047Y-105951009D02*
X85666666Y-106046247D01*
X85666666Y-106046247D02*
X85666666Y-106284342D01*
X85666666Y-106284342D02*
X85619047Y-106379580D01*
X85619047Y-106379580D02*
X85571428Y-106427200D01*
X85571428Y-106427200D02*
X85476190Y-106474819D01*
X85476190Y-106474819D02*
X85190476Y-106474819D01*
X85190476Y-106474819D02*
X85095238Y-106427200D01*
X85095238Y-106427200D02*
X85047619Y-106379580D01*
X96333333Y-160244819D02*
X96000000Y-159768628D01*
X95761905Y-160244819D02*
X95761905Y-159244819D01*
X95761905Y-159244819D02*
X96142857Y-159244819D01*
X96142857Y-159244819D02*
X96238095Y-159292438D01*
X96238095Y-159292438D02*
X96285714Y-159340057D01*
X96285714Y-159340057D02*
X96333333Y-159435295D01*
X96333333Y-159435295D02*
X96333333Y-159578152D01*
X96333333Y-159578152D02*
X96285714Y-159673390D01*
X96285714Y-159673390D02*
X96238095Y-159721009D01*
X96238095Y-159721009D02*
X96142857Y-159768628D01*
X96142857Y-159768628D02*
X95761905Y-159768628D01*
X96666667Y-159244819D02*
X97333333Y-159244819D01*
X97333333Y-159244819D02*
X96904762Y-160244819D01*
X101559523Y-160244819D02*
X101226190Y-159768628D01*
X100988095Y-160244819D02*
X100988095Y-159244819D01*
X100988095Y-159244819D02*
X101369047Y-159244819D01*
X101369047Y-159244819D02*
X101464285Y-159292438D01*
X101464285Y-159292438D02*
X101511904Y-159340057D01*
X101511904Y-159340057D02*
X101559523Y-159435295D01*
X101559523Y-159435295D02*
X101559523Y-159578152D01*
X101559523Y-159578152D02*
X101511904Y-159673390D01*
X101511904Y-159673390D02*
X101464285Y-159721009D01*
X101464285Y-159721009D02*
X101369047Y-159768628D01*
X101369047Y-159768628D02*
X100988095Y-159768628D01*
X147983333Y-76684819D02*
X147650000Y-76208628D01*
X147411905Y-76684819D02*
X147411905Y-75684819D01*
X147411905Y-75684819D02*
X147792857Y-75684819D01*
X147792857Y-75684819D02*
X147888095Y-75732438D01*
X147888095Y-75732438D02*
X147935714Y-75780057D01*
X147935714Y-75780057D02*
X147983333Y-75875295D01*
X147983333Y-75875295D02*
X147983333Y-76018152D01*
X147983333Y-76018152D02*
X147935714Y-76113390D01*
X147935714Y-76113390D02*
X147888095Y-76161009D01*
X147888095Y-76161009D02*
X147792857Y-76208628D01*
X147792857Y-76208628D02*
X147411905Y-76208628D01*
X148364286Y-75780057D02*
X148411905Y-75732438D01*
X148411905Y-75732438D02*
X148507143Y-75684819D01*
X148507143Y-75684819D02*
X148745238Y-75684819D01*
X148745238Y-75684819D02*
X148840476Y-75732438D01*
X148840476Y-75732438D02*
X148888095Y-75780057D01*
X148888095Y-75780057D02*
X148935714Y-75875295D01*
X148935714Y-75875295D02*
X148935714Y-75970533D01*
X148935714Y-75970533D02*
X148888095Y-76113390D01*
X148888095Y-76113390D02*
X148316667Y-76684819D01*
X148316667Y-76684819D02*
X148935714Y-76684819D01*
X153304761Y-76684819D02*
X152733333Y-76684819D01*
X153019047Y-76684819D02*
X153019047Y-75684819D01*
X153019047Y-75684819D02*
X152923809Y-75827676D01*
X152923809Y-75827676D02*
X152828571Y-75922914D01*
X152828571Y-75922914D02*
X152733333Y-75970533D01*
X153923809Y-75684819D02*
X154019047Y-75684819D01*
X154019047Y-75684819D02*
X154114285Y-75732438D01*
X154114285Y-75732438D02*
X154161904Y-75780057D01*
X154161904Y-75780057D02*
X154209523Y-75875295D01*
X154209523Y-75875295D02*
X154257142Y-76065771D01*
X154257142Y-76065771D02*
X154257142Y-76303866D01*
X154257142Y-76303866D02*
X154209523Y-76494342D01*
X154209523Y-76494342D02*
X154161904Y-76589580D01*
X154161904Y-76589580D02*
X154114285Y-76637200D01*
X154114285Y-76637200D02*
X154019047Y-76684819D01*
X154019047Y-76684819D02*
X153923809Y-76684819D01*
X153923809Y-76684819D02*
X153828571Y-76637200D01*
X153828571Y-76637200D02*
X153780952Y-76589580D01*
X153780952Y-76589580D02*
X153733333Y-76494342D01*
X153733333Y-76494342D02*
X153685714Y-76303866D01*
X153685714Y-76303866D02*
X153685714Y-76065771D01*
X153685714Y-76065771D02*
X153733333Y-75875295D01*
X153733333Y-75875295D02*
X153780952Y-75780057D01*
X153780952Y-75780057D02*
X153828571Y-75732438D01*
X153828571Y-75732438D02*
X153923809Y-75684819D01*
X154685714Y-76684819D02*
X154685714Y-75684819D01*
X154780952Y-76303866D02*
X155066666Y-76684819D01*
X155066666Y-76018152D02*
X154685714Y-76399104D01*
X68580699Y-153315671D02*
X69181778Y-153701557D01*
X69181778Y-153701557D02*
X69276268Y-153818807D01*
X69276268Y-153818807D02*
X69304960Y-153950402D01*
X69304960Y-153950402D02*
X69267855Y-154096343D01*
X69267855Y-154096343D02*
X69216404Y-154176487D01*
X69069488Y-152554304D02*
X68966585Y-152714592D01*
X68966585Y-152714592D02*
X68955205Y-152820462D01*
X68955205Y-152820462D02*
X68969551Y-152886259D01*
X68969551Y-152886259D02*
X69038316Y-153043581D01*
X69038316Y-153043581D02*
X69172878Y-153186555D01*
X69172878Y-153186555D02*
X69493453Y-153392361D01*
X69493453Y-153392361D02*
X69599323Y-153403741D01*
X69599323Y-153403741D02*
X69665121Y-153389395D01*
X69665121Y-153389395D02*
X69756644Y-153334976D01*
X69756644Y-153334976D02*
X69859547Y-153174689D01*
X69859547Y-153174689D02*
X69870926Y-153068819D01*
X69870926Y-153068819D02*
X69856580Y-153003021D01*
X69856580Y-153003021D02*
X69802162Y-152911498D01*
X69802162Y-152911498D02*
X69601802Y-152782869D01*
X69601802Y-152782869D02*
X69495933Y-152771490D01*
X69495933Y-152771490D02*
X69430135Y-152785836D01*
X69430135Y-152785836D02*
X69338612Y-152840254D01*
X69338612Y-152840254D02*
X69235709Y-153000542D01*
X69235709Y-153000542D02*
X69224329Y-153106411D01*
X69224329Y-153106411D02*
X69238676Y-153172209D01*
X69238676Y-153172209D02*
X69293094Y-153263733D01*
X54092800Y-73666667D02*
X54045180Y-73809524D01*
X54045180Y-73809524D02*
X54045180Y-74047619D01*
X54045180Y-74047619D02*
X54092800Y-74142857D01*
X54092800Y-74142857D02*
X54140419Y-74190476D01*
X54140419Y-74190476D02*
X54235657Y-74238095D01*
X54235657Y-74238095D02*
X54330895Y-74238095D01*
X54330895Y-74238095D02*
X54426133Y-74190476D01*
X54426133Y-74190476D02*
X54473752Y-74142857D01*
X54473752Y-74142857D02*
X54521371Y-74047619D01*
X54521371Y-74047619D02*
X54568990Y-73857143D01*
X54568990Y-73857143D02*
X54616609Y-73761905D01*
X54616609Y-73761905D02*
X54664228Y-73714286D01*
X54664228Y-73714286D02*
X54759466Y-73666667D01*
X54759466Y-73666667D02*
X54854704Y-73666667D01*
X54854704Y-73666667D02*
X54949942Y-73714286D01*
X54949942Y-73714286D02*
X54997561Y-73761905D01*
X54997561Y-73761905D02*
X55045180Y-73857143D01*
X55045180Y-73857143D02*
X55045180Y-74095238D01*
X55045180Y-74095238D02*
X54997561Y-74238095D01*
X55045180Y-74571429D02*
X54045180Y-74809524D01*
X54045180Y-74809524D02*
X54759466Y-75000000D01*
X54759466Y-75000000D02*
X54045180Y-75190476D01*
X54045180Y-75190476D02*
X55045180Y-75428572D01*
X54045180Y-76333333D02*
X54045180Y-75761905D01*
X54045180Y-76047619D02*
X55045180Y-76047619D01*
X55045180Y-76047619D02*
X54902323Y-75952381D01*
X54902323Y-75952381D02*
X54807085Y-75857143D01*
X54807085Y-75857143D02*
X54759466Y-75761905D01*
X114238095Y-102054819D02*
X114238095Y-102864342D01*
X114238095Y-102864342D02*
X114285714Y-102959580D01*
X114285714Y-102959580D02*
X114333333Y-103007200D01*
X114333333Y-103007200D02*
X114428571Y-103054819D01*
X114428571Y-103054819D02*
X114619047Y-103054819D01*
X114619047Y-103054819D02*
X114714285Y-103007200D01*
X114714285Y-103007200D02*
X114761904Y-102959580D01*
X114761904Y-102959580D02*
X114809523Y-102864342D01*
X114809523Y-102864342D02*
X114809523Y-102054819D01*
X115714285Y-102054819D02*
X115523809Y-102054819D01*
X115523809Y-102054819D02*
X115428571Y-102102438D01*
X115428571Y-102102438D02*
X115380952Y-102150057D01*
X115380952Y-102150057D02*
X115285714Y-102292914D01*
X115285714Y-102292914D02*
X115238095Y-102483390D01*
X115238095Y-102483390D02*
X115238095Y-102864342D01*
X115238095Y-102864342D02*
X115285714Y-102959580D01*
X115285714Y-102959580D02*
X115333333Y-103007200D01*
X115333333Y-103007200D02*
X115428571Y-103054819D01*
X115428571Y-103054819D02*
X115619047Y-103054819D01*
X115619047Y-103054819D02*
X115714285Y-103007200D01*
X115714285Y-103007200D02*
X115761904Y-102959580D01*
X115761904Y-102959580D02*
X115809523Y-102864342D01*
X115809523Y-102864342D02*
X115809523Y-102626247D01*
X115809523Y-102626247D02*
X115761904Y-102531009D01*
X115761904Y-102531009D02*
X115714285Y-102483390D01*
X115714285Y-102483390D02*
X115619047Y-102435771D01*
X115619047Y-102435771D02*
X115428571Y-102435771D01*
X115428571Y-102435771D02*
X115333333Y-102483390D01*
X115333333Y-102483390D02*
X115285714Y-102531009D01*
X115285714Y-102531009D02*
X115238095Y-102626247D01*
X77424819Y-107591666D02*
X76948628Y-107924999D01*
X77424819Y-108163094D02*
X76424819Y-108163094D01*
X76424819Y-108163094D02*
X76424819Y-107782142D01*
X76424819Y-107782142D02*
X76472438Y-107686904D01*
X76472438Y-107686904D02*
X76520057Y-107639285D01*
X76520057Y-107639285D02*
X76615295Y-107591666D01*
X76615295Y-107591666D02*
X76758152Y-107591666D01*
X76758152Y-107591666D02*
X76853390Y-107639285D01*
X76853390Y-107639285D02*
X76901009Y-107686904D01*
X76901009Y-107686904D02*
X76948628Y-107782142D01*
X76948628Y-107782142D02*
X76948628Y-108163094D01*
X76424819Y-106686904D02*
X76424819Y-107163094D01*
X76424819Y-107163094D02*
X76901009Y-107210713D01*
X76901009Y-107210713D02*
X76853390Y-107163094D01*
X76853390Y-107163094D02*
X76805771Y-107067856D01*
X76805771Y-107067856D02*
X76805771Y-106829761D01*
X76805771Y-106829761D02*
X76853390Y-106734523D01*
X76853390Y-106734523D02*
X76901009Y-106686904D01*
X76901009Y-106686904D02*
X76996247Y-106639285D01*
X76996247Y-106639285D02*
X77234342Y-106639285D01*
X77234342Y-106639285D02*
X77329580Y-106686904D01*
X77329580Y-106686904D02*
X77377200Y-106734523D01*
X77377200Y-106734523D02*
X77424819Y-106829761D01*
X77424819Y-106829761D02*
X77424819Y-107067856D01*
X77424819Y-107067856D02*
X77377200Y-107163094D01*
X77377200Y-107163094D02*
X77329580Y-107210713D01*
X80284819Y-108020238D02*
X80284819Y-108591666D01*
X80284819Y-108305952D02*
X79284819Y-108305952D01*
X79284819Y-108305952D02*
X79427676Y-108401190D01*
X79427676Y-108401190D02*
X79522914Y-108496428D01*
X79522914Y-108496428D02*
X79570533Y-108591666D01*
X79284819Y-107401190D02*
X79284819Y-107305952D01*
X79284819Y-107305952D02*
X79332438Y-107210714D01*
X79332438Y-107210714D02*
X79380057Y-107163095D01*
X79380057Y-107163095D02*
X79475295Y-107115476D01*
X79475295Y-107115476D02*
X79665771Y-107067857D01*
X79665771Y-107067857D02*
X79903866Y-107067857D01*
X79903866Y-107067857D02*
X80094342Y-107115476D01*
X80094342Y-107115476D02*
X80189580Y-107163095D01*
X80189580Y-107163095D02*
X80237200Y-107210714D01*
X80237200Y-107210714D02*
X80284819Y-107305952D01*
X80284819Y-107305952D02*
X80284819Y-107401190D01*
X80284819Y-107401190D02*
X80237200Y-107496428D01*
X80237200Y-107496428D02*
X80189580Y-107544047D01*
X80189580Y-107544047D02*
X80094342Y-107591666D01*
X80094342Y-107591666D02*
X79903866Y-107639285D01*
X79903866Y-107639285D02*
X79665771Y-107639285D01*
X79665771Y-107639285D02*
X79475295Y-107591666D01*
X79475295Y-107591666D02*
X79380057Y-107544047D01*
X79380057Y-107544047D02*
X79332438Y-107496428D01*
X79332438Y-107496428D02*
X79284819Y-107401190D01*
X80284819Y-106639285D02*
X79284819Y-106639285D01*
X79903866Y-106544047D02*
X80284819Y-106258333D01*
X79618152Y-106258333D02*
X79999104Y-106639285D01*
X172614819Y-105761904D02*
X173424342Y-105761904D01*
X173424342Y-105761904D02*
X173519580Y-105714285D01*
X173519580Y-105714285D02*
X173567200Y-105666666D01*
X173567200Y-105666666D02*
X173614819Y-105571428D01*
X173614819Y-105571428D02*
X173614819Y-105380952D01*
X173614819Y-105380952D02*
X173567200Y-105285714D01*
X173567200Y-105285714D02*
X173519580Y-105238095D01*
X173519580Y-105238095D02*
X173424342Y-105190476D01*
X173424342Y-105190476D02*
X172614819Y-105190476D01*
X172710057Y-104761904D02*
X172662438Y-104714285D01*
X172662438Y-104714285D02*
X172614819Y-104619047D01*
X172614819Y-104619047D02*
X172614819Y-104380952D01*
X172614819Y-104380952D02*
X172662438Y-104285714D01*
X172662438Y-104285714D02*
X172710057Y-104238095D01*
X172710057Y-104238095D02*
X172805295Y-104190476D01*
X172805295Y-104190476D02*
X172900533Y-104190476D01*
X172900533Y-104190476D02*
X173043390Y-104238095D01*
X173043390Y-104238095D02*
X173614819Y-104809523D01*
X173614819Y-104809523D02*
X173614819Y-104190476D01*
X161599999Y-107094033D02*
X161599999Y-106394033D01*
X161599999Y-106394033D02*
X161766666Y-106394033D01*
X161766666Y-106394033D02*
X161866666Y-106427366D01*
X161866666Y-106427366D02*
X161933333Y-106494033D01*
X161933333Y-106494033D02*
X161966666Y-106560700D01*
X161966666Y-106560700D02*
X161999999Y-106694033D01*
X161999999Y-106694033D02*
X161999999Y-106794033D01*
X161999999Y-106794033D02*
X161966666Y-106927366D01*
X161966666Y-106927366D02*
X161933333Y-106994033D01*
X161933333Y-106994033D02*
X161866666Y-107060700D01*
X161866666Y-107060700D02*
X161766666Y-107094033D01*
X161766666Y-107094033D02*
X161599999Y-107094033D01*
X162199999Y-106394033D02*
X162433333Y-107094033D01*
X162433333Y-107094033D02*
X162666666Y-106394033D01*
X163233333Y-107094033D02*
X162899999Y-107094033D01*
X162899999Y-107094033D02*
X162899999Y-106394033D01*
X163766666Y-106394033D02*
X163633333Y-106394033D01*
X163633333Y-106394033D02*
X163566666Y-106427366D01*
X163566666Y-106427366D02*
X163533333Y-106460700D01*
X163533333Y-106460700D02*
X163466666Y-106560700D01*
X163466666Y-106560700D02*
X163433333Y-106694033D01*
X163433333Y-106694033D02*
X163433333Y-106960700D01*
X163433333Y-106960700D02*
X163466666Y-107027366D01*
X163466666Y-107027366D02*
X163500000Y-107060700D01*
X163500000Y-107060700D02*
X163566666Y-107094033D01*
X163566666Y-107094033D02*
X163700000Y-107094033D01*
X163700000Y-107094033D02*
X163766666Y-107060700D01*
X163766666Y-107060700D02*
X163800000Y-107027366D01*
X163800000Y-107027366D02*
X163833333Y-106960700D01*
X163833333Y-106960700D02*
X163833333Y-106794033D01*
X163833333Y-106794033D02*
X163800000Y-106727366D01*
X163800000Y-106727366D02*
X163766666Y-106694033D01*
X163766666Y-106694033D02*
X163700000Y-106660700D01*
X163700000Y-106660700D02*
X163566666Y-106660700D01*
X163566666Y-106660700D02*
X163500000Y-106694033D01*
X163500000Y-106694033D02*
X163466666Y-106727366D01*
X163466666Y-106727366D02*
X163433333Y-106794033D01*
X164100000Y-106894033D02*
X164433333Y-106894033D01*
X164033333Y-107094033D02*
X164266667Y-106394033D01*
X164266667Y-106394033D02*
X164500000Y-107094033D01*
X159916666Y-105570033D02*
X159916666Y-104870033D01*
X159916666Y-104870033D02*
X160150000Y-105370033D01*
X160150000Y-105370033D02*
X160383333Y-104870033D01*
X160383333Y-104870033D02*
X160383333Y-105570033D01*
X160716666Y-105570033D02*
X160716666Y-104870033D01*
X161049999Y-105570033D02*
X161049999Y-104870033D01*
X161049999Y-104870033D02*
X161283333Y-105370033D01*
X161283333Y-105370033D02*
X161516666Y-104870033D01*
X161516666Y-104870033D02*
X161516666Y-105570033D01*
X161783333Y-104870033D02*
X162249999Y-105570033D01*
X162249999Y-104870033D02*
X161783333Y-105570033D01*
X162916666Y-105570033D02*
X162683333Y-105236700D01*
X162516666Y-105570033D02*
X162516666Y-104870033D01*
X162516666Y-104870033D02*
X162783333Y-104870033D01*
X162783333Y-104870033D02*
X162850000Y-104903366D01*
X162850000Y-104903366D02*
X162883333Y-104936700D01*
X162883333Y-104936700D02*
X162916666Y-105003366D01*
X162916666Y-105003366D02*
X162916666Y-105103366D01*
X162916666Y-105103366D02*
X162883333Y-105170033D01*
X162883333Y-105170033D02*
X162850000Y-105203366D01*
X162850000Y-105203366D02*
X162783333Y-105236700D01*
X162783333Y-105236700D02*
X162516666Y-105236700D01*
X163116666Y-104870033D02*
X163516666Y-104870033D01*
X163316666Y-105570033D02*
X163316666Y-104870033D01*
X164116666Y-105570033D02*
X163716666Y-105570033D01*
X163916666Y-105570033D02*
X163916666Y-104870033D01*
X163916666Y-104870033D02*
X163849999Y-104970033D01*
X163849999Y-104970033D02*
X163783333Y-105036700D01*
X163783333Y-105036700D02*
X163716666Y-105070033D01*
X164550000Y-104870033D02*
X164616666Y-104870033D01*
X164616666Y-104870033D02*
X164683333Y-104903366D01*
X164683333Y-104903366D02*
X164716666Y-104936700D01*
X164716666Y-104936700D02*
X164750000Y-105003366D01*
X164750000Y-105003366D02*
X164783333Y-105136700D01*
X164783333Y-105136700D02*
X164783333Y-105303366D01*
X164783333Y-105303366D02*
X164750000Y-105436700D01*
X164750000Y-105436700D02*
X164716666Y-105503366D01*
X164716666Y-105503366D02*
X164683333Y-105536700D01*
X164683333Y-105536700D02*
X164616666Y-105570033D01*
X164616666Y-105570033D02*
X164550000Y-105570033D01*
X164550000Y-105570033D02*
X164483333Y-105536700D01*
X164483333Y-105536700D02*
X164450000Y-105503366D01*
X164450000Y-105503366D02*
X164416666Y-105436700D01*
X164416666Y-105436700D02*
X164383333Y-105303366D01*
X164383333Y-105303366D02*
X164383333Y-105136700D01*
X164383333Y-105136700D02*
X164416666Y-105003366D01*
X164416666Y-105003366D02*
X164450000Y-104936700D01*
X164450000Y-104936700D02*
X164483333Y-104903366D01*
X164483333Y-104903366D02*
X164550000Y-104870033D01*
X165383333Y-104870033D02*
X165250000Y-104870033D01*
X165250000Y-104870033D02*
X165183333Y-104903366D01*
X165183333Y-104903366D02*
X165150000Y-104936700D01*
X165150000Y-104936700D02*
X165083333Y-105036700D01*
X165083333Y-105036700D02*
X165050000Y-105170033D01*
X165050000Y-105170033D02*
X165050000Y-105436700D01*
X165050000Y-105436700D02*
X165083333Y-105503366D01*
X165083333Y-105503366D02*
X165116667Y-105536700D01*
X165116667Y-105536700D02*
X165183333Y-105570033D01*
X165183333Y-105570033D02*
X165316667Y-105570033D01*
X165316667Y-105570033D02*
X165383333Y-105536700D01*
X165383333Y-105536700D02*
X165416667Y-105503366D01*
X165416667Y-105503366D02*
X165450000Y-105436700D01*
X165450000Y-105436700D02*
X165450000Y-105270033D01*
X165450000Y-105270033D02*
X165416667Y-105203366D01*
X165416667Y-105203366D02*
X165383333Y-105170033D01*
X165383333Y-105170033D02*
X165316667Y-105136700D01*
X165316667Y-105136700D02*
X165183333Y-105136700D01*
X165183333Y-105136700D02*
X165116667Y-105170033D01*
X165116667Y-105170033D02*
X165083333Y-105203366D01*
X165083333Y-105203366D02*
X165050000Y-105270033D01*
X165716667Y-104936700D02*
X165750000Y-104903366D01*
X165750000Y-104903366D02*
X165816667Y-104870033D01*
X165816667Y-104870033D02*
X165983334Y-104870033D01*
X165983334Y-104870033D02*
X166050000Y-104903366D01*
X166050000Y-104903366D02*
X166083334Y-104936700D01*
X166083334Y-104936700D02*
X166116667Y-105003366D01*
X166116667Y-105003366D02*
X166116667Y-105070033D01*
X166116667Y-105070033D02*
X166083334Y-105170033D01*
X166083334Y-105170033D02*
X165683334Y-105570033D01*
X165683334Y-105570033D02*
X166116667Y-105570033D01*
X47636009Y-129638571D02*
X47683628Y-129495714D01*
X47683628Y-129495714D02*
X47731247Y-129448095D01*
X47731247Y-129448095D02*
X47826485Y-129400476D01*
X47826485Y-129400476D02*
X47969342Y-129400476D01*
X47969342Y-129400476D02*
X48064580Y-129448095D01*
X48064580Y-129448095D02*
X48112200Y-129495714D01*
X48112200Y-129495714D02*
X48159819Y-129590952D01*
X48159819Y-129590952D02*
X48159819Y-129971904D01*
X48159819Y-129971904D02*
X47159819Y-129971904D01*
X47159819Y-129971904D02*
X47159819Y-129638571D01*
X47159819Y-129638571D02*
X47207438Y-129543333D01*
X47207438Y-129543333D02*
X47255057Y-129495714D01*
X47255057Y-129495714D02*
X47350295Y-129448095D01*
X47350295Y-129448095D02*
X47445533Y-129448095D01*
X47445533Y-129448095D02*
X47540771Y-129495714D01*
X47540771Y-129495714D02*
X47588390Y-129543333D01*
X47588390Y-129543333D02*
X47636009Y-129638571D01*
X47636009Y-129638571D02*
X47636009Y-129971904D01*
X47159819Y-128971904D02*
X47969342Y-128971904D01*
X47969342Y-128971904D02*
X48064580Y-128924285D01*
X48064580Y-128924285D02*
X48112200Y-128876666D01*
X48112200Y-128876666D02*
X48159819Y-128781428D01*
X48159819Y-128781428D02*
X48159819Y-128590952D01*
X48159819Y-128590952D02*
X48112200Y-128495714D01*
X48112200Y-128495714D02*
X48064580Y-128448095D01*
X48064580Y-128448095D02*
X47969342Y-128400476D01*
X47969342Y-128400476D02*
X47159819Y-128400476D01*
X48064580Y-127352857D02*
X48112200Y-127400476D01*
X48112200Y-127400476D02*
X48159819Y-127543333D01*
X48159819Y-127543333D02*
X48159819Y-127638571D01*
X48159819Y-127638571D02*
X48112200Y-127781428D01*
X48112200Y-127781428D02*
X48016961Y-127876666D01*
X48016961Y-127876666D02*
X47921723Y-127924285D01*
X47921723Y-127924285D02*
X47731247Y-127971904D01*
X47731247Y-127971904D02*
X47588390Y-127971904D01*
X47588390Y-127971904D02*
X47397914Y-127924285D01*
X47397914Y-127924285D02*
X47302676Y-127876666D01*
X47302676Y-127876666D02*
X47207438Y-127781428D01*
X47207438Y-127781428D02*
X47159819Y-127638571D01*
X47159819Y-127638571D02*
X47159819Y-127543333D01*
X47159819Y-127543333D02*
X47207438Y-127400476D01*
X47207438Y-127400476D02*
X47255057Y-127352857D01*
X48159819Y-126924285D02*
X47159819Y-126924285D01*
X48159819Y-126352857D02*
X47588390Y-126781428D01*
X47159819Y-126352857D02*
X47731247Y-126924285D01*
X48159819Y-125400476D02*
X48159819Y-125971904D01*
X48159819Y-125686190D02*
X47159819Y-125686190D01*
X47159819Y-125686190D02*
X47302676Y-125781428D01*
X47302676Y-125781428D02*
X47397914Y-125876666D01*
X47397914Y-125876666D02*
X47445533Y-125971904D01*
X58398866Y-128995713D02*
X58398866Y-128233809D01*
X58779819Y-128614761D02*
X58017914Y-128614761D01*
X57779819Y-127281428D02*
X57779819Y-127757618D01*
X57779819Y-127757618D02*
X58256009Y-127805237D01*
X58256009Y-127805237D02*
X58208390Y-127757618D01*
X58208390Y-127757618D02*
X58160771Y-127662380D01*
X58160771Y-127662380D02*
X58160771Y-127424285D01*
X58160771Y-127424285D02*
X58208390Y-127329047D01*
X58208390Y-127329047D02*
X58256009Y-127281428D01*
X58256009Y-127281428D02*
X58351247Y-127233809D01*
X58351247Y-127233809D02*
X58589342Y-127233809D01*
X58589342Y-127233809D02*
X58684580Y-127281428D01*
X58684580Y-127281428D02*
X58732200Y-127329047D01*
X58732200Y-127329047D02*
X58779819Y-127424285D01*
X58779819Y-127424285D02*
X58779819Y-127662380D01*
X58779819Y-127662380D02*
X58732200Y-127757618D01*
X58732200Y-127757618D02*
X58684580Y-127805237D01*
X57779819Y-126948094D02*
X58779819Y-126614761D01*
X58779819Y-126614761D02*
X57779819Y-126281428D01*
X147983333Y-79184819D02*
X147650000Y-78708628D01*
X147411905Y-79184819D02*
X147411905Y-78184819D01*
X147411905Y-78184819D02*
X147792857Y-78184819D01*
X147792857Y-78184819D02*
X147888095Y-78232438D01*
X147888095Y-78232438D02*
X147935714Y-78280057D01*
X147935714Y-78280057D02*
X147983333Y-78375295D01*
X147983333Y-78375295D02*
X147983333Y-78518152D01*
X147983333Y-78518152D02*
X147935714Y-78613390D01*
X147935714Y-78613390D02*
X147888095Y-78661009D01*
X147888095Y-78661009D02*
X147792857Y-78708628D01*
X147792857Y-78708628D02*
X147411905Y-78708628D01*
X148935714Y-79184819D02*
X148364286Y-79184819D01*
X148650000Y-79184819D02*
X148650000Y-78184819D01*
X148650000Y-78184819D02*
X148554762Y-78327676D01*
X148554762Y-78327676D02*
X148459524Y-78422914D01*
X148459524Y-78422914D02*
X148364286Y-78470533D01*
X153304761Y-79184819D02*
X152733333Y-79184819D01*
X153019047Y-79184819D02*
X153019047Y-78184819D01*
X153019047Y-78184819D02*
X152923809Y-78327676D01*
X152923809Y-78327676D02*
X152828571Y-78422914D01*
X152828571Y-78422914D02*
X152733333Y-78470533D01*
X153923809Y-78184819D02*
X154019047Y-78184819D01*
X154019047Y-78184819D02*
X154114285Y-78232438D01*
X154114285Y-78232438D02*
X154161904Y-78280057D01*
X154161904Y-78280057D02*
X154209523Y-78375295D01*
X154209523Y-78375295D02*
X154257142Y-78565771D01*
X154257142Y-78565771D02*
X154257142Y-78803866D01*
X154257142Y-78803866D02*
X154209523Y-78994342D01*
X154209523Y-78994342D02*
X154161904Y-79089580D01*
X154161904Y-79089580D02*
X154114285Y-79137200D01*
X154114285Y-79137200D02*
X154019047Y-79184819D01*
X154019047Y-79184819D02*
X153923809Y-79184819D01*
X153923809Y-79184819D02*
X153828571Y-79137200D01*
X153828571Y-79137200D02*
X153780952Y-79089580D01*
X153780952Y-79089580D02*
X153733333Y-78994342D01*
X153733333Y-78994342D02*
X153685714Y-78803866D01*
X153685714Y-78803866D02*
X153685714Y-78565771D01*
X153685714Y-78565771D02*
X153733333Y-78375295D01*
X153733333Y-78375295D02*
X153780952Y-78280057D01*
X153780952Y-78280057D02*
X153828571Y-78232438D01*
X153828571Y-78232438D02*
X153923809Y-78184819D01*
X154685714Y-79184819D02*
X154685714Y-78184819D01*
X154780952Y-78803866D02*
X155066666Y-79184819D01*
X155066666Y-78518152D02*
X154685714Y-78899104D01*
X151621009Y-129928571D02*
X151668628Y-129785714D01*
X151668628Y-129785714D02*
X151716247Y-129738095D01*
X151716247Y-129738095D02*
X151811485Y-129690476D01*
X151811485Y-129690476D02*
X151954342Y-129690476D01*
X151954342Y-129690476D02*
X152049580Y-129738095D01*
X152049580Y-129738095D02*
X152097200Y-129785714D01*
X152097200Y-129785714D02*
X152144819Y-129880952D01*
X152144819Y-129880952D02*
X152144819Y-130261904D01*
X152144819Y-130261904D02*
X151144819Y-130261904D01*
X151144819Y-130261904D02*
X151144819Y-129928571D01*
X151144819Y-129928571D02*
X151192438Y-129833333D01*
X151192438Y-129833333D02*
X151240057Y-129785714D01*
X151240057Y-129785714D02*
X151335295Y-129738095D01*
X151335295Y-129738095D02*
X151430533Y-129738095D01*
X151430533Y-129738095D02*
X151525771Y-129785714D01*
X151525771Y-129785714D02*
X151573390Y-129833333D01*
X151573390Y-129833333D02*
X151621009Y-129928571D01*
X151621009Y-129928571D02*
X151621009Y-130261904D01*
X151144819Y-129261904D02*
X151954342Y-129261904D01*
X151954342Y-129261904D02*
X152049580Y-129214285D01*
X152049580Y-129214285D02*
X152097200Y-129166666D01*
X152097200Y-129166666D02*
X152144819Y-129071428D01*
X152144819Y-129071428D02*
X152144819Y-128880952D01*
X152144819Y-128880952D02*
X152097200Y-128785714D01*
X152097200Y-128785714D02*
X152049580Y-128738095D01*
X152049580Y-128738095D02*
X151954342Y-128690476D01*
X151954342Y-128690476D02*
X151144819Y-128690476D01*
X152049580Y-127642857D02*
X152097200Y-127690476D01*
X152097200Y-127690476D02*
X152144819Y-127833333D01*
X152144819Y-127833333D02*
X152144819Y-127928571D01*
X152144819Y-127928571D02*
X152097200Y-128071428D01*
X152097200Y-128071428D02*
X152001961Y-128166666D01*
X152001961Y-128166666D02*
X151906723Y-128214285D01*
X151906723Y-128214285D02*
X151716247Y-128261904D01*
X151716247Y-128261904D02*
X151573390Y-128261904D01*
X151573390Y-128261904D02*
X151382914Y-128214285D01*
X151382914Y-128214285D02*
X151287676Y-128166666D01*
X151287676Y-128166666D02*
X151192438Y-128071428D01*
X151192438Y-128071428D02*
X151144819Y-127928571D01*
X151144819Y-127928571D02*
X151144819Y-127833333D01*
X151144819Y-127833333D02*
X151192438Y-127690476D01*
X151192438Y-127690476D02*
X151240057Y-127642857D01*
X152144819Y-127214285D02*
X151144819Y-127214285D01*
X152144819Y-126642857D02*
X151573390Y-127071428D01*
X151144819Y-126642857D02*
X151716247Y-127214285D01*
X151240057Y-126261904D02*
X151192438Y-126214285D01*
X151192438Y-126214285D02*
X151144819Y-126119047D01*
X151144819Y-126119047D02*
X151144819Y-125880952D01*
X151144819Y-125880952D02*
X151192438Y-125785714D01*
X151192438Y-125785714D02*
X151240057Y-125738095D01*
X151240057Y-125738095D02*
X151335295Y-125690476D01*
X151335295Y-125690476D02*
X151430533Y-125690476D01*
X151430533Y-125690476D02*
X151573390Y-125738095D01*
X151573390Y-125738095D02*
X152144819Y-126309523D01*
X152144819Y-126309523D02*
X152144819Y-125690476D01*
X162383866Y-129285713D02*
X162383866Y-128523809D01*
X162764819Y-128904761D02*
X162002914Y-128904761D01*
X161764819Y-127571428D02*
X161764819Y-128047618D01*
X161764819Y-128047618D02*
X162241009Y-128095237D01*
X162241009Y-128095237D02*
X162193390Y-128047618D01*
X162193390Y-128047618D02*
X162145771Y-127952380D01*
X162145771Y-127952380D02*
X162145771Y-127714285D01*
X162145771Y-127714285D02*
X162193390Y-127619047D01*
X162193390Y-127619047D02*
X162241009Y-127571428D01*
X162241009Y-127571428D02*
X162336247Y-127523809D01*
X162336247Y-127523809D02*
X162574342Y-127523809D01*
X162574342Y-127523809D02*
X162669580Y-127571428D01*
X162669580Y-127571428D02*
X162717200Y-127619047D01*
X162717200Y-127619047D02*
X162764819Y-127714285D01*
X162764819Y-127714285D02*
X162764819Y-127952380D01*
X162764819Y-127952380D02*
X162717200Y-128047618D01*
X162717200Y-128047618D02*
X162669580Y-128095237D01*
X161764819Y-127238094D02*
X162764819Y-126904761D01*
X162764819Y-126904761D02*
X161764819Y-126571428D01*
X160166667Y-82327200D02*
X160309524Y-82374819D01*
X160309524Y-82374819D02*
X160547619Y-82374819D01*
X160547619Y-82374819D02*
X160642857Y-82327200D01*
X160642857Y-82327200D02*
X160690476Y-82279580D01*
X160690476Y-82279580D02*
X160738095Y-82184342D01*
X160738095Y-82184342D02*
X160738095Y-82089104D01*
X160738095Y-82089104D02*
X160690476Y-81993866D01*
X160690476Y-81993866D02*
X160642857Y-81946247D01*
X160642857Y-81946247D02*
X160547619Y-81898628D01*
X160547619Y-81898628D02*
X160357143Y-81851009D01*
X160357143Y-81851009D02*
X160261905Y-81803390D01*
X160261905Y-81803390D02*
X160214286Y-81755771D01*
X160214286Y-81755771D02*
X160166667Y-81660533D01*
X160166667Y-81660533D02*
X160166667Y-81565295D01*
X160166667Y-81565295D02*
X160214286Y-81470057D01*
X160214286Y-81470057D02*
X160261905Y-81422438D01*
X160261905Y-81422438D02*
X160357143Y-81374819D01*
X160357143Y-81374819D02*
X160595238Y-81374819D01*
X160595238Y-81374819D02*
X160738095Y-81422438D01*
X161071429Y-81374819D02*
X161309524Y-82374819D01*
X161309524Y-82374819D02*
X161500000Y-81660533D01*
X161500000Y-81660533D02*
X161690476Y-82374819D01*
X161690476Y-82374819D02*
X161928572Y-81374819D01*
X162261905Y-81470057D02*
X162309524Y-81422438D01*
X162309524Y-81422438D02*
X162404762Y-81374819D01*
X162404762Y-81374819D02*
X162642857Y-81374819D01*
X162642857Y-81374819D02*
X162738095Y-81422438D01*
X162738095Y-81422438D02*
X162785714Y-81470057D01*
X162785714Y-81470057D02*
X162833333Y-81565295D01*
X162833333Y-81565295D02*
X162833333Y-81660533D01*
X162833333Y-81660533D02*
X162785714Y-81803390D01*
X162785714Y-81803390D02*
X162214286Y-82374819D01*
X162214286Y-82374819D02*
X162833333Y-82374819D01*
X147098504Y-147648941D02*
X146497425Y-148034827D01*
X146497425Y-148034827D02*
X146351483Y-148071932D01*
X146351483Y-148071932D02*
X146219888Y-148043240D01*
X146219888Y-148043240D02*
X146102639Y-147948750D01*
X146102639Y-147948750D02*
X146051187Y-147868606D01*
X146797234Y-149030692D02*
X146488525Y-148549829D01*
X146642879Y-148790261D02*
X147484390Y-148250020D01*
X147484390Y-148250020D02*
X147312723Y-148247054D01*
X147312723Y-148247054D02*
X147181127Y-148218361D01*
X147181127Y-148218361D02*
X147089604Y-148163943D01*
X147764406Y-148862479D02*
X147830204Y-148876825D01*
X147830204Y-148876825D02*
X147921727Y-148931243D01*
X147921727Y-148931243D02*
X148050356Y-149131603D01*
X148050356Y-149131603D02*
X148061736Y-149237473D01*
X148061736Y-149237473D02*
X148047389Y-149303270D01*
X148047389Y-149303270D02*
X147992971Y-149394794D01*
X147992971Y-149394794D02*
X147912827Y-149446245D01*
X147912827Y-149446245D02*
X147766886Y-149483351D01*
X147766886Y-149483351D02*
X146977314Y-149311196D01*
X146977314Y-149311196D02*
X147311748Y-149832131D01*
X152004819Y-105333333D02*
X152719104Y-105333333D01*
X152719104Y-105333333D02*
X152861961Y-105380952D01*
X152861961Y-105380952D02*
X152957200Y-105476190D01*
X152957200Y-105476190D02*
X153004819Y-105619047D01*
X153004819Y-105619047D02*
X153004819Y-105714285D01*
X152004819Y-104380952D02*
X152004819Y-104857142D01*
X152004819Y-104857142D02*
X152481009Y-104904761D01*
X152481009Y-104904761D02*
X152433390Y-104857142D01*
X152433390Y-104857142D02*
X152385771Y-104761904D01*
X152385771Y-104761904D02*
X152385771Y-104523809D01*
X152385771Y-104523809D02*
X152433390Y-104428571D01*
X152433390Y-104428571D02*
X152481009Y-104380952D01*
X152481009Y-104380952D02*
X152576247Y-104333333D01*
X152576247Y-104333333D02*
X152814342Y-104333333D01*
X152814342Y-104333333D02*
X152909580Y-104380952D01*
X152909580Y-104380952D02*
X152957200Y-104428571D01*
X152957200Y-104428571D02*
X153004819Y-104523809D01*
X153004819Y-104523809D02*
X153004819Y-104761904D01*
X153004819Y-104761904D02*
X152957200Y-104857142D01*
X152957200Y-104857142D02*
X152909580Y-104904761D01*
X124666666Y-105474819D02*
X124666666Y-106189104D01*
X124666666Y-106189104D02*
X124619047Y-106331961D01*
X124619047Y-106331961D02*
X124523809Y-106427200D01*
X124523809Y-106427200D02*
X124380952Y-106474819D01*
X124380952Y-106474819D02*
X124285714Y-106474819D01*
X125571428Y-105808152D02*
X125571428Y-106474819D01*
X125333333Y-105427200D02*
X125095238Y-106141485D01*
X125095238Y-106141485D02*
X125714285Y-106141485D01*
X150454819Y-119311904D02*
X150454819Y-118740476D01*
X151454819Y-119026190D02*
X150454819Y-119026190D01*
X151454819Y-118407142D02*
X150454819Y-118407142D01*
X150454819Y-118407142D02*
X150454819Y-118026190D01*
X150454819Y-118026190D02*
X150502438Y-117930952D01*
X150502438Y-117930952D02*
X150550057Y-117883333D01*
X150550057Y-117883333D02*
X150645295Y-117835714D01*
X150645295Y-117835714D02*
X150788152Y-117835714D01*
X150788152Y-117835714D02*
X150883390Y-117883333D01*
X150883390Y-117883333D02*
X150931009Y-117930952D01*
X150931009Y-117930952D02*
X150978628Y-118026190D01*
X150978628Y-118026190D02*
X150978628Y-118407142D01*
X151454819Y-116883333D02*
X151454819Y-117454761D01*
X151454819Y-117169047D02*
X150454819Y-117169047D01*
X150454819Y-117169047D02*
X150597676Y-117264285D01*
X150597676Y-117264285D02*
X150692914Y-117359523D01*
X150692914Y-117359523D02*
X150740533Y-117454761D01*
X56614819Y-105761904D02*
X57424342Y-105761904D01*
X57424342Y-105761904D02*
X57519580Y-105714285D01*
X57519580Y-105714285D02*
X57567200Y-105666666D01*
X57567200Y-105666666D02*
X57614819Y-105571428D01*
X57614819Y-105571428D02*
X57614819Y-105380952D01*
X57614819Y-105380952D02*
X57567200Y-105285714D01*
X57567200Y-105285714D02*
X57519580Y-105238095D01*
X57519580Y-105238095D02*
X57424342Y-105190476D01*
X57424342Y-105190476D02*
X56614819Y-105190476D01*
X57614819Y-104190476D02*
X57614819Y-104761904D01*
X57614819Y-104476190D02*
X56614819Y-104476190D01*
X56614819Y-104476190D02*
X56757676Y-104571428D01*
X56757676Y-104571428D02*
X56852914Y-104666666D01*
X56852914Y-104666666D02*
X56900533Y-104761904D01*
X45599999Y-107094033D02*
X45599999Y-106394033D01*
X45599999Y-106394033D02*
X45766666Y-106394033D01*
X45766666Y-106394033D02*
X45866666Y-106427366D01*
X45866666Y-106427366D02*
X45933333Y-106494033D01*
X45933333Y-106494033D02*
X45966666Y-106560700D01*
X45966666Y-106560700D02*
X45999999Y-106694033D01*
X45999999Y-106694033D02*
X45999999Y-106794033D01*
X45999999Y-106794033D02*
X45966666Y-106927366D01*
X45966666Y-106927366D02*
X45933333Y-106994033D01*
X45933333Y-106994033D02*
X45866666Y-107060700D01*
X45866666Y-107060700D02*
X45766666Y-107094033D01*
X45766666Y-107094033D02*
X45599999Y-107094033D01*
X46199999Y-106394033D02*
X46433333Y-107094033D01*
X46433333Y-107094033D02*
X46666666Y-106394033D01*
X47233333Y-107094033D02*
X46899999Y-107094033D01*
X46899999Y-107094033D02*
X46899999Y-106394033D01*
X47766666Y-106394033D02*
X47633333Y-106394033D01*
X47633333Y-106394033D02*
X47566666Y-106427366D01*
X47566666Y-106427366D02*
X47533333Y-106460700D01*
X47533333Y-106460700D02*
X47466666Y-106560700D01*
X47466666Y-106560700D02*
X47433333Y-106694033D01*
X47433333Y-106694033D02*
X47433333Y-106960700D01*
X47433333Y-106960700D02*
X47466666Y-107027366D01*
X47466666Y-107027366D02*
X47500000Y-107060700D01*
X47500000Y-107060700D02*
X47566666Y-107094033D01*
X47566666Y-107094033D02*
X47700000Y-107094033D01*
X47700000Y-107094033D02*
X47766666Y-107060700D01*
X47766666Y-107060700D02*
X47800000Y-107027366D01*
X47800000Y-107027366D02*
X47833333Y-106960700D01*
X47833333Y-106960700D02*
X47833333Y-106794033D01*
X47833333Y-106794033D02*
X47800000Y-106727366D01*
X47800000Y-106727366D02*
X47766666Y-106694033D01*
X47766666Y-106694033D02*
X47700000Y-106660700D01*
X47700000Y-106660700D02*
X47566666Y-106660700D01*
X47566666Y-106660700D02*
X47500000Y-106694033D01*
X47500000Y-106694033D02*
X47466666Y-106727366D01*
X47466666Y-106727366D02*
X47433333Y-106794033D01*
X48100000Y-106894033D02*
X48433333Y-106894033D01*
X48033333Y-107094033D02*
X48266667Y-106394033D01*
X48266667Y-106394033D02*
X48500000Y-107094033D01*
X43916666Y-105570033D02*
X43916666Y-104870033D01*
X43916666Y-104870033D02*
X44150000Y-105370033D01*
X44150000Y-105370033D02*
X44383333Y-104870033D01*
X44383333Y-104870033D02*
X44383333Y-105570033D01*
X44716666Y-105570033D02*
X44716666Y-104870033D01*
X45049999Y-105570033D02*
X45049999Y-104870033D01*
X45049999Y-104870033D02*
X45283333Y-105370033D01*
X45283333Y-105370033D02*
X45516666Y-104870033D01*
X45516666Y-104870033D02*
X45516666Y-105570033D01*
X45783333Y-104870033D02*
X46249999Y-105570033D01*
X46249999Y-104870033D02*
X45783333Y-105570033D01*
X46916666Y-105570033D02*
X46683333Y-105236700D01*
X46516666Y-105570033D02*
X46516666Y-104870033D01*
X46516666Y-104870033D02*
X46783333Y-104870033D01*
X46783333Y-104870033D02*
X46850000Y-104903366D01*
X46850000Y-104903366D02*
X46883333Y-104936700D01*
X46883333Y-104936700D02*
X46916666Y-105003366D01*
X46916666Y-105003366D02*
X46916666Y-105103366D01*
X46916666Y-105103366D02*
X46883333Y-105170033D01*
X46883333Y-105170033D02*
X46850000Y-105203366D01*
X46850000Y-105203366D02*
X46783333Y-105236700D01*
X46783333Y-105236700D02*
X46516666Y-105236700D01*
X47116666Y-104870033D02*
X47516666Y-104870033D01*
X47316666Y-105570033D02*
X47316666Y-104870033D01*
X48116666Y-105570033D02*
X47716666Y-105570033D01*
X47916666Y-105570033D02*
X47916666Y-104870033D01*
X47916666Y-104870033D02*
X47849999Y-104970033D01*
X47849999Y-104970033D02*
X47783333Y-105036700D01*
X47783333Y-105036700D02*
X47716666Y-105070033D01*
X48550000Y-104870033D02*
X48616666Y-104870033D01*
X48616666Y-104870033D02*
X48683333Y-104903366D01*
X48683333Y-104903366D02*
X48716666Y-104936700D01*
X48716666Y-104936700D02*
X48750000Y-105003366D01*
X48750000Y-105003366D02*
X48783333Y-105136700D01*
X48783333Y-105136700D02*
X48783333Y-105303366D01*
X48783333Y-105303366D02*
X48750000Y-105436700D01*
X48750000Y-105436700D02*
X48716666Y-105503366D01*
X48716666Y-105503366D02*
X48683333Y-105536700D01*
X48683333Y-105536700D02*
X48616666Y-105570033D01*
X48616666Y-105570033D02*
X48550000Y-105570033D01*
X48550000Y-105570033D02*
X48483333Y-105536700D01*
X48483333Y-105536700D02*
X48450000Y-105503366D01*
X48450000Y-105503366D02*
X48416666Y-105436700D01*
X48416666Y-105436700D02*
X48383333Y-105303366D01*
X48383333Y-105303366D02*
X48383333Y-105136700D01*
X48383333Y-105136700D02*
X48416666Y-105003366D01*
X48416666Y-105003366D02*
X48450000Y-104936700D01*
X48450000Y-104936700D02*
X48483333Y-104903366D01*
X48483333Y-104903366D02*
X48550000Y-104870033D01*
X49383333Y-104870033D02*
X49250000Y-104870033D01*
X49250000Y-104870033D02*
X49183333Y-104903366D01*
X49183333Y-104903366D02*
X49150000Y-104936700D01*
X49150000Y-104936700D02*
X49083333Y-105036700D01*
X49083333Y-105036700D02*
X49050000Y-105170033D01*
X49050000Y-105170033D02*
X49050000Y-105436700D01*
X49050000Y-105436700D02*
X49083333Y-105503366D01*
X49083333Y-105503366D02*
X49116667Y-105536700D01*
X49116667Y-105536700D02*
X49183333Y-105570033D01*
X49183333Y-105570033D02*
X49316667Y-105570033D01*
X49316667Y-105570033D02*
X49383333Y-105536700D01*
X49383333Y-105536700D02*
X49416667Y-105503366D01*
X49416667Y-105503366D02*
X49450000Y-105436700D01*
X49450000Y-105436700D02*
X49450000Y-105270033D01*
X49450000Y-105270033D02*
X49416667Y-105203366D01*
X49416667Y-105203366D02*
X49383333Y-105170033D01*
X49383333Y-105170033D02*
X49316667Y-105136700D01*
X49316667Y-105136700D02*
X49183333Y-105136700D01*
X49183333Y-105136700D02*
X49116667Y-105170033D01*
X49116667Y-105170033D02*
X49083333Y-105203366D01*
X49083333Y-105203366D02*
X49050000Y-105270033D01*
X49716667Y-104936700D02*
X49750000Y-104903366D01*
X49750000Y-104903366D02*
X49816667Y-104870033D01*
X49816667Y-104870033D02*
X49983334Y-104870033D01*
X49983334Y-104870033D02*
X50050000Y-104903366D01*
X50050000Y-104903366D02*
X50083334Y-104936700D01*
X50083334Y-104936700D02*
X50116667Y-105003366D01*
X50116667Y-105003366D02*
X50116667Y-105070033D01*
X50116667Y-105070033D02*
X50083334Y-105170033D01*
X50083334Y-105170033D02*
X49683334Y-105570033D01*
X49683334Y-105570033D02*
X50116667Y-105570033D01*
X124666666Y-103434819D02*
X124666666Y-104149104D01*
X124666666Y-104149104D02*
X124619047Y-104291961D01*
X124619047Y-104291961D02*
X124523809Y-104387200D01*
X124523809Y-104387200D02*
X124380952Y-104434819D01*
X124380952Y-104434819D02*
X124285714Y-104434819D01*
X125095238Y-103530057D02*
X125142857Y-103482438D01*
X125142857Y-103482438D02*
X125238095Y-103434819D01*
X125238095Y-103434819D02*
X125476190Y-103434819D01*
X125476190Y-103434819D02*
X125571428Y-103482438D01*
X125571428Y-103482438D02*
X125619047Y-103530057D01*
X125619047Y-103530057D02*
X125666666Y-103625295D01*
X125666666Y-103625295D02*
X125666666Y-103720533D01*
X125666666Y-103720533D02*
X125619047Y-103863390D01*
X125619047Y-103863390D02*
X125047619Y-104434819D01*
X125047619Y-104434819D02*
X125666666Y-104434819D01*
D10*
%TO.C,U4*%
X123750000Y-173370000D02*
X123750000Y-156370000D01*
X121750000Y-154370000D02*
X108250000Y-154370000D01*
X119500000Y-176870000D02*
X110500000Y-176870000D01*
X119500000Y-175370000D02*
X121750000Y-175370000D01*
X119500000Y-169570000D02*
X119500000Y-176870000D01*
X115000000Y-176870000D02*
X119500000Y-176870000D01*
X110500000Y-176870000D02*
X110500000Y-169570000D01*
X110500000Y-169570000D02*
X119500000Y-169570000D01*
X108250000Y-175370000D02*
X110500000Y-175370000D01*
X106250000Y-156370000D02*
X106250000Y-173370000D01*
X121750000Y-175370000D02*
G75*
G03*
X123750000Y-173370000I1J1999999D01*
G01*
X123750000Y-156370000D02*
G75*
G03*
X121750000Y-154370000I-1999999J1D01*
G01*
X106250000Y-173370000D02*
G75*
G03*
X108250000Y-175370000I2000000J0D01*
G01*
X108250000Y-154370000D02*
G75*
G03*
X106250000Y-156370000I0J-2000000D01*
G01*
D15*
%TO.C,DRIBBLERJ1*%
X62730000Y-108855000D02*
X61400000Y-108855000D01*
X62730000Y-107525000D02*
X62730000Y-108855000D01*
X62730000Y-106255000D02*
X62730000Y-101115000D01*
X62730000Y-106255000D02*
X60070000Y-106255000D01*
X62730000Y-101115000D02*
X60070000Y-101115000D01*
X60070000Y-106255000D02*
X60070000Y-101115000D01*
%TO.C,R3*%
X150587742Y-73207500D02*
X151062258Y-73207500D01*
X150587742Y-74252500D02*
X151062258Y-74252500D01*
%TO.C,U5*%
X94000000Y-103440000D02*
X92200000Y-103440000D01*
X94000000Y-103440000D02*
X94800000Y-103440000D01*
X94000000Y-106560000D02*
X93200000Y-106560000D01*
X94000000Y-106560000D02*
X94800000Y-106560000D01*
%TO.C,R6*%
X99312258Y-162852500D02*
X98837742Y-162852500D01*
X99312258Y-161807500D02*
X98837742Y-161807500D01*
%TO.C,G\u002A\u002A\u002A*%
G36*
X104138338Y-76968289D02*
G01*
X104227663Y-76976769D01*
X104316153Y-76992585D01*
X104403224Y-77015673D01*
X104488286Y-77045967D01*
X104570754Y-77083403D01*
X104650041Y-77127917D01*
X104678098Y-77145932D01*
X104748904Y-77197164D01*
X104813564Y-77252492D01*
X104871828Y-77311563D01*
X104923443Y-77374022D01*
X104968159Y-77439517D01*
X105005724Y-77507692D01*
X105035887Y-77578195D01*
X105058397Y-77650671D01*
X105068125Y-77694963D01*
X105070984Y-77715746D01*
X105073175Y-77742549D01*
X105074680Y-77773468D01*
X105075484Y-77806600D01*
X105075571Y-77840040D01*
X105074923Y-77871886D01*
X105073525Y-77900233D01*
X105071359Y-77923177D01*
X105070165Y-77931036D01*
X105053013Y-78008311D01*
X105029513Y-78082592D01*
X104999116Y-78155367D01*
X104961274Y-78228120D01*
X104958685Y-78232637D01*
X104940285Y-78263759D01*
X104920992Y-78294659D01*
X104900327Y-78325967D01*
X104877813Y-78358311D01*
X104852973Y-78392323D01*
X104825329Y-78428630D01*
X104794403Y-78467862D01*
X104759718Y-78510648D01*
X104720795Y-78557617D01*
X104677159Y-78609399D01*
X104636739Y-78656809D01*
X104582180Y-78721447D01*
X104533404Y-78781313D01*
X104490059Y-78837044D01*
X104451794Y-78889276D01*
X104418257Y-78938643D01*
X104389097Y-78985783D01*
X104363961Y-79031331D01*
X104342498Y-79075923D01*
X104324356Y-79120194D01*
X104309183Y-79164781D01*
X104296629Y-79210320D01*
X104286340Y-79257446D01*
X104278249Y-79304893D01*
X104274476Y-79337105D01*
X104271713Y-79375510D01*
X104269956Y-79418246D01*
X104269201Y-79463451D01*
X104269446Y-79509260D01*
X104270686Y-79553811D01*
X104272919Y-79595241D01*
X104276140Y-79631687D01*
X104278904Y-79652743D01*
X104281174Y-79667350D01*
X104367656Y-79672078D01*
X104474908Y-79680735D01*
X104576749Y-79694802D01*
X104674092Y-79714512D01*
X104767854Y-79740096D01*
X104858950Y-79771786D01*
X104948297Y-79809812D01*
X104987734Y-79828833D01*
X105028580Y-79849988D01*
X105067417Y-79871771D01*
X105105352Y-79894943D01*
X105143491Y-79920266D01*
X105182942Y-79948502D01*
X105224811Y-79980414D01*
X105270205Y-80016762D01*
X105316386Y-80055074D01*
X105362387Y-80093590D01*
X105402953Y-80127164D01*
X105438761Y-80156291D01*
X105470485Y-80181461D01*
X105498804Y-80203169D01*
X105524392Y-80221907D01*
X105547926Y-80238167D01*
X105570083Y-80252443D01*
X105591538Y-80265228D01*
X105612968Y-80277013D01*
X105635049Y-80288292D01*
X105639306Y-80290385D01*
X105709396Y-80320218D01*
X105783681Y-80343355D01*
X105861566Y-80359729D01*
X105942453Y-80369270D01*
X106025745Y-80371909D01*
X106110845Y-80367578D01*
X106197157Y-80356208D01*
X106202125Y-80355342D01*
X106308999Y-80332423D01*
X106414097Y-80301704D01*
X106517552Y-80263128D01*
X106619493Y-80216639D01*
X106720052Y-80162179D01*
X106819360Y-80099693D01*
X106862476Y-80069796D01*
X106906511Y-80039565D01*
X106946189Y-80014980D01*
X106982585Y-79995577D01*
X107016772Y-79980889D01*
X107049826Y-79970449D01*
X107082819Y-79963790D01*
X107113941Y-79960609D01*
X107159024Y-79961241D01*
X107201170Y-79968911D01*
X107241012Y-79983881D01*
X107279178Y-80006410D01*
X107316300Y-80036761D01*
X107329593Y-80049716D01*
X107354316Y-80076528D01*
X107375521Y-80103619D01*
X107394972Y-80133481D01*
X107414433Y-80168601D01*
X107416053Y-80171732D01*
X107445485Y-80236425D01*
X107468678Y-80304285D01*
X107485625Y-80375502D01*
X107496316Y-80450266D01*
X107500744Y-80528767D01*
X107498899Y-80611196D01*
X107490774Y-80697743D01*
X107476360Y-80788597D01*
X107455649Y-80883950D01*
X107428632Y-80983991D01*
X107395301Y-81088910D01*
X107372714Y-81153058D01*
X107317267Y-81293505D01*
X107254543Y-81430535D01*
X107184781Y-81563861D01*
X107108221Y-81693193D01*
X107025102Y-81818242D01*
X106935663Y-81938719D01*
X106840144Y-82054335D01*
X106738783Y-82164800D01*
X106631821Y-82269827D01*
X106519497Y-82369125D01*
X106402049Y-82462406D01*
X106279718Y-82549381D01*
X106152742Y-82629760D01*
X106147690Y-82632763D01*
X106017932Y-82705166D01*
X105884594Y-82770735D01*
X105748170Y-82829335D01*
X105609154Y-82880828D01*
X105468039Y-82925081D01*
X105325318Y-82961957D01*
X105181486Y-82991320D01*
X105037035Y-83013035D01*
X104892459Y-83026966D01*
X104748251Y-83032977D01*
X104691291Y-83033138D01*
X104663975Y-83032863D01*
X104637964Y-83032513D01*
X104614906Y-83032118D01*
X104596452Y-83031707D01*
X104584250Y-83031309D01*
X104582936Y-83031245D01*
X104432682Y-83019719D01*
X104285853Y-83001057D01*
X104142582Y-82975305D01*
X104002998Y-82942508D01*
X103867233Y-82902709D01*
X103735415Y-82855955D01*
X103607677Y-82802288D01*
X103484149Y-82741755D01*
X103364961Y-82674400D01*
X103250243Y-82600267D01*
X103182401Y-82551651D01*
X103085539Y-82475330D01*
X102995812Y-82395968D01*
X102913309Y-82313694D01*
X102838117Y-82228633D01*
X102770325Y-82140911D01*
X102710023Y-82050656D01*
X102657298Y-81957993D01*
X102612239Y-81863049D01*
X102574934Y-81765950D01*
X102545473Y-81666823D01*
X102536534Y-81629462D01*
X102528858Y-81594145D01*
X102522673Y-81562872D01*
X102517823Y-81534055D01*
X102514152Y-81506107D01*
X102511504Y-81477440D01*
X102509723Y-81446468D01*
X102508655Y-81411603D01*
X102508142Y-81371258D01*
X102508030Y-81339101D01*
X102508088Y-81297892D01*
X102508432Y-81263276D01*
X102509185Y-81233671D01*
X102510472Y-81207493D01*
X102512418Y-81183162D01*
X102515147Y-81159092D01*
X102518784Y-81133703D01*
X102523453Y-81105411D01*
X102528783Y-81075370D01*
X102551205Y-80973330D01*
X102581406Y-80871254D01*
X102619025Y-80769892D01*
X102663701Y-80669995D01*
X102715073Y-80572316D01*
X102772781Y-80477604D01*
X102836463Y-80386613D01*
X102895159Y-80312591D01*
X102911081Y-80291810D01*
X102930170Y-80263646D01*
X102952351Y-80228223D01*
X102977551Y-80185665D01*
X103005696Y-80136099D01*
X103036711Y-80079647D01*
X103064162Y-80028441D01*
X103123723Y-79911842D01*
X103176476Y-79799152D01*
X103222562Y-79689964D01*
X103262118Y-79583868D01*
X103295283Y-79480456D01*
X103322195Y-79379321D01*
X103342994Y-79280053D01*
X103357817Y-79182246D01*
X103361069Y-79153606D01*
X103363021Y-79128965D01*
X103364466Y-79098318D01*
X103365404Y-79063490D01*
X103365836Y-79026309D01*
X103365764Y-78988601D01*
X103365186Y-78952191D01*
X103364105Y-78918907D01*
X103362519Y-78890574D01*
X103360983Y-78873519D01*
X103355016Y-78827696D01*
X103347555Y-78783692D01*
X103338254Y-78740362D01*
X103326766Y-78696559D01*
X103312744Y-78651139D01*
X103295842Y-78602955D01*
X103275713Y-78550863D01*
X103252010Y-78493718D01*
X103232306Y-78448277D01*
X103219192Y-78418324D01*
X103206297Y-78388582D01*
X103194249Y-78360523D01*
X103183678Y-78335620D01*
X103175212Y-78315345D01*
X103169770Y-78301906D01*
X103154022Y-78261845D01*
X103098751Y-78225909D01*
X103022312Y-78177769D01*
X102942463Y-78130393D01*
X102861617Y-78085142D01*
X102782189Y-78043375D01*
X102723848Y-78014604D01*
X102700418Y-78003275D01*
X102683186Y-77994483D01*
X102670889Y-77987424D01*
X102662261Y-77981290D01*
X102656038Y-77975275D01*
X102650957Y-77968572D01*
X102650412Y-77967756D01*
X102642565Y-77952922D01*
X102638533Y-77936428D01*
X102637506Y-77925449D01*
X102639330Y-77899237D01*
X102648197Y-77877180D01*
X102664112Y-77859267D01*
X102673756Y-77852445D01*
X102681701Y-77848756D01*
X102696924Y-77842884D01*
X102718878Y-77835016D01*
X102747014Y-77825337D01*
X102761813Y-77820384D01*
X103777742Y-77820384D01*
X103777902Y-77837910D01*
X103778440Y-77850709D01*
X103779436Y-77859930D01*
X103780968Y-77866722D01*
X103783114Y-77872237D01*
X103785842Y-77877422D01*
X103799146Y-77893588D01*
X103816925Y-77904769D01*
X103837150Y-77910444D01*
X103857793Y-77910098D01*
X103876825Y-77903210D01*
X103879694Y-77901392D01*
X103888924Y-77894921D01*
X103896086Y-77888866D01*
X103901459Y-77882119D01*
X103905320Y-77873570D01*
X103907947Y-77862111D01*
X103909617Y-77846634D01*
X103910608Y-77826031D01*
X103911198Y-77799192D01*
X103911545Y-77774234D01*
X103911913Y-77743976D01*
X103912077Y-77720767D01*
X103911951Y-77703477D01*
X103911451Y-77690977D01*
X103910489Y-77682138D01*
X103908980Y-77675832D01*
X103906839Y-77670929D01*
X103903980Y-77666301D01*
X103903270Y-77665243D01*
X103887036Y-77647516D01*
X103867444Y-77636337D01*
X103845958Y-77632089D01*
X103824043Y-77635156D01*
X103810699Y-77641004D01*
X103801346Y-77646529D01*
X103794075Y-77651896D01*
X103788606Y-77658178D01*
X103784664Y-77666446D01*
X103781969Y-77677774D01*
X103780247Y-77693236D01*
X103779217Y-77713902D01*
X103778605Y-77740848D01*
X103778242Y-77766550D01*
X103777882Y-77796981D01*
X103777742Y-77820384D01*
X102761813Y-77820384D01*
X102780784Y-77814035D01*
X102819640Y-77801294D01*
X102863033Y-77787301D01*
X102906382Y-77773515D01*
X102946544Y-77760801D01*
X102984323Y-77748799D01*
X103019006Y-77737740D01*
X103049883Y-77727851D01*
X103076239Y-77719362D01*
X103097365Y-77712502D01*
X103112549Y-77707500D01*
X103121077Y-77704585D01*
X103122708Y-77703929D01*
X103124549Y-77699619D01*
X103128436Y-77688934D01*
X103133878Y-77673272D01*
X103140383Y-77654033D01*
X103143773Y-77643837D01*
X103175445Y-77559655D01*
X103213173Y-77480707D01*
X103257378Y-77406310D01*
X103308478Y-77335778D01*
X103366890Y-77268426D01*
X103383991Y-77250676D01*
X103447554Y-77191176D01*
X103513763Y-77139247D01*
X103583073Y-77094585D01*
X103655941Y-77056881D01*
X103699743Y-77038188D01*
X103784435Y-77009019D01*
X103871227Y-76987509D01*
X103959533Y-76973594D01*
X104048766Y-76967209D01*
X104138338Y-76968289D01*
G37*
D10*
%TO.C,U3*%
X103750000Y-173370000D02*
X103750000Y-156370000D01*
X101750000Y-154370000D02*
X88250000Y-154370000D01*
X99500000Y-176870000D02*
X90500000Y-176870000D01*
X99500000Y-175370000D02*
X101750000Y-175370000D01*
X99500000Y-169570000D02*
X99500000Y-176870000D01*
X95000000Y-176870000D02*
X99500000Y-176870000D01*
X90500000Y-176870000D02*
X90500000Y-169570000D01*
X90500000Y-169570000D02*
X99500000Y-169570000D01*
X88250000Y-175370000D02*
X90500000Y-175370000D01*
X86250000Y-156370000D02*
X86250000Y-173370000D01*
X101750000Y-175370000D02*
G75*
G03*
X103750000Y-173370000I1J1999999D01*
G01*
X103750000Y-156370000D02*
G75*
G03*
X101750000Y-154370000I-1999999J1D01*
G01*
X86250000Y-173370000D02*
G75*
G03*
X88250000Y-175370000I2000000J0D01*
G01*
X88250000Y-154370000D02*
G75*
G03*
X86250000Y-156370000I0J-2000000D01*
G01*
D15*
%TO.C,R4*%
X150587742Y-70667500D02*
X151062258Y-70667500D01*
X150587742Y-71712500D02*
X151062258Y-71712500D01*
%TO.C,J8*%
X75871790Y-163086147D02*
X76839528Y-163707423D01*
X76839528Y-163707423D02*
X77406780Y-162823837D01*
X77406780Y-162823837D02*
X78239876Y-163358675D01*
X74846095Y-161037306D02*
X76942228Y-157772244D01*
X79232085Y-157851950D02*
X80199822Y-158473226D01*
X80199822Y-158473226D02*
X79632570Y-159356813D01*
%TO.C,J1*%
X88610000Y-101785000D02*
X87560000Y-101785000D01*
X88610000Y-99285000D02*
X88610000Y-101785000D01*
X87560000Y-101785000D02*
X87560000Y-102775000D01*
X87440000Y-97315000D02*
X82560000Y-97315000D01*
X81390000Y-101785000D02*
X82440000Y-101785000D01*
X81390000Y-99285000D02*
X81390000Y-101785000D01*
%TO.C,J7*%
X134232391Y-151015434D02*
X132885974Y-151879818D01*
X132885974Y-151879818D02*
X133858406Y-153394538D01*
X137333632Y-150533663D02*
X141887858Y-157627599D01*
X133858406Y-153394538D02*
X133067386Y-153902364D01*
X140158827Y-160246807D02*
X138812410Y-161111192D01*
X138812410Y-161111192D02*
X137839978Y-159596472D01*
%TO.C,J3*%
X81390000Y-108215000D02*
X82440000Y-108215000D01*
X81390000Y-110715000D02*
X81390000Y-108215000D01*
X82440000Y-108215000D02*
X82440000Y-107225000D01*
X82560000Y-112685000D02*
X87440000Y-112685000D01*
X88610000Y-108215000D02*
X87560000Y-108215000D01*
X88610000Y-110715000D02*
X88610000Y-108215000D01*
%TO.C,R7*%
X99312258Y-160312500D02*
X98837742Y-160312500D01*
X99312258Y-159267500D02*
X98837742Y-159267500D01*
%TO.C,R2*%
X150587742Y-75747500D02*
X151062258Y-75747500D01*
X150587742Y-76792500D02*
X151062258Y-76792500D01*
%TO.C,J6*%
X69841173Y-160246807D02*
X71187590Y-161111192D01*
X71187590Y-161111192D02*
X72160022Y-159596472D01*
X68112142Y-157627599D02*
X72666368Y-150533663D01*
X72160022Y-159596472D02*
X72951043Y-160104298D01*
X75767609Y-151015434D02*
X77114026Y-151879818D01*
X77114026Y-151879818D02*
X76141594Y-153394538D01*
D10*
%TO.C,SW1*%
X53350000Y-68650000D02*
X46650000Y-68650000D01*
X46650000Y-68650000D02*
X46650000Y-81350000D01*
X46650000Y-81350000D02*
X53350000Y-81350000D01*
X53350000Y-81350000D02*
X53350000Y-68650000D01*
D15*
%TO.C,U6*%
X115000000Y-103440000D02*
X113200000Y-103440000D01*
X115000000Y-103440000D02*
X115800000Y-103440000D01*
X115000000Y-106560000D02*
X114200000Y-106560000D01*
X115000000Y-106560000D02*
X115800000Y-106560000D01*
%TO.C,R5*%
X77877500Y-107662258D02*
X77877500Y-107187742D01*
X78922500Y-107662258D02*
X78922500Y-107187742D01*
D14*
%TO.C,U2*%
X166810000Y-85950000D02*
X166810000Y-87220000D01*
X159190000Y-85950000D02*
X166810000Y-85950000D01*
X171890000Y-87220000D02*
X171890000Y-122780000D01*
X166810000Y-87220000D02*
X171890000Y-87220000D01*
X159190000Y-87220000D02*
X159190000Y-85950000D01*
X154110000Y-87220000D02*
X159190000Y-87220000D01*
X166810000Y-92300000D02*
X166810000Y-87220000D01*
X159190000Y-92300000D02*
X159190000Y-87220000D01*
X159190000Y-92300000D02*
X166810000Y-92300000D01*
X168080000Y-99285000D02*
X157920000Y-99285000D01*
X168080000Y-109445000D02*
X168080000Y-99285000D01*
X157920000Y-109445000D02*
X157920000Y-99285000D01*
X157920000Y-109445000D02*
X168080000Y-109445000D01*
X168080000Y-110080000D02*
X168080000Y-112620000D01*
X164905000Y-110080000D02*
X168080000Y-110080000D01*
X168080000Y-112620000D02*
X164905000Y-112620000D01*
X164905000Y-112620000D02*
X164905000Y-110080000D01*
X164270000Y-115160000D02*
X161730000Y-115160000D01*
X164270000Y-115160000D02*
X164270000Y-119732000D01*
X164270000Y-119732000D02*
X161730000Y-119732000D01*
X161730000Y-119732000D02*
X161730000Y-115160000D01*
X171890000Y-122780000D02*
X154110000Y-122780000D01*
X154110000Y-122780000D02*
X154110000Y-87220000D01*
D16*
X163127000Y-101317000D02*
X162746000Y-101571000D01*
X162492000Y-101317000D01*
X162873000Y-101063000D01*
X163127000Y-101317000D01*
G36*
X163127000Y-101317000D02*
G01*
X162746000Y-101571000D01*
X162492000Y-101317000D01*
X162873000Y-101063000D01*
X163127000Y-101317000D01*
G37*
X163508000Y-101698000D02*
X163127000Y-101952000D01*
X162873000Y-101698000D01*
X163254000Y-101444000D01*
X163508000Y-101698000D01*
G36*
X163508000Y-101698000D02*
G01*
X163127000Y-101952000D01*
X162873000Y-101698000D01*
X163254000Y-101444000D01*
X163508000Y-101698000D01*
G37*
X163889000Y-102079000D02*
X163508000Y-102333000D01*
X163254000Y-102079000D01*
X163635000Y-101825000D01*
X163889000Y-102079000D01*
G36*
X163889000Y-102079000D02*
G01*
X163508000Y-102333000D01*
X163254000Y-102079000D01*
X163635000Y-101825000D01*
X163889000Y-102079000D01*
G37*
X163381000Y-102460000D02*
X163000000Y-102714000D01*
X162746000Y-102460000D01*
X163127000Y-102206000D01*
X163381000Y-102460000D01*
G36*
X163381000Y-102460000D02*
G01*
X163000000Y-102714000D01*
X162746000Y-102460000D01*
X163127000Y-102206000D01*
X163381000Y-102460000D01*
G37*
X163762000Y-102841000D02*
X163381000Y-103095000D01*
X163127000Y-102841000D01*
X163508000Y-102587000D01*
X163762000Y-102841000D01*
G36*
X163762000Y-102841000D02*
G01*
X163381000Y-103095000D01*
X163127000Y-102841000D01*
X163508000Y-102587000D01*
X163762000Y-102841000D01*
G37*
X162873000Y-102841000D02*
X162492000Y-103095000D01*
X162238000Y-102841000D01*
X162619000Y-102587000D01*
X162873000Y-102841000D01*
G36*
X162873000Y-102841000D02*
G01*
X162492000Y-103095000D01*
X162238000Y-102841000D01*
X162619000Y-102587000D01*
X162873000Y-102841000D01*
G37*
X163254000Y-103222000D02*
X162873000Y-103476000D01*
X162619000Y-103222000D01*
X163000000Y-102968000D01*
X163254000Y-103222000D01*
G36*
X163254000Y-103222000D02*
G01*
X162873000Y-103476000D01*
X162619000Y-103222000D01*
X163000000Y-102968000D01*
X163254000Y-103222000D01*
G37*
X162746000Y-103603000D02*
X162365000Y-103857000D01*
X162111000Y-103603000D01*
X162492000Y-103349000D01*
X162746000Y-103603000D01*
G36*
X162746000Y-103603000D02*
G01*
X162365000Y-103857000D01*
X162111000Y-103603000D01*
X162492000Y-103349000D01*
X162746000Y-103603000D01*
G37*
D15*
%TO.C,BUCK1*%
X51745000Y-129040000D02*
X56885000Y-129040000D01*
X51745000Y-129040000D02*
X51745000Y-126380000D01*
X56885000Y-129040000D02*
X56885000Y-126380000D01*
X49145000Y-127710000D02*
X49145000Y-126380000D01*
X49145000Y-126380000D02*
X50475000Y-126380000D01*
X51745000Y-126380000D02*
X56885000Y-126380000D01*
%TO.C,R1*%
X150587742Y-78287500D02*
X151062258Y-78287500D01*
X150587742Y-79332500D02*
X151062258Y-79332500D01*
%TO.C,BUCK2*%
X155730000Y-129330000D02*
X160870000Y-129330000D01*
X155730000Y-129330000D02*
X155730000Y-126670000D01*
X160870000Y-129330000D02*
X160870000Y-126670000D01*
X153130000Y-128000000D02*
X153130000Y-126670000D01*
X153130000Y-126670000D02*
X154460000Y-126670000D01*
X155730000Y-126670000D02*
X160870000Y-126670000D01*
%TO.C,SW2*%
X165150000Y-81160000D02*
X165150000Y-79777000D01*
X165150000Y-81160000D02*
X163767000Y-81160000D01*
X164910000Y-80920000D02*
X164910000Y-79610000D01*
X164910000Y-80920000D02*
X158090000Y-80920000D01*
X164910000Y-78010000D02*
X164910000Y-77070000D01*
X164910000Y-75470000D02*
X164910000Y-74530000D01*
X164910000Y-72930000D02*
X164910000Y-71990000D01*
X164910000Y-70390000D02*
X164910000Y-69080000D01*
X164910000Y-69080000D02*
X158090000Y-69080000D01*
X163310000Y-79445000D02*
X163310000Y-78175000D01*
X163310000Y-79325000D02*
X162103333Y-79325000D01*
X163310000Y-79205000D02*
X162103333Y-79205000D01*
X163310000Y-79085000D02*
X162103333Y-79085000D01*
X163310000Y-78965000D02*
X162103333Y-78965000D01*
X163310000Y-78845000D02*
X162103333Y-78845000D01*
X163310000Y-78725000D02*
X162103333Y-78725000D01*
X163310000Y-78605000D02*
X162103333Y-78605000D01*
X163310000Y-78485000D02*
X162103333Y-78485000D01*
X163310000Y-78365000D02*
X162103333Y-78365000D01*
X163310000Y-78245000D02*
X162103333Y-78245000D01*
X163310000Y-78175000D02*
X159690000Y-78175000D01*
X163310000Y-76905000D02*
X163310000Y-75635000D01*
X163310000Y-76785000D02*
X162103333Y-76785000D01*
X163310000Y-76665000D02*
X162103333Y-76665000D01*
X163310000Y-76545000D02*
X162103333Y-76545000D01*
X163310000Y-76425000D02*
X162103333Y-76425000D01*
X163310000Y-76305000D02*
X162103333Y-76305000D01*
X163310000Y-76185000D02*
X162103333Y-76185000D01*
X163310000Y-76065000D02*
X162103333Y-76065000D01*
X163310000Y-75945000D02*
X162103333Y-75945000D01*
X163310000Y-75825000D02*
X162103333Y-75825000D01*
X163310000Y-75705000D02*
X162103333Y-75705000D01*
X163310000Y-75635000D02*
X159690000Y-75635000D01*
X163310000Y-74365000D02*
X163310000Y-73095000D01*
X163310000Y-74245000D02*
X162103333Y-74245000D01*
X163310000Y-74125000D02*
X162103333Y-74125000D01*
X163310000Y-74005000D02*
X162103333Y-74005000D01*
X163310000Y-73885000D02*
X162103333Y-73885000D01*
X163310000Y-73765000D02*
X162103333Y-73765000D01*
X163310000Y-73645000D02*
X162103333Y-73645000D01*
X163310000Y-73525000D02*
X162103333Y-73525000D01*
X163310000Y-73405000D02*
X162103333Y-73405000D01*
X163310000Y-73285000D02*
X162103333Y-73285000D01*
X163310000Y-73165000D02*
X162103333Y-73165000D01*
X163310000Y-73095000D02*
X159690000Y-73095000D01*
X163310000Y-71825000D02*
X163310000Y-70555000D01*
X163310000Y-71705000D02*
X162103333Y-71705000D01*
X163310000Y-71585000D02*
X162103333Y-71585000D01*
X163310000Y-71465000D02*
X162103333Y-71465000D01*
X163310000Y-71345000D02*
X162103333Y-71345000D01*
X163310000Y-71225000D02*
X162103333Y-71225000D01*
X163310000Y-71105000D02*
X162103333Y-71105000D01*
X163310000Y-70985000D02*
X162103333Y-70985000D01*
X163310000Y-70865000D02*
X162103333Y-70865000D01*
X163310000Y-70745000D02*
X162103333Y-70745000D01*
X163310000Y-70625000D02*
X162103333Y-70625000D01*
X163310000Y-70555000D02*
X159690000Y-70555000D01*
X162103333Y-79445000D02*
X162103333Y-78175000D01*
X162103333Y-76905000D02*
X162103333Y-75635000D01*
X162103333Y-74365000D02*
X162103333Y-73095000D01*
X162103333Y-71825000D02*
X162103333Y-70555000D01*
X159690000Y-79445000D02*
X163310000Y-79445000D01*
X159690000Y-78175000D02*
X159690000Y-79445000D01*
X159690000Y-76905000D02*
X163310000Y-76905000D01*
X159690000Y-75635000D02*
X159690000Y-76905000D01*
X159690000Y-74365000D02*
X163310000Y-74365000D01*
X159690000Y-73095000D02*
X159690000Y-74365000D01*
X159690000Y-71825000D02*
X163310000Y-71825000D01*
X159690000Y-70555000D02*
X159690000Y-71825000D01*
X158090000Y-80920000D02*
X158090000Y-79610000D01*
X158090000Y-78010000D02*
X158090000Y-77070000D01*
X158090000Y-75470000D02*
X158090000Y-74530000D01*
X158090000Y-72930000D02*
X158090000Y-71990000D01*
X158090000Y-70390000D02*
X158090000Y-69080000D01*
%TO.C,J12*%
X144188872Y-145606691D02*
X143136983Y-146281992D01*
X144101503Y-146007399D02*
X139077684Y-149232634D01*
X139077684Y-149232634D02*
X143194315Y-155644946D01*
X144098491Y-146021217D02*
X143467358Y-146426397D01*
X143467358Y-146426397D02*
X144439790Y-147941116D01*
X142205091Y-147236757D02*
X142610272Y-147867891D01*
X142610272Y-147867891D02*
X140127815Y-149461599D01*
X140127815Y-149461599D02*
X141775548Y-152028207D01*
X144864172Y-146658580D02*
X144188872Y-145606691D01*
X145070923Y-147535936D02*
X144098491Y-146021217D01*
X144439790Y-147941116D02*
X145070923Y-147535936D01*
X145881284Y-148798202D02*
X145250151Y-149203383D01*
X145250151Y-149203383D02*
X145790391Y-150044893D01*
X146421524Y-149639713D02*
X145881284Y-148798202D01*
X145790391Y-150044893D02*
X146421524Y-149639713D01*
X147231884Y-150901979D02*
X146600751Y-151307159D01*
X146600751Y-151307159D02*
X147573184Y-152821879D01*
X145905738Y-153001106D02*
X143423281Y-154594815D01*
X143423281Y-154594815D02*
X141775548Y-152028207D01*
X148204317Y-152416699D02*
X147231884Y-150901979D01*
X147573184Y-152821879D02*
X148204317Y-152416699D01*
X146310918Y-153632239D02*
X145905738Y-153001106D01*
X148218135Y-152419711D02*
X144101503Y-146007399D01*
X143194315Y-155644946D02*
X148218135Y-152419711D01*
%TO.C,J5*%
X151750000Y-97150000D02*
X150500000Y-97150000D01*
X151460000Y-97440000D02*
X145490000Y-97440000D01*
X145490000Y-97440000D02*
X145490000Y-112560000D01*
X151450000Y-97450000D02*
X150700000Y-97450000D01*
X150700000Y-97450000D02*
X150700000Y-99250000D01*
X149200000Y-97450000D02*
X149200000Y-98200000D01*
X149200000Y-98200000D02*
X146250000Y-98200000D01*
X146250000Y-98200000D02*
X146250000Y-105000000D01*
X151750000Y-98400000D02*
X151750000Y-97150000D01*
X151450000Y-99250000D02*
X151450000Y-97450000D01*
X150700000Y-99250000D02*
X151450000Y-99250000D01*
X151450000Y-100750000D02*
X150700000Y-100750000D01*
X150700000Y-100750000D02*
X150700000Y-109250000D01*
X151450000Y-109250000D02*
X151450000Y-100750000D01*
X150700000Y-109250000D02*
X151450000Y-109250000D01*
X151450000Y-110750000D02*
X150700000Y-110750000D01*
X150700000Y-110750000D02*
X150700000Y-112550000D01*
X149200000Y-111800000D02*
X146250000Y-111800000D01*
X146250000Y-111800000D02*
X146250000Y-105000000D01*
X151450000Y-112550000D02*
X151450000Y-110750000D01*
X150700000Y-112550000D02*
X151450000Y-112550000D01*
X149200000Y-112550000D02*
X149200000Y-111800000D01*
X151460000Y-112560000D02*
X151460000Y-97440000D01*
X145490000Y-112560000D02*
X151460000Y-112560000D01*
%TO.C,J4*%
X121390000Y-108215000D02*
X122440000Y-108215000D01*
X121390000Y-110715000D02*
X121390000Y-108215000D01*
X122440000Y-108215000D02*
X122440000Y-107225000D01*
X122560000Y-112685000D02*
X127440000Y-112685000D01*
X128610000Y-108215000D02*
X127560000Y-108215000D01*
X128610000Y-110715000D02*
X128610000Y-108215000D01*
D14*
%TO.C,TP1*%
X149400000Y-115720000D02*
X149900000Y-116220000D01*
X148600000Y-115720000D02*
X149400000Y-115720000D01*
X149900000Y-116220000D02*
X149900000Y-119820000D01*
X148100000Y-116220000D02*
X148600000Y-115720000D01*
X149900000Y-119820000D02*
X149400000Y-120320000D01*
X148100000Y-119820000D02*
X148100000Y-116220000D01*
X149400000Y-120320000D02*
X148600000Y-120320000D01*
X148600000Y-120320000D02*
X148100000Y-119820000D01*
%TO.C,U1*%
X50810000Y-85950000D02*
X50810000Y-87220000D01*
X43190000Y-85950000D02*
X50810000Y-85950000D01*
X55890000Y-87220000D02*
X55890000Y-122780000D01*
X50810000Y-87220000D02*
X55890000Y-87220000D01*
X43190000Y-87220000D02*
X43190000Y-85950000D01*
X38110000Y-87220000D02*
X43190000Y-87220000D01*
X50810000Y-92300000D02*
X50810000Y-87220000D01*
X43190000Y-92300000D02*
X43190000Y-87220000D01*
X43190000Y-92300000D02*
X50810000Y-92300000D01*
X52080000Y-99285000D02*
X41920000Y-99285000D01*
X52080000Y-109445000D02*
X52080000Y-99285000D01*
X41920000Y-109445000D02*
X41920000Y-99285000D01*
X41920000Y-109445000D02*
X52080000Y-109445000D01*
X52080000Y-110080000D02*
X52080000Y-112620000D01*
X48905000Y-110080000D02*
X52080000Y-110080000D01*
X52080000Y-112620000D02*
X48905000Y-112620000D01*
X48905000Y-112620000D02*
X48905000Y-110080000D01*
X48270000Y-115160000D02*
X45730000Y-115160000D01*
X48270000Y-115160000D02*
X48270000Y-119732000D01*
X48270000Y-119732000D02*
X45730000Y-119732000D01*
X45730000Y-119732000D02*
X45730000Y-115160000D01*
X55890000Y-122780000D02*
X38110000Y-122780000D01*
X38110000Y-122780000D02*
X38110000Y-87220000D01*
D16*
X47127000Y-101317000D02*
X46746000Y-101571000D01*
X46492000Y-101317000D01*
X46873000Y-101063000D01*
X47127000Y-101317000D01*
G36*
X47127000Y-101317000D02*
G01*
X46746000Y-101571000D01*
X46492000Y-101317000D01*
X46873000Y-101063000D01*
X47127000Y-101317000D01*
G37*
X47508000Y-101698000D02*
X47127000Y-101952000D01*
X46873000Y-101698000D01*
X47254000Y-101444000D01*
X47508000Y-101698000D01*
G36*
X47508000Y-101698000D02*
G01*
X47127000Y-101952000D01*
X46873000Y-101698000D01*
X47254000Y-101444000D01*
X47508000Y-101698000D01*
G37*
X47889000Y-102079000D02*
X47508000Y-102333000D01*
X47254000Y-102079000D01*
X47635000Y-101825000D01*
X47889000Y-102079000D01*
G36*
X47889000Y-102079000D02*
G01*
X47508000Y-102333000D01*
X47254000Y-102079000D01*
X47635000Y-101825000D01*
X47889000Y-102079000D01*
G37*
X47381000Y-102460000D02*
X47000000Y-102714000D01*
X46746000Y-102460000D01*
X47127000Y-102206000D01*
X47381000Y-102460000D01*
G36*
X47381000Y-102460000D02*
G01*
X47000000Y-102714000D01*
X46746000Y-102460000D01*
X47127000Y-102206000D01*
X47381000Y-102460000D01*
G37*
X47762000Y-102841000D02*
X47381000Y-103095000D01*
X47127000Y-102841000D01*
X47508000Y-102587000D01*
X47762000Y-102841000D01*
G36*
X47762000Y-102841000D02*
G01*
X47381000Y-103095000D01*
X47127000Y-102841000D01*
X47508000Y-102587000D01*
X47762000Y-102841000D01*
G37*
X46873000Y-102841000D02*
X46492000Y-103095000D01*
X46238000Y-102841000D01*
X46619000Y-102587000D01*
X46873000Y-102841000D01*
G36*
X46873000Y-102841000D02*
G01*
X46492000Y-103095000D01*
X46238000Y-102841000D01*
X46619000Y-102587000D01*
X46873000Y-102841000D01*
G37*
X47254000Y-103222000D02*
X46873000Y-103476000D01*
X46619000Y-103222000D01*
X47000000Y-102968000D01*
X47254000Y-103222000D01*
G36*
X47254000Y-103222000D02*
G01*
X46873000Y-103476000D01*
X46619000Y-103222000D01*
X47000000Y-102968000D01*
X47254000Y-103222000D01*
G37*
X46746000Y-103603000D02*
X46365000Y-103857000D01*
X46111000Y-103603000D01*
X46492000Y-103349000D01*
X46746000Y-103603000D01*
G36*
X46746000Y-103603000D02*
G01*
X46365000Y-103857000D01*
X46111000Y-103603000D01*
X46492000Y-103349000D01*
X46746000Y-103603000D01*
G37*
D15*
%TO.C,J2*%
X128610000Y-101785000D02*
X127560000Y-101785000D01*
X128610000Y-99285000D02*
X128610000Y-101785000D01*
X127560000Y-101785000D02*
X127560000Y-102775000D01*
X127440000Y-97315000D02*
X122560000Y-97315000D01*
X121390000Y-101785000D02*
X122440000Y-101785000D01*
X121390000Y-99285000D02*
X121390000Y-101785000D01*
%TD*%
%LPC*%
D17*
%TO.C,U4*%
X122620000Y-172490000D03*
X122620000Y-169950000D03*
X122620000Y-167410000D03*
X122620000Y-164870000D03*
X122620000Y-162330000D03*
X122620000Y-159790000D03*
X122620000Y-157250000D03*
D18*
X107380000Y-157250000D03*
X107380000Y-159790000D03*
X107380000Y-162330000D03*
X107380000Y-164870000D03*
X107380000Y-167410000D03*
X107380000Y-169950000D03*
X107380000Y-172490000D03*
%TD*%
D19*
%TO.C,DRIBBLERJ1*%
X61400000Y-107525000D03*
D20*
X61400000Y-104985000D03*
X61400000Y-102445000D03*
%TD*%
D21*
%TO.C,H9*%
X77987984Y-147075539D03*
%TD*%
D22*
%TO.C,R3*%
X150000000Y-73730000D03*
X151650000Y-73730000D03*
%TD*%
D23*
%TO.C,U5*%
X92862500Y-104050000D03*
X92862500Y-105000000D03*
X92862500Y-105950000D03*
X95137500Y-105950000D03*
X95137500Y-105000000D03*
X95137500Y-104050000D03*
%TD*%
D21*
%TO.C,H3*%
X84140350Y-84140350D03*
%TD*%
D24*
%TO.C,R6*%
X99900000Y-162330000D03*
X98250000Y-162330000D03*
%TD*%
D17*
%TO.C,U3*%
X102620000Y-172490000D03*
X102620000Y-169950000D03*
X102620000Y-167410000D03*
X102620000Y-164870000D03*
X102620000Y-162330000D03*
X102620000Y-159790000D03*
X102620000Y-157250000D03*
D18*
X87380000Y-157250000D03*
X87380000Y-159790000D03*
X87380000Y-162330000D03*
X87380000Y-164870000D03*
X87380000Y-167410000D03*
X87380000Y-169950000D03*
X87380000Y-172490000D03*
%TD*%
D22*
%TO.C,R4*%
X150000000Y-71190000D03*
X151650000Y-71190000D03*
%TD*%
D21*
%TO.C,H7*%
X67000000Y-131000000D03*
%TD*%
D25*
%TO.C,J8*%
X77890239Y-162468743D03*
X78430480Y-161627232D03*
X78970720Y-160785721D03*
X79510960Y-159944210D03*
D26*
X75063112Y-162198600D03*
X78088458Y-157486139D03*
%TD*%
D27*
%TO.C,J1*%
X87000000Y-102000000D03*
X86000000Y-102000000D03*
X85000000Y-102000000D03*
X84000000Y-102000000D03*
X83000000Y-102000000D03*
D28*
X88300000Y-98125000D03*
X81700000Y-98125000D03*
%TD*%
D21*
%TO.C,H6*%
X125859650Y-125859650D03*
%TD*%
D29*
%TO.C,J7*%
X134085205Y-153914405D03*
X134760505Y-154966294D03*
X135435806Y-156018182D03*
X136111106Y-157070071D03*
X136786407Y-158121959D03*
X137461707Y-159173848D03*
D30*
X135904822Y-150547805D03*
X141280213Y-158920838D03*
%TD*%
D21*
%TO.C,H8*%
X143000000Y-131000000D03*
%TD*%
D31*
%TO.C,J3*%
X83000000Y-108000000D03*
X84000000Y-108000000D03*
X85000000Y-108000000D03*
X86000000Y-108000000D03*
X87000000Y-108000000D03*
D32*
X81700000Y-111875000D03*
X88300000Y-111875000D03*
%TD*%
D24*
%TO.C,R7*%
X99900000Y-159790000D03*
X98250000Y-159790000D03*
%TD*%
D21*
%TO.C,H4*%
X125859650Y-84140350D03*
%TD*%
%TO.C,H5*%
X84140350Y-125859650D03*
%TD*%
D22*
%TO.C,R2*%
X150000000Y-76270000D03*
X151650000Y-76270000D03*
%TD*%
D33*
%TO.C,J6*%
X72538293Y-159173848D03*
X73213593Y-158121959D03*
X73888894Y-157070071D03*
X74564194Y-156018182D03*
X75239495Y-154966294D03*
X75914795Y-153914405D03*
D34*
X68719787Y-158920838D03*
X74095178Y-150547805D03*
%TD*%
D35*
%TO.C,SW1*%
X50000000Y-70200000D03*
X50000000Y-75000000D03*
X50000000Y-79800000D03*
%TD*%
D23*
%TO.C,U6*%
X113862500Y-104050000D03*
X113862500Y-105000000D03*
X113862500Y-105950000D03*
X116137500Y-105950000D03*
X116137500Y-105000000D03*
X116137500Y-104050000D03*
%TD*%
D36*
%TO.C,R5*%
X78400000Y-108250000D03*
X78400000Y-106600000D03*
%TD*%
D37*
%TO.C,U2*%
X155380000Y-91030000D03*
X155380000Y-93570000D03*
X155380000Y-96110000D03*
X155380000Y-98650000D03*
X170620000Y-93570000D03*
X155380000Y-101190000D03*
X155380000Y-103730000D03*
X155380000Y-106270000D03*
X155380000Y-108810000D03*
X155380000Y-111350000D03*
X155380000Y-113890000D03*
X155380000Y-116430000D03*
X155380000Y-118970000D03*
X155380000Y-121510000D03*
X170620000Y-121510000D03*
X170620000Y-118970000D03*
X170620000Y-116430000D03*
X170620000Y-113890000D03*
X170620000Y-111350000D03*
X170620000Y-108810000D03*
X170620000Y-106270000D03*
X170620000Y-103730000D03*
X170620000Y-101190000D03*
X170620000Y-98650000D03*
X170620000Y-96110000D03*
X155380000Y-88490000D03*
X170620000Y-91030000D03*
X170620000Y-88490000D03*
X168080000Y-91030000D03*
%TD*%
D19*
%TO.C,BUCK1*%
X50475000Y-127710000D03*
D20*
X53015000Y-127710000D03*
X55555000Y-127710000D03*
%TD*%
D22*
%TO.C,R1*%
X150000000Y-78810000D03*
X151650000Y-78810000D03*
%TD*%
D19*
%TO.C,BUCK2*%
X154460000Y-128000000D03*
D20*
X157000000Y-128000000D03*
X159540000Y-128000000D03*
%TD*%
D38*
%TO.C,SW2*%
X165805000Y-78810000D03*
X165805000Y-76270000D03*
X165805000Y-73730000D03*
X165805000Y-71190000D03*
X157195000Y-71190000D03*
X157195000Y-73730000D03*
X157195000Y-76270000D03*
X157195000Y-78810000D03*
%TD*%
D21*
%TO.C,H10*%
X132012016Y-147075539D03*
%TD*%
%TO.C,H1*%
X67000000Y-79000000D03*
%TD*%
D39*
%TO.C,J12*%
X143414402Y-149490658D03*
D40*
X144765003Y-151594435D03*
%TD*%
D41*
%TO.C,J5*%
X149000000Y-100000000D03*
D42*
X149000000Y-102500000D03*
X149000000Y-105000000D03*
X149000000Y-107500000D03*
X149000000Y-110000000D03*
%TD*%
D31*
%TO.C,J4*%
X123000000Y-108000000D03*
X124000000Y-108000000D03*
X125000000Y-108000000D03*
X126000000Y-108000000D03*
X127000000Y-108000000D03*
D32*
X121700000Y-111875000D03*
X128300000Y-111875000D03*
%TD*%
D43*
%TO.C,TP1*%
X149000000Y-116750000D03*
X149000000Y-119290000D03*
%TD*%
D21*
%TO.C,H2*%
X143000000Y-79000000D03*
%TD*%
D37*
%TO.C,U1*%
X39380000Y-91030000D03*
X39380000Y-93570000D03*
X39380000Y-96110000D03*
X39380000Y-98650000D03*
X54620000Y-93570000D03*
X39380000Y-101190000D03*
X39380000Y-103730000D03*
X39380000Y-106270000D03*
X39380000Y-108810000D03*
X39380000Y-111350000D03*
X39380000Y-113890000D03*
X39380000Y-116430000D03*
X39380000Y-118970000D03*
X39380000Y-121510000D03*
X54620000Y-121510000D03*
X54620000Y-118970000D03*
X54620000Y-116430000D03*
X54620000Y-113890000D03*
X54620000Y-111350000D03*
X54620000Y-108810000D03*
X54620000Y-106270000D03*
X54620000Y-103730000D03*
X54620000Y-101190000D03*
X54620000Y-98650000D03*
X54620000Y-96110000D03*
X39380000Y-88490000D03*
X54620000Y-91030000D03*
X54620000Y-88490000D03*
X52080000Y-91030000D03*
%TD*%
D27*
%TO.C,J2*%
X127000000Y-102000000D03*
X126000000Y-102000000D03*
X125000000Y-102000000D03*
X124000000Y-102000000D03*
X123000000Y-102000000D03*
D28*
X128300000Y-98125000D03*
X121700000Y-98125000D03*
%TD*%
D44*
%TO.C,J9*%
X105000000Y-136250000D03*
D45*
X105000000Y-133750000D03*
%TD*%
%LPD*%
M02*
