%TF.GenerationSoftware,KiCad,Pcbnew,7.0.9*%
%TF.CreationDate,2023-12-19T12:29:39+08:00*%
%TF.ProjectId,layer3,6c617965-7233-42e6-9b69-6361645f7063,rev?*%
%TF.SameCoordinates,Original*%
%TF.FileFunction,Legend,Bot*%
%TF.FilePolarity,Positive*%
%FSLAX46Y46*%
G04 Gerber Fmt 4.6, Leading zero omitted, Abs format (unit mm)*
G04 Created by KiCad (PCBNEW 7.0.9) date 2023-12-19 12:29:39*
%MOMM*%
%LPD*%
G01*
G04 APERTURE LIST*
G04 Aperture macros list*
%AMRoundRect*
0 Rectangle with rounded corners*
0 $1 Rounding radius*
0 $2 $3 $4 $5 $6 $7 $8 $9 X,Y pos of 4 corners*
0 Add a 4 corners polygon primitive as box body*
4,1,4,$2,$3,$4,$5,$6,$7,$8,$9,$2,$3,0*
0 Add four circle primitives for the rounded corners*
1,1,$1+$1,$2,$3*
1,1,$1+$1,$4,$5*
1,1,$1+$1,$6,$7*
1,1,$1+$1,$8,$9*
0 Add four rect primitives between the rounded corners*
20,1,$1+$1,$2,$3,$4,$5,0*
20,1,$1+$1,$4,$5,$6,$7,0*
20,1,$1+$1,$6,$7,$8,$9,0*
20,1,$1+$1,$8,$9,$2,$3,0*%
%AMHorizOval*
0 Thick line with rounded ends*
0 $1 width*
0 $2 $3 position (X,Y) of the first rounded end (center of the circle)*
0 $4 $5 position (X,Y) of the second rounded end (center of the circle)*
0 Add line between two ends*
20,1,$1,$2,$3,$4,$5,0*
0 Add two circle primitives to create the rounded ends*
1,1,$1,$2,$3*
1,1,$1,$4,$5*%
G04 Aperture macros list end*
%ADD10C,0.300000*%
%ADD11C,0.250000*%
%ADD12C,0.150000*%
%ADD13C,0.120000*%
%ADD14RoundRect,0.150000X-0.600000X-0.600000X0.600000X-0.600000X0.600000X0.600000X-0.600000X0.600000X0*%
%ADD15RoundRect,0.150000X0.600000X0.600000X-0.600000X0.600000X-0.600000X-0.600000X0.600000X-0.600000X0*%
%ADD16R,1.700000X1.700000*%
%ADD17O,1.700000X1.700000*%
%ADD18C,6.400000*%
%ADD19C,3.703200*%
%ADD20C,1.600000*%
%ADD21RoundRect,0.250000X-0.955277X0.099726X-0.306989X-0.910087X0.955277X-0.099726X0.306989X0.910087X0*%
%ADD22HorizOval,1.700000X-0.126227X-0.081036X0.126227X0.081036X0*%
%ADD23RoundRect,0.250000X-0.725000X0.600000X-0.725000X-0.600000X0.725000X-0.600000X0.725000X0.600000X0*%
%ADD24O,1.950000X1.700000*%
%ADD25C,1.400000*%
%ADD26RoundRect,0.150000X0.625000X-0.150000X0.625000X0.150000X-0.625000X0.150000X-0.625000X-0.150000X0*%
%ADD27RoundRect,0.250000X0.650000X-0.350000X0.650000X0.350000X-0.650000X0.350000X-0.650000X-0.350000X0*%
%ADD28RoundRect,0.150000X-0.625000X0.150000X-0.625000X-0.150000X0.625000X-0.150000X0.625000X0.150000X0*%
%ADD29RoundRect,0.250000X-0.650000X0.350000X-0.650000X-0.350000X0.650000X-0.350000X0.650000X0.350000X0*%
%ADD30RoundRect,0.250000X0.750000X-0.600000X0.750000X0.600000X-0.750000X0.600000X-0.750000X-0.600000X0*%
%ADD31O,2.000000X1.700000*%
G04 APERTURE END LIST*
D10*
G36*
X116063444Y-101877191D02*
G01*
X116066638Y-101873672D01*
X116135537Y-101804773D01*
X116210016Y-101739117D01*
X116290074Y-101676706D01*
X116375712Y-101617538D01*
X116466929Y-101561614D01*
X116563726Y-101508934D01*
X116639984Y-101471552D01*
X116719382Y-101435996D01*
X116773254Y-101413621D01*
X116854640Y-101382766D01*
X116936720Y-101355159D01*
X117019493Y-101330800D01*
X117102959Y-101309688D01*
X117187119Y-101291825D01*
X117271972Y-101277209D01*
X117357518Y-101265842D01*
X117443758Y-101257722D01*
X117530691Y-101252850D01*
X117618317Y-101251226D01*
X117781491Y-101254713D01*
X117940399Y-101265175D01*
X118095042Y-101282610D01*
X118245419Y-101307020D01*
X118391530Y-101338404D01*
X118533375Y-101376763D01*
X118670955Y-101422096D01*
X118804269Y-101474403D01*
X118933318Y-101533684D01*
X119058100Y-101599940D01*
X119178618Y-101673170D01*
X119294869Y-101753374D01*
X119406855Y-101840552D01*
X119514575Y-101934705D01*
X119618030Y-102035832D01*
X119717218Y-102143934D01*
X119764988Y-102200360D01*
X119855978Y-102317788D01*
X119940902Y-102441314D01*
X120019760Y-102570938D01*
X120092552Y-102706660D01*
X120159278Y-102848482D01*
X120219938Y-102996401D01*
X120274532Y-103150419D01*
X120299554Y-103229715D01*
X120323060Y-103310536D01*
X120345049Y-103392881D01*
X120365522Y-103476751D01*
X120384478Y-103562145D01*
X120401918Y-103649064D01*
X120417841Y-103737507D01*
X120432248Y-103827476D01*
X120445138Y-103918968D01*
X120456512Y-104011986D01*
X120466369Y-104106528D01*
X120474710Y-104202594D01*
X120481534Y-104300186D01*
X120486842Y-104399302D01*
X120490633Y-104499942D01*
X120492908Y-104602107D01*
X120493666Y-104705797D01*
X120492908Y-104809488D01*
X120490633Y-104911660D01*
X120486842Y-105012310D01*
X120481534Y-105111440D01*
X120474710Y-105209050D01*
X120466369Y-105305139D01*
X120456512Y-105399707D01*
X120445138Y-105492755D01*
X120432248Y-105584282D01*
X120417841Y-105674289D01*
X120401918Y-105762775D01*
X120384478Y-105849741D01*
X120365522Y-105935186D01*
X120345049Y-106019110D01*
X120323060Y-106101514D01*
X120299554Y-106182397D01*
X120247993Y-106339603D01*
X120190366Y-106490725D01*
X120126673Y-106635766D01*
X120056914Y-106774725D01*
X119981089Y-106907601D01*
X119899198Y-107034395D01*
X119811241Y-107155107D01*
X119717218Y-107269736D01*
X119618030Y-107377586D01*
X119514575Y-107478478D01*
X119406855Y-107572412D01*
X119294869Y-107659387D01*
X119178618Y-107739405D01*
X119058100Y-107812465D01*
X118933318Y-107878566D01*
X118804269Y-107937710D01*
X118670955Y-107989895D01*
X118533375Y-108035123D01*
X118391530Y-108073392D01*
X118245419Y-108104703D01*
X118095042Y-108129056D01*
X117940399Y-108146451D01*
X117781491Y-108156889D01*
X117618317Y-108160368D01*
X117485855Y-108157513D01*
X117357317Y-108148949D01*
X117232705Y-108134676D01*
X117112017Y-108114694D01*
X116995255Y-108089003D01*
X116882418Y-108057602D01*
X116773505Y-108020493D01*
X116668518Y-107977674D01*
X116567456Y-107929146D01*
X116470319Y-107874909D01*
X116377107Y-107814962D01*
X116287820Y-107749307D01*
X116202458Y-107677942D01*
X116121021Y-107600868D01*
X116043509Y-107518085D01*
X115986725Y-107449799D01*
X115814218Y-108027500D01*
X113783827Y-108027500D01*
X113783827Y-104705797D01*
X116069574Y-104705797D01*
X116070725Y-104785814D01*
X116076771Y-104901310D01*
X116087999Y-105011367D01*
X116104408Y-105115988D01*
X116126000Y-105215170D01*
X116152774Y-105308916D01*
X116184730Y-105397223D01*
X116221868Y-105480094D01*
X116264188Y-105557526D01*
X116311691Y-105629522D01*
X116364375Y-105696079D01*
X116420921Y-105756555D01*
X116501482Y-105827936D01*
X116587947Y-105888742D01*
X116680316Y-105938973D01*
X116778588Y-105978629D01*
X116882764Y-106007710D01*
X116964771Y-106022581D01*
X117050098Y-106031504D01*
X117138747Y-106034478D01*
X117198466Y-106033156D01*
X117285247Y-106026216D01*
X117368671Y-106013328D01*
X117474680Y-105986891D01*
X117574720Y-105949878D01*
X117668792Y-105902291D01*
X117756895Y-105844129D01*
X117839029Y-105775392D01*
X117915195Y-105696079D01*
X117950642Y-105652312D01*
X117999525Y-105582129D01*
X118043262Y-105506509D01*
X118081854Y-105425451D01*
X118115300Y-105338956D01*
X118143600Y-105247023D01*
X118166755Y-105149653D01*
X118184765Y-105046845D01*
X118197629Y-104938600D01*
X118205347Y-104824917D01*
X118207920Y-104705797D01*
X118206776Y-104625787D01*
X118200773Y-104510335D01*
X118189624Y-104400356D01*
X118173330Y-104295851D01*
X118151890Y-104196820D01*
X118125305Y-104103264D01*
X118093574Y-104015181D01*
X118056697Y-103932572D01*
X118014675Y-103855438D01*
X117967508Y-103783777D01*
X117915195Y-103717590D01*
X117858630Y-103656744D01*
X117777988Y-103584925D01*
X117691377Y-103523746D01*
X117598798Y-103473207D01*
X117500249Y-103433307D01*
X117395733Y-103404048D01*
X117313428Y-103389085D01*
X117227766Y-103380108D01*
X117138747Y-103377116D01*
X117050098Y-103380108D01*
X116964771Y-103389085D01*
X116882764Y-103404048D01*
X116778588Y-103433307D01*
X116680316Y-103473207D01*
X116587947Y-103523746D01*
X116501482Y-103584925D01*
X116420921Y-103656744D01*
X116364375Y-103717590D01*
X116328676Y-103761106D01*
X116279447Y-103830943D01*
X116235399Y-103906253D01*
X116196534Y-103987037D01*
X116162850Y-104073295D01*
X116134349Y-104165027D01*
X116111030Y-104262233D01*
X116092893Y-104364913D01*
X116079938Y-104473067D01*
X116072165Y-104586695D01*
X116069574Y-104705797D01*
X113783827Y-104705797D01*
X113783827Y-99523941D01*
X116069574Y-99523941D01*
X116063444Y-101877191D01*
G37*
G36*
X110360397Y-108160368D02*
G01*
X110468210Y-108158014D01*
X110575221Y-108150952D01*
X110681429Y-108139183D01*
X110786834Y-108122707D01*
X110891436Y-108101522D01*
X110995235Y-108075630D01*
X111098231Y-108045030D01*
X111200425Y-108009723D01*
X111301815Y-107969708D01*
X111402403Y-107924986D01*
X111469015Y-107892555D01*
X111566708Y-107839403D01*
X111661262Y-107780375D01*
X111752678Y-107715472D01*
X111840955Y-107644693D01*
X111926094Y-107568039D01*
X112008095Y-107485509D01*
X112086957Y-107397104D01*
X112162680Y-107302823D01*
X112235265Y-107202667D01*
X112281912Y-107132633D01*
X112327164Y-107059987D01*
X112349267Y-107022684D01*
X112391501Y-106946170D01*
X112431012Y-106867142D01*
X112467797Y-106785600D01*
X112501857Y-106701543D01*
X112533193Y-106614973D01*
X112561804Y-106525889D01*
X112587690Y-106434291D01*
X112610851Y-106340178D01*
X112631287Y-106243552D01*
X112648998Y-106144412D01*
X112663985Y-106042758D01*
X112676247Y-105938590D01*
X112685784Y-105831908D01*
X112692596Y-105722711D01*
X112696683Y-105611001D01*
X112698045Y-105496777D01*
X112698045Y-101384094D01*
X110412299Y-101384094D01*
X110412299Y-105087793D01*
X110410255Y-105172293D01*
X110401172Y-105278999D01*
X110384823Y-105378894D01*
X110361208Y-105471976D01*
X110330327Y-105558246D01*
X110292179Y-105637704D01*
X110246765Y-105710350D01*
X110194085Y-105776184D01*
X110179779Y-105791578D01*
X110119022Y-105848508D01*
X110035686Y-105908996D01*
X109944138Y-105957623D01*
X109864988Y-105987985D01*
X109780583Y-106010757D01*
X109690923Y-106025938D01*
X109596008Y-106033529D01*
X109546580Y-106034478D01*
X109449135Y-106030683D01*
X109357139Y-106019297D01*
X109270593Y-106000320D01*
X109189497Y-105973753D01*
X109095790Y-105929870D01*
X109010598Y-105874126D01*
X108933922Y-105806522D01*
X108919608Y-105791578D01*
X108866085Y-105727447D01*
X108819698Y-105656504D01*
X108780447Y-105578749D01*
X108748333Y-105494182D01*
X108723356Y-105402803D01*
X108705514Y-105304612D01*
X108694810Y-105199608D01*
X108691464Y-105116385D01*
X108691241Y-105087793D01*
X108691241Y-101384094D01*
X106407571Y-101384094D01*
X106407571Y-108027500D01*
X108435886Y-108027500D01*
X108616503Y-107429593D01*
X108595742Y-107429593D01*
X108682678Y-107518085D01*
X108772727Y-107600868D01*
X108865890Y-107677942D01*
X108962168Y-107749307D01*
X109061559Y-107814962D01*
X109164065Y-107874909D01*
X109269685Y-107929146D01*
X109378419Y-107977674D01*
X109490267Y-108020493D01*
X109605229Y-108057602D01*
X109723305Y-108089003D01*
X109844495Y-108114694D01*
X109968799Y-108134676D01*
X110096218Y-108148949D01*
X110226750Y-108157513D01*
X110360397Y-108160368D01*
G37*
G36*
X102265823Y-108160368D02*
G01*
X102365664Y-108159492D01*
X102464071Y-108156864D01*
X102561041Y-108152485D01*
X102656577Y-108146354D01*
X102750677Y-108138472D01*
X102843342Y-108128837D01*
X102934571Y-108117451D01*
X103024365Y-108104314D01*
X103112723Y-108089425D01*
X103199646Y-108072784D01*
X103285134Y-108054391D01*
X103369186Y-108034247D01*
X103451803Y-108012351D01*
X103532984Y-107988703D01*
X103612730Y-107963304D01*
X103767916Y-107907250D01*
X103917360Y-107844190D01*
X104061063Y-107774122D01*
X104199024Y-107697048D01*
X104331243Y-107612968D01*
X104457721Y-107521881D01*
X104578457Y-107423787D01*
X104693451Y-107318686D01*
X104748795Y-107263508D01*
X104854383Y-107148416D01*
X104953158Y-107027356D01*
X105045121Y-106900326D01*
X105130272Y-106767329D01*
X105208611Y-106628362D01*
X105280138Y-106483427D01*
X105344853Y-106332523D01*
X105374656Y-106254833D01*
X105402756Y-106175650D01*
X105429153Y-106094976D01*
X105453846Y-106012809D01*
X105476837Y-105929150D01*
X105498125Y-105843999D01*
X105517710Y-105757356D01*
X105535591Y-105669220D01*
X105551770Y-105579593D01*
X105566246Y-105488473D01*
X105579018Y-105395861D01*
X105590088Y-105301757D01*
X105599455Y-105206161D01*
X105607118Y-105109072D01*
X105613079Y-105010492D01*
X105617336Y-104910419D01*
X105619891Y-104808854D01*
X105620742Y-104705797D01*
X105619891Y-104602740D01*
X105617336Y-104501175D01*
X105613079Y-104401102D01*
X105607118Y-104302521D01*
X105599455Y-104205433D01*
X105590088Y-104109837D01*
X105579018Y-104015733D01*
X105566246Y-103923121D01*
X105551770Y-103832001D01*
X105535591Y-103742373D01*
X105517710Y-103654238D01*
X105498125Y-103567595D01*
X105476837Y-103482444D01*
X105453846Y-103398785D01*
X105429153Y-103316618D01*
X105402756Y-103235943D01*
X105374656Y-103156761D01*
X105344853Y-103079071D01*
X105280138Y-102928167D01*
X105208611Y-102783232D01*
X105130272Y-102644265D01*
X105045121Y-102511267D01*
X104953158Y-102384238D01*
X104854383Y-102263177D01*
X104748795Y-102148086D01*
X104636672Y-102039482D01*
X104518807Y-101937884D01*
X104395200Y-101843294D01*
X104265851Y-101755710D01*
X104130761Y-101675132D01*
X103989929Y-101601562D01*
X103843356Y-101534998D01*
X103691041Y-101475441D01*
X103532984Y-101422891D01*
X103451803Y-101399243D01*
X103369186Y-101377347D01*
X103285134Y-101357203D01*
X103199646Y-101338810D01*
X103112723Y-101322169D01*
X103024365Y-101307280D01*
X102934571Y-101294142D01*
X102843342Y-101282756D01*
X102750677Y-101273122D01*
X102656577Y-101265239D01*
X102561041Y-101259109D01*
X102464071Y-101254729D01*
X102365664Y-101252102D01*
X102265823Y-101251226D01*
X102139167Y-101252807D01*
X102015073Y-101257551D01*
X101893542Y-101265458D01*
X101774574Y-101276528D01*
X101658168Y-101290760D01*
X101544326Y-101308156D01*
X101433045Y-101328713D01*
X101324328Y-101352434D01*
X101218173Y-101379317D01*
X101114580Y-101409364D01*
X101013551Y-101442573D01*
X100915083Y-101478944D01*
X100819179Y-101518479D01*
X100725837Y-101561176D01*
X100635058Y-101607036D01*
X100546842Y-101656058D01*
X100461212Y-101707482D01*
X100378194Y-101760543D01*
X100297787Y-101815242D01*
X100219991Y-101871580D01*
X100144807Y-101929556D01*
X100072234Y-101989169D01*
X100002272Y-102050421D01*
X99934922Y-102113312D01*
X99870182Y-102177840D01*
X99808055Y-102244006D01*
X99748538Y-102311811D01*
X99691633Y-102381254D01*
X99637339Y-102452335D01*
X99585656Y-102525054D01*
X99536585Y-102599411D01*
X99490125Y-102675406D01*
X99445960Y-102752756D01*
X99403774Y-102831176D01*
X99363566Y-102910666D01*
X99325337Y-102991227D01*
X99289087Y-103072859D01*
X99254816Y-103155561D01*
X99222523Y-103239333D01*
X99192210Y-103324176D01*
X99163875Y-103410089D01*
X99137518Y-103497073D01*
X99113141Y-103585128D01*
X99090742Y-103674252D01*
X99070322Y-103764448D01*
X99051881Y-103855713D01*
X99035418Y-103948050D01*
X99020934Y-104041456D01*
X101294225Y-104041456D01*
X101333897Y-103956792D01*
X101376099Y-103878226D01*
X101420832Y-103805758D01*
X101480306Y-103723749D01*
X101543734Y-103651270D01*
X101611114Y-103588319D01*
X101682449Y-103534897D01*
X101760017Y-103489442D01*
X101846101Y-103451692D01*
X101940700Y-103421646D01*
X102022510Y-103403156D01*
X102109769Y-103389596D01*
X102202478Y-103380968D01*
X102300637Y-103377270D01*
X102326029Y-103377116D01*
X102432686Y-103382436D01*
X102534673Y-103398395D01*
X102631989Y-103424995D01*
X102724633Y-103462234D01*
X102812606Y-103510114D01*
X102895908Y-103568633D01*
X102974539Y-103637792D01*
X103048499Y-103717590D01*
X103099699Y-103783777D01*
X103145863Y-103855438D01*
X103186991Y-103932572D01*
X103223083Y-104015181D01*
X103254139Y-104103264D01*
X103280158Y-104196820D01*
X103301142Y-104295851D01*
X103317090Y-104400356D01*
X103328001Y-104510335D01*
X103333877Y-104625787D01*
X103334996Y-104705797D01*
X103332478Y-104824917D01*
X103324924Y-104938600D01*
X103312333Y-105046845D01*
X103294707Y-105149653D01*
X103272045Y-105247023D01*
X103244346Y-105338956D01*
X103211612Y-105425451D01*
X103173841Y-105506509D01*
X103131035Y-105582129D01*
X103083192Y-105652312D01*
X103048499Y-105696079D01*
X102974539Y-105775392D01*
X102895908Y-105844129D01*
X102812606Y-105902291D01*
X102724633Y-105949878D01*
X102631989Y-105986891D01*
X102534673Y-106013328D01*
X102432686Y-106029190D01*
X102326029Y-106034478D01*
X102226507Y-106032045D01*
X102132436Y-106024746D01*
X102043814Y-106012582D01*
X101960641Y-105995552D01*
X101864339Y-105967421D01*
X101776553Y-105931688D01*
X101697281Y-105888353D01*
X101682449Y-105878773D01*
X101611114Y-105824753D01*
X101543734Y-105761305D01*
X101480306Y-105688430D01*
X101420832Y-105606127D01*
X101376099Y-105533498D01*
X101333897Y-105454834D01*
X101294225Y-105370137D01*
X99020934Y-105370137D01*
X99035418Y-105463544D01*
X99051881Y-105555880D01*
X99070322Y-105647146D01*
X99090742Y-105737341D01*
X99113141Y-105826466D01*
X99137518Y-105914520D01*
X99163875Y-106001504D01*
X99192210Y-106087418D01*
X99222523Y-106172260D01*
X99254816Y-106256033D01*
X99289087Y-106338735D01*
X99325337Y-106420366D01*
X99363566Y-106500927D01*
X99403774Y-106580418D01*
X99445960Y-106658838D01*
X99490125Y-106736188D01*
X99536585Y-106812183D01*
X99585656Y-106886540D01*
X99637339Y-106959259D01*
X99691633Y-107030340D01*
X99748538Y-107099783D01*
X99808055Y-107167587D01*
X99870182Y-107233754D01*
X99934922Y-107298282D01*
X100002272Y-107361172D01*
X100072234Y-107422424D01*
X100144807Y-107482038D01*
X100219991Y-107540014D01*
X100297787Y-107596351D01*
X100378194Y-107651051D01*
X100461212Y-107704112D01*
X100546842Y-107755535D01*
X100635058Y-107804558D01*
X100725837Y-107850418D01*
X100819179Y-107893115D01*
X100915083Y-107932649D01*
X101013551Y-107969021D01*
X101114580Y-108002230D01*
X101218173Y-108032276D01*
X101324328Y-108059159D01*
X101433045Y-108082880D01*
X101544326Y-108103438D01*
X101658168Y-108120833D01*
X101774574Y-108135066D01*
X101893542Y-108146135D01*
X102015073Y-108154042D01*
X102139167Y-108158786D01*
X102265823Y-108160368D01*
G37*
G36*
X95364985Y-108160368D02*
G01*
X95464827Y-108159492D01*
X95563233Y-108156864D01*
X95660204Y-108152485D01*
X95755740Y-108146354D01*
X95849840Y-108138472D01*
X95942504Y-108128837D01*
X96033733Y-108117451D01*
X96123527Y-108104314D01*
X96211886Y-108089425D01*
X96298809Y-108072784D01*
X96384296Y-108054391D01*
X96468349Y-108034247D01*
X96550965Y-108012351D01*
X96632147Y-107988703D01*
X96711893Y-107963304D01*
X96867079Y-107907250D01*
X97016523Y-107844190D01*
X97160225Y-107774122D01*
X97298186Y-107697048D01*
X97430406Y-107612968D01*
X97556883Y-107521881D01*
X97677619Y-107423787D01*
X97792614Y-107318686D01*
X97847958Y-107263508D01*
X97953545Y-107148416D01*
X98052321Y-107027356D01*
X98144284Y-106900326D01*
X98229435Y-106767329D01*
X98307774Y-106628362D01*
X98379301Y-106483427D01*
X98444016Y-106332523D01*
X98473818Y-106254833D01*
X98501918Y-106175650D01*
X98528315Y-106094976D01*
X98553009Y-106012809D01*
X98576000Y-105929150D01*
X98597288Y-105843999D01*
X98616872Y-105757356D01*
X98634754Y-105669220D01*
X98650933Y-105579593D01*
X98665408Y-105488473D01*
X98678181Y-105395861D01*
X98689251Y-105301757D01*
X98698617Y-105206161D01*
X98706281Y-105109072D01*
X98712241Y-105010492D01*
X98716499Y-104910419D01*
X98719054Y-104808854D01*
X98719905Y-104705797D01*
X98719054Y-104602740D01*
X98716499Y-104501175D01*
X98712241Y-104401102D01*
X98706281Y-104302521D01*
X98698617Y-104205433D01*
X98689251Y-104109837D01*
X98678181Y-104015733D01*
X98665408Y-103923121D01*
X98650933Y-103832001D01*
X98634754Y-103742373D01*
X98616872Y-103654238D01*
X98597288Y-103567595D01*
X98576000Y-103482444D01*
X98553009Y-103398785D01*
X98528315Y-103316618D01*
X98501918Y-103235943D01*
X98473818Y-103156761D01*
X98444016Y-103079071D01*
X98379301Y-102928167D01*
X98307774Y-102783232D01*
X98229435Y-102644265D01*
X98144284Y-102511267D01*
X98052321Y-102384238D01*
X97953545Y-102263177D01*
X97847958Y-102148086D01*
X97735834Y-102039482D01*
X97617969Y-101937884D01*
X97494362Y-101843294D01*
X97365014Y-101755710D01*
X97229924Y-101675132D01*
X97089092Y-101601562D01*
X96942518Y-101534998D01*
X96790203Y-101475441D01*
X96632147Y-101422891D01*
X96550965Y-101399243D01*
X96468349Y-101377347D01*
X96384296Y-101357203D01*
X96298809Y-101338810D01*
X96211886Y-101322169D01*
X96123527Y-101307280D01*
X96033733Y-101294142D01*
X95942504Y-101282756D01*
X95849840Y-101273122D01*
X95755740Y-101265239D01*
X95660204Y-101259109D01*
X95563233Y-101254729D01*
X95464827Y-101252102D01*
X95364985Y-101251226D01*
X95238329Y-101252807D01*
X95114236Y-101257551D01*
X94992705Y-101265458D01*
X94873737Y-101276528D01*
X94757331Y-101290760D01*
X94643488Y-101308156D01*
X94532208Y-101328713D01*
X94423490Y-101352434D01*
X94317335Y-101379317D01*
X94213743Y-101409364D01*
X94112713Y-101442573D01*
X94014246Y-101478944D01*
X93918342Y-101518479D01*
X93825000Y-101561176D01*
X93734221Y-101607036D01*
X93646004Y-101656058D01*
X93560375Y-101707482D01*
X93477356Y-101760543D01*
X93396949Y-101815242D01*
X93319154Y-101871580D01*
X93243969Y-101929556D01*
X93171396Y-101989169D01*
X93101435Y-102050421D01*
X93034084Y-102113312D01*
X92969345Y-102177840D01*
X92907217Y-102244006D01*
X92847701Y-102311811D01*
X92790795Y-102381254D01*
X92736502Y-102452335D01*
X92684819Y-102525054D01*
X92635748Y-102599411D01*
X92589287Y-102675406D01*
X92545122Y-102752756D01*
X92502936Y-102831176D01*
X92462729Y-102910666D01*
X92424500Y-102991227D01*
X92388250Y-103072859D01*
X92353979Y-103155561D01*
X92321686Y-103239333D01*
X92291372Y-103324176D01*
X92263037Y-103410089D01*
X92236681Y-103497073D01*
X92212303Y-103585128D01*
X92189905Y-103674252D01*
X92169485Y-103764448D01*
X92151043Y-103855713D01*
X92134581Y-103948050D01*
X92120097Y-104041456D01*
X94393387Y-104041456D01*
X94433060Y-103956792D01*
X94475262Y-103878226D01*
X94519995Y-103805758D01*
X94579469Y-103723749D01*
X94642896Y-103651270D01*
X94710277Y-103588319D01*
X94781611Y-103534897D01*
X94859180Y-103489442D01*
X94945264Y-103451692D01*
X95039862Y-103421646D01*
X95121672Y-103403156D01*
X95208932Y-103389596D01*
X95301641Y-103380968D01*
X95399800Y-103377270D01*
X95425191Y-103377116D01*
X95531849Y-103382436D01*
X95633836Y-103398395D01*
X95731151Y-103424995D01*
X95823795Y-103462234D01*
X95911769Y-103510114D01*
X95995071Y-103568633D01*
X96073702Y-103637792D01*
X96147662Y-103717590D01*
X96198862Y-103783777D01*
X96245026Y-103855438D01*
X96286154Y-103932572D01*
X96322246Y-104015181D01*
X96353301Y-104103264D01*
X96379321Y-104196820D01*
X96400305Y-104295851D01*
X96416252Y-104400356D01*
X96427164Y-104510335D01*
X96433039Y-104625787D01*
X96434158Y-104705797D01*
X96431640Y-104824917D01*
X96424086Y-104938600D01*
X96411496Y-105046845D01*
X96393870Y-105149653D01*
X96371207Y-105247023D01*
X96343509Y-105338956D01*
X96310774Y-105425451D01*
X96273004Y-105506509D01*
X96230197Y-105582129D01*
X96182354Y-105652312D01*
X96147662Y-105696079D01*
X96073702Y-105775392D01*
X95995071Y-105844129D01*
X95911769Y-105902291D01*
X95823795Y-105949878D01*
X95731151Y-105986891D01*
X95633836Y-106013328D01*
X95531849Y-106029190D01*
X95425191Y-106034478D01*
X95325670Y-106032045D01*
X95231598Y-106024746D01*
X95142976Y-106012582D01*
X95059804Y-105995552D01*
X94963502Y-105967421D01*
X94875715Y-105931688D01*
X94796444Y-105888353D01*
X94781611Y-105878773D01*
X94710277Y-105824753D01*
X94642896Y-105761305D01*
X94579469Y-105688430D01*
X94519995Y-105606127D01*
X94475262Y-105533498D01*
X94433060Y-105454834D01*
X94393387Y-105370137D01*
X92120097Y-105370137D01*
X92134581Y-105463544D01*
X92151043Y-105555880D01*
X92169485Y-105647146D01*
X92189905Y-105737341D01*
X92212303Y-105826466D01*
X92236681Y-105914520D01*
X92263037Y-106001504D01*
X92291372Y-106087418D01*
X92321686Y-106172260D01*
X92353979Y-106256033D01*
X92388250Y-106338735D01*
X92424500Y-106420366D01*
X92462729Y-106500927D01*
X92502936Y-106580418D01*
X92545122Y-106658838D01*
X92589287Y-106736188D01*
X92635748Y-106812183D01*
X92684819Y-106886540D01*
X92736502Y-106959259D01*
X92790795Y-107030340D01*
X92847701Y-107099783D01*
X92907217Y-107167587D01*
X92969345Y-107233754D01*
X93034084Y-107298282D01*
X93101435Y-107361172D01*
X93171396Y-107422424D01*
X93243969Y-107482038D01*
X93319154Y-107540014D01*
X93396949Y-107596351D01*
X93477356Y-107651051D01*
X93560375Y-107704112D01*
X93646004Y-107755535D01*
X93734221Y-107804558D01*
X93825000Y-107850418D01*
X93918342Y-107893115D01*
X94014246Y-107932649D01*
X94112713Y-107969021D01*
X94213743Y-108002230D01*
X94317335Y-108032276D01*
X94423490Y-108059159D01*
X94532208Y-108082880D01*
X94643488Y-108103438D01*
X94757331Y-108120833D01*
X94873737Y-108135066D01*
X94992705Y-108146135D01*
X95114236Y-108154042D01*
X95238329Y-108158786D01*
X95364985Y-108160368D01*
G37*
G36*
X90502843Y-108160368D02*
G01*
X90589922Y-108157393D01*
X90675213Y-108148471D01*
X90758716Y-108133600D01*
X90840430Y-108112780D01*
X90920357Y-108086012D01*
X90998495Y-108053296D01*
X91074845Y-108014632D01*
X91149407Y-107970018D01*
X91222181Y-107919457D01*
X91293167Y-107862947D01*
X91339497Y-107821969D01*
X91404796Y-107756579D01*
X91463671Y-107688087D01*
X91516124Y-107616494D01*
X91562155Y-107541798D01*
X91601762Y-107464000D01*
X91634947Y-107383101D01*
X91661708Y-107299099D01*
X91682047Y-107211996D01*
X91695964Y-107121790D01*
X91703457Y-107028483D01*
X91704884Y-106964555D01*
X91701673Y-106869198D01*
X91692038Y-106776979D01*
X91675981Y-106687899D01*
X91653502Y-106601957D01*
X91624599Y-106519154D01*
X91589273Y-106439489D01*
X91547525Y-106362962D01*
X91499354Y-106289574D01*
X91444760Y-106219325D01*
X91383743Y-106152213D01*
X91339497Y-106109216D01*
X91269703Y-106048370D01*
X91198122Y-105993508D01*
X91124752Y-105944631D01*
X91049594Y-105901740D01*
X90972648Y-105864833D01*
X90893913Y-105833911D01*
X90813391Y-105808974D01*
X90731080Y-105790021D01*
X90646981Y-105777054D01*
X90561094Y-105770072D01*
X90502843Y-105768742D01*
X90415782Y-105771734D01*
X90330546Y-105780711D01*
X90247134Y-105795674D01*
X90165547Y-105816621D01*
X90085785Y-105843553D01*
X90007848Y-105876470D01*
X89931735Y-105915372D01*
X89857446Y-105960259D01*
X89784983Y-106011130D01*
X89714344Y-106067987D01*
X89668265Y-106109216D01*
X89602595Y-106174235D01*
X89543385Y-106242392D01*
X89490634Y-106313688D01*
X89444342Y-106388122D01*
X89404510Y-106465695D01*
X89371137Y-106546406D01*
X89344223Y-106630256D01*
X89323768Y-106717243D01*
X89309773Y-106807370D01*
X89302237Y-106900635D01*
X89300802Y-106964555D01*
X89304031Y-107059930D01*
X89313720Y-107152203D01*
X89329869Y-107241375D01*
X89352476Y-107327444D01*
X89381543Y-107410412D01*
X89417069Y-107490277D01*
X89459055Y-107567041D01*
X89507500Y-107640703D01*
X89562404Y-107711263D01*
X89623768Y-107778721D01*
X89668265Y-107821969D01*
X89737688Y-107882445D01*
X89808935Y-107936972D01*
X89882006Y-107985550D01*
X89956903Y-108028181D01*
X90033624Y-108064863D01*
X90112170Y-108095596D01*
X90192540Y-108120381D01*
X90274735Y-108139218D01*
X90358755Y-108152106D01*
X90444600Y-108159046D01*
X90502843Y-108160368D01*
G37*
D11*
G36*
X110295917Y-110590631D02*
G01*
X110308947Y-110590451D01*
X110321780Y-110589910D01*
X110334417Y-110589008D01*
X110346857Y-110587746D01*
X110359100Y-110586123D01*
X110371147Y-110584140D01*
X110382998Y-110581795D01*
X110394652Y-110579091D01*
X110406109Y-110576025D01*
X110417370Y-110572599D01*
X110428435Y-110568812D01*
X110439303Y-110564665D01*
X110449974Y-110560157D01*
X110460449Y-110555288D01*
X110470727Y-110550059D01*
X110480809Y-110544469D01*
X110490655Y-110538507D01*
X110500226Y-110532223D01*
X110509522Y-110525616D01*
X110518544Y-110518686D01*
X110527291Y-110511434D01*
X110535763Y-110503860D01*
X110543961Y-110495963D01*
X110551883Y-110487744D01*
X110559531Y-110479202D01*
X110566904Y-110470338D01*
X110574003Y-110461151D01*
X110580826Y-110451642D01*
X110587375Y-110441810D01*
X110593649Y-110431656D01*
X110599648Y-110421179D01*
X110605373Y-110410380D01*
X110610755Y-110399251D01*
X110615791Y-110387845D01*
X110620479Y-110376162D01*
X110624820Y-110364203D01*
X110628814Y-110351967D01*
X110632461Y-110339454D01*
X110635760Y-110326665D01*
X110638712Y-110313599D01*
X110641316Y-110300256D01*
X110643574Y-110286636D01*
X110645484Y-110272740D01*
X110647046Y-110258568D01*
X110648262Y-110244118D01*
X110649130Y-110229392D01*
X110649651Y-110214389D01*
X110649825Y-110199110D01*
X110649654Y-110183831D01*
X110649142Y-110168831D01*
X110648288Y-110154110D01*
X110647092Y-110139667D01*
X110645555Y-110125503D01*
X110643677Y-110111617D01*
X110641457Y-110098010D01*
X110638895Y-110084682D01*
X110635992Y-110071632D01*
X110632747Y-110058861D01*
X110629160Y-110046368D01*
X110625233Y-110034154D01*
X110620963Y-110022219D01*
X110616352Y-110010562D01*
X110611399Y-109999184D01*
X110606105Y-109988084D01*
X110600467Y-109977259D01*
X110594542Y-109966766D01*
X110588331Y-109956605D01*
X110581834Y-109946776D01*
X110575050Y-109937280D01*
X110567980Y-109928115D01*
X110560625Y-109919282D01*
X110552982Y-109910781D01*
X110545054Y-109902612D01*
X110536840Y-109894776D01*
X110528339Y-109887271D01*
X110519552Y-109880098D01*
X110510478Y-109873257D01*
X110501119Y-109866749D01*
X110491473Y-109860572D01*
X110481541Y-109854727D01*
X110471342Y-109849197D01*
X110460956Y-109844023D01*
X110450383Y-109839206D01*
X110439623Y-109834745D01*
X110428676Y-109830642D01*
X110417542Y-109826895D01*
X110406221Y-109823505D01*
X110394713Y-109820472D01*
X110383018Y-109817796D01*
X110371136Y-109815477D01*
X110359067Y-109813514D01*
X110346811Y-109811909D01*
X110334368Y-109810660D01*
X110321738Y-109809768D01*
X110308921Y-109809232D01*
X110295917Y-109809054D01*
X110280983Y-109809286D01*
X110266344Y-109809981D01*
X110252002Y-109811140D01*
X110237955Y-109812763D01*
X110224204Y-109814850D01*
X110210749Y-109817400D01*
X110197589Y-109820414D01*
X110184725Y-109823892D01*
X110172157Y-109827833D01*
X110159885Y-109832238D01*
X110147909Y-109837107D01*
X110136228Y-109842439D01*
X110124843Y-109848235D01*
X110113754Y-109854495D01*
X110102960Y-109861218D01*
X110092463Y-109868405D01*
X110082252Y-109876016D01*
X110072381Y-109884071D01*
X110062850Y-109892571D01*
X110053658Y-109901515D01*
X110044807Y-109910904D01*
X110036294Y-109920738D01*
X110028122Y-109931016D01*
X110020289Y-109941739D01*
X110012795Y-109952906D01*
X110005642Y-109964518D01*
X109998828Y-109976575D01*
X109992354Y-109989076D01*
X109986219Y-110002022D01*
X109980424Y-110015412D01*
X109974968Y-110029247D01*
X109969853Y-110043527D01*
X110122993Y-110043527D01*
X110130452Y-110032170D01*
X110138357Y-110021545D01*
X110146709Y-110011653D01*
X110155508Y-110002494D01*
X110164753Y-109994068D01*
X110174444Y-109986374D01*
X110184582Y-109979413D01*
X110195167Y-109973185D01*
X110206198Y-109967690D01*
X110217675Y-109962927D01*
X110229599Y-109958897D01*
X110241970Y-109955600D01*
X110254787Y-109953035D01*
X110268050Y-109951203D01*
X110281760Y-109950104D01*
X110295917Y-109949738D01*
X110307142Y-109949991D01*
X110318101Y-109950749D01*
X110328795Y-109952013D01*
X110339224Y-109953783D01*
X110349388Y-109956059D01*
X110359286Y-109958840D01*
X110368920Y-109962126D01*
X110378288Y-109965919D01*
X110387391Y-109970217D01*
X110396228Y-109975021D01*
X110404800Y-109980330D01*
X110413108Y-109986145D01*
X110421150Y-109992466D01*
X110428926Y-109999292D01*
X110436438Y-110006624D01*
X110443684Y-110014462D01*
X110450575Y-110022740D01*
X110457022Y-110031452D01*
X110463024Y-110040600D01*
X110468581Y-110050183D01*
X110473694Y-110060200D01*
X110478362Y-110070653D01*
X110482586Y-110081541D01*
X110486365Y-110092864D01*
X110489700Y-110104622D01*
X110492590Y-110116815D01*
X110495035Y-110129443D01*
X110497036Y-110142506D01*
X110498592Y-110156005D01*
X110499703Y-110169938D01*
X110500370Y-110184306D01*
X110500592Y-110199110D01*
X110500370Y-110213917D01*
X110499703Y-110228297D01*
X110498592Y-110242249D01*
X110497036Y-110255774D01*
X110495035Y-110268872D01*
X110492590Y-110281542D01*
X110489700Y-110293784D01*
X110486365Y-110305600D01*
X110482586Y-110316987D01*
X110478362Y-110327948D01*
X110473694Y-110338481D01*
X110468581Y-110348586D01*
X110463024Y-110358265D01*
X110457022Y-110367515D01*
X110450575Y-110376338D01*
X110443684Y-110384734D01*
X110436409Y-110392631D01*
X110428873Y-110400019D01*
X110421075Y-110406896D01*
X110413016Y-110413265D01*
X110404696Y-110419124D01*
X110396114Y-110424473D01*
X110387270Y-110429313D01*
X110378166Y-110433644D01*
X110368799Y-110437465D01*
X110359172Y-110440777D01*
X110349283Y-110443579D01*
X110339133Y-110445871D01*
X110328721Y-110447655D01*
X110318048Y-110448928D01*
X110307113Y-110449692D01*
X110295917Y-110449947D01*
X110281760Y-110449581D01*
X110268050Y-110448482D01*
X110254787Y-110446650D01*
X110241970Y-110444085D01*
X110229599Y-110440788D01*
X110217675Y-110436758D01*
X110206198Y-110431995D01*
X110195167Y-110426500D01*
X110184582Y-110420272D01*
X110174444Y-110413311D01*
X110164753Y-110405617D01*
X110155508Y-110397191D01*
X110146709Y-110388032D01*
X110138357Y-110378140D01*
X110130452Y-110367515D01*
X110122993Y-110356158D01*
X109969853Y-110356158D01*
X109974968Y-110370438D01*
X109980424Y-110384276D01*
X109986219Y-110397672D01*
X109992354Y-110410624D01*
X109998828Y-110423134D01*
X110005642Y-110435201D01*
X110012795Y-110446825D01*
X110020289Y-110458007D01*
X110028122Y-110468746D01*
X110036294Y-110479043D01*
X110044807Y-110488896D01*
X110053658Y-110498307D01*
X110062850Y-110507276D01*
X110072381Y-110515801D01*
X110082252Y-110523884D01*
X110092463Y-110531524D01*
X110102960Y-110538682D01*
X110113754Y-110545377D01*
X110124843Y-110551611D01*
X110136228Y-110557383D01*
X110147909Y-110562694D01*
X110159885Y-110567542D01*
X110172157Y-110571929D01*
X110184725Y-110575854D01*
X110197589Y-110579318D01*
X110210749Y-110582319D01*
X110224204Y-110584859D01*
X110237955Y-110586937D01*
X110252002Y-110588553D01*
X110266344Y-110589707D01*
X110280983Y-110590400D01*
X110295917Y-110590631D01*
G37*
G36*
X109565446Y-109809232D02*
G01*
X109578263Y-109809768D01*
X109590893Y-109810660D01*
X109603336Y-109811909D01*
X109615592Y-109813514D01*
X109627661Y-109815477D01*
X109639543Y-109817796D01*
X109651238Y-109820472D01*
X109662746Y-109823505D01*
X109674067Y-109826895D01*
X109685201Y-109830642D01*
X109696148Y-109834745D01*
X109706908Y-109839206D01*
X109717481Y-109844023D01*
X109727867Y-109849197D01*
X109738066Y-109854727D01*
X109747998Y-109860572D01*
X109757644Y-109866749D01*
X109767003Y-109873257D01*
X109776076Y-109880098D01*
X109784863Y-109887271D01*
X109793364Y-109894776D01*
X109801579Y-109902612D01*
X109809507Y-109910781D01*
X109817149Y-109919282D01*
X109824505Y-109928115D01*
X109831575Y-109937280D01*
X109838358Y-109946776D01*
X109844856Y-109956605D01*
X109851067Y-109966766D01*
X109856991Y-109977259D01*
X109862630Y-109988084D01*
X109867924Y-109999184D01*
X109872877Y-110010562D01*
X109877488Y-110022219D01*
X109881757Y-110034154D01*
X109885685Y-110046368D01*
X109889272Y-110058861D01*
X109892516Y-110071632D01*
X109895420Y-110084682D01*
X109897981Y-110098010D01*
X109900201Y-110111617D01*
X109902080Y-110125503D01*
X109903617Y-110139667D01*
X109904812Y-110154110D01*
X109905666Y-110168831D01*
X109906179Y-110183831D01*
X109906350Y-110199110D01*
X109906176Y-110214389D01*
X109905655Y-110229392D01*
X109904787Y-110244118D01*
X109903571Y-110258568D01*
X109902008Y-110272740D01*
X109900098Y-110286636D01*
X109897841Y-110300256D01*
X109895236Y-110313599D01*
X109892285Y-110326665D01*
X109888985Y-110339454D01*
X109885339Y-110351967D01*
X109881345Y-110364203D01*
X109877004Y-110376162D01*
X109872316Y-110387845D01*
X109867280Y-110399251D01*
X109861897Y-110410380D01*
X109856173Y-110421179D01*
X109850174Y-110431656D01*
X109843900Y-110441810D01*
X109837351Y-110451642D01*
X109830527Y-110461151D01*
X109823429Y-110470338D01*
X109816056Y-110479202D01*
X109808408Y-110487744D01*
X109800485Y-110495963D01*
X109792288Y-110503860D01*
X109783816Y-110511434D01*
X109775069Y-110518686D01*
X109766047Y-110525616D01*
X109756751Y-110532223D01*
X109747179Y-110538507D01*
X109737333Y-110544469D01*
X109727252Y-110550059D01*
X109716974Y-110555288D01*
X109706499Y-110560157D01*
X109695827Y-110564665D01*
X109684960Y-110568812D01*
X109673895Y-110572599D01*
X109662634Y-110576025D01*
X109651177Y-110579091D01*
X109639523Y-110581795D01*
X109627672Y-110584140D01*
X109615625Y-110586123D01*
X109603382Y-110587746D01*
X109590941Y-110589008D01*
X109578305Y-110589910D01*
X109565471Y-110590451D01*
X109552442Y-110590631D01*
X109539441Y-110590451D01*
X109526636Y-110589910D01*
X109514025Y-110589008D01*
X109501609Y-110587746D01*
X109489387Y-110586123D01*
X109477360Y-110584140D01*
X109465527Y-110581795D01*
X109453890Y-110579091D01*
X109442446Y-110576025D01*
X109431198Y-110572599D01*
X109420144Y-110568812D01*
X109409285Y-110564665D01*
X109398620Y-110560157D01*
X109388150Y-110555288D01*
X109377875Y-110550059D01*
X109367794Y-110544469D01*
X109357919Y-110538507D01*
X109348323Y-110532223D01*
X109339006Y-110525616D01*
X109329967Y-110518686D01*
X109321207Y-110511434D01*
X109312725Y-110503860D01*
X109304522Y-110495963D01*
X109296597Y-110487744D01*
X109288951Y-110479202D01*
X109281584Y-110470338D01*
X109274495Y-110461151D01*
X109267685Y-110451642D01*
X109261153Y-110441810D01*
X109254900Y-110431656D01*
X109248926Y-110421179D01*
X109243230Y-110410380D01*
X109237818Y-110399251D01*
X109232754Y-110387845D01*
X109228040Y-110376162D01*
X109223675Y-110364203D01*
X109219660Y-110351967D01*
X109215993Y-110339454D01*
X109212676Y-110326665D01*
X109209708Y-110313599D01*
X109207089Y-110300256D01*
X109204819Y-110286636D01*
X109202899Y-110272740D01*
X109201327Y-110258568D01*
X109200105Y-110244118D01*
X109199232Y-110229392D01*
X109198708Y-110214389D01*
X109198534Y-110199110D01*
X109347766Y-110199110D01*
X109347988Y-110214092D01*
X109348655Y-110228629D01*
X109349767Y-110242721D01*
X109351323Y-110256369D01*
X109353324Y-110269573D01*
X109355769Y-110282332D01*
X109358659Y-110294646D01*
X109361993Y-110306516D01*
X109365772Y-110317941D01*
X109369996Y-110328921D01*
X109374664Y-110339457D01*
X109379777Y-110349548D01*
X109385335Y-110359195D01*
X109391337Y-110368397D01*
X109397783Y-110377154D01*
X109404675Y-110385467D01*
X109411921Y-110393275D01*
X109419432Y-110400580D01*
X109427209Y-110407380D01*
X109435251Y-110413677D01*
X109443558Y-110419470D01*
X109452130Y-110424760D01*
X109460968Y-110429545D01*
X109470071Y-110433827D01*
X109479439Y-110437605D01*
X109489072Y-110440880D01*
X109498971Y-110443650D01*
X109509134Y-110445917D01*
X109519563Y-110447680D01*
X109530257Y-110448940D01*
X109541217Y-110449695D01*
X109552442Y-110449947D01*
X109563666Y-110449695D01*
X109574626Y-110448940D01*
X109585320Y-110447680D01*
X109595749Y-110445917D01*
X109605913Y-110443650D01*
X109615811Y-110440880D01*
X109625444Y-110437605D01*
X109634813Y-110433827D01*
X109643915Y-110429545D01*
X109652753Y-110424760D01*
X109661325Y-110419470D01*
X109669632Y-110413677D01*
X109677674Y-110407380D01*
X109685451Y-110400580D01*
X109692962Y-110393275D01*
X109700209Y-110385467D01*
X109707100Y-110377154D01*
X109713546Y-110368397D01*
X109719549Y-110359195D01*
X109725106Y-110349548D01*
X109730219Y-110339457D01*
X109734887Y-110328921D01*
X109739111Y-110317941D01*
X109742890Y-110306516D01*
X109746224Y-110294646D01*
X109749114Y-110282332D01*
X109751560Y-110269573D01*
X109753560Y-110256369D01*
X109755116Y-110242721D01*
X109756228Y-110228629D01*
X109756895Y-110214092D01*
X109757117Y-110199110D01*
X109756895Y-110184306D01*
X109756228Y-110169938D01*
X109755116Y-110156005D01*
X109753560Y-110142506D01*
X109751560Y-110129443D01*
X109749114Y-110116815D01*
X109746224Y-110104622D01*
X109742890Y-110092864D01*
X109739111Y-110081541D01*
X109734887Y-110070653D01*
X109730219Y-110060200D01*
X109725106Y-110050183D01*
X109719549Y-110040600D01*
X109713546Y-110031452D01*
X109707100Y-110022740D01*
X109700209Y-110014462D01*
X109692962Y-110006624D01*
X109685451Y-109999292D01*
X109677674Y-109992466D01*
X109669632Y-109986145D01*
X109661325Y-109980330D01*
X109652753Y-109975021D01*
X109643915Y-109970217D01*
X109634813Y-109965919D01*
X109625444Y-109962126D01*
X109615811Y-109958840D01*
X109605913Y-109956059D01*
X109595749Y-109953783D01*
X109585320Y-109952013D01*
X109574626Y-109950749D01*
X109563666Y-109949991D01*
X109552442Y-109949738D01*
X109541217Y-109949991D01*
X109530257Y-109950749D01*
X109519563Y-109952013D01*
X109509134Y-109953783D01*
X109498971Y-109956059D01*
X109489072Y-109958840D01*
X109479439Y-109962126D01*
X109470071Y-109965919D01*
X109460968Y-109970217D01*
X109452130Y-109975021D01*
X109443558Y-109980330D01*
X109435251Y-109986145D01*
X109427209Y-109992466D01*
X109419432Y-109999292D01*
X109411921Y-110006624D01*
X109404675Y-110014462D01*
X109397783Y-110022740D01*
X109391337Y-110031452D01*
X109385335Y-110040600D01*
X109379777Y-110050183D01*
X109374664Y-110060200D01*
X109369996Y-110070653D01*
X109365772Y-110081541D01*
X109361993Y-110092864D01*
X109358659Y-110104622D01*
X109355769Y-110116815D01*
X109353324Y-110129443D01*
X109351323Y-110142506D01*
X109349767Y-110156005D01*
X109348655Y-110169938D01*
X109347988Y-110184306D01*
X109347766Y-110199110D01*
X109198534Y-110199110D01*
X109198705Y-110183831D01*
X109199221Y-110168831D01*
X109200079Y-110154110D01*
X109201281Y-110139667D01*
X109202827Y-110125503D01*
X109204716Y-110111617D01*
X109206949Y-110098010D01*
X109209525Y-110084682D01*
X109212444Y-110071632D01*
X109215707Y-110058861D01*
X109219313Y-110046368D01*
X109223263Y-110034154D01*
X109227557Y-110022219D01*
X109232193Y-110010562D01*
X109237174Y-109999184D01*
X109242497Y-109988084D01*
X109248137Y-109977259D01*
X109254065Y-109966766D01*
X109260280Y-109956605D01*
X109266784Y-109946776D01*
X109273576Y-109937280D01*
X109280657Y-109928115D01*
X109288025Y-109919282D01*
X109295681Y-109910781D01*
X109303626Y-109902612D01*
X109311859Y-109894776D01*
X109320379Y-109887271D01*
X109329188Y-109880098D01*
X109338285Y-109873257D01*
X109347671Y-109866749D01*
X109357344Y-109860572D01*
X109367306Y-109854727D01*
X109377474Y-109849197D01*
X109387830Y-109844023D01*
X109398372Y-109839206D01*
X109409102Y-109834745D01*
X109420018Y-109830642D01*
X109431122Y-109826895D01*
X109442412Y-109823505D01*
X109453890Y-109820472D01*
X109465554Y-109817796D01*
X109477406Y-109815477D01*
X109489444Y-109813514D01*
X109501670Y-109811909D01*
X109514082Y-109810660D01*
X109526682Y-109809768D01*
X109539468Y-109809232D01*
X109552442Y-109809054D01*
X109565446Y-109809232D01*
G37*
G36*
X108702623Y-109809173D02*
G01*
X108716882Y-109809799D01*
X108730839Y-109810962D01*
X108744496Y-109812662D01*
X108757853Y-109814898D01*
X108770909Y-109817670D01*
X108783664Y-109820980D01*
X108796119Y-109824826D01*
X108808274Y-109829209D01*
X108820128Y-109834128D01*
X108831681Y-109839584D01*
X108839154Y-109843443D01*
X108849996Y-109849502D01*
X108860395Y-109855887D01*
X108870352Y-109862599D01*
X108879866Y-109869638D01*
X108888939Y-109877002D01*
X108897569Y-109884693D01*
X108905757Y-109892710D01*
X108913503Y-109901053D01*
X108920807Y-109909723D01*
X108924899Y-109915089D01*
X108941102Y-109824685D01*
X109065177Y-109824685D01*
X109065177Y-110856367D01*
X108915945Y-110856367D01*
X108916665Y-110494103D01*
X108916248Y-110494619D01*
X108909392Y-110502434D01*
X108902115Y-110510000D01*
X108894417Y-110517318D01*
X108886298Y-110524386D01*
X108877758Y-110531205D01*
X108868798Y-110537775D01*
X108859417Y-110544097D01*
X108849616Y-110550169D01*
X108839393Y-110555992D01*
X108828750Y-110561566D01*
X108821436Y-110565086D01*
X108810172Y-110569939D01*
X108798556Y-110574282D01*
X108786587Y-110578114D01*
X108774267Y-110581435D01*
X108761594Y-110584245D01*
X108748570Y-110586544D01*
X108735193Y-110588332D01*
X108721464Y-110589609D01*
X108707384Y-110590376D01*
X108692951Y-110590631D01*
X108681159Y-110590453D01*
X108669534Y-110589917D01*
X108658078Y-110589025D01*
X108646789Y-110587776D01*
X108635668Y-110586171D01*
X108624716Y-110584208D01*
X108613931Y-110581889D01*
X108603314Y-110579213D01*
X108592865Y-110576180D01*
X108582584Y-110572790D01*
X108572471Y-110569043D01*
X108562525Y-110564940D01*
X108552748Y-110560479D01*
X108543139Y-110555662D01*
X108533697Y-110550488D01*
X108524423Y-110544958D01*
X108515328Y-110539081D01*
X108506483Y-110532871D01*
X108497888Y-110526327D01*
X108489543Y-110519450D01*
X108481447Y-110512238D01*
X108473602Y-110504692D01*
X108466007Y-110496812D01*
X108458661Y-110488599D01*
X108451566Y-110480051D01*
X108444720Y-110471170D01*
X108438125Y-110461954D01*
X108431779Y-110452405D01*
X108425684Y-110442522D01*
X108419838Y-110432304D01*
X108414242Y-110421753D01*
X108408897Y-110410868D01*
X108403839Y-110399651D01*
X108399108Y-110388165D01*
X108394703Y-110376410D01*
X108390624Y-110364386D01*
X108386872Y-110352093D01*
X108383446Y-110339530D01*
X108380346Y-110326699D01*
X108377572Y-110313599D01*
X108375125Y-110300229D01*
X108373004Y-110286591D01*
X108371210Y-110272683D01*
X108369741Y-110258507D01*
X108368599Y-110244061D01*
X108367784Y-110229346D01*
X108367294Y-110214363D01*
X108367131Y-110199110D01*
X108516608Y-110199110D01*
X108516822Y-110214092D01*
X108517466Y-110228629D01*
X108518540Y-110242721D01*
X108520042Y-110256369D01*
X108521974Y-110269573D01*
X108524336Y-110282332D01*
X108527126Y-110294646D01*
X108530346Y-110306516D01*
X108533996Y-110317941D01*
X108538074Y-110328921D01*
X108542582Y-110339457D01*
X108547520Y-110349548D01*
X108552886Y-110359195D01*
X108558682Y-110368397D01*
X108564908Y-110377154D01*
X108571562Y-110385467D01*
X108578536Y-110393275D01*
X108585778Y-110400580D01*
X108593289Y-110407380D01*
X108601070Y-110413677D01*
X108609119Y-110419470D01*
X108617438Y-110424760D01*
X108626026Y-110429545D01*
X108634882Y-110433827D01*
X108644008Y-110437605D01*
X108653403Y-110440880D01*
X108663067Y-110443650D01*
X108672999Y-110445917D01*
X108683201Y-110447680D01*
X108693672Y-110448940D01*
X108704412Y-110449695D01*
X108715421Y-110449947D01*
X108726609Y-110449697D01*
X108737518Y-110448947D01*
X108748148Y-110447697D01*
X108758500Y-110445948D01*
X108768573Y-110443698D01*
X108778367Y-110440948D01*
X108787883Y-110437699D01*
X108797121Y-110433949D01*
X108806079Y-110429700D01*
X108814760Y-110424950D01*
X108823161Y-110419701D01*
X108831284Y-110413952D01*
X108839128Y-110407703D01*
X108846694Y-110400954D01*
X108853981Y-110393705D01*
X108860990Y-110385956D01*
X108867645Y-110377727D01*
X108873870Y-110369038D01*
X108879666Y-110359889D01*
X108885033Y-110350281D01*
X108889970Y-110340212D01*
X108894478Y-110329684D01*
X108898557Y-110318696D01*
X108902206Y-110307248D01*
X108905426Y-110295340D01*
X108908217Y-110282973D01*
X108910578Y-110270145D01*
X108912510Y-110256858D01*
X108914013Y-110243111D01*
X108915086Y-110228904D01*
X108915730Y-110214237D01*
X108915945Y-110199110D01*
X108915730Y-110184160D01*
X108915086Y-110169659D01*
X108914013Y-110155607D01*
X108912510Y-110142003D01*
X108910578Y-110128847D01*
X108908217Y-110116140D01*
X108905426Y-110103881D01*
X108902206Y-110092070D01*
X108898557Y-110080708D01*
X108894478Y-110069795D01*
X108889970Y-110059329D01*
X108885033Y-110049313D01*
X108879666Y-110039744D01*
X108873870Y-110030624D01*
X108867645Y-110021953D01*
X108860990Y-110013729D01*
X108853981Y-110005980D01*
X108846694Y-109998731D01*
X108839128Y-109991982D01*
X108831284Y-109985733D01*
X108823161Y-109979984D01*
X108814760Y-109974735D01*
X108806079Y-109969985D01*
X108797121Y-109965736D01*
X108787883Y-109961986D01*
X108778367Y-109958737D01*
X108768573Y-109955987D01*
X108758500Y-109953737D01*
X108748148Y-109951988D01*
X108737518Y-109950738D01*
X108726609Y-109949988D01*
X108715421Y-109949738D01*
X108704412Y-109949988D01*
X108693672Y-109950738D01*
X108683201Y-109951988D01*
X108672999Y-109953737D01*
X108663067Y-109955987D01*
X108653403Y-109958737D01*
X108644008Y-109961986D01*
X108634882Y-109965736D01*
X108626026Y-109969985D01*
X108617438Y-109974735D01*
X108609119Y-109979984D01*
X108601070Y-109985733D01*
X108593289Y-109991982D01*
X108585778Y-109998731D01*
X108578536Y-110005980D01*
X108571562Y-110013729D01*
X108564908Y-110021953D01*
X108558682Y-110030624D01*
X108552886Y-110039744D01*
X108547520Y-110049313D01*
X108542582Y-110059329D01*
X108538074Y-110069795D01*
X108533996Y-110080708D01*
X108530346Y-110092070D01*
X108527126Y-110103881D01*
X108524336Y-110116140D01*
X108521974Y-110128847D01*
X108520042Y-110142003D01*
X108518540Y-110155607D01*
X108517466Y-110169659D01*
X108516822Y-110184160D01*
X108516608Y-110199110D01*
X108367131Y-110199110D01*
X108367294Y-110183861D01*
X108367784Y-110168889D01*
X108368599Y-110154193D01*
X108369741Y-110139774D01*
X108371210Y-110125632D01*
X108373004Y-110111766D01*
X108375125Y-110098177D01*
X108377572Y-110084865D01*
X108380346Y-110071830D01*
X108383446Y-110059071D01*
X108386872Y-110046589D01*
X108390624Y-110034383D01*
X108394703Y-110022454D01*
X108399108Y-110010802D01*
X108403839Y-109999427D01*
X108408897Y-109988328D01*
X108414242Y-109977502D01*
X108419838Y-109967007D01*
X108425684Y-109956841D01*
X108431779Y-109947005D01*
X108438125Y-109937500D01*
X108444720Y-109928325D01*
X108451566Y-109919479D01*
X108458661Y-109910964D01*
X108466007Y-109902779D01*
X108473602Y-109894924D01*
X108481447Y-109887400D01*
X108489543Y-109880205D01*
X108497888Y-109873340D01*
X108506483Y-109866806D01*
X108515328Y-109860602D01*
X108524423Y-109854727D01*
X108533697Y-109849197D01*
X108543139Y-109844023D01*
X108552748Y-109839206D01*
X108562525Y-109834745D01*
X108572471Y-109830642D01*
X108582584Y-109826895D01*
X108592865Y-109823505D01*
X108603314Y-109820472D01*
X108613931Y-109817796D01*
X108624716Y-109815477D01*
X108635668Y-109813514D01*
X108646789Y-109811909D01*
X108658078Y-109810660D01*
X108669534Y-109809768D01*
X108681159Y-109809232D01*
X108692951Y-109809054D01*
X108702623Y-109809173D01*
G37*
G36*
X108002965Y-110856367D02*
G01*
X108160502Y-110856367D01*
X108044975Y-110567428D01*
X108350523Y-109824685D01*
X108190055Y-109824685D01*
X107964863Y-110381315D01*
X107968771Y-110381315D01*
X107752128Y-109824685D01*
X107594591Y-109824685D01*
X108002965Y-110856367D01*
G37*
G36*
X107520585Y-110575000D02*
G01*
X107520585Y-109824685D01*
X107396510Y-109824685D01*
X107379657Y-109918719D01*
X107383565Y-109918719D01*
X107377773Y-109909792D01*
X107371664Y-109901328D01*
X107365237Y-109893328D01*
X107358492Y-109885792D01*
X107351430Y-109878719D01*
X107344049Y-109872111D01*
X107336351Y-109865965D01*
X107328336Y-109860284D01*
X107320002Y-109855066D01*
X107311351Y-109850312D01*
X107305407Y-109847400D01*
X107296168Y-109843341D01*
X107286585Y-109839681D01*
X107276659Y-109836420D01*
X107266390Y-109833558D01*
X107255777Y-109831096D01*
X107244820Y-109829033D01*
X107233520Y-109827370D01*
X107221876Y-109826105D01*
X107209889Y-109825240D01*
X107197559Y-109824774D01*
X107189148Y-109824685D01*
X107099755Y-109824685D01*
X107099755Y-109965369D01*
X107184996Y-109965369D01*
X107195196Y-109965559D01*
X107205157Y-109966129D01*
X107219652Y-109967695D01*
X107233611Y-109970116D01*
X107247032Y-109973391D01*
X107259917Y-109977520D01*
X107272266Y-109982504D01*
X107284077Y-109988342D01*
X107295352Y-109995035D01*
X107306091Y-110002582D01*
X107316292Y-110010983D01*
X107319574Y-110013974D01*
X107328827Y-110023303D01*
X107337170Y-110033156D01*
X107344604Y-110043533D01*
X107351127Y-110054434D01*
X107356739Y-110065859D01*
X107361442Y-110077807D01*
X107365235Y-110090279D01*
X107368117Y-110103275D01*
X107370089Y-110116795D01*
X107371151Y-110130838D01*
X107371353Y-110140491D01*
X107371353Y-110575000D01*
X107520585Y-110575000D01*
G37*
G36*
X106853558Y-110575000D02*
G01*
X107002791Y-110575000D01*
X107002791Y-109824685D01*
X106853558Y-109824685D01*
X106853558Y-110575000D01*
G37*
G36*
X106928785Y-109719173D02*
G01*
X106940512Y-109718517D01*
X106951726Y-109716549D01*
X106962427Y-109713269D01*
X106972615Y-109708678D01*
X106982291Y-109702774D01*
X106991453Y-109695559D01*
X106994975Y-109692306D01*
X107002926Y-109683624D01*
X107009529Y-109674369D01*
X107014785Y-109664542D01*
X107018693Y-109654143D01*
X107021254Y-109643171D01*
X107022466Y-109631627D01*
X107022574Y-109626849D01*
X107022143Y-109617087D01*
X107020391Y-109605421D01*
X107017292Y-109594351D01*
X107012844Y-109583878D01*
X107007050Y-109574001D01*
X106999907Y-109564720D01*
X106994975Y-109559438D01*
X106986017Y-109551416D01*
X106976547Y-109544755D01*
X106966564Y-109539452D01*
X106956068Y-109535510D01*
X106945059Y-109532926D01*
X106933537Y-109531703D01*
X106928785Y-109531594D01*
X106917064Y-109532274D01*
X106905868Y-109534313D01*
X106895197Y-109537712D01*
X106885050Y-109542470D01*
X106875428Y-109548588D01*
X106866331Y-109556066D01*
X106862839Y-109559438D01*
X106854888Y-109568361D01*
X106848285Y-109577880D01*
X106843029Y-109587996D01*
X106839121Y-109598707D01*
X106836561Y-109610016D01*
X106835348Y-109621920D01*
X106835240Y-109626849D01*
X106835914Y-109638558D01*
X106837935Y-109649718D01*
X106841304Y-109660330D01*
X106846021Y-109670393D01*
X106852085Y-109679907D01*
X106859497Y-109688873D01*
X106862839Y-109692306D01*
X106871727Y-109700046D01*
X106881139Y-109706474D01*
X106891075Y-109711590D01*
X106901537Y-109715394D01*
X106912523Y-109717887D01*
X106924034Y-109719068D01*
X106928785Y-109719173D01*
G37*
G36*
X106404954Y-109809220D02*
G01*
X106416581Y-109809718D01*
X106428042Y-109810548D01*
X106439338Y-109811710D01*
X106450467Y-109813204D01*
X106461430Y-109815030D01*
X106472227Y-109817188D01*
X106482859Y-109819678D01*
X106493324Y-109822501D01*
X106503623Y-109825655D01*
X106513756Y-109829141D01*
X106523723Y-109832959D01*
X106533525Y-109837109D01*
X106543160Y-109841592D01*
X106552629Y-109846406D01*
X106561932Y-109851552D01*
X106570995Y-109856985D01*
X106579804Y-109862719D01*
X106588359Y-109868754D01*
X106596660Y-109875091D01*
X106604708Y-109881730D01*
X106612502Y-109888669D01*
X106620042Y-109895911D01*
X106627328Y-109903454D01*
X106634361Y-109911298D01*
X106641139Y-109919444D01*
X106647664Y-109927891D01*
X106653935Y-109936640D01*
X106659953Y-109945691D01*
X106665716Y-109955042D01*
X106671226Y-109964696D01*
X106676482Y-109974651D01*
X106681451Y-109984879D01*
X106686099Y-109995354D01*
X106690427Y-110006075D01*
X106694434Y-110017042D01*
X106698120Y-110028255D01*
X106701486Y-110039715D01*
X106704532Y-110051420D01*
X106707257Y-110063372D01*
X106709661Y-110075570D01*
X106711745Y-110088014D01*
X106713508Y-110100704D01*
X106714950Y-110113640D01*
X106716072Y-110126822D01*
X106716874Y-110140251D01*
X106717355Y-110153926D01*
X106717515Y-110167847D01*
X106717355Y-110181770D01*
X106716874Y-110195454D01*
X106716072Y-110208897D01*
X106714950Y-110222099D01*
X106713508Y-110235061D01*
X106711745Y-110247783D01*
X106709661Y-110260264D01*
X106707257Y-110272505D01*
X106704532Y-110284505D01*
X106701486Y-110296265D01*
X106698120Y-110307784D01*
X106694434Y-110319064D01*
X106690427Y-110330102D01*
X106686099Y-110340900D01*
X106681451Y-110351458D01*
X106676482Y-110361775D01*
X106671226Y-110371820D01*
X106665716Y-110381559D01*
X106659953Y-110390993D01*
X106653935Y-110400122D01*
X106647664Y-110408945D01*
X106641139Y-110417463D01*
X106634361Y-110425676D01*
X106627328Y-110433583D01*
X106620042Y-110441185D01*
X106612502Y-110448482D01*
X106604708Y-110455473D01*
X106596660Y-110462159D01*
X106588359Y-110468540D01*
X106579804Y-110474616D01*
X106570995Y-110480386D01*
X106561932Y-110485851D01*
X106552629Y-110490968D01*
X106543160Y-110495754D01*
X106533525Y-110500211D01*
X106523723Y-110504337D01*
X106513756Y-110508133D01*
X106503623Y-110511599D01*
X106493324Y-110514735D01*
X106482859Y-110517541D01*
X106472227Y-110520017D01*
X106461430Y-110522163D01*
X106450467Y-110523979D01*
X106439338Y-110525464D01*
X106428042Y-110526619D01*
X106416581Y-110527445D01*
X106404954Y-110527940D01*
X106393160Y-110528105D01*
X106383881Y-110527998D01*
X106370198Y-110527437D01*
X106356799Y-110526395D01*
X106343683Y-110524872D01*
X106330850Y-110522869D01*
X106318300Y-110520385D01*
X106306034Y-110517419D01*
X106294052Y-110513973D01*
X106282352Y-110510046D01*
X106270936Y-110505638D01*
X106259804Y-110500750D01*
X106252579Y-110497249D01*
X106242124Y-110491809D01*
X106232128Y-110486141D01*
X106222592Y-110480245D01*
X106213515Y-110474122D01*
X106204898Y-110467772D01*
X106196740Y-110461194D01*
X106189041Y-110454388D01*
X106181802Y-110447355D01*
X106175022Y-110440094D01*
X106172398Y-110436985D01*
X106173098Y-110544469D01*
X106173147Y-110549621D01*
X106173546Y-110559696D01*
X106174344Y-110569466D01*
X106176288Y-110583548D01*
X106179129Y-110596943D01*
X106182868Y-110609651D01*
X106187504Y-110621673D01*
X106193038Y-110633007D01*
X106199468Y-110643655D01*
X106206796Y-110653615D01*
X106215022Y-110662889D01*
X106224144Y-110671475D01*
X106227371Y-110674195D01*
X106237490Y-110681837D01*
X106248265Y-110688701D01*
X106259698Y-110694788D01*
X106271787Y-110700098D01*
X106284533Y-110704631D01*
X106297936Y-110708387D01*
X106311996Y-110711366D01*
X106321735Y-110712920D01*
X106331765Y-110714129D01*
X106342087Y-110714993D01*
X106352701Y-110715511D01*
X106363607Y-110715683D01*
X106372395Y-110715578D01*
X106385216Y-110715027D01*
X106397603Y-110714004D01*
X106409556Y-110712509D01*
X106421076Y-110710541D01*
X106432162Y-110708101D01*
X106442814Y-110705189D01*
X106453033Y-110701804D01*
X106462818Y-110697947D01*
X106472170Y-110693618D01*
X106481088Y-110688817D01*
X106486793Y-110685346D01*
X106494993Y-110679717D01*
X106502764Y-110673582D01*
X106510106Y-110666940D01*
X106517018Y-110659792D01*
X106523501Y-110652137D01*
X106529555Y-110643975D01*
X106535179Y-110635307D01*
X106540374Y-110626132D01*
X106545140Y-110616451D01*
X106549476Y-110606263D01*
X106706035Y-110606263D01*
X106701170Y-110621795D01*
X106695915Y-110636823D01*
X106690270Y-110651348D01*
X106684237Y-110665369D01*
X106677814Y-110678887D01*
X106671002Y-110691900D01*
X106663801Y-110704410D01*
X106656210Y-110716416D01*
X106648230Y-110727918D01*
X106639861Y-110738917D01*
X106631103Y-110749412D01*
X106621955Y-110759403D01*
X106612418Y-110768890D01*
X106602492Y-110777874D01*
X106592176Y-110786354D01*
X106581472Y-110794330D01*
X106570374Y-110801842D01*
X106558940Y-110808870D01*
X106547171Y-110815413D01*
X106535065Y-110821471D01*
X106522624Y-110827045D01*
X106509847Y-110832134D01*
X106496735Y-110836738D01*
X106483286Y-110840858D01*
X106469502Y-110844493D01*
X106455381Y-110847643D01*
X106440925Y-110850309D01*
X106426133Y-110852490D01*
X106411005Y-110854186D01*
X106395542Y-110855398D01*
X106379742Y-110856125D01*
X106363607Y-110856367D01*
X106344174Y-110856051D01*
X106325261Y-110855104D01*
X106306866Y-110853525D01*
X106288991Y-110851314D01*
X106271634Y-110848472D01*
X106254797Y-110844999D01*
X106238478Y-110840893D01*
X106222679Y-110836156D01*
X106207398Y-110830788D01*
X106192637Y-110824787D01*
X106178395Y-110818156D01*
X106164671Y-110810892D01*
X106151467Y-110802997D01*
X106138781Y-110794471D01*
X106126615Y-110785313D01*
X106114968Y-110775523D01*
X106103936Y-110765165D01*
X106093616Y-110754300D01*
X106084007Y-110742931D01*
X106075110Y-110731055D01*
X106066925Y-110718674D01*
X106059452Y-110705788D01*
X106052691Y-110692395D01*
X106046641Y-110678497D01*
X106041303Y-110664094D01*
X106036677Y-110649184D01*
X106032762Y-110633769D01*
X106029559Y-110617849D01*
X106027068Y-110601423D01*
X106025289Y-110584491D01*
X106024221Y-110567053D01*
X106023865Y-110549110D01*
X106023865Y-110167847D01*
X106173098Y-110167847D01*
X106173309Y-110180701D01*
X106173945Y-110193191D01*
X106175004Y-110205316D01*
X106176486Y-110217077D01*
X106178393Y-110228473D01*
X106180723Y-110239505D01*
X106183476Y-110250173D01*
X106186653Y-110260476D01*
X106190254Y-110270414D01*
X106194278Y-110279988D01*
X106198726Y-110289198D01*
X106203597Y-110298043D01*
X106208893Y-110306524D01*
X106214611Y-110314640D01*
X106220754Y-110322392D01*
X106227319Y-110329780D01*
X106237752Y-110340081D01*
X106248806Y-110349369D01*
X106260483Y-110357643D01*
X106272783Y-110364905D01*
X106285705Y-110371153D01*
X106299250Y-110376388D01*
X106308626Y-110379315D01*
X106318278Y-110381792D01*
X106328207Y-110383818D01*
X106338413Y-110385395D01*
X106348895Y-110386520D01*
X106359654Y-110387196D01*
X106370690Y-110387421D01*
X106376243Y-110387365D01*
X106387142Y-110386914D01*
X106397767Y-110386014D01*
X106408116Y-110384663D01*
X106418191Y-110382861D01*
X106427992Y-110380610D01*
X106437517Y-110377908D01*
X106446768Y-110374756D01*
X106460129Y-110369183D01*
X106472871Y-110362597D01*
X106484996Y-110354998D01*
X106496502Y-110346385D01*
X106507390Y-110336760D01*
X106514305Y-110329780D01*
X106520841Y-110322392D01*
X106526956Y-110314640D01*
X106532649Y-110306524D01*
X106537920Y-110298043D01*
X106542770Y-110289198D01*
X106547197Y-110279988D01*
X106551204Y-110270414D01*
X106554788Y-110260476D01*
X106557951Y-110250173D01*
X106560692Y-110239505D01*
X106563011Y-110228473D01*
X106564909Y-110217077D01*
X106566385Y-110205316D01*
X106567439Y-110193191D01*
X106568072Y-110180701D01*
X106568283Y-110167847D01*
X106568072Y-110155170D01*
X106567439Y-110142846D01*
X106566385Y-110130875D01*
X106564909Y-110119258D01*
X106563011Y-110107993D01*
X106560692Y-110097081D01*
X106557951Y-110086522D01*
X106554788Y-110076317D01*
X106551204Y-110066464D01*
X106547197Y-110056964D01*
X106542770Y-110047818D01*
X106537920Y-110039024D01*
X106532649Y-110030583D01*
X106526956Y-110022495D01*
X106520841Y-110014761D01*
X106514305Y-110007379D01*
X106503829Y-109997078D01*
X106492735Y-109987790D01*
X106481023Y-109979515D01*
X106468692Y-109972254D01*
X106455744Y-109966006D01*
X106442177Y-109960771D01*
X106432789Y-109957844D01*
X106423126Y-109955367D01*
X106413188Y-109953340D01*
X106402976Y-109951764D01*
X106392489Y-109950638D01*
X106381727Y-109949963D01*
X106370690Y-109949738D01*
X106359654Y-109949963D01*
X106348895Y-109950638D01*
X106338413Y-109951764D01*
X106328207Y-109953340D01*
X106318278Y-109955367D01*
X106308626Y-109957844D01*
X106294666Y-109962403D01*
X106281329Y-109967976D01*
X106268614Y-109974562D01*
X106256522Y-109982161D01*
X106245052Y-109990773D01*
X106234205Y-110000399D01*
X106227319Y-110007379D01*
X106220754Y-110014761D01*
X106214611Y-110022495D01*
X106208893Y-110030583D01*
X106203597Y-110039024D01*
X106198726Y-110047818D01*
X106194278Y-110056964D01*
X106190254Y-110066464D01*
X106186653Y-110076317D01*
X106183476Y-110086522D01*
X106180723Y-110097081D01*
X106178393Y-110107993D01*
X106176486Y-110119258D01*
X106175004Y-110130875D01*
X106173945Y-110142846D01*
X106173309Y-110155170D01*
X106173098Y-110167847D01*
X106023865Y-110167847D01*
X106023865Y-109824685D01*
X106147696Y-109824685D01*
X106163946Y-109909942D01*
X106165900Y-109907544D01*
X106173061Y-109899433D01*
X106180669Y-109891593D01*
X106188723Y-109884023D01*
X106197224Y-109876724D01*
X106206172Y-109869695D01*
X106215565Y-109862936D01*
X106225406Y-109856448D01*
X106235692Y-109850231D01*
X106246426Y-109844284D01*
X106257606Y-109838607D01*
X106265262Y-109835029D01*
X106276951Y-109830093D01*
X106288884Y-109825678D01*
X106301062Y-109821782D01*
X106313485Y-109818405D01*
X106326152Y-109815548D01*
X106339064Y-109813210D01*
X106352221Y-109811392D01*
X106365623Y-109810093D01*
X106379269Y-109809314D01*
X106393160Y-109809054D01*
X106404954Y-109809220D01*
G37*
G36*
X105847766Y-110575000D02*
G01*
X105847766Y-109574581D01*
X105698534Y-109574581D01*
X105699266Y-109911147D01*
X105703419Y-109910415D01*
X105696684Y-109901200D01*
X105689671Y-109892423D01*
X105682379Y-109884084D01*
X105674808Y-109876183D01*
X105666957Y-109868719D01*
X105658828Y-109861694D01*
X105650420Y-109855107D01*
X105641732Y-109848957D01*
X105632765Y-109843246D01*
X105623520Y-109837972D01*
X105617201Y-109834699D01*
X105607492Y-109830116D01*
X105597509Y-109825984D01*
X105587251Y-109822302D01*
X105576718Y-109819072D01*
X105565910Y-109816292D01*
X105554827Y-109813963D01*
X105543470Y-109812084D01*
X105531838Y-109810657D01*
X105519931Y-109809680D01*
X105507750Y-109809154D01*
X105499476Y-109809054D01*
X105489644Y-109809196D01*
X105475122Y-109809942D01*
X105460870Y-109811328D01*
X105446889Y-109813354D01*
X105433178Y-109816020D01*
X105419738Y-109819325D01*
X105406568Y-109823270D01*
X105393669Y-109827854D01*
X105381040Y-109833078D01*
X105368682Y-109838942D01*
X105356594Y-109845446D01*
X105344827Y-109852512D01*
X105333524Y-109860152D01*
X105322685Y-109868368D01*
X105312309Y-109877160D01*
X105302398Y-109886526D01*
X105292949Y-109896468D01*
X105283965Y-109906985D01*
X105275444Y-109918078D01*
X105267387Y-109929746D01*
X105259793Y-109941989D01*
X105254989Y-109950471D01*
X105250434Y-109959152D01*
X105246173Y-109968037D01*
X105242206Y-109977126D01*
X105238533Y-109986420D01*
X105235154Y-109995918D01*
X105232068Y-110005620D01*
X105229276Y-110015526D01*
X105226779Y-110025636D01*
X105224575Y-110035951D01*
X105222665Y-110046469D01*
X105221049Y-110057192D01*
X105219726Y-110068119D01*
X105218698Y-110079250D01*
X105217963Y-110090586D01*
X105217522Y-110102125D01*
X105217375Y-110113869D01*
X105217375Y-110575000D01*
X105366608Y-110575000D01*
X105366608Y-110125593D01*
X105366778Y-110115269D01*
X105367291Y-110105240D01*
X105368145Y-110095508D01*
X105370066Y-110081464D01*
X105372756Y-110068085D01*
X105376214Y-110055372D01*
X105380441Y-110043324D01*
X105385436Y-110031942D01*
X105391200Y-110021225D01*
X105397732Y-110011173D01*
X105405033Y-110001787D01*
X105410327Y-109995900D01*
X105418734Y-109987650D01*
X105427652Y-109980212D01*
X105437081Y-109973585D01*
X105447021Y-109967770D01*
X105457472Y-109962766D01*
X105468433Y-109958573D01*
X105479906Y-109955192D01*
X105491889Y-109952623D01*
X105504383Y-109950865D01*
X105517389Y-109949918D01*
X105526343Y-109949738D01*
X105540000Y-109950186D01*
X105553219Y-109951532D01*
X105566000Y-109953776D01*
X105578343Y-109956916D01*
X105590249Y-109960954D01*
X105601716Y-109965889D01*
X105612746Y-109971722D01*
X105623337Y-109978452D01*
X105633491Y-109986079D01*
X105643207Y-109994603D01*
X105649441Y-110000785D01*
X105658214Y-110010514D01*
X105666125Y-110020651D01*
X105673172Y-110031196D01*
X105679357Y-110042149D01*
X105684678Y-110053510D01*
X105689137Y-110065279D01*
X105692733Y-110077456D01*
X105695465Y-110090040D01*
X105697335Y-110103032D01*
X105698342Y-110116433D01*
X105698534Y-110125593D01*
X105698534Y-110575000D01*
X105847766Y-110575000D01*
G37*
G36*
X104817550Y-110575000D02*
G01*
X104829068Y-110574783D01*
X104840299Y-110574133D01*
X104851241Y-110573050D01*
X104861895Y-110571534D01*
X104872261Y-110569585D01*
X104882339Y-110567203D01*
X104892129Y-110564387D01*
X104901630Y-110561139D01*
X104910844Y-110557457D01*
X104919769Y-110553342D01*
X104932617Y-110546357D01*
X104944817Y-110538398D01*
X104956368Y-110529465D01*
X104963708Y-110522967D01*
X104967271Y-110519556D01*
X104974103Y-110512461D01*
X104983524Y-110501313D01*
X104991954Y-110489560D01*
X104999393Y-110477202D01*
X105005839Y-110464238D01*
X105011294Y-110450669D01*
X105014379Y-110441287D01*
X105017024Y-110431635D01*
X105019228Y-110421715D01*
X105020991Y-110411525D01*
X105022313Y-110401067D01*
X105023195Y-110390339D01*
X105023636Y-110379343D01*
X105023691Y-110373743D01*
X105023691Y-109965369D01*
X105139218Y-109965369D01*
X105139218Y-109824685D01*
X105022958Y-109824685D01*
X105004640Y-109621475D01*
X104874458Y-109621475D01*
X104874458Y-109824685D01*
X104688834Y-109824685D01*
X104688834Y-109965369D01*
X104874458Y-109965369D01*
X104874458Y-110362508D01*
X104873754Y-110374003D01*
X104871642Y-110384673D01*
X104868121Y-110394519D01*
X104863193Y-110403541D01*
X104856856Y-110411738D01*
X104854430Y-110414288D01*
X104846416Y-110421094D01*
X104837578Y-110426492D01*
X104827915Y-110430482D01*
X104817428Y-110433064D01*
X104806116Y-110434237D01*
X104802162Y-110434316D01*
X104688834Y-110434316D01*
X104688834Y-110575000D01*
X104817550Y-110575000D01*
G37*
G36*
X103754760Y-109793715D02*
G01*
X103768721Y-109794594D01*
X103782322Y-109796058D01*
X103795561Y-109798109D01*
X103808440Y-109800745D01*
X103820959Y-109803967D01*
X103833117Y-109807775D01*
X103844914Y-109812168D01*
X103856350Y-109817147D01*
X103867426Y-109822712D01*
X103878141Y-109828863D01*
X103888496Y-109835600D01*
X103898490Y-109842923D01*
X103908123Y-109850831D01*
X103917396Y-109859325D01*
X103926308Y-109868405D01*
X103934737Y-109877998D01*
X103942622Y-109888032D01*
X103949964Y-109898507D01*
X103956762Y-109909422D01*
X103963016Y-109920779D01*
X103968726Y-109932576D01*
X103973892Y-109944814D01*
X103978515Y-109957493D01*
X103982593Y-109970612D01*
X103986128Y-109984172D01*
X103989119Y-109998173D01*
X103991566Y-110012615D01*
X103993470Y-110027498D01*
X103994829Y-110042821D01*
X103995645Y-110058585D01*
X103995917Y-110074790D01*
X103995645Y-110090995D01*
X103994829Y-110106759D01*
X103993470Y-110122083D01*
X103991566Y-110136965D01*
X103989119Y-110151407D01*
X103986128Y-110165408D01*
X103982593Y-110178968D01*
X103978515Y-110192088D01*
X103973892Y-110204766D01*
X103968726Y-110217004D01*
X103963016Y-110228801D01*
X103956762Y-110240158D01*
X103949964Y-110251073D01*
X103942622Y-110261548D01*
X103934737Y-110271582D01*
X103926308Y-110281175D01*
X103917396Y-110290255D01*
X103908123Y-110298749D01*
X103898490Y-110306658D01*
X103888496Y-110313980D01*
X103878141Y-110320717D01*
X103867426Y-110326868D01*
X103856350Y-110332433D01*
X103844914Y-110337412D01*
X103833117Y-110341806D01*
X103820959Y-110345613D01*
X103808440Y-110348835D01*
X103795561Y-110351471D01*
X103782322Y-110353522D01*
X103768721Y-110354986D01*
X103754760Y-110355865D01*
X103740439Y-110356158D01*
X103729644Y-110355969D01*
X103719060Y-110355402D01*
X103708685Y-110354458D01*
X103698521Y-110353135D01*
X103688566Y-110351435D01*
X103678821Y-110349357D01*
X103669286Y-110346901D01*
X103655377Y-110342509D01*
X103641940Y-110337267D01*
X103628976Y-110331175D01*
X103616484Y-110324233D01*
X103604464Y-110316440D01*
X103592916Y-110307798D01*
X103585486Y-110301587D01*
X103574870Y-110291648D01*
X103564889Y-110280962D01*
X103558589Y-110273423D01*
X103552570Y-110265551D01*
X103546834Y-110257348D01*
X103541381Y-110248813D01*
X103536210Y-110239946D01*
X103531321Y-110230747D01*
X103526715Y-110221216D01*
X103522391Y-110211352D01*
X103518350Y-110201157D01*
X103514591Y-110190630D01*
X103511114Y-110179771D01*
X103507920Y-110168579D01*
X103630041Y-110168579D01*
X103632116Y-110173388D01*
X103636531Y-110182547D01*
X103641302Y-110191096D01*
X103649123Y-110202773D01*
X103657742Y-110213077D01*
X103667160Y-110222008D01*
X103677377Y-110229564D01*
X103688392Y-110235746D01*
X103700206Y-110240555D01*
X103712818Y-110243989D01*
X103726229Y-110246050D01*
X103740439Y-110246737D01*
X103748651Y-110246563D01*
X103760507Y-110245652D01*
X103771809Y-110243959D01*
X103782557Y-110241484D01*
X103792752Y-110238229D01*
X103802392Y-110234192D01*
X103811479Y-110229373D01*
X103820012Y-110223773D01*
X103827991Y-110217392D01*
X103835417Y-110210229D01*
X103842288Y-110202285D01*
X103844452Y-110199454D01*
X103850531Y-110190515D01*
X103855992Y-110180907D01*
X103860835Y-110170629D01*
X103865060Y-110159681D01*
X103868666Y-110148063D01*
X103871654Y-110135775D01*
X103874024Y-110122818D01*
X103875776Y-110109191D01*
X103876910Y-110094894D01*
X103877322Y-110084991D01*
X103877459Y-110074790D01*
X103877322Y-110064590D01*
X103876600Y-110049852D01*
X103875261Y-110035788D01*
X103873303Y-110022397D01*
X103870727Y-110009681D01*
X103867533Y-109997639D01*
X103863720Y-109986271D01*
X103859290Y-109975577D01*
X103854241Y-109965557D01*
X103848574Y-109956211D01*
X103842288Y-109947540D01*
X103837769Y-109942127D01*
X103830528Y-109934663D01*
X103822733Y-109927985D01*
X103814385Y-109922092D01*
X103805483Y-109916985D01*
X103796027Y-109912664D01*
X103786017Y-109909129D01*
X103775453Y-109906379D01*
X103764336Y-109904415D01*
X103752664Y-109903236D01*
X103740439Y-109902843D01*
X103735614Y-109902920D01*
X103721670Y-109904064D01*
X103708526Y-109906583D01*
X103696179Y-109910476D01*
X103684632Y-109915742D01*
X103673883Y-109922383D01*
X103663932Y-109930397D01*
X103654780Y-109939785D01*
X103646427Y-109950547D01*
X103638872Y-109962683D01*
X103634279Y-109971536D01*
X103630041Y-109981001D01*
X103507920Y-109981001D01*
X103509481Y-109975364D01*
X103512817Y-109964338D01*
X103516435Y-109953645D01*
X103520335Y-109943284D01*
X103524518Y-109933255D01*
X103528983Y-109923558D01*
X103533730Y-109914192D01*
X103538760Y-109905159D01*
X103544072Y-109896458D01*
X103549667Y-109888089D01*
X103555544Y-109880052D01*
X103561704Y-109872347D01*
X103571472Y-109861412D01*
X103581877Y-109851224D01*
X103592916Y-109841782D01*
X103604464Y-109833140D01*
X103616484Y-109825348D01*
X103628976Y-109818405D01*
X103641940Y-109812313D01*
X103655377Y-109807071D01*
X103669286Y-109802679D01*
X103678821Y-109800223D01*
X103688566Y-109798145D01*
X103698521Y-109796445D01*
X103708685Y-109795123D01*
X103719060Y-109794178D01*
X103729644Y-109793611D01*
X103740439Y-109793422D01*
X103754760Y-109793715D01*
G37*
G36*
X103763003Y-109559208D02*
G01*
X103781174Y-109559983D01*
X103799105Y-109561276D01*
X103816795Y-109563086D01*
X103834245Y-109565413D01*
X103851455Y-109568257D01*
X103868424Y-109571618D01*
X103885153Y-109575497D01*
X103901641Y-109579892D01*
X103917889Y-109584805D01*
X103933896Y-109590234D01*
X103949663Y-109596181D01*
X103965190Y-109602645D01*
X103980476Y-109609626D01*
X103995522Y-109617124D01*
X104010327Y-109625139D01*
X104024780Y-109633584D01*
X104038831Y-109642431D01*
X104052479Y-109651680D01*
X104065725Y-109661333D01*
X104078567Y-109671388D01*
X104091007Y-109681845D01*
X104103045Y-109692706D01*
X104114680Y-109703968D01*
X104125912Y-109715634D01*
X104136742Y-109727702D01*
X104147169Y-109740173D01*
X104157193Y-109753046D01*
X104166815Y-109766322D01*
X104176034Y-109780000D01*
X104184851Y-109794082D01*
X104193265Y-109808565D01*
X104201221Y-109823373D01*
X104208664Y-109838424D01*
X104215593Y-109853720D01*
X104222009Y-109869260D01*
X104227912Y-109885044D01*
X104233302Y-109901072D01*
X104238178Y-109917345D01*
X104242541Y-109933862D01*
X104246391Y-109950623D01*
X104249727Y-109967629D01*
X104252550Y-109984878D01*
X104254860Y-110002372D01*
X104256657Y-110020110D01*
X104257940Y-110038093D01*
X104258710Y-110056319D01*
X104258966Y-110074790D01*
X104258710Y-110093261D01*
X104257940Y-110111488D01*
X104256657Y-110129470D01*
X104254860Y-110147208D01*
X104252550Y-110164702D01*
X104249727Y-110181952D01*
X104246391Y-110198957D01*
X104242541Y-110215718D01*
X104238178Y-110232235D01*
X104233302Y-110248508D01*
X104227912Y-110264536D01*
X104222009Y-110280321D01*
X104215593Y-110295860D01*
X104208664Y-110311156D01*
X104201221Y-110326208D01*
X104193265Y-110341015D01*
X104184851Y-110355500D01*
X104176034Y-110369584D01*
X104166815Y-110383267D01*
X104157193Y-110396550D01*
X104147169Y-110409431D01*
X104136742Y-110421913D01*
X104125912Y-110433993D01*
X104114680Y-110445673D01*
X104103045Y-110456952D01*
X104091007Y-110467830D01*
X104078567Y-110478308D01*
X104065725Y-110488385D01*
X104052479Y-110498061D01*
X104038831Y-110507337D01*
X104024780Y-110516211D01*
X104010327Y-110524685D01*
X103995522Y-110532671D01*
X103980476Y-110540141D01*
X103965190Y-110547097D01*
X103949663Y-110553537D01*
X103933896Y-110559461D01*
X103917889Y-110564871D01*
X103901641Y-110569765D01*
X103885153Y-110574145D01*
X103868424Y-110578009D01*
X103851455Y-110581357D01*
X103834245Y-110584191D01*
X103816795Y-110586509D01*
X103799105Y-110588313D01*
X103781174Y-110589601D01*
X103763003Y-110590373D01*
X103744591Y-110590631D01*
X103726180Y-110590373D01*
X103708012Y-110589601D01*
X103690086Y-110588313D01*
X103672402Y-110586509D01*
X103654961Y-110584191D01*
X103637761Y-110581357D01*
X103620805Y-110578009D01*
X103604090Y-110574145D01*
X103587618Y-110569765D01*
X103571388Y-110564871D01*
X103555401Y-110559461D01*
X103539656Y-110553537D01*
X103524153Y-110547097D01*
X103508893Y-110540141D01*
X103493875Y-110532671D01*
X103479099Y-110524685D01*
X103464616Y-110516211D01*
X103450538Y-110507337D01*
X103436864Y-110498061D01*
X103423595Y-110488385D01*
X103410730Y-110478308D01*
X103398270Y-110467830D01*
X103386214Y-110456952D01*
X103374563Y-110445673D01*
X103363316Y-110433993D01*
X103352474Y-110421913D01*
X103342037Y-110409431D01*
X103332004Y-110396550D01*
X103322375Y-110383267D01*
X103313151Y-110369584D01*
X103304332Y-110355500D01*
X103295917Y-110341015D01*
X103287961Y-110326208D01*
X103280518Y-110311156D01*
X103273589Y-110295860D01*
X103267173Y-110280321D01*
X103261270Y-110264536D01*
X103255880Y-110248508D01*
X103251004Y-110232235D01*
X103246641Y-110215718D01*
X103242791Y-110198957D01*
X103239455Y-110181952D01*
X103236632Y-110164702D01*
X103234322Y-110147208D01*
X103232525Y-110129470D01*
X103231242Y-110111488D01*
X103230472Y-110093261D01*
X103230216Y-110074790D01*
X103355756Y-110074790D01*
X103355953Y-110089036D01*
X103356542Y-110103077D01*
X103357525Y-110116911D01*
X103358901Y-110130539D01*
X103360670Y-110143960D01*
X103362832Y-110157176D01*
X103365387Y-110170186D01*
X103368335Y-110182990D01*
X103371676Y-110195587D01*
X103375410Y-110207979D01*
X103379538Y-110220164D01*
X103384058Y-110232144D01*
X103388971Y-110243917D01*
X103394278Y-110255484D01*
X103399978Y-110266845D01*
X103406070Y-110278000D01*
X103412481Y-110288872D01*
X103419195Y-110299444D01*
X103426212Y-110309716D01*
X103433532Y-110319689D01*
X103441156Y-110329363D01*
X103449084Y-110338737D01*
X103457315Y-110347811D01*
X103465849Y-110356585D01*
X103474686Y-110365060D01*
X103483827Y-110373236D01*
X103493272Y-110381112D01*
X103503020Y-110388688D01*
X103513071Y-110395965D01*
X103523425Y-110402942D01*
X103534083Y-110409619D01*
X103545045Y-110415997D01*
X103556243Y-110422001D01*
X103567610Y-110427618D01*
X103579148Y-110432847D01*
X103590855Y-110437689D01*
X103602733Y-110442144D01*
X103614780Y-110446211D01*
X103626997Y-110449891D01*
X103639383Y-110453183D01*
X103651940Y-110456089D01*
X103664666Y-110458606D01*
X103677563Y-110460737D01*
X103690629Y-110462480D01*
X103703864Y-110463836D01*
X103717270Y-110464804D01*
X103730846Y-110465385D01*
X103744591Y-110465579D01*
X103758336Y-110465385D01*
X103771912Y-110464804D01*
X103785317Y-110463836D01*
X103798553Y-110462480D01*
X103811619Y-110460737D01*
X103824516Y-110458606D01*
X103837242Y-110456089D01*
X103849799Y-110453183D01*
X103862185Y-110449891D01*
X103874402Y-110446211D01*
X103886449Y-110442144D01*
X103898327Y-110437689D01*
X103910034Y-110432847D01*
X103921572Y-110427618D01*
X103932939Y-110422001D01*
X103944137Y-110415997D01*
X103955100Y-110409619D01*
X103965760Y-110402942D01*
X103976120Y-110395965D01*
X103986178Y-110388688D01*
X103995934Y-110381112D01*
X104005389Y-110373236D01*
X104014542Y-110365060D01*
X104023394Y-110356585D01*
X104031945Y-110347811D01*
X104040193Y-110338737D01*
X104048141Y-110329363D01*
X104055787Y-110319689D01*
X104063131Y-110309716D01*
X104070174Y-110299444D01*
X104076916Y-110288872D01*
X104083356Y-110278000D01*
X104089419Y-110266845D01*
X104095091Y-110255484D01*
X104100372Y-110243917D01*
X104105261Y-110232144D01*
X104109760Y-110220164D01*
X104113867Y-110207979D01*
X104117583Y-110195587D01*
X104120908Y-110182990D01*
X104123842Y-110170186D01*
X104126385Y-110157176D01*
X104128536Y-110143960D01*
X104130296Y-110130539D01*
X104131665Y-110116911D01*
X104132643Y-110103077D01*
X104133230Y-110089036D01*
X104133426Y-110074790D01*
X104133230Y-110060545D01*
X104132643Y-110046508D01*
X104131665Y-110032678D01*
X104130296Y-110019057D01*
X104128536Y-110005644D01*
X104126385Y-109992438D01*
X104123842Y-109979441D01*
X104120908Y-109966652D01*
X104117583Y-109954070D01*
X104113867Y-109941697D01*
X104109760Y-109929531D01*
X104105261Y-109917574D01*
X104100372Y-109905825D01*
X104095091Y-109894283D01*
X104089419Y-109882950D01*
X104083356Y-109871824D01*
X104076916Y-109860924D01*
X104070174Y-109850327D01*
X104063131Y-109840034D01*
X104055787Y-109830044D01*
X104048141Y-109820357D01*
X104040193Y-109810974D01*
X104031945Y-109801894D01*
X104023394Y-109793117D01*
X104014542Y-109784644D01*
X104005389Y-109776474D01*
X103995934Y-109768608D01*
X103986178Y-109761045D01*
X103976120Y-109753785D01*
X103965760Y-109746829D01*
X103955100Y-109740176D01*
X103944137Y-109733827D01*
X103932939Y-109727794D01*
X103921572Y-109722149D01*
X103910034Y-109716894D01*
X103898327Y-109712028D01*
X103886449Y-109707552D01*
X103874402Y-109703465D01*
X103862185Y-109699767D01*
X103849799Y-109696458D01*
X103837242Y-109693539D01*
X103824516Y-109691008D01*
X103811619Y-109688867D01*
X103798553Y-109687116D01*
X103785317Y-109685753D01*
X103771912Y-109684780D01*
X103758336Y-109684196D01*
X103744591Y-109684002D01*
X103730846Y-109684196D01*
X103717270Y-109684780D01*
X103703864Y-109685753D01*
X103690629Y-109687116D01*
X103677563Y-109688867D01*
X103664666Y-109691008D01*
X103651940Y-109693539D01*
X103639383Y-109696458D01*
X103626997Y-109699767D01*
X103614780Y-109703465D01*
X103602733Y-109707552D01*
X103590855Y-109712028D01*
X103579148Y-109716894D01*
X103567610Y-109722149D01*
X103556243Y-109727794D01*
X103545045Y-109733827D01*
X103534083Y-109740176D01*
X103523425Y-109746829D01*
X103513071Y-109753785D01*
X103503020Y-109761045D01*
X103493272Y-109768608D01*
X103483827Y-109776474D01*
X103474686Y-109784644D01*
X103465849Y-109793117D01*
X103457315Y-109801894D01*
X103449084Y-109810974D01*
X103441156Y-109820357D01*
X103433532Y-109830044D01*
X103426212Y-109840034D01*
X103419195Y-109850327D01*
X103412481Y-109860924D01*
X103406070Y-109871824D01*
X103399978Y-109882950D01*
X103394278Y-109894283D01*
X103388971Y-109905825D01*
X103384058Y-109917574D01*
X103379538Y-109929531D01*
X103375410Y-109941697D01*
X103371676Y-109954070D01*
X103368335Y-109966652D01*
X103365387Y-109979441D01*
X103362832Y-109992438D01*
X103360670Y-110005644D01*
X103358901Y-110019057D01*
X103357525Y-110032678D01*
X103356542Y-110046508D01*
X103355953Y-110060545D01*
X103355756Y-110074790D01*
X103230216Y-110074790D01*
X103230472Y-110056319D01*
X103231242Y-110038093D01*
X103232525Y-110020110D01*
X103234322Y-110002372D01*
X103236632Y-109984878D01*
X103239455Y-109967629D01*
X103242791Y-109950623D01*
X103246641Y-109933862D01*
X103251004Y-109917345D01*
X103255880Y-109901072D01*
X103261270Y-109885044D01*
X103267173Y-109869260D01*
X103273589Y-109853720D01*
X103280518Y-109838424D01*
X103287961Y-109823373D01*
X103295917Y-109808565D01*
X103304332Y-109794082D01*
X103313151Y-109780000D01*
X103322375Y-109766322D01*
X103332004Y-109753046D01*
X103342037Y-109740173D01*
X103352474Y-109727702D01*
X103363316Y-109715634D01*
X103374563Y-109703968D01*
X103386214Y-109692706D01*
X103398270Y-109681845D01*
X103410730Y-109671388D01*
X103423595Y-109661333D01*
X103436864Y-109651680D01*
X103450538Y-109642431D01*
X103464616Y-109633584D01*
X103479099Y-109625139D01*
X103493875Y-109617124D01*
X103508893Y-109609626D01*
X103524153Y-109602645D01*
X103539656Y-109596181D01*
X103555401Y-109590234D01*
X103571388Y-109584805D01*
X103587618Y-109579892D01*
X103604090Y-109575497D01*
X103620805Y-109571618D01*
X103637761Y-109568257D01*
X103654961Y-109565413D01*
X103672402Y-109563086D01*
X103690086Y-109561276D01*
X103708012Y-109559983D01*
X103726180Y-109559208D01*
X103744591Y-109558949D01*
X103763003Y-109559208D01*
G37*
G36*
X102821353Y-110575000D02*
G01*
X102821353Y-110438956D01*
X102380250Y-110000785D01*
X102373182Y-109993673D01*
X102364279Y-109984290D01*
X102355971Y-109975022D01*
X102348258Y-109965869D01*
X102341141Y-109956830D01*
X102334619Y-109947906D01*
X102328692Y-109939096D01*
X102323360Y-109930400D01*
X102322121Y-109928244D01*
X102317484Y-109919555D01*
X102312557Y-109908467D01*
X102308597Y-109897129D01*
X102305602Y-109885541D01*
X102303573Y-109873702D01*
X102302511Y-109861613D01*
X102302337Y-109854239D01*
X102302719Y-109840618D01*
X102303865Y-109827597D01*
X102305776Y-109815178D01*
X102308451Y-109803360D01*
X102311890Y-109792143D01*
X102316093Y-109781527D01*
X102321060Y-109771512D01*
X102326792Y-109762098D01*
X102333288Y-109753285D01*
X102340548Y-109745074D01*
X102345812Y-109739933D01*
X102354289Y-109732731D01*
X102363509Y-109726237D01*
X102373472Y-109720452D01*
X102384177Y-109715375D01*
X102395626Y-109711007D01*
X102407816Y-109707347D01*
X102420750Y-109704395D01*
X102434427Y-109702152D01*
X102448846Y-109700617D01*
X102458871Y-109699987D01*
X102469227Y-109699672D01*
X102474528Y-109699633D01*
X102488273Y-109700005D01*
X102501570Y-109701119D01*
X102514422Y-109702975D01*
X102526827Y-109705575D01*
X102538785Y-109708917D01*
X102550297Y-109713003D01*
X102561362Y-109717830D01*
X102571981Y-109723401D01*
X102582153Y-109729714D01*
X102591879Y-109736770D01*
X102598115Y-109741887D01*
X102606994Y-109750070D01*
X102615220Y-109758771D01*
X102622793Y-109767993D01*
X102629714Y-109777734D01*
X102635982Y-109787994D01*
X102641598Y-109798774D01*
X102646561Y-109810073D01*
X102650871Y-109821892D01*
X102654529Y-109834230D01*
X102657535Y-109847088D01*
X102659176Y-109855949D01*
X102822818Y-109855949D01*
X102819689Y-109838433D01*
X102816041Y-109821423D01*
X102811873Y-109804918D01*
X102807187Y-109788919D01*
X102801981Y-109773426D01*
X102796257Y-109758438D01*
X102790014Y-109743957D01*
X102783251Y-109729980D01*
X102775970Y-109716510D01*
X102768169Y-109703545D01*
X102759850Y-109691086D01*
X102751011Y-109679132D01*
X102741653Y-109667684D01*
X102731777Y-109656742D01*
X102721381Y-109646305D01*
X102710467Y-109636374D01*
X102699041Y-109626999D01*
X102687172Y-109618228D01*
X102674861Y-109610062D01*
X102662107Y-109602501D01*
X102648910Y-109595545D01*
X102635270Y-109589193D01*
X102621188Y-109583447D01*
X102606664Y-109578306D01*
X102591696Y-109573769D01*
X102576286Y-109569837D01*
X102560433Y-109566510D01*
X102544137Y-109563788D01*
X102527399Y-109561671D01*
X102510218Y-109560159D01*
X102492594Y-109559252D01*
X102474528Y-109558949D01*
X102464659Y-109559028D01*
X102445331Y-109559656D01*
X102426551Y-109560911D01*
X102408319Y-109562794D01*
X102390634Y-109565306D01*
X102373497Y-109568444D01*
X102356908Y-109572211D01*
X102340866Y-109576606D01*
X102325372Y-109581628D01*
X102310425Y-109587278D01*
X102296026Y-109593556D01*
X102282175Y-109600461D01*
X102268872Y-109607995D01*
X102256116Y-109616156D01*
X102243907Y-109624945D01*
X102232247Y-109634361D01*
X102226622Y-109639305D01*
X102215826Y-109649556D01*
X102205727Y-109660218D01*
X102196325Y-109671293D01*
X102187619Y-109682780D01*
X102179610Y-109694680D01*
X102172297Y-109706991D01*
X102165680Y-109719714D01*
X102159760Y-109732850D01*
X102154537Y-109746398D01*
X102150010Y-109760358D01*
X102146179Y-109774730D01*
X102143045Y-109789515D01*
X102140607Y-109804711D01*
X102138866Y-109820320D01*
X102137821Y-109836340D01*
X102137473Y-109852773D01*
X102137966Y-109868150D01*
X102139446Y-109883506D01*
X102141912Y-109898841D01*
X102145365Y-109914155D01*
X102149804Y-109929448D01*
X102155230Y-109944719D01*
X102161643Y-109959970D01*
X102169041Y-109975200D01*
X102177427Y-109990409D01*
X102186799Y-110005597D01*
X102197157Y-110020764D01*
X102208502Y-110035910D01*
X102220833Y-110051035D01*
X102227369Y-110058589D01*
X102234151Y-110066139D01*
X102241180Y-110073683D01*
X102248456Y-110081222D01*
X102255978Y-110088755D01*
X102263747Y-110096284D01*
X102600557Y-110434316D01*
X102123307Y-110434316D01*
X102123307Y-110575000D01*
X102821353Y-110575000D01*
G37*
G36*
X101653344Y-109559189D02*
G01*
X101668916Y-109559907D01*
X101684225Y-109561105D01*
X101699271Y-109562781D01*
X101714053Y-109564936D01*
X101728572Y-109567570D01*
X101742828Y-109570683D01*
X101756821Y-109574275D01*
X101770550Y-109578347D01*
X101784015Y-109582897D01*
X101797218Y-109587925D01*
X101810157Y-109593433D01*
X101822833Y-109599420D01*
X101835245Y-109605886D01*
X101847395Y-109612831D01*
X101859280Y-109620254D01*
X101870863Y-109628102D01*
X101882102Y-109636382D01*
X101892997Y-109645093D01*
X101903549Y-109654234D01*
X101913758Y-109663808D01*
X101923623Y-109673812D01*
X101933145Y-109684248D01*
X101942323Y-109695115D01*
X101951158Y-109706413D01*
X101959649Y-109718142D01*
X101967797Y-109730303D01*
X101975601Y-109742895D01*
X101983062Y-109755918D01*
X101990179Y-109769372D01*
X101996953Y-109783258D01*
X102003384Y-109797575D01*
X102009417Y-109812253D01*
X102015062Y-109827284D01*
X102020317Y-109842669D01*
X102025182Y-109858406D01*
X102029659Y-109874497D01*
X102033746Y-109890940D01*
X102037444Y-109907737D01*
X102040753Y-109924886D01*
X102043672Y-109942389D01*
X102046203Y-109960244D01*
X102048343Y-109978453D01*
X102050095Y-109997014D01*
X102051458Y-110015929D01*
X102052431Y-110035196D01*
X102052771Y-110044962D01*
X102053015Y-110054817D01*
X102053161Y-110064759D01*
X102053209Y-110074790D01*
X102053158Y-110085167D01*
X102053006Y-110095445D01*
X102052752Y-110105624D01*
X102052396Y-110115705D01*
X102051939Y-110125686D01*
X102051380Y-110135569D01*
X102049958Y-110155039D01*
X102048129Y-110174114D01*
X102045893Y-110192794D01*
X102043252Y-110211079D01*
X102040203Y-110228968D01*
X102036749Y-110246463D01*
X102032887Y-110263563D01*
X102028620Y-110280268D01*
X102023946Y-110296578D01*
X102018865Y-110312493D01*
X102013379Y-110328013D01*
X102007485Y-110343138D01*
X102001186Y-110357868D01*
X101994489Y-110372144D01*
X101987466Y-110385971D01*
X101980117Y-110399347D01*
X101972441Y-110412273D01*
X101964439Y-110424748D01*
X101956111Y-110436773D01*
X101947457Y-110448348D01*
X101938476Y-110459473D01*
X101929169Y-110470147D01*
X101919536Y-110480371D01*
X101909576Y-110490144D01*
X101899290Y-110499467D01*
X101888678Y-110508340D01*
X101877740Y-110516763D01*
X101866475Y-110524735D01*
X101854884Y-110532257D01*
X101842987Y-110539326D01*
X101830864Y-110545938D01*
X101818517Y-110552095D01*
X101805944Y-110557796D01*
X101793146Y-110563040D01*
X101780123Y-110567829D01*
X101766875Y-110572161D01*
X101753401Y-110576038D01*
X101739703Y-110579458D01*
X101725779Y-110582422D01*
X101711630Y-110584930D01*
X101697256Y-110586983D01*
X101682657Y-110588579D01*
X101667832Y-110589719D01*
X101652783Y-110590403D01*
X101637508Y-110590631D01*
X101621675Y-110590392D01*
X101606111Y-110589673D01*
X101590817Y-110588476D01*
X101575791Y-110586799D01*
X101561034Y-110584644D01*
X101546547Y-110582010D01*
X101532328Y-110578897D01*
X101518378Y-110575305D01*
X101504698Y-110571234D01*
X101491287Y-110566684D01*
X101478144Y-110561655D01*
X101465271Y-110556147D01*
X101452667Y-110550160D01*
X101440331Y-110543694D01*
X101428265Y-110536750D01*
X101416468Y-110529326D01*
X101404946Y-110521449D01*
X101393765Y-110513145D01*
X101382926Y-110504413D01*
X101372428Y-110495254D01*
X101362272Y-110485668D01*
X101352457Y-110475654D01*
X101342984Y-110465212D01*
X101333853Y-110454344D01*
X101325063Y-110443047D01*
X101316615Y-110431324D01*
X101308508Y-110419173D01*
X101300743Y-110406594D01*
X101293319Y-110393588D01*
X101286237Y-110380155D01*
X101279497Y-110366294D01*
X101273098Y-110352006D01*
X101267034Y-110337327D01*
X101261362Y-110322296D01*
X101256082Y-110306911D01*
X101251192Y-110291174D01*
X101246694Y-110275084D01*
X101242586Y-110258640D01*
X101238870Y-110241844D01*
X101235545Y-110224694D01*
X101232611Y-110207192D01*
X101230069Y-110189336D01*
X101227917Y-110171128D01*
X101226157Y-110152566D01*
X101224788Y-110133652D01*
X101223810Y-110114384D01*
X101223468Y-110104618D01*
X101223223Y-110094764D01*
X101223077Y-110084821D01*
X101223028Y-110074790D01*
X101386426Y-110074790D01*
X101386550Y-110089349D01*
X101386922Y-110103657D01*
X101387543Y-110117712D01*
X101388411Y-110131516D01*
X101389527Y-110145067D01*
X101390891Y-110158367D01*
X101392504Y-110171415D01*
X101394364Y-110184211D01*
X101396473Y-110196755D01*
X101398829Y-110209047D01*
X101401434Y-110221088D01*
X101404287Y-110232876D01*
X101407387Y-110244413D01*
X101410736Y-110255698D01*
X101414333Y-110266731D01*
X101418178Y-110277512D01*
X101422243Y-110287975D01*
X101426501Y-110298116D01*
X101430952Y-110307934D01*
X101435595Y-110317430D01*
X101440432Y-110326604D01*
X101445461Y-110335455D01*
X101450682Y-110343983D01*
X101458876Y-110356171D01*
X101467503Y-110367634D01*
X101476565Y-110378370D01*
X101486059Y-110388382D01*
X101495988Y-110397668D01*
X101506350Y-110406228D01*
X101513474Y-110411522D01*
X101524428Y-110418823D01*
X101535704Y-110425355D01*
X101547303Y-110431119D01*
X101559223Y-110436114D01*
X101571466Y-110440341D01*
X101584030Y-110443799D01*
X101596917Y-110446489D01*
X101610125Y-110448410D01*
X101623655Y-110449563D01*
X101637508Y-110449947D01*
X101646279Y-110449788D01*
X101659238Y-110448951D01*
X101671961Y-110447398D01*
X101684449Y-110445127D01*
X101696700Y-110442140D01*
X101708714Y-110438436D01*
X101720493Y-110434014D01*
X101732036Y-110428876D01*
X101743342Y-110423020D01*
X101754413Y-110416448D01*
X101765247Y-110409159D01*
X101775757Y-110401085D01*
X101785855Y-110392251D01*
X101795541Y-110382658D01*
X101804814Y-110372305D01*
X101813676Y-110361191D01*
X101822125Y-110349318D01*
X101827529Y-110340981D01*
X101832750Y-110332305D01*
X101837787Y-110323292D01*
X101842641Y-110313941D01*
X101847313Y-110304252D01*
X101851800Y-110294226D01*
X101856105Y-110283862D01*
X101860187Y-110273171D01*
X101864005Y-110262163D01*
X101867560Y-110250838D01*
X101870851Y-110239196D01*
X101873880Y-110227238D01*
X101876645Y-110214963D01*
X101879146Y-110202371D01*
X101881384Y-110189462D01*
X101883359Y-110176237D01*
X101885071Y-110162695D01*
X101886519Y-110148836D01*
X101887704Y-110134660D01*
X101888626Y-110120168D01*
X101889284Y-110105359D01*
X101889679Y-110090233D01*
X101889811Y-110074790D01*
X101889688Y-110060057D01*
X101889318Y-110045595D01*
X101888703Y-110031405D01*
X101887842Y-110017485D01*
X101886734Y-110003836D01*
X101885380Y-109990458D01*
X101883780Y-109977351D01*
X101881934Y-109964515D01*
X101879842Y-109951949D01*
X101877503Y-109939655D01*
X101874919Y-109927632D01*
X101872088Y-109915880D01*
X101869011Y-109904398D01*
X101865688Y-109893188D01*
X101862119Y-109882249D01*
X101858303Y-109871580D01*
X101854235Y-109861176D01*
X101849969Y-109851090D01*
X101845504Y-109841324D01*
X101840840Y-109831875D01*
X101835978Y-109822746D01*
X101830918Y-109813935D01*
X101825659Y-109805443D01*
X101817398Y-109793302D01*
X101808692Y-109781878D01*
X101799538Y-109771171D01*
X101789938Y-109761181D01*
X101779892Y-109751908D01*
X101769399Y-109743353D01*
X101762186Y-109738058D01*
X101751109Y-109730758D01*
X101739724Y-109724225D01*
X101728029Y-109718462D01*
X101716024Y-109713466D01*
X101703711Y-109709239D01*
X101691089Y-109705781D01*
X101678157Y-109703091D01*
X101664917Y-109701170D01*
X101651367Y-109700017D01*
X101637508Y-109699633D01*
X101628710Y-109699792D01*
X101615725Y-109700629D01*
X101602993Y-109702182D01*
X101590515Y-109704453D01*
X101578290Y-109707440D01*
X101566318Y-109711145D01*
X101554599Y-109715566D01*
X101543134Y-109720705D01*
X101531922Y-109726560D01*
X101520963Y-109733132D01*
X101510257Y-109740422D01*
X101499878Y-109748454D01*
X101489898Y-109757254D01*
X101480318Y-109766824D01*
X101471137Y-109777161D01*
X101462355Y-109788267D01*
X101453972Y-109800142D01*
X101448605Y-109808485D01*
X101443416Y-109817170D01*
X101438404Y-109826197D01*
X101433570Y-109835565D01*
X101428913Y-109845274D01*
X101424434Y-109855326D01*
X101420132Y-109865718D01*
X101416050Y-109876410D01*
X101412232Y-109887418D01*
X101408677Y-109898743D01*
X101405386Y-109910384D01*
X101402357Y-109922343D01*
X101399592Y-109934618D01*
X101397091Y-109947210D01*
X101394853Y-109960118D01*
X101392878Y-109973344D01*
X101391166Y-109986886D01*
X101389718Y-110000744D01*
X101388533Y-110014920D01*
X101387611Y-110029412D01*
X101386953Y-110044222D01*
X101386558Y-110059348D01*
X101386426Y-110074790D01*
X101223028Y-110074790D01*
X101223079Y-110064414D01*
X101223232Y-110054136D01*
X101223487Y-110043958D01*
X101223844Y-110033879D01*
X101224304Y-110023900D01*
X101224865Y-110014019D01*
X101226295Y-109994556D01*
X101228132Y-109975490D01*
X101230378Y-109956821D01*
X101233032Y-109938548D01*
X101236095Y-109920673D01*
X101239566Y-109903194D01*
X101243445Y-109886113D01*
X101247733Y-109869428D01*
X101252429Y-109853140D01*
X101257533Y-109837249D01*
X101263045Y-109821755D01*
X101268966Y-109806657D01*
X101275296Y-109791957D01*
X101281991Y-109777651D01*
X101289008Y-109763796D01*
X101296347Y-109750395D01*
X101304010Y-109737445D01*
X101311994Y-109724948D01*
X101320301Y-109712902D01*
X101328931Y-109701309D01*
X101337883Y-109690169D01*
X101347158Y-109679480D01*
X101356755Y-109669244D01*
X101366674Y-109659460D01*
X101376916Y-109650128D01*
X101387481Y-109641249D01*
X101398367Y-109632821D01*
X101409577Y-109624846D01*
X101421109Y-109617323D01*
X101432888Y-109610255D01*
X101444900Y-109603642D01*
X101457144Y-109597485D01*
X101469621Y-109591785D01*
X101482332Y-109586540D01*
X101495275Y-109581752D01*
X101508450Y-109577419D01*
X101521859Y-109573543D01*
X101535500Y-109570122D01*
X101549374Y-109567158D01*
X101563481Y-109564650D01*
X101577821Y-109562598D01*
X101592394Y-109561001D01*
X101607199Y-109559861D01*
X101622237Y-109559177D01*
X101637508Y-109558949D01*
X101653344Y-109559189D01*
G37*
G36*
X101139008Y-110575000D02*
G01*
X101139008Y-110438956D01*
X100697906Y-110000785D01*
X100690837Y-109993673D01*
X100681934Y-109984290D01*
X100673626Y-109975022D01*
X100665913Y-109965869D01*
X100658796Y-109956830D01*
X100652274Y-109947906D01*
X100646347Y-109939096D01*
X100641016Y-109930400D01*
X100639776Y-109928244D01*
X100635139Y-109919555D01*
X100630212Y-109908467D01*
X100626252Y-109897129D01*
X100623257Y-109885541D01*
X100621229Y-109873702D01*
X100620166Y-109861613D01*
X100619992Y-109854239D01*
X100620374Y-109840618D01*
X100621521Y-109827597D01*
X100623431Y-109815178D01*
X100626106Y-109803360D01*
X100629545Y-109792143D01*
X100633748Y-109781527D01*
X100638715Y-109771512D01*
X100644447Y-109762098D01*
X100650943Y-109753285D01*
X100658203Y-109745074D01*
X100663467Y-109739933D01*
X100671945Y-109732731D01*
X100681165Y-109726237D01*
X100691127Y-109720452D01*
X100701833Y-109715375D01*
X100713281Y-109711007D01*
X100725472Y-109707347D01*
X100738405Y-109704395D01*
X100752082Y-109702152D01*
X100766501Y-109700617D01*
X100776526Y-109699987D01*
X100786882Y-109699672D01*
X100792183Y-109699633D01*
X100805928Y-109700005D01*
X100819226Y-109701119D01*
X100832077Y-109702975D01*
X100844482Y-109705575D01*
X100856440Y-109708917D01*
X100867952Y-109713003D01*
X100879017Y-109717830D01*
X100889636Y-109723401D01*
X100899809Y-109729714D01*
X100909534Y-109736770D01*
X100915770Y-109741887D01*
X100924649Y-109750070D01*
X100932875Y-109758771D01*
X100940448Y-109767993D01*
X100947369Y-109777734D01*
X100953637Y-109787994D01*
X100959253Y-109798774D01*
X100964216Y-109810073D01*
X100968527Y-109821892D01*
X100972185Y-109834230D01*
X100975190Y-109847088D01*
X100976831Y-109855949D01*
X101140474Y-109855949D01*
X101137344Y-109838433D01*
X101133696Y-109821423D01*
X101129529Y-109804918D01*
X101124842Y-109788919D01*
X101119637Y-109773426D01*
X101113912Y-109758438D01*
X101107669Y-109743957D01*
X101100906Y-109729980D01*
X101093625Y-109716510D01*
X101085824Y-109703545D01*
X101077505Y-109691086D01*
X101068666Y-109679132D01*
X101059309Y-109667684D01*
X101049432Y-109656742D01*
X101039037Y-109646305D01*
X101028122Y-109636374D01*
X101016696Y-109626999D01*
X101004827Y-109618228D01*
X100992516Y-109610062D01*
X100979762Y-109602501D01*
X100966565Y-109595545D01*
X100952926Y-109589193D01*
X100938844Y-109583447D01*
X100924319Y-109578306D01*
X100909351Y-109573769D01*
X100893941Y-109569837D01*
X100878088Y-109566510D01*
X100861793Y-109563788D01*
X100845054Y-109561671D01*
X100827873Y-109560159D01*
X100810250Y-109559252D01*
X100792183Y-109558949D01*
X100782314Y-109559028D01*
X100762987Y-109559656D01*
X100744207Y-109560911D01*
X100725974Y-109562794D01*
X100708290Y-109565306D01*
X100691153Y-109568444D01*
X100674563Y-109572211D01*
X100658521Y-109576606D01*
X100643027Y-109581628D01*
X100628081Y-109587278D01*
X100613682Y-109593556D01*
X100599830Y-109600461D01*
X100586527Y-109607995D01*
X100573771Y-109616156D01*
X100561563Y-109624945D01*
X100549902Y-109634361D01*
X100544277Y-109639305D01*
X100533482Y-109649556D01*
X100523383Y-109660218D01*
X100513980Y-109671293D01*
X100505274Y-109682780D01*
X100497265Y-109694680D01*
X100489952Y-109706991D01*
X100483335Y-109719714D01*
X100477415Y-109732850D01*
X100472192Y-109746398D01*
X100467665Y-109760358D01*
X100463834Y-109774730D01*
X100460700Y-109789515D01*
X100458262Y-109804711D01*
X100456521Y-109820320D01*
X100455477Y-109836340D01*
X100455128Y-109852773D01*
X100455622Y-109868150D01*
X100457101Y-109883506D01*
X100459568Y-109898841D01*
X100463020Y-109914155D01*
X100467460Y-109929448D01*
X100472886Y-109944719D01*
X100479298Y-109959970D01*
X100486697Y-109975200D01*
X100495082Y-109990409D01*
X100504454Y-110005597D01*
X100514812Y-110020764D01*
X100526157Y-110035910D01*
X100538489Y-110051035D01*
X100545024Y-110058589D01*
X100551806Y-110066139D01*
X100558835Y-110073683D01*
X100566111Y-110081222D01*
X100573633Y-110088755D01*
X100581402Y-110096284D01*
X100918213Y-110434316D01*
X100440962Y-110434316D01*
X100440962Y-110575000D01*
X101139008Y-110575000D01*
G37*
G36*
X100008164Y-110590631D02*
G01*
X100026598Y-110590334D01*
X100044651Y-110589444D01*
X100062326Y-110587961D01*
X100079620Y-110585884D01*
X100096535Y-110583213D01*
X100113070Y-110579949D01*
X100129225Y-110576092D01*
X100145001Y-110571641D01*
X100160397Y-110566597D01*
X100175413Y-110560959D01*
X100190049Y-110554728D01*
X100204306Y-110547904D01*
X100218183Y-110540486D01*
X100231680Y-110532475D01*
X100244798Y-110523870D01*
X100257536Y-110514672D01*
X100269716Y-110504907D01*
X100281220Y-110494602D01*
X100292048Y-110483757D01*
X100302202Y-110472372D01*
X100311680Y-110460447D01*
X100320482Y-110447982D01*
X100328609Y-110434977D01*
X100336060Y-110421432D01*
X100342836Y-110407347D01*
X100348936Y-110392722D01*
X100354361Y-110377557D01*
X100359110Y-110361852D01*
X100363184Y-110345607D01*
X100366583Y-110328822D01*
X100369306Y-110311497D01*
X100371353Y-110293632D01*
X100208199Y-110293632D01*
X100205885Y-110307305D01*
X100202789Y-110320391D01*
X100198912Y-110332888D01*
X100194254Y-110344797D01*
X100188814Y-110356118D01*
X100182593Y-110366850D01*
X100175591Y-110376995D01*
X100167807Y-110386551D01*
X100159242Y-110395519D01*
X100149895Y-110403899D01*
X100143230Y-110409159D01*
X100132759Y-110416448D01*
X100121864Y-110423020D01*
X100110543Y-110428876D01*
X100098797Y-110434014D01*
X100086626Y-110438436D01*
X100074030Y-110442140D01*
X100061009Y-110445127D01*
X100047563Y-110447398D01*
X100033692Y-110448951D01*
X100019396Y-110449788D01*
X100009629Y-110449947D01*
X99998517Y-110449787D01*
X99987712Y-110449306D01*
X99977215Y-110448505D01*
X99967024Y-110447383D01*
X99957141Y-110445940D01*
X99942892Y-110443175D01*
X99929335Y-110439689D01*
X99916468Y-110435481D01*
X99904293Y-110430553D01*
X99892809Y-110424903D01*
X99882016Y-110418531D01*
X99871915Y-110411439D01*
X99868701Y-110408914D01*
X99859579Y-110401004D01*
X99851353Y-110392660D01*
X99844025Y-110383882D01*
X99837595Y-110374671D01*
X99832061Y-110365026D01*
X99827425Y-110354947D01*
X99823686Y-110344435D01*
X99820845Y-110333489D01*
X99818901Y-110322110D01*
X99817854Y-110310297D01*
X99817654Y-110302180D01*
X99818103Y-110289816D01*
X99819449Y-110277911D01*
X99821692Y-110266466D01*
X99824833Y-110255480D01*
X99828871Y-110244954D01*
X99833806Y-110234887D01*
X99839638Y-110225279D01*
X99846368Y-110216130D01*
X99853995Y-110207441D01*
X99862520Y-110199212D01*
X99868701Y-110193981D01*
X99878572Y-110186648D01*
X99889135Y-110180036D01*
X99900388Y-110174145D01*
X99912333Y-110168976D01*
X99924969Y-110164528D01*
X99938296Y-110160802D01*
X99952315Y-110157796D01*
X99962044Y-110156194D01*
X99972081Y-110154911D01*
X99982425Y-110153950D01*
X99993076Y-110153308D01*
X100004035Y-110152988D01*
X100009629Y-110152948D01*
X100091939Y-110152948D01*
X100091939Y-110012264D01*
X100009629Y-110012264D01*
X99999097Y-110012094D01*
X99988873Y-110011585D01*
X99978955Y-110010736D01*
X99964655Y-110008825D01*
X99951045Y-110006150D01*
X99938127Y-110002711D01*
X99925901Y-109998508D01*
X99914365Y-109993541D01*
X99903521Y-109987809D01*
X99893368Y-109981313D01*
X99883906Y-109974053D01*
X99877982Y-109968789D01*
X99869733Y-109960416D01*
X99862295Y-109951601D01*
X99855668Y-109942344D01*
X99849853Y-109932645D01*
X99844849Y-109922503D01*
X99840656Y-109911919D01*
X99837275Y-109900893D01*
X99834706Y-109889425D01*
X99832948Y-109877515D01*
X99832001Y-109865162D01*
X99831821Y-109856681D01*
X99832226Y-109844027D01*
X99833443Y-109831803D01*
X99835472Y-109820008D01*
X99838312Y-109808642D01*
X99841964Y-109797705D01*
X99846426Y-109787198D01*
X99851701Y-109777120D01*
X99857787Y-109767472D01*
X99864684Y-109758252D01*
X99872393Y-109749462D01*
X99877982Y-109743841D01*
X99886983Y-109735941D01*
X99896676Y-109728817D01*
X99907059Y-109722471D01*
X99918134Y-109716902D01*
X99929900Y-109712110D01*
X99942357Y-109708095D01*
X99955505Y-109704857D01*
X99969345Y-109702396D01*
X99983875Y-109700712D01*
X99993947Y-109700022D01*
X100004325Y-109699676D01*
X100009629Y-109699633D01*
X100022657Y-109699992D01*
X100035364Y-109701067D01*
X100047748Y-109702860D01*
X100059810Y-109705369D01*
X100071550Y-109708595D01*
X100082968Y-109712539D01*
X100094064Y-109717199D01*
X100104838Y-109722577D01*
X100115290Y-109728671D01*
X100125420Y-109735482D01*
X100131995Y-109740422D01*
X100141339Y-109748368D01*
X100149953Y-109756911D01*
X100157837Y-109766051D01*
X100164991Y-109775787D01*
X100171415Y-109786121D01*
X100177109Y-109797051D01*
X100182074Y-109808578D01*
X100186309Y-109820701D01*
X100189813Y-109833422D01*
X100192588Y-109846739D01*
X100194033Y-109855949D01*
X100357675Y-109855949D01*
X100354882Y-109837939D01*
X100351508Y-109820484D01*
X100347555Y-109803584D01*
X100343021Y-109787240D01*
X100337907Y-109771451D01*
X100332213Y-109756217D01*
X100325939Y-109741539D01*
X100319085Y-109727416D01*
X100311651Y-109713848D01*
X100303637Y-109700835D01*
X100295042Y-109688378D01*
X100285868Y-109676476D01*
X100276114Y-109665129D01*
X100265779Y-109654338D01*
X100254864Y-109644101D01*
X100243370Y-109634420D01*
X100231374Y-109625281D01*
X100219018Y-109616732D01*
X100206301Y-109608772D01*
X100193224Y-109601402D01*
X100179786Y-109594621D01*
X100165987Y-109588430D01*
X100151827Y-109582829D01*
X100137307Y-109577817D01*
X100122427Y-109573395D01*
X100107185Y-109569562D01*
X100091583Y-109566319D01*
X100075621Y-109563666D01*
X100059297Y-109561603D01*
X100042614Y-109560128D01*
X100025569Y-109559244D01*
X100008164Y-109558949D01*
X99995560Y-109559096D01*
X99983148Y-109559537D01*
X99970929Y-109560272D01*
X99958903Y-109561300D01*
X99947070Y-109562622D01*
X99935429Y-109564239D01*
X99923981Y-109566149D01*
X99912726Y-109568353D01*
X99901664Y-109570850D01*
X99890794Y-109573642D01*
X99880117Y-109576727D01*
X99869632Y-109580107D01*
X99859341Y-109583780D01*
X99849242Y-109587747D01*
X99839336Y-109592008D01*
X99829622Y-109596563D01*
X99820112Y-109601348D01*
X99810877Y-109606363D01*
X99801916Y-109611606D01*
X99793230Y-109617079D01*
X99784819Y-109622781D01*
X99776683Y-109628711D01*
X99768821Y-109634871D01*
X99761234Y-109641259D01*
X99753922Y-109647877D01*
X99746885Y-109654723D01*
X99740123Y-109661798D01*
X99730494Y-109672841D01*
X99721484Y-109684398D01*
X99715820Y-109692390D01*
X99710432Y-109700610D01*
X99705345Y-109708995D01*
X99700586Y-109717539D01*
X99694063Y-109730657D01*
X99690124Y-109739602D01*
X99686514Y-109748708D01*
X99683232Y-109757974D01*
X99680278Y-109767400D01*
X99677653Y-109776987D01*
X99675355Y-109786733D01*
X99673386Y-109796640D01*
X99671745Y-109806708D01*
X99670432Y-109816936D01*
X99669448Y-109827323D01*
X99668791Y-109837872D01*
X99668463Y-109848580D01*
X99668422Y-109853995D01*
X99668579Y-109864457D01*
X99669048Y-109874717D01*
X99669830Y-109884775D01*
X99670926Y-109894631D01*
X99673155Y-109909035D01*
X99676089Y-109922984D01*
X99679727Y-109936478D01*
X99684069Y-109949516D01*
X99689115Y-109962100D01*
X99694865Y-109974229D01*
X99701319Y-109985902D01*
X99708478Y-109997121D01*
X99716109Y-110007777D01*
X99723980Y-110017763D01*
X99732091Y-110027080D01*
X99740443Y-110035727D01*
X99749036Y-110043704D01*
X99757868Y-110051011D01*
X99766942Y-110057648D01*
X99776255Y-110063616D01*
X99785809Y-110068914D01*
X99795604Y-110073542D01*
X99802267Y-110076256D01*
X99791313Y-110080428D01*
X99780617Y-110085343D01*
X99770179Y-110091001D01*
X99759998Y-110097402D01*
X99750075Y-110104545D01*
X99740409Y-110112431D01*
X99731001Y-110121060D01*
X99721850Y-110130432D01*
X99712957Y-110140546D01*
X99704322Y-110151403D01*
X99698708Y-110159054D01*
X99690764Y-110170925D01*
X99683601Y-110183182D01*
X99677220Y-110195826D01*
X99671620Y-110208857D01*
X99666802Y-110222273D01*
X99662764Y-110236076D01*
X99659509Y-110250266D01*
X99657772Y-110259940D01*
X99656383Y-110269786D01*
X99655341Y-110279804D01*
X99654647Y-110289993D01*
X99654299Y-110300355D01*
X99654256Y-110305600D01*
X99654423Y-110315880D01*
X99654924Y-110326021D01*
X99655759Y-110336022D01*
X99656927Y-110345884D01*
X99658430Y-110355607D01*
X99661310Y-110369931D01*
X99664942Y-110383941D01*
X99669324Y-110397637D01*
X99674459Y-110411020D01*
X99680344Y-110424090D01*
X99686981Y-110436846D01*
X99694369Y-110449289D01*
X99696998Y-110453367D01*
X99705345Y-110465253D01*
X99714358Y-110476642D01*
X99724036Y-110487533D01*
X99734379Y-110497926D01*
X99741644Y-110504577D01*
X99749205Y-110511008D01*
X99757062Y-110517217D01*
X99765215Y-110523205D01*
X99773663Y-110528971D01*
X99782407Y-110534516D01*
X99791447Y-110539840D01*
X99800783Y-110544942D01*
X99810414Y-110549823D01*
X99820341Y-110554483D01*
X99830520Y-110558860D01*
X99840907Y-110562955D01*
X99851502Y-110566768D01*
X99862305Y-110570298D01*
X99873316Y-110573545D01*
X99884535Y-110576511D01*
X99895962Y-110579194D01*
X99907597Y-110581594D01*
X99919440Y-110583712D01*
X99931491Y-110585548D01*
X99943750Y-110587101D01*
X99956216Y-110588372D01*
X99968891Y-110589360D01*
X99981774Y-110590066D01*
X99994865Y-110590490D01*
X100008164Y-110590631D01*
G37*
G36*
X99437368Y-110590631D02*
G01*
X99447142Y-110590200D01*
X99458854Y-110588448D01*
X99470006Y-110585348D01*
X99480598Y-110580901D01*
X99490629Y-110575106D01*
X99500099Y-110567964D01*
X99505512Y-110563032D01*
X99513674Y-110554056D01*
X99520453Y-110544532D01*
X99525848Y-110534459D01*
X99529860Y-110523838D01*
X99532489Y-110512668D01*
X99533734Y-110500950D01*
X99533844Y-110496109D01*
X99533153Y-110484195D01*
X99531077Y-110472877D01*
X99527619Y-110462156D01*
X99522777Y-110452031D01*
X99516552Y-110442502D01*
X99508943Y-110433570D01*
X99505512Y-110430163D01*
X99496378Y-110422353D01*
X99486683Y-110415867D01*
X99476428Y-110410704D01*
X99465613Y-110406865D01*
X99454237Y-110404350D01*
X99442300Y-110403158D01*
X99437368Y-110403053D01*
X99427606Y-110403476D01*
X99415940Y-110405197D01*
X99404871Y-110408242D01*
X99394397Y-110412610D01*
X99384520Y-110418302D01*
X99375240Y-110425318D01*
X99369957Y-110430163D01*
X99362006Y-110438922D01*
X99355403Y-110448253D01*
X99350147Y-110458156D01*
X99346239Y-110468632D01*
X99343679Y-110479680D01*
X99342466Y-110491301D01*
X99342358Y-110496109D01*
X99343032Y-110508047D01*
X99345053Y-110519436D01*
X99348422Y-110530277D01*
X99353139Y-110540569D01*
X99359203Y-110550312D01*
X99366615Y-110559507D01*
X99369957Y-110563032D01*
X99378880Y-110570983D01*
X99388400Y-110577586D01*
X99398515Y-110582842D01*
X99409227Y-110586750D01*
X99420535Y-110589310D01*
X99432440Y-110590523D01*
X99437368Y-110590631D01*
G37*
G36*
X110421364Y-111489273D02*
G01*
X110435616Y-111489932D01*
X110449559Y-111491029D01*
X110463192Y-111492565D01*
X110476517Y-111494540D01*
X110489532Y-111496954D01*
X110502239Y-111499806D01*
X110514636Y-111503098D01*
X110526724Y-111506828D01*
X110538503Y-111510998D01*
X110549973Y-111515606D01*
X110561134Y-111520653D01*
X110571985Y-111526139D01*
X110582528Y-111532064D01*
X110592761Y-111538427D01*
X110602685Y-111545230D01*
X110612262Y-111552420D01*
X110621454Y-111560006D01*
X110630260Y-111567990D01*
X110638681Y-111576371D01*
X110646716Y-111585148D01*
X110654366Y-111594323D01*
X110661630Y-111603894D01*
X110668509Y-111613862D01*
X110675002Y-111624227D01*
X110681110Y-111634989D01*
X110686833Y-111646148D01*
X110692170Y-111657704D01*
X110697122Y-111669656D01*
X110701688Y-111682006D01*
X110705869Y-111694752D01*
X110709664Y-111707896D01*
X110554570Y-111707896D01*
X110553617Y-111705562D01*
X110549371Y-111696565D01*
X110543087Y-111686081D01*
X110535718Y-111676443D01*
X110527264Y-111667653D01*
X110519719Y-111661230D01*
X110511480Y-111655349D01*
X110502546Y-111650010D01*
X110495365Y-111646387D01*
X110485250Y-111642111D01*
X110474517Y-111638468D01*
X110463165Y-111635459D01*
X110451196Y-111633084D01*
X110438607Y-111631341D01*
X110428761Y-111630451D01*
X110418566Y-111629916D01*
X110408024Y-111629738D01*
X110399346Y-111629867D01*
X110386758Y-111630543D01*
X110374685Y-111631799D01*
X110363127Y-111633634D01*
X110352085Y-111636049D01*
X110341557Y-111639044D01*
X110331545Y-111642618D01*
X110322049Y-111646772D01*
X110313067Y-111651505D01*
X110304600Y-111656818D01*
X110296649Y-111662711D01*
X110289316Y-111669108D01*
X110280661Y-111678305D01*
X110273288Y-111688265D01*
X110267197Y-111698989D01*
X110262388Y-111710476D01*
X110258862Y-111722727D01*
X110257059Y-111732415D01*
X110255977Y-111742533D01*
X110255616Y-111753080D01*
X110255616Y-111786053D01*
X110443195Y-111786053D01*
X110459701Y-111786318D01*
X110475759Y-111787110D01*
X110491369Y-111788432D01*
X110506530Y-111790282D01*
X110521243Y-111792660D01*
X110535507Y-111795567D01*
X110549323Y-111799003D01*
X110562691Y-111802967D01*
X110575610Y-111807460D01*
X110588081Y-111812481D01*
X110600103Y-111818031D01*
X110611677Y-111824109D01*
X110622802Y-111830716D01*
X110633479Y-111837852D01*
X110643708Y-111845516D01*
X110653488Y-111853709D01*
X110662716Y-111862288D01*
X110671348Y-111871172D01*
X110679385Y-111880362D01*
X110686827Y-111889856D01*
X110693674Y-111899657D01*
X110699925Y-111909762D01*
X110705580Y-111920173D01*
X110710641Y-111930889D01*
X110715106Y-111941911D01*
X110718976Y-111953237D01*
X110722250Y-111964870D01*
X110724929Y-111976807D01*
X110727013Y-111989050D01*
X110728501Y-112001598D01*
X110729394Y-112014451D01*
X110729692Y-112027609D01*
X110729564Y-112036167D01*
X110728893Y-112048811D01*
X110727646Y-112061223D01*
X110725824Y-112073404D01*
X110723427Y-112085352D01*
X110720455Y-112097068D01*
X110716907Y-112108553D01*
X110712784Y-112119806D01*
X110708086Y-112130827D01*
X110702812Y-112141616D01*
X110696963Y-112152173D01*
X110692767Y-112159010D01*
X110686080Y-112168915D01*
X110678920Y-112178399D01*
X110671288Y-112187462D01*
X110663183Y-112196105D01*
X110654607Y-112204326D01*
X110645558Y-112212127D01*
X110636037Y-112219507D01*
X110626043Y-112226467D01*
X110615577Y-112233006D01*
X110604639Y-112239124D01*
X110597118Y-112242939D01*
X110585569Y-112248201D01*
X110573697Y-112252908D01*
X110561503Y-112257062D01*
X110548987Y-112260662D01*
X110536150Y-112263708D01*
X110522990Y-112266200D01*
X110509508Y-112268139D01*
X110495704Y-112269523D01*
X110481578Y-112270354D01*
X110467131Y-112270631D01*
X110457281Y-112270495D01*
X110442778Y-112269778D01*
X110428601Y-112268448D01*
X110414751Y-112266504D01*
X110401227Y-112263946D01*
X110388029Y-112260774D01*
X110375158Y-112256988D01*
X110362613Y-112252588D01*
X110350394Y-112247574D01*
X110338502Y-112241946D01*
X110326935Y-112235704D01*
X110319453Y-112231318D01*
X110308790Y-112224664D01*
X110298802Y-112217920D01*
X110289487Y-112211086D01*
X110280847Y-112204162D01*
X110272881Y-112197147D01*
X110265588Y-112190042D01*
X110256914Y-112180429D01*
X110249438Y-112170656D01*
X110246459Y-112165943D01*
X110231925Y-112255000D01*
X110106384Y-112255000D01*
X110106384Y-111926737D01*
X110255616Y-111926737D01*
X110255616Y-111958489D01*
X110255824Y-111967728D01*
X110256916Y-111981200D01*
X110258944Y-111994209D01*
X110261908Y-112006754D01*
X110265808Y-112018836D01*
X110270644Y-112030454D01*
X110276415Y-112041608D01*
X110283123Y-112052298D01*
X110290766Y-112062525D01*
X110299346Y-112072288D01*
X110308861Y-112081587D01*
X110315631Y-112087443D01*
X110326324Y-112095519D01*
X110337667Y-112102745D01*
X110349657Y-112109120D01*
X110362296Y-112114646D01*
X110375583Y-112119321D01*
X110389519Y-112123147D01*
X110399169Y-112125224D01*
X110409108Y-112126925D01*
X110419334Y-112128247D01*
X110429849Y-112129192D01*
X110440652Y-112129758D01*
X110451743Y-112129947D01*
X110463081Y-112129702D01*
X110473920Y-112128968D01*
X110484261Y-112127745D01*
X110494104Y-112126032D01*
X110506454Y-112122986D01*
X110517918Y-112119071D01*
X110528497Y-112114285D01*
X110538190Y-112108629D01*
X110546998Y-112102103D01*
X110554841Y-112094784D01*
X110561637Y-112086869D01*
X110567389Y-112078358D01*
X110572094Y-112069253D01*
X110575754Y-112059552D01*
X110578368Y-112049255D01*
X110579937Y-112038364D01*
X110580459Y-112026877D01*
X110579917Y-112015859D01*
X110578292Y-112005399D01*
X110575582Y-111995495D01*
X110571789Y-111986149D01*
X110566912Y-111977360D01*
X110560950Y-111969129D01*
X110553906Y-111961454D01*
X110545777Y-111954337D01*
X110541273Y-111950994D01*
X110531434Y-111944957D01*
X110520489Y-111939782D01*
X110508437Y-111935470D01*
X110498672Y-111932801D01*
X110488284Y-111930618D01*
X110477274Y-111928920D01*
X110465641Y-111927707D01*
X110453386Y-111926980D01*
X110440508Y-111926737D01*
X110255616Y-111926737D01*
X110106384Y-111926737D01*
X110106384Y-111764316D01*
X110106699Y-111748617D01*
X110107643Y-111733335D01*
X110109218Y-111718469D01*
X110111422Y-111704018D01*
X110114255Y-111689984D01*
X110117718Y-111676365D01*
X110121811Y-111663163D01*
X110126534Y-111650376D01*
X110131886Y-111638006D01*
X110137868Y-111626051D01*
X110144480Y-111614513D01*
X110151722Y-111603390D01*
X110159593Y-111592683D01*
X110168094Y-111582393D01*
X110177224Y-111572518D01*
X110186984Y-111563060D01*
X110197260Y-111554098D01*
X110207997Y-111545714D01*
X110219196Y-111537909D01*
X110230856Y-111530682D01*
X110242979Y-111524033D01*
X110255563Y-111517962D01*
X110268609Y-111512470D01*
X110282117Y-111507555D01*
X110296086Y-111503219D01*
X110310518Y-111499461D01*
X110325411Y-111496281D01*
X110340766Y-111493679D01*
X110356582Y-111491656D01*
X110372861Y-111490210D01*
X110389601Y-111489343D01*
X110406803Y-111489054D01*
X110421364Y-111489273D01*
G37*
G36*
X109787647Y-112255000D02*
G01*
X109936879Y-112255000D01*
X109936879Y-111254581D01*
X109787647Y-111254581D01*
X109787647Y-112255000D01*
G37*
G36*
X109453523Y-112255000D02*
G01*
X109602755Y-112255000D01*
X109602755Y-111254581D01*
X109453523Y-111254581D01*
X109453523Y-112255000D01*
G37*
G36*
X108964060Y-112255000D02*
G01*
X108964060Y-111504685D01*
X108839985Y-111504685D01*
X108823132Y-111598719D01*
X108827040Y-111598719D01*
X108821248Y-111589792D01*
X108815139Y-111581328D01*
X108808712Y-111573328D01*
X108801967Y-111565792D01*
X108794904Y-111558719D01*
X108787524Y-111552111D01*
X108779826Y-111545965D01*
X108771811Y-111540284D01*
X108763477Y-111535066D01*
X108754826Y-111530312D01*
X108748882Y-111527400D01*
X108739643Y-111523341D01*
X108730060Y-111519681D01*
X108720134Y-111516420D01*
X108709864Y-111513558D01*
X108699251Y-111511096D01*
X108688295Y-111509033D01*
X108676995Y-111507370D01*
X108665351Y-111506105D01*
X108653364Y-111505240D01*
X108641034Y-111504774D01*
X108632623Y-111504685D01*
X108543230Y-111504685D01*
X108543230Y-111645369D01*
X108628471Y-111645369D01*
X108638671Y-111645559D01*
X108648632Y-111646129D01*
X108663127Y-111647695D01*
X108677085Y-111650116D01*
X108690507Y-111653391D01*
X108703392Y-111657520D01*
X108715740Y-111662504D01*
X108727552Y-111668342D01*
X108738827Y-111675035D01*
X108749565Y-111682582D01*
X108759767Y-111690983D01*
X108763048Y-111693974D01*
X108772302Y-111703303D01*
X108780645Y-111713156D01*
X108788078Y-111723533D01*
X108794601Y-111734434D01*
X108800214Y-111745859D01*
X108804917Y-111757807D01*
X108808709Y-111770279D01*
X108811592Y-111783275D01*
X108813564Y-111796795D01*
X108814626Y-111810838D01*
X108814828Y-111820491D01*
X108814828Y-112255000D01*
X108964060Y-112255000D01*
G37*
G36*
X108297033Y-112255000D02*
G01*
X108446265Y-112255000D01*
X108446265Y-111504685D01*
X108297033Y-111504685D01*
X108297033Y-112255000D01*
G37*
G36*
X108372260Y-111399173D02*
G01*
X108383987Y-111398517D01*
X108395201Y-111396549D01*
X108405902Y-111393269D01*
X108416090Y-111388678D01*
X108425765Y-111382774D01*
X108434928Y-111375559D01*
X108438450Y-111372306D01*
X108446401Y-111363624D01*
X108453004Y-111354369D01*
X108458260Y-111344542D01*
X108462168Y-111334143D01*
X108464728Y-111323171D01*
X108465941Y-111311627D01*
X108466049Y-111306849D01*
X108465618Y-111297087D01*
X108463866Y-111285421D01*
X108460766Y-111274351D01*
X108456319Y-111263878D01*
X108450524Y-111254001D01*
X108443382Y-111244720D01*
X108438450Y-111239438D01*
X108429492Y-111231416D01*
X108420022Y-111224755D01*
X108410039Y-111219452D01*
X108399543Y-111215510D01*
X108388534Y-111212926D01*
X108377012Y-111211703D01*
X108372260Y-111211594D01*
X108360539Y-111212274D01*
X108349343Y-111214313D01*
X108338672Y-111217712D01*
X108328525Y-111222470D01*
X108318903Y-111228588D01*
X108309806Y-111236066D01*
X108306314Y-111239438D01*
X108298363Y-111248361D01*
X108291760Y-111257880D01*
X108286504Y-111267996D01*
X108282596Y-111278707D01*
X108280035Y-111290016D01*
X108278823Y-111301920D01*
X108278715Y-111306849D01*
X108279389Y-111318558D01*
X108281410Y-111329718D01*
X108284779Y-111340330D01*
X108289496Y-111350393D01*
X108295560Y-111359907D01*
X108302972Y-111368873D01*
X108306314Y-111372306D01*
X108315201Y-111380046D01*
X108324613Y-111386474D01*
X108334550Y-111391590D01*
X108345011Y-111395394D01*
X108355998Y-111397887D01*
X108367509Y-111399068D01*
X108372260Y-111399173D01*
G37*
G36*
X107848429Y-111489220D02*
G01*
X107860056Y-111489718D01*
X107871517Y-111490548D01*
X107882812Y-111491710D01*
X107893942Y-111493204D01*
X107904905Y-111495030D01*
X107915702Y-111497188D01*
X107926333Y-111499678D01*
X107936799Y-111502501D01*
X107947098Y-111505655D01*
X107957231Y-111509141D01*
X107967198Y-111512959D01*
X107977000Y-111517109D01*
X107986635Y-111521592D01*
X107996104Y-111526406D01*
X108005407Y-111531552D01*
X108014470Y-111536985D01*
X108023279Y-111542719D01*
X108031834Y-111548754D01*
X108040135Y-111555091D01*
X108048183Y-111561730D01*
X108055977Y-111568669D01*
X108063517Y-111575911D01*
X108070803Y-111583454D01*
X108077836Y-111591298D01*
X108084614Y-111599444D01*
X108091139Y-111607891D01*
X108097410Y-111616640D01*
X108103428Y-111625691D01*
X108109191Y-111635042D01*
X108114701Y-111644696D01*
X108119957Y-111654651D01*
X108124926Y-111664879D01*
X108129574Y-111675354D01*
X108133902Y-111686075D01*
X108137909Y-111697042D01*
X108141595Y-111708255D01*
X108144961Y-111719715D01*
X108148007Y-111731420D01*
X108150732Y-111743372D01*
X108153136Y-111755570D01*
X108155220Y-111768014D01*
X108156983Y-111780704D01*
X108158425Y-111793640D01*
X108159547Y-111806822D01*
X108160349Y-111820251D01*
X108160829Y-111833926D01*
X108160990Y-111847847D01*
X108160829Y-111861770D01*
X108160349Y-111875454D01*
X108159547Y-111888897D01*
X108158425Y-111902099D01*
X108156983Y-111915061D01*
X108155220Y-111927783D01*
X108153136Y-111940264D01*
X108150732Y-111952505D01*
X108148007Y-111964505D01*
X108144961Y-111976265D01*
X108141595Y-111987784D01*
X108137909Y-111999064D01*
X108133902Y-112010102D01*
X108129574Y-112020900D01*
X108124926Y-112031458D01*
X108119957Y-112041775D01*
X108114701Y-112051820D01*
X108109191Y-112061559D01*
X108103428Y-112070993D01*
X108097410Y-112080122D01*
X108091139Y-112088945D01*
X108084614Y-112097463D01*
X108077836Y-112105676D01*
X108070803Y-112113583D01*
X108063517Y-112121185D01*
X108055977Y-112128482D01*
X108048183Y-112135473D01*
X108040135Y-112142159D01*
X108031834Y-112148540D01*
X108023279Y-112154616D01*
X108014470Y-112160386D01*
X108005407Y-112165851D01*
X107996104Y-112170968D01*
X107986635Y-112175754D01*
X107977000Y-112180211D01*
X107967198Y-112184337D01*
X107957231Y-112188133D01*
X107947098Y-112191599D01*
X107936799Y-112194735D01*
X107926333Y-112197541D01*
X107915702Y-112200017D01*
X107904905Y-112202163D01*
X107893942Y-112203979D01*
X107882812Y-112205464D01*
X107871517Y-112206619D01*
X107860056Y-112207445D01*
X107848429Y-112207940D01*
X107836635Y-112208105D01*
X107827356Y-112207998D01*
X107813673Y-112207437D01*
X107800274Y-112206395D01*
X107787157Y-112204872D01*
X107774325Y-112202869D01*
X107761775Y-112200385D01*
X107749509Y-112197419D01*
X107737527Y-112193973D01*
X107725827Y-112190046D01*
X107714411Y-112185638D01*
X107703279Y-112180750D01*
X107696053Y-112177249D01*
X107685598Y-112171809D01*
X107675603Y-112166141D01*
X107666067Y-112160245D01*
X107656990Y-112154122D01*
X107648372Y-112147772D01*
X107640214Y-112141194D01*
X107632516Y-112134388D01*
X107625276Y-112127355D01*
X107618497Y-112120094D01*
X107615873Y-112116985D01*
X107616572Y-112224469D01*
X107616622Y-112229621D01*
X107617021Y-112239696D01*
X107617819Y-112249466D01*
X107619763Y-112263548D01*
X107622604Y-112276943D01*
X107626343Y-112289651D01*
X107630979Y-112301673D01*
X107636513Y-112313007D01*
X107642943Y-112323655D01*
X107650271Y-112333615D01*
X107658497Y-112342889D01*
X107667619Y-112351475D01*
X107670846Y-112354195D01*
X107680965Y-112361837D01*
X107691740Y-112368701D01*
X107703173Y-112374788D01*
X107715262Y-112380098D01*
X107728008Y-112384631D01*
X107741411Y-112388387D01*
X107755471Y-112391366D01*
X107765209Y-112392920D01*
X107775240Y-112394129D01*
X107785562Y-112394993D01*
X107796176Y-112395511D01*
X107807082Y-112395683D01*
X107815870Y-112395578D01*
X107828690Y-112395027D01*
X107841077Y-112394004D01*
X107853031Y-112392509D01*
X107864550Y-112390541D01*
X107875637Y-112388101D01*
X107886289Y-112385189D01*
X107896508Y-112381804D01*
X107906293Y-112377947D01*
X107915645Y-112373618D01*
X107924563Y-112368817D01*
X107930268Y-112365346D01*
X107938468Y-112359717D01*
X107946239Y-112353582D01*
X107953581Y-112346940D01*
X107960493Y-112339792D01*
X107966976Y-112332137D01*
X107973030Y-112323975D01*
X107978654Y-112315307D01*
X107983849Y-112306132D01*
X107988614Y-112296451D01*
X107992951Y-112286263D01*
X108149510Y-112286263D01*
X108144645Y-112301795D01*
X108139390Y-112316823D01*
X108133745Y-112331348D01*
X108127712Y-112345369D01*
X108121289Y-112358887D01*
X108114477Y-112371900D01*
X108107275Y-112384410D01*
X108099685Y-112396416D01*
X108091705Y-112407918D01*
X108083336Y-112418917D01*
X108074577Y-112429412D01*
X108065430Y-112439403D01*
X108055893Y-112448890D01*
X108045967Y-112457874D01*
X108035651Y-112466354D01*
X108024946Y-112474330D01*
X108013849Y-112481842D01*
X108002415Y-112488870D01*
X107990646Y-112495413D01*
X107978540Y-112501471D01*
X107966099Y-112507045D01*
X107953322Y-112512134D01*
X107940209Y-112516738D01*
X107926761Y-112520858D01*
X107912976Y-112524493D01*
X107898856Y-112527643D01*
X107884400Y-112530309D01*
X107869608Y-112532490D01*
X107854480Y-112534186D01*
X107839017Y-112535398D01*
X107823217Y-112536125D01*
X107807082Y-112536367D01*
X107787649Y-112536051D01*
X107768736Y-112535104D01*
X107750341Y-112533525D01*
X107732466Y-112531314D01*
X107715109Y-112528472D01*
X107698272Y-112524999D01*
X107681953Y-112520893D01*
X107666154Y-112516156D01*
X107650873Y-112510788D01*
X107636112Y-112504787D01*
X107621869Y-112498156D01*
X107608146Y-112490892D01*
X107594942Y-112482997D01*
X107582256Y-112474471D01*
X107570090Y-112465313D01*
X107558443Y-112455523D01*
X107547411Y-112445165D01*
X107537090Y-112434300D01*
X107527482Y-112422931D01*
X107518585Y-112411055D01*
X107510400Y-112398674D01*
X107502927Y-112385788D01*
X107496165Y-112372395D01*
X107490116Y-112358497D01*
X107484778Y-112344094D01*
X107480151Y-112329184D01*
X107476237Y-112313769D01*
X107473034Y-112297849D01*
X107470543Y-112281423D01*
X107468764Y-112264491D01*
X107467696Y-112247053D01*
X107467340Y-112229110D01*
X107467340Y-111847847D01*
X107616572Y-111847847D01*
X107616784Y-111860701D01*
X107617420Y-111873191D01*
X107618479Y-111885316D01*
X107619961Y-111897077D01*
X107621868Y-111908473D01*
X107624197Y-111919505D01*
X107626951Y-111930173D01*
X107630128Y-111940476D01*
X107633729Y-111950414D01*
X107637753Y-111959988D01*
X107642201Y-111969198D01*
X107647072Y-111978043D01*
X107652367Y-111986524D01*
X107658086Y-111994640D01*
X107664228Y-112002392D01*
X107670794Y-112009780D01*
X107681226Y-112020081D01*
X107692281Y-112029369D01*
X107703958Y-112037643D01*
X107716258Y-112044905D01*
X107729180Y-112051153D01*
X107742725Y-112056388D01*
X107752101Y-112059315D01*
X107761753Y-112061792D01*
X107771682Y-112063818D01*
X107781888Y-112065395D01*
X107792370Y-112066520D01*
X107803129Y-112067196D01*
X107814165Y-112067421D01*
X107819718Y-112067365D01*
X107830617Y-112066914D01*
X107841242Y-112066014D01*
X107851591Y-112064663D01*
X107861666Y-112062861D01*
X107871467Y-112060610D01*
X107880992Y-112057908D01*
X107890243Y-112054756D01*
X107903604Y-112049183D01*
X107916346Y-112042597D01*
X107928471Y-112034998D01*
X107939977Y-112026385D01*
X107950865Y-112016760D01*
X107957780Y-112009780D01*
X107964316Y-112002392D01*
X107970431Y-111994640D01*
X107976124Y-111986524D01*
X107981395Y-111978043D01*
X107986244Y-111969198D01*
X107990672Y-111959988D01*
X107994678Y-111950414D01*
X107998263Y-111940476D01*
X108001426Y-111930173D01*
X108004167Y-111919505D01*
X108006486Y-111908473D01*
X108008384Y-111897077D01*
X108009860Y-111885316D01*
X108010914Y-111873191D01*
X108011547Y-111860701D01*
X108011757Y-111847847D01*
X108011547Y-111835170D01*
X108010914Y-111822846D01*
X108009860Y-111810875D01*
X108008384Y-111799258D01*
X108006486Y-111787993D01*
X108004167Y-111777081D01*
X108001426Y-111766522D01*
X107998263Y-111756317D01*
X107994678Y-111746464D01*
X107990672Y-111736964D01*
X107986244Y-111727818D01*
X107981395Y-111719024D01*
X107976124Y-111710583D01*
X107970431Y-111702495D01*
X107964316Y-111694761D01*
X107957780Y-111687379D01*
X107947304Y-111677078D01*
X107936210Y-111667790D01*
X107924498Y-111659515D01*
X107912167Y-111652254D01*
X107899219Y-111646006D01*
X107885652Y-111640771D01*
X107876264Y-111637844D01*
X107866601Y-111635367D01*
X107856663Y-111633340D01*
X107846451Y-111631764D01*
X107835964Y-111630638D01*
X107825202Y-111629963D01*
X107814165Y-111629738D01*
X107803129Y-111629963D01*
X107792370Y-111630638D01*
X107781888Y-111631764D01*
X107771682Y-111633340D01*
X107761753Y-111635367D01*
X107752101Y-111637844D01*
X107738141Y-111642403D01*
X107724804Y-111647976D01*
X107712089Y-111654562D01*
X107699997Y-111662161D01*
X107688527Y-111670773D01*
X107677680Y-111680399D01*
X107670794Y-111687379D01*
X107664228Y-111694761D01*
X107658086Y-111702495D01*
X107652367Y-111710583D01*
X107647072Y-111719024D01*
X107642201Y-111727818D01*
X107637753Y-111736964D01*
X107633729Y-111746464D01*
X107630128Y-111756317D01*
X107626951Y-111766522D01*
X107624197Y-111777081D01*
X107621868Y-111787993D01*
X107619961Y-111799258D01*
X107618479Y-111810875D01*
X107617420Y-111822846D01*
X107616784Y-111835170D01*
X107616572Y-111847847D01*
X107467340Y-111847847D01*
X107467340Y-111504685D01*
X107591171Y-111504685D01*
X107607421Y-111589942D01*
X107609375Y-111587544D01*
X107616536Y-111579433D01*
X107624144Y-111571593D01*
X107632198Y-111564023D01*
X107640699Y-111556724D01*
X107649646Y-111549695D01*
X107659040Y-111542936D01*
X107668880Y-111536448D01*
X107679167Y-111530231D01*
X107689901Y-111524284D01*
X107701080Y-111518607D01*
X107708737Y-111515029D01*
X107720426Y-111510093D01*
X107732359Y-111505678D01*
X107744537Y-111501782D01*
X107756960Y-111498405D01*
X107769627Y-111495548D01*
X107782539Y-111493210D01*
X107795696Y-111491392D01*
X107809098Y-111490093D01*
X107822744Y-111489314D01*
X107836635Y-111489054D01*
X107848429Y-111489220D01*
G37*
G36*
X107291241Y-112255000D02*
G01*
X107291241Y-111254581D01*
X107142009Y-111254581D01*
X107142741Y-111591147D01*
X107146893Y-111590415D01*
X107140159Y-111581200D01*
X107133146Y-111572423D01*
X107125854Y-111564084D01*
X107118283Y-111556183D01*
X107110432Y-111548719D01*
X107102303Y-111541694D01*
X107093894Y-111535107D01*
X107085207Y-111528957D01*
X107076240Y-111523246D01*
X107066995Y-111517972D01*
X107060676Y-111514699D01*
X107050967Y-111510116D01*
X107040984Y-111505984D01*
X107030725Y-111502302D01*
X107020192Y-111499072D01*
X107009385Y-111496292D01*
X106998302Y-111493963D01*
X106986945Y-111492084D01*
X106975313Y-111490657D01*
X106963406Y-111489680D01*
X106951224Y-111489154D01*
X106942951Y-111489054D01*
X106933119Y-111489196D01*
X106918597Y-111489942D01*
X106904345Y-111491328D01*
X106890364Y-111493354D01*
X106876653Y-111496020D01*
X106863213Y-111499325D01*
X106850043Y-111503270D01*
X106837144Y-111507854D01*
X106824515Y-111513078D01*
X106812156Y-111518942D01*
X106800069Y-111525446D01*
X106788302Y-111532512D01*
X106776999Y-111540152D01*
X106766160Y-111548368D01*
X106755784Y-111557160D01*
X106745872Y-111566526D01*
X106736424Y-111576468D01*
X106727440Y-111586985D01*
X106718919Y-111598078D01*
X106710862Y-111609746D01*
X106703268Y-111621989D01*
X106698464Y-111630471D01*
X106693909Y-111639152D01*
X106689648Y-111648037D01*
X106685681Y-111657126D01*
X106682008Y-111666420D01*
X106678628Y-111675918D01*
X106675543Y-111685620D01*
X106672751Y-111695526D01*
X106670254Y-111705636D01*
X106668050Y-111715951D01*
X106666140Y-111726469D01*
X106664523Y-111737192D01*
X106663201Y-111748119D01*
X106662173Y-111759250D01*
X106661438Y-111770586D01*
X106660997Y-111782125D01*
X106660850Y-111793869D01*
X106660850Y-112255000D01*
X106810083Y-112255000D01*
X106810083Y-111805593D01*
X106810253Y-111795269D01*
X106810766Y-111785240D01*
X106811620Y-111775508D01*
X106813541Y-111761464D01*
X106816231Y-111748085D01*
X106819689Y-111735372D01*
X106823916Y-111723324D01*
X106828911Y-111711942D01*
X106834675Y-111701225D01*
X106841207Y-111691173D01*
X106848508Y-111681787D01*
X106853802Y-111675900D01*
X106862209Y-111667650D01*
X106871127Y-111660212D01*
X106880556Y-111653585D01*
X106890496Y-111647770D01*
X106900946Y-111642766D01*
X106911908Y-111638573D01*
X106923380Y-111635192D01*
X106935364Y-111632623D01*
X106947858Y-111630865D01*
X106960863Y-111629918D01*
X106969817Y-111629738D01*
X106983474Y-111630186D01*
X106996694Y-111631532D01*
X107009475Y-111633776D01*
X107021818Y-111636916D01*
X107033724Y-111640954D01*
X107045191Y-111645889D01*
X107056221Y-111651722D01*
X107066812Y-111658452D01*
X107076966Y-111666079D01*
X107086682Y-111674603D01*
X107092916Y-111680785D01*
X107101689Y-111690514D01*
X107109600Y-111700651D01*
X107116647Y-111711196D01*
X107122832Y-111722149D01*
X107128153Y-111733510D01*
X107132612Y-111745279D01*
X107136208Y-111757456D01*
X107138940Y-111770040D01*
X107140810Y-111783032D01*
X107141817Y-111796433D01*
X107142009Y-111805593D01*
X107142009Y-112255000D01*
X107291241Y-112255000D01*
G37*
G36*
X106261025Y-112255000D02*
G01*
X106272543Y-112254783D01*
X106283774Y-112254133D01*
X106294716Y-112253050D01*
X106305370Y-112251534D01*
X106315736Y-112249585D01*
X106325814Y-112247203D01*
X106335604Y-112244387D01*
X106345105Y-112241139D01*
X106354319Y-112237457D01*
X106363244Y-112233342D01*
X106376092Y-112226357D01*
X106388291Y-112218398D01*
X106399843Y-112209465D01*
X106407183Y-112202967D01*
X106410746Y-112199556D01*
X106417578Y-112192461D01*
X106426999Y-112181313D01*
X106435429Y-112169560D01*
X106442867Y-112157202D01*
X106449314Y-112144238D01*
X106454769Y-112130669D01*
X106457854Y-112121287D01*
X106460499Y-112111635D01*
X106462703Y-112101715D01*
X106464466Y-112091525D01*
X106465788Y-112081067D01*
X106466670Y-112070339D01*
X106467111Y-112059343D01*
X106467166Y-112053743D01*
X106467166Y-111645369D01*
X106582692Y-111645369D01*
X106582692Y-111504685D01*
X106466433Y-111504685D01*
X106448115Y-111301475D01*
X106317933Y-111301475D01*
X106317933Y-111504685D01*
X106132309Y-111504685D01*
X106132309Y-111645369D01*
X106317933Y-111645369D01*
X106317933Y-112042508D01*
X106317229Y-112054003D01*
X106315117Y-112064673D01*
X106311596Y-112074519D01*
X106306668Y-112083541D01*
X106300331Y-112091738D01*
X106297905Y-112094288D01*
X106289891Y-112101094D01*
X106281053Y-112106492D01*
X106271390Y-112110482D01*
X106260903Y-112113064D01*
X106249591Y-112114237D01*
X106245637Y-112114316D01*
X106132309Y-112114316D01*
X106132309Y-112255000D01*
X106261025Y-112255000D01*
G37*
G36*
X105768875Y-112270631D02*
G01*
X105783803Y-112270412D01*
X105798421Y-112269753D01*
X105812730Y-112268656D01*
X105826730Y-112267120D01*
X105840421Y-112265145D01*
X105853803Y-112262731D01*
X105866876Y-112259879D01*
X105879639Y-112256587D01*
X105892094Y-112252857D01*
X105904239Y-112248687D01*
X105916076Y-112244079D01*
X105927603Y-112239032D01*
X105938821Y-112233546D01*
X105949730Y-112227621D01*
X105960329Y-112221258D01*
X105970620Y-112214455D01*
X105980532Y-112207208D01*
X105989995Y-112199572D01*
X105999010Y-112191546D01*
X106007577Y-112183131D01*
X106015695Y-112174327D01*
X106023365Y-112165133D01*
X106030586Y-112155551D01*
X106037359Y-112145579D01*
X106043684Y-112135217D01*
X106049560Y-112124467D01*
X106054988Y-112113327D01*
X106059967Y-112101798D01*
X106064498Y-112089880D01*
X106068580Y-112077572D01*
X106072214Y-112064876D01*
X106075400Y-112051789D01*
X105916642Y-112051789D01*
X105912868Y-112061090D01*
X105908262Y-112069818D01*
X105902823Y-112077973D01*
X105896553Y-112085556D01*
X105889451Y-112092567D01*
X105881517Y-112099005D01*
X105872751Y-112104870D01*
X105863153Y-112110163D01*
X105852918Y-112114800D01*
X105842240Y-112118819D01*
X105831119Y-112122219D01*
X105819556Y-112125001D01*
X105807550Y-112127165D01*
X105795101Y-112128711D01*
X105782209Y-112129638D01*
X105772250Y-112129928D01*
X105768875Y-112129947D01*
X105754411Y-112129726D01*
X105740694Y-112129063D01*
X105727724Y-112127957D01*
X105715501Y-112126409D01*
X105704025Y-112124419D01*
X105693296Y-112121987D01*
X105683314Y-112119113D01*
X105674079Y-112115796D01*
X105662927Y-112110686D01*
X105653104Y-112104790D01*
X105644460Y-112098287D01*
X105636969Y-112091357D01*
X105629225Y-112082093D01*
X105623283Y-112072161D01*
X105619141Y-112061561D01*
X105616800Y-112050293D01*
X105616224Y-112040799D01*
X105616928Y-112030552D01*
X105619529Y-112019552D01*
X105624047Y-112009581D01*
X105630482Y-112000639D01*
X105636251Y-111994881D01*
X105644082Y-111988552D01*
X105652738Y-111982757D01*
X105662218Y-111977493D01*
X105672522Y-111972762D01*
X105681738Y-111969226D01*
X105687542Y-111967281D01*
X105698016Y-111964057D01*
X105707408Y-111961339D01*
X105717700Y-111958500D01*
X105728893Y-111955539D01*
X105740987Y-111952455D01*
X105750649Y-111950062D01*
X105760817Y-111947601D01*
X105771491Y-111945071D01*
X105778889Y-111943346D01*
X105789215Y-111941049D01*
X105799310Y-111938739D01*
X105809174Y-111936416D01*
X105818808Y-111934080D01*
X105832825Y-111930550D01*
X105846322Y-111926990D01*
X105859300Y-111923400D01*
X105871759Y-111919780D01*
X105883698Y-111916130D01*
X105895117Y-111912450D01*
X105906017Y-111908740D01*
X105916398Y-111905000D01*
X105926392Y-111900958D01*
X105936133Y-111896436D01*
X105945621Y-111891433D01*
X105954855Y-111885949D01*
X105963836Y-111879984D01*
X105972563Y-111873538D01*
X105981038Y-111866611D01*
X105989259Y-111859204D01*
X105997226Y-111851316D01*
X106004941Y-111842947D01*
X106009943Y-111837100D01*
X106017014Y-111827871D01*
X106023390Y-111818046D01*
X106029070Y-111807624D01*
X106034054Y-111796605D01*
X106038343Y-111784990D01*
X106041937Y-111772777D01*
X106044835Y-111759968D01*
X106047037Y-111746562D01*
X106048544Y-111732560D01*
X106049356Y-111717960D01*
X106049510Y-111707896D01*
X106049210Y-111696722D01*
X106048308Y-111685733D01*
X106046806Y-111674929D01*
X106044702Y-111664310D01*
X106041997Y-111653875D01*
X106038691Y-111643624D01*
X106034784Y-111633559D01*
X106030276Y-111623678D01*
X106025167Y-111613981D01*
X106019457Y-111604469D01*
X106015316Y-111598230D01*
X106008604Y-111589066D01*
X106001380Y-111580259D01*
X105993646Y-111571807D01*
X105985400Y-111563712D01*
X105976644Y-111555973D01*
X105967377Y-111548591D01*
X105957599Y-111541565D01*
X105947310Y-111534895D01*
X105936510Y-111528582D01*
X105925199Y-111522625D01*
X105917375Y-111518852D01*
X105905238Y-111513526D01*
X105892731Y-111508725D01*
X105879856Y-111504447D01*
X105866611Y-111500694D01*
X105852996Y-111497464D01*
X105839013Y-111494757D01*
X105824660Y-111492575D01*
X105814887Y-111491411D01*
X105804949Y-111490480D01*
X105794848Y-111489781D01*
X105784582Y-111489316D01*
X105774152Y-111489083D01*
X105768875Y-111489054D01*
X105754814Y-111489266D01*
X105741024Y-111489901D01*
X105727505Y-111490960D01*
X105714256Y-111492443D01*
X105701279Y-111494349D01*
X105688573Y-111496679D01*
X105676137Y-111499432D01*
X105663973Y-111502609D01*
X105652080Y-111506210D01*
X105640457Y-111510234D01*
X105629105Y-111514682D01*
X105618025Y-111519554D01*
X105607215Y-111524849D01*
X105596676Y-111530568D01*
X105586409Y-111536710D01*
X105576412Y-111543276D01*
X105566742Y-111550273D01*
X105557517Y-111557709D01*
X105548737Y-111565584D01*
X105540401Y-111573898D01*
X105532510Y-111582650D01*
X105525064Y-111591842D01*
X105518062Y-111601472D01*
X105511504Y-111611542D01*
X105505392Y-111622050D01*
X105499724Y-111632997D01*
X105494500Y-111644383D01*
X105489721Y-111656208D01*
X105485387Y-111668471D01*
X105481497Y-111681174D01*
X105478052Y-111694315D01*
X105475051Y-111707896D01*
X105632099Y-111707896D01*
X105636097Y-111698431D01*
X105640701Y-111689577D01*
X105648746Y-111677441D01*
X105658155Y-111666680D01*
X105668930Y-111657291D01*
X105681070Y-111649277D01*
X105689922Y-111644698D01*
X105699381Y-111640729D01*
X105709446Y-111637370D01*
X105720118Y-111634623D01*
X105731397Y-111632486D01*
X105743283Y-111630959D01*
X105755776Y-111630043D01*
X105768875Y-111629738D01*
X105780771Y-111629935D01*
X105792097Y-111630528D01*
X105802851Y-111631515D01*
X105813034Y-111632898D01*
X105822646Y-111634675D01*
X105834574Y-111637659D01*
X105845486Y-111641346D01*
X105855384Y-111645735D01*
X105864266Y-111650826D01*
X105866328Y-111652208D01*
X105875686Y-111659594D01*
X105883459Y-111667707D01*
X105889645Y-111676548D01*
X105894244Y-111686116D01*
X105897258Y-111696412D01*
X105898686Y-111707435D01*
X105898812Y-111712048D01*
X105898091Y-111722927D01*
X105895927Y-111733033D01*
X105892321Y-111742367D01*
X105887272Y-111750928D01*
X105880781Y-111758716D01*
X105878296Y-111761140D01*
X105870064Y-111767993D01*
X105860940Y-111774261D01*
X105850922Y-111779945D01*
X105841892Y-111784236D01*
X105832241Y-111788122D01*
X105824074Y-111790938D01*
X105812968Y-111794374D01*
X105803146Y-111797234D01*
X105792493Y-111800194D01*
X105781008Y-111803253D01*
X105768691Y-111806411D01*
X105758907Y-111808844D01*
X105748655Y-111811334D01*
X105737936Y-111813879D01*
X105730529Y-111815607D01*
X105720209Y-111818081D01*
X105710131Y-111820560D01*
X105700296Y-111823043D01*
X105690702Y-111825529D01*
X105676767Y-111829266D01*
X105663377Y-111833011D01*
X105650532Y-111836765D01*
X105638232Y-111840527D01*
X105626478Y-111844298D01*
X105615268Y-111848078D01*
X105604605Y-111851866D01*
X105594486Y-111855662D01*
X105584760Y-111859647D01*
X105575275Y-111864092D01*
X105566030Y-111868995D01*
X105557025Y-111874358D01*
X105548261Y-111880181D01*
X105539737Y-111886463D01*
X105531454Y-111893204D01*
X105523411Y-111900405D01*
X105515609Y-111908065D01*
X105508047Y-111916184D01*
X105503139Y-111921852D01*
X105496155Y-111930739D01*
X105489858Y-111940179D01*
X105484248Y-111950173D01*
X105479325Y-111960721D01*
X105475089Y-111971823D01*
X105471540Y-111983479D01*
X105468678Y-111995688D01*
X105466503Y-112008452D01*
X105465014Y-112021769D01*
X105464213Y-112035640D01*
X105464060Y-112045195D01*
X105464389Y-112057130D01*
X105465374Y-112068845D01*
X105467016Y-112080342D01*
X105469315Y-112091620D01*
X105472271Y-112102679D01*
X105475884Y-112113519D01*
X105480154Y-112124140D01*
X105485080Y-112134542D01*
X105490664Y-112144725D01*
X105496904Y-112154689D01*
X105501429Y-112161210D01*
X105508667Y-112170717D01*
X105516459Y-112179820D01*
X105524804Y-112188520D01*
X105533704Y-112196816D01*
X105543157Y-112204709D01*
X105553164Y-112212198D01*
X105563725Y-112219283D01*
X105574840Y-112225965D01*
X105586508Y-112232243D01*
X105598731Y-112238118D01*
X105607187Y-112241810D01*
X105620270Y-112246961D01*
X105633782Y-112251605D01*
X105647724Y-112255742D01*
X105657257Y-112258219D01*
X105666981Y-112260471D01*
X105676896Y-112262497D01*
X105687001Y-112264298D01*
X105697298Y-112265875D01*
X105707785Y-112267225D01*
X105718463Y-112268351D01*
X105729332Y-112269252D01*
X105740391Y-112269927D01*
X105751642Y-112270378D01*
X105763083Y-112270603D01*
X105768875Y-112270631D01*
G37*
G36*
X105032727Y-112255000D02*
G01*
X105032727Y-111504685D01*
X104908652Y-111504685D01*
X104891799Y-111598719D01*
X104895707Y-111598719D01*
X104889915Y-111589792D01*
X104883806Y-111581328D01*
X104877379Y-111573328D01*
X104870634Y-111565792D01*
X104863572Y-111558719D01*
X104856191Y-111552111D01*
X104848493Y-111545965D01*
X104840478Y-111540284D01*
X104832144Y-111535066D01*
X104823493Y-111530312D01*
X104817549Y-111527400D01*
X104808310Y-111523341D01*
X104798727Y-111519681D01*
X104788801Y-111516420D01*
X104778532Y-111513558D01*
X104767919Y-111511096D01*
X104756962Y-111509033D01*
X104745662Y-111507370D01*
X104734018Y-111506105D01*
X104722031Y-111505240D01*
X104709701Y-111504774D01*
X104701290Y-111504685D01*
X104611897Y-111504685D01*
X104611897Y-111645369D01*
X104697138Y-111645369D01*
X104707338Y-111645559D01*
X104717299Y-111646129D01*
X104731794Y-111647695D01*
X104745753Y-111650116D01*
X104759174Y-111653391D01*
X104772059Y-111657520D01*
X104784408Y-111662504D01*
X104796219Y-111668342D01*
X104807494Y-111675035D01*
X104818233Y-111682582D01*
X104828434Y-111690983D01*
X104831716Y-111693974D01*
X104840969Y-111703303D01*
X104849312Y-111713156D01*
X104856746Y-111723533D01*
X104863269Y-111734434D01*
X104868881Y-111745859D01*
X104873584Y-111757807D01*
X104877377Y-111770279D01*
X104880259Y-111783275D01*
X104882231Y-111796795D01*
X104883293Y-111810838D01*
X104883495Y-111820491D01*
X104883495Y-112255000D01*
X105032727Y-112255000D01*
G37*
G36*
X104255208Y-111489232D02*
G01*
X104267869Y-111489768D01*
X104280342Y-111490660D01*
X104292626Y-111491909D01*
X104304721Y-111493514D01*
X104316626Y-111495477D01*
X104328343Y-111497796D01*
X104339871Y-111500472D01*
X104351211Y-111503505D01*
X104362361Y-111506895D01*
X104373322Y-111510642D01*
X104384095Y-111514745D01*
X104394678Y-111519206D01*
X104405073Y-111524023D01*
X104415279Y-111529197D01*
X104425295Y-111534727D01*
X104435050Y-111540572D01*
X104444530Y-111546749D01*
X104453734Y-111553257D01*
X104462665Y-111560098D01*
X104471320Y-111567271D01*
X104479700Y-111574776D01*
X104487806Y-111582612D01*
X104495637Y-111590781D01*
X104503194Y-111599282D01*
X104510475Y-111608115D01*
X104517482Y-111617280D01*
X104524214Y-111626776D01*
X104530671Y-111636605D01*
X104536853Y-111646766D01*
X104542761Y-111657259D01*
X104548394Y-111668084D01*
X104553688Y-111679184D01*
X104558641Y-111690562D01*
X104563252Y-111702219D01*
X104567521Y-111714154D01*
X104571449Y-111726368D01*
X104575035Y-111738861D01*
X104578280Y-111751632D01*
X104581183Y-111764682D01*
X104583745Y-111778010D01*
X104585965Y-111791617D01*
X104587844Y-111805503D01*
X104589381Y-111819667D01*
X104590576Y-111834110D01*
X104591430Y-111848831D01*
X104591942Y-111863831D01*
X104592113Y-111879110D01*
X104591940Y-111894389D01*
X104591419Y-111909392D01*
X104590550Y-111924118D01*
X104589335Y-111938568D01*
X104587772Y-111952740D01*
X104585862Y-111966636D01*
X104583605Y-111980256D01*
X104581000Y-111993599D01*
X104578048Y-112006665D01*
X104574749Y-112019454D01*
X104571103Y-112031967D01*
X104567109Y-112044203D01*
X104562768Y-112056162D01*
X104558080Y-112067845D01*
X104553044Y-112079251D01*
X104547661Y-112090380D01*
X104541937Y-112101179D01*
X104535937Y-112111656D01*
X104529663Y-112121810D01*
X104523115Y-112131642D01*
X104516291Y-112141151D01*
X104509193Y-112150338D01*
X104501820Y-112159202D01*
X104494172Y-112167744D01*
X104486249Y-112175963D01*
X104478052Y-112183860D01*
X104469580Y-112191434D01*
X104460833Y-112198686D01*
X104451811Y-112205616D01*
X104442515Y-112212223D01*
X104432943Y-112218507D01*
X104423097Y-112224469D01*
X104413016Y-112230059D01*
X104402737Y-112235288D01*
X104392263Y-112240157D01*
X104381591Y-112244665D01*
X104370723Y-112248812D01*
X104359659Y-112252599D01*
X104348398Y-112256025D01*
X104336941Y-112259091D01*
X104325287Y-112261795D01*
X104313436Y-112264140D01*
X104301389Y-112266123D01*
X104289145Y-112267746D01*
X104276705Y-112269008D01*
X104264068Y-112269910D01*
X104251235Y-112270451D01*
X104238205Y-112270631D01*
X104223271Y-112270398D01*
X104208633Y-112269700D01*
X104194290Y-112268536D01*
X104180244Y-112266906D01*
X104166492Y-112264811D01*
X104153037Y-112262250D01*
X104139878Y-112259224D01*
X104127014Y-112255732D01*
X104114446Y-112251775D01*
X104102174Y-112247352D01*
X104090197Y-112242463D01*
X104078516Y-112237109D01*
X104067131Y-112231289D01*
X104056042Y-112225003D01*
X104045249Y-112218252D01*
X104034751Y-112211036D01*
X104024541Y-112203340D01*
X104014670Y-112195213D01*
X104005139Y-112186655D01*
X103995947Y-112177666D01*
X103987095Y-112168246D01*
X103978583Y-112158394D01*
X103970410Y-112148111D01*
X103962577Y-112137397D01*
X103955084Y-112126251D01*
X103947930Y-112114674D01*
X103941116Y-112102666D01*
X103934642Y-112090227D01*
X103928507Y-112077357D01*
X103922712Y-112064055D01*
X103917257Y-112050322D01*
X103912141Y-112036158D01*
X104069678Y-112036158D01*
X104075525Y-112045214D01*
X104081527Y-112053789D01*
X104087684Y-112061884D01*
X104093995Y-112069497D01*
X104102651Y-112078900D01*
X104111581Y-112087449D01*
X104120786Y-112095143D01*
X104130265Y-112101981D01*
X104140020Y-112107965D01*
X104150209Y-112113117D01*
X104160994Y-112117582D01*
X104172374Y-112121360D01*
X104184350Y-112124452D01*
X104196921Y-112126856D01*
X104206740Y-112128208D01*
X104216893Y-112129174D01*
X104227382Y-112129754D01*
X104238205Y-112129947D01*
X104243681Y-112129894D01*
X104254420Y-112129471D01*
X104264877Y-112128623D01*
X104275051Y-112127353D01*
X104284943Y-112125658D01*
X104294552Y-112123540D01*
X104308437Y-112119569D01*
X104321686Y-112114644D01*
X104334300Y-112108767D01*
X104346278Y-112101936D01*
X104357621Y-112094152D01*
X104368329Y-112085415D01*
X104378401Y-112075725D01*
X104387775Y-112065202D01*
X104396390Y-112053967D01*
X104404244Y-112042018D01*
X104411339Y-112029357D01*
X104415647Y-112020521D01*
X104419617Y-112011367D01*
X104423249Y-112001897D01*
X104426543Y-111992110D01*
X104429500Y-111982007D01*
X104432119Y-111971586D01*
X104434400Y-111960849D01*
X104436344Y-111949795D01*
X104437949Y-111938425D01*
X104439217Y-111926737D01*
X103904081Y-111926737D01*
X103902553Y-111918892D01*
X103900750Y-111908533D01*
X103899214Y-111898288D01*
X103897945Y-111888158D01*
X103896944Y-111878142D01*
X103896209Y-111868241D01*
X103895741Y-111858454D01*
X103895533Y-111846381D01*
X103895690Y-111835059D01*
X103896162Y-111823808D01*
X103896949Y-111812627D01*
X103898051Y-111801517D01*
X103899468Y-111790477D01*
X103900167Y-111786053D01*
X104045986Y-111786053D01*
X104437263Y-111786053D01*
X104435767Y-111777658D01*
X104432951Y-111765413D01*
X104429448Y-111753584D01*
X104425257Y-111742172D01*
X104420380Y-111731176D01*
X104414816Y-111720596D01*
X104408565Y-111710433D01*
X104401627Y-111700687D01*
X104394002Y-111691357D01*
X104385690Y-111682443D01*
X104376691Y-111673946D01*
X104370327Y-111668592D01*
X104360274Y-111661210D01*
X104349611Y-111654605D01*
X104338338Y-111648777D01*
X104326455Y-111643725D01*
X104313963Y-111639451D01*
X104300861Y-111635955D01*
X104287150Y-111633235D01*
X104272829Y-111631292D01*
X104262943Y-111630429D01*
X104252786Y-111629910D01*
X104242358Y-111629738D01*
X104231486Y-111629927D01*
X104220914Y-111630493D01*
X104210641Y-111631438D01*
X104200668Y-111632760D01*
X104186271Y-111635452D01*
X104172547Y-111638994D01*
X104159497Y-111643386D01*
X104147122Y-111648628D01*
X104135420Y-111654721D01*
X104124393Y-111661663D01*
X104114040Y-111669455D01*
X104104360Y-111678098D01*
X104098265Y-111684187D01*
X104089733Y-111693485D01*
X104081936Y-111702980D01*
X104074873Y-111712673D01*
X104068543Y-111722563D01*
X104062948Y-111732651D01*
X104058088Y-111742937D01*
X104053961Y-111753420D01*
X104050569Y-111764100D01*
X104047910Y-111774978D01*
X104045986Y-111786053D01*
X103900167Y-111786053D01*
X103901200Y-111779508D01*
X103903246Y-111768610D01*
X103905608Y-111757782D01*
X103908284Y-111747025D01*
X103911275Y-111736338D01*
X103914581Y-111725722D01*
X103918201Y-111715177D01*
X103922137Y-111704702D01*
X103926387Y-111694298D01*
X103930953Y-111683964D01*
X103935833Y-111673702D01*
X103941023Y-111663593D01*
X103946518Y-111653723D01*
X103952319Y-111644092D01*
X103958425Y-111634699D01*
X103964837Y-111625545D01*
X103971553Y-111616629D01*
X103978575Y-111607952D01*
X103985903Y-111599513D01*
X103993535Y-111591312D01*
X104001473Y-111583351D01*
X104009716Y-111575628D01*
X104018265Y-111568143D01*
X104027119Y-111560897D01*
X104036278Y-111553889D01*
X104045742Y-111547120D01*
X104055512Y-111540589D01*
X104065515Y-111534349D01*
X104075742Y-111528511D01*
X104086192Y-111523075D01*
X104096865Y-111518043D01*
X104107762Y-111513412D01*
X104118881Y-111509185D01*
X104130224Y-111505360D01*
X104141791Y-111501938D01*
X104153580Y-111498918D01*
X104165593Y-111496301D01*
X104177829Y-111494087D01*
X104190288Y-111492275D01*
X104202970Y-111490866D01*
X104215876Y-111489859D01*
X104229005Y-111489255D01*
X104242358Y-111489054D01*
X104255208Y-111489232D01*
G37*
G36*
X103509140Y-112270631D02*
G01*
X103524068Y-112270412D01*
X103538686Y-112269753D01*
X103552995Y-112268656D01*
X103566996Y-112267120D01*
X103580686Y-112265145D01*
X103594068Y-112262731D01*
X103607141Y-112259879D01*
X103619905Y-112256587D01*
X103632359Y-112252857D01*
X103644504Y-112248687D01*
X103656341Y-112244079D01*
X103667868Y-112239032D01*
X103679086Y-112233546D01*
X103689995Y-112227621D01*
X103700594Y-112221258D01*
X103710885Y-112214455D01*
X103720797Y-112207208D01*
X103730260Y-112199572D01*
X103739275Y-112191546D01*
X103747842Y-112183131D01*
X103755960Y-112174327D01*
X103763630Y-112165133D01*
X103770851Y-112155551D01*
X103777624Y-112145579D01*
X103783949Y-112135217D01*
X103789825Y-112124467D01*
X103795253Y-112113327D01*
X103800232Y-112101798D01*
X103804763Y-112089880D01*
X103808846Y-112077572D01*
X103812480Y-112064876D01*
X103815665Y-112051789D01*
X103656907Y-112051789D01*
X103653133Y-112061090D01*
X103648527Y-112069818D01*
X103643089Y-112077973D01*
X103636818Y-112085556D01*
X103629716Y-112092567D01*
X103621782Y-112099005D01*
X103613016Y-112104870D01*
X103603418Y-112110163D01*
X103593183Y-112114800D01*
X103582505Y-112118819D01*
X103571384Y-112122219D01*
X103559821Y-112125001D01*
X103547815Y-112127165D01*
X103535366Y-112128711D01*
X103522475Y-112129638D01*
X103512516Y-112129928D01*
X103509140Y-112129947D01*
X103494676Y-112129726D01*
X103480959Y-112129063D01*
X103467989Y-112127957D01*
X103455766Y-112126409D01*
X103444290Y-112124419D01*
X103433561Y-112121987D01*
X103423579Y-112119113D01*
X103414344Y-112115796D01*
X103403193Y-112110686D01*
X103393369Y-112104790D01*
X103384725Y-112098287D01*
X103377234Y-112091357D01*
X103369491Y-112082093D01*
X103363548Y-112072161D01*
X103359406Y-112061561D01*
X103357065Y-112050293D01*
X103356489Y-112040799D01*
X103357193Y-112030552D01*
X103359794Y-112019552D01*
X103364312Y-112009581D01*
X103370747Y-112000639D01*
X103376517Y-111994881D01*
X103384348Y-111988552D01*
X103393003Y-111982757D01*
X103402483Y-111977493D01*
X103412787Y-111972762D01*
X103422003Y-111969226D01*
X103427808Y-111967281D01*
X103438281Y-111964057D01*
X103447673Y-111961339D01*
X103457965Y-111958500D01*
X103469159Y-111955539D01*
X103481252Y-111952455D01*
X103490914Y-111950062D01*
X103501082Y-111947601D01*
X103511757Y-111945071D01*
X103519154Y-111943346D01*
X103529480Y-111941049D01*
X103539575Y-111938739D01*
X103549440Y-111936416D01*
X103559073Y-111934080D01*
X103573090Y-111930550D01*
X103586587Y-111926990D01*
X103599565Y-111923400D01*
X103612024Y-111919780D01*
X103623963Y-111916130D01*
X103635383Y-111912450D01*
X103646283Y-111908740D01*
X103656663Y-111905000D01*
X103666657Y-111900958D01*
X103676398Y-111896436D01*
X103685886Y-111891433D01*
X103695120Y-111885949D01*
X103704101Y-111879984D01*
X103712829Y-111873538D01*
X103721303Y-111866611D01*
X103729524Y-111859204D01*
X103737492Y-111851316D01*
X103745206Y-111842947D01*
X103750208Y-111837100D01*
X103757279Y-111827871D01*
X103763655Y-111818046D01*
X103769335Y-111807624D01*
X103774320Y-111796605D01*
X103778609Y-111784990D01*
X103782202Y-111772777D01*
X103785100Y-111759968D01*
X103787303Y-111746562D01*
X103788810Y-111732560D01*
X103789621Y-111717960D01*
X103789776Y-111707896D01*
X103789475Y-111696722D01*
X103788573Y-111685733D01*
X103787071Y-111674929D01*
X103784967Y-111664310D01*
X103782262Y-111653875D01*
X103778956Y-111643624D01*
X103775049Y-111633559D01*
X103770541Y-111623678D01*
X103765432Y-111613981D01*
X103759722Y-111604469D01*
X103755582Y-111598230D01*
X103748869Y-111589066D01*
X103741645Y-111580259D01*
X103733911Y-111571807D01*
X103725666Y-111563712D01*
X103716909Y-111555973D01*
X103707642Y-111548591D01*
X103697864Y-111541565D01*
X103687575Y-111534895D01*
X103676775Y-111528582D01*
X103665464Y-111522625D01*
X103657640Y-111518852D01*
X103645503Y-111513526D01*
X103632996Y-111508725D01*
X103620121Y-111504447D01*
X103606876Y-111500694D01*
X103593262Y-111497464D01*
X103579278Y-111494757D01*
X103564926Y-111492575D01*
X103555152Y-111491411D01*
X103545214Y-111490480D01*
X103535113Y-111489781D01*
X103524847Y-111489316D01*
X103514417Y-111489083D01*
X103509140Y-111489054D01*
X103495079Y-111489266D01*
X103481289Y-111489901D01*
X103467770Y-111490960D01*
X103454522Y-111492443D01*
X103441544Y-111494349D01*
X103428838Y-111496679D01*
X103416403Y-111499432D01*
X103404238Y-111502609D01*
X103392345Y-111506210D01*
X103380722Y-111510234D01*
X103369371Y-111514682D01*
X103358290Y-111519554D01*
X103347480Y-111524849D01*
X103336942Y-111530568D01*
X103326674Y-111536710D01*
X103316677Y-111543276D01*
X103307008Y-111550273D01*
X103297783Y-111557709D01*
X103289002Y-111565584D01*
X103280667Y-111573898D01*
X103272775Y-111582650D01*
X103265329Y-111591842D01*
X103258327Y-111601472D01*
X103251770Y-111611542D01*
X103245657Y-111622050D01*
X103239989Y-111632997D01*
X103234765Y-111644383D01*
X103229986Y-111656208D01*
X103225652Y-111668471D01*
X103221762Y-111681174D01*
X103218317Y-111694315D01*
X103215316Y-111707896D01*
X103372364Y-111707896D01*
X103376362Y-111698431D01*
X103380966Y-111689577D01*
X103389011Y-111677441D01*
X103398420Y-111666680D01*
X103409195Y-111657291D01*
X103421335Y-111649277D01*
X103430187Y-111644698D01*
X103439646Y-111640729D01*
X103449711Y-111637370D01*
X103460384Y-111634623D01*
X103471663Y-111632486D01*
X103483548Y-111630959D01*
X103496041Y-111630043D01*
X103509140Y-111629738D01*
X103521037Y-111629935D01*
X103532362Y-111630528D01*
X103543116Y-111631515D01*
X103553299Y-111632898D01*
X103562911Y-111634675D01*
X103574839Y-111637659D01*
X103585751Y-111641346D01*
X103595649Y-111645735D01*
X103604531Y-111650826D01*
X103606593Y-111652208D01*
X103615952Y-111659594D01*
X103623724Y-111667707D01*
X103629910Y-111676548D01*
X103634510Y-111686116D01*
X103637523Y-111696412D01*
X103638951Y-111707435D01*
X103639078Y-111712048D01*
X103638356Y-111722927D01*
X103636193Y-111733033D01*
X103632586Y-111742367D01*
X103627537Y-111750928D01*
X103621046Y-111758716D01*
X103618561Y-111761140D01*
X103610330Y-111767993D01*
X103601205Y-111774261D01*
X103591187Y-111779945D01*
X103582157Y-111784236D01*
X103572506Y-111788122D01*
X103564339Y-111790938D01*
X103553233Y-111794374D01*
X103543412Y-111797234D01*
X103532758Y-111800194D01*
X103521273Y-111803253D01*
X103508956Y-111806411D01*
X103499172Y-111808844D01*
X103488921Y-111811334D01*
X103478201Y-111813879D01*
X103470794Y-111815607D01*
X103460474Y-111818081D01*
X103450396Y-111820560D01*
X103440561Y-111823043D01*
X103430968Y-111825529D01*
X103417032Y-111829266D01*
X103403642Y-111833011D01*
X103390797Y-111836765D01*
X103378497Y-111840527D01*
X103366743Y-111844298D01*
X103355534Y-111848078D01*
X103344870Y-111851866D01*
X103334751Y-111855662D01*
X103325025Y-111859647D01*
X103315540Y-111864092D01*
X103306295Y-111868995D01*
X103297290Y-111874358D01*
X103288526Y-111880181D01*
X103280003Y-111886463D01*
X103271719Y-111893204D01*
X103263676Y-111900405D01*
X103255874Y-111908065D01*
X103248312Y-111916184D01*
X103243404Y-111921852D01*
X103236420Y-111930739D01*
X103230124Y-111940179D01*
X103224514Y-111950173D01*
X103219591Y-111960721D01*
X103215355Y-111971823D01*
X103211805Y-111983479D01*
X103208943Y-111995688D01*
X103206768Y-112008452D01*
X103205279Y-112021769D01*
X103204478Y-112035640D01*
X103204325Y-112045195D01*
X103204654Y-112057130D01*
X103205639Y-112068845D01*
X103207281Y-112080342D01*
X103209580Y-112091620D01*
X103212536Y-112102679D01*
X103216149Y-112113519D01*
X103220419Y-112124140D01*
X103225346Y-112134542D01*
X103230929Y-112144725D01*
X103237169Y-112154689D01*
X103241695Y-112161210D01*
X103248932Y-112170717D01*
X103256724Y-112179820D01*
X103265070Y-112188520D01*
X103273969Y-112196816D01*
X103283422Y-112204709D01*
X103293429Y-112212198D01*
X103303990Y-112219283D01*
X103315105Y-112225965D01*
X103326773Y-112232243D01*
X103338996Y-112238118D01*
X103347452Y-112241810D01*
X103360535Y-112246961D01*
X103374047Y-112251605D01*
X103387989Y-112255742D01*
X103397522Y-112258219D01*
X103407246Y-112260471D01*
X103417161Y-112262497D01*
X103427267Y-112264298D01*
X103437563Y-112265875D01*
X103448050Y-112267225D01*
X103458728Y-112268351D01*
X103469597Y-112269252D01*
X103480657Y-112269927D01*
X103491907Y-112270378D01*
X103503348Y-112270603D01*
X103509140Y-112270631D01*
G37*
G36*
X102782912Y-111489232D02*
G01*
X102795574Y-111489768D01*
X102808046Y-111490660D01*
X102820330Y-111491909D01*
X102832425Y-111493514D01*
X102844331Y-111495477D01*
X102856048Y-111497796D01*
X102867576Y-111500472D01*
X102878915Y-111503505D01*
X102890065Y-111506895D01*
X102901026Y-111510642D01*
X102911799Y-111514745D01*
X102922382Y-111519206D01*
X102932777Y-111524023D01*
X102942983Y-111529197D01*
X102953000Y-111534727D01*
X102962754Y-111540572D01*
X102972234Y-111546749D01*
X102981439Y-111553257D01*
X102990369Y-111560098D01*
X102999024Y-111567271D01*
X103007405Y-111574776D01*
X103015510Y-111582612D01*
X103023341Y-111590781D01*
X103030898Y-111599282D01*
X103038179Y-111608115D01*
X103045186Y-111617280D01*
X103051918Y-111626776D01*
X103058375Y-111636605D01*
X103064557Y-111646766D01*
X103070465Y-111657259D01*
X103076098Y-111668084D01*
X103081392Y-111679184D01*
X103086345Y-111690562D01*
X103090956Y-111702219D01*
X103095225Y-111714154D01*
X103099153Y-111726368D01*
X103102739Y-111738861D01*
X103105984Y-111751632D01*
X103108888Y-111764682D01*
X103111449Y-111778010D01*
X103113669Y-111791617D01*
X103115548Y-111805503D01*
X103117085Y-111819667D01*
X103118280Y-111834110D01*
X103119134Y-111848831D01*
X103119647Y-111863831D01*
X103119817Y-111879110D01*
X103119644Y-111894389D01*
X103119123Y-111909392D01*
X103118255Y-111924118D01*
X103117039Y-111938568D01*
X103115476Y-111952740D01*
X103113566Y-111966636D01*
X103111309Y-111980256D01*
X103108704Y-111993599D01*
X103105752Y-112006665D01*
X103102453Y-112019454D01*
X103098807Y-112031967D01*
X103094813Y-112044203D01*
X103090472Y-112056162D01*
X103085784Y-112067845D01*
X103080748Y-112079251D01*
X103075365Y-112090380D01*
X103069641Y-112101179D01*
X103063642Y-112111656D01*
X103057368Y-112121810D01*
X103050819Y-112131642D01*
X103043995Y-112141151D01*
X103036897Y-112150338D01*
X103029524Y-112159202D01*
X103021876Y-112167744D01*
X103013953Y-112175963D01*
X103005756Y-112183860D01*
X102997284Y-112191434D01*
X102988537Y-112198686D01*
X102979515Y-112205616D01*
X102970219Y-112212223D01*
X102960647Y-112218507D01*
X102950801Y-112224469D01*
X102940720Y-112230059D01*
X102930441Y-112235288D01*
X102919967Y-112240157D01*
X102909295Y-112244665D01*
X102898427Y-112248812D01*
X102887363Y-112252599D01*
X102876102Y-112256025D01*
X102864645Y-112259091D01*
X102852991Y-112261795D01*
X102841140Y-112264140D01*
X102829093Y-112266123D01*
X102816849Y-112267746D01*
X102804409Y-112269008D01*
X102791773Y-112269910D01*
X102778939Y-112270451D01*
X102765909Y-112270631D01*
X102750975Y-112270398D01*
X102736337Y-112269700D01*
X102721994Y-112268536D01*
X102707948Y-112266906D01*
X102694197Y-112264811D01*
X102680741Y-112262250D01*
X102667582Y-112259224D01*
X102654718Y-112255732D01*
X102642150Y-112251775D01*
X102629878Y-112247352D01*
X102617901Y-112242463D01*
X102606220Y-112237109D01*
X102594836Y-112231289D01*
X102583746Y-112225003D01*
X102572953Y-112218252D01*
X102562455Y-112211036D01*
X102552245Y-112203340D01*
X102542374Y-112195213D01*
X102532843Y-112186655D01*
X102523651Y-112177666D01*
X102514799Y-112168246D01*
X102506287Y-112158394D01*
X102498114Y-112148111D01*
X102490281Y-112137397D01*
X102482788Y-112126251D01*
X102475635Y-112114674D01*
X102468821Y-112102666D01*
X102462346Y-112090227D01*
X102456211Y-112077357D01*
X102450416Y-112064055D01*
X102444961Y-112050322D01*
X102439845Y-112036158D01*
X102597382Y-112036158D01*
X102603229Y-112045214D01*
X102609232Y-112053789D01*
X102615388Y-112061884D01*
X102621699Y-112069497D01*
X102630355Y-112078900D01*
X102639285Y-112087449D01*
X102648490Y-112095143D01*
X102657969Y-112101981D01*
X102667724Y-112107965D01*
X102677913Y-112113117D01*
X102688698Y-112117582D01*
X102700078Y-112121360D01*
X102712054Y-112124452D01*
X102724625Y-112126856D01*
X102734444Y-112128208D01*
X102744597Y-112129174D01*
X102755086Y-112129754D01*
X102765909Y-112129947D01*
X102771385Y-112129894D01*
X102782124Y-112129471D01*
X102792581Y-112128623D01*
X102802755Y-112127353D01*
X102812647Y-112125658D01*
X102822256Y-112123540D01*
X102836141Y-112119569D01*
X102849390Y-112114644D01*
X102862004Y-112108767D01*
X102873982Y-112101936D01*
X102885325Y-112094152D01*
X102896033Y-112085415D01*
X102906105Y-112075725D01*
X102915479Y-112065202D01*
X102924094Y-112053967D01*
X102931949Y-112042018D01*
X102939043Y-112029357D01*
X102943351Y-112020521D01*
X102947321Y-112011367D01*
X102950953Y-112001897D01*
X102954247Y-111992110D01*
X102957204Y-111982007D01*
X102959823Y-111971586D01*
X102962104Y-111960849D01*
X102964048Y-111949795D01*
X102965653Y-111938425D01*
X102966921Y-111926737D01*
X102431785Y-111926737D01*
X102430258Y-111918892D01*
X102428454Y-111908533D01*
X102426918Y-111898288D01*
X102425649Y-111888158D01*
X102424648Y-111878142D01*
X102423913Y-111868241D01*
X102423445Y-111858454D01*
X102423237Y-111846381D01*
X102423394Y-111835059D01*
X102423866Y-111823808D01*
X102424654Y-111812627D01*
X102425756Y-111801517D01*
X102427172Y-111790477D01*
X102427871Y-111786053D01*
X102573690Y-111786053D01*
X102964967Y-111786053D01*
X102963471Y-111777658D01*
X102960655Y-111765413D01*
X102957152Y-111753584D01*
X102952961Y-111742172D01*
X102948084Y-111731176D01*
X102942520Y-111720596D01*
X102936269Y-111710433D01*
X102929331Y-111700687D01*
X102921706Y-111691357D01*
X102913394Y-111682443D01*
X102904395Y-111673946D01*
X102898032Y-111668592D01*
X102887978Y-111661210D01*
X102877315Y-111654605D01*
X102866042Y-111648777D01*
X102854159Y-111643725D01*
X102841667Y-111639451D01*
X102828565Y-111635955D01*
X102814854Y-111633235D01*
X102800533Y-111631292D01*
X102790647Y-111630429D01*
X102780490Y-111629910D01*
X102770062Y-111629738D01*
X102759190Y-111629927D01*
X102748618Y-111630493D01*
X102738345Y-111631438D01*
X102728372Y-111632760D01*
X102713975Y-111635452D01*
X102700251Y-111638994D01*
X102687202Y-111643386D01*
X102674826Y-111648628D01*
X102663125Y-111654721D01*
X102652097Y-111661663D01*
X102641744Y-111669455D01*
X102632064Y-111678098D01*
X102625969Y-111684187D01*
X102617437Y-111693485D01*
X102609640Y-111702980D01*
X102602577Y-111712673D01*
X102596248Y-111722563D01*
X102590653Y-111732651D01*
X102585792Y-111742937D01*
X102581665Y-111753420D01*
X102578273Y-111764100D01*
X102575615Y-111774978D01*
X102573690Y-111786053D01*
X102427871Y-111786053D01*
X102428904Y-111779508D01*
X102430950Y-111768610D01*
X102433312Y-111757782D01*
X102435988Y-111747025D01*
X102438979Y-111736338D01*
X102442285Y-111725722D01*
X102445906Y-111715177D01*
X102449841Y-111704702D01*
X102454092Y-111694298D01*
X102458657Y-111683964D01*
X102463537Y-111673702D01*
X102468727Y-111663593D01*
X102474222Y-111653723D01*
X102480023Y-111644092D01*
X102486129Y-111634699D01*
X102492541Y-111625545D01*
X102499257Y-111616629D01*
X102506279Y-111607952D01*
X102513607Y-111599513D01*
X102521239Y-111591312D01*
X102529177Y-111583351D01*
X102537420Y-111575628D01*
X102545969Y-111568143D01*
X102554823Y-111560897D01*
X102563982Y-111553889D01*
X102573446Y-111547120D01*
X102583216Y-111540589D01*
X102593219Y-111534349D01*
X102603446Y-111528511D01*
X102613896Y-111523075D01*
X102624569Y-111518043D01*
X102635466Y-111513412D01*
X102646585Y-111509185D01*
X102657928Y-111505360D01*
X102669495Y-111501938D01*
X102681284Y-111498918D01*
X102693297Y-111496301D01*
X102705533Y-111494087D01*
X102717992Y-111492275D01*
X102730675Y-111490866D01*
X102743580Y-111489859D01*
X102756709Y-111489255D01*
X102770062Y-111489054D01*
X102782912Y-111489232D01*
G37*
G36*
X102289392Y-112255000D02*
G01*
X102289392Y-111504685D01*
X102165316Y-111504685D01*
X102148464Y-111598719D01*
X102152371Y-111598719D01*
X102146580Y-111589792D01*
X102140470Y-111581328D01*
X102134043Y-111573328D01*
X102127298Y-111565792D01*
X102120236Y-111558719D01*
X102112856Y-111552111D01*
X102105158Y-111545965D01*
X102097142Y-111540284D01*
X102088809Y-111535066D01*
X102080158Y-111530312D01*
X102074214Y-111527400D01*
X102064975Y-111523341D01*
X102055392Y-111519681D01*
X102045466Y-111516420D01*
X102035196Y-111513558D01*
X102024583Y-111511096D01*
X102013626Y-111509033D01*
X102002326Y-111507370D01*
X101990683Y-111506105D01*
X101978696Y-111505240D01*
X101966365Y-111504774D01*
X101957954Y-111504685D01*
X101868561Y-111504685D01*
X101868561Y-111645369D01*
X101953802Y-111645369D01*
X101964002Y-111645559D01*
X101973964Y-111646129D01*
X101988459Y-111647695D01*
X102002417Y-111650116D01*
X102015839Y-111653391D01*
X102028724Y-111657520D01*
X102041072Y-111662504D01*
X102052884Y-111668342D01*
X102064159Y-111675035D01*
X102074897Y-111682582D01*
X102085099Y-111690983D01*
X102088380Y-111693974D01*
X102097633Y-111703303D01*
X102105977Y-111713156D01*
X102113410Y-111723533D01*
X102119933Y-111734434D01*
X102125546Y-111745859D01*
X102130248Y-111757807D01*
X102134041Y-111770279D01*
X102136923Y-111783275D01*
X102138895Y-111796795D01*
X102139957Y-111810838D01*
X102140159Y-111820491D01*
X102140159Y-112255000D01*
X102289392Y-112255000D01*
G37*
G36*
X101409629Y-112255000D02*
G01*
X101579134Y-112255000D01*
X101865142Y-111504685D01*
X101704919Y-111504685D01*
X101491206Y-112086228D01*
X101494870Y-112086228D01*
X101282378Y-111504685D01*
X101123621Y-111504685D01*
X101409629Y-112255000D01*
G37*
G36*
X100767420Y-111489232D02*
G01*
X100780082Y-111489768D01*
X100792554Y-111490660D01*
X100804838Y-111491909D01*
X100816933Y-111493514D01*
X100828839Y-111495477D01*
X100840556Y-111497796D01*
X100852084Y-111500472D01*
X100863423Y-111503505D01*
X100874573Y-111506895D01*
X100885534Y-111510642D01*
X100896307Y-111514745D01*
X100906890Y-111519206D01*
X100917285Y-111524023D01*
X100927491Y-111529197D01*
X100937508Y-111534727D01*
X100947262Y-111540572D01*
X100956742Y-111546749D01*
X100965947Y-111553257D01*
X100974877Y-111560098D01*
X100983532Y-111567271D01*
X100991913Y-111574776D01*
X101000018Y-111582612D01*
X101007849Y-111590781D01*
X101015406Y-111599282D01*
X101022687Y-111608115D01*
X101029694Y-111617280D01*
X101036426Y-111626776D01*
X101042883Y-111636605D01*
X101049065Y-111646766D01*
X101054973Y-111657259D01*
X101060606Y-111668084D01*
X101065900Y-111679184D01*
X101070853Y-111690562D01*
X101075464Y-111702219D01*
X101079733Y-111714154D01*
X101083661Y-111726368D01*
X101087247Y-111738861D01*
X101090492Y-111751632D01*
X101093396Y-111764682D01*
X101095957Y-111778010D01*
X101098177Y-111791617D01*
X101100056Y-111805503D01*
X101101593Y-111819667D01*
X101102788Y-111834110D01*
X101103642Y-111848831D01*
X101104155Y-111863831D01*
X101104325Y-111879110D01*
X101104152Y-111894389D01*
X101103631Y-111909392D01*
X101102763Y-111924118D01*
X101101547Y-111938568D01*
X101099984Y-111952740D01*
X101098074Y-111966636D01*
X101095817Y-111980256D01*
X101093212Y-111993599D01*
X101090260Y-112006665D01*
X101086961Y-112019454D01*
X101083315Y-112031967D01*
X101079321Y-112044203D01*
X101074980Y-112056162D01*
X101070292Y-112067845D01*
X101065256Y-112079251D01*
X101059873Y-112090380D01*
X101054149Y-112101179D01*
X101048150Y-112111656D01*
X101041876Y-112121810D01*
X101035327Y-112131642D01*
X101028503Y-112141151D01*
X101021405Y-112150338D01*
X101014032Y-112159202D01*
X101006384Y-112167744D01*
X100998461Y-112175963D01*
X100990264Y-112183860D01*
X100981792Y-112191434D01*
X100973045Y-112198686D01*
X100964023Y-112205616D01*
X100954727Y-112212223D01*
X100945155Y-112218507D01*
X100935309Y-112224469D01*
X100925228Y-112230059D01*
X100914949Y-112235288D01*
X100904475Y-112240157D01*
X100893803Y-112244665D01*
X100882935Y-112248812D01*
X100871871Y-112252599D01*
X100860610Y-112256025D01*
X100849153Y-112259091D01*
X100837499Y-112261795D01*
X100825648Y-112264140D01*
X100813601Y-112266123D01*
X100801357Y-112267746D01*
X100788917Y-112269008D01*
X100776281Y-112269910D01*
X100763447Y-112270451D01*
X100750418Y-112270631D01*
X100735483Y-112270398D01*
X100720845Y-112269700D01*
X100706502Y-112268536D01*
X100692456Y-112266906D01*
X100678705Y-112264811D01*
X100665249Y-112262250D01*
X100652090Y-112259224D01*
X100639226Y-112255732D01*
X100626658Y-112251775D01*
X100614386Y-112247352D01*
X100602409Y-112242463D01*
X100590728Y-112237109D01*
X100579344Y-112231289D01*
X100568254Y-112225003D01*
X100557461Y-112218252D01*
X100546963Y-112211036D01*
X100536753Y-112203340D01*
X100526882Y-112195213D01*
X100517351Y-112186655D01*
X100508159Y-112177666D01*
X100499307Y-112168246D01*
X100490795Y-112158394D01*
X100482622Y-112148111D01*
X100474789Y-112137397D01*
X100467296Y-112126251D01*
X100460143Y-112114674D01*
X100453329Y-112102666D01*
X100446854Y-112090227D01*
X100440720Y-112077357D01*
X100434924Y-112064055D01*
X100429469Y-112050322D01*
X100424353Y-112036158D01*
X100581890Y-112036158D01*
X100587737Y-112045214D01*
X100593740Y-112053789D01*
X100599896Y-112061884D01*
X100606207Y-112069497D01*
X100614863Y-112078900D01*
X100623793Y-112087449D01*
X100632998Y-112095143D01*
X100642477Y-112101981D01*
X100652232Y-112107965D01*
X100662421Y-112113117D01*
X100673206Y-112117582D01*
X100684586Y-112121360D01*
X100696562Y-112124452D01*
X100709133Y-112126856D01*
X100718952Y-112128208D01*
X100729105Y-112129174D01*
X100739594Y-112129754D01*
X100750418Y-112129947D01*
X100755893Y-112129894D01*
X100766632Y-112129471D01*
X100777089Y-112128623D01*
X100787263Y-112127353D01*
X100797155Y-112125658D01*
X100806764Y-112123540D01*
X100820649Y-112119569D01*
X100833898Y-112114644D01*
X100846512Y-112108767D01*
X100858490Y-112101936D01*
X100869833Y-112094152D01*
X100880541Y-112085415D01*
X100890613Y-112075725D01*
X100899987Y-112065202D01*
X100908602Y-112053967D01*
X100916457Y-112042018D01*
X100923551Y-112029357D01*
X100927859Y-112020521D01*
X100931829Y-112011367D01*
X100935461Y-112001897D01*
X100938755Y-111992110D01*
X100941712Y-111982007D01*
X100944331Y-111971586D01*
X100946612Y-111960849D01*
X100948556Y-111949795D01*
X100950161Y-111938425D01*
X100951429Y-111926737D01*
X100416293Y-111926737D01*
X100414766Y-111918892D01*
X100412962Y-111908533D01*
X100411426Y-111898288D01*
X100410157Y-111888158D01*
X100409156Y-111878142D01*
X100408421Y-111868241D01*
X100407954Y-111858454D01*
X100407745Y-111846381D01*
X100407902Y-111835059D01*
X100408374Y-111823808D01*
X100409162Y-111812627D01*
X100410264Y-111801517D01*
X100411680Y-111790477D01*
X100412379Y-111786053D01*
X100558198Y-111786053D01*
X100949475Y-111786053D01*
X100947979Y-111777658D01*
X100945163Y-111765413D01*
X100941660Y-111753584D01*
X100937469Y-111742172D01*
X100932592Y-111731176D01*
X100927028Y-111720596D01*
X100920777Y-111710433D01*
X100913839Y-111700687D01*
X100906214Y-111691357D01*
X100897902Y-111682443D01*
X100888903Y-111673946D01*
X100882540Y-111668592D01*
X100872486Y-111661210D01*
X100861823Y-111654605D01*
X100850550Y-111648777D01*
X100838667Y-111643725D01*
X100826175Y-111639451D01*
X100813073Y-111635955D01*
X100799362Y-111633235D01*
X100785041Y-111631292D01*
X100775155Y-111630429D01*
X100764998Y-111629910D01*
X100754570Y-111629738D01*
X100743698Y-111629927D01*
X100733126Y-111630493D01*
X100722853Y-111631438D01*
X100712880Y-111632760D01*
X100698483Y-111635452D01*
X100684759Y-111638994D01*
X100671710Y-111643386D01*
X100659334Y-111648628D01*
X100647633Y-111654721D01*
X100636605Y-111661663D01*
X100626252Y-111669455D01*
X100616572Y-111678098D01*
X100610477Y-111684187D01*
X100601945Y-111693485D01*
X100594148Y-111702980D01*
X100587085Y-111712673D01*
X100580756Y-111722563D01*
X100575161Y-111732651D01*
X100570300Y-111742937D01*
X100566173Y-111753420D01*
X100562781Y-111764100D01*
X100560123Y-111774978D01*
X100558198Y-111786053D01*
X100412379Y-111786053D01*
X100413412Y-111779508D01*
X100415458Y-111768610D01*
X100417820Y-111757782D01*
X100420496Y-111747025D01*
X100423487Y-111736338D01*
X100426793Y-111725722D01*
X100430414Y-111715177D01*
X100434349Y-111704702D01*
X100438600Y-111694298D01*
X100443165Y-111683964D01*
X100448045Y-111673702D01*
X100453235Y-111663593D01*
X100458731Y-111653723D01*
X100464531Y-111644092D01*
X100470637Y-111634699D01*
X100477049Y-111625545D01*
X100483765Y-111616629D01*
X100490787Y-111607952D01*
X100498115Y-111599513D01*
X100505747Y-111591312D01*
X100513685Y-111583351D01*
X100521928Y-111575628D01*
X100530477Y-111568143D01*
X100539331Y-111560897D01*
X100548490Y-111553889D01*
X100557954Y-111547120D01*
X100567724Y-111540589D01*
X100577727Y-111534349D01*
X100587954Y-111528511D01*
X100598404Y-111523075D01*
X100609077Y-111518043D01*
X100619974Y-111513412D01*
X100631093Y-111509185D01*
X100642436Y-111505360D01*
X100654003Y-111501938D01*
X100665792Y-111498918D01*
X100677805Y-111496301D01*
X100690041Y-111494087D01*
X100702500Y-111492275D01*
X100715183Y-111490866D01*
X100728088Y-111489859D01*
X100741217Y-111489255D01*
X100754570Y-111489054D01*
X100767420Y-111489232D01*
G37*
G36*
X99759540Y-111585549D02*
G01*
X99759954Y-111585038D01*
X99766810Y-111577186D01*
X99774087Y-111569593D01*
X99781785Y-111562257D01*
X99789904Y-111555179D01*
X99798443Y-111548358D01*
X99807404Y-111541795D01*
X99816784Y-111535490D01*
X99826586Y-111529442D01*
X99836809Y-111523652D01*
X99847452Y-111518119D01*
X99854766Y-111514599D01*
X99866030Y-111509746D01*
X99877646Y-111505403D01*
X99889615Y-111501571D01*
X99901935Y-111498250D01*
X99914608Y-111495440D01*
X99927632Y-111493141D01*
X99941009Y-111491353D01*
X99954737Y-111490076D01*
X99968818Y-111489309D01*
X99983251Y-111489054D01*
X99995044Y-111489232D01*
X100006671Y-111489768D01*
X100018133Y-111490660D01*
X100029428Y-111491909D01*
X100040557Y-111493514D01*
X100051520Y-111495477D01*
X100062318Y-111497796D01*
X100072949Y-111500472D01*
X100083414Y-111503505D01*
X100093713Y-111506895D01*
X100103847Y-111510642D01*
X100113814Y-111514745D01*
X100123615Y-111519206D01*
X100133250Y-111524023D01*
X100142719Y-111529197D01*
X100152023Y-111534727D01*
X100161118Y-111540602D01*
X100169963Y-111546806D01*
X100178558Y-111553340D01*
X100186903Y-111560205D01*
X100194999Y-111567400D01*
X100202844Y-111574924D01*
X100210440Y-111582779D01*
X100217785Y-111590964D01*
X100224880Y-111599479D01*
X100231726Y-111608325D01*
X100238321Y-111617500D01*
X100244667Y-111627005D01*
X100250762Y-111636841D01*
X100256608Y-111647007D01*
X100262204Y-111657502D01*
X100267549Y-111668328D01*
X100272577Y-111679427D01*
X100277281Y-111690802D01*
X100281660Y-111702454D01*
X100285715Y-111714383D01*
X100289445Y-111726589D01*
X100292851Y-111739071D01*
X100295933Y-111751830D01*
X100298690Y-111764865D01*
X100301123Y-111778177D01*
X100303232Y-111791766D01*
X100305016Y-111805632D01*
X100306476Y-111819774D01*
X100307611Y-111834193D01*
X100308422Y-111848889D01*
X100308909Y-111863861D01*
X100309071Y-111879110D01*
X100308909Y-111894363D01*
X100308422Y-111909346D01*
X100307611Y-111924061D01*
X100306476Y-111938507D01*
X100305016Y-111952683D01*
X100303232Y-111966591D01*
X100301123Y-111980229D01*
X100298690Y-111993599D01*
X100295933Y-112006699D01*
X100292851Y-112019530D01*
X100289445Y-112032093D01*
X100285715Y-112044386D01*
X100281660Y-112056410D01*
X100277281Y-112068165D01*
X100272577Y-112079651D01*
X100267549Y-112090868D01*
X100262204Y-112101753D01*
X100256608Y-112112304D01*
X100250762Y-112122522D01*
X100244667Y-112132405D01*
X100238321Y-112141954D01*
X100231726Y-112151170D01*
X100224880Y-112160051D01*
X100217785Y-112168599D01*
X100210440Y-112176812D01*
X100202844Y-112184692D01*
X100194999Y-112192238D01*
X100186903Y-112199450D01*
X100178558Y-112206327D01*
X100169963Y-112212871D01*
X100161118Y-112219081D01*
X100152023Y-112224958D01*
X100142719Y-112230488D01*
X100133250Y-112235662D01*
X100123615Y-112240479D01*
X100113814Y-112244940D01*
X100103847Y-112249043D01*
X100093713Y-112252790D01*
X100083414Y-112256180D01*
X100072949Y-112259213D01*
X100062318Y-112261889D01*
X100051520Y-112264208D01*
X100040557Y-112266171D01*
X100029428Y-112267776D01*
X100018133Y-112269025D01*
X100006671Y-112269917D01*
X99995044Y-112270453D01*
X99983251Y-112270631D01*
X99973579Y-112270510D01*
X99959326Y-112269874D01*
X99945378Y-112268692D01*
X99931734Y-112266966D01*
X99918396Y-112264694D01*
X99905362Y-112261877D01*
X99892633Y-112258514D01*
X99880209Y-112254607D01*
X99868089Y-112250154D01*
X99856275Y-112245156D01*
X99844765Y-112239612D01*
X99837263Y-112235640D01*
X99826386Y-112229443D01*
X99815960Y-112222958D01*
X99805984Y-112216185D01*
X99796459Y-112209125D01*
X99787385Y-112201777D01*
X99778762Y-112194141D01*
X99770590Y-112186218D01*
X99762868Y-112178007D01*
X99755598Y-112169508D01*
X99751557Y-112164302D01*
X99735344Y-112255000D01*
X99611025Y-112255000D01*
X99611025Y-111879110D01*
X99760501Y-111879110D01*
X99760716Y-111894092D01*
X99761360Y-111908629D01*
X99762433Y-111922721D01*
X99763936Y-111936369D01*
X99765868Y-111949573D01*
X99768229Y-111962332D01*
X99771020Y-111974646D01*
X99774240Y-111986516D01*
X99777889Y-111997941D01*
X99781968Y-112008921D01*
X99786476Y-112019457D01*
X99791413Y-112029548D01*
X99796780Y-112039195D01*
X99802576Y-112048397D01*
X99808801Y-112057154D01*
X99815456Y-112065467D01*
X99822429Y-112073275D01*
X99829672Y-112080580D01*
X99837183Y-112087380D01*
X99844963Y-112093677D01*
X99853013Y-112099470D01*
X99861332Y-112104760D01*
X99869919Y-112109545D01*
X99878776Y-112113827D01*
X99887902Y-112117605D01*
X99897296Y-112120880D01*
X99906960Y-112123650D01*
X99916893Y-112125917D01*
X99927095Y-112127680D01*
X99937566Y-112128940D01*
X99948306Y-112129695D01*
X99959315Y-112129947D01*
X99970502Y-112129697D01*
X99981411Y-112128947D01*
X99992042Y-112127697D01*
X100002393Y-112125948D01*
X100012466Y-112123698D01*
X100022261Y-112120948D01*
X100031777Y-112117699D01*
X100041014Y-112113949D01*
X100049973Y-112109700D01*
X100058653Y-112104950D01*
X100067055Y-112099701D01*
X100075178Y-112093952D01*
X100083022Y-112087703D01*
X100090588Y-112080954D01*
X100097875Y-112073705D01*
X100104884Y-112065956D01*
X100111538Y-112057727D01*
X100117764Y-112049038D01*
X100123560Y-112039889D01*
X100128926Y-112030281D01*
X100133864Y-112020212D01*
X100138372Y-112009684D01*
X100142450Y-111998696D01*
X100146100Y-111987248D01*
X100149320Y-111975340D01*
X100152110Y-111962973D01*
X100154472Y-111950145D01*
X100156404Y-111936858D01*
X100157906Y-111923111D01*
X100158980Y-111908904D01*
X100159624Y-111894237D01*
X100159838Y-111879110D01*
X100159624Y-111864160D01*
X100158980Y-111849659D01*
X100157906Y-111835607D01*
X100156404Y-111822003D01*
X100154472Y-111808847D01*
X100152110Y-111796140D01*
X100149320Y-111783881D01*
X100146100Y-111772070D01*
X100142450Y-111760708D01*
X100138372Y-111749795D01*
X100133864Y-111739329D01*
X100128926Y-111729313D01*
X100123560Y-111719744D01*
X100117764Y-111710624D01*
X100111538Y-111701953D01*
X100104884Y-111693729D01*
X100097875Y-111685980D01*
X100090588Y-111678731D01*
X100083022Y-111671982D01*
X100075178Y-111665733D01*
X100067055Y-111659984D01*
X100058653Y-111654735D01*
X100049973Y-111649985D01*
X100041014Y-111645736D01*
X100031777Y-111641986D01*
X100022261Y-111638737D01*
X100012466Y-111635987D01*
X100002393Y-111633737D01*
X99992042Y-111631988D01*
X99981411Y-111630738D01*
X99970502Y-111629988D01*
X99959315Y-111629738D01*
X99948306Y-111629988D01*
X99937566Y-111630738D01*
X99927095Y-111631988D01*
X99916893Y-111633737D01*
X99906960Y-111635987D01*
X99897296Y-111638737D01*
X99887902Y-111641986D01*
X99878776Y-111645736D01*
X99869919Y-111649985D01*
X99861332Y-111654735D01*
X99853013Y-111659984D01*
X99844963Y-111665733D01*
X99837183Y-111671982D01*
X99829672Y-111678731D01*
X99822429Y-111685980D01*
X99815456Y-111693729D01*
X99808801Y-111701953D01*
X99802576Y-111710624D01*
X99796780Y-111719744D01*
X99791413Y-111729313D01*
X99786476Y-111739329D01*
X99781968Y-111749795D01*
X99777889Y-111760708D01*
X99774240Y-111772070D01*
X99771020Y-111783881D01*
X99768229Y-111796140D01*
X99765868Y-111808847D01*
X99763936Y-111822003D01*
X99762433Y-111835607D01*
X99761360Y-111849659D01*
X99760716Y-111864160D01*
X99760501Y-111879110D01*
X99611025Y-111879110D01*
X99611025Y-111254581D01*
X99760501Y-111254581D01*
X99759540Y-111585549D01*
G37*
G36*
X99364584Y-112270631D02*
G01*
X99374357Y-112270200D01*
X99386070Y-112268448D01*
X99397222Y-112265348D01*
X99407813Y-112260901D01*
X99417844Y-112255106D01*
X99427314Y-112247964D01*
X99432727Y-112243032D01*
X99440889Y-112234056D01*
X99447668Y-112224532D01*
X99453063Y-112214459D01*
X99457075Y-112203838D01*
X99459704Y-112192668D01*
X99460949Y-112180950D01*
X99461060Y-112176109D01*
X99460368Y-112164195D01*
X99458293Y-112152877D01*
X99454834Y-112142156D01*
X99449992Y-112132031D01*
X99443767Y-112122502D01*
X99436158Y-112113570D01*
X99432727Y-112110163D01*
X99423593Y-112102353D01*
X99413899Y-112095867D01*
X99403644Y-112090704D01*
X99392828Y-112086865D01*
X99381452Y-112084350D01*
X99369515Y-112083158D01*
X99364584Y-112083053D01*
X99354822Y-112083476D01*
X99343156Y-112085197D01*
X99332086Y-112088242D01*
X99321613Y-112092610D01*
X99311736Y-112098302D01*
X99302455Y-112105318D01*
X99297173Y-112110163D01*
X99289222Y-112118922D01*
X99282618Y-112128253D01*
X99277362Y-112138156D01*
X99273454Y-112148632D01*
X99270894Y-112159680D01*
X99269681Y-112171301D01*
X99269573Y-112176109D01*
X99270247Y-112188047D01*
X99272268Y-112199436D01*
X99275637Y-112210277D01*
X99280354Y-112220569D01*
X99286419Y-112230312D01*
X99293830Y-112239507D01*
X99297173Y-112243032D01*
X99306096Y-112250983D01*
X99315615Y-112257586D01*
X99325730Y-112262842D01*
X99336442Y-112266750D01*
X99347750Y-112269310D01*
X99359655Y-112270523D01*
X99364584Y-112270631D01*
G37*
D12*
X124434819Y-144190476D02*
X125149104Y-144190476D01*
X125149104Y-144190476D02*
X125291961Y-144142857D01*
X125291961Y-144142857D02*
X125387200Y-144047619D01*
X125387200Y-144047619D02*
X125434819Y-143904762D01*
X125434819Y-143904762D02*
X125434819Y-143809524D01*
X125434819Y-145190476D02*
X125434819Y-144619048D01*
X125434819Y-144904762D02*
X124434819Y-144904762D01*
X124434819Y-144904762D02*
X124577676Y-144809524D01*
X124577676Y-144809524D02*
X124672914Y-144714286D01*
X124672914Y-144714286D02*
X124720533Y-144619048D01*
X125434819Y-146142857D02*
X125434819Y-145571429D01*
X125434819Y-145857143D02*
X124434819Y-145857143D01*
X124434819Y-145857143D02*
X124577676Y-145761905D01*
X124577676Y-145761905D02*
X124672914Y-145666667D01*
X124672914Y-145666667D02*
X124720533Y-145571429D01*
X84474819Y-144190476D02*
X85189104Y-144190476D01*
X85189104Y-144190476D02*
X85331961Y-144142857D01*
X85331961Y-144142857D02*
X85427200Y-144047619D01*
X85427200Y-144047619D02*
X85474819Y-143904762D01*
X85474819Y-143904762D02*
X85474819Y-143809524D01*
X85474819Y-145190476D02*
X85474819Y-144619048D01*
X85474819Y-144904762D02*
X84474819Y-144904762D01*
X84474819Y-144904762D02*
X84617676Y-144809524D01*
X84617676Y-144809524D02*
X84712914Y-144714286D01*
X84712914Y-144714286D02*
X84760533Y-144619048D01*
X84474819Y-145809524D02*
X84474819Y-145904762D01*
X84474819Y-145904762D02*
X84522438Y-146000000D01*
X84522438Y-146000000D02*
X84570057Y-146047619D01*
X84570057Y-146047619D02*
X84665295Y-146095238D01*
X84665295Y-146095238D02*
X84855771Y-146142857D01*
X84855771Y-146142857D02*
X85093866Y-146142857D01*
X85093866Y-146142857D02*
X85284342Y-146095238D01*
X85284342Y-146095238D02*
X85379580Y-146047619D01*
X85379580Y-146047619D02*
X85427200Y-146000000D01*
X85427200Y-146000000D02*
X85474819Y-145904762D01*
X85474819Y-145904762D02*
X85474819Y-145809524D01*
X85474819Y-145809524D02*
X85427200Y-145714286D01*
X85427200Y-145714286D02*
X85379580Y-145666667D01*
X85379580Y-145666667D02*
X85284342Y-145619048D01*
X85284342Y-145619048D02*
X85093866Y-145571429D01*
X85093866Y-145571429D02*
X84855771Y-145571429D01*
X84855771Y-145571429D02*
X84665295Y-145619048D01*
X84665295Y-145619048D02*
X84570057Y-145666667D01*
X84570057Y-145666667D02*
X84522438Y-145714286D01*
X84522438Y-145714286D02*
X84474819Y-145809524D01*
X108004819Y-134666666D02*
X108719104Y-134666666D01*
X108719104Y-134666666D02*
X108861961Y-134619047D01*
X108861961Y-134619047D02*
X108957200Y-134523809D01*
X108957200Y-134523809D02*
X109004819Y-134380952D01*
X109004819Y-134380952D02*
X109004819Y-134285714D01*
X109004819Y-135190476D02*
X109004819Y-135380952D01*
X109004819Y-135380952D02*
X108957200Y-135476190D01*
X108957200Y-135476190D02*
X108909580Y-135523809D01*
X108909580Y-135523809D02*
X108766723Y-135619047D01*
X108766723Y-135619047D02*
X108576247Y-135666666D01*
X108576247Y-135666666D02*
X108195295Y-135666666D01*
X108195295Y-135666666D02*
X108100057Y-135619047D01*
X108100057Y-135619047D02*
X108052438Y-135571428D01*
X108052438Y-135571428D02*
X108004819Y-135476190D01*
X108004819Y-135476190D02*
X108004819Y-135285714D01*
X108004819Y-135285714D02*
X108052438Y-135190476D01*
X108052438Y-135190476D02*
X108100057Y-135142857D01*
X108100057Y-135142857D02*
X108195295Y-135095238D01*
X108195295Y-135095238D02*
X108433390Y-135095238D01*
X108433390Y-135095238D02*
X108528628Y-135142857D01*
X108528628Y-135142857D02*
X108576247Y-135190476D01*
X108576247Y-135190476D02*
X108623866Y-135285714D01*
X108623866Y-135285714D02*
X108623866Y-135476190D01*
X108623866Y-135476190D02*
X108576247Y-135571428D01*
X108576247Y-135571428D02*
X108528628Y-135619047D01*
X108528628Y-135619047D02*
X108433390Y-135666666D01*
D13*
%TO.C,J11*%
X120285000Y-148610000D02*
X122785000Y-148610000D01*
X122785000Y-148610000D02*
X122785000Y-147560000D01*
X122785000Y-147560000D02*
X123775000Y-147560000D01*
X118315000Y-147440000D02*
X118315000Y-142560000D01*
X120285000Y-141390000D02*
X122785000Y-141390000D01*
X122785000Y-141390000D02*
X122785000Y-142440000D01*
%TO.C,J10*%
X89715000Y-142890000D02*
X87215000Y-142890000D01*
X87215000Y-142890000D02*
X87215000Y-143940000D01*
X87215000Y-143940000D02*
X86225000Y-143940000D01*
X91685000Y-144060000D02*
X91685000Y-145940000D01*
X89715000Y-147110000D02*
X87215000Y-147110000D01*
X87215000Y-147110000D02*
X87215000Y-146060000D01*
%TO.C,J9*%
X107750000Y-139100000D02*
X106500000Y-139100000D01*
X101490000Y-138810000D02*
X101490000Y-131190000D01*
X107460000Y-138810000D02*
X101490000Y-138810000D01*
X105200000Y-138800000D02*
X105200000Y-138050000D01*
X106700000Y-138800000D02*
X106700000Y-137000000D01*
X107450000Y-138800000D02*
X106700000Y-138800000D01*
X102250000Y-138050000D02*
X102250000Y-135000000D01*
X105200000Y-138050000D02*
X102250000Y-138050000D01*
X107750000Y-137850000D02*
X107750000Y-139100000D01*
X106700000Y-137000000D02*
X107450000Y-137000000D01*
X107450000Y-137000000D02*
X107450000Y-138800000D01*
X106700000Y-135500000D02*
X106700000Y-134500000D01*
X107450000Y-135500000D02*
X106700000Y-135500000D01*
X106700000Y-134500000D02*
X107450000Y-134500000D01*
X107450000Y-134500000D02*
X107450000Y-135500000D01*
X106700000Y-133000000D02*
X106700000Y-131200000D01*
X107450000Y-133000000D02*
X106700000Y-133000000D01*
X102250000Y-131950000D02*
X102250000Y-135000000D01*
X105200000Y-131950000D02*
X102250000Y-131950000D01*
X105200000Y-131200000D02*
X105200000Y-131950000D01*
X106700000Y-131200000D02*
X107450000Y-131200000D01*
X107450000Y-131200000D02*
X107450000Y-133000000D01*
X101490000Y-131190000D02*
X107460000Y-131190000D01*
X107460000Y-131190000D02*
X107460000Y-138810000D01*
%TD*%
%LPC*%
D14*
%TO.C,U4*%
X122620000Y-172490000D03*
X122620000Y-169950000D03*
X122620000Y-167410000D03*
X122620000Y-164870000D03*
X122620000Y-162330000D03*
X122620000Y-159790000D03*
X122620000Y-157250000D03*
D15*
X107380000Y-157250000D03*
X107380000Y-159790000D03*
X107380000Y-162330000D03*
X107380000Y-164870000D03*
X107380000Y-167410000D03*
X107380000Y-169950000D03*
X107380000Y-172490000D03*
%TD*%
D16*
%TO.C,DRIBBLERJ1*%
X61400000Y-107525000D03*
D17*
X61400000Y-104985000D03*
X61400000Y-102445000D03*
%TD*%
D18*
%TO.C,H9*%
X77987984Y-147075539D03*
%TD*%
%TO.C,H3*%
X84140350Y-84140350D03*
%TD*%
D14*
%TO.C,U3*%
X102620000Y-172490000D03*
X102620000Y-169950000D03*
X102620000Y-167410000D03*
X102620000Y-164870000D03*
X102620000Y-162330000D03*
X102620000Y-159790000D03*
X102620000Y-157250000D03*
D15*
X87380000Y-157250000D03*
X87380000Y-159790000D03*
X87380000Y-162330000D03*
X87380000Y-164870000D03*
X87380000Y-167410000D03*
X87380000Y-169950000D03*
X87380000Y-172490000D03*
%TD*%
D18*
%TO.C,H7*%
X67000000Y-131000000D03*
%TD*%
%TO.C,H6*%
X125859650Y-125859650D03*
%TD*%
%TO.C,H8*%
X143000000Y-131000000D03*
%TD*%
%TO.C,H4*%
X125859650Y-84140350D03*
%TD*%
%TO.C,H5*%
X84140350Y-125859650D03*
%TD*%
D19*
%TO.C,SW1*%
X50000000Y-70200000D03*
X50000000Y-75000000D03*
X50000000Y-79800000D03*
%TD*%
D20*
%TO.C,U2*%
X155380000Y-91030000D03*
X155380000Y-93570000D03*
X155380000Y-96110000D03*
X155380000Y-98650000D03*
X170620000Y-93570000D03*
X155380000Y-101190000D03*
X155380000Y-103730000D03*
X155380000Y-106270000D03*
X155380000Y-108810000D03*
X155380000Y-111350000D03*
X155380000Y-113890000D03*
X155380000Y-116430000D03*
X155380000Y-118970000D03*
X155380000Y-121510000D03*
X170620000Y-121510000D03*
X170620000Y-118970000D03*
X170620000Y-116430000D03*
X170620000Y-113890000D03*
X170620000Y-111350000D03*
X170620000Y-108810000D03*
X170620000Y-106270000D03*
X170620000Y-103730000D03*
X170620000Y-101190000D03*
X170620000Y-98650000D03*
X170620000Y-96110000D03*
X155380000Y-88490000D03*
X170620000Y-91030000D03*
X170620000Y-88490000D03*
X168080000Y-91030000D03*
%TD*%
D16*
%TO.C,BUCK1*%
X50475000Y-127710000D03*
D17*
X53015000Y-127710000D03*
X55555000Y-127710000D03*
%TD*%
D16*
%TO.C,BUCK2*%
X154460000Y-128000000D03*
D17*
X157000000Y-128000000D03*
X159540000Y-128000000D03*
%TD*%
D18*
%TO.C,H10*%
X132012016Y-147075539D03*
%TD*%
%TO.C,H1*%
X67000000Y-79000000D03*
%TD*%
D21*
%TO.C,J12*%
X143414402Y-149490658D03*
D22*
X144765003Y-151594435D03*
%TD*%
D23*
%TO.C,J5*%
X149000000Y-100000000D03*
D24*
X149000000Y-102500000D03*
X149000000Y-105000000D03*
X149000000Y-107500000D03*
X149000000Y-110000000D03*
%TD*%
D25*
%TO.C,TP1*%
X149000000Y-116750000D03*
X149000000Y-119290000D03*
%TD*%
D18*
%TO.C,H2*%
X143000000Y-79000000D03*
%TD*%
D20*
%TO.C,U1*%
X39380000Y-91030000D03*
X39380000Y-93570000D03*
X39380000Y-96110000D03*
X39380000Y-98650000D03*
X54620000Y-93570000D03*
X39380000Y-101190000D03*
X39380000Y-103730000D03*
X39380000Y-106270000D03*
X39380000Y-108810000D03*
X39380000Y-111350000D03*
X39380000Y-113890000D03*
X39380000Y-116430000D03*
X39380000Y-118970000D03*
X39380000Y-121510000D03*
X54620000Y-121510000D03*
X54620000Y-118970000D03*
X54620000Y-116430000D03*
X54620000Y-113890000D03*
X54620000Y-111350000D03*
X54620000Y-108810000D03*
X54620000Y-106270000D03*
X54620000Y-103730000D03*
X54620000Y-101190000D03*
X54620000Y-98650000D03*
X54620000Y-96110000D03*
X39380000Y-88490000D03*
X54620000Y-91030000D03*
X54620000Y-88490000D03*
X52080000Y-91030000D03*
%TD*%
D26*
%TO.C,J11*%
X123000000Y-147000000D03*
X123000000Y-146000000D03*
X123000000Y-145000000D03*
X123000000Y-144000000D03*
X123000000Y-143000000D03*
D27*
X119125000Y-148300000D03*
X119125000Y-141700000D03*
%TD*%
D28*
%TO.C,J10*%
X87000000Y-144500000D03*
X87000000Y-145500000D03*
D29*
X90875000Y-143200000D03*
X90875000Y-146800000D03*
%TD*%
D30*
%TO.C,J9*%
X105000000Y-136250000D03*
D31*
X105000000Y-133750000D03*
%TD*%
%LPD*%
M02*
