M48
; DRILL file {KiCad 7.0.9} date 
; FORMAT={-:-/ absolute / metric / decimal}
; #@! TF.CreationDate,2024-02-22T22:19:47+08:00
; #@! TF.GenerationSoftware,Kicad,Pcbnew,7.0.9
; #@! TF.FileFunction,Plated,1,2,PTH
FMAT,2
METRIC
; #@! TA.AperFunction,Plated,PTH,ComponentDrill
T1C1.000
; #@! TA.AperFunction,Plated,PTH,ComponentDrill
T2C1.800
; #@! TA.AperFunction,Plated,PTH,ComponentDrill
T3C1.900
; #@! TA.AperFunction,Plated,PTH,ComponentDrill
T4C2.200
; #@! TA.AperFunction,Plated,PTH,ComponentDrill
T5C2.500
; #@! TA.AperFunction,Plated,PTH,ComponentDrill
T6C3.000
; #@! TA.AperFunction,Plated,PTH,ComponentDrill
T7C3.200
%
G90
G05
T1
X123.75Y-172.5
X126.25Y-172.5
X134.0Y-166.0
X145.0Y-166.0
T2
X122.5Y-165.0
X127.5Y-165.0
T3
X137.0Y-161.0
X142.0Y-161.0
T4
X80.0Y-34.75
X170.0Y-34.75
T5
X56.0Y-122.0
X56.0Y-128.0
X71.0Y-122.0
X71.0Y-128.0
X179.0Y-122.0
X179.0Y-128.0
X194.0Y-122.0
X194.0Y-128.0
T6
X102.0Y-195.0
X102.0Y-201.0
X148.0Y-195.0
X148.0Y-201.0
T7
X35.6Y-82.8
X35.6Y-167.6
X62.6Y-91.191
X62.6Y-159.2
X67.75Y-44.5
X67.8Y-205.8
X80.6Y-69.6
X80.6Y-180.6
X97.988Y-167.076
X109.0Y-66.611
X109.0Y-86.611
X122.0Y-98.0
X122.0Y-122.0
X122.0Y-128.0
X122.0Y-152.0
X128.0Y-98.0
X128.0Y-122.0
X128.0Y-128.0
X128.0Y-152.0
X141.0Y-66.611
X141.0Y-86.611
X152.012Y-167.076
X169.4Y-69.6
X169.4Y-180.6
X182.2Y-205.8
X182.25Y-44.5
X187.4Y-91.191
X187.4Y-159.2
X214.4Y-82.8
X214.4Y-167.6
T0
M30
