G04 #@! TF.GenerationSoftware,KiCad,Pcbnew,7.0.9*
G04 #@! TF.CreationDate,2024-02-22T22:19:44+08:00*
G04 #@! TF.ProjectId,layer2,6c617965-7232-42e6-9b69-6361645f7063,rev?*
G04 #@! TF.SameCoordinates,Original*
G04 #@! TF.FileFunction,Legend,Bot*
G04 #@! TF.FilePolarity,Positive*
%FSLAX46Y46*%
G04 Gerber Fmt 4.6, Leading zero omitted, Abs format (unit mm)*
G04 Created by KiCad (PCBNEW 7.0.9) date 2024-02-22 22:19:44*
%MOMM*%
%LPD*%
G01*
G04 APERTURE LIST*
G04 Aperture macros list*
%AMRoundRect*
0 Rectangle with rounded corners*
0 $1 Rounding radius*
0 $2 $3 $4 $5 $6 $7 $8 $9 X,Y pos of 4 corners*
0 Add a 4 corners polygon primitive as box body*
4,1,4,$2,$3,$4,$5,$6,$7,$8,$9,$2,$3,0*
0 Add four circle primitives for the rounded corners*
1,1,$1+$1,$2,$3*
1,1,$1+$1,$4,$5*
1,1,$1+$1,$6,$7*
1,1,$1+$1,$8,$9*
0 Add four rect primitives between the rounded corners*
20,1,$1+$1,$2,$3,$4,$5,0*
20,1,$1+$1,$4,$5,$6,$7,0*
20,1,$1+$1,$6,$7,$8,$9,0*
20,1,$1+$1,$8,$9,$2,$3,0*%
G04 Aperture macros list end*
%ADD10C,0.250000*%
%ADD11RoundRect,0.250000X-0.600000X-0.750000X0.600000X-0.750000X0.600000X0.750000X-0.600000X0.750000X0*%
%ADD12O,1.700000X2.000000*%
%ADD13RoundRect,0.249999X-1.950001X-1.950001X1.950001X-1.950001X1.950001X1.950001X-1.950001X1.950001X0*%
%ADD14RoundRect,0.250002X-1.699998X-1.699998X1.699998X-1.699998X1.699998X1.699998X-1.699998X1.699998X0*%
%ADD15C,6.400000*%
%ADD16R,3.000000X3.000000*%
%ADD17C,3.000000*%
%ADD18C,4.400000*%
%ADD19C,1.400000*%
%ADD20R,3.500000X3.500000*%
%ADD21C,3.500000*%
G04 APERTURE END LIST*
D10*
G36*
X25963546Y-128255756D02*
G01*
X25271414Y-128253953D01*
X25272449Y-128254892D01*
X25292713Y-128275157D01*
X25312024Y-128297062D01*
X25330380Y-128320609D01*
X25347782Y-128345796D01*
X25364231Y-128372625D01*
X25379725Y-128401095D01*
X25390719Y-128423524D01*
X25401177Y-128446876D01*
X25407758Y-128462721D01*
X25416833Y-128486658D01*
X25424953Y-128510799D01*
X25432117Y-128535144D01*
X25438326Y-128559693D01*
X25443580Y-128584445D01*
X25447879Y-128609402D01*
X25451222Y-128634563D01*
X25453611Y-128659928D01*
X25455043Y-128685496D01*
X25455521Y-128711269D01*
X25454496Y-128759261D01*
X25451419Y-128805999D01*
X25446290Y-128851482D01*
X25439111Y-128895710D01*
X25429880Y-128938684D01*
X25418598Y-128980403D01*
X25405265Y-129020868D01*
X25389881Y-129060078D01*
X25372445Y-129098033D01*
X25352958Y-129134734D01*
X25331420Y-129170180D01*
X25307831Y-129204372D01*
X25282190Y-129237309D01*
X25254498Y-129268991D01*
X25224755Y-129299419D01*
X25192960Y-129328592D01*
X25176364Y-129342642D01*
X25141826Y-129369404D01*
X25105495Y-129394382D01*
X25067371Y-129417575D01*
X25027452Y-129438985D01*
X24985740Y-129458610D01*
X24942234Y-129476451D01*
X24896935Y-129492508D01*
X24873613Y-129499868D01*
X24849842Y-129506781D01*
X24825623Y-129513249D01*
X24800955Y-129519270D01*
X24775839Y-129524845D01*
X24750275Y-129529975D01*
X24724262Y-129534658D01*
X24697801Y-129538895D01*
X24670891Y-129542687D01*
X24643533Y-129546032D01*
X24615726Y-129548931D01*
X24587472Y-129551384D01*
X24558768Y-129553391D01*
X24529617Y-129554952D01*
X24500016Y-129556067D01*
X24469968Y-129556736D01*
X24439471Y-129556959D01*
X24408973Y-129556736D01*
X24378923Y-129556067D01*
X24349320Y-129554952D01*
X24320164Y-129553391D01*
X24291455Y-129551384D01*
X24263194Y-129548931D01*
X24235380Y-129546032D01*
X24208013Y-129542687D01*
X24181093Y-129538895D01*
X24154620Y-129534658D01*
X24128595Y-129529975D01*
X24103017Y-129524845D01*
X24077886Y-129519270D01*
X24053202Y-129513249D01*
X24028966Y-129506781D01*
X24005177Y-129499868D01*
X23958940Y-129484703D01*
X23914492Y-129467754D01*
X23871833Y-129449020D01*
X23830963Y-129428503D01*
X23791881Y-129406202D01*
X23754589Y-129382116D01*
X23719086Y-129356246D01*
X23685371Y-129328592D01*
X23653651Y-129299419D01*
X23623976Y-129268991D01*
X23596349Y-129237309D01*
X23570768Y-129204372D01*
X23547233Y-129170180D01*
X23525745Y-129134734D01*
X23506303Y-129098033D01*
X23488908Y-129060078D01*
X23473560Y-129020868D01*
X23460257Y-128980403D01*
X23449002Y-128938684D01*
X23439793Y-128895710D01*
X23432630Y-128851482D01*
X23427514Y-128805999D01*
X23424444Y-128759261D01*
X23423421Y-128711269D01*
X23424260Y-128672309D01*
X23426779Y-128634504D01*
X23430977Y-128597853D01*
X23435552Y-128570218D01*
X24048682Y-128570218D01*
X24049071Y-128587783D01*
X24051112Y-128613307D01*
X24054903Y-128637843D01*
X24062679Y-128669022D01*
X24073565Y-128698446D01*
X24087561Y-128726114D01*
X24104667Y-128752027D01*
X24124884Y-128776184D01*
X24148211Y-128798585D01*
X24161084Y-128809011D01*
X24181726Y-128823388D01*
X24203967Y-128836252D01*
X24227808Y-128847603D01*
X24253248Y-128857440D01*
X24280287Y-128865764D01*
X24308925Y-128872574D01*
X24339163Y-128877871D01*
X24370999Y-128881654D01*
X24404436Y-128883924D01*
X24439471Y-128884681D01*
X24463003Y-128884345D01*
X24496960Y-128882579D01*
X24529306Y-128879300D01*
X24560043Y-128874508D01*
X24589170Y-128868202D01*
X24616686Y-128860383D01*
X24642593Y-128851050D01*
X24666890Y-128840204D01*
X24689577Y-128827844D01*
X24710653Y-128813972D01*
X24730120Y-128798585D01*
X24748016Y-128781949D01*
X24769139Y-128758230D01*
X24787133Y-128732757D01*
X24801997Y-128705527D01*
X24813733Y-128676543D01*
X24822338Y-128645802D01*
X24826739Y-128621595D01*
X24829379Y-128596401D01*
X24830259Y-128570218D01*
X24829379Y-128544145D01*
X24826739Y-128519049D01*
X24822338Y-128494929D01*
X24813733Y-128464289D01*
X24801997Y-128435386D01*
X24787133Y-128408218D01*
X24769139Y-128382788D01*
X24748016Y-128359093D01*
X24730120Y-128342462D01*
X24717321Y-128331962D01*
X24696781Y-128317483D01*
X24674631Y-128304528D01*
X24650871Y-128293097D01*
X24625501Y-128283190D01*
X24598521Y-128274807D01*
X24569931Y-128267949D01*
X24539731Y-128262614D01*
X24507921Y-128258804D01*
X24474501Y-128256518D01*
X24439471Y-128255756D01*
X24415936Y-128256094D01*
X24381967Y-128257873D01*
X24349597Y-128261175D01*
X24318826Y-128266001D01*
X24289655Y-128272352D01*
X24262083Y-128280226D01*
X24236110Y-128289625D01*
X24211736Y-128300548D01*
X24188962Y-128312995D01*
X24167787Y-128326967D01*
X24148211Y-128342462D01*
X24130424Y-128359093D01*
X24109430Y-128382788D01*
X24091546Y-128408218D01*
X24076772Y-128435386D01*
X24065108Y-128464289D01*
X24056555Y-128494929D01*
X24052181Y-128519049D01*
X24049557Y-128544145D01*
X24048682Y-128570218D01*
X23435552Y-128570218D01*
X23436854Y-128562357D01*
X23444410Y-128528015D01*
X23453646Y-128494827D01*
X23464560Y-128462794D01*
X23477154Y-128431916D01*
X23491427Y-128402192D01*
X23507379Y-128373622D01*
X23525010Y-128346207D01*
X23544321Y-128319946D01*
X23565310Y-128294839D01*
X23587979Y-128270887D01*
X23612327Y-128248090D01*
X23632411Y-128231388D01*
X23462500Y-128180651D01*
X23462500Y-127583477D01*
X25963546Y-127583477D01*
X25963546Y-128255756D01*
G37*
G36*
X23423421Y-126576586D02*
G01*
X23424113Y-126608296D01*
X23426190Y-126639770D01*
X23429651Y-126671007D01*
X23434497Y-126702009D01*
X23440728Y-126732774D01*
X23448343Y-126763303D01*
X23457343Y-126793596D01*
X23467728Y-126823653D01*
X23479497Y-126853474D01*
X23492651Y-126883058D01*
X23502189Y-126902650D01*
X23517822Y-126931383D01*
X23535183Y-126959194D01*
X23554272Y-126986080D01*
X23575090Y-127012044D01*
X23597635Y-127037085D01*
X23621909Y-127061203D01*
X23647910Y-127084398D01*
X23675640Y-127106669D01*
X23705097Y-127128018D01*
X23725696Y-127141738D01*
X23747062Y-127155047D01*
X23758033Y-127161548D01*
X23780538Y-127173970D01*
X23803781Y-127185590D01*
X23827764Y-127196410D01*
X23852487Y-127206427D01*
X23877948Y-127215644D01*
X23904150Y-127224059D01*
X23931090Y-127231672D01*
X23958770Y-127238484D01*
X23987190Y-127244495D01*
X24016349Y-127249704D01*
X24046247Y-127254112D01*
X24076885Y-127257718D01*
X24108262Y-127260523D01*
X24140378Y-127262527D01*
X24173234Y-127263729D01*
X24206830Y-127264130D01*
X25416442Y-127264130D01*
X25416442Y-126591851D01*
X24327119Y-126591851D01*
X24302266Y-126591250D01*
X24270882Y-126588579D01*
X24241501Y-126583770D01*
X24214124Y-126576825D01*
X24188750Y-126567742D01*
X24165380Y-126556522D01*
X24144014Y-126543165D01*
X24124651Y-126527671D01*
X24120123Y-126523463D01*
X24103379Y-126505594D01*
X24085589Y-126481083D01*
X24071287Y-126454157D01*
X24062357Y-126430878D01*
X24055659Y-126406053D01*
X24051194Y-126379682D01*
X24048961Y-126351766D01*
X24048682Y-126337228D01*
X24049799Y-126308568D01*
X24053147Y-126281510D01*
X24058729Y-126256056D01*
X24066543Y-126232204D01*
X24079449Y-126204643D01*
X24095845Y-126179587D01*
X24115728Y-126157035D01*
X24120123Y-126152825D01*
X24138985Y-126137083D01*
X24159851Y-126123439D01*
X24182720Y-126111895D01*
X24207593Y-126102450D01*
X24234469Y-126095103D01*
X24263349Y-126089856D01*
X24294232Y-126086707D01*
X24318710Y-126085724D01*
X24327119Y-126085658D01*
X25416442Y-126085658D01*
X25416442Y-125413990D01*
X23462500Y-125413990D01*
X23462500Y-126010553D01*
X23638354Y-126063676D01*
X23638354Y-126057570D01*
X23612327Y-126083139D01*
X23587979Y-126109624D01*
X23565310Y-126137025D01*
X23544321Y-126165342D01*
X23525010Y-126194575D01*
X23507379Y-126224724D01*
X23491427Y-126255788D01*
X23477154Y-126287769D01*
X23464560Y-126320665D01*
X23453646Y-126354478D01*
X23444410Y-126389206D01*
X23436854Y-126424850D01*
X23430977Y-126461410D01*
X23426779Y-126498886D01*
X23424260Y-126537278D01*
X23423421Y-126576586D01*
G37*
G36*
X23423421Y-124195829D02*
G01*
X23423678Y-124225194D01*
X23424451Y-124254137D01*
X23425739Y-124282658D01*
X23427542Y-124310757D01*
X23429861Y-124338433D01*
X23432694Y-124365687D01*
X23436043Y-124392520D01*
X23439907Y-124418930D01*
X23444286Y-124444917D01*
X23449181Y-124470483D01*
X23454590Y-124495626D01*
X23460515Y-124520348D01*
X23466955Y-124544647D01*
X23473910Y-124568524D01*
X23481381Y-124591978D01*
X23497867Y-124637621D01*
X23516414Y-124681575D01*
X23537022Y-124723841D01*
X23559691Y-124764417D01*
X23584421Y-124803306D01*
X23611211Y-124840505D01*
X23640062Y-124876015D01*
X23670974Y-124909837D01*
X23687203Y-124926115D01*
X23721053Y-124957170D01*
X23756659Y-124986222D01*
X23794021Y-125013270D01*
X23833138Y-125038314D01*
X23874011Y-125061355D01*
X23916639Y-125082392D01*
X23961022Y-125101426D01*
X23983872Y-125110192D01*
X24007161Y-125118456D01*
X24030889Y-125126220D01*
X24055056Y-125133483D01*
X24079661Y-125140245D01*
X24104706Y-125146506D01*
X24130189Y-125152266D01*
X24156111Y-125157526D01*
X24182472Y-125162284D01*
X24209272Y-125166542D01*
X24236511Y-125170298D01*
X24264188Y-125173554D01*
X24292305Y-125176309D01*
X24320860Y-125178563D01*
X24349855Y-125180316D01*
X24379288Y-125181568D01*
X24409160Y-125182320D01*
X24439471Y-125182570D01*
X24469782Y-125182320D01*
X24499654Y-125181568D01*
X24529087Y-125180316D01*
X24558081Y-125178563D01*
X24586637Y-125176309D01*
X24614753Y-125173554D01*
X24642431Y-125170298D01*
X24669670Y-125166542D01*
X24696470Y-125162284D01*
X24722831Y-125157526D01*
X24748753Y-125152266D01*
X24774236Y-125146506D01*
X24799281Y-125140245D01*
X24823886Y-125133483D01*
X24848053Y-125126220D01*
X24871781Y-125118456D01*
X24895070Y-125110192D01*
X24917920Y-125101426D01*
X24962303Y-125082392D01*
X25004931Y-125061355D01*
X25045804Y-125038314D01*
X25084921Y-125013270D01*
X25122282Y-124986222D01*
X25157888Y-124957170D01*
X25191739Y-124926115D01*
X25223681Y-124893138D01*
X25253563Y-124858471D01*
X25281384Y-124822116D01*
X25307144Y-124784073D01*
X25330843Y-124744340D01*
X25352481Y-124702919D01*
X25372059Y-124659809D01*
X25389576Y-124615011D01*
X25405032Y-124568524D01*
X25411987Y-124544647D01*
X25418427Y-124520348D01*
X25424352Y-124495626D01*
X25429761Y-124470483D01*
X25434656Y-124444917D01*
X25439035Y-124418930D01*
X25442899Y-124392520D01*
X25446248Y-124365687D01*
X25449081Y-124338433D01*
X25451400Y-124310757D01*
X25453203Y-124282658D01*
X25454491Y-124254137D01*
X25455264Y-124225194D01*
X25455521Y-124195829D01*
X25455056Y-124158577D01*
X25453661Y-124122079D01*
X25451335Y-124086335D01*
X25448079Y-124051344D01*
X25443893Y-124017107D01*
X25438777Y-123983624D01*
X25432731Y-123950894D01*
X25425754Y-123918919D01*
X25417847Y-123887697D01*
X25409010Y-123857228D01*
X25399243Y-123827514D01*
X25388545Y-123798553D01*
X25376917Y-123770346D01*
X25364359Y-123742892D01*
X25350871Y-123716192D01*
X25336453Y-123690246D01*
X25321328Y-123665061D01*
X25305722Y-123640644D01*
X25289634Y-123616995D01*
X25273064Y-123594114D01*
X25256012Y-123572001D01*
X25238479Y-123550656D01*
X25220464Y-123530079D01*
X25201967Y-123510270D01*
X25182988Y-123491229D01*
X25163527Y-123472956D01*
X25143584Y-123455451D01*
X25123160Y-123438714D01*
X25102254Y-123422746D01*
X25080866Y-123407545D01*
X25058996Y-123393112D01*
X25036645Y-123379447D01*
X25013895Y-123366458D01*
X24990830Y-123354050D01*
X24967450Y-123342224D01*
X24943756Y-123330980D01*
X24919747Y-123320319D01*
X24895423Y-123310239D01*
X24870784Y-123300741D01*
X24845830Y-123291825D01*
X24820561Y-123283491D01*
X24794978Y-123275739D01*
X24769079Y-123268570D01*
X24742866Y-123261982D01*
X24716338Y-123255976D01*
X24689495Y-123250552D01*
X24662338Y-123245710D01*
X24634865Y-123241450D01*
X24634865Y-123910065D01*
X24659766Y-123921733D01*
X24682874Y-123934146D01*
X24704188Y-123947302D01*
X24728308Y-123964795D01*
X24749626Y-123983450D01*
X24768141Y-124003268D01*
X24783853Y-124024248D01*
X24797222Y-124047063D01*
X24808325Y-124072381D01*
X24817162Y-124100205D01*
X24822601Y-124124266D01*
X24826589Y-124149931D01*
X24829126Y-124177198D01*
X24830214Y-124206069D01*
X24830259Y-124213537D01*
X24828695Y-124244907D01*
X24824001Y-124274903D01*
X24816177Y-124303525D01*
X24805225Y-124330773D01*
X24791142Y-124356648D01*
X24773931Y-124381148D01*
X24753590Y-124404275D01*
X24730120Y-124426028D01*
X24710653Y-124441087D01*
X24689577Y-124454664D01*
X24666890Y-124466761D01*
X24642593Y-124477376D01*
X24616686Y-124486510D01*
X24589170Y-124494163D01*
X24560043Y-124500335D01*
X24529306Y-124505025D01*
X24496960Y-124508234D01*
X24463003Y-124509962D01*
X24439471Y-124510292D01*
X24404436Y-124509551D01*
X24370999Y-124507329D01*
X24339163Y-124503626D01*
X24308925Y-124498442D01*
X24280287Y-124491777D01*
X24253248Y-124483630D01*
X24227808Y-124474002D01*
X24203967Y-124462893D01*
X24181726Y-124450303D01*
X24161084Y-124436232D01*
X24148211Y-124426028D01*
X24124884Y-124404275D01*
X24104667Y-124381148D01*
X24087561Y-124356648D01*
X24073565Y-124330773D01*
X24062679Y-124303525D01*
X24054903Y-124274903D01*
X24050237Y-124244907D01*
X24048682Y-124213537D01*
X24049398Y-124184266D01*
X24051545Y-124156597D01*
X24055122Y-124130532D01*
X24060131Y-124106070D01*
X24068405Y-124077746D01*
X24078915Y-124051926D01*
X24091660Y-124028611D01*
X24094478Y-124024248D01*
X24110366Y-124003268D01*
X24129027Y-123983450D01*
X24150461Y-123964795D01*
X24174668Y-123947302D01*
X24196029Y-123934146D01*
X24219166Y-123921733D01*
X24244077Y-123910065D01*
X24244077Y-123241450D01*
X24216604Y-123245710D01*
X24189446Y-123250552D01*
X24162603Y-123255976D01*
X24136075Y-123261982D01*
X24109862Y-123268570D01*
X24083964Y-123275739D01*
X24058380Y-123283491D01*
X24033112Y-123291825D01*
X24008158Y-123300741D01*
X23983519Y-123310239D01*
X23959195Y-123320319D01*
X23935186Y-123330980D01*
X23911491Y-123342224D01*
X23888112Y-123354050D01*
X23865047Y-123366458D01*
X23842297Y-123379447D01*
X23819946Y-123393112D01*
X23798076Y-123407545D01*
X23776688Y-123422746D01*
X23755782Y-123438714D01*
X23735357Y-123455451D01*
X23715415Y-123472956D01*
X23695954Y-123491229D01*
X23676975Y-123510270D01*
X23658478Y-123530079D01*
X23640463Y-123550656D01*
X23622929Y-123572001D01*
X23605878Y-123594114D01*
X23589308Y-123616995D01*
X23573220Y-123640644D01*
X23557613Y-123665061D01*
X23542489Y-123690246D01*
X23528071Y-123716192D01*
X23514582Y-123742892D01*
X23502024Y-123770346D01*
X23490397Y-123798553D01*
X23479699Y-123827514D01*
X23469932Y-123857228D01*
X23461095Y-123887697D01*
X23453188Y-123918919D01*
X23446211Y-123950894D01*
X23440165Y-123983624D01*
X23435048Y-124017107D01*
X23430862Y-124051344D01*
X23427607Y-124086335D01*
X23425281Y-124122079D01*
X23423886Y-124158577D01*
X23423421Y-124195829D01*
G37*
G36*
X23423421Y-122166171D02*
G01*
X23423678Y-122195536D01*
X23424451Y-122224479D01*
X23425739Y-122253000D01*
X23427542Y-122281099D01*
X23429861Y-122308775D01*
X23432694Y-122336029D01*
X23436043Y-122362862D01*
X23439907Y-122389271D01*
X23444286Y-122415259D01*
X23449181Y-122440825D01*
X23454590Y-122465968D01*
X23460515Y-122490690D01*
X23466955Y-122514989D01*
X23473910Y-122538865D01*
X23481381Y-122562320D01*
X23497867Y-122607963D01*
X23516414Y-122651917D01*
X23537022Y-122694183D01*
X23559691Y-122734759D01*
X23584421Y-122773647D01*
X23611211Y-122810847D01*
X23640062Y-122846357D01*
X23670974Y-122880179D01*
X23687203Y-122896457D01*
X23721053Y-122927512D01*
X23756659Y-122956564D01*
X23794021Y-122983612D01*
X23833138Y-123008656D01*
X23874011Y-123031697D01*
X23916639Y-123052734D01*
X23961022Y-123071768D01*
X23983872Y-123080534D01*
X24007161Y-123088798D01*
X24030889Y-123096562D01*
X24055056Y-123103825D01*
X24079661Y-123110587D01*
X24104706Y-123116848D01*
X24130189Y-123122608D01*
X24156111Y-123127868D01*
X24182472Y-123132626D01*
X24209272Y-123136884D01*
X24236511Y-123140640D01*
X24264188Y-123143896D01*
X24292305Y-123146651D01*
X24320860Y-123148905D01*
X24349855Y-123150658D01*
X24379288Y-123151910D01*
X24409160Y-123152662D01*
X24439471Y-123152912D01*
X24469782Y-123152662D01*
X24499654Y-123151910D01*
X24529087Y-123150658D01*
X24558081Y-123148905D01*
X24586637Y-123146651D01*
X24614753Y-123143896D01*
X24642431Y-123140640D01*
X24669670Y-123136884D01*
X24696470Y-123132626D01*
X24722831Y-123127868D01*
X24748753Y-123122608D01*
X24774236Y-123116848D01*
X24799281Y-123110587D01*
X24823886Y-123103825D01*
X24848053Y-123096562D01*
X24871781Y-123088798D01*
X24895070Y-123080534D01*
X24917920Y-123071768D01*
X24962303Y-123052734D01*
X25004931Y-123031697D01*
X25045804Y-123008656D01*
X25084921Y-122983612D01*
X25122282Y-122956564D01*
X25157888Y-122927512D01*
X25191739Y-122896457D01*
X25223681Y-122863479D01*
X25253563Y-122828813D01*
X25281384Y-122792458D01*
X25307144Y-122754415D01*
X25330843Y-122714682D01*
X25352481Y-122673261D01*
X25372059Y-122630151D01*
X25389576Y-122585353D01*
X25405032Y-122538865D01*
X25411987Y-122514989D01*
X25418427Y-122490690D01*
X25424352Y-122465968D01*
X25429761Y-122440825D01*
X25434656Y-122415259D01*
X25439035Y-122389271D01*
X25442899Y-122362862D01*
X25446248Y-122336029D01*
X25449081Y-122308775D01*
X25451400Y-122281099D01*
X25453203Y-122253000D01*
X25454491Y-122224479D01*
X25455264Y-122195536D01*
X25455521Y-122166171D01*
X25455056Y-122128919D01*
X25453661Y-122092421D01*
X25451335Y-122056677D01*
X25448079Y-122021686D01*
X25443893Y-121987449D01*
X25438777Y-121953966D01*
X25432731Y-121921236D01*
X25425754Y-121889261D01*
X25417847Y-121858039D01*
X25409010Y-121827570D01*
X25399243Y-121797856D01*
X25388545Y-121768895D01*
X25376917Y-121740687D01*
X25364359Y-121713234D01*
X25350871Y-121686534D01*
X25336453Y-121660588D01*
X25321328Y-121635403D01*
X25305722Y-121610986D01*
X25289634Y-121587337D01*
X25273064Y-121564456D01*
X25256012Y-121542343D01*
X25238479Y-121520998D01*
X25220464Y-121500421D01*
X25201967Y-121480612D01*
X25182988Y-121461571D01*
X25163527Y-121443298D01*
X25143584Y-121425793D01*
X25123160Y-121409056D01*
X25102254Y-121393087D01*
X25080866Y-121377887D01*
X25058996Y-121363454D01*
X25036645Y-121349789D01*
X25013895Y-121336799D01*
X24990830Y-121324392D01*
X24967450Y-121312566D01*
X24943756Y-121301322D01*
X24919747Y-121290660D01*
X24895423Y-121280581D01*
X24870784Y-121271083D01*
X24845830Y-121262167D01*
X24820561Y-121253833D01*
X24794978Y-121246081D01*
X24769079Y-121238912D01*
X24742866Y-121232324D01*
X24716338Y-121226318D01*
X24689495Y-121220894D01*
X24662338Y-121216052D01*
X24634865Y-121211792D01*
X24634865Y-121880407D01*
X24659766Y-121892075D01*
X24682874Y-121904488D01*
X24704188Y-121917644D01*
X24728308Y-121935137D01*
X24749626Y-121953792D01*
X24768141Y-121973610D01*
X24783853Y-121994590D01*
X24797222Y-122017405D01*
X24808325Y-122042723D01*
X24817162Y-122070546D01*
X24822601Y-122094608D01*
X24826589Y-122120273D01*
X24829126Y-122147540D01*
X24830214Y-122176411D01*
X24830259Y-122183879D01*
X24828695Y-122215248D01*
X24824001Y-122245245D01*
X24816177Y-122273867D01*
X24805225Y-122301115D01*
X24791142Y-122326990D01*
X24773931Y-122351490D01*
X24753590Y-122374617D01*
X24730120Y-122396370D01*
X24710653Y-122411429D01*
X24689577Y-122425006D01*
X24666890Y-122437103D01*
X24642593Y-122447718D01*
X24616686Y-122456852D01*
X24589170Y-122464505D01*
X24560043Y-122470677D01*
X24529306Y-122475367D01*
X24496960Y-122478576D01*
X24463003Y-122480304D01*
X24439471Y-122480634D01*
X24404436Y-122479893D01*
X24370999Y-122477671D01*
X24339163Y-122473968D01*
X24308925Y-122468784D01*
X24280287Y-122462119D01*
X24253248Y-122453972D01*
X24227808Y-122444344D01*
X24203967Y-122433235D01*
X24181726Y-122420645D01*
X24161084Y-122406574D01*
X24148211Y-122396370D01*
X24124884Y-122374617D01*
X24104667Y-122351490D01*
X24087561Y-122326990D01*
X24073565Y-122301115D01*
X24062679Y-122273867D01*
X24054903Y-122245245D01*
X24050237Y-122215248D01*
X24048682Y-122183879D01*
X24049398Y-122154608D01*
X24051545Y-122126939D01*
X24055122Y-122100874D01*
X24060131Y-122076412D01*
X24068405Y-122048088D01*
X24078915Y-122022268D01*
X24091660Y-121998953D01*
X24094478Y-121994590D01*
X24110366Y-121973610D01*
X24129027Y-121953792D01*
X24150461Y-121935137D01*
X24174668Y-121917644D01*
X24196029Y-121904488D01*
X24219166Y-121892075D01*
X24244077Y-121880407D01*
X24244077Y-121211792D01*
X24216604Y-121216052D01*
X24189446Y-121220894D01*
X24162603Y-121226318D01*
X24136075Y-121232324D01*
X24109862Y-121238912D01*
X24083964Y-121246081D01*
X24058380Y-121253833D01*
X24033112Y-121262167D01*
X24008158Y-121271083D01*
X23983519Y-121280581D01*
X23959195Y-121290660D01*
X23935186Y-121301322D01*
X23911491Y-121312566D01*
X23888112Y-121324392D01*
X23865047Y-121336799D01*
X23842297Y-121349789D01*
X23819946Y-121363454D01*
X23798076Y-121377887D01*
X23776688Y-121393087D01*
X23755782Y-121409056D01*
X23735357Y-121425793D01*
X23715415Y-121443298D01*
X23695954Y-121461571D01*
X23676975Y-121480612D01*
X23658478Y-121500421D01*
X23640463Y-121520998D01*
X23622929Y-121542343D01*
X23605878Y-121564456D01*
X23589308Y-121587337D01*
X23573220Y-121610986D01*
X23557613Y-121635403D01*
X23542489Y-121660588D01*
X23528071Y-121686534D01*
X23514582Y-121713234D01*
X23502024Y-121740687D01*
X23490397Y-121768895D01*
X23479699Y-121797856D01*
X23469932Y-121827570D01*
X23461095Y-121858039D01*
X23453188Y-121889261D01*
X23446211Y-121921236D01*
X23440165Y-121953966D01*
X23435048Y-121987449D01*
X23430862Y-122021686D01*
X23427607Y-122056677D01*
X23425281Y-122092421D01*
X23423886Y-122128919D01*
X23423421Y-122166171D01*
G37*
G36*
X23423421Y-120736129D02*
G01*
X23424295Y-120761741D01*
X23426920Y-120786826D01*
X23431294Y-120811386D01*
X23437417Y-120835419D01*
X23445290Y-120858927D01*
X23454912Y-120881909D01*
X23466284Y-120904365D01*
X23479406Y-120926295D01*
X23494277Y-120947699D01*
X23510897Y-120968577D01*
X23522950Y-120982204D01*
X23542182Y-121001409D01*
X23562327Y-121018726D01*
X23583384Y-121034153D01*
X23605353Y-121047691D01*
X23628235Y-121059341D01*
X23652029Y-121069101D01*
X23676735Y-121076972D01*
X23702354Y-121082954D01*
X23728885Y-121087047D01*
X23756328Y-121089251D01*
X23775130Y-121089671D01*
X23803177Y-121088726D01*
X23830300Y-121085892D01*
X23856500Y-121081170D01*
X23881777Y-121074558D01*
X23906131Y-121066057D01*
X23929561Y-121055667D01*
X23952069Y-121043388D01*
X23973654Y-121029220D01*
X23994316Y-121013163D01*
X24014054Y-120995217D01*
X24026700Y-120982204D01*
X24044597Y-120961676D01*
X24060732Y-120940623D01*
X24075108Y-120919043D01*
X24087723Y-120896938D01*
X24098578Y-120874307D01*
X24107673Y-120851150D01*
X24115007Y-120827467D01*
X24120581Y-120803258D01*
X24124395Y-120778523D01*
X24126449Y-120753262D01*
X24126840Y-120736129D01*
X24125960Y-120710523D01*
X24123320Y-120685453D01*
X24118919Y-120660921D01*
X24112758Y-120636924D01*
X24104837Y-120613465D01*
X24095155Y-120590542D01*
X24083714Y-120568156D01*
X24070512Y-120546307D01*
X24055549Y-120524994D01*
X24038827Y-120504218D01*
X24026700Y-120490665D01*
X24007577Y-120471350D01*
X23987531Y-120453936D01*
X23966562Y-120438421D01*
X23944669Y-120424805D01*
X23921854Y-120413090D01*
X23898115Y-120403274D01*
X23873454Y-120395358D01*
X23847869Y-120389342D01*
X23821361Y-120385226D01*
X23793930Y-120383010D01*
X23775130Y-120382588D01*
X23747079Y-120383537D01*
X23719940Y-120386387D01*
X23693713Y-120391137D01*
X23668398Y-120397786D01*
X23643996Y-120406335D01*
X23620506Y-120416784D01*
X23597928Y-120429133D01*
X23576263Y-120443381D01*
X23555510Y-120459529D01*
X23535670Y-120477577D01*
X23522950Y-120490665D01*
X23505163Y-120511083D01*
X23489125Y-120532038D01*
X23474837Y-120553530D01*
X23462299Y-120575558D01*
X23451510Y-120598123D01*
X23442471Y-120621225D01*
X23435181Y-120644864D01*
X23429641Y-120669039D01*
X23425851Y-120693750D01*
X23423809Y-120718999D01*
X23423421Y-120736129D01*
G37*
G36*
X225591026Y-120443263D02*
G01*
X225621076Y-120443932D01*
X225650679Y-120445047D01*
X225679835Y-120446608D01*
X225708544Y-120448615D01*
X225736805Y-120451068D01*
X225764619Y-120453967D01*
X225791986Y-120457312D01*
X225818906Y-120461104D01*
X225845379Y-120465341D01*
X225871404Y-120470024D01*
X225896982Y-120475154D01*
X225922113Y-120480729D01*
X225946797Y-120486750D01*
X225971033Y-120493218D01*
X225994822Y-120500131D01*
X226041059Y-120515296D01*
X226085507Y-120532245D01*
X226128166Y-120550979D01*
X226169036Y-120571496D01*
X226208118Y-120593797D01*
X226245410Y-120617883D01*
X226280913Y-120643753D01*
X226314628Y-120671407D01*
X226346348Y-120700580D01*
X226376023Y-120731008D01*
X226403650Y-120762690D01*
X226429231Y-120795627D01*
X226452766Y-120829819D01*
X226474254Y-120865265D01*
X226493696Y-120901966D01*
X226511091Y-120939921D01*
X226526439Y-120979131D01*
X226539742Y-121019596D01*
X226550997Y-121061315D01*
X226560206Y-121104289D01*
X226567369Y-121148517D01*
X226572485Y-121194000D01*
X226575555Y-121240738D01*
X226576578Y-121288730D01*
X226575739Y-121327690D01*
X226573220Y-121365495D01*
X226569022Y-121402146D01*
X226563145Y-121437642D01*
X226555589Y-121471984D01*
X226546353Y-121505172D01*
X226535439Y-121537205D01*
X226522845Y-121568083D01*
X226508572Y-121597807D01*
X226492620Y-121626377D01*
X226474989Y-121653792D01*
X226455678Y-121680053D01*
X226434689Y-121705160D01*
X226412020Y-121729112D01*
X226387672Y-121751909D01*
X226367587Y-121768610D01*
X226537500Y-121819348D01*
X226537500Y-122416522D01*
X224036453Y-122416522D01*
X224036453Y-121744243D01*
X224728584Y-121746045D01*
X224727550Y-121745107D01*
X224707286Y-121724842D01*
X224687975Y-121702937D01*
X224669619Y-121679390D01*
X224652217Y-121654203D01*
X224635768Y-121627374D01*
X224620274Y-121598904D01*
X224609280Y-121576475D01*
X224598822Y-121553123D01*
X224592241Y-121537278D01*
X224583166Y-121513341D01*
X224575046Y-121489200D01*
X224567882Y-121464855D01*
X224561673Y-121440306D01*
X224559439Y-121429781D01*
X225169740Y-121429781D01*
X225170620Y-121455854D01*
X225173260Y-121480950D01*
X225177661Y-121505070D01*
X225186266Y-121535710D01*
X225198002Y-121564613D01*
X225212866Y-121591781D01*
X225230860Y-121617211D01*
X225251983Y-121640906D01*
X225269879Y-121657537D01*
X225282678Y-121668037D01*
X225303218Y-121682516D01*
X225325368Y-121695471D01*
X225349128Y-121706902D01*
X225374498Y-121716809D01*
X225401478Y-121725192D01*
X225430068Y-121732050D01*
X225460268Y-121737385D01*
X225492078Y-121741195D01*
X225525498Y-121743481D01*
X225560528Y-121744243D01*
X225584063Y-121743905D01*
X225618032Y-121742126D01*
X225650402Y-121738824D01*
X225681173Y-121733998D01*
X225710344Y-121727647D01*
X225737916Y-121719773D01*
X225763889Y-121710374D01*
X225788263Y-121699451D01*
X225811037Y-121687004D01*
X225832212Y-121673032D01*
X225851788Y-121657537D01*
X225869575Y-121640906D01*
X225890569Y-121617211D01*
X225908453Y-121591781D01*
X225923227Y-121564613D01*
X225934891Y-121535710D01*
X225943444Y-121505070D01*
X225947818Y-121480950D01*
X225950442Y-121455854D01*
X225951317Y-121429781D01*
X225950928Y-121412216D01*
X225948887Y-121386692D01*
X225945096Y-121362156D01*
X225937320Y-121330977D01*
X225926434Y-121301553D01*
X225912438Y-121273885D01*
X225895332Y-121247972D01*
X225875115Y-121223815D01*
X225851788Y-121201414D01*
X225838915Y-121190988D01*
X225818273Y-121176611D01*
X225796032Y-121163747D01*
X225772191Y-121152396D01*
X225746751Y-121142559D01*
X225719712Y-121134235D01*
X225691074Y-121127425D01*
X225660836Y-121122128D01*
X225629000Y-121118345D01*
X225595563Y-121116075D01*
X225560528Y-121115318D01*
X225536996Y-121115654D01*
X225503039Y-121117420D01*
X225470693Y-121120699D01*
X225439956Y-121125491D01*
X225410829Y-121131797D01*
X225383313Y-121139616D01*
X225357406Y-121148949D01*
X225333109Y-121159795D01*
X225310422Y-121172155D01*
X225289346Y-121186027D01*
X225269879Y-121201414D01*
X225251983Y-121218050D01*
X225230860Y-121241769D01*
X225212866Y-121267242D01*
X225198002Y-121294472D01*
X225186266Y-121323456D01*
X225177661Y-121354197D01*
X225173260Y-121378404D01*
X225170620Y-121403598D01*
X225169740Y-121429781D01*
X224559439Y-121429781D01*
X224556419Y-121415554D01*
X224552120Y-121390597D01*
X224548777Y-121365436D01*
X224546388Y-121340071D01*
X224544956Y-121314503D01*
X224544478Y-121288730D01*
X224545503Y-121240738D01*
X224548580Y-121194000D01*
X224553709Y-121148517D01*
X224560888Y-121104289D01*
X224570119Y-121061315D01*
X224581401Y-121019596D01*
X224594734Y-120979131D01*
X224610118Y-120939921D01*
X224627554Y-120901966D01*
X224647041Y-120865265D01*
X224668579Y-120829819D01*
X224692168Y-120795627D01*
X224717809Y-120762690D01*
X224745501Y-120731008D01*
X224775244Y-120700580D01*
X224807039Y-120671407D01*
X224823635Y-120657357D01*
X224858173Y-120630595D01*
X224894504Y-120605617D01*
X224932628Y-120582424D01*
X224972547Y-120561014D01*
X225014259Y-120541389D01*
X225057765Y-120523548D01*
X225103064Y-120507491D01*
X225126386Y-120500131D01*
X225150157Y-120493218D01*
X225174376Y-120486750D01*
X225199044Y-120480729D01*
X225224160Y-120475154D01*
X225249724Y-120470024D01*
X225275737Y-120465341D01*
X225302198Y-120461104D01*
X225329108Y-120457312D01*
X225356466Y-120453967D01*
X225384273Y-120451068D01*
X225412527Y-120448615D01*
X225441231Y-120446608D01*
X225470382Y-120445047D01*
X225499983Y-120443932D01*
X225530031Y-120443263D01*
X225560528Y-120443040D01*
X225591026Y-120443263D01*
G37*
G36*
X226576578Y-123423413D02*
G01*
X226575886Y-123391703D01*
X226573809Y-123360229D01*
X226570348Y-123328992D01*
X226565502Y-123297990D01*
X226559271Y-123267225D01*
X226551656Y-123236696D01*
X226542656Y-123206403D01*
X226532271Y-123176346D01*
X226520502Y-123146525D01*
X226507348Y-123116941D01*
X226497810Y-123097349D01*
X226482177Y-123068616D01*
X226464816Y-123040805D01*
X226445727Y-123013919D01*
X226424909Y-122987955D01*
X226402364Y-122962914D01*
X226378090Y-122938796D01*
X226352089Y-122915601D01*
X226324359Y-122893330D01*
X226294902Y-122871981D01*
X226274303Y-122858261D01*
X226252937Y-122844952D01*
X226241966Y-122838451D01*
X226219461Y-122826029D01*
X226196218Y-122814409D01*
X226172235Y-122803589D01*
X226147512Y-122793572D01*
X226122051Y-122784355D01*
X226095849Y-122775940D01*
X226068909Y-122768327D01*
X226041229Y-122761515D01*
X226012809Y-122755504D01*
X225983650Y-122750295D01*
X225953752Y-122745887D01*
X225923114Y-122742281D01*
X225891737Y-122739476D01*
X225859621Y-122737472D01*
X225826765Y-122736270D01*
X225793169Y-122735869D01*
X224583557Y-122735869D01*
X224583557Y-123408148D01*
X225672880Y-123408148D01*
X225697733Y-123408749D01*
X225729117Y-123411420D01*
X225758498Y-123416229D01*
X225785875Y-123423174D01*
X225811249Y-123432257D01*
X225834619Y-123443477D01*
X225855985Y-123456834D01*
X225875348Y-123472328D01*
X225879876Y-123476536D01*
X225896620Y-123494405D01*
X225914410Y-123518916D01*
X225928712Y-123545842D01*
X225937642Y-123569121D01*
X225944340Y-123593946D01*
X225948805Y-123620317D01*
X225951038Y-123648233D01*
X225951317Y-123662771D01*
X225950200Y-123691431D01*
X225946852Y-123718489D01*
X225941270Y-123743943D01*
X225933456Y-123767795D01*
X225920550Y-123795356D01*
X225904154Y-123820412D01*
X225884271Y-123842964D01*
X225879876Y-123847174D01*
X225861014Y-123862916D01*
X225840148Y-123876560D01*
X225817279Y-123888104D01*
X225792406Y-123897549D01*
X225765530Y-123904896D01*
X225736650Y-123910143D01*
X225705767Y-123913292D01*
X225681289Y-123914275D01*
X225672880Y-123914341D01*
X224583557Y-123914341D01*
X224583557Y-124586009D01*
X226537500Y-124586009D01*
X226537500Y-123989446D01*
X226361645Y-123936323D01*
X226361645Y-123942429D01*
X226387672Y-123916860D01*
X226412020Y-123890375D01*
X226434689Y-123862974D01*
X226455678Y-123834657D01*
X226474989Y-123805424D01*
X226492620Y-123775275D01*
X226508572Y-123744211D01*
X226522845Y-123712230D01*
X226535439Y-123679334D01*
X226546353Y-123645521D01*
X226555589Y-123610793D01*
X226563145Y-123575149D01*
X226569022Y-123538589D01*
X226573220Y-123501113D01*
X226575739Y-123462721D01*
X226576578Y-123423413D01*
G37*
G36*
X226576578Y-125804170D02*
G01*
X226576321Y-125774805D01*
X226575548Y-125745862D01*
X226574260Y-125717341D01*
X226572457Y-125689242D01*
X226570138Y-125661566D01*
X226567305Y-125634312D01*
X226563956Y-125607479D01*
X226560092Y-125581069D01*
X226555713Y-125555082D01*
X226550818Y-125529516D01*
X226545409Y-125504373D01*
X226539484Y-125479651D01*
X226533044Y-125455352D01*
X226526089Y-125431475D01*
X226518618Y-125408021D01*
X226502132Y-125362378D01*
X226483585Y-125318424D01*
X226462977Y-125276158D01*
X226440308Y-125235582D01*
X226415578Y-125196693D01*
X226388788Y-125159494D01*
X226359937Y-125123984D01*
X226329025Y-125090162D01*
X226312796Y-125073884D01*
X226278946Y-125042829D01*
X226243340Y-125013777D01*
X226205978Y-124986729D01*
X226166861Y-124961685D01*
X226125988Y-124938644D01*
X226083360Y-124917607D01*
X226038977Y-124898573D01*
X226016127Y-124889807D01*
X225992838Y-124881543D01*
X225969110Y-124873779D01*
X225944943Y-124866516D01*
X225920338Y-124859754D01*
X225895293Y-124853493D01*
X225869810Y-124847733D01*
X225843888Y-124842473D01*
X225817527Y-124837715D01*
X225790727Y-124833457D01*
X225763488Y-124829701D01*
X225735811Y-124826445D01*
X225707694Y-124823690D01*
X225679139Y-124821436D01*
X225650144Y-124819683D01*
X225620711Y-124818431D01*
X225590839Y-124817679D01*
X225560528Y-124817429D01*
X225530217Y-124817679D01*
X225500345Y-124818431D01*
X225470912Y-124819683D01*
X225441918Y-124821436D01*
X225413362Y-124823690D01*
X225385246Y-124826445D01*
X225357568Y-124829701D01*
X225330329Y-124833457D01*
X225303529Y-124837715D01*
X225277168Y-124842473D01*
X225251246Y-124847733D01*
X225225763Y-124853493D01*
X225200718Y-124859754D01*
X225176113Y-124866516D01*
X225151946Y-124873779D01*
X225128218Y-124881543D01*
X225104929Y-124889807D01*
X225082079Y-124898573D01*
X225037696Y-124917607D01*
X224995068Y-124938644D01*
X224954195Y-124961685D01*
X224915078Y-124986729D01*
X224877717Y-125013777D01*
X224842111Y-125042829D01*
X224808260Y-125073884D01*
X224776318Y-125106861D01*
X224746436Y-125141528D01*
X224718615Y-125177883D01*
X224692855Y-125215926D01*
X224669156Y-125255659D01*
X224647518Y-125297080D01*
X224627940Y-125340190D01*
X224610423Y-125384988D01*
X224594967Y-125431475D01*
X224588012Y-125455352D01*
X224581572Y-125479651D01*
X224575647Y-125504373D01*
X224570238Y-125529516D01*
X224565343Y-125555082D01*
X224560964Y-125581069D01*
X224557100Y-125607479D01*
X224553751Y-125634312D01*
X224550918Y-125661566D01*
X224548599Y-125689242D01*
X224546796Y-125717341D01*
X224545508Y-125745862D01*
X224544735Y-125774805D01*
X224544478Y-125804170D01*
X224544943Y-125841422D01*
X224546338Y-125877920D01*
X224548664Y-125913664D01*
X224551920Y-125948655D01*
X224556106Y-125982892D01*
X224561222Y-126016375D01*
X224567268Y-126049105D01*
X224574245Y-126081080D01*
X224582152Y-126112302D01*
X224590989Y-126142771D01*
X224600756Y-126172485D01*
X224611454Y-126201446D01*
X224623082Y-126229653D01*
X224635640Y-126257107D01*
X224649128Y-126283807D01*
X224663546Y-126309753D01*
X224678671Y-126334938D01*
X224694277Y-126359355D01*
X224710365Y-126383004D01*
X224726935Y-126405885D01*
X224743987Y-126427998D01*
X224761520Y-126449343D01*
X224779535Y-126469920D01*
X224798032Y-126489729D01*
X224817011Y-126508770D01*
X224836472Y-126527043D01*
X224856415Y-126544548D01*
X224876839Y-126561285D01*
X224897745Y-126577253D01*
X224919133Y-126592454D01*
X224941003Y-126606887D01*
X224963354Y-126620552D01*
X224986104Y-126633541D01*
X225009169Y-126645949D01*
X225032549Y-126657775D01*
X225056243Y-126669019D01*
X225080252Y-126679680D01*
X225104576Y-126689760D01*
X225129215Y-126699258D01*
X225154169Y-126708174D01*
X225179438Y-126716508D01*
X225205021Y-126724260D01*
X225230920Y-126731429D01*
X225257133Y-126738017D01*
X225283661Y-126744023D01*
X225310504Y-126749447D01*
X225337661Y-126754289D01*
X225365134Y-126758549D01*
X225365134Y-126089934D01*
X225340233Y-126078266D01*
X225317125Y-126065853D01*
X225295811Y-126052697D01*
X225271691Y-126035204D01*
X225250373Y-126016549D01*
X225231858Y-125996731D01*
X225216146Y-125975751D01*
X225202777Y-125952936D01*
X225191674Y-125927618D01*
X225182837Y-125899794D01*
X225177398Y-125875733D01*
X225173410Y-125850068D01*
X225170873Y-125822801D01*
X225169785Y-125793930D01*
X225169740Y-125786462D01*
X225171304Y-125755092D01*
X225175998Y-125725096D01*
X225183822Y-125696474D01*
X225194774Y-125669226D01*
X225208857Y-125643351D01*
X225226068Y-125618851D01*
X225246409Y-125595724D01*
X225269879Y-125573971D01*
X225289346Y-125558912D01*
X225310422Y-125545335D01*
X225333109Y-125533238D01*
X225357406Y-125522623D01*
X225383313Y-125513489D01*
X225410829Y-125505836D01*
X225439956Y-125499664D01*
X225470693Y-125494974D01*
X225503039Y-125491765D01*
X225536996Y-125490037D01*
X225560528Y-125489707D01*
X225595563Y-125490448D01*
X225629000Y-125492670D01*
X225660836Y-125496373D01*
X225691074Y-125501557D01*
X225719712Y-125508222D01*
X225746751Y-125516369D01*
X225772191Y-125525997D01*
X225796032Y-125537106D01*
X225818273Y-125549696D01*
X225838915Y-125563767D01*
X225851788Y-125573971D01*
X225875115Y-125595724D01*
X225895332Y-125618851D01*
X225912438Y-125643351D01*
X225926434Y-125669226D01*
X225937320Y-125696474D01*
X225945096Y-125725096D01*
X225949762Y-125755092D01*
X225951317Y-125786462D01*
X225950601Y-125815733D01*
X225948454Y-125843402D01*
X225944877Y-125869467D01*
X225939868Y-125893929D01*
X225931594Y-125922253D01*
X225921084Y-125948073D01*
X225908339Y-125971388D01*
X225905521Y-125975751D01*
X225889633Y-125996731D01*
X225870972Y-126016549D01*
X225849538Y-126035204D01*
X225825331Y-126052697D01*
X225803970Y-126065853D01*
X225780833Y-126078266D01*
X225755922Y-126089934D01*
X225755922Y-126758549D01*
X225783395Y-126754289D01*
X225810553Y-126749447D01*
X225837396Y-126744023D01*
X225863924Y-126738017D01*
X225890137Y-126731429D01*
X225916035Y-126724260D01*
X225941619Y-126716508D01*
X225966887Y-126708174D01*
X225991841Y-126699258D01*
X226016480Y-126689760D01*
X226040804Y-126679680D01*
X226064813Y-126669019D01*
X226088508Y-126657775D01*
X226111887Y-126645949D01*
X226134952Y-126633541D01*
X226157702Y-126620552D01*
X226180053Y-126606887D01*
X226201923Y-126592454D01*
X226223311Y-126577253D01*
X226244217Y-126561285D01*
X226264642Y-126544548D01*
X226284584Y-126527043D01*
X226304045Y-126508770D01*
X226323024Y-126489729D01*
X226341521Y-126469920D01*
X226359536Y-126449343D01*
X226377070Y-126427998D01*
X226394121Y-126405885D01*
X226410691Y-126383004D01*
X226426779Y-126359355D01*
X226442386Y-126334938D01*
X226457510Y-126309753D01*
X226471928Y-126283807D01*
X226485417Y-126257107D01*
X226497975Y-126229653D01*
X226509602Y-126201446D01*
X226520300Y-126172485D01*
X226530067Y-126142771D01*
X226538904Y-126112302D01*
X226546811Y-126081080D01*
X226553788Y-126049105D01*
X226559834Y-126016375D01*
X226564951Y-125982892D01*
X226569137Y-125948655D01*
X226572392Y-125913664D01*
X226574718Y-125877920D01*
X226576113Y-125841422D01*
X226576578Y-125804170D01*
G37*
G36*
X226576578Y-127833828D02*
G01*
X226576321Y-127804463D01*
X226575548Y-127775520D01*
X226574260Y-127746999D01*
X226572457Y-127718900D01*
X226570138Y-127691224D01*
X226567305Y-127663970D01*
X226563956Y-127637137D01*
X226560092Y-127610728D01*
X226555713Y-127584740D01*
X226550818Y-127559174D01*
X226545409Y-127534031D01*
X226539484Y-127509309D01*
X226533044Y-127485010D01*
X226526089Y-127461134D01*
X226518618Y-127437679D01*
X226502132Y-127392036D01*
X226483585Y-127348082D01*
X226462977Y-127305816D01*
X226440308Y-127265240D01*
X226415578Y-127226352D01*
X226388788Y-127189152D01*
X226359937Y-127153642D01*
X226329025Y-127119820D01*
X226312796Y-127103542D01*
X226278946Y-127072487D01*
X226243340Y-127043435D01*
X226205978Y-127016387D01*
X226166861Y-126991343D01*
X226125988Y-126968302D01*
X226083360Y-126947265D01*
X226038977Y-126928231D01*
X226016127Y-126919465D01*
X225992838Y-126911201D01*
X225969110Y-126903437D01*
X225944943Y-126896174D01*
X225920338Y-126889412D01*
X225895293Y-126883151D01*
X225869810Y-126877391D01*
X225843888Y-126872131D01*
X225817527Y-126867373D01*
X225790727Y-126863115D01*
X225763488Y-126859359D01*
X225735811Y-126856103D01*
X225707694Y-126853348D01*
X225679139Y-126851094D01*
X225650144Y-126849341D01*
X225620711Y-126848089D01*
X225590839Y-126847337D01*
X225560528Y-126847087D01*
X225530217Y-126847337D01*
X225500345Y-126848089D01*
X225470912Y-126849341D01*
X225441918Y-126851094D01*
X225413362Y-126853348D01*
X225385246Y-126856103D01*
X225357568Y-126859359D01*
X225330329Y-126863115D01*
X225303529Y-126867373D01*
X225277168Y-126872131D01*
X225251246Y-126877391D01*
X225225763Y-126883151D01*
X225200718Y-126889412D01*
X225176113Y-126896174D01*
X225151946Y-126903437D01*
X225128218Y-126911201D01*
X225104929Y-126919465D01*
X225082079Y-126928231D01*
X225037696Y-126947265D01*
X224995068Y-126968302D01*
X224954195Y-126991343D01*
X224915078Y-127016387D01*
X224877717Y-127043435D01*
X224842111Y-127072487D01*
X224808260Y-127103542D01*
X224776318Y-127136520D01*
X224746436Y-127171186D01*
X224718615Y-127207541D01*
X224692855Y-127245584D01*
X224669156Y-127285317D01*
X224647518Y-127326738D01*
X224627940Y-127369848D01*
X224610423Y-127414646D01*
X224594967Y-127461134D01*
X224588012Y-127485010D01*
X224581572Y-127509309D01*
X224575647Y-127534031D01*
X224570238Y-127559174D01*
X224565343Y-127584740D01*
X224560964Y-127610728D01*
X224557100Y-127637137D01*
X224553751Y-127663970D01*
X224550918Y-127691224D01*
X224548599Y-127718900D01*
X224546796Y-127746999D01*
X224545508Y-127775520D01*
X224544735Y-127804463D01*
X224544478Y-127833828D01*
X224544943Y-127871080D01*
X224546338Y-127907578D01*
X224548664Y-127943322D01*
X224551920Y-127978313D01*
X224556106Y-128012550D01*
X224561222Y-128046033D01*
X224567268Y-128078763D01*
X224574245Y-128110738D01*
X224582152Y-128141960D01*
X224590989Y-128172429D01*
X224600756Y-128202143D01*
X224611454Y-128231104D01*
X224623082Y-128259312D01*
X224635640Y-128286765D01*
X224649128Y-128313465D01*
X224663546Y-128339411D01*
X224678671Y-128364596D01*
X224694277Y-128389013D01*
X224710365Y-128412662D01*
X224726935Y-128435543D01*
X224743987Y-128457656D01*
X224761520Y-128479001D01*
X224779535Y-128499578D01*
X224798032Y-128519387D01*
X224817011Y-128538428D01*
X224836472Y-128556701D01*
X224856415Y-128574206D01*
X224876839Y-128590943D01*
X224897745Y-128606912D01*
X224919133Y-128622112D01*
X224941003Y-128636545D01*
X224963354Y-128650210D01*
X224986104Y-128663200D01*
X225009169Y-128675607D01*
X225032549Y-128687433D01*
X225056243Y-128698677D01*
X225080252Y-128709339D01*
X225104576Y-128719418D01*
X225129215Y-128728916D01*
X225154169Y-128737832D01*
X225179438Y-128746166D01*
X225205021Y-128753918D01*
X225230920Y-128761087D01*
X225257133Y-128767675D01*
X225283661Y-128773681D01*
X225310504Y-128779105D01*
X225337661Y-128783947D01*
X225365134Y-128788207D01*
X225365134Y-128119592D01*
X225340233Y-128107924D01*
X225317125Y-128095511D01*
X225295811Y-128082355D01*
X225271691Y-128064862D01*
X225250373Y-128046207D01*
X225231858Y-128026389D01*
X225216146Y-128005409D01*
X225202777Y-127982594D01*
X225191674Y-127957276D01*
X225182837Y-127929453D01*
X225177398Y-127905391D01*
X225173410Y-127879726D01*
X225170873Y-127852459D01*
X225169785Y-127823588D01*
X225169740Y-127816120D01*
X225171304Y-127784751D01*
X225175998Y-127754754D01*
X225183822Y-127726132D01*
X225194774Y-127698884D01*
X225208857Y-127673009D01*
X225226068Y-127648509D01*
X225246409Y-127625382D01*
X225269879Y-127603629D01*
X225289346Y-127588570D01*
X225310422Y-127574993D01*
X225333109Y-127562896D01*
X225357406Y-127552281D01*
X225383313Y-127543147D01*
X225410829Y-127535494D01*
X225439956Y-127529322D01*
X225470693Y-127524632D01*
X225503039Y-127521423D01*
X225536996Y-127519695D01*
X225560528Y-127519365D01*
X225595563Y-127520106D01*
X225629000Y-127522328D01*
X225660836Y-127526031D01*
X225691074Y-127531215D01*
X225719712Y-127537880D01*
X225746751Y-127546027D01*
X225772191Y-127555655D01*
X225796032Y-127566764D01*
X225818273Y-127579354D01*
X225838915Y-127593425D01*
X225851788Y-127603629D01*
X225875115Y-127625382D01*
X225895332Y-127648509D01*
X225912438Y-127673009D01*
X225926434Y-127698884D01*
X225937320Y-127726132D01*
X225945096Y-127754754D01*
X225949762Y-127784751D01*
X225951317Y-127816120D01*
X225950601Y-127845391D01*
X225948454Y-127873060D01*
X225944877Y-127899125D01*
X225939868Y-127923587D01*
X225931594Y-127951911D01*
X225921084Y-127977731D01*
X225908339Y-128001046D01*
X225905521Y-128005409D01*
X225889633Y-128026389D01*
X225870972Y-128046207D01*
X225849538Y-128064862D01*
X225825331Y-128082355D01*
X225803970Y-128095511D01*
X225780833Y-128107924D01*
X225755922Y-128119592D01*
X225755922Y-128788207D01*
X225783395Y-128783947D01*
X225810553Y-128779105D01*
X225837396Y-128773681D01*
X225863924Y-128767675D01*
X225890137Y-128761087D01*
X225916035Y-128753918D01*
X225941619Y-128746166D01*
X225966887Y-128737832D01*
X225991841Y-128728916D01*
X226016480Y-128719418D01*
X226040804Y-128709339D01*
X226064813Y-128698677D01*
X226088508Y-128687433D01*
X226111887Y-128675607D01*
X226134952Y-128663200D01*
X226157702Y-128650210D01*
X226180053Y-128636545D01*
X226201923Y-128622112D01*
X226223311Y-128606912D01*
X226244217Y-128590943D01*
X226264642Y-128574206D01*
X226284584Y-128556701D01*
X226304045Y-128538428D01*
X226323024Y-128519387D01*
X226341521Y-128499578D01*
X226359536Y-128479001D01*
X226377070Y-128457656D01*
X226394121Y-128435543D01*
X226410691Y-128412662D01*
X226426779Y-128389013D01*
X226442386Y-128364596D01*
X226457510Y-128339411D01*
X226471928Y-128313465D01*
X226485417Y-128286765D01*
X226497975Y-128259312D01*
X226509602Y-128231104D01*
X226520300Y-128202143D01*
X226530067Y-128172429D01*
X226538904Y-128141960D01*
X226546811Y-128110738D01*
X226553788Y-128078763D01*
X226559834Y-128046033D01*
X226564951Y-128012550D01*
X226569137Y-127978313D01*
X226572392Y-127943322D01*
X226574718Y-127907578D01*
X226576113Y-127871080D01*
X226576578Y-127833828D01*
G37*
G36*
X226576578Y-129263870D02*
G01*
X226575704Y-129238258D01*
X226573079Y-129213173D01*
X226568705Y-129188613D01*
X226562582Y-129164580D01*
X226554709Y-129141072D01*
X226545087Y-129118090D01*
X226533715Y-129095634D01*
X226520593Y-129073704D01*
X226505722Y-129052300D01*
X226489102Y-129031422D01*
X226477049Y-129017795D01*
X226457817Y-128998590D01*
X226437672Y-128981273D01*
X226416615Y-128965846D01*
X226394646Y-128952308D01*
X226371764Y-128940658D01*
X226347970Y-128930898D01*
X226323264Y-128923027D01*
X226297645Y-128917045D01*
X226271114Y-128912952D01*
X226243671Y-128910748D01*
X226224869Y-128910328D01*
X226196822Y-128911273D01*
X226169699Y-128914107D01*
X226143499Y-128918829D01*
X226118222Y-128925441D01*
X226093868Y-128933942D01*
X226070438Y-128944332D01*
X226047930Y-128956611D01*
X226026345Y-128970779D01*
X226005683Y-128986836D01*
X225985945Y-129004782D01*
X225973299Y-129017795D01*
X225955402Y-129038323D01*
X225939267Y-129059376D01*
X225924891Y-129080956D01*
X225912276Y-129103061D01*
X225901421Y-129125692D01*
X225892326Y-129148849D01*
X225884992Y-129172532D01*
X225879418Y-129196741D01*
X225875604Y-129221476D01*
X225873550Y-129246737D01*
X225873159Y-129263870D01*
X225874039Y-129289476D01*
X225876679Y-129314546D01*
X225881080Y-129339078D01*
X225887241Y-129363075D01*
X225895162Y-129386534D01*
X225904844Y-129409457D01*
X225916285Y-129431843D01*
X225929487Y-129453692D01*
X225944450Y-129475005D01*
X225961172Y-129495781D01*
X225973299Y-129509334D01*
X225992422Y-129528649D01*
X226012468Y-129546063D01*
X226033437Y-129561578D01*
X226055330Y-129575194D01*
X226078145Y-129586909D01*
X226101884Y-129596725D01*
X226126545Y-129604641D01*
X226152130Y-129610657D01*
X226178638Y-129614773D01*
X226206069Y-129616989D01*
X226224869Y-129617411D01*
X226252920Y-129616462D01*
X226280059Y-129613612D01*
X226306286Y-129608862D01*
X226331601Y-129602213D01*
X226356003Y-129593664D01*
X226379493Y-129583215D01*
X226402071Y-129570866D01*
X226423736Y-129556618D01*
X226444489Y-129540470D01*
X226464329Y-129522422D01*
X226477049Y-129509334D01*
X226494836Y-129488916D01*
X226510874Y-129467961D01*
X226525162Y-129446469D01*
X226537700Y-129424441D01*
X226548489Y-129401876D01*
X226557528Y-129378774D01*
X226564818Y-129355135D01*
X226570358Y-129330960D01*
X226574148Y-129306249D01*
X226576190Y-129281000D01*
X226576578Y-129263870D01*
G37*
%LPC*%
D11*
X123750000Y-172500000D03*
D12*
X126250000Y-172500000D03*
D13*
X148000000Y-201000000D03*
X102000000Y-195000000D03*
D14*
X194000000Y-128000000D03*
D15*
X122000000Y-98000000D03*
X122000000Y-128000000D03*
X187400000Y-91191300D03*
X152012016Y-167075539D03*
D16*
X122500000Y-165000000D03*
D17*
X127500000Y-165000000D03*
D18*
X80000000Y-34750000D03*
D15*
X97987984Y-167075539D03*
X62600000Y-159200000D03*
D19*
X145000000Y-166000000D03*
X134000000Y-166000000D03*
D20*
X142000000Y-161000000D03*
D21*
X137000000Y-161000000D03*
D15*
X128000000Y-128000000D03*
X67750000Y-44500000D03*
D14*
X71000000Y-128000000D03*
D15*
X62600000Y-91191300D03*
X141000000Y-86610723D03*
D18*
X170000000Y-34750000D03*
D13*
X148000000Y-195000000D03*
D15*
X80600000Y-180600000D03*
X109000000Y-66610723D03*
X80600000Y-69600000D03*
X109000000Y-86610723D03*
X35600000Y-82800000D03*
D14*
X179000000Y-122000000D03*
D15*
X169400000Y-180600000D03*
D14*
X194000000Y-122000000D03*
D15*
X214400000Y-82800000D03*
X169400000Y-69600000D03*
D14*
X56000000Y-122000000D03*
D15*
X214400000Y-167600000D03*
X35600000Y-167600000D03*
D14*
X71000000Y-122000000D03*
D15*
X67800000Y-205800000D03*
X182250000Y-44500000D03*
X141000000Y-66610723D03*
X187400000Y-159200000D03*
X128000000Y-122000000D03*
X128000000Y-152000000D03*
D14*
X179000000Y-128000000D03*
D15*
X122000000Y-122000000D03*
X128000000Y-98000000D03*
D13*
X102000000Y-201000000D03*
D15*
X122000000Y-152000000D03*
X182200000Y-205800000D03*
D14*
X56000000Y-128000000D03*
%LPD*%
M02*
