G04 #@! TF.GenerationSoftware,KiCad,Pcbnew,7.0.9*
G04 #@! TF.CreationDate,2024-02-22T22:19:44+08:00*
G04 #@! TF.ProjectId,layer2,6c617965-7232-42e6-9b69-6361645f7063,rev?*
G04 #@! TF.SameCoordinates,Original*
G04 #@! TF.FileFunction,Profile,NP*
%FSLAX46Y46*%
G04 Gerber Fmt 4.6, Leading zero omitted, Abs format (unit mm)*
G04 Created by KiCad (PCBNEW 7.0.9) date 2024-02-22 22:19:44*
%MOMM*%
%LPD*%
G01*
G04 APERTURE LIST*
G04 #@! TA.AperFunction,Profile*
%ADD10C,0.200000*%
G04 #@! TD*
G04 APERTURE END LIST*
D10*
X142600000Y-86610723D02*
G75*
G03*
X142600000Y-86610723I-1600000J0D01*
G01*
X110600000Y-66610723D02*
G75*
G03*
X110600000Y-66610723I-1600000J0D01*
G01*
X110600000Y-86610723D02*
G75*
G03*
X110600000Y-86610723I-1600000J0D01*
G01*
X142600000Y-66610723D02*
G75*
G03*
X142600000Y-66610723I-1600000J0D01*
G01*
X84999977Y-54610723D02*
G75*
G03*
X90000000Y-59610723I5000023J23D01*
G01*
X160000000Y-59610723D02*
X90000000Y-59610723D01*
X160000000Y-59610700D02*
G75*
G03*
X165000000Y-54610723I0J5000000D01*
G01*
X165000000Y-33610723D02*
X165000000Y-54610723D01*
X169277237Y-30896171D02*
G75*
G03*
X165000000Y-33610723I-1277237J-2714529D01*
G01*
X188320727Y-42498574D02*
G75*
G03*
X169277228Y-30896191I-63320727J-82501426D01*
G01*
X188422529Y-47176553D02*
G75*
G03*
X188320728Y-42498574I-1928359J2298133D01*
G01*
X170070846Y-62575448D02*
X188422531Y-47176555D01*
X170070815Y-62575411D02*
G75*
G03*
X169824332Y-65393112I1285585J-1532089D01*
G01*
X191484989Y-91207277D02*
X169824332Y-65393112D01*
X191485013Y-91207257D02*
G75*
G03*
X194302653Y-91453791I1532087J1285557D01*
G01*
X212654339Y-76054899D02*
X194302653Y-91453791D01*
X217243571Y-76967481D02*
G75*
G03*
X212654339Y-76054899I-2660871J-1385549D01*
G01*
X217243574Y-173032521D02*
G75*
G03*
X217243574Y-76967479I-92243574J48032521D01*
G01*
X212654331Y-173945110D02*
G75*
G03*
X217243574Y-173032521I1928369J2298110D01*
G01*
X194302653Y-158546209D02*
X212654339Y-173945101D01*
X194302673Y-158546186D02*
G75*
G03*
X191484989Y-158792723I-1285573J-1532114D01*
G01*
X169824332Y-184606888D02*
X191484989Y-158792723D01*
X169824329Y-184606886D02*
G75*
G03*
X170070846Y-187424552I1532091J-1285574D01*
G01*
X188422531Y-202823445D02*
X170070846Y-187424552D01*
X188320729Y-207501429D02*
G75*
G03*
X188422531Y-202823445I-1826559J2379849D01*
G01*
X61679272Y-207501427D02*
G75*
G03*
X188320728Y-207501427I63320728J82501428D01*
G01*
X61577490Y-202823470D02*
G75*
G03*
X61679272Y-207501427I1928310J-2298130D01*
G01*
X79929154Y-187424552D02*
X61577469Y-202823445D01*
X79929185Y-187424589D02*
G75*
G03*
X80175668Y-184606888I-1285585J1532089D01*
G01*
X58515011Y-158792723D02*
X80175668Y-184606888D01*
X58514987Y-158792743D02*
G75*
G03*
X55697347Y-158546209I-1532087J-1285557D01*
G01*
X37345661Y-173945101D02*
X55697347Y-158546209D01*
X32756437Y-173032515D02*
G75*
G03*
X37345661Y-173945101I2660863J1385515D01*
G01*
X32756426Y-76967479D02*
G75*
G03*
X32756426Y-173032521I92243574J-48032521D01*
G01*
X37345669Y-76054890D02*
G75*
G03*
X32756426Y-76967479I-1928369J-2298110D01*
G01*
X55697347Y-91453791D02*
X37345661Y-76054899D01*
X55697327Y-91453814D02*
G75*
G03*
X58515011Y-91207277I1285573J1532114D01*
G01*
X80175668Y-65393112D02*
X58515011Y-91207277D01*
X80175630Y-65393080D02*
G75*
G03*
X79929154Y-62575448I-1532030J1285580D01*
G01*
X61577469Y-47176555D02*
X79929154Y-62575448D01*
X61679252Y-42498547D02*
G75*
G03*
X61577469Y-47176555I1826548J-2379853D01*
G01*
X80722772Y-30896190D02*
G75*
G03*
X61679272Y-42498573I44277228J-94103810D01*
G01*
X84999979Y-33610723D02*
G75*
G03*
X80722772Y-30896190I-2999979J23D01*
G01*
X85000000Y-54610723D02*
X85000000Y-33610723D01*
X193500000Y-103500000D02*
X193500000Y-116500000D01*
X173500000Y-103500000D02*
X193500000Y-103500000D01*
X173500000Y-116500000D02*
X173500000Y-103500000D01*
X193500000Y-116500000D02*
X173500000Y-116500000D01*
X93000000Y-130000000D02*
X120000000Y-130000000D01*
X93000000Y-150000000D02*
X93000000Y-130000000D01*
X120000000Y-150000000D02*
X93000000Y-150000000D01*
X120000000Y-130000000D02*
X120000000Y-150000000D01*
X129600000Y-128000000D02*
G75*
G03*
X129600000Y-128000000I-1600000J0D01*
G01*
X129600000Y-122000000D02*
G75*
G03*
X129600000Y-122000000I-1600000J0D01*
G01*
X56500000Y-146500000D02*
X56500000Y-133500000D01*
X76500000Y-146500000D02*
X56500000Y-146500000D01*
X76500000Y-133500000D02*
X76500000Y-146500000D01*
X56500000Y-133500000D02*
X76500000Y-133500000D01*
X123600000Y-98000000D02*
G75*
G03*
X123600000Y-98000000I-1600000J0D01*
G01*
X123600000Y-122000000D02*
G75*
G03*
X123600000Y-122000000I-1600000J0D01*
G01*
X157000000Y-100000000D02*
X157000000Y-120000000D01*
X130000000Y-100000000D02*
X157000000Y-100000000D01*
X130000000Y-120000000D02*
X130000000Y-100000000D01*
X157000000Y-120000000D02*
X130000000Y-120000000D01*
X129600000Y-98000000D02*
G75*
G03*
X129600000Y-98000000I-1600000J0D01*
G01*
X170957501Y-180496065D02*
G75*
G03*
X170957501Y-180496065I-1600000J0D01*
G01*
X64244446Y-159046820D02*
G75*
G03*
X64244446Y-159046820I-1600000J0D01*
G01*
X153612016Y-167075539D02*
G75*
G03*
X153612016Y-167075539I-1600000J0D01*
G01*
X37219487Y-82636026D02*
G75*
G03*
X37219487Y-82636026I-1600000J0D01*
G01*
X37219487Y-167363974D02*
G75*
G03*
X37219487Y-167363974I-1600000J0D01*
G01*
X38404256Y-162613576D02*
X47308049Y-155142407D01*
X35268581Y-161841084D02*
G75*
G03*
X38404256Y-162613575I1850119J759584D01*
G01*
X35268549Y-88158902D02*
G75*
G03*
X35268549Y-161841098I89731451J-36841098D01*
G01*
X38404278Y-87386398D02*
G75*
G03*
X35268549Y-88158902I-1285578J-1532102D01*
G01*
X47308049Y-94857593D02*
X38404256Y-87386424D01*
X47902917Y-97070889D02*
G75*
G03*
X47308049Y-94857593I-1880417J681189D01*
G01*
X47902892Y-97070880D02*
G75*
G03*
X47902892Y-152929120I77097108J-27929120D01*
G01*
X47308031Y-155142386D02*
G75*
G03*
X47902891Y-152929120I-1285531J1532086D01*
G01*
X183841133Y-44333804D02*
G75*
G03*
X183841133Y-44333804I-1600000J0D01*
G01*
X99587984Y-167075539D02*
G75*
G03*
X99587984Y-167075539I-1600000J0D01*
G01*
X211595744Y-87386424D02*
X202691951Y-94857593D01*
X214731419Y-88158916D02*
G75*
G03*
X211595744Y-87386425I-1850119J-759584D01*
G01*
X214731451Y-161841098D02*
G75*
G03*
X214731451Y-88158902I-89731451J36841098D01*
G01*
X211595722Y-162613602D02*
G75*
G03*
X214731451Y-161841098I1285578J1532102D01*
G01*
X202691951Y-155142407D02*
X211595744Y-162613576D01*
X202097083Y-152929111D02*
G75*
G03*
X202691951Y-155142407I1880417J-681189D01*
G01*
X202097108Y-152929120D02*
G75*
G03*
X202097108Y-97070880I-77097108J27929120D01*
G01*
X202691969Y-94857614D02*
G75*
G03*
X202097109Y-97070880I1285531J-1532086D01*
G01*
X69358867Y-44333804D02*
G75*
G03*
X69358867Y-44333804I-1600000J0D01*
G01*
X105000000Y-182000000D02*
X105000000Y-188000000D01*
X107000000Y-180000000D02*
G75*
G03*
X105000000Y-182000000I0J-2000000D01*
G01*
X143000000Y-180000000D02*
X107000000Y-180000000D01*
X145000000Y-182000000D02*
G75*
G03*
X143000000Y-180000000I-2000000J0D01*
G01*
X145000000Y-188000000D02*
X145000000Y-182000000D01*
X143000000Y-190000000D02*
G75*
G03*
X145000000Y-188000000I0J2000000D01*
G01*
X107000000Y-190000000D02*
X143000000Y-190000000D01*
X105000000Y-188000000D02*
G75*
G03*
X107000000Y-190000000I2000000J0D01*
G01*
X215980513Y-82636026D02*
G75*
G03*
X215980513Y-82636026I-1600000J0D01*
G01*
X69358867Y-205666196D02*
G75*
G03*
X69358867Y-205666196I-1600000J0D01*
G01*
X82242499Y-180496065D02*
G75*
G03*
X82242499Y-180496065I-1600000J0D01*
G01*
X171100000Y-34578763D02*
G75*
G03*
X171100000Y-34578763I-1100000J0D01*
G01*
X215980513Y-167363974D02*
G75*
G03*
X215980513Y-167363974I-1600000J0D01*
G01*
X183841133Y-205666196D02*
G75*
G03*
X183841133Y-205666196I-1600000J0D01*
G01*
X81100000Y-34578763D02*
G75*
G03*
X81100000Y-34578763I-1100000J0D01*
G01*
X120000000Y-100000000D02*
X120000000Y-120000000D01*
X93000000Y-100000000D02*
X120000000Y-100000000D01*
X93000000Y-120000000D02*
X93000000Y-100000000D01*
X120000000Y-120000000D02*
X93000000Y-120000000D01*
X76500000Y-116500000D02*
X56500000Y-116500000D01*
X76500000Y-103500000D02*
X76500000Y-116500000D01*
X56500000Y-103500000D02*
X76500000Y-103500000D01*
X56500000Y-116500000D02*
X56500000Y-103500000D01*
X141518522Y-210417435D02*
G75*
G03*
X169920141Y-199506247I-16518522J85417435D01*
G01*
X172238588Y-199686830D02*
G75*
G03*
X169920141Y-199506247I-1285588J-1532070D01*
G01*
X177079335Y-203748631D02*
X172238622Y-199686790D01*
X176863082Y-206970809D02*
G75*
G03*
X177079334Y-203748632I-1069282J1690109D01*
G01*
X142087281Y-220483112D02*
G75*
G03*
X176863102Y-206970839I-17087281J95483112D01*
G01*
X139777712Y-218103360D02*
G75*
G03*
X142087281Y-220483113I1957288J-411040D01*
G01*
X139777660Y-218103349D02*
G75*
G03*
X139921854Y-212687365I-14777660J3103349D01*
G01*
X141518525Y-210417454D02*
G75*
G03*
X139921854Y-212687365I379775J-1963646D01*
G01*
X80079606Y-199506094D02*
G75*
G03*
X108481478Y-210417435I44920394J74506094D01*
G01*
X110078163Y-212687368D02*
G75*
G03*
X108481478Y-210417437I-1976463J306268D01*
G01*
X110078146Y-212687365D02*
G75*
G03*
X110222340Y-218103349I14921854J-2312635D01*
G01*
X107912710Y-220483164D02*
G75*
G03*
X110222339Y-218103349I352290J1968764D01*
G01*
X73136898Y-206970840D02*
G75*
G03*
X107912719Y-220483113I51863102J81970840D01*
G01*
X72920642Y-203748604D02*
G75*
G03*
X73136899Y-206970839I1285558J-1532096D01*
G01*
X77761378Y-199686790D02*
X72920665Y-203748631D01*
X80079633Y-199506050D02*
G75*
G03*
X77761378Y-199686790I-1032633J-1712850D01*
G01*
X133100000Y-215000000D02*
G75*
G03*
X133100000Y-215000000I-8100000J0D01*
G01*
X129600000Y-152000000D02*
G75*
G03*
X129600000Y-152000000I-1600000J0D01*
G01*
X130000000Y-150000000D02*
X130000000Y-130000000D01*
X157000000Y-150000000D02*
X130000000Y-150000000D01*
X157000000Y-130000000D02*
X157000000Y-150000000D01*
X130000000Y-130000000D02*
X157000000Y-130000000D01*
X123600000Y-152000000D02*
G75*
G03*
X123600000Y-152000000I-1600000J0D01*
G01*
X82242499Y-69503935D02*
G75*
G03*
X82242499Y-69503935I-1600000J0D01*
G01*
X193500000Y-146500000D02*
X173500000Y-146500000D01*
X193500000Y-133500000D02*
X193500000Y-146500000D01*
X173500000Y-133500000D02*
X193500000Y-133500000D01*
X173500000Y-146500000D02*
X173500000Y-133500000D01*
X64244446Y-90953180D02*
G75*
G03*
X64244446Y-90953180I-1600000J0D01*
G01*
X123600000Y-128000000D02*
G75*
G03*
X123600000Y-128000000I-1600000J0D01*
G01*
X188955554Y-159046820D02*
G75*
G03*
X188955554Y-159046820I-1600000J0D01*
G01*
X188955554Y-90953180D02*
G75*
G03*
X188955554Y-90953180I-1600000J0D01*
G01*
X170957501Y-69503935D02*
G75*
G03*
X170957501Y-69503935I-1600000J0D01*
G01*
M02*
