G04 #@! TF.GenerationSoftware,KiCad,Pcbnew,7.0.9*
G04 #@! TF.CreationDate,2024-02-22T22:19:44+08:00*
G04 #@! TF.ProjectId,layer2,6c617965-7232-42e6-9b69-6361645f7063,rev?*
G04 #@! TF.SameCoordinates,Original*
G04 #@! TF.FileFunction,Copper,L2,Bot*
G04 #@! TF.FilePolarity,Positive*
%FSLAX46Y46*%
G04 Gerber Fmt 4.6, Leading zero omitted, Abs format (unit mm)*
G04 Created by KiCad (PCBNEW 7.0.9) date 2024-02-22 22:19:44*
%MOMM*%
%LPD*%
G01*
G04 APERTURE LIST*
G04 Aperture macros list*
%AMRoundRect*
0 Rectangle with rounded corners*
0 $1 Rounding radius*
0 $2 $3 $4 $5 $6 $7 $8 $9 X,Y pos of 4 corners*
0 Add a 4 corners polygon primitive as box body*
4,1,4,$2,$3,$4,$5,$6,$7,$8,$9,$2,$3,0*
0 Add four circle primitives for the rounded corners*
1,1,$1+$1,$2,$3*
1,1,$1+$1,$4,$5*
1,1,$1+$1,$6,$7*
1,1,$1+$1,$8,$9*
0 Add four rect primitives between the rounded corners*
20,1,$1+$1,$2,$3,$4,$5,0*
20,1,$1+$1,$4,$5,$6,$7,0*
20,1,$1+$1,$6,$7,$8,$9,0*
20,1,$1+$1,$8,$9,$2,$3,0*%
G04 Aperture macros list end*
G04 #@! TA.AperFunction,ComponentPad*
%ADD10RoundRect,0.250000X-0.600000X-0.750000X0.600000X-0.750000X0.600000X0.750000X-0.600000X0.750000X0*%
G04 #@! TD*
G04 #@! TA.AperFunction,ComponentPad*
%ADD11O,1.700000X2.000000*%
G04 #@! TD*
G04 #@! TA.AperFunction,ComponentPad*
%ADD12RoundRect,0.249999X-1.950001X-1.950001X1.950001X-1.950001X1.950001X1.950001X-1.950001X1.950001X0*%
G04 #@! TD*
G04 #@! TA.AperFunction,ComponentPad*
%ADD13RoundRect,0.250002X-1.699998X-1.699998X1.699998X-1.699998X1.699998X1.699998X-1.699998X1.699998X0*%
G04 #@! TD*
G04 #@! TA.AperFunction,ComponentPad*
%ADD14C,6.400000*%
G04 #@! TD*
G04 #@! TA.AperFunction,ComponentPad*
%ADD15R,3.000000X3.000000*%
G04 #@! TD*
G04 #@! TA.AperFunction,ComponentPad*
%ADD16C,3.000000*%
G04 #@! TD*
G04 #@! TA.AperFunction,ComponentPad*
%ADD17C,4.400000*%
G04 #@! TD*
G04 #@! TA.AperFunction,ComponentPad*
%ADD18C,1.400000*%
G04 #@! TD*
G04 #@! TA.AperFunction,ComponentPad*
%ADD19R,3.500000X3.500000*%
G04 #@! TD*
G04 #@! TA.AperFunction,ComponentPad*
%ADD20C,3.500000*%
G04 #@! TD*
G04 APERTURE END LIST*
D10*
X123750000Y-172500000D03*
D11*
X126250000Y-172500000D03*
D12*
X148000000Y-201000000D03*
X102000000Y-195000000D03*
D13*
X194000000Y-128000000D03*
D14*
X122000000Y-98000000D03*
X122000000Y-128000000D03*
X187400000Y-91191300D03*
X152012016Y-167075539D03*
D15*
X122500000Y-165000000D03*
D16*
X127500000Y-165000000D03*
D17*
X80000000Y-34750000D03*
D14*
X97987984Y-167075539D03*
X62600000Y-159200000D03*
D18*
X145000000Y-166000000D03*
X134000000Y-166000000D03*
D19*
X142000000Y-161000000D03*
D20*
X137000000Y-161000000D03*
D14*
X128000000Y-128000000D03*
X67750000Y-44500000D03*
D13*
X71000000Y-128000000D03*
D14*
X62600000Y-91191300D03*
X141000000Y-86610723D03*
D17*
X170000000Y-34750000D03*
D12*
X148000000Y-195000000D03*
D14*
X80600000Y-180600000D03*
X109000000Y-66610723D03*
X80600000Y-69600000D03*
X109000000Y-86610723D03*
X35600000Y-82800000D03*
D13*
X179000000Y-122000000D03*
D14*
X169400000Y-180600000D03*
D13*
X194000000Y-122000000D03*
D14*
X214400000Y-82800000D03*
X169400000Y-69600000D03*
D13*
X56000000Y-122000000D03*
D14*
X214400000Y-167600000D03*
X35600000Y-167600000D03*
D13*
X71000000Y-122000000D03*
D14*
X67800000Y-205800000D03*
X182250000Y-44500000D03*
X141000000Y-66610723D03*
X187400000Y-159200000D03*
X128000000Y-122000000D03*
X128000000Y-152000000D03*
D13*
X179000000Y-128000000D03*
D14*
X122000000Y-122000000D03*
X128000000Y-98000000D03*
D12*
X102000000Y-201000000D03*
D14*
X122000000Y-152000000D03*
X182200000Y-205800000D03*
D13*
X56000000Y-128000000D03*
G04 #@! TA.AperFunction,Conductor*
G36*
X150943039Y-192019685D02*
G01*
X150988794Y-192072489D01*
X151000000Y-192124000D01*
X151000000Y-203876000D01*
X150980315Y-203943039D01*
X150927511Y-203988794D01*
X150876000Y-204000000D01*
X145124000Y-204000000D01*
X145056961Y-203980315D01*
X145011206Y-203927511D01*
X145000000Y-203876000D01*
X145000000Y-192124000D01*
X145019685Y-192056961D01*
X145072489Y-192011206D01*
X145124000Y-192000000D01*
X150876000Y-192000000D01*
X150943039Y-192019685D01*
G37*
G04 #@! TD.AperFunction*
G04 #@! TA.AperFunction,Conductor*
G36*
X168075680Y-31712983D02*
G01*
X168136797Y-31719404D01*
X168320426Y-31738698D01*
X168328600Y-31740117D01*
X168567718Y-31798310D01*
X168575626Y-31800806D01*
X168774619Y-31878621D01*
X168779138Y-31882117D01*
X168804947Y-31890720D01*
X168812241Y-31893678D01*
X169023955Y-31995617D01*
X169075817Y-32042436D01*
X169094134Y-32109861D01*
X169073091Y-32176487D01*
X169021051Y-32220415D01*
X168965096Y-32245599D01*
X168738995Y-32347358D01*
X168458584Y-32516873D01*
X168200645Y-32718955D01*
X167968955Y-32950645D01*
X167766873Y-33208584D01*
X167597358Y-33488995D01*
X167543371Y-33608951D01*
X167496682Y-33712691D01*
X167462878Y-33787800D01*
X167462872Y-33787815D01*
X167365399Y-34100620D01*
X167306332Y-34422935D01*
X167286549Y-34750000D01*
X167306332Y-35077064D01*
X167306332Y-35077069D01*
X167306333Y-35077070D01*
X167365397Y-35399371D01*
X167365398Y-35399375D01*
X167365399Y-35399379D01*
X167462872Y-35712184D01*
X167462876Y-35712196D01*
X167462879Y-35712203D01*
X167473224Y-35735188D01*
X167597358Y-36011004D01*
X167766873Y-36291415D01*
X167968955Y-36549354D01*
X168200645Y-36781044D01*
X168200649Y-36781047D01*
X168458584Y-36983126D01*
X168738996Y-37152642D01*
X169037797Y-37287121D01*
X169037810Y-37287125D01*
X169037815Y-37287127D01*
X169246351Y-37352109D01*
X169350629Y-37384603D01*
X169672930Y-37443667D01*
X170000000Y-37463451D01*
X170327070Y-37443667D01*
X170649371Y-37384603D01*
X170962203Y-37287121D01*
X171261004Y-37152642D01*
X171541416Y-36983126D01*
X171799351Y-36781047D01*
X172031047Y-36549351D01*
X172233126Y-36291416D01*
X172402642Y-36011004D01*
X172537121Y-35712203D01*
X172634603Y-35399371D01*
X172693667Y-35077070D01*
X172713451Y-34750000D01*
X172693667Y-34422930D01*
X172634603Y-34100629D01*
X172609561Y-34020269D01*
X172608410Y-33950411D01*
X172645211Y-33891018D01*
X172708279Y-33860950D01*
X172777592Y-33869752D01*
X172785706Y-33873654D01*
X173743764Y-34377970D01*
X175358240Y-35265087D01*
X176956576Y-36180965D01*
X178538261Y-37125308D01*
X180102787Y-38097815D01*
X181649652Y-39098173D01*
X183178361Y-40126063D01*
X184688425Y-41181155D01*
X186179358Y-42263110D01*
X187647224Y-43368976D01*
X187647960Y-43369615D01*
X187648184Y-43369777D01*
X187652981Y-43373609D01*
X187843246Y-43541636D01*
X187849229Y-43547701D01*
X188004051Y-43727906D01*
X188013858Y-43739320D01*
X188018953Y-43746150D01*
X188124770Y-43910451D01*
X188155741Y-43958540D01*
X188159857Y-43966014D01*
X188227536Y-44111824D01*
X188266211Y-44195145D01*
X188269264Y-44203116D01*
X188343183Y-44444672D01*
X188345114Y-44452986D01*
X188385200Y-44702401D01*
X188385972Y-44710901D01*
X188391467Y-44963457D01*
X188391066Y-44971982D01*
X188361866Y-45222907D01*
X188360300Y-45231287D01*
X188349731Y-45272095D01*
X188296958Y-45475830D01*
X188294255Y-45483926D01*
X188197963Y-45717476D01*
X188194175Y-45725124D01*
X188066762Y-45943249D01*
X188061961Y-45950305D01*
X187905828Y-46148899D01*
X187900104Y-46155230D01*
X187716329Y-46332335D01*
X187713158Y-46335188D01*
X187637028Y-46399068D01*
X169403151Y-61699107D01*
X169403041Y-61699154D01*
X169238979Y-61836810D01*
X169120195Y-61959807D01*
X169013216Y-62070582D01*
X168913171Y-62198628D01*
X168813127Y-62326672D01*
X168640903Y-62602277D01*
X168498431Y-62894379D01*
X168431274Y-63078890D01*
X168387276Y-63199770D01*
X168382683Y-63218191D01*
X168308653Y-63515112D01*
X168263426Y-63836929D01*
X168252088Y-64161728D01*
X168274764Y-64485934D01*
X168331205Y-64805982D01*
X168331208Y-64805995D01*
X168420795Y-65118382D01*
X168420796Y-65118386D01*
X168542544Y-65419695D01*
X168542551Y-65419711D01*
X168674078Y-65667051D01*
X168695135Y-65706649D01*
X168695139Y-65706655D01*
X168695142Y-65706660D01*
X168738806Y-65771387D01*
X168759978Y-65837972D01*
X168741791Y-65905433D01*
X168690019Y-65952352D01*
X168655409Y-65963205D01*
X168627903Y-65967561D01*
X168252430Y-66068169D01*
X167889543Y-66207469D01*
X167543201Y-66383940D01*
X167217214Y-66595637D01*
X166915128Y-66840262D01*
X166915120Y-66840269D01*
X166640269Y-67115120D01*
X166640262Y-67115128D01*
X166395637Y-67417214D01*
X166183940Y-67743201D01*
X166007469Y-68089543D01*
X165868169Y-68452430D01*
X165767561Y-68827904D01*
X165767561Y-68827906D01*
X165706754Y-69211822D01*
X165686411Y-69599999D01*
X165686411Y-69600000D01*
X165706754Y-69988177D01*
X165767561Y-70372093D01*
X165767561Y-70372095D01*
X165868169Y-70747569D01*
X166007469Y-71110456D01*
X166183940Y-71456799D01*
X166395637Y-71782785D01*
X166395641Y-71782790D01*
X166395643Y-71782793D01*
X166640266Y-72084876D01*
X166915124Y-72359734D01*
X167217207Y-72604357D01*
X167217211Y-72604359D01*
X167217214Y-72604362D01*
X167543200Y-72816059D01*
X167543205Y-72816062D01*
X167889547Y-72992532D01*
X168252438Y-73131833D01*
X168627901Y-73232438D01*
X169011824Y-73293246D01*
X169378530Y-73312463D01*
X169399999Y-73313589D01*
X169400000Y-73313589D01*
X169400001Y-73313589D01*
X169420344Y-73312522D01*
X169788176Y-73293246D01*
X170172099Y-73232438D01*
X170547562Y-73131833D01*
X170910453Y-72992532D01*
X171256795Y-72816062D01*
X171582793Y-72604357D01*
X171884876Y-72359734D01*
X172159734Y-72084876D01*
X172404357Y-71782793D01*
X172616062Y-71456795D01*
X172792532Y-71110453D01*
X172840327Y-70985940D01*
X172882727Y-70930410D01*
X172948421Y-70906617D01*
X173016550Y-70922118D01*
X173051080Y-70950674D01*
X186803999Y-87340764D01*
X186832011Y-87404773D01*
X186820972Y-87473765D01*
X186774385Y-87525836D01*
X186728407Y-87542943D01*
X186627906Y-87558861D01*
X186627904Y-87558861D01*
X186252430Y-87659469D01*
X185889543Y-87798769D01*
X185543201Y-87975240D01*
X185217214Y-88186937D01*
X184915128Y-88431562D01*
X184915120Y-88431569D01*
X184640269Y-88706420D01*
X184640262Y-88706428D01*
X184395637Y-89008514D01*
X184183940Y-89334501D01*
X184007469Y-89680843D01*
X183868169Y-90043730D01*
X183767561Y-90419204D01*
X183767561Y-90419206D01*
X183709575Y-90785315D01*
X183706754Y-90803124D01*
X183686411Y-91191300D01*
X183706754Y-91579476D01*
X183767562Y-91963399D01*
X183856910Y-92296852D01*
X183868169Y-92338869D01*
X184007469Y-92701756D01*
X184183940Y-93048099D01*
X184395637Y-93374085D01*
X184395641Y-93374090D01*
X184395643Y-93374093D01*
X184640266Y-93676176D01*
X184915124Y-93951034D01*
X185217207Y-94195657D01*
X185217211Y-94195659D01*
X185217214Y-94195662D01*
X185481918Y-94367562D01*
X185543205Y-94407362D01*
X185889547Y-94583832D01*
X186252438Y-94723133D01*
X186627901Y-94823738D01*
X187011824Y-94884546D01*
X187378530Y-94903763D01*
X187399999Y-94904889D01*
X187400000Y-94904889D01*
X187400001Y-94904889D01*
X187420344Y-94903822D01*
X187788176Y-94884546D01*
X188172099Y-94823738D01*
X188547562Y-94723133D01*
X188910453Y-94583832D01*
X189256795Y-94407362D01*
X189582793Y-94195657D01*
X189884876Y-93951034D01*
X190159734Y-93676176D01*
X190404357Y-93374093D01*
X190616062Y-93048095D01*
X190792532Y-92701753D01*
X190904788Y-92409314D01*
X190947189Y-92353785D01*
X191012883Y-92329992D01*
X191081011Y-92345493D01*
X191096891Y-92356040D01*
X191236300Y-92464953D01*
X191236312Y-92464961D01*
X191511888Y-92637153D01*
X191511890Y-92637154D01*
X191511895Y-92637157D01*
X191803979Y-92779612D01*
X191803986Y-92779614D01*
X191803987Y-92779615D01*
X192017572Y-92857352D01*
X192109354Y-92890757D01*
X192424673Y-92969374D01*
X192746483Y-93014602D01*
X192990063Y-93023110D01*
X193071255Y-93025946D01*
X193071256Y-93025946D01*
X193071256Y-93025945D01*
X193071257Y-93025946D01*
X193146589Y-93020679D01*
X193395426Y-93003282D01*
X193395428Y-93003281D01*
X193395437Y-93003281D01*
X193715473Y-92946855D01*
X194027859Y-92857288D01*
X194329171Y-92735559D01*
X194616109Y-92583003D01*
X194885530Y-92401291D01*
X194927400Y-92366159D01*
X194927464Y-92366111D01*
X194929535Y-92364373D01*
X194929541Y-92364370D01*
X195010006Y-92296852D01*
X195088127Y-92231306D01*
X195088128Y-92231303D01*
X195090201Y-92229565D01*
X195090260Y-92229510D01*
X196900802Y-90710285D01*
X213360138Y-76899264D01*
X213363450Y-76896674D01*
X213569413Y-76746714D01*
X213576634Y-76742181D01*
X213799337Y-76622898D01*
X213807091Y-76619409D01*
X214044052Y-76531802D01*
X214052232Y-76529403D01*
X214099374Y-76519033D01*
X214298959Y-76475129D01*
X214307377Y-76473876D01*
X214559243Y-76453958D01*
X214567745Y-76453873D01*
X214819941Y-76468691D01*
X214828400Y-76469775D01*
X215076107Y-76519033D01*
X215076172Y-76519046D01*
X215084402Y-76521280D01*
X215323073Y-76604072D01*
X215330922Y-76607415D01*
X215555983Y-76722164D01*
X215563292Y-76726549D01*
X215770481Y-76871083D01*
X215777129Y-76876436D01*
X215962526Y-77048017D01*
X215968377Y-77054231D01*
X216128490Y-77249624D01*
X216133432Y-77256581D01*
X216266188Y-77473661D01*
X216266276Y-77473804D01*
X216268648Y-77478048D01*
X217163214Y-79237033D01*
X218024964Y-81015194D01*
X218852412Y-82809576D01*
X219645251Y-84619515D01*
X220403189Y-86444345D01*
X221125947Y-88283392D01*
X221813259Y-90135978D01*
X222464870Y-92001421D01*
X223080541Y-93879032D01*
X223660044Y-95768119D01*
X224203166Y-97667985D01*
X224709706Y-99577930D01*
X225179478Y-101497250D01*
X225612309Y-103425236D01*
X226008038Y-105361178D01*
X226366521Y-107304362D01*
X226687624Y-109254072D01*
X226971229Y-111209587D01*
X227217233Y-113170188D01*
X227425543Y-115135152D01*
X227596084Y-117103752D01*
X227728792Y-119075265D01*
X227823618Y-121048963D01*
X227880528Y-123024117D01*
X227899500Y-125000000D01*
X227880528Y-126975883D01*
X227823618Y-128951037D01*
X227728792Y-130924735D01*
X227596084Y-132896248D01*
X227425543Y-134864848D01*
X227217233Y-136829812D01*
X226971229Y-138790413D01*
X226687624Y-140745928D01*
X226366521Y-142695638D01*
X226008038Y-144638822D01*
X225612309Y-146574764D01*
X225179478Y-148502750D01*
X224709706Y-150422070D01*
X224203166Y-152332015D01*
X223660044Y-154231881D01*
X223080541Y-156120968D01*
X222464870Y-157998579D01*
X221813259Y-159864022D01*
X221125947Y-161716608D01*
X220403189Y-163555655D01*
X219645251Y-165380485D01*
X218852412Y-167190424D01*
X218259348Y-168476524D01*
X218213400Y-168529159D01*
X218146288Y-168548597D01*
X218079322Y-168528666D01*
X218033761Y-168475695D01*
X218024072Y-168406500D01*
X218026964Y-168392525D01*
X218032438Y-168372099D01*
X218093246Y-167988176D01*
X218113589Y-167600000D01*
X218093246Y-167211824D01*
X218032438Y-166827901D01*
X217931833Y-166452438D01*
X217792532Y-166089547D01*
X217616062Y-165743206D01*
X217608867Y-165732126D01*
X217404362Y-165417214D01*
X217404359Y-165417211D01*
X217404357Y-165417207D01*
X217159734Y-165115124D01*
X216884876Y-164840266D01*
X216582793Y-164595643D01*
X216582790Y-164595641D01*
X216582785Y-164595637D01*
X216256799Y-164383940D01*
X215910456Y-164207469D01*
X215547569Y-164068169D01*
X215547562Y-164068167D01*
X215172099Y-163967562D01*
X215172095Y-163967561D01*
X215172094Y-163967561D01*
X214788177Y-163906754D01*
X214648855Y-163899452D01*
X214582938Y-163876286D01*
X214540009Y-163821159D01*
X214533699Y-163751575D01*
X214566011Y-163689626D01*
X214590025Y-163670221D01*
X214652213Y-163631685D01*
X214908346Y-163433236D01*
X215142402Y-163209173D01*
X215142407Y-163209166D01*
X215142412Y-163209162D01*
X215351820Y-162961954D01*
X215351823Y-162961949D01*
X215351833Y-162961938D01*
X215534356Y-162694222D01*
X215687984Y-162408942D01*
X215744610Y-162270953D01*
X215750892Y-162255656D01*
X215763516Y-162224925D01*
X215763711Y-162224429D01*
X215788222Y-162164729D01*
X215788222Y-162164725D01*
X215791505Y-162156730D01*
X215791512Y-162156708D01*
X216112376Y-161375173D01*
X216803608Y-159593581D01*
X217460007Y-157798862D01*
X218081324Y-155991699D01*
X218667323Y-154172777D01*
X219217782Y-152342786D01*
X219732491Y-150502420D01*
X220211256Y-148652377D01*
X220653896Y-146793361D01*
X221060241Y-144926075D01*
X221430138Y-143051228D01*
X221763446Y-141169533D01*
X222060040Y-139281702D01*
X222319806Y-137388452D01*
X222542645Y-135490502D01*
X222728475Y-133588571D01*
X222877223Y-131683381D01*
X222988833Y-129775656D01*
X223063264Y-127866119D01*
X223100486Y-125955494D01*
X223100486Y-124044506D01*
X223063264Y-122133881D01*
X222988833Y-120224344D01*
X222877223Y-118316619D01*
X222728475Y-116411429D01*
X222542645Y-114509498D01*
X222319806Y-112611548D01*
X222060040Y-110718298D01*
X221763446Y-108830467D01*
X221430138Y-106948772D01*
X221060241Y-105073925D01*
X220653896Y-103206639D01*
X220211256Y-101347623D01*
X219732491Y-99497580D01*
X219217782Y-97657214D01*
X218667323Y-95827223D01*
X218081324Y-94008301D01*
X217460007Y-92201138D01*
X216803608Y-90406419D01*
X216112376Y-88624827D01*
X215791352Y-87842902D01*
X215791342Y-87842869D01*
X215763734Y-87775626D01*
X215763733Y-87775621D01*
X215746606Y-87733904D01*
X215735166Y-87706042D01*
X215716043Y-87659467D01*
X215710757Y-87646591D01*
X215710754Y-87646587D01*
X215709738Y-87644111D01*
X215709566Y-87643743D01*
X215687952Y-87591073D01*
X215534326Y-87305796D01*
X215351805Y-87038083D01*
X215351796Y-87038072D01*
X215351792Y-87038066D01*
X215142387Y-86790861D01*
X215142377Y-86790851D01*
X215005987Y-86660284D01*
X214971172Y-86599705D01*
X214974636Y-86529921D01*
X215015277Y-86473088D01*
X215072336Y-86448238D01*
X215172099Y-86432438D01*
X215547562Y-86331833D01*
X215910453Y-86192532D01*
X216256795Y-86016062D01*
X216582793Y-85804357D01*
X216884876Y-85559734D01*
X217159734Y-85284876D01*
X217404357Y-84982793D01*
X217616062Y-84656795D01*
X217792532Y-84310453D01*
X217931833Y-83947562D01*
X218032438Y-83572099D01*
X218093246Y-83188176D01*
X218113589Y-82800000D01*
X218093246Y-82411824D01*
X218032438Y-82027901D01*
X217931833Y-81652438D01*
X217792532Y-81289547D01*
X217616062Y-80943206D01*
X217404357Y-80617207D01*
X217159734Y-80315124D01*
X216884876Y-80040266D01*
X216582793Y-79795643D01*
X216582790Y-79795641D01*
X216582785Y-79795637D01*
X216256799Y-79583940D01*
X215910456Y-79407469D01*
X215547569Y-79268169D01*
X215431368Y-79237033D01*
X215172099Y-79167562D01*
X215172095Y-79167561D01*
X215172094Y-79167561D01*
X214788177Y-79106754D01*
X214400001Y-79086411D01*
X214399999Y-79086411D01*
X214011822Y-79106754D01*
X213627906Y-79167561D01*
X213627904Y-79167561D01*
X213252430Y-79268169D01*
X212889543Y-79407469D01*
X212543201Y-79583940D01*
X212217214Y-79795637D01*
X211915128Y-80040262D01*
X211915120Y-80040269D01*
X211640269Y-80315120D01*
X211640262Y-80315128D01*
X211395637Y-80617214D01*
X211183940Y-80943201D01*
X211007469Y-81289543D01*
X210868169Y-81652430D01*
X210767561Y-82027904D01*
X210767561Y-82027906D01*
X210706754Y-82411822D01*
X210686411Y-82799999D01*
X210686411Y-82800000D01*
X210706754Y-83188177D01*
X210767561Y-83572093D01*
X210767561Y-83572095D01*
X210868169Y-83947569D01*
X211007469Y-84310456D01*
X211183940Y-84656799D01*
X211395637Y-84982785D01*
X211395641Y-84982790D01*
X211395643Y-84982793D01*
X211640266Y-85284876D01*
X211915124Y-85559734D01*
X212104199Y-85712845D01*
X212143910Y-85770331D01*
X212146238Y-85840162D01*
X212110443Y-85900166D01*
X212060491Y-85928364D01*
X211867311Y-85984018D01*
X211867292Y-85984024D01*
X211567013Y-86105670D01*
X211566992Y-86105680D01*
X211281021Y-86257960D01*
X211280996Y-86257976D01*
X211012466Y-86439221D01*
X211012433Y-86439246D01*
X210888359Y-86543390D01*
X210810234Y-86608943D01*
X202067398Y-93945052D01*
X202067390Y-93945058D01*
X202062661Y-93949025D01*
X202062661Y-93949026D01*
X202054468Y-93955900D01*
X202021481Y-93983581D01*
X202021467Y-93983586D01*
X201979759Y-94018591D01*
X201944310Y-94048337D01*
X201944170Y-94048465D01*
X201863700Y-94116014D01*
X201643828Y-94342327D01*
X201448067Y-94589789D01*
X201448065Y-94589791D01*
X201278430Y-94855848D01*
X201278424Y-94855859D01*
X201136675Y-95137756D01*
X201136667Y-95137774D01*
X201024268Y-95432593D01*
X200942369Y-95737326D01*
X200891827Y-96048782D01*
X200873160Y-96363773D01*
X200873160Y-96363785D01*
X200886563Y-96679027D01*
X200931897Y-96991297D01*
X201008690Y-97297328D01*
X201008698Y-97297353D01*
X201026620Y-97346856D01*
X201026752Y-97347281D01*
X201062409Y-97445709D01*
X201642955Y-99104317D01*
X202187339Y-100775143D01*
X202695303Y-102457399D01*
X203166608Y-104150291D01*
X203601031Y-105853021D01*
X203998368Y-107564785D01*
X204358431Y-109284775D01*
X204681051Y-111012181D01*
X204966074Y-112746186D01*
X205213367Y-114485973D01*
X205422812Y-116230721D01*
X205594311Y-117979606D01*
X205727784Y-119731804D01*
X205823166Y-121486488D01*
X205880414Y-123242829D01*
X205899499Y-125000000D01*
X205880414Y-126757171D01*
X205823166Y-128513512D01*
X205727784Y-130268196D01*
X205594311Y-132020394D01*
X205422812Y-133769279D01*
X205213367Y-135514027D01*
X204966074Y-137253814D01*
X204681051Y-138987819D01*
X204358431Y-140715225D01*
X203998368Y-142435215D01*
X203601031Y-144146979D01*
X203166608Y-145849709D01*
X202695303Y-147542601D01*
X202187339Y-149224857D01*
X201642955Y-150895683D01*
X201064134Y-152549361D01*
X201062361Y-152554258D01*
X201008647Y-152702610D01*
X200957044Y-152908232D01*
X200931837Y-153008680D01*
X200886498Y-153320945D01*
X200886497Y-153320957D01*
X200873092Y-153636208D01*
X200873092Y-153636220D01*
X200891760Y-153951226D01*
X200909475Y-154060380D01*
X200942310Y-154262700D01*
X201024218Y-154567438D01*
X201136638Y-154862286D01*
X201278379Y-155144140D01*
X201278408Y-155144197D01*
X201448032Y-155410210D01*
X201448067Y-155410264D01*
X201544247Y-155531830D01*
X201643858Y-155657733D01*
X201863703Y-155883989D01*
X201863758Y-155884045D01*
X201878743Y-155896622D01*
X201901726Y-155915914D01*
X201901942Y-155916112D01*
X201904062Y-155917891D01*
X201904063Y-155917892D01*
X203323865Y-157109247D01*
X210807603Y-163388849D01*
X210848866Y-163423473D01*
X210848914Y-163423545D01*
X210888337Y-163456635D01*
X210888337Y-163456636D01*
X211012426Y-163560792D01*
X211280992Y-163742062D01*
X211280996Y-163742064D01*
X211281002Y-163742068D01*
X211566977Y-163894351D01*
X211566979Y-163894351D01*
X211566987Y-163894356D01*
X211867296Y-164016014D01*
X212178649Y-164105712D01*
X212275417Y-164122930D01*
X212491873Y-164161445D01*
X212554427Y-164192569D01*
X212590224Y-164252572D01*
X212587898Y-164322403D01*
X212548189Y-164379891D01*
X212537685Y-164387522D01*
X212217214Y-164595637D01*
X211915128Y-164840262D01*
X211915120Y-164840269D01*
X211640269Y-165115120D01*
X211640262Y-165115128D01*
X211395637Y-165417214D01*
X211183940Y-165743201D01*
X211007469Y-166089543D01*
X210868169Y-166452430D01*
X210767561Y-166827904D01*
X210767561Y-166827906D01*
X210709469Y-167194684D01*
X210706754Y-167211824D01*
X210686411Y-167600000D01*
X210706754Y-167988176D01*
X210767562Y-168372099D01*
X210824874Y-168585992D01*
X210868169Y-168747569D01*
X211007469Y-169110456D01*
X211183940Y-169456799D01*
X211395637Y-169782785D01*
X211395641Y-169782790D01*
X211395643Y-169782793D01*
X211640266Y-170084876D01*
X211915124Y-170359734D01*
X212217207Y-170604357D01*
X212217211Y-170604359D01*
X212217214Y-170604362D01*
X212501730Y-170789128D01*
X212543205Y-170816062D01*
X212889547Y-170992532D01*
X213252438Y-171131833D01*
X213627901Y-171232438D01*
X214011824Y-171293246D01*
X214378530Y-171312463D01*
X214399999Y-171313589D01*
X214400000Y-171313589D01*
X214400001Y-171313589D01*
X214420344Y-171312522D01*
X214788176Y-171293246D01*
X215172099Y-171232438D01*
X215547562Y-171131833D01*
X215910453Y-170992532D01*
X216256795Y-170816062D01*
X216582793Y-170604357D01*
X216884876Y-170359734D01*
X217159734Y-170084876D01*
X217309472Y-169899965D01*
X217366957Y-169860255D01*
X217436787Y-169857927D01*
X217496791Y-169893722D01*
X217527918Y-169956275D01*
X217520284Y-170025727D01*
X217517423Y-170032080D01*
X217163214Y-170762967D01*
X216268577Y-172522089D01*
X216266205Y-172526333D01*
X216133442Y-172743424D01*
X216128499Y-172750381D01*
X215968390Y-172945772D01*
X215962539Y-172951986D01*
X215777132Y-173123575D01*
X215770485Y-173128928D01*
X215563298Y-173273460D01*
X215555979Y-173277851D01*
X215330930Y-173392593D01*
X215323078Y-173395938D01*
X215084408Y-173478730D01*
X215076171Y-173480966D01*
X214828409Y-173530235D01*
X214819943Y-173531320D01*
X214567755Y-173546138D01*
X214559220Y-173546051D01*
X214307395Y-173526136D01*
X214298953Y-173524879D01*
X214052234Y-173470609D01*
X214044044Y-173468207D01*
X213807098Y-173380606D01*
X213799319Y-173377105D01*
X213576632Y-173257831D01*
X213569405Y-173253295D01*
X213569391Y-173253285D01*
X213398596Y-173128928D01*
X213363582Y-173103434D01*
X213360238Y-173100820D01*
X213315171Y-173063004D01*
X213283614Y-173036524D01*
X213283611Y-173036522D01*
X195049512Y-157736297D01*
X195049431Y-157736176D01*
X195010071Y-157703148D01*
X194929610Y-157635630D01*
X194885609Y-157598707D01*
X194885602Y-157598702D01*
X194616196Y-157416978D01*
X194616190Y-157416974D01*
X194616186Y-157416972D01*
X194329239Y-157264394D01*
X194329237Y-157264393D01*
X194329224Y-157264387D01*
X194027924Y-157142651D01*
X194027920Y-157142649D01*
X193715523Y-157053069D01*
X193715506Y-157053065D01*
X193395459Y-156996632D01*
X193177193Y-156981371D01*
X193071265Y-156973965D01*
X193071261Y-156973965D01*
X193071260Y-156973965D01*
X193071247Y-156973964D01*
X192746479Y-156985308D01*
X192746474Y-156985308D01*
X192424644Y-157030543D01*
X192109308Y-157109172D01*
X192109298Y-157109175D01*
X191803917Y-157220333D01*
X191803911Y-157220336D01*
X191511827Y-157362805D01*
X191236221Y-157535036D01*
X190981074Y-157734392D01*
X190916128Y-157760156D01*
X190847563Y-157746717D01*
X190797147Y-157698343D01*
X190794124Y-157692379D01*
X190794006Y-157692440D01*
X190764177Y-157633898D01*
X190616062Y-157343206D01*
X190564912Y-157264441D01*
X190404362Y-157017214D01*
X190404359Y-157017211D01*
X190404357Y-157017207D01*
X190159734Y-156715124D01*
X189884876Y-156440266D01*
X189582793Y-156195643D01*
X189582790Y-156195641D01*
X189582785Y-156195637D01*
X189256799Y-155983940D01*
X188910456Y-155807469D01*
X188547569Y-155668169D01*
X188547562Y-155668167D01*
X188172099Y-155567562D01*
X188172095Y-155567561D01*
X188172094Y-155567561D01*
X187788177Y-155506754D01*
X187400001Y-155486411D01*
X187399999Y-155486411D01*
X187011822Y-155506754D01*
X186627906Y-155567561D01*
X186627904Y-155567561D01*
X186252430Y-155668169D01*
X185889543Y-155807469D01*
X185543201Y-155983940D01*
X185217214Y-156195637D01*
X184915128Y-156440262D01*
X184915120Y-156440269D01*
X184640269Y-156715120D01*
X184640262Y-156715128D01*
X184395637Y-157017214D01*
X184183940Y-157343201D01*
X184007469Y-157689543D01*
X183868169Y-158052430D01*
X183767561Y-158427904D01*
X183767561Y-158427906D01*
X183706754Y-158811822D01*
X183686411Y-159199999D01*
X183686411Y-159200000D01*
X183706754Y-159588177D01*
X183750444Y-159864022D01*
X183767562Y-159972099D01*
X183792360Y-160064648D01*
X183868169Y-160347569D01*
X184007469Y-160710456D01*
X184183940Y-161056799D01*
X184395637Y-161382785D01*
X184395641Y-161382790D01*
X184395643Y-161382793D01*
X184640266Y-161684876D01*
X184915124Y-161959734D01*
X185217207Y-162204357D01*
X185217211Y-162204359D01*
X185217214Y-162204362D01*
X185532241Y-162408942D01*
X185543205Y-162416062D01*
X185889547Y-162592532D01*
X186252438Y-162731833D01*
X186465009Y-162788791D01*
X186524667Y-162825155D01*
X186555196Y-162888002D01*
X186546901Y-162957378D01*
X186527903Y-162988271D01*
X172997885Y-179112719D01*
X172939713Y-179151421D01*
X172869852Y-179152529D01*
X172810482Y-179115692D01*
X172792410Y-179089308D01*
X172747433Y-179001036D01*
X172616062Y-178743206D01*
X172404357Y-178417207D01*
X172159734Y-178115124D01*
X171884876Y-177840266D01*
X171582793Y-177595643D01*
X171582790Y-177595641D01*
X171582785Y-177595637D01*
X171256799Y-177383940D01*
X170910456Y-177207469D01*
X170547569Y-177068169D01*
X170547562Y-177068167D01*
X170172099Y-176967562D01*
X170172095Y-176967561D01*
X170172094Y-176967561D01*
X169788177Y-176906754D01*
X169400001Y-176886411D01*
X169399999Y-176886411D01*
X169011822Y-176906754D01*
X168627906Y-176967561D01*
X168627904Y-176967561D01*
X168252430Y-177068169D01*
X167889543Y-177207469D01*
X167543201Y-177383940D01*
X167217214Y-177595637D01*
X166915128Y-177840262D01*
X166915120Y-177840269D01*
X166640269Y-178115120D01*
X166640262Y-178115128D01*
X166395637Y-178417214D01*
X166183940Y-178743201D01*
X166007469Y-179089543D01*
X165868169Y-179452430D01*
X165767561Y-179827904D01*
X165767561Y-179827906D01*
X165706754Y-180211822D01*
X165686411Y-180599999D01*
X165686411Y-180600000D01*
X165706754Y-180988177D01*
X165739739Y-181196433D01*
X165767562Y-181372099D01*
X165805665Y-181514303D01*
X165868169Y-181747569D01*
X166007469Y-182110456D01*
X166183940Y-182456799D01*
X166395637Y-182782785D01*
X166395641Y-182782790D01*
X166395643Y-182782793D01*
X166640266Y-183084876D01*
X166915124Y-183359734D01*
X167217207Y-183604357D01*
X167217211Y-183604359D01*
X167217214Y-183604362D01*
X167543200Y-183816059D01*
X167543205Y-183816062D01*
X167889547Y-183992532D01*
X168252438Y-184131833D01*
X168564579Y-184215470D01*
X168624237Y-184251834D01*
X168654766Y-184314681D01*
X168646471Y-184384056D01*
X168641968Y-184393460D01*
X168542597Y-184580341D01*
X168542594Y-184580348D01*
X168420852Y-184881656D01*
X168331273Y-185194038D01*
X168331271Y-185194047D01*
X168274836Y-185514076D01*
X168274835Y-185514084D01*
X168274835Y-185514086D01*
X168255220Y-185794545D01*
X168252161Y-185838276D01*
X168253162Y-185866957D01*
X168263498Y-186163056D01*
X168263498Y-186163062D01*
X168263499Y-186163064D01*
X168308719Y-186484857D01*
X168308723Y-186484878D01*
X168387336Y-186800191D01*
X168387341Y-186800209D01*
X168498481Y-187105572D01*
X168498483Y-187105577D01*
X168498503Y-187105619D01*
X168640945Y-187397674D01*
X168813156Y-187673274D01*
X169013232Y-187929362D01*
X169238981Y-188163134D01*
X169280793Y-188198218D01*
X169280813Y-188198237D01*
X169282957Y-188200036D01*
X169282958Y-188200037D01*
X169623387Y-188485691D01*
X187634869Y-203599120D01*
X187634881Y-203599131D01*
X187637035Y-203600938D01*
X187713532Y-203665125D01*
X187716676Y-203667953D01*
X187900137Y-203844756D01*
X187905849Y-203851075D01*
X188039189Y-204020674D01*
X188061986Y-204049670D01*
X188066787Y-204056726D01*
X188194205Y-204274861D01*
X188197993Y-204282509D01*
X188294286Y-204516063D01*
X188296989Y-204524159D01*
X188360331Y-204768697D01*
X188361899Y-204777087D01*
X188391099Y-205028015D01*
X188391500Y-205036540D01*
X188386005Y-205289101D01*
X188385233Y-205297601D01*
X188345146Y-205547021D01*
X188343215Y-205555335D01*
X188269295Y-205796895D01*
X188266242Y-205804865D01*
X188263287Y-205811232D01*
X188159883Y-206034006D01*
X188155775Y-206041468D01*
X188116486Y-206102473D01*
X188018987Y-206253857D01*
X188013884Y-206260698D01*
X187849257Y-206452315D01*
X187843263Y-206458391D01*
X187652826Y-206626569D01*
X187649052Y-206629647D01*
X186886235Y-207203362D01*
X186043748Y-207836997D01*
X185009229Y-208583862D01*
X184943353Y-208607143D01*
X184875347Y-208591112D01*
X184826803Y-208540860D01*
X184813134Y-208472340D01*
X184838680Y-208407308D01*
X184848951Y-208395658D01*
X184959734Y-208284876D01*
X185204357Y-207982793D01*
X185416062Y-207656795D01*
X185592532Y-207310453D01*
X185731833Y-206947562D01*
X185832438Y-206572099D01*
X185893246Y-206188176D01*
X185913589Y-205800000D01*
X185913304Y-205794571D01*
X185902915Y-205596327D01*
X185893246Y-205411824D01*
X185832438Y-205027901D01*
X185731833Y-204652438D01*
X185592532Y-204289547D01*
X185416062Y-203943206D01*
X185372417Y-203875998D01*
X185204362Y-203617214D01*
X185204359Y-203617211D01*
X185204357Y-203617207D01*
X184959734Y-203315124D01*
X184684876Y-203040266D01*
X184382793Y-202795643D01*
X184382790Y-202795641D01*
X184382785Y-202795637D01*
X184056799Y-202583940D01*
X183710456Y-202407469D01*
X183347569Y-202268169D01*
X183347562Y-202268167D01*
X182972099Y-202167562D01*
X182972095Y-202167561D01*
X182972094Y-202167561D01*
X182588177Y-202106754D01*
X182200001Y-202086411D01*
X182199999Y-202086411D01*
X181811822Y-202106754D01*
X181427906Y-202167561D01*
X181427904Y-202167561D01*
X181052430Y-202268169D01*
X180689543Y-202407469D01*
X180343201Y-202583940D01*
X180017214Y-202795637D01*
X179715128Y-203040262D01*
X179715120Y-203040269D01*
X179440269Y-203315120D01*
X179440262Y-203315128D01*
X179195637Y-203617214D01*
X178983938Y-203943203D01*
X178983932Y-203943214D01*
X178893101Y-204121479D01*
X178845127Y-204172275D01*
X178777306Y-204189070D01*
X178711171Y-204166532D01*
X178667720Y-204111817D01*
X178666161Y-204107775D01*
X178650000Y-204063585D01*
X178649996Y-204063577D01*
X178507600Y-203772544D01*
X178507596Y-203772538D01*
X178507595Y-203772537D01*
X178507594Y-203772534D01*
X178335635Y-203497916D01*
X178335634Y-203497914D01*
X178335630Y-203497908D01*
X178136002Y-203242727D01*
X178135993Y-203242716D01*
X177910840Y-203009712D01*
X177910841Y-203009712D01*
X177786715Y-202905593D01*
X177773788Y-202894746D01*
X177747494Y-202872683D01*
X176832128Y-202104599D01*
X173026497Y-198911293D01*
X173026473Y-198911271D01*
X172945992Y-198843743D01*
X172905603Y-198809853D01*
X172903820Y-198808427D01*
X172862944Y-198774144D01*
X172823041Y-198740676D01*
X172725174Y-198674478D01*
X172557263Y-198560902D01*
X172557258Y-198560899D01*
X172274345Y-198409517D01*
X172100838Y-198338618D01*
X171977310Y-198288141D01*
X171977306Y-198288139D01*
X171977304Y-198288139D01*
X171669341Y-198198073D01*
X171669339Y-198198072D01*
X171669337Y-198198072D01*
X171353713Y-198140271D01*
X171353706Y-198140270D01*
X171353711Y-198140270D01*
X171033811Y-198115355D01*
X171033809Y-198115355D01*
X171014342Y-198115854D01*
X170713050Y-198123589D01*
X170713042Y-198123589D01*
X170713042Y-198123590D01*
X170394837Y-198164888D01*
X170297988Y-198187816D01*
X170082597Y-198238808D01*
X169779651Y-198344561D01*
X169489240Y-198481017D01*
X169441745Y-198509645D01*
X169441547Y-198509753D01*
X169351947Y-198563773D01*
X167821408Y-199465099D01*
X166272580Y-200334574D01*
X164706106Y-201171839D01*
X163122655Y-201976536D01*
X161522904Y-202748321D01*
X159907538Y-203486863D01*
X158277246Y-204191848D01*
X156632727Y-204862973D01*
X154974682Y-205499952D01*
X153303822Y-206102513D01*
X151620860Y-206670397D01*
X149926515Y-207203362D01*
X148221514Y-207701180D01*
X146506583Y-208163639D01*
X144782457Y-208590540D01*
X143049873Y-208981700D01*
X141309443Y-209336979D01*
X141307701Y-209337316D01*
X141307473Y-209337297D01*
X141307117Y-209337429D01*
X141270778Y-209344456D01*
X141255480Y-209347415D01*
X141220006Y-209354262D01*
X141142661Y-209369193D01*
X140817927Y-209469851D01*
X140506164Y-209605396D01*
X140506159Y-209605399D01*
X140211089Y-209774207D01*
X140211074Y-209774216D01*
X139936214Y-209974277D01*
X139684874Y-210203183D01*
X139460054Y-210458202D01*
X139264468Y-210736258D01*
X139100444Y-211034039D01*
X138969956Y-211347960D01*
X138874567Y-211674269D01*
X138815420Y-212009044D01*
X138815418Y-212009066D01*
X138793310Y-212346969D01*
X138793224Y-212348286D01*
X138796228Y-212416212D01*
X138808246Y-212687921D01*
X138822996Y-212782894D01*
X138834173Y-212854854D01*
X138834337Y-212855912D01*
X138854404Y-213007965D01*
X138916745Y-213480351D01*
X138917047Y-213483128D01*
X138971103Y-214109256D01*
X138971278Y-214112016D01*
X138997052Y-214739957D01*
X138997104Y-214742753D01*
X138994546Y-215371194D01*
X138994472Y-215373989D01*
X138963588Y-216001659D01*
X138963388Y-216004448D01*
X138904236Y-216630129D01*
X138903910Y-216632905D01*
X138816620Y-217255246D01*
X138816169Y-217258006D01*
X138701188Y-217874294D01*
X138679008Y-217980013D01*
X138665982Y-218042101D01*
X138665971Y-218042152D01*
X138632876Y-218377580D01*
X138636331Y-218714604D01*
X138636331Y-218714606D01*
X138676296Y-219049274D01*
X138676298Y-219049288D01*
X138752299Y-219377644D01*
X138752300Y-219377649D01*
X138752301Y-219377650D01*
X138863441Y-219695826D01*
X138863452Y-219695856D01*
X139008415Y-220000094D01*
X139008430Y-220000126D01*
X139185536Y-220286896D01*
X139392682Y-220552782D01*
X139392686Y-220552786D01*
X139627428Y-220794652D01*
X139886997Y-221009645D01*
X139887005Y-221009651D01*
X140168356Y-221195250D01*
X140168361Y-221195253D01*
X140468156Y-221349255D01*
X140468159Y-221349256D01*
X140782893Y-221469864D01*
X141108846Y-221555648D01*
X141442177Y-221605597D01*
X141778957Y-221619124D01*
X142115220Y-221596068D01*
X142177885Y-221584864D01*
X142178257Y-221584816D01*
X142180760Y-221584367D01*
X142180761Y-221584368D01*
X142279204Y-221566749D01*
X142279840Y-221566635D01*
X142281131Y-221566406D01*
X142341252Y-221555648D01*
X142381498Y-221548447D01*
X142381500Y-221548446D01*
X142384675Y-221547878D01*
X142384777Y-221547854D01*
X143215539Y-221399177D01*
X145077514Y-221028644D01*
X146931971Y-220622151D01*
X148778214Y-220179849D01*
X150615553Y-219701904D01*
X152443299Y-219188494D01*
X154260769Y-218639813D01*
X156067280Y-218056065D01*
X157862158Y-217437469D01*
X159644729Y-216784257D01*
X161414326Y-216096674D01*
X163170287Y-215374976D01*
X164911954Y-214619435D01*
X166638674Y-213830332D01*
X168349802Y-213007964D01*
X170044695Y-212152639D01*
X171722721Y-211264677D01*
X173383249Y-210344410D01*
X175025659Y-209392183D01*
X176649335Y-208408353D01*
X177365310Y-207955364D01*
X177414751Y-207924083D01*
X177414756Y-207924082D01*
X177451508Y-207900829D01*
X177485277Y-207879463D01*
X177501845Y-207868981D01*
X177501847Y-207868978D01*
X177537684Y-207846305D01*
X177537684Y-207846304D01*
X177539838Y-207844942D01*
X177540154Y-207844719D01*
X177588389Y-207814214D01*
X177842659Y-207613385D01*
X178074614Y-207387150D01*
X178281727Y-207137972D01*
X178441931Y-206898216D01*
X178495542Y-206853414D01*
X178564867Y-206844707D01*
X178627894Y-206874862D01*
X178664613Y-206934306D01*
X178664756Y-206934835D01*
X178664819Y-206935066D01*
X178668169Y-206947569D01*
X178807469Y-207310456D01*
X178983940Y-207656799D01*
X179195637Y-207982785D01*
X179195641Y-207982790D01*
X179195643Y-207982793D01*
X179440266Y-208284876D01*
X179715124Y-208559734D01*
X180017207Y-208804357D01*
X180017211Y-208804359D01*
X180017214Y-208804362D01*
X180223392Y-208938255D01*
X180343205Y-209016062D01*
X180689547Y-209192532D01*
X181052438Y-209331833D01*
X181427901Y-209432438D01*
X181811824Y-209493246D01*
X182178530Y-209512463D01*
X182199999Y-209513589D01*
X182200000Y-209513589D01*
X182200001Y-209513589D01*
X182220344Y-209512522D01*
X182588176Y-209493246D01*
X182972099Y-209432438D01*
X183347562Y-209331833D01*
X183710453Y-209192532D01*
X183754415Y-209170131D01*
X183823084Y-209157235D01*
X183887825Y-209183510D01*
X183928082Y-209240616D01*
X183931075Y-209310422D01*
X183895854Y-209370764D01*
X183881315Y-209382552D01*
X182760571Y-210158814D01*
X181085585Y-211271167D01*
X179389184Y-212350580D01*
X177672016Y-213396639D01*
X175934736Y-214408947D01*
X174178008Y-215387115D01*
X172402503Y-216330772D01*
X170608897Y-217239556D01*
X168797877Y-218113120D01*
X166970134Y-218951131D01*
X165126366Y-219753268D01*
X163267276Y-220519227D01*
X161393575Y-221248713D01*
X159505977Y-221941450D01*
X157605204Y-222597171D01*
X155691982Y-223215627D01*
X153767041Y-223796581D01*
X151831115Y-224339813D01*
X149884945Y-224845113D01*
X147929273Y-225312290D01*
X145964846Y-225741165D01*
X143992414Y-226131574D01*
X142012730Y-226483369D01*
X140026550Y-226796414D01*
X138034633Y-227070590D01*
X136037739Y-227305794D01*
X134036630Y-227501934D01*
X132032071Y-227658936D01*
X130024825Y-227776740D01*
X128015663Y-227855301D01*
X126005349Y-227894589D01*
X123994651Y-227894589D01*
X121984337Y-227855301D01*
X119975175Y-227776740D01*
X117967929Y-227658936D01*
X115963370Y-227501934D01*
X113962261Y-227305794D01*
X111965367Y-227070590D01*
X109973450Y-226796414D01*
X107987270Y-226483369D01*
X106007586Y-226131574D01*
X104035154Y-225741165D01*
X102070727Y-225312290D01*
X100115055Y-224845113D01*
X98168885Y-224339813D01*
X96232959Y-223796581D01*
X94308018Y-223215627D01*
X92394796Y-222597171D01*
X90494023Y-221941450D01*
X88606425Y-221248713D01*
X86732724Y-220519227D01*
X84873634Y-219753268D01*
X83029866Y-218951131D01*
X81202123Y-218113120D01*
X79391103Y-217239556D01*
X77597497Y-216330772D01*
X75821992Y-215387115D01*
X74065264Y-214408947D01*
X72327984Y-213396639D01*
X70610816Y-212350580D01*
X68914415Y-211271167D01*
X67239429Y-210158814D01*
X66118684Y-209382552D01*
X66074781Y-209328199D01*
X66067233Y-209258738D01*
X66098437Y-209196223D01*
X66158486Y-209160503D01*
X66228313Y-209162917D01*
X66245580Y-209170129D01*
X66289547Y-209192532D01*
X66652438Y-209331833D01*
X67027901Y-209432438D01*
X67411824Y-209493246D01*
X67778530Y-209512463D01*
X67799999Y-209513589D01*
X67800000Y-209513589D01*
X67800001Y-209513589D01*
X67820344Y-209512522D01*
X68188176Y-209493246D01*
X68572099Y-209432438D01*
X68947562Y-209331833D01*
X69310453Y-209192532D01*
X69656795Y-209016062D01*
X69982793Y-208804357D01*
X70284876Y-208559734D01*
X70559734Y-208284876D01*
X70804357Y-207982793D01*
X71016062Y-207656795D01*
X71192532Y-207310453D01*
X71331833Y-206947562D01*
X71335182Y-206935062D01*
X71371544Y-206875405D01*
X71434390Y-206844874D01*
X71503766Y-206853168D01*
X71557645Y-206897652D01*
X71558057Y-206898265D01*
X71718239Y-207137988D01*
X71718241Y-207137991D01*
X71861590Y-207310453D01*
X71925360Y-207387174D01*
X72157318Y-207613412D01*
X72411591Y-207814244D01*
X72540980Y-207896076D01*
X72548492Y-207900829D01*
X73350664Y-208408354D01*
X74974341Y-209392184D01*
X76616750Y-210344411D01*
X78277279Y-211264678D01*
X79955304Y-212152640D01*
X81650198Y-213007965D01*
X83361325Y-213830333D01*
X85088046Y-214619435D01*
X86829712Y-215374977D01*
X88585673Y-216096675D01*
X90355271Y-216784258D01*
X92137842Y-217437470D01*
X93932719Y-218056066D01*
X95739231Y-218639814D01*
X97556700Y-219188495D01*
X99384447Y-219701905D01*
X101221786Y-220179850D01*
X103068029Y-220622152D01*
X104922486Y-221028645D01*
X106784461Y-221399178D01*
X107691027Y-221561422D01*
X107718821Y-221566397D01*
X107718821Y-221566396D01*
X107775798Y-221576595D01*
X107775823Y-221576597D01*
X107819239Y-221584368D01*
X107819241Y-221584367D01*
X107821276Y-221584732D01*
X107822857Y-221584938D01*
X107884729Y-221596005D01*
X108164074Y-221615172D01*
X108220979Y-221619077D01*
X108220980Y-221619077D01*
X108220995Y-221619078D01*
X108557781Y-221605566D01*
X108891117Y-221555629D01*
X109217078Y-221469854D01*
X109531820Y-221349253D01*
X109831635Y-221195246D01*
X110112991Y-221009649D01*
X110372571Y-220794649D01*
X110607318Y-220552778D01*
X110814464Y-220286888D01*
X110991569Y-220000111D01*
X111136546Y-219695826D01*
X111247686Y-219377620D01*
X111323680Y-219049242D01*
X111363633Y-218714562D01*
X111367073Y-218377523D01*
X111340971Y-218113120D01*
X111333960Y-218042101D01*
X111320929Y-217980013D01*
X111320881Y-217979715D01*
X111320306Y-217976977D01*
X111320306Y-217976974D01*
X111299348Y-217877174D01*
X111183827Y-217257988D01*
X111183385Y-217255284D01*
X111096087Y-216632888D01*
X111095763Y-216630129D01*
X111088900Y-216557535D01*
X111036610Y-216004435D01*
X111036412Y-216001684D01*
X111005525Y-215373947D01*
X111005453Y-215371194D01*
X111004211Y-215065958D01*
X111003942Y-215000000D01*
X115794571Y-215000000D01*
X115814281Y-215602071D01*
X115833419Y-215796375D01*
X115873325Y-216201550D01*
X115969531Y-216784258D01*
X115971453Y-216795900D01*
X115971453Y-216795899D01*
X116108239Y-217382546D01*
X116161222Y-217557205D01*
X116283102Y-217958988D01*
X116312452Y-218036969D01*
X116495292Y-218522763D01*
X116743902Y-219071458D01*
X117027864Y-219602713D01*
X117027863Y-219602713D01*
X117345962Y-220114256D01*
X117696842Y-220603911D01*
X117696842Y-220603910D01*
X118078992Y-221069561D01*
X118078996Y-221069565D01*
X118078996Y-221069566D01*
X118490779Y-221509221D01*
X118930434Y-221921004D01*
X118930435Y-221921004D01*
X118930439Y-221921008D01*
X119396090Y-222303158D01*
X119396089Y-222303158D01*
X119885744Y-222654038D01*
X120397287Y-222972137D01*
X120397287Y-222972136D01*
X120928542Y-223256098D01*
X121477237Y-223504708D01*
X121486656Y-223508253D01*
X122041012Y-223716898D01*
X122041015Y-223716899D01*
X122041018Y-223716900D01*
X122041019Y-223716900D01*
X122617454Y-223891761D01*
X123204101Y-224028547D01*
X123204104Y-224028547D01*
X123204110Y-224028549D01*
X123798450Y-224126675D01*
X124016444Y-224148145D01*
X124397929Y-224185719D01*
X125000000Y-224205429D01*
X125602071Y-224185719D01*
X125983555Y-224148145D01*
X126201550Y-224126675D01*
X126795890Y-224028549D01*
X126795895Y-224028547D01*
X126795899Y-224028547D01*
X127382546Y-223891761D01*
X127958981Y-223716900D01*
X127958982Y-223716900D01*
X127958984Y-223716899D01*
X127958988Y-223716898D01*
X128513344Y-223508253D01*
X128522763Y-223504708D01*
X129071458Y-223256098D01*
X129602713Y-222972136D01*
X129602713Y-222972137D01*
X130114256Y-222654038D01*
X130603911Y-222303158D01*
X130603910Y-222303158D01*
X131069561Y-221921008D01*
X131069565Y-221921004D01*
X131069566Y-221921004D01*
X131509221Y-221509221D01*
X131921004Y-221069566D01*
X131921004Y-221069565D01*
X131921008Y-221069561D01*
X132303158Y-220603910D01*
X132303158Y-220603911D01*
X132654038Y-220114256D01*
X132972137Y-219602713D01*
X132972136Y-219602713D01*
X133256098Y-219071458D01*
X133504708Y-218522763D01*
X133687548Y-218036969D01*
X133716898Y-217958988D01*
X133838778Y-217557205D01*
X133891761Y-217382546D01*
X134028547Y-216795899D01*
X134028549Y-216795890D01*
X134126675Y-216201550D01*
X134166581Y-215796375D01*
X134185719Y-215602071D01*
X134205429Y-215000000D01*
X134185719Y-214397929D01*
X134126675Y-213798454D01*
X134126675Y-213798453D01*
X134094935Y-213606208D01*
X134028549Y-213204110D01*
X133982815Y-213007965D01*
X133891761Y-212617454D01*
X133716900Y-212041019D01*
X133716900Y-212041018D01*
X133704873Y-212009064D01*
X133578866Y-211674271D01*
X133504708Y-211477237D01*
X133256098Y-210928542D01*
X132972136Y-210397288D01*
X132972137Y-210397288D01*
X132654038Y-209885744D01*
X132303158Y-209396089D01*
X132303158Y-209396090D01*
X131921008Y-208930439D01*
X131921004Y-208930434D01*
X131509221Y-208490779D01*
X131069566Y-208078996D01*
X131069565Y-208078996D01*
X131069561Y-208078992D01*
X130603910Y-207696842D01*
X130603911Y-207696842D01*
X130258595Y-207449393D01*
X130114262Y-207345966D01*
X130114256Y-207345962D01*
X129602713Y-207027863D01*
X129602713Y-207027864D01*
X129071458Y-206743902D01*
X128522763Y-206495292D01*
X128139914Y-206351198D01*
X127958988Y-206283102D01*
X127958984Y-206283100D01*
X127958982Y-206283100D01*
X127958981Y-206283100D01*
X127382546Y-206108239D01*
X126795899Y-205971453D01*
X126795900Y-205971453D01*
X126795895Y-205971452D01*
X126795890Y-205971451D01*
X126201550Y-205873325D01*
X125983555Y-205851854D01*
X125602071Y-205814281D01*
X125000000Y-205794571D01*
X124397929Y-205814281D01*
X124016444Y-205851854D01*
X123798450Y-205873325D01*
X123204110Y-205971451D01*
X123204104Y-205971452D01*
X123204100Y-205971453D01*
X123204101Y-205971453D01*
X122617454Y-206108239D01*
X122041019Y-206283100D01*
X122041018Y-206283100D01*
X122041015Y-206283100D01*
X122041012Y-206283102D01*
X121860086Y-206351198D01*
X121477237Y-206495292D01*
X120928542Y-206743902D01*
X120397288Y-207027864D01*
X120397288Y-207027863D01*
X119885744Y-207345962D01*
X119885738Y-207345966D01*
X119741404Y-207449393D01*
X119396089Y-207696842D01*
X119396090Y-207696842D01*
X118930439Y-208078992D01*
X118930435Y-208078996D01*
X118930434Y-208078996D01*
X118490779Y-208490779D01*
X118078996Y-208930434D01*
X118078992Y-208930439D01*
X117696842Y-209396090D01*
X117696842Y-209396089D01*
X117345962Y-209885744D01*
X117027863Y-210397288D01*
X117027864Y-210397288D01*
X116743902Y-210928542D01*
X116495292Y-211477237D01*
X116421134Y-211674271D01*
X116295127Y-212009064D01*
X116283100Y-212041018D01*
X116283100Y-212041019D01*
X116108239Y-212617454D01*
X115971453Y-213204100D01*
X115971451Y-213204110D01*
X115905065Y-213606208D01*
X115873325Y-213798453D01*
X115873325Y-213798454D01*
X115814281Y-214397929D01*
X115794571Y-215000000D01*
X111003942Y-215000000D01*
X111002895Y-214742721D01*
X111002947Y-214739957D01*
X111013743Y-214476927D01*
X111028721Y-214112001D01*
X111028893Y-214109300D01*
X111082956Y-213483084D01*
X111083249Y-213480394D01*
X111165579Y-212856542D01*
X111165681Y-212855886D01*
X111165683Y-212855887D01*
X111191771Y-212687918D01*
X111206793Y-212348286D01*
X111184597Y-212009047D01*
X111125450Y-211674267D01*
X111030061Y-211347959D01*
X110899572Y-211034034D01*
X110735549Y-210736255D01*
X110539957Y-210458191D01*
X110539956Y-210458189D01*
X110539954Y-210458187D01*
X110315147Y-210203182D01*
X110315137Y-210203172D01*
X110063795Y-209974264D01*
X109788934Y-209774202D01*
X109788919Y-209774193D01*
X109493848Y-209605384D01*
X109493843Y-209605381D01*
X109182078Y-209469835D01*
X109182070Y-209469832D01*
X109182069Y-209469832D01*
X108857346Y-209369178D01*
X108857343Y-209369177D01*
X108857342Y-209369177D01*
X108692594Y-209337373D01*
X108692598Y-209337348D01*
X108692383Y-209337332D01*
X108690554Y-209336979D01*
X106950110Y-208981697D01*
X105217509Y-208590532D01*
X103493367Y-208163626D01*
X101778420Y-207701162D01*
X100073403Y-207203337D01*
X98379043Y-206670365D01*
X96696065Y-206102473D01*
X95025189Y-205499905D01*
X93367130Y-204862917D01*
X91722596Y-204191782D01*
X90992348Y-203876000D01*
X144486500Y-203876000D01*
X144486501Y-203876009D01*
X144498235Y-203985151D01*
X144498237Y-203985163D01*
X144509443Y-204036673D01*
X144544106Y-204140820D01*
X144544109Y-204140826D01*
X144623128Y-204263781D01*
X144623134Y-204263788D01*
X144668879Y-204316581D01*
X144668882Y-204316584D01*
X144668884Y-204316586D01*
X144685657Y-204331120D01*
X144779335Y-204412294D01*
X144779337Y-204412295D01*
X144779339Y-204412297D01*
X144912287Y-204473014D01*
X144955059Y-204485573D01*
X144979321Y-204492698D01*
X144979326Y-204492699D01*
X144979330Y-204492700D01*
X145124000Y-204513500D01*
X145124003Y-204513500D01*
X150875990Y-204513500D01*
X150876000Y-204513500D01*
X150985157Y-204501764D01*
X151036668Y-204490558D01*
X151071440Y-204478984D01*
X151140820Y-204455893D01*
X151140824Y-204455890D01*
X151140827Y-204455890D01*
X151263782Y-204376871D01*
X151316586Y-204331116D01*
X151412297Y-204220661D01*
X151473014Y-204087713D01*
X151492699Y-204020674D01*
X151492700Y-204020670D01*
X151513500Y-203876000D01*
X151513500Y-192124000D01*
X151501764Y-192014843D01*
X151490558Y-191963332D01*
X151490453Y-191963017D01*
X151455893Y-191859179D01*
X151455890Y-191859173D01*
X151376871Y-191736218D01*
X151376865Y-191736211D01*
X151331120Y-191683418D01*
X151331117Y-191683415D01*
X151220664Y-191587705D01*
X151220658Y-191587701D01*
X151087716Y-191526987D01*
X151020679Y-191507302D01*
X151020673Y-191507300D01*
X150933868Y-191494820D01*
X150876000Y-191486500D01*
X145124000Y-191486500D01*
X145123991Y-191486500D01*
X145123990Y-191486501D01*
X145014848Y-191498235D01*
X145014836Y-191498237D01*
X144963326Y-191509443D01*
X144859179Y-191544106D01*
X144859173Y-191544109D01*
X144736218Y-191623128D01*
X144736211Y-191623134D01*
X144683418Y-191668879D01*
X144683415Y-191668882D01*
X144587705Y-191779335D01*
X144587701Y-191779341D01*
X144526987Y-191912283D01*
X144507302Y-191979321D01*
X144507300Y-191979326D01*
X144502195Y-192014836D01*
X144486500Y-192124000D01*
X144486500Y-203876000D01*
X90992348Y-203876000D01*
X90092290Y-203486787D01*
X89028789Y-203000553D01*
X99291500Y-203000553D01*
X99302113Y-203104428D01*
X99357884Y-203272736D01*
X99357889Y-203272747D01*
X99450967Y-203423648D01*
X99450970Y-203423652D01*
X99576347Y-203549029D01*
X99576351Y-203549032D01*
X99727252Y-203642110D01*
X99727255Y-203642111D01*
X99727261Y-203642115D01*
X99895573Y-203697887D01*
X99999454Y-203708500D01*
X99999459Y-203708500D01*
X104000541Y-203708500D01*
X104000546Y-203708500D01*
X104104427Y-203697887D01*
X104272739Y-203642115D01*
X104423652Y-203549030D01*
X104549030Y-203423652D01*
X104642115Y-203272739D01*
X104697887Y-203104427D01*
X104708500Y-203000546D01*
X104708500Y-198999454D01*
X104697887Y-198895573D01*
X104642115Y-198727261D01*
X104642111Y-198727255D01*
X104642110Y-198727252D01*
X104549032Y-198576351D01*
X104549029Y-198576347D01*
X104423652Y-198450970D01*
X104423648Y-198450967D01*
X104272747Y-198357889D01*
X104272741Y-198357886D01*
X104272739Y-198357885D01*
X104232529Y-198344561D01*
X104104428Y-198302113D01*
X104000553Y-198291500D01*
X104000546Y-198291500D01*
X99999454Y-198291500D01*
X99999446Y-198291500D01*
X99895571Y-198302113D01*
X99727263Y-198357884D01*
X99727252Y-198357889D01*
X99576351Y-198450967D01*
X99576347Y-198450970D01*
X99450970Y-198576347D01*
X99450967Y-198576351D01*
X99357889Y-198727252D01*
X99357884Y-198727263D01*
X99302113Y-198895571D01*
X99291500Y-198999446D01*
X99291500Y-203000553D01*
X89028789Y-203000553D01*
X88476909Y-202748233D01*
X86877145Y-201976437D01*
X85293681Y-201171728D01*
X83727194Y-200334450D01*
X82178354Y-199464962D01*
X80647709Y-198563566D01*
X80558684Y-198509891D01*
X80557314Y-198509149D01*
X80510438Y-198480897D01*
X80510430Y-198480893D01*
X80220052Y-198344471D01*
X80220047Y-198344469D01*
X80171235Y-198327432D01*
X79917114Y-198238737D01*
X79917109Y-198238735D01*
X79917104Y-198238734D01*
X79917105Y-198238734D01*
X79697523Y-198186761D01*
X79604893Y-198164836D01*
X79604889Y-198164835D01*
X79604883Y-198164834D01*
X79286722Y-198123555D01*
X79286709Y-198123554D01*
X78965974Y-198115334D01*
X78965963Y-198115334D01*
X78646101Y-198140260D01*
X78646091Y-198140261D01*
X78330498Y-198198068D01*
X78330484Y-198198071D01*
X78022551Y-198288141D01*
X78022545Y-198288143D01*
X77725547Y-198409516D01*
X77442653Y-198560898D01*
X77442636Y-198560908D01*
X77176914Y-198740654D01*
X77176886Y-198740675D01*
X77136983Y-198774144D01*
X77136644Y-198774403D01*
X72252545Y-202872648D01*
X72252463Y-202872683D01*
X72089134Y-203009686D01*
X71870980Y-203235448D01*
X71863982Y-203242691D01*
X71840469Y-203272747D01*
X71664335Y-203497895D01*
X71492374Y-203772517D01*
X71349965Y-204063575D01*
X71333815Y-204107734D01*
X71292301Y-204163933D01*
X71226994Y-204188766D01*
X71158627Y-204174349D01*
X71108908Y-204125260D01*
X71106875Y-204121436D01*
X71063683Y-204036668D01*
X71016062Y-203943206D01*
X70972417Y-203875998D01*
X70804362Y-203617214D01*
X70804359Y-203617211D01*
X70804357Y-203617207D01*
X70559734Y-203315124D01*
X70284876Y-203040266D01*
X69982793Y-202795643D01*
X69982790Y-202795641D01*
X69982785Y-202795637D01*
X69656799Y-202583940D01*
X69310456Y-202407469D01*
X68947569Y-202268169D01*
X68947562Y-202268167D01*
X68572099Y-202167562D01*
X68572095Y-202167561D01*
X68572094Y-202167561D01*
X68188177Y-202106754D01*
X67800001Y-202086411D01*
X67799999Y-202086411D01*
X67411822Y-202106754D01*
X67027906Y-202167561D01*
X67027904Y-202167561D01*
X66652430Y-202268169D01*
X66289543Y-202407469D01*
X65943201Y-202583940D01*
X65617214Y-202795637D01*
X65315128Y-203040262D01*
X65315120Y-203040269D01*
X65040269Y-203315120D01*
X65040262Y-203315128D01*
X64795637Y-203617214D01*
X64583940Y-203943201D01*
X64407469Y-204289543D01*
X64268169Y-204652430D01*
X64167561Y-205027904D01*
X64167561Y-205027906D01*
X64106754Y-205411822D01*
X64086411Y-205799999D01*
X64086411Y-205800000D01*
X64106754Y-206188177D01*
X64121789Y-206283102D01*
X64167562Y-206572099D01*
X64213596Y-206743902D01*
X64268169Y-206947569D01*
X64407469Y-207310456D01*
X64583940Y-207656799D01*
X64795637Y-207982785D01*
X64795641Y-207982790D01*
X64795643Y-207982793D01*
X65040261Y-208284870D01*
X65040262Y-208284871D01*
X65040269Y-208284879D01*
X65151033Y-208395643D01*
X65184518Y-208456966D01*
X65179534Y-208526658D01*
X65137662Y-208582591D01*
X65072198Y-208607008D01*
X65003925Y-208592156D01*
X64990770Y-208583861D01*
X63956252Y-207836997D01*
X63925993Y-207814239D01*
X62351258Y-206629880D01*
X62347514Y-206626827D01*
X62156788Y-206458391D01*
X62156761Y-206458367D01*
X62150767Y-206452291D01*
X62063914Y-206351198D01*
X61986143Y-206260676D01*
X61981050Y-206253849D01*
X61844259Y-206041451D01*
X61840148Y-206033985D01*
X61813949Y-205977542D01*
X61733788Y-205804843D01*
X61730739Y-205796884D01*
X61656815Y-205555311D01*
X61654887Y-205547013D01*
X61614800Y-205297588D01*
X61614028Y-205289089D01*
X61612326Y-205210891D01*
X61608530Y-205036513D01*
X61608931Y-205028012D01*
X61638132Y-204777074D01*
X61639698Y-204768693D01*
X61669810Y-204652438D01*
X61703045Y-204524127D01*
X61705738Y-204516063D01*
X61802035Y-204282493D01*
X61805808Y-204274873D01*
X61933237Y-204056714D01*
X61938031Y-204049670D01*
X62094170Y-203851066D01*
X62099880Y-203844751D01*
X62283374Y-203667909D01*
X62286502Y-203665095D01*
X62362977Y-203600927D01*
X62362978Y-203600924D01*
X62372717Y-203592753D01*
X62372721Y-203592748D01*
X72911099Y-194750000D01*
X99300000Y-194750000D01*
X100520977Y-194750000D01*
X100500000Y-194875706D01*
X100500000Y-195124294D01*
X100520977Y-195250000D01*
X99300001Y-195250000D01*
X99300001Y-196999986D01*
X99310494Y-197102696D01*
X99310494Y-197102698D01*
X99365640Y-197269119D01*
X99365645Y-197269130D01*
X99457680Y-197418340D01*
X99457683Y-197418344D01*
X99581655Y-197542316D01*
X99581659Y-197542319D01*
X99730869Y-197634354D01*
X99730880Y-197634359D01*
X99897302Y-197689505D01*
X100000020Y-197699999D01*
X101749999Y-197699999D01*
X101750000Y-197699998D01*
X101750000Y-196484040D01*
X101752262Y-196484613D01*
X101937957Y-196500000D01*
X102062043Y-196500000D01*
X102247738Y-196484613D01*
X102250000Y-196484040D01*
X102250000Y-197699999D01*
X103999972Y-197699999D01*
X103999986Y-197699998D01*
X104102696Y-197689505D01*
X104102698Y-197689505D01*
X104269119Y-197634359D01*
X104269130Y-197634354D01*
X104418340Y-197542319D01*
X104418344Y-197542316D01*
X104542316Y-197418344D01*
X104542319Y-197418340D01*
X104634354Y-197269130D01*
X104634359Y-197269119D01*
X104689505Y-197102697D01*
X104699999Y-196999986D01*
X104700000Y-196999973D01*
X104700000Y-195250000D01*
X103479023Y-195250000D01*
X103500000Y-195124294D01*
X103500000Y-194875706D01*
X103479023Y-194750000D01*
X104699999Y-194750000D01*
X104699999Y-193000028D01*
X104699998Y-193000013D01*
X104689505Y-192897303D01*
X104689505Y-192897301D01*
X104634359Y-192730880D01*
X104634354Y-192730869D01*
X104542319Y-192581659D01*
X104542316Y-192581655D01*
X104418344Y-192457683D01*
X104418340Y-192457680D01*
X104269130Y-192365645D01*
X104269119Y-192365640D01*
X104102697Y-192310494D01*
X103999986Y-192300000D01*
X102250000Y-192300000D01*
X102250000Y-193515959D01*
X102247738Y-193515387D01*
X102062043Y-193500000D01*
X101937957Y-193500000D01*
X101752262Y-193515387D01*
X101750000Y-193515959D01*
X101750000Y-192300000D01*
X100000028Y-192300000D01*
X100000012Y-192300001D01*
X99897303Y-192310494D01*
X99897301Y-192310494D01*
X99730880Y-192365640D01*
X99730869Y-192365645D01*
X99581659Y-192457680D01*
X99581655Y-192457683D01*
X99457683Y-192581655D01*
X99457680Y-192581659D01*
X99365645Y-192730869D01*
X99365640Y-192730880D01*
X99310494Y-192897302D01*
X99300000Y-193000013D01*
X99300000Y-194750000D01*
X72911099Y-194750000D01*
X80676702Y-188233886D01*
X80676711Y-188233875D01*
X80677610Y-188233122D01*
X80677644Y-188233090D01*
X80760987Y-188163165D01*
X80761639Y-188162490D01*
X103899500Y-188162490D01*
X103933470Y-188485691D01*
X103933471Y-188485696D01*
X104001035Y-188803565D01*
X104001036Y-188803566D01*
X104001037Y-188803570D01*
X104101462Y-189112645D01*
X104233643Y-189409529D01*
X104233646Y-189409536D01*
X104396129Y-189690965D01*
X104396131Y-189690968D01*
X104396133Y-189690971D01*
X104587152Y-189953886D01*
X104804607Y-190195393D01*
X105046114Y-190412848D01*
X105309029Y-190603867D01*
X105309033Y-190603869D01*
X105309034Y-190603870D01*
X105590463Y-190766353D01*
X105590467Y-190766354D01*
X105590471Y-190766357D01*
X105887355Y-190898538D01*
X106196430Y-190998963D01*
X106196433Y-190998963D01*
X106196434Y-190998964D01*
X106240233Y-191008273D01*
X106514309Y-191066530D01*
X106837510Y-191100500D01*
X106837515Y-191100500D01*
X143162485Y-191100500D01*
X143162490Y-191100500D01*
X143485691Y-191066530D01*
X143803570Y-190998963D01*
X144112645Y-190898538D01*
X144409529Y-190766357D01*
X144690971Y-190603867D01*
X144953886Y-190412848D01*
X145195393Y-190195393D01*
X145412848Y-189953886D01*
X145603867Y-189690971D01*
X145766357Y-189409529D01*
X145898538Y-189112645D01*
X145998963Y-188803570D01*
X146066530Y-188485691D01*
X146100500Y-188162490D01*
X146100500Y-188000000D01*
X146100500Y-187898024D01*
X146100500Y-181947575D01*
X146100500Y-181837510D01*
X146066530Y-181514309D01*
X145998963Y-181196430D01*
X145898538Y-180887355D01*
X145766357Y-180590471D01*
X145766354Y-180590467D01*
X145766353Y-180590463D01*
X145603870Y-180309034D01*
X145603869Y-180309033D01*
X145603867Y-180309029D01*
X145412848Y-180046114D01*
X145195393Y-179804607D01*
X144953886Y-179587152D01*
X144690971Y-179396133D01*
X144690968Y-179396131D01*
X144690965Y-179396129D01*
X144409536Y-179233646D01*
X144409529Y-179233643D01*
X144112645Y-179101462D01*
X144112640Y-179101460D01*
X144112637Y-179101459D01*
X143935826Y-179044009D01*
X143803570Y-179001037D01*
X143803567Y-179001036D01*
X143803566Y-179001036D01*
X143803565Y-179001035D01*
X143529494Y-178942780D01*
X143485691Y-178933470D01*
X143162490Y-178899500D01*
X143105085Y-178899500D01*
X107101976Y-178899500D01*
X107000000Y-178899500D01*
X106837510Y-178899500D01*
X106514309Y-178933470D01*
X106514305Y-178933470D01*
X106514303Y-178933471D01*
X106196434Y-179001035D01*
X106196433Y-179001036D01*
X105887362Y-179101459D01*
X105590470Y-179233643D01*
X105590463Y-179233646D01*
X105309034Y-179396129D01*
X105231543Y-179452430D01*
X105046114Y-179587152D01*
X104804607Y-179804607D01*
X104587152Y-180046114D01*
X104466758Y-180211822D01*
X104396129Y-180309034D01*
X104233646Y-180590463D01*
X104233643Y-180590470D01*
X104101459Y-180887362D01*
X104001036Y-181196433D01*
X104001035Y-181196434D01*
X103936455Y-181500265D01*
X103933470Y-181514309D01*
X103899500Y-181837510D01*
X103899500Y-181894915D01*
X103899500Y-187898024D01*
X103899500Y-188000000D01*
X103899500Y-188162490D01*
X80761639Y-188162490D01*
X80986751Y-187929396D01*
X81186841Y-187673307D01*
X81359066Y-187397706D01*
X81359087Y-187397664D01*
X81501533Y-187105619D01*
X81501537Y-187105611D01*
X81612694Y-186800223D01*
X81691319Y-186484889D01*
X81736549Y-186163063D01*
X81743261Y-185970860D01*
X81747891Y-185838289D01*
X81747890Y-185838284D01*
X81747891Y-185838273D01*
X81725219Y-185514076D01*
X81668781Y-185194026D01*
X81579197Y-184881629D01*
X81457447Y-184580307D01*
X81358084Y-184393446D01*
X81343991Y-184325014D01*
X81369131Y-184259824D01*
X81425525Y-184218575D01*
X81435449Y-184215463D01*
X81747562Y-184131833D01*
X82110453Y-183992532D01*
X82456795Y-183816062D01*
X82782793Y-183604357D01*
X83084876Y-183359734D01*
X83359734Y-183084876D01*
X83604357Y-182782793D01*
X83816062Y-182456795D01*
X83992532Y-182110453D01*
X84131833Y-181747562D01*
X84232438Y-181372099D01*
X84293246Y-180988176D01*
X84313589Y-180600000D01*
X84293246Y-180211824D01*
X84232438Y-179827901D01*
X84131833Y-179452438D01*
X83992532Y-179089547D01*
X83816062Y-178743206D01*
X83604357Y-178417207D01*
X83359734Y-178115124D01*
X83084876Y-177840266D01*
X82782793Y-177595643D01*
X82782790Y-177595641D01*
X82782785Y-177595637D01*
X82456799Y-177383940D01*
X82110456Y-177207469D01*
X81747569Y-177068169D01*
X81747562Y-177068167D01*
X81372099Y-176967562D01*
X81372095Y-176967561D01*
X81372094Y-176967561D01*
X80988177Y-176906754D01*
X80600001Y-176886411D01*
X80599999Y-176886411D01*
X80211822Y-176906754D01*
X79827906Y-176967561D01*
X79827904Y-176967561D01*
X79452430Y-177068169D01*
X79089543Y-177207469D01*
X78743201Y-177383940D01*
X78417214Y-177595637D01*
X78115128Y-177840262D01*
X78115120Y-177840269D01*
X77840269Y-178115120D01*
X77840262Y-178115128D01*
X77595637Y-178417214D01*
X77383940Y-178743201D01*
X77207589Y-179089308D01*
X77159614Y-179140104D01*
X77091793Y-179156899D01*
X77025658Y-179134361D01*
X77002114Y-179112719D01*
X76992666Y-179101459D01*
X71243609Y-172250000D01*
X122400000Y-172250000D01*
X123316314Y-172250000D01*
X123290507Y-172290156D01*
X123250000Y-172428111D01*
X123250000Y-172571889D01*
X123290507Y-172709844D01*
X123316314Y-172750000D01*
X122400001Y-172750000D01*
X122400001Y-173299986D01*
X122410494Y-173402697D01*
X122465641Y-173569119D01*
X122465643Y-173569124D01*
X122557684Y-173718345D01*
X122681654Y-173842315D01*
X122830875Y-173934356D01*
X122830880Y-173934358D01*
X122997302Y-173989505D01*
X122997309Y-173989506D01*
X123100019Y-173999999D01*
X123499999Y-173999999D01*
X123500000Y-173999998D01*
X123500000Y-172935501D01*
X123607685Y-172984680D01*
X123714237Y-173000000D01*
X123785763Y-173000000D01*
X123892315Y-172984680D01*
X124000000Y-172935501D01*
X124000000Y-173999999D01*
X124399972Y-173999999D01*
X124399986Y-173999998D01*
X124502697Y-173989505D01*
X124669119Y-173934358D01*
X124669124Y-173934356D01*
X124818345Y-173842315D01*
X124942317Y-173718343D01*
X125034338Y-173569153D01*
X125086286Y-173522428D01*
X125155248Y-173511205D01*
X125219331Y-173539048D01*
X125229397Y-173548446D01*
X125349228Y-173673476D01*
X125535153Y-173810985D01*
X125741643Y-173915095D01*
X125962757Y-173982811D01*
X126192135Y-174012184D01*
X126423178Y-174002369D01*
X126649238Y-173953649D01*
X126863813Y-173867426D01*
X127060730Y-173746179D01*
X127234324Y-173593398D01*
X127379600Y-173413476D01*
X127492380Y-173211591D01*
X127569419Y-172993550D01*
X127597325Y-172830798D01*
X127608499Y-172765634D01*
X127608500Y-172765623D01*
X127608500Y-172292281D01*
X127593802Y-172119586D01*
X127535530Y-171895793D01*
X127535529Y-171895789D01*
X127440283Y-171685080D01*
X127440276Y-171685068D01*
X127310790Y-171493486D01*
X127310786Y-171493481D01*
X127310783Y-171493477D01*
X127150772Y-171326524D01*
X126964847Y-171189015D01*
X126964846Y-171189014D01*
X126964844Y-171189013D01*
X126758358Y-171084905D01*
X126630888Y-171045867D01*
X126537243Y-171017189D01*
X126537241Y-171017188D01*
X126537242Y-171017188D01*
X126307859Y-170987815D01*
X126076827Y-170997630D01*
X126076821Y-170997630D01*
X125850759Y-171046351D01*
X125636190Y-171132572D01*
X125439270Y-171253820D01*
X125265679Y-171406599D01*
X125265671Y-171406607D01*
X125236096Y-171443235D01*
X125178665Y-171483028D01*
X125108838Y-171485453D01*
X125048784Y-171449742D01*
X125034082Y-171430432D01*
X124942315Y-171281654D01*
X124818345Y-171157684D01*
X124669124Y-171065643D01*
X124669119Y-171065641D01*
X124502697Y-171010494D01*
X124502690Y-171010493D01*
X124399986Y-171000000D01*
X124000000Y-171000000D01*
X124000000Y-172064498D01*
X123892315Y-172015320D01*
X123785763Y-172000000D01*
X123714237Y-172000000D01*
X123607685Y-172015320D01*
X123500000Y-172064498D01*
X123500000Y-171000000D01*
X123100028Y-171000000D01*
X123100012Y-171000001D01*
X122997302Y-171010494D01*
X122830880Y-171065641D01*
X122830875Y-171065643D01*
X122681654Y-171157684D01*
X122557684Y-171281654D01*
X122465643Y-171430875D01*
X122465641Y-171430880D01*
X122410494Y-171597302D01*
X122410493Y-171597309D01*
X122400000Y-171700013D01*
X122400000Y-172250000D01*
X71243609Y-172250000D01*
X66901720Y-167075539D01*
X94274395Y-167075539D01*
X94294738Y-167463716D01*
X94355545Y-167847632D01*
X94355545Y-167847634D01*
X94456153Y-168223108D01*
X94595453Y-168585995D01*
X94771924Y-168932338D01*
X94983621Y-169258324D01*
X94983625Y-169258329D01*
X94983627Y-169258332D01*
X95228250Y-169560415D01*
X95503108Y-169835273D01*
X95805191Y-170079896D01*
X95805195Y-170079898D01*
X95805198Y-170079901D01*
X96131184Y-170291598D01*
X96131189Y-170291601D01*
X96477531Y-170468071D01*
X96840422Y-170607372D01*
X97215885Y-170707977D01*
X97599808Y-170768785D01*
X97966514Y-170788002D01*
X97987983Y-170789128D01*
X97987984Y-170789128D01*
X97987985Y-170789128D01*
X98008328Y-170788061D01*
X98376160Y-170768785D01*
X98760083Y-170707977D01*
X99135546Y-170607372D01*
X99498437Y-170468071D01*
X99844779Y-170291601D01*
X100170777Y-170079896D01*
X100472860Y-169835273D01*
X100747718Y-169560415D01*
X100992341Y-169258332D01*
X101204046Y-168932334D01*
X101380516Y-168585992D01*
X101519817Y-168223101D01*
X101620422Y-167847638D01*
X101681230Y-167463715D01*
X101701573Y-167075539D01*
X101681230Y-166687363D01*
X101659132Y-166547844D01*
X120500000Y-166547844D01*
X120506401Y-166607372D01*
X120506403Y-166607379D01*
X120556645Y-166742086D01*
X120556649Y-166742093D01*
X120642809Y-166857187D01*
X120642812Y-166857190D01*
X120757906Y-166943350D01*
X120757913Y-166943354D01*
X120892620Y-166993596D01*
X120892627Y-166993598D01*
X120952155Y-166999999D01*
X120952172Y-167000000D01*
X122250000Y-167000000D01*
X122250000Y-165865085D01*
X122311849Y-165885182D01*
X122452836Y-165900000D01*
X122547164Y-165900000D01*
X122688151Y-165885182D01*
X122750000Y-165865085D01*
X122750000Y-167000000D01*
X124047828Y-167000000D01*
X124047844Y-166999999D01*
X124107372Y-166993598D01*
X124107379Y-166993596D01*
X124242086Y-166943354D01*
X124242093Y-166943350D01*
X124357187Y-166857190D01*
X124357190Y-166857187D01*
X124443350Y-166742093D01*
X124443354Y-166742086D01*
X124493596Y-166607379D01*
X124493598Y-166607372D01*
X124499999Y-166547844D01*
X124500000Y-166547827D01*
X124500000Y-165250000D01*
X123366967Y-165250000D01*
X123400000Y-165094594D01*
X123400000Y-165000000D01*
X125486807Y-165000000D01*
X125505557Y-165274130D01*
X125505558Y-165274132D01*
X125561458Y-165543141D01*
X125561463Y-165543158D01*
X125653476Y-165802056D01*
X125779889Y-166046024D01*
X125779893Y-166046030D01*
X125938340Y-166270499D01*
X125938343Y-166270502D01*
X126125889Y-166471314D01*
X126339031Y-166644718D01*
X126339033Y-166644719D01*
X126339034Y-166644720D01*
X126573801Y-166787485D01*
X126734272Y-166857187D01*
X126825823Y-166896953D01*
X127090404Y-166971085D01*
X127329720Y-167003978D01*
X127362614Y-167008500D01*
X127362615Y-167008500D01*
X127637386Y-167008500D01*
X127666733Y-167004466D01*
X127909596Y-166971085D01*
X128174177Y-166896953D01*
X128426200Y-166787484D01*
X128660969Y-166644718D01*
X128874111Y-166471314D01*
X129061657Y-166270502D01*
X129220111Y-166046023D01*
X129243958Y-166000001D01*
X132786884Y-166000001D01*
X132805313Y-166210649D01*
X132805315Y-166210660D01*
X132860041Y-166414902D01*
X132860043Y-166414906D01*
X132860044Y-166414910D01*
X132877540Y-166452430D01*
X132949410Y-166606556D01*
X132949411Y-166606558D01*
X133070700Y-166779778D01*
X133220221Y-166929299D01*
X133220224Y-166929301D01*
X133393442Y-167050589D01*
X133585090Y-167139956D01*
X133789345Y-167194686D01*
X133939812Y-167207850D01*
X133999998Y-167213116D01*
X134000000Y-167213116D01*
X134000002Y-167213116D01*
X134052663Y-167208508D01*
X134210655Y-167194686D01*
X134414910Y-167139956D01*
X134606558Y-167050589D01*
X134779776Y-166929301D01*
X134929301Y-166779776D01*
X135050589Y-166606558D01*
X135139956Y-166414910D01*
X135194686Y-166210655D01*
X135213116Y-166000001D01*
X143786884Y-166000001D01*
X143805313Y-166210649D01*
X143805315Y-166210660D01*
X143860041Y-166414902D01*
X143860043Y-166414906D01*
X143860044Y-166414910D01*
X143877540Y-166452430D01*
X143949410Y-166606556D01*
X143949411Y-166606558D01*
X144070700Y-166779778D01*
X144220221Y-166929299D01*
X144220224Y-166929301D01*
X144393442Y-167050589D01*
X144585090Y-167139956D01*
X144789345Y-167194686D01*
X144939812Y-167207850D01*
X144999998Y-167213116D01*
X145000000Y-167213116D01*
X145000002Y-167213116D01*
X145052663Y-167208508D01*
X145210655Y-167194686D01*
X145414910Y-167139956D01*
X145553053Y-167075539D01*
X148298427Y-167075539D01*
X148318770Y-167463716D01*
X148379577Y-167847632D01*
X148379577Y-167847634D01*
X148480185Y-168223108D01*
X148619485Y-168585995D01*
X148795956Y-168932338D01*
X149007653Y-169258324D01*
X149007657Y-169258329D01*
X149007659Y-169258332D01*
X149252282Y-169560415D01*
X149527140Y-169835273D01*
X149829223Y-170079896D01*
X149829227Y-170079898D01*
X149829230Y-170079901D01*
X150155216Y-170291598D01*
X150155221Y-170291601D01*
X150501563Y-170468071D01*
X150864454Y-170607372D01*
X151239917Y-170707977D01*
X151623840Y-170768785D01*
X151990546Y-170788002D01*
X152012015Y-170789128D01*
X152012016Y-170789128D01*
X152012017Y-170789128D01*
X152032360Y-170788061D01*
X152400192Y-170768785D01*
X152784115Y-170707977D01*
X153159578Y-170607372D01*
X153522469Y-170468071D01*
X153868811Y-170291601D01*
X154194809Y-170079896D01*
X154496892Y-169835273D01*
X154771750Y-169560415D01*
X155016373Y-169258332D01*
X155228078Y-168932334D01*
X155404548Y-168585992D01*
X155543849Y-168223101D01*
X155644454Y-167847638D01*
X155705262Y-167463715D01*
X155725605Y-167075539D01*
X155705262Y-166687363D01*
X155644454Y-166303440D01*
X155543849Y-165927977D01*
X155404548Y-165565086D01*
X155228078Y-165218745D01*
X155131937Y-165070700D01*
X155016378Y-164892753D01*
X155016375Y-164892750D01*
X155016373Y-164892746D01*
X154771750Y-164590663D01*
X154496892Y-164315805D01*
X154194809Y-164071182D01*
X154194806Y-164071180D01*
X154194801Y-164071176D01*
X153868815Y-163859479D01*
X153522472Y-163683008D01*
X153159585Y-163543708D01*
X153159578Y-163543706D01*
X152784115Y-163443101D01*
X152784111Y-163443100D01*
X152784110Y-163443100D01*
X152400193Y-163382293D01*
X152012017Y-163361950D01*
X152012015Y-163361950D01*
X151623838Y-163382293D01*
X151239922Y-163443100D01*
X151239920Y-163443100D01*
X150864446Y-163543708D01*
X150501559Y-163683008D01*
X150155217Y-163859479D01*
X149829230Y-164071176D01*
X149527144Y-164315801D01*
X149527136Y-164315808D01*
X149252285Y-164590659D01*
X149252278Y-164590667D01*
X149007653Y-164892753D01*
X148795956Y-165218740D01*
X148619485Y-165565082D01*
X148480185Y-165927969D01*
X148379577Y-166303443D01*
X148379577Y-166303445D01*
X148318770Y-166687361D01*
X148298427Y-167075538D01*
X148298427Y-167075539D01*
X145553053Y-167075539D01*
X145606558Y-167050589D01*
X145779776Y-166929301D01*
X145929301Y-166779776D01*
X146050589Y-166606558D01*
X146139956Y-166414910D01*
X146194686Y-166210655D01*
X146213116Y-166000000D01*
X146194686Y-165789345D01*
X146139956Y-165585090D01*
X146050589Y-165393442D01*
X145929301Y-165220224D01*
X145929299Y-165220221D01*
X145779778Y-165070700D01*
X145606558Y-164949411D01*
X145606556Y-164949410D01*
X145512189Y-164905406D01*
X145414910Y-164860044D01*
X145414906Y-164860043D01*
X145414902Y-164860041D01*
X145210660Y-164805315D01*
X145210656Y-164805314D01*
X145210655Y-164805314D01*
X145210654Y-164805313D01*
X145210649Y-164805313D01*
X145000002Y-164786884D01*
X144999998Y-164786884D01*
X144789350Y-164805313D01*
X144789339Y-164805315D01*
X144585097Y-164860041D01*
X144585088Y-164860045D01*
X144393443Y-164949410D01*
X144393441Y-164949411D01*
X144220221Y-165070700D01*
X144070700Y-165220221D01*
X143949411Y-165393441D01*
X143949410Y-165393443D01*
X143860045Y-165585088D01*
X143860041Y-165585097D01*
X143805315Y-165789339D01*
X143805313Y-165789350D01*
X143786884Y-165999998D01*
X143786884Y-166000001D01*
X135213116Y-166000001D01*
X135213116Y-166000000D01*
X135194686Y-165789345D01*
X135139956Y-165585090D01*
X135050589Y-165393442D01*
X134929301Y-165220224D01*
X134929299Y-165220221D01*
X134779778Y-165070700D01*
X134606558Y-164949411D01*
X134606556Y-164949410D01*
X134512189Y-164905406D01*
X134414910Y-164860044D01*
X134414906Y-164860043D01*
X134414902Y-164860041D01*
X134210660Y-164805315D01*
X134210656Y-164805314D01*
X134210655Y-164805314D01*
X134210654Y-164805313D01*
X134210649Y-164805313D01*
X134000002Y-164786884D01*
X133999998Y-164786884D01*
X133789350Y-164805313D01*
X133789339Y-164805315D01*
X133585097Y-164860041D01*
X133585088Y-164860045D01*
X133393443Y-164949410D01*
X133393441Y-164949411D01*
X133220221Y-165070700D01*
X133070700Y-165220221D01*
X132949411Y-165393441D01*
X132949410Y-165393443D01*
X132860045Y-165585088D01*
X132860041Y-165585097D01*
X132805315Y-165789339D01*
X132805313Y-165789350D01*
X132786884Y-165999998D01*
X132786884Y-166000001D01*
X129243958Y-166000001D01*
X129346523Y-165802058D01*
X129438538Y-165543153D01*
X129438539Y-165543146D01*
X129438541Y-165543141D01*
X129469648Y-165393443D01*
X129494442Y-165274130D01*
X129513193Y-165000000D01*
X129494442Y-164725870D01*
X129466346Y-164590667D01*
X129438541Y-164456858D01*
X129438536Y-164456841D01*
X129395046Y-164334472D01*
X129346523Y-164197942D01*
X129220111Y-163953977D01*
X129220110Y-163953975D01*
X129220106Y-163953969D01*
X129061659Y-163729500D01*
X129006291Y-163670216D01*
X128874111Y-163528686D01*
X128660969Y-163355282D01*
X128660967Y-163355281D01*
X128660965Y-163355279D01*
X128426198Y-163212514D01*
X128174178Y-163103047D01*
X127909602Y-163028916D01*
X127909597Y-163028915D01*
X127909596Y-163028915D01*
X127745811Y-163006403D01*
X127637386Y-162991500D01*
X127637385Y-162991500D01*
X127362615Y-162991500D01*
X127362614Y-162991500D01*
X127090404Y-163028915D01*
X127090397Y-163028916D01*
X126825821Y-163103047D01*
X126573801Y-163212514D01*
X126339034Y-163355279D01*
X126125892Y-163528683D01*
X125938340Y-163729500D01*
X125779893Y-163953969D01*
X125779889Y-163953975D01*
X125653476Y-164197943D01*
X125561463Y-164456841D01*
X125561458Y-164456858D01*
X125505558Y-164725867D01*
X125505557Y-164725869D01*
X125486807Y-165000000D01*
X123400000Y-165000000D01*
X123400000Y-164905406D01*
X123366967Y-164750000D01*
X124500000Y-164750000D01*
X124500000Y-163452172D01*
X124499999Y-163452155D01*
X124493598Y-163392627D01*
X124493596Y-163392620D01*
X124443354Y-163257913D01*
X124443350Y-163257906D01*
X124357190Y-163142812D01*
X124357187Y-163142809D01*
X124242093Y-163056649D01*
X124242086Y-163056645D01*
X124107379Y-163006403D01*
X124107372Y-163006401D01*
X124047844Y-163000000D01*
X122750000Y-163000000D01*
X122750000Y-164134914D01*
X122688151Y-164114818D01*
X122547164Y-164100000D01*
X122452836Y-164100000D01*
X122311849Y-164114818D01*
X122250000Y-164134914D01*
X122250000Y-163000000D01*
X120952155Y-163000000D01*
X120892627Y-163006401D01*
X120892620Y-163006403D01*
X120757913Y-163056645D01*
X120757906Y-163056649D01*
X120642812Y-163142809D01*
X120642809Y-163142812D01*
X120556649Y-163257906D01*
X120556645Y-163257913D01*
X120506403Y-163392620D01*
X120506401Y-163392627D01*
X120500000Y-163452155D01*
X120500000Y-164750000D01*
X121633033Y-164750000D01*
X121600000Y-164905406D01*
X121600000Y-165094594D01*
X121633033Y-165250000D01*
X120500000Y-165250000D01*
X120500000Y-166547844D01*
X101659132Y-166547844D01*
X101620422Y-166303440D01*
X101519817Y-165927977D01*
X101380516Y-165565086D01*
X101204046Y-165218745D01*
X101107905Y-165070700D01*
X100992346Y-164892753D01*
X100992343Y-164892750D01*
X100992341Y-164892746D01*
X100747718Y-164590663D01*
X100472860Y-164315805D01*
X100170777Y-164071182D01*
X100170774Y-164071180D01*
X100170769Y-164071176D01*
X99844783Y-163859479D01*
X99498440Y-163683008D01*
X99135553Y-163543708D01*
X99135546Y-163543706D01*
X98760083Y-163443101D01*
X98760079Y-163443100D01*
X98760078Y-163443100D01*
X98376161Y-163382293D01*
X97987985Y-163361950D01*
X97987983Y-163361950D01*
X97599806Y-163382293D01*
X97215890Y-163443100D01*
X97215888Y-163443100D01*
X96840414Y-163543708D01*
X96477527Y-163683008D01*
X96131185Y-163859479D01*
X95805198Y-164071176D01*
X95503112Y-164315801D01*
X95503104Y-164315808D01*
X95228253Y-164590659D01*
X95228246Y-164590667D01*
X94983621Y-164892753D01*
X94771924Y-165218740D01*
X94595453Y-165565082D01*
X94456153Y-165927969D01*
X94355545Y-166303443D01*
X94355545Y-166303445D01*
X94294738Y-166687361D01*
X94274395Y-167075538D01*
X94274395Y-167075539D01*
X66901720Y-167075539D01*
X63472094Y-162988270D01*
X63444083Y-162924262D01*
X63455122Y-162855270D01*
X63501709Y-162803199D01*
X63534986Y-162788792D01*
X63747562Y-162731833D01*
X64110453Y-162592532D01*
X64456795Y-162416062D01*
X64782793Y-162204357D01*
X65084876Y-161959734D01*
X65359734Y-161684876D01*
X65604357Y-161382793D01*
X65816062Y-161056795D01*
X65845000Y-161000000D01*
X134736654Y-161000000D01*
X134752341Y-161239348D01*
X134756017Y-161295424D01*
X134756018Y-161295436D01*
X134813774Y-161585789D01*
X134813779Y-161585809D01*
X134908937Y-161866137D01*
X134908941Y-161866147D01*
X135039879Y-162131663D01*
X135039888Y-162131678D01*
X135060287Y-162162207D01*
X135189682Y-162355861D01*
X135204368Y-162377839D01*
X135399572Y-162600427D01*
X135549409Y-162731830D01*
X135622162Y-162795633D01*
X135868327Y-162960115D01*
X135868330Y-162960116D01*
X135868336Y-162960120D01*
X136133852Y-163091058D01*
X136133862Y-163091062D01*
X136414190Y-163186220D01*
X136414194Y-163186221D01*
X136414203Y-163186224D01*
X136610493Y-163225269D01*
X136704563Y-163243981D01*
X136704564Y-163243981D01*
X136704574Y-163243983D01*
X137000000Y-163263346D01*
X137295426Y-163243983D01*
X137585797Y-163186224D01*
X137585809Y-163186220D01*
X137866137Y-163091062D01*
X137866147Y-163091058D01*
X138131663Y-162960120D01*
X138131663Y-162960119D01*
X138131673Y-162960115D01*
X138374529Y-162797844D01*
X139750000Y-162797844D01*
X139756401Y-162857372D01*
X139756403Y-162857379D01*
X139806645Y-162992086D01*
X139806649Y-162992093D01*
X139892809Y-163107187D01*
X139892812Y-163107190D01*
X140007906Y-163193350D01*
X140007913Y-163193354D01*
X140142620Y-163243596D01*
X140142627Y-163243598D01*
X140202155Y-163249999D01*
X140202172Y-163250000D01*
X141750000Y-163250000D01*
X141750000Y-161918476D01*
X141903394Y-161950000D01*
X142048175Y-161950000D01*
X142192220Y-161935352D01*
X142250000Y-161917223D01*
X142250000Y-163250000D01*
X143797828Y-163250000D01*
X143797844Y-163249999D01*
X143857372Y-163243598D01*
X143857379Y-163243596D01*
X143992086Y-163193354D01*
X143992093Y-163193350D01*
X144107187Y-163107190D01*
X144107190Y-163107187D01*
X144193350Y-162992093D01*
X144193354Y-162992086D01*
X144243596Y-162857379D01*
X144243598Y-162857372D01*
X144249999Y-162797844D01*
X144250000Y-162797827D01*
X144250000Y-161250000D01*
X142916597Y-161250000D01*
X142943887Y-161144598D01*
X142953673Y-160951635D01*
X142924416Y-160760652D01*
X142920471Y-160750000D01*
X144250000Y-160750000D01*
X144250000Y-159202172D01*
X144249999Y-159202155D01*
X144243598Y-159142627D01*
X144243596Y-159142620D01*
X144193354Y-159007913D01*
X144193350Y-159007906D01*
X144107190Y-158892812D01*
X144107187Y-158892809D01*
X143992093Y-158806649D01*
X143992086Y-158806645D01*
X143857379Y-158756403D01*
X143857372Y-158756401D01*
X143797844Y-158750000D01*
X142250000Y-158750000D01*
X142250000Y-160081523D01*
X142096606Y-160050000D01*
X141951825Y-160050000D01*
X141807780Y-160064648D01*
X141750000Y-160082776D01*
X141750000Y-158750000D01*
X140202155Y-158750000D01*
X140142627Y-158756401D01*
X140142620Y-158756403D01*
X140007913Y-158806645D01*
X140007906Y-158806649D01*
X139892812Y-158892809D01*
X139892809Y-158892812D01*
X139806649Y-159007906D01*
X139806645Y-159007913D01*
X139756403Y-159142620D01*
X139756401Y-159142627D01*
X139750000Y-159202155D01*
X139750000Y-160750000D01*
X141083403Y-160750000D01*
X141056113Y-160855402D01*
X141046327Y-161048365D01*
X141075584Y-161239348D01*
X141079529Y-161250000D01*
X139750000Y-161250000D01*
X139750000Y-162797844D01*
X138374529Y-162797844D01*
X138377838Y-162795633D01*
X138600427Y-162600427D01*
X138795633Y-162377838D01*
X138960115Y-162131673D01*
X139091059Y-161866145D01*
X139161751Y-161657894D01*
X139186220Y-161585809D01*
X139186220Y-161585808D01*
X139186224Y-161585797D01*
X139243983Y-161295426D01*
X139263346Y-161000000D01*
X139243983Y-160704574D01*
X139186224Y-160414203D01*
X139163603Y-160347562D01*
X139091062Y-160133862D01*
X139091058Y-160133852D01*
X138960120Y-159868336D01*
X138960111Y-159868321D01*
X138957238Y-159864022D01*
X138795633Y-159622162D01*
X138688631Y-159500150D01*
X138600427Y-159399572D01*
X138377839Y-159204368D01*
X138374552Y-159202172D01*
X138256417Y-159123236D01*
X138131678Y-159039888D01*
X138131663Y-159039879D01*
X137866147Y-158908941D01*
X137866137Y-158908937D01*
X137585809Y-158813779D01*
X137585789Y-158813774D01*
X137295436Y-158756018D01*
X137295427Y-158756017D01*
X137295426Y-158756017D01*
X137000000Y-158736654D01*
X136704574Y-158756017D01*
X136704573Y-158756017D01*
X136704563Y-158756018D01*
X136414210Y-158813774D01*
X136414190Y-158813779D01*
X136133862Y-158908937D01*
X136133852Y-158908941D01*
X135868336Y-159039879D01*
X135868321Y-159039888D01*
X135622160Y-159204368D01*
X135399572Y-159399572D01*
X135204368Y-159622160D01*
X135039888Y-159868321D01*
X135039879Y-159868336D01*
X134908941Y-160133852D01*
X134908937Y-160133862D01*
X134813779Y-160414190D01*
X134813774Y-160414210D01*
X134756018Y-160704563D01*
X134756017Y-160704573D01*
X134756017Y-160704574D01*
X134736654Y-161000000D01*
X65845000Y-161000000D01*
X65992532Y-160710453D01*
X66131833Y-160347562D01*
X66232438Y-159972099D01*
X66293246Y-159588176D01*
X66313589Y-159200000D01*
X66293246Y-158811824D01*
X66232438Y-158427901D01*
X66131833Y-158052438D01*
X65992532Y-157689547D01*
X65816062Y-157343206D01*
X65764912Y-157264441D01*
X65604362Y-157017214D01*
X65604359Y-157017211D01*
X65604357Y-157017207D01*
X65359734Y-156715124D01*
X65084876Y-156440266D01*
X64782793Y-156195643D01*
X64782790Y-156195641D01*
X64782785Y-156195637D01*
X64456799Y-155983940D01*
X64110456Y-155807469D01*
X63747569Y-155668169D01*
X63747562Y-155668167D01*
X63372099Y-155567562D01*
X63372095Y-155567561D01*
X63372094Y-155567561D01*
X62988177Y-155506754D01*
X62600001Y-155486411D01*
X62599999Y-155486411D01*
X62211822Y-155506754D01*
X61827906Y-155567561D01*
X61827904Y-155567561D01*
X61452430Y-155668169D01*
X61089543Y-155807469D01*
X60743201Y-155983940D01*
X60417214Y-156195637D01*
X60115128Y-156440262D01*
X60115120Y-156440269D01*
X59840269Y-156715120D01*
X59840262Y-156715128D01*
X59595637Y-157017214D01*
X59383940Y-157343201D01*
X59205994Y-157692440D01*
X59204664Y-157691762D01*
X59163149Y-157740478D01*
X59096274Y-157760714D01*
X59029075Y-157741582D01*
X59018926Y-157734442D01*
X58763700Y-157535047D01*
X58763701Y-157535047D01*
X58763699Y-157535046D01*
X58763687Y-157535038D01*
X58488111Y-157362846D01*
X58488107Y-157362844D01*
X58447832Y-157343201D01*
X58196021Y-157220388D01*
X58196017Y-157220386D01*
X58196012Y-157220384D01*
X57890659Y-157109247D01*
X57890652Y-157109245D01*
X57890650Y-157109244D01*
X57890646Y-157109243D01*
X57665326Y-157053065D01*
X57575324Y-157030625D01*
X57253518Y-156985398D01*
X57253510Y-156985397D01*
X56928744Y-156974053D01*
X56928743Y-156974053D01*
X56604573Y-156996717D01*
X56284528Y-157053144D01*
X56284520Y-157053146D01*
X55972140Y-157142712D01*
X55972139Y-157142712D01*
X55670832Y-157264439D01*
X55670821Y-157264444D01*
X55383892Y-157416995D01*
X55383888Y-157416998D01*
X55114478Y-157598702D01*
X55072526Y-157633898D01*
X55072459Y-157633950D01*
X54989994Y-157703148D01*
X54909526Y-157770663D01*
X54909485Y-157770700D01*
X36639890Y-173100708D01*
X36636530Y-173103336D01*
X36430587Y-173253285D01*
X36423358Y-173257822D01*
X36200677Y-173377093D01*
X36192894Y-173380596D01*
X35955956Y-173468194D01*
X35947767Y-173470596D01*
X35701042Y-173524869D01*
X35692605Y-173526125D01*
X35440771Y-173546040D01*
X35432245Y-173546126D01*
X35180059Y-173531308D01*
X35171593Y-173530223D01*
X34923827Y-173480953D01*
X34915590Y-173478717D01*
X34676928Y-173395928D01*
X34669076Y-173392583D01*
X34516769Y-173314929D01*
X34444021Y-173277838D01*
X34436707Y-173273450D01*
X34229518Y-173128916D01*
X34222870Y-173123563D01*
X34037473Y-172951982D01*
X34031622Y-172945768D01*
X33884013Y-172765634D01*
X33871505Y-172750370D01*
X33866566Y-172743417D01*
X33846034Y-172709844D01*
X33761668Y-172571889D01*
X33733718Y-172526185D01*
X33731346Y-172521942D01*
X33683626Y-172428111D01*
X32836786Y-170762967D01*
X32482575Y-170032079D01*
X32471054Y-169963167D01*
X32498617Y-169898964D01*
X32556516Y-169859855D01*
X32626367Y-169858257D01*
X32685994Y-169894677D01*
X32690514Y-169899949D01*
X32840266Y-170084876D01*
X33115124Y-170359734D01*
X33417207Y-170604357D01*
X33417211Y-170604359D01*
X33417214Y-170604362D01*
X33701730Y-170789128D01*
X33743205Y-170816062D01*
X34089547Y-170992532D01*
X34452438Y-171131833D01*
X34827901Y-171232438D01*
X35211824Y-171293246D01*
X35578530Y-171312463D01*
X35599999Y-171313589D01*
X35600000Y-171313589D01*
X35600001Y-171313589D01*
X35620344Y-171312522D01*
X35988176Y-171293246D01*
X36372099Y-171232438D01*
X36747562Y-171131833D01*
X37110453Y-170992532D01*
X37456795Y-170816062D01*
X37782793Y-170604357D01*
X38084876Y-170359734D01*
X38359734Y-170084876D01*
X38604357Y-169782793D01*
X38816062Y-169456795D01*
X38992532Y-169110453D01*
X39131833Y-168747562D01*
X39232438Y-168372099D01*
X39293246Y-167988176D01*
X39313589Y-167600000D01*
X39293246Y-167211824D01*
X39232438Y-166827901D01*
X39131833Y-166452438D01*
X38992532Y-166089547D01*
X38816062Y-165743206D01*
X38808867Y-165732126D01*
X38604362Y-165417214D01*
X38604359Y-165417211D01*
X38604357Y-165417207D01*
X38359734Y-165115124D01*
X38084876Y-164840266D01*
X37782793Y-164595643D01*
X37782790Y-164595641D01*
X37782785Y-164595637D01*
X37462271Y-164387493D01*
X37416768Y-164334472D01*
X37407154Y-164265267D01*
X37436481Y-164201850D01*
X37495438Y-164164356D01*
X37508062Y-164161419D01*
X37821343Y-164105678D01*
X38132692Y-164015981D01*
X38285752Y-163953975D01*
X38432986Y-163894329D01*
X38432987Y-163894328D01*
X38432998Y-163894324D01*
X38605699Y-163802360D01*
X38718978Y-163742039D01*
X38718983Y-163742035D01*
X38718990Y-163742032D01*
X38882478Y-163631685D01*
X38987533Y-163560778D01*
X38987537Y-163560774D01*
X38987553Y-163560764D01*
X39111641Y-163456610D01*
X39189760Y-163391062D01*
X39189761Y-163391059D01*
X39196521Y-163385388D01*
X39196528Y-163385379D01*
X47930870Y-156056397D01*
X47930904Y-156056373D01*
X47937336Y-156050975D01*
X47937339Y-156050974D01*
X47978525Y-156016412D01*
X47978576Y-156016390D01*
X48020240Y-155981408D01*
X48056549Y-155950942D01*
X48056816Y-155950705D01*
X48136296Y-155883989D01*
X48356171Y-155657672D01*
X48551937Y-155410205D01*
X48721574Y-155144145D01*
X48863327Y-154862240D01*
X48975733Y-154567402D01*
X49057630Y-154262677D01*
X49108173Y-153951213D01*
X49126840Y-153636227D01*
X49113437Y-153320974D01*
X49068103Y-153008709D01*
X49068102Y-153008702D01*
X48991306Y-152702660D01*
X48991288Y-152702610D01*
X48973357Y-152653085D01*
X48973229Y-152652669D01*
X48972324Y-152650170D01*
X48937599Y-152554313D01*
X48937579Y-152554258D01*
X48937572Y-152554240D01*
X48937556Y-152553978D01*
X48937332Y-152553554D01*
X48357045Y-150895683D01*
X48048077Y-149947397D01*
X91895745Y-149947397D01*
X91899430Y-150024740D01*
X91899500Y-150027690D01*
X91899500Y-150052424D01*
X91901851Y-150077055D01*
X91902061Y-150079997D01*
X91905745Y-150157329D01*
X91905746Y-150157331D01*
X91909875Y-150174352D01*
X91912807Y-150191788D01*
X91914472Y-150209218D01*
X91929569Y-150260634D01*
X91936277Y-150283477D01*
X91937041Y-150286327D01*
X91955294Y-150361572D01*
X91955296Y-150361576D01*
X91962573Y-150377513D01*
X91968750Y-150394076D01*
X91973680Y-150410865D01*
X91973686Y-150410880D01*
X92009155Y-150479681D01*
X92010444Y-150482334D01*
X92042605Y-150552755D01*
X92052756Y-150567010D01*
X92061963Y-150582116D01*
X92069986Y-150597680D01*
X92117853Y-150658548D01*
X92119621Y-150660910D01*
X92164506Y-150723942D01*
X92164510Y-150723946D01*
X92164514Y-150723952D01*
X92177190Y-150736038D01*
X92189085Y-150749124D01*
X92199908Y-150762886D01*
X92242845Y-150800091D01*
X92258414Y-150813582D01*
X92260598Y-150815567D01*
X92316621Y-150868986D01*
X92331342Y-150878446D01*
X92345507Y-150889049D01*
X92358744Y-150900519D01*
X92425824Y-150939248D01*
X92428263Y-150940734D01*
X92493428Y-150982613D01*
X92509681Y-150989119D01*
X92525589Y-150996847D01*
X92533642Y-151001496D01*
X92540752Y-151005602D01*
X92540753Y-151005602D01*
X92540756Y-151005604D01*
X92613943Y-151030933D01*
X92616664Y-151031948D01*
X92667239Y-151052196D01*
X92688540Y-151060724D01*
X92688543Y-151060725D01*
X92705726Y-151064036D01*
X92722817Y-151068615D01*
X92739367Y-151074344D01*
X92816028Y-151085365D01*
X92818901Y-151085849D01*
X92894915Y-151100500D01*
X92912418Y-151100500D01*
X92930066Y-151101762D01*
X92947397Y-151104254D01*
X92947397Y-151104253D01*
X92947398Y-151104254D01*
X92961420Y-151103586D01*
X93024741Y-151100570D01*
X93027691Y-151100500D01*
X118242555Y-151100500D01*
X118309594Y-151120185D01*
X118355349Y-151172989D01*
X118365293Y-151242147D01*
X118365028Y-151243898D01*
X118306754Y-151611824D01*
X118286411Y-152000000D01*
X118306754Y-152388176D01*
X118367562Y-152772099D01*
X118430961Y-153008709D01*
X118468169Y-153147569D01*
X118607469Y-153510456D01*
X118783940Y-153856799D01*
X118995637Y-154182785D01*
X118995641Y-154182790D01*
X118995643Y-154182793D01*
X119240266Y-154484876D01*
X119515124Y-154759734D01*
X119817207Y-155004357D01*
X119817211Y-155004359D01*
X119817214Y-155004362D01*
X120032462Y-155144145D01*
X120143205Y-155216062D01*
X120489547Y-155392532D01*
X120852438Y-155531833D01*
X121227901Y-155632438D01*
X121611824Y-155693246D01*
X121978530Y-155712463D01*
X121999999Y-155713589D01*
X122000000Y-155713589D01*
X122000001Y-155713589D01*
X122020344Y-155712522D01*
X122388176Y-155693246D01*
X122772099Y-155632438D01*
X123147562Y-155531833D01*
X123510453Y-155392532D01*
X123856795Y-155216062D01*
X124182793Y-155004357D01*
X124484876Y-154759734D01*
X124759734Y-154484876D01*
X124903635Y-154307173D01*
X124961121Y-154267463D01*
X125030952Y-154265135D01*
X125090956Y-154300930D01*
X125096356Y-154307162D01*
X125240266Y-154484876D01*
X125515124Y-154759734D01*
X125817207Y-155004357D01*
X125817211Y-155004359D01*
X125817214Y-155004362D01*
X126032462Y-155144145D01*
X126143205Y-155216062D01*
X126489547Y-155392532D01*
X126852438Y-155531833D01*
X127227901Y-155632438D01*
X127611824Y-155693246D01*
X127978530Y-155712463D01*
X127999999Y-155713589D01*
X128000000Y-155713589D01*
X128000001Y-155713589D01*
X128020344Y-155712522D01*
X128388176Y-155693246D01*
X128772099Y-155632438D01*
X129147562Y-155531833D01*
X129510453Y-155392532D01*
X129856795Y-155216062D01*
X130182793Y-155004357D01*
X130484876Y-154759734D01*
X130759734Y-154484876D01*
X131004357Y-154182793D01*
X131216062Y-153856795D01*
X131392532Y-153510453D01*
X131531833Y-153147562D01*
X131632438Y-152772099D01*
X131693246Y-152388176D01*
X131713589Y-152000000D01*
X131693246Y-151611824D01*
X131634972Y-151243898D01*
X131643927Y-151174605D01*
X131688923Y-151121153D01*
X131755674Y-151100513D01*
X131757445Y-151100500D01*
X156912418Y-151100500D01*
X156930066Y-151101762D01*
X156947397Y-151104254D01*
X156947397Y-151104253D01*
X156947398Y-151104254D01*
X156961420Y-151103586D01*
X157024741Y-151100570D01*
X157027691Y-151100500D01*
X157052417Y-151100500D01*
X157052425Y-151100500D01*
X157077063Y-151098146D01*
X157079986Y-151097937D01*
X157157330Y-151094254D01*
X157157332Y-151094253D01*
X157157335Y-151094253D01*
X157174344Y-151090126D01*
X157191793Y-151087191D01*
X157209218Y-151085528D01*
X157283532Y-151063706D01*
X157286307Y-151062963D01*
X157361576Y-151044704D01*
X157377509Y-151037427D01*
X157394079Y-151031247D01*
X157410875Y-151026316D01*
X157479681Y-150990844D01*
X157482335Y-150989555D01*
X157512609Y-150975728D01*
X157552753Y-150957396D01*
X157567011Y-150947241D01*
X157582113Y-150938036D01*
X157597682Y-150930011D01*
X157658553Y-150882140D01*
X157660885Y-150880394D01*
X157723952Y-150835486D01*
X157736039Y-150822808D01*
X157749123Y-150810914D01*
X157762886Y-150800092D01*
X157813584Y-150741583D01*
X157815570Y-150739398D01*
X157830298Y-150723952D01*
X157868986Y-150683378D01*
X157878449Y-150668650D01*
X157889047Y-150654494D01*
X157900519Y-150641256D01*
X157939239Y-150574189D01*
X157940743Y-150571721D01*
X157982613Y-150506572D01*
X157989120Y-150490316D01*
X157996843Y-150474416D01*
X158005604Y-150459244D01*
X158030935Y-150386051D01*
X158031960Y-150383305D01*
X158034279Y-150377513D01*
X158060725Y-150311457D01*
X158064037Y-150294266D01*
X158068617Y-150277177D01*
X158074344Y-150260633D01*
X158085366Y-150183963D01*
X158085851Y-150181085D01*
X158087149Y-150174352D01*
X158100500Y-150105085D01*
X158100500Y-150087579D01*
X158101762Y-150069933D01*
X158104254Y-150052602D01*
X158100570Y-149975258D01*
X158100500Y-149972308D01*
X158100500Y-146447397D01*
X172395745Y-146447397D01*
X172399430Y-146524740D01*
X172399500Y-146527690D01*
X172399500Y-146552424D01*
X172401851Y-146577055D01*
X172402061Y-146579997D01*
X172405745Y-146657329D01*
X172405746Y-146657331D01*
X172409875Y-146674352D01*
X172412807Y-146691788D01*
X172414472Y-146709218D01*
X172429569Y-146760634D01*
X172436277Y-146783477D01*
X172437041Y-146786327D01*
X172455294Y-146861572D01*
X172455296Y-146861576D01*
X172462573Y-146877513D01*
X172468750Y-146894076D01*
X172473680Y-146910865D01*
X172473686Y-146910880D01*
X172509155Y-146979681D01*
X172510444Y-146982334D01*
X172542605Y-147052755D01*
X172552756Y-147067010D01*
X172561963Y-147082116D01*
X172569986Y-147097680D01*
X172617853Y-147158548D01*
X172619621Y-147160910D01*
X172664506Y-147223942D01*
X172664510Y-147223946D01*
X172664514Y-147223952D01*
X172677190Y-147236038D01*
X172689085Y-147249124D01*
X172699908Y-147262886D01*
X172742845Y-147300091D01*
X172758414Y-147313582D01*
X172760598Y-147315567D01*
X172816621Y-147368986D01*
X172831342Y-147378446D01*
X172845507Y-147389049D01*
X172858744Y-147400519D01*
X172925824Y-147439248D01*
X172928263Y-147440734D01*
X172993428Y-147482613D01*
X173009681Y-147489119D01*
X173025589Y-147496847D01*
X173033642Y-147501496D01*
X173040752Y-147505602D01*
X173040753Y-147505602D01*
X173040756Y-147505604D01*
X173113943Y-147530933D01*
X173116664Y-147531948D01*
X173167239Y-147552196D01*
X173188540Y-147560724D01*
X173188543Y-147560725D01*
X173205726Y-147564036D01*
X173222817Y-147568615D01*
X173239367Y-147574344D01*
X173316028Y-147585365D01*
X173318901Y-147585849D01*
X173394915Y-147600500D01*
X173412418Y-147600500D01*
X173430066Y-147601762D01*
X173447397Y-147604254D01*
X173447397Y-147604253D01*
X173447398Y-147604254D01*
X173461420Y-147603586D01*
X173524741Y-147600570D01*
X173527691Y-147600500D01*
X193412418Y-147600500D01*
X193430066Y-147601762D01*
X193447397Y-147604254D01*
X193447397Y-147604253D01*
X193447398Y-147604254D01*
X193461420Y-147603586D01*
X193524741Y-147600570D01*
X193527691Y-147600500D01*
X193552417Y-147600500D01*
X193552425Y-147600500D01*
X193577063Y-147598146D01*
X193579986Y-147597937D01*
X193657330Y-147594254D01*
X193657332Y-147594253D01*
X193657335Y-147594253D01*
X193674344Y-147590126D01*
X193691793Y-147587191D01*
X193709218Y-147585528D01*
X193783532Y-147563706D01*
X193786307Y-147562963D01*
X193861576Y-147544704D01*
X193877509Y-147537427D01*
X193894079Y-147531247D01*
X193910875Y-147526316D01*
X193979681Y-147490844D01*
X193982335Y-147489555D01*
X194012609Y-147475728D01*
X194052753Y-147457396D01*
X194067011Y-147447241D01*
X194082113Y-147438036D01*
X194097682Y-147430011D01*
X194158553Y-147382140D01*
X194160885Y-147380394D01*
X194223952Y-147335486D01*
X194236039Y-147322808D01*
X194249123Y-147310914D01*
X194262886Y-147300092D01*
X194313584Y-147241583D01*
X194315570Y-147239398D01*
X194330298Y-147223952D01*
X194368986Y-147183378D01*
X194378449Y-147168650D01*
X194389047Y-147154494D01*
X194400519Y-147141256D01*
X194439239Y-147074189D01*
X194440743Y-147071721D01*
X194482613Y-147006572D01*
X194489120Y-146990316D01*
X194496843Y-146974416D01*
X194505604Y-146959244D01*
X194530935Y-146886051D01*
X194531960Y-146883305D01*
X194534279Y-146877513D01*
X194560725Y-146811457D01*
X194564037Y-146794266D01*
X194568617Y-146777177D01*
X194574344Y-146760633D01*
X194585366Y-146683963D01*
X194585851Y-146681085D01*
X194587149Y-146674352D01*
X194600500Y-146605085D01*
X194600500Y-146587579D01*
X194601762Y-146569933D01*
X194604254Y-146552602D01*
X194600570Y-146475258D01*
X194600500Y-146472308D01*
X194600500Y-133587579D01*
X194601762Y-133569933D01*
X194604254Y-133552602D01*
X194600570Y-133475258D01*
X194600500Y-133472308D01*
X194600500Y-133447582D01*
X194600500Y-133447575D01*
X194598145Y-133422926D01*
X194597937Y-133420011D01*
X194594254Y-133342670D01*
X194590126Y-133325655D01*
X194587191Y-133308207D01*
X194585528Y-133290782D01*
X194563716Y-133216503D01*
X194562955Y-133213660D01*
X194556860Y-133188535D01*
X194544704Y-133138424D01*
X194537428Y-133122491D01*
X194531247Y-133105917D01*
X194526317Y-133089129D01*
X194526316Y-133089125D01*
X194490839Y-133020308D01*
X194489550Y-133017654D01*
X194457395Y-132947245D01*
X194453746Y-132942122D01*
X194447240Y-132932985D01*
X194438035Y-132917884D01*
X194430011Y-132902318D01*
X194425237Y-132896248D01*
X194382155Y-132841464D01*
X194380403Y-132839125D01*
X194335486Y-132776048D01*
X194322810Y-132763961D01*
X194310913Y-132750874D01*
X194300092Y-132737114D01*
X194300085Y-132737107D01*
X194241584Y-132686415D01*
X194239401Y-132684431D01*
X194183380Y-132631016D01*
X194183378Y-132631014D01*
X194183372Y-132631010D01*
X194168651Y-132621549D01*
X194154488Y-132610947D01*
X194141256Y-132599481D01*
X194074203Y-132560767D01*
X194071684Y-132559231D01*
X194042029Y-132540173D01*
X194006572Y-132517387D01*
X193990320Y-132510880D01*
X193974414Y-132503154D01*
X193959244Y-132494396D01*
X193959243Y-132494395D01*
X193959242Y-132494395D01*
X193886087Y-132469076D01*
X193883322Y-132468045D01*
X193811457Y-132439275D01*
X193794268Y-132435962D01*
X193777183Y-132431384D01*
X193760633Y-132425656D01*
X193683989Y-132414636D01*
X193681079Y-132414146D01*
X193605086Y-132399500D01*
X193605085Y-132399500D01*
X193587582Y-132399500D01*
X193569934Y-132398238D01*
X193552602Y-132395745D01*
X193475259Y-132399430D01*
X193472309Y-132399500D01*
X173587582Y-132399500D01*
X173569934Y-132398238D01*
X173552602Y-132395745D01*
X173475259Y-132399430D01*
X173472309Y-132399500D01*
X173447575Y-132399500D01*
X173422943Y-132401851D01*
X173420002Y-132402061D01*
X173342673Y-132405745D01*
X173332251Y-132408273D01*
X173325643Y-132409876D01*
X173308212Y-132412807D01*
X173291253Y-132414427D01*
X173290782Y-132414472D01*
X173216524Y-132436275D01*
X173213676Y-132437038D01*
X173138430Y-132455294D01*
X173138417Y-132455298D01*
X173122488Y-132462572D01*
X173105932Y-132468747D01*
X173089134Y-132473680D01*
X173089119Y-132473686D01*
X173048950Y-132494395D01*
X173020312Y-132509157D01*
X173017680Y-132510437D01*
X172947250Y-132542602D01*
X172947243Y-132542606D01*
X172932982Y-132552761D01*
X172917883Y-132561964D01*
X172902319Y-132569987D01*
X172902314Y-132569991D01*
X172841471Y-132617839D01*
X172839109Y-132619607D01*
X172776048Y-132664513D01*
X172763959Y-132677191D01*
X172750879Y-132689081D01*
X172737114Y-132699907D01*
X172686417Y-132758413D01*
X172684433Y-132760595D01*
X172631015Y-132816620D01*
X172631009Y-132816628D01*
X172621550Y-132831347D01*
X172610949Y-132845508D01*
X172599485Y-132858737D01*
X172560764Y-132925800D01*
X172559236Y-132928306D01*
X172547066Y-132947245D01*
X172517387Y-132993427D01*
X172517385Y-132993430D01*
X172510878Y-133009684D01*
X172503152Y-133025590D01*
X172494396Y-133040755D01*
X172494393Y-133040762D01*
X172469073Y-133113918D01*
X172468042Y-133116681D01*
X172439277Y-133188535D01*
X172439273Y-133188547D01*
X172435961Y-133205732D01*
X172431385Y-133222811D01*
X172425656Y-133239364D01*
X172414635Y-133316017D01*
X172414145Y-133318926D01*
X172399500Y-133394914D01*
X172399500Y-133412417D01*
X172398238Y-133430064D01*
X172395746Y-133447395D01*
X172395745Y-133447397D01*
X172399430Y-133524740D01*
X172399500Y-133527690D01*
X172399500Y-146412417D01*
X172398238Y-146430064D01*
X172395746Y-146447395D01*
X172395745Y-146447397D01*
X158100500Y-146447397D01*
X158100500Y-130087579D01*
X158101762Y-130069933D01*
X158104254Y-130052602D01*
X158100570Y-129975258D01*
X158100500Y-129972308D01*
X158100500Y-129947582D01*
X158100500Y-129947575D01*
X158098145Y-129922926D01*
X158097937Y-129920011D01*
X158094254Y-129842670D01*
X158090126Y-129825655D01*
X158087191Y-129808207D01*
X158085528Y-129790782D01*
X158063716Y-129716503D01*
X158062955Y-129713660D01*
X158056860Y-129688535D01*
X158044704Y-129638424D01*
X158037428Y-129622491D01*
X158031247Y-129605917D01*
X158026317Y-129589129D01*
X158026316Y-129589125D01*
X157990839Y-129520308D01*
X157989550Y-129517654D01*
X157957395Y-129447245D01*
X157953746Y-129442122D01*
X157947240Y-129432985D01*
X157938035Y-129417884D01*
X157930011Y-129402318D01*
X157895738Y-129358737D01*
X157882155Y-129341464D01*
X157880403Y-129339125D01*
X157835486Y-129276048D01*
X157822810Y-129263961D01*
X157810913Y-129250874D01*
X157800092Y-129237114D01*
X157800085Y-129237107D01*
X157741584Y-129186415D01*
X157739401Y-129184431D01*
X157683380Y-129131016D01*
X157683378Y-129131014D01*
X157683372Y-129131010D01*
X157668651Y-129121549D01*
X157654488Y-129110947D01*
X157641256Y-129099481D01*
X157574203Y-129060767D01*
X157571684Y-129059231D01*
X157542029Y-129040173D01*
X157506572Y-129017387D01*
X157490320Y-129010880D01*
X157474414Y-129003154D01*
X157459244Y-128994396D01*
X157459243Y-128994395D01*
X157459242Y-128994395D01*
X157386087Y-128969076D01*
X157383322Y-128968045D01*
X157311457Y-128939275D01*
X157294268Y-128935962D01*
X157277183Y-128931384D01*
X157260633Y-128925656D01*
X157183989Y-128914636D01*
X157181079Y-128914146D01*
X157105086Y-128899500D01*
X157105085Y-128899500D01*
X157087582Y-128899500D01*
X157069934Y-128898238D01*
X157052602Y-128895745D01*
X156975259Y-128899430D01*
X156972309Y-128899500D01*
X131757445Y-128899500D01*
X131690406Y-128879815D01*
X131644651Y-128827011D01*
X131634707Y-128757853D01*
X131634972Y-128756102D01*
X131660531Y-128594730D01*
X131693246Y-128388176D01*
X131713589Y-128000000D01*
X131700487Y-127750000D01*
X176550000Y-127750000D01*
X177774916Y-127750000D01*
X177756307Y-127831530D01*
X177746212Y-128056308D01*
X177772449Y-128250000D01*
X176550001Y-128250000D01*
X176550001Y-129749984D01*
X176560494Y-129852695D01*
X176615641Y-130019117D01*
X176615643Y-130019122D01*
X176707684Y-130168344D01*
X176831655Y-130292315D01*
X176980877Y-130384356D01*
X176980882Y-130384358D01*
X177147304Y-130439505D01*
X177147311Y-130439506D01*
X177250021Y-130449999D01*
X178749999Y-130449999D01*
X178750000Y-130449998D01*
X178750000Y-129225047D01*
X178887498Y-129250000D01*
X179056133Y-129250000D01*
X179224098Y-129234883D01*
X179250000Y-129227734D01*
X179250000Y-130449999D01*
X180749970Y-130449999D01*
X180749984Y-130449998D01*
X180852695Y-130439505D01*
X181019117Y-130384358D01*
X181019122Y-130384356D01*
X181168344Y-130292315D01*
X181292315Y-130168344D01*
X181384356Y-130019122D01*
X181384358Y-130019117D01*
X181439505Y-129852695D01*
X181439506Y-129852688D01*
X181449999Y-129749984D01*
X181450000Y-129749971D01*
X181450000Y-128250000D01*
X180225084Y-128250000D01*
X180243693Y-128168470D01*
X180253788Y-127943692D01*
X180227551Y-127750000D01*
X181449999Y-127750000D01*
X191550000Y-127750000D01*
X192774916Y-127750000D01*
X192756307Y-127831530D01*
X192746212Y-128056308D01*
X192772449Y-128250000D01*
X191550001Y-128250000D01*
X191550001Y-129749984D01*
X191560494Y-129852695D01*
X191615641Y-130019117D01*
X191615643Y-130019122D01*
X191707684Y-130168344D01*
X191831655Y-130292315D01*
X191980877Y-130384356D01*
X191980882Y-130384358D01*
X192147304Y-130439505D01*
X192147311Y-130439506D01*
X192250021Y-130449999D01*
X193749999Y-130449999D01*
X193750000Y-130449998D01*
X193750000Y-129225047D01*
X193887498Y-129250000D01*
X194056133Y-129250000D01*
X194224098Y-129234883D01*
X194250000Y-129227734D01*
X194250000Y-130449999D01*
X195749970Y-130449999D01*
X195749984Y-130449998D01*
X195852695Y-130439505D01*
X196019117Y-130384358D01*
X196019122Y-130384356D01*
X196168344Y-130292315D01*
X196292315Y-130168344D01*
X196384356Y-130019122D01*
X196384358Y-130019117D01*
X196439505Y-129852695D01*
X196439506Y-129852688D01*
X196449999Y-129749984D01*
X196450000Y-129749971D01*
X196450000Y-128250000D01*
X195225084Y-128250000D01*
X195243693Y-128168470D01*
X195253788Y-127943692D01*
X195227551Y-127750000D01*
X196449999Y-127750000D01*
X196449999Y-126250030D01*
X196449998Y-126250015D01*
X196439505Y-126147304D01*
X196384358Y-125980882D01*
X196384356Y-125980877D01*
X196292315Y-125831655D01*
X196168344Y-125707684D01*
X196019122Y-125615643D01*
X196019117Y-125615641D01*
X195852695Y-125560494D01*
X195852688Y-125560493D01*
X195749984Y-125550000D01*
X194250000Y-125550000D01*
X194250000Y-126774952D01*
X194112502Y-126750000D01*
X193943867Y-126750000D01*
X193775902Y-126765117D01*
X193750000Y-126772265D01*
X193750000Y-125550000D01*
X192250030Y-125550000D01*
X192250014Y-125550001D01*
X192147304Y-125560494D01*
X191980882Y-125615641D01*
X191980877Y-125615643D01*
X191831655Y-125707684D01*
X191707684Y-125831655D01*
X191615643Y-125980877D01*
X191615641Y-125980882D01*
X191560494Y-126147304D01*
X191560493Y-126147311D01*
X191550000Y-126250015D01*
X191550000Y-127750000D01*
X181449999Y-127750000D01*
X181449999Y-126250030D01*
X181449998Y-126250015D01*
X181439505Y-126147304D01*
X181384358Y-125980882D01*
X181384356Y-125980877D01*
X181292315Y-125831655D01*
X181168344Y-125707684D01*
X181019122Y-125615643D01*
X181019117Y-125615641D01*
X180852695Y-125560494D01*
X180852688Y-125560493D01*
X180749984Y-125550000D01*
X179250000Y-125550000D01*
X179250000Y-126774952D01*
X179112502Y-126750000D01*
X178943867Y-126750000D01*
X178775902Y-126765117D01*
X178750000Y-126772265D01*
X178750000Y-125550000D01*
X177250030Y-125550000D01*
X177250014Y-125550001D01*
X177147304Y-125560494D01*
X176980882Y-125615641D01*
X176980877Y-125615643D01*
X176831655Y-125707684D01*
X176707684Y-125831655D01*
X176615643Y-125980877D01*
X176615641Y-125980882D01*
X176560494Y-126147304D01*
X176560493Y-126147311D01*
X176550000Y-126250015D01*
X176550000Y-127750000D01*
X131700487Y-127750000D01*
X131693246Y-127611824D01*
X131632438Y-127227901D01*
X131531833Y-126852438D01*
X131392532Y-126489547D01*
X131216062Y-126143206D01*
X131129016Y-126009166D01*
X131004362Y-125817214D01*
X131004359Y-125817211D01*
X131004357Y-125817207D01*
X130759734Y-125515124D01*
X130484876Y-125240266D01*
X130307173Y-125096364D01*
X130267463Y-125038879D01*
X130265135Y-124969048D01*
X130300930Y-124909044D01*
X130307162Y-124903643D01*
X130484876Y-124759734D01*
X130759734Y-124484876D01*
X131004357Y-124182793D01*
X131216062Y-123856795D01*
X131270196Y-123750551D01*
X176541500Y-123750551D01*
X176552112Y-123854419D01*
X176552113Y-123854426D01*
X176597314Y-123990834D01*
X176607886Y-124022737D01*
X176700970Y-124173651D01*
X176826349Y-124299030D01*
X176977263Y-124392114D01*
X177145575Y-124447887D01*
X177249456Y-124458500D01*
X177249461Y-124458500D01*
X180750539Y-124458500D01*
X180750544Y-124458500D01*
X180854425Y-124447887D01*
X181022737Y-124392114D01*
X181173651Y-124299030D01*
X181299030Y-124173651D01*
X181392114Y-124022737D01*
X181447887Y-123854425D01*
X181458499Y-123750551D01*
X191541500Y-123750551D01*
X191552112Y-123854419D01*
X191552113Y-123854426D01*
X191597314Y-123990834D01*
X191607886Y-124022737D01*
X191700970Y-124173651D01*
X191826349Y-124299030D01*
X191977263Y-124392114D01*
X192145575Y-124447887D01*
X192249456Y-124458500D01*
X192249461Y-124458500D01*
X195750539Y-124458500D01*
X195750544Y-124458500D01*
X195854425Y-124447887D01*
X196022737Y-124392114D01*
X196173651Y-124299030D01*
X196299030Y-124173651D01*
X196392114Y-124022737D01*
X196447887Y-123854425D01*
X196458500Y-123750544D01*
X196458500Y-120249456D01*
X196447887Y-120145575D01*
X196392114Y-119977263D01*
X196299030Y-119826349D01*
X196173651Y-119700970D01*
X196022737Y-119607886D01*
X196022734Y-119607885D01*
X195854426Y-119552113D01*
X195854419Y-119552112D01*
X195750551Y-119541500D01*
X195750544Y-119541500D01*
X192249456Y-119541500D01*
X192249448Y-119541500D01*
X192145580Y-119552112D01*
X192145573Y-119552113D01*
X191977265Y-119607885D01*
X191977260Y-119607887D01*
X191826347Y-119700971D01*
X191700971Y-119826347D01*
X191607887Y-119977260D01*
X191607885Y-119977265D01*
X191552113Y-120145573D01*
X191552112Y-120145580D01*
X191541500Y-120249448D01*
X191541500Y-123750551D01*
X181458499Y-123750551D01*
X181458500Y-123750544D01*
X181458500Y-120249456D01*
X181447887Y-120145575D01*
X181392114Y-119977263D01*
X181299030Y-119826349D01*
X181173651Y-119700970D01*
X181022737Y-119607886D01*
X181022734Y-119607885D01*
X180854426Y-119552113D01*
X180854419Y-119552112D01*
X180750551Y-119541500D01*
X180750544Y-119541500D01*
X177249456Y-119541500D01*
X177249448Y-119541500D01*
X177145580Y-119552112D01*
X177145573Y-119552113D01*
X176977265Y-119607885D01*
X176977260Y-119607887D01*
X176826347Y-119700971D01*
X176700971Y-119826347D01*
X176607887Y-119977260D01*
X176607885Y-119977265D01*
X176552113Y-120145573D01*
X176552112Y-120145580D01*
X176541500Y-120249448D01*
X176541500Y-123750551D01*
X131270196Y-123750551D01*
X131392532Y-123510453D01*
X131531833Y-123147562D01*
X131632438Y-122772099D01*
X131693246Y-122388176D01*
X131713589Y-122000000D01*
X131693246Y-121611824D01*
X131634972Y-121243898D01*
X131643927Y-121174605D01*
X131688923Y-121121153D01*
X131755674Y-121100513D01*
X131757445Y-121100500D01*
X156912418Y-121100500D01*
X156930066Y-121101762D01*
X156947397Y-121104254D01*
X156947397Y-121104253D01*
X156947398Y-121104254D01*
X156961420Y-121103586D01*
X157024741Y-121100570D01*
X157027691Y-121100500D01*
X157052417Y-121100500D01*
X157052425Y-121100500D01*
X157077063Y-121098146D01*
X157079986Y-121097937D01*
X157157330Y-121094254D01*
X157157332Y-121094253D01*
X157157335Y-121094253D01*
X157174344Y-121090126D01*
X157191793Y-121087191D01*
X157209218Y-121085528D01*
X157283532Y-121063706D01*
X157286307Y-121062963D01*
X157361576Y-121044704D01*
X157377509Y-121037427D01*
X157394079Y-121031247D01*
X157410875Y-121026316D01*
X157479681Y-120990844D01*
X157482335Y-120989555D01*
X157512609Y-120975728D01*
X157552753Y-120957396D01*
X157567011Y-120947241D01*
X157582113Y-120938036D01*
X157597682Y-120930011D01*
X157658553Y-120882140D01*
X157660885Y-120880394D01*
X157723952Y-120835486D01*
X157736039Y-120822808D01*
X157749123Y-120810914D01*
X157762886Y-120800092D01*
X157813584Y-120741583D01*
X157815570Y-120739398D01*
X157830298Y-120723952D01*
X157868986Y-120683378D01*
X157878449Y-120668650D01*
X157889047Y-120654494D01*
X157900519Y-120641256D01*
X157939239Y-120574189D01*
X157940743Y-120571721D01*
X157982613Y-120506572D01*
X157989120Y-120490316D01*
X157996843Y-120474416D01*
X158005604Y-120459244D01*
X158030935Y-120386051D01*
X158031960Y-120383305D01*
X158034279Y-120377513D01*
X158060725Y-120311457D01*
X158064037Y-120294266D01*
X158068617Y-120277177D01*
X158074344Y-120260633D01*
X158085366Y-120183963D01*
X158085851Y-120181085D01*
X158087149Y-120174352D01*
X158100500Y-120105085D01*
X158100500Y-120087579D01*
X158101762Y-120069933D01*
X158104254Y-120052602D01*
X158101279Y-119990162D01*
X158100570Y-119975258D01*
X158100500Y-119972308D01*
X158100500Y-116447397D01*
X172395745Y-116447397D01*
X172399430Y-116524740D01*
X172399500Y-116527690D01*
X172399500Y-116552424D01*
X172401851Y-116577055D01*
X172402061Y-116579997D01*
X172405745Y-116657329D01*
X172405746Y-116657331D01*
X172409875Y-116674352D01*
X172412807Y-116691788D01*
X172414472Y-116709218D01*
X172429569Y-116760634D01*
X172436277Y-116783477D01*
X172437041Y-116786327D01*
X172455294Y-116861572D01*
X172455296Y-116861576D01*
X172462573Y-116877513D01*
X172468750Y-116894076D01*
X172473680Y-116910865D01*
X172473686Y-116910880D01*
X172509155Y-116979681D01*
X172510444Y-116982334D01*
X172542605Y-117052755D01*
X172552756Y-117067010D01*
X172561963Y-117082116D01*
X172569986Y-117097680D01*
X172617853Y-117158548D01*
X172619621Y-117160910D01*
X172664506Y-117223942D01*
X172664510Y-117223946D01*
X172664514Y-117223952D01*
X172677190Y-117236038D01*
X172689085Y-117249124D01*
X172699908Y-117262886D01*
X172742845Y-117300091D01*
X172758414Y-117313582D01*
X172760598Y-117315567D01*
X172816621Y-117368986D01*
X172831342Y-117378446D01*
X172845507Y-117389049D01*
X172858744Y-117400519D01*
X172925824Y-117439248D01*
X172928263Y-117440734D01*
X172993428Y-117482613D01*
X173009681Y-117489119D01*
X173025589Y-117496847D01*
X173033642Y-117501496D01*
X173040752Y-117505602D01*
X173040753Y-117505602D01*
X173040756Y-117505604D01*
X173113943Y-117530933D01*
X173116664Y-117531948D01*
X173167239Y-117552196D01*
X173188540Y-117560724D01*
X173188543Y-117560725D01*
X173205726Y-117564036D01*
X173222817Y-117568615D01*
X173239367Y-117574344D01*
X173316028Y-117585365D01*
X173318901Y-117585849D01*
X173394915Y-117600500D01*
X173412418Y-117600500D01*
X173430066Y-117601762D01*
X173447397Y-117604254D01*
X173447397Y-117604253D01*
X173447398Y-117604254D01*
X173461420Y-117603586D01*
X173524741Y-117600570D01*
X173527691Y-117600500D01*
X193412418Y-117600500D01*
X193430066Y-117601762D01*
X193447397Y-117604254D01*
X193447397Y-117604253D01*
X193447398Y-117604254D01*
X193461420Y-117603586D01*
X193524741Y-117600570D01*
X193527691Y-117600500D01*
X193552417Y-117600500D01*
X193552425Y-117600500D01*
X193577063Y-117598146D01*
X193579986Y-117597937D01*
X193657330Y-117594254D01*
X193657332Y-117594253D01*
X193657335Y-117594253D01*
X193674344Y-117590126D01*
X193691793Y-117587191D01*
X193709218Y-117585528D01*
X193783532Y-117563706D01*
X193786307Y-117562963D01*
X193861576Y-117544704D01*
X193877509Y-117537427D01*
X193894079Y-117531247D01*
X193910875Y-117526316D01*
X193979681Y-117490844D01*
X193982335Y-117489555D01*
X194012609Y-117475728D01*
X194052753Y-117457396D01*
X194067011Y-117447241D01*
X194082113Y-117438036D01*
X194097682Y-117430011D01*
X194158553Y-117382140D01*
X194160885Y-117380394D01*
X194223952Y-117335486D01*
X194236039Y-117322808D01*
X194249123Y-117310914D01*
X194262886Y-117300092D01*
X194313584Y-117241583D01*
X194315570Y-117239398D01*
X194330298Y-117223952D01*
X194368986Y-117183378D01*
X194378449Y-117168650D01*
X194389047Y-117154494D01*
X194400519Y-117141256D01*
X194439239Y-117074189D01*
X194440743Y-117071721D01*
X194482613Y-117006572D01*
X194489120Y-116990316D01*
X194496843Y-116974416D01*
X194505604Y-116959244D01*
X194530935Y-116886051D01*
X194531960Y-116883305D01*
X194534279Y-116877513D01*
X194560725Y-116811457D01*
X194564037Y-116794266D01*
X194568617Y-116777177D01*
X194574344Y-116760633D01*
X194585366Y-116683963D01*
X194585851Y-116681085D01*
X194587149Y-116674352D01*
X194600500Y-116605085D01*
X194600500Y-116587579D01*
X194601762Y-116569933D01*
X194604254Y-116552602D01*
X194600570Y-116475258D01*
X194600500Y-116472308D01*
X194600500Y-103587579D01*
X194601762Y-103569933D01*
X194604254Y-103552602D01*
X194600570Y-103475258D01*
X194600500Y-103472308D01*
X194600500Y-103447582D01*
X194600500Y-103447575D01*
X194598145Y-103422926D01*
X194597937Y-103420011D01*
X194594254Y-103342670D01*
X194590126Y-103325655D01*
X194587191Y-103308207D01*
X194585528Y-103290782D01*
X194563716Y-103216503D01*
X194562955Y-103213660D01*
X194556860Y-103188535D01*
X194544704Y-103138424D01*
X194537428Y-103122491D01*
X194531247Y-103105917D01*
X194526317Y-103089129D01*
X194526316Y-103089125D01*
X194490839Y-103020308D01*
X194489550Y-103017654D01*
X194457395Y-102947245D01*
X194453746Y-102942122D01*
X194447240Y-102932985D01*
X194438035Y-102917884D01*
X194430011Y-102902318D01*
X194395738Y-102858737D01*
X194382155Y-102841464D01*
X194380403Y-102839125D01*
X194335486Y-102776048D01*
X194322810Y-102763961D01*
X194310913Y-102750874D01*
X194300092Y-102737114D01*
X194300085Y-102737107D01*
X194241584Y-102686415D01*
X194239401Y-102684431D01*
X194183380Y-102631016D01*
X194183378Y-102631014D01*
X194183372Y-102631010D01*
X194168651Y-102621549D01*
X194154488Y-102610947D01*
X194141256Y-102599481D01*
X194074203Y-102560767D01*
X194071684Y-102559231D01*
X194042029Y-102540173D01*
X194006572Y-102517387D01*
X193990320Y-102510880D01*
X193974414Y-102503154D01*
X193959244Y-102494396D01*
X193959243Y-102494395D01*
X193959242Y-102494395D01*
X193886087Y-102469076D01*
X193883322Y-102468045D01*
X193811457Y-102439275D01*
X193794268Y-102435962D01*
X193777183Y-102431384D01*
X193760633Y-102425656D01*
X193683989Y-102414636D01*
X193681079Y-102414146D01*
X193605086Y-102399500D01*
X193605085Y-102399500D01*
X193587582Y-102399500D01*
X193569934Y-102398238D01*
X193552602Y-102395745D01*
X193475259Y-102399430D01*
X193472309Y-102399500D01*
X173587582Y-102399500D01*
X173569934Y-102398238D01*
X173552602Y-102395745D01*
X173475259Y-102399430D01*
X173472309Y-102399500D01*
X173447575Y-102399500D01*
X173422943Y-102401851D01*
X173420002Y-102402061D01*
X173342673Y-102405745D01*
X173332251Y-102408273D01*
X173325643Y-102409876D01*
X173308212Y-102412807D01*
X173291253Y-102414427D01*
X173290782Y-102414472D01*
X173216524Y-102436275D01*
X173213676Y-102437038D01*
X173138430Y-102455294D01*
X173138417Y-102455298D01*
X173122488Y-102462572D01*
X173105932Y-102468747D01*
X173089134Y-102473680D01*
X173089119Y-102473686D01*
X173048950Y-102494395D01*
X173020312Y-102509157D01*
X173017680Y-102510437D01*
X172947250Y-102542602D01*
X172947243Y-102542606D01*
X172932982Y-102552761D01*
X172917883Y-102561964D01*
X172902319Y-102569987D01*
X172902314Y-102569991D01*
X172841471Y-102617839D01*
X172839109Y-102619607D01*
X172776048Y-102664513D01*
X172763959Y-102677191D01*
X172750879Y-102689081D01*
X172737114Y-102699907D01*
X172686417Y-102758413D01*
X172684433Y-102760595D01*
X172631015Y-102816620D01*
X172631009Y-102816628D01*
X172621550Y-102831347D01*
X172610949Y-102845508D01*
X172599485Y-102858737D01*
X172560764Y-102925800D01*
X172559236Y-102928306D01*
X172547066Y-102947245D01*
X172517387Y-102993427D01*
X172517385Y-102993430D01*
X172510878Y-103009684D01*
X172503152Y-103025590D01*
X172494396Y-103040755D01*
X172494393Y-103040762D01*
X172469073Y-103113918D01*
X172468042Y-103116681D01*
X172439277Y-103188535D01*
X172439273Y-103188547D01*
X172435961Y-103205732D01*
X172431385Y-103222811D01*
X172425656Y-103239364D01*
X172414635Y-103316017D01*
X172414145Y-103318926D01*
X172399500Y-103394914D01*
X172399500Y-103412417D01*
X172398238Y-103430064D01*
X172395746Y-103447395D01*
X172395745Y-103447397D01*
X172399430Y-103524740D01*
X172399500Y-103527690D01*
X172399500Y-116412417D01*
X172398238Y-116430064D01*
X172395746Y-116447395D01*
X172395745Y-116447397D01*
X158100500Y-116447397D01*
X158100500Y-100087579D01*
X158101762Y-100069933D01*
X158104254Y-100052602D01*
X158100570Y-99975258D01*
X158100500Y-99972308D01*
X158100500Y-99947582D01*
X158100500Y-99947575D01*
X158098145Y-99922926D01*
X158097937Y-99920011D01*
X158094254Y-99842670D01*
X158090126Y-99825655D01*
X158087191Y-99808207D01*
X158085528Y-99790782D01*
X158063716Y-99716503D01*
X158062955Y-99713660D01*
X158056860Y-99688535D01*
X158044704Y-99638424D01*
X158037428Y-99622491D01*
X158031247Y-99605917D01*
X158026317Y-99589129D01*
X158026316Y-99589125D01*
X157990839Y-99520308D01*
X157989550Y-99517654D01*
X157957395Y-99447245D01*
X157953746Y-99442122D01*
X157947240Y-99432985D01*
X157938035Y-99417884D01*
X157930011Y-99402318D01*
X157895738Y-99358737D01*
X157882155Y-99341464D01*
X157880403Y-99339125D01*
X157835486Y-99276048D01*
X157822810Y-99263961D01*
X157810913Y-99250874D01*
X157800092Y-99237114D01*
X157800085Y-99237107D01*
X157741584Y-99186415D01*
X157739401Y-99184431D01*
X157683380Y-99131016D01*
X157683378Y-99131014D01*
X157683372Y-99131010D01*
X157668651Y-99121549D01*
X157654488Y-99110947D01*
X157641256Y-99099481D01*
X157574203Y-99060767D01*
X157571684Y-99059231D01*
X157542029Y-99040173D01*
X157506572Y-99017387D01*
X157490320Y-99010880D01*
X157474414Y-99003154D01*
X157459244Y-98994396D01*
X157459243Y-98994395D01*
X157459242Y-98994395D01*
X157386087Y-98969076D01*
X157383322Y-98968045D01*
X157311457Y-98939275D01*
X157294268Y-98935962D01*
X157277183Y-98931384D01*
X157260633Y-98925656D01*
X157183989Y-98914636D01*
X157181079Y-98914146D01*
X157105086Y-98899500D01*
X157105085Y-98899500D01*
X157087582Y-98899500D01*
X157069934Y-98898238D01*
X157052602Y-98895745D01*
X156975259Y-98899430D01*
X156972309Y-98899500D01*
X131757445Y-98899500D01*
X131690406Y-98879815D01*
X131644651Y-98827011D01*
X131634707Y-98757853D01*
X131634972Y-98756102D01*
X131650297Y-98659336D01*
X131693246Y-98388176D01*
X131713589Y-98000000D01*
X131693246Y-97611824D01*
X131632438Y-97227901D01*
X131531833Y-96852438D01*
X131392532Y-96489547D01*
X131216062Y-96143206D01*
X131194785Y-96110442D01*
X131004362Y-95817214D01*
X131004359Y-95817211D01*
X131004357Y-95817207D01*
X130759734Y-95515124D01*
X130484876Y-95240266D01*
X130182793Y-94995643D01*
X130182790Y-94995641D01*
X130182785Y-94995637D01*
X129856799Y-94783940D01*
X129510456Y-94607469D01*
X129147569Y-94468169D01*
X129147562Y-94468167D01*
X128772099Y-94367562D01*
X128772095Y-94367561D01*
X128772094Y-94367561D01*
X128388177Y-94306754D01*
X128000001Y-94286411D01*
X127999999Y-94286411D01*
X127611822Y-94306754D01*
X127227906Y-94367561D01*
X127227904Y-94367561D01*
X126852430Y-94468169D01*
X126489543Y-94607469D01*
X126143201Y-94783940D01*
X125817214Y-94995637D01*
X125515128Y-95240262D01*
X125515120Y-95240269D01*
X125240267Y-95515122D01*
X125143896Y-95634129D01*
X125097904Y-95690926D01*
X125096366Y-95692825D01*
X125038878Y-95732536D01*
X124969048Y-95734864D01*
X124909044Y-95699068D01*
X124903634Y-95692825D01*
X124759734Y-95515124D01*
X124484876Y-95240266D01*
X124182793Y-94995643D01*
X124182790Y-94995641D01*
X124182785Y-94995637D01*
X123856799Y-94783940D01*
X123510456Y-94607469D01*
X123147569Y-94468169D01*
X123147562Y-94468167D01*
X122772099Y-94367562D01*
X122772095Y-94367561D01*
X122772094Y-94367561D01*
X122388177Y-94306754D01*
X122000001Y-94286411D01*
X121999999Y-94286411D01*
X121611822Y-94306754D01*
X121227906Y-94367561D01*
X121227904Y-94367561D01*
X120852430Y-94468169D01*
X120489543Y-94607469D01*
X120143201Y-94783940D01*
X119817214Y-94995637D01*
X119515128Y-95240262D01*
X119515120Y-95240269D01*
X119240269Y-95515120D01*
X119240262Y-95515128D01*
X118995637Y-95817214D01*
X118783940Y-96143201D01*
X118607469Y-96489543D01*
X118468169Y-96852430D01*
X118367561Y-97227904D01*
X118367561Y-97227906D01*
X118306754Y-97611822D01*
X118286411Y-97999999D01*
X118286411Y-98000000D01*
X118306754Y-98388177D01*
X118365028Y-98756102D01*
X118356073Y-98825395D01*
X118311077Y-98878847D01*
X118244326Y-98899487D01*
X118242555Y-98899500D01*
X93087582Y-98899500D01*
X93069934Y-98898238D01*
X93052602Y-98895745D01*
X92975259Y-98899430D01*
X92972309Y-98899500D01*
X92947575Y-98899500D01*
X92922943Y-98901851D01*
X92920002Y-98902061D01*
X92842673Y-98905745D01*
X92832251Y-98908273D01*
X92825643Y-98909876D01*
X92808212Y-98912807D01*
X92791253Y-98914427D01*
X92790782Y-98914472D01*
X92716524Y-98936275D01*
X92713676Y-98937038D01*
X92638430Y-98955294D01*
X92638417Y-98955298D01*
X92622488Y-98962572D01*
X92605932Y-98968747D01*
X92589134Y-98973680D01*
X92589119Y-98973686D01*
X92548950Y-98994395D01*
X92520312Y-99009157D01*
X92517680Y-99010437D01*
X92447250Y-99042602D01*
X92447243Y-99042606D01*
X92432982Y-99052761D01*
X92417883Y-99061964D01*
X92402319Y-99069987D01*
X92402314Y-99069991D01*
X92341471Y-99117839D01*
X92339109Y-99119607D01*
X92276048Y-99164513D01*
X92263959Y-99177191D01*
X92250879Y-99189081D01*
X92237114Y-99199907D01*
X92186417Y-99258413D01*
X92184433Y-99260595D01*
X92131015Y-99316620D01*
X92131009Y-99316628D01*
X92121550Y-99331347D01*
X92110949Y-99345508D01*
X92099485Y-99358737D01*
X92060764Y-99425800D01*
X92059236Y-99428306D01*
X92047157Y-99447104D01*
X92017387Y-99493427D01*
X92017385Y-99493430D01*
X92010878Y-99509684D01*
X92003152Y-99525590D01*
X91994396Y-99540755D01*
X91994393Y-99540762D01*
X91969073Y-99613918D01*
X91968042Y-99616681D01*
X91939277Y-99688535D01*
X91939273Y-99688547D01*
X91935961Y-99705732D01*
X91931385Y-99722811D01*
X91925656Y-99739364D01*
X91914635Y-99816017D01*
X91914145Y-99818926D01*
X91899500Y-99894914D01*
X91899500Y-99912417D01*
X91898238Y-99930064D01*
X91895746Y-99947395D01*
X91895745Y-99947397D01*
X91899430Y-100024740D01*
X91899500Y-100027690D01*
X91899500Y-119912417D01*
X91898238Y-119930064D01*
X91895746Y-119947395D01*
X91895745Y-119947397D01*
X91899430Y-120024740D01*
X91899500Y-120027690D01*
X91899500Y-120052424D01*
X91901851Y-120077055D01*
X91902061Y-120079997D01*
X91905745Y-120157329D01*
X91905746Y-120157331D01*
X91909875Y-120174352D01*
X91912807Y-120191788D01*
X91914472Y-120209218D01*
X91929569Y-120260634D01*
X91936277Y-120283477D01*
X91937041Y-120286327D01*
X91955294Y-120361572D01*
X91955296Y-120361576D01*
X91962573Y-120377513D01*
X91968750Y-120394076D01*
X91973680Y-120410865D01*
X91973686Y-120410880D01*
X92009155Y-120479681D01*
X92010444Y-120482334D01*
X92042605Y-120552755D01*
X92052756Y-120567010D01*
X92061963Y-120582116D01*
X92069986Y-120597680D01*
X92117853Y-120658548D01*
X92119621Y-120660910D01*
X92164506Y-120723942D01*
X92164510Y-120723946D01*
X92164514Y-120723952D01*
X92177190Y-120736038D01*
X92189085Y-120749124D01*
X92199908Y-120762886D01*
X92242845Y-120800091D01*
X92258414Y-120813582D01*
X92260598Y-120815567D01*
X92316621Y-120868986D01*
X92331342Y-120878446D01*
X92345507Y-120889049D01*
X92358744Y-120900519D01*
X92425824Y-120939248D01*
X92428263Y-120940734D01*
X92493428Y-120982613D01*
X92509681Y-120989119D01*
X92525589Y-120996847D01*
X92533642Y-121001496D01*
X92540752Y-121005602D01*
X92540753Y-121005602D01*
X92540756Y-121005604D01*
X92613943Y-121030933D01*
X92616664Y-121031948D01*
X92659164Y-121048963D01*
X92688540Y-121060724D01*
X92688543Y-121060725D01*
X92705726Y-121064036D01*
X92722817Y-121068615D01*
X92739367Y-121074344D01*
X92816028Y-121085365D01*
X92818901Y-121085849D01*
X92894915Y-121100500D01*
X92912418Y-121100500D01*
X92930066Y-121101762D01*
X92947397Y-121104254D01*
X92947397Y-121104253D01*
X92947398Y-121104254D01*
X92961420Y-121103586D01*
X93024741Y-121100570D01*
X93027691Y-121100500D01*
X118242555Y-121100500D01*
X118309594Y-121120185D01*
X118355349Y-121172989D01*
X118365293Y-121242147D01*
X118365028Y-121243898D01*
X118306754Y-121611822D01*
X118286411Y-121999999D01*
X118286411Y-122000000D01*
X118306754Y-122388177D01*
X118367561Y-122772093D01*
X118367561Y-122772095D01*
X118468169Y-123147569D01*
X118607469Y-123510456D01*
X118783940Y-123856799D01*
X118995637Y-124182785D01*
X118995641Y-124182790D01*
X118995643Y-124182793D01*
X119091309Y-124300930D01*
X119240262Y-124484871D01*
X119240269Y-124484879D01*
X119515122Y-124759732D01*
X119692825Y-124903634D01*
X119732536Y-124961122D01*
X119734864Y-125030952D01*
X119699068Y-125090956D01*
X119692825Y-125096366D01*
X119515122Y-125240267D01*
X119240269Y-125515120D01*
X119240262Y-125515128D01*
X118995637Y-125817214D01*
X118783940Y-126143201D01*
X118607469Y-126489543D01*
X118468169Y-126852430D01*
X118367561Y-127227904D01*
X118367561Y-127227906D01*
X118306754Y-127611822D01*
X118286411Y-127999999D01*
X118286411Y-128000000D01*
X118306754Y-128388177D01*
X118365028Y-128756102D01*
X118356073Y-128825395D01*
X118311077Y-128878847D01*
X118244326Y-128899487D01*
X118242555Y-128899500D01*
X93087582Y-128899500D01*
X93069934Y-128898238D01*
X93052602Y-128895745D01*
X92975259Y-128899430D01*
X92972309Y-128899500D01*
X92947575Y-128899500D01*
X92922943Y-128901851D01*
X92920002Y-128902061D01*
X92842673Y-128905745D01*
X92832251Y-128908273D01*
X92825643Y-128909876D01*
X92808212Y-128912807D01*
X92791253Y-128914427D01*
X92790782Y-128914472D01*
X92716524Y-128936275D01*
X92713676Y-128937038D01*
X92638430Y-128955294D01*
X92638417Y-128955298D01*
X92622488Y-128962572D01*
X92605932Y-128968747D01*
X92589134Y-128973680D01*
X92589119Y-128973686D01*
X92548950Y-128994395D01*
X92520312Y-129009157D01*
X92517680Y-129010437D01*
X92447250Y-129042602D01*
X92447243Y-129042606D01*
X92432982Y-129052761D01*
X92417883Y-129061964D01*
X92402319Y-129069987D01*
X92402314Y-129069991D01*
X92341471Y-129117839D01*
X92339109Y-129119607D01*
X92276048Y-129164513D01*
X92263959Y-129177191D01*
X92250879Y-129189081D01*
X92237114Y-129199907D01*
X92186417Y-129258413D01*
X92184433Y-129260595D01*
X92131015Y-129316620D01*
X92131009Y-129316628D01*
X92121550Y-129331347D01*
X92110949Y-129345508D01*
X92099485Y-129358737D01*
X92060764Y-129425800D01*
X92059236Y-129428306D01*
X92047066Y-129447245D01*
X92017387Y-129493427D01*
X92017385Y-129493430D01*
X92010878Y-129509684D01*
X92003152Y-129525590D01*
X91994396Y-129540755D01*
X91994393Y-129540762D01*
X91969073Y-129613918D01*
X91968042Y-129616681D01*
X91939277Y-129688535D01*
X91939273Y-129688547D01*
X91935961Y-129705732D01*
X91931385Y-129722811D01*
X91925656Y-129739364D01*
X91914635Y-129816017D01*
X91914145Y-129818926D01*
X91899500Y-129894914D01*
X91899500Y-129912417D01*
X91898238Y-129930064D01*
X91895746Y-129947395D01*
X91895745Y-129947397D01*
X91899430Y-130024740D01*
X91899500Y-130027690D01*
X91899500Y-149912417D01*
X91898238Y-149930064D01*
X91895746Y-149947395D01*
X91895745Y-149947397D01*
X48048077Y-149947397D01*
X47812661Y-149224857D01*
X47304697Y-147542601D01*
X46999790Y-146447397D01*
X55395745Y-146447397D01*
X55399430Y-146524740D01*
X55399500Y-146527690D01*
X55399500Y-146552424D01*
X55401851Y-146577055D01*
X55402061Y-146579997D01*
X55405745Y-146657329D01*
X55405746Y-146657331D01*
X55409875Y-146674352D01*
X55412807Y-146691788D01*
X55414472Y-146709218D01*
X55429569Y-146760634D01*
X55436277Y-146783477D01*
X55437041Y-146786327D01*
X55455294Y-146861572D01*
X55455296Y-146861576D01*
X55462573Y-146877513D01*
X55468750Y-146894076D01*
X55473680Y-146910865D01*
X55473686Y-146910880D01*
X55509155Y-146979681D01*
X55510444Y-146982334D01*
X55542605Y-147052755D01*
X55552756Y-147067010D01*
X55561963Y-147082116D01*
X55569986Y-147097680D01*
X55617853Y-147158548D01*
X55619621Y-147160910D01*
X55664506Y-147223942D01*
X55664510Y-147223946D01*
X55664514Y-147223952D01*
X55677190Y-147236038D01*
X55689085Y-147249124D01*
X55699908Y-147262886D01*
X55742845Y-147300091D01*
X55758414Y-147313582D01*
X55760598Y-147315567D01*
X55816621Y-147368986D01*
X55831342Y-147378446D01*
X55845507Y-147389049D01*
X55858744Y-147400519D01*
X55925824Y-147439248D01*
X55928263Y-147440734D01*
X55993428Y-147482613D01*
X56009681Y-147489119D01*
X56025589Y-147496847D01*
X56033642Y-147501496D01*
X56040752Y-147505602D01*
X56040753Y-147505602D01*
X56040756Y-147505604D01*
X56113943Y-147530933D01*
X56116664Y-147531948D01*
X56167239Y-147552196D01*
X56188540Y-147560724D01*
X56188543Y-147560725D01*
X56205726Y-147564036D01*
X56222817Y-147568615D01*
X56239367Y-147574344D01*
X56316028Y-147585365D01*
X56318901Y-147585849D01*
X56394915Y-147600500D01*
X56412418Y-147600500D01*
X56430066Y-147601762D01*
X56447397Y-147604254D01*
X56447397Y-147604253D01*
X56447398Y-147604254D01*
X56461420Y-147603586D01*
X56524741Y-147600570D01*
X56527691Y-147600500D01*
X76412418Y-147600500D01*
X76430066Y-147601762D01*
X76447397Y-147604254D01*
X76447397Y-147604253D01*
X76447398Y-147604254D01*
X76461420Y-147603586D01*
X76524741Y-147600570D01*
X76527691Y-147600500D01*
X76552417Y-147600500D01*
X76552425Y-147600500D01*
X76577063Y-147598146D01*
X76579986Y-147597937D01*
X76657330Y-147594254D01*
X76657332Y-147594253D01*
X76657335Y-147594253D01*
X76674344Y-147590126D01*
X76691793Y-147587191D01*
X76709218Y-147585528D01*
X76783532Y-147563706D01*
X76786307Y-147562963D01*
X76861576Y-147544704D01*
X76877509Y-147537427D01*
X76894079Y-147531247D01*
X76910875Y-147526316D01*
X76979681Y-147490844D01*
X76982335Y-147489555D01*
X77012609Y-147475728D01*
X77052753Y-147457396D01*
X77067011Y-147447241D01*
X77082113Y-147438036D01*
X77097682Y-147430011D01*
X77158553Y-147382140D01*
X77160885Y-147380394D01*
X77223952Y-147335486D01*
X77236039Y-147322808D01*
X77249123Y-147310914D01*
X77262886Y-147300092D01*
X77313584Y-147241583D01*
X77315570Y-147239398D01*
X77330298Y-147223952D01*
X77368986Y-147183378D01*
X77378449Y-147168650D01*
X77389047Y-147154494D01*
X77400519Y-147141256D01*
X77439239Y-147074189D01*
X77440743Y-147071721D01*
X77482613Y-147006572D01*
X77489120Y-146990316D01*
X77496843Y-146974416D01*
X77505604Y-146959244D01*
X77530935Y-146886051D01*
X77531960Y-146883305D01*
X77534279Y-146877513D01*
X77560725Y-146811457D01*
X77564037Y-146794266D01*
X77568617Y-146777177D01*
X77574344Y-146760633D01*
X77585366Y-146683963D01*
X77585851Y-146681085D01*
X77587149Y-146674352D01*
X77600500Y-146605085D01*
X77600500Y-146587579D01*
X77601762Y-146569933D01*
X77604254Y-146552602D01*
X77600570Y-146475258D01*
X77600500Y-146472308D01*
X77600500Y-133587579D01*
X77601762Y-133569933D01*
X77604254Y-133552602D01*
X77600570Y-133475258D01*
X77600500Y-133472308D01*
X77600500Y-133447582D01*
X77600500Y-133447575D01*
X77598145Y-133422926D01*
X77597937Y-133420011D01*
X77594254Y-133342670D01*
X77590126Y-133325655D01*
X77587191Y-133308207D01*
X77585528Y-133290782D01*
X77563716Y-133216503D01*
X77562955Y-133213660D01*
X77556860Y-133188535D01*
X77544704Y-133138424D01*
X77537428Y-133122491D01*
X77531247Y-133105917D01*
X77526317Y-133089129D01*
X77526316Y-133089125D01*
X77490839Y-133020308D01*
X77489550Y-133017654D01*
X77457395Y-132947245D01*
X77453746Y-132942122D01*
X77447240Y-132932985D01*
X77438035Y-132917884D01*
X77430011Y-132902318D01*
X77425237Y-132896248D01*
X77382155Y-132841464D01*
X77380403Y-132839125D01*
X77335486Y-132776048D01*
X77322810Y-132763961D01*
X77310913Y-132750874D01*
X77300092Y-132737114D01*
X77300085Y-132737107D01*
X77241584Y-132686415D01*
X77239401Y-132684431D01*
X77183380Y-132631016D01*
X77183378Y-132631014D01*
X77183372Y-132631010D01*
X77168651Y-132621549D01*
X77154488Y-132610947D01*
X77141256Y-132599481D01*
X77074203Y-132560767D01*
X77071684Y-132559231D01*
X77042029Y-132540173D01*
X77006572Y-132517387D01*
X76990320Y-132510880D01*
X76974414Y-132503154D01*
X76959244Y-132494396D01*
X76959243Y-132494395D01*
X76959242Y-132494395D01*
X76886087Y-132469076D01*
X76883322Y-132468045D01*
X76811457Y-132439275D01*
X76794268Y-132435962D01*
X76777183Y-132431384D01*
X76760633Y-132425656D01*
X76683989Y-132414636D01*
X76681079Y-132414146D01*
X76605086Y-132399500D01*
X76605085Y-132399500D01*
X76587582Y-132399500D01*
X76569934Y-132398238D01*
X76552602Y-132395745D01*
X76475259Y-132399430D01*
X76472309Y-132399500D01*
X56587582Y-132399500D01*
X56569934Y-132398238D01*
X56552602Y-132395745D01*
X56475259Y-132399430D01*
X56472309Y-132399500D01*
X56447575Y-132399500D01*
X56422943Y-132401851D01*
X56420002Y-132402061D01*
X56342673Y-132405745D01*
X56332251Y-132408273D01*
X56325643Y-132409876D01*
X56308212Y-132412807D01*
X56291253Y-132414427D01*
X56290782Y-132414472D01*
X56216524Y-132436275D01*
X56213676Y-132437038D01*
X56138430Y-132455294D01*
X56138417Y-132455298D01*
X56122488Y-132462572D01*
X56105932Y-132468747D01*
X56089134Y-132473680D01*
X56089119Y-132473686D01*
X56048950Y-132494395D01*
X56020312Y-132509157D01*
X56017680Y-132510437D01*
X55947250Y-132542602D01*
X55947243Y-132542606D01*
X55932982Y-132552761D01*
X55917883Y-132561964D01*
X55902319Y-132569987D01*
X55902314Y-132569991D01*
X55841471Y-132617839D01*
X55839109Y-132619607D01*
X55776048Y-132664513D01*
X55763959Y-132677191D01*
X55750879Y-132689081D01*
X55737114Y-132699907D01*
X55686417Y-132758413D01*
X55684433Y-132760595D01*
X55631015Y-132816620D01*
X55631009Y-132816628D01*
X55621550Y-132831347D01*
X55610949Y-132845508D01*
X55599485Y-132858737D01*
X55560764Y-132925800D01*
X55559236Y-132928306D01*
X55547066Y-132947245D01*
X55517387Y-132993427D01*
X55517385Y-132993430D01*
X55510878Y-133009684D01*
X55503152Y-133025590D01*
X55494396Y-133040755D01*
X55494393Y-133040762D01*
X55469073Y-133113918D01*
X55468042Y-133116681D01*
X55439277Y-133188535D01*
X55439273Y-133188547D01*
X55435961Y-133205732D01*
X55431385Y-133222811D01*
X55425656Y-133239364D01*
X55414635Y-133316017D01*
X55414145Y-133318926D01*
X55399500Y-133394914D01*
X55399500Y-133412417D01*
X55398238Y-133430064D01*
X55395746Y-133447395D01*
X55395745Y-133447397D01*
X55399430Y-133524740D01*
X55399500Y-133527690D01*
X55399500Y-146412417D01*
X55398238Y-146430064D01*
X55395746Y-146447395D01*
X55395745Y-146447397D01*
X46999790Y-146447397D01*
X46833392Y-145849709D01*
X46398969Y-144146979D01*
X46001632Y-142435215D01*
X45641569Y-140715225D01*
X45318949Y-138987819D01*
X45033926Y-137253814D01*
X44786633Y-135514027D01*
X44577188Y-133769279D01*
X44405689Y-132020394D01*
X44272216Y-130268196D01*
X44176834Y-128513512D01*
X44151947Y-127750000D01*
X53550000Y-127750000D01*
X54774916Y-127750000D01*
X54756307Y-127831530D01*
X54746212Y-128056308D01*
X54772449Y-128250000D01*
X53550001Y-128250000D01*
X53550001Y-129749984D01*
X53560494Y-129852695D01*
X53615641Y-130019117D01*
X53615643Y-130019122D01*
X53707684Y-130168344D01*
X53831655Y-130292315D01*
X53980877Y-130384356D01*
X53980882Y-130384358D01*
X54147304Y-130439505D01*
X54147311Y-130439506D01*
X54250021Y-130449999D01*
X55749999Y-130449999D01*
X55750000Y-130449998D01*
X55750000Y-129225047D01*
X55887498Y-129250000D01*
X56056133Y-129250000D01*
X56224098Y-129234883D01*
X56250000Y-129227734D01*
X56250000Y-130449999D01*
X57749970Y-130449999D01*
X57749984Y-130449998D01*
X57852695Y-130439505D01*
X58019117Y-130384358D01*
X58019122Y-130384356D01*
X58168344Y-130292315D01*
X58292315Y-130168344D01*
X58384356Y-130019122D01*
X58384358Y-130019117D01*
X58439505Y-129852695D01*
X58439506Y-129852688D01*
X58449999Y-129749984D01*
X58450000Y-129749971D01*
X58450000Y-128250000D01*
X57225084Y-128250000D01*
X57243693Y-128168470D01*
X57253788Y-127943692D01*
X57227551Y-127750000D01*
X58449999Y-127750000D01*
X68550000Y-127750000D01*
X69774916Y-127750000D01*
X69756307Y-127831530D01*
X69746212Y-128056308D01*
X69772449Y-128250000D01*
X68550001Y-128250000D01*
X68550001Y-129749984D01*
X68560494Y-129852695D01*
X68615641Y-130019117D01*
X68615643Y-130019122D01*
X68707684Y-130168344D01*
X68831655Y-130292315D01*
X68980877Y-130384356D01*
X68980882Y-130384358D01*
X69147304Y-130439505D01*
X69147311Y-130439506D01*
X69250021Y-130449999D01*
X70749999Y-130449999D01*
X70750000Y-130449998D01*
X70750000Y-129225047D01*
X70887498Y-129250000D01*
X71056133Y-129250000D01*
X71224098Y-129234883D01*
X71250000Y-129227734D01*
X71250000Y-130449999D01*
X72749970Y-130449999D01*
X72749984Y-130449998D01*
X72852695Y-130439505D01*
X73019117Y-130384358D01*
X73019122Y-130384356D01*
X73168344Y-130292315D01*
X73292315Y-130168344D01*
X73384356Y-130019122D01*
X73384358Y-130019117D01*
X73439505Y-129852695D01*
X73439506Y-129852688D01*
X73449999Y-129749984D01*
X73450000Y-129749971D01*
X73450000Y-128250000D01*
X72225084Y-128250000D01*
X72243693Y-128168470D01*
X72253788Y-127943692D01*
X72227551Y-127750000D01*
X73449999Y-127750000D01*
X73449999Y-126250030D01*
X73449998Y-126250015D01*
X73439505Y-126147304D01*
X73384358Y-125980882D01*
X73384356Y-125980877D01*
X73292315Y-125831655D01*
X73168344Y-125707684D01*
X73019122Y-125615643D01*
X73019117Y-125615641D01*
X72852695Y-125560494D01*
X72852688Y-125560493D01*
X72749984Y-125550000D01*
X71250000Y-125550000D01*
X71250000Y-126774952D01*
X71112502Y-126750000D01*
X70943867Y-126750000D01*
X70775902Y-126765117D01*
X70750000Y-126772265D01*
X70750000Y-125550000D01*
X69250030Y-125550000D01*
X69250014Y-125550001D01*
X69147304Y-125560494D01*
X68980882Y-125615641D01*
X68980877Y-125615643D01*
X68831655Y-125707684D01*
X68707684Y-125831655D01*
X68615643Y-125980877D01*
X68615641Y-125980882D01*
X68560494Y-126147304D01*
X68560493Y-126147311D01*
X68550000Y-126250015D01*
X68550000Y-127750000D01*
X58449999Y-127750000D01*
X58449999Y-126250030D01*
X58449998Y-126250015D01*
X58439505Y-126147304D01*
X58384358Y-125980882D01*
X58384356Y-125980877D01*
X58292315Y-125831655D01*
X58168344Y-125707684D01*
X58019122Y-125615643D01*
X58019117Y-125615641D01*
X57852695Y-125560494D01*
X57852688Y-125560493D01*
X57749984Y-125550000D01*
X56250000Y-125550000D01*
X56250000Y-126774952D01*
X56112502Y-126750000D01*
X55943867Y-126750000D01*
X55775902Y-126765117D01*
X55750000Y-126772265D01*
X55750000Y-125550000D01*
X54250030Y-125550000D01*
X54250014Y-125550001D01*
X54147304Y-125560494D01*
X53980882Y-125615641D01*
X53980877Y-125615643D01*
X53831655Y-125707684D01*
X53707684Y-125831655D01*
X53615643Y-125980877D01*
X53615641Y-125980882D01*
X53560494Y-126147304D01*
X53560493Y-126147311D01*
X53550000Y-126250015D01*
X53550000Y-127750000D01*
X44151947Y-127750000D01*
X44119586Y-126757171D01*
X44100501Y-125000000D01*
X44114072Y-123750551D01*
X53541500Y-123750551D01*
X53552112Y-123854419D01*
X53552113Y-123854426D01*
X53597314Y-123990834D01*
X53607886Y-124022737D01*
X53700970Y-124173651D01*
X53826349Y-124299030D01*
X53977263Y-124392114D01*
X54145575Y-124447887D01*
X54249456Y-124458500D01*
X54249461Y-124458500D01*
X57750539Y-124458500D01*
X57750544Y-124458500D01*
X57854425Y-124447887D01*
X58022737Y-124392114D01*
X58173651Y-124299030D01*
X58299030Y-124173651D01*
X58392114Y-124022737D01*
X58447887Y-123854425D01*
X58458499Y-123750551D01*
X68541500Y-123750551D01*
X68552112Y-123854419D01*
X68552113Y-123854426D01*
X68597314Y-123990834D01*
X68607886Y-124022737D01*
X68700970Y-124173651D01*
X68826349Y-124299030D01*
X68977263Y-124392114D01*
X69145575Y-124447887D01*
X69249456Y-124458500D01*
X69249461Y-124458500D01*
X72750539Y-124458500D01*
X72750544Y-124458500D01*
X72854425Y-124447887D01*
X73022737Y-124392114D01*
X73173651Y-124299030D01*
X73299030Y-124173651D01*
X73392114Y-124022737D01*
X73447887Y-123854425D01*
X73458500Y-123750544D01*
X73458500Y-120249456D01*
X73447887Y-120145575D01*
X73392114Y-119977263D01*
X73299030Y-119826349D01*
X73173651Y-119700970D01*
X73022737Y-119607886D01*
X73022734Y-119607885D01*
X72854426Y-119552113D01*
X72854419Y-119552112D01*
X72750551Y-119541500D01*
X72750544Y-119541500D01*
X69249456Y-119541500D01*
X69249448Y-119541500D01*
X69145580Y-119552112D01*
X69145573Y-119552113D01*
X68977265Y-119607885D01*
X68977260Y-119607887D01*
X68826347Y-119700971D01*
X68700971Y-119826347D01*
X68607887Y-119977260D01*
X68607885Y-119977265D01*
X68552113Y-120145573D01*
X68552112Y-120145580D01*
X68541500Y-120249448D01*
X68541500Y-123750551D01*
X58458499Y-123750551D01*
X58458500Y-123750544D01*
X58458500Y-120249456D01*
X58447887Y-120145575D01*
X58392114Y-119977263D01*
X58299030Y-119826349D01*
X58173651Y-119700970D01*
X58022737Y-119607886D01*
X58022734Y-119607885D01*
X57854426Y-119552113D01*
X57854419Y-119552112D01*
X57750551Y-119541500D01*
X57750544Y-119541500D01*
X54249456Y-119541500D01*
X54249448Y-119541500D01*
X54145580Y-119552112D01*
X54145573Y-119552113D01*
X53977265Y-119607885D01*
X53977260Y-119607887D01*
X53826347Y-119700971D01*
X53700971Y-119826347D01*
X53607887Y-119977260D01*
X53607885Y-119977265D01*
X53552113Y-120145573D01*
X53552112Y-120145580D01*
X53541500Y-120249448D01*
X53541500Y-123750551D01*
X44114072Y-123750551D01*
X44119586Y-123242829D01*
X44176834Y-121486488D01*
X44272216Y-119731804D01*
X44405689Y-117979606D01*
X44555940Y-116447397D01*
X55395745Y-116447397D01*
X55399430Y-116524740D01*
X55399500Y-116527690D01*
X55399500Y-116552424D01*
X55401851Y-116577055D01*
X55402061Y-116579997D01*
X55405745Y-116657329D01*
X55405746Y-116657331D01*
X55409875Y-116674352D01*
X55412807Y-116691788D01*
X55414472Y-116709218D01*
X55429569Y-116760634D01*
X55436277Y-116783477D01*
X55437041Y-116786327D01*
X55455294Y-116861572D01*
X55455296Y-116861576D01*
X55462573Y-116877513D01*
X55468750Y-116894076D01*
X55473680Y-116910865D01*
X55473686Y-116910880D01*
X55509155Y-116979681D01*
X55510444Y-116982334D01*
X55542605Y-117052755D01*
X55552756Y-117067010D01*
X55561963Y-117082116D01*
X55569986Y-117097680D01*
X55617853Y-117158548D01*
X55619621Y-117160910D01*
X55664506Y-117223942D01*
X55664510Y-117223946D01*
X55664514Y-117223952D01*
X55677190Y-117236038D01*
X55689085Y-117249124D01*
X55699908Y-117262886D01*
X55742845Y-117300091D01*
X55758414Y-117313582D01*
X55760598Y-117315567D01*
X55816621Y-117368986D01*
X55831342Y-117378446D01*
X55845507Y-117389049D01*
X55858744Y-117400519D01*
X55925824Y-117439248D01*
X55928263Y-117440734D01*
X55993428Y-117482613D01*
X56009681Y-117489119D01*
X56025589Y-117496847D01*
X56033642Y-117501496D01*
X56040752Y-117505602D01*
X56040753Y-117505602D01*
X56040756Y-117505604D01*
X56113943Y-117530933D01*
X56116664Y-117531948D01*
X56167239Y-117552196D01*
X56188540Y-117560724D01*
X56188543Y-117560725D01*
X56205726Y-117564036D01*
X56222817Y-117568615D01*
X56239367Y-117574344D01*
X56316028Y-117585365D01*
X56318901Y-117585849D01*
X56394915Y-117600500D01*
X56412418Y-117600500D01*
X56430066Y-117601762D01*
X56447397Y-117604254D01*
X56447397Y-117604253D01*
X56447398Y-117604254D01*
X56461420Y-117603586D01*
X56524741Y-117600570D01*
X56527691Y-117600500D01*
X76412418Y-117600500D01*
X76430066Y-117601762D01*
X76447397Y-117604254D01*
X76447397Y-117604253D01*
X76447398Y-117604254D01*
X76461420Y-117603586D01*
X76524741Y-117600570D01*
X76527691Y-117600500D01*
X76552417Y-117600500D01*
X76552425Y-117600500D01*
X76577063Y-117598146D01*
X76579986Y-117597937D01*
X76657330Y-117594254D01*
X76657332Y-117594253D01*
X76657335Y-117594253D01*
X76674344Y-117590126D01*
X76691793Y-117587191D01*
X76709218Y-117585528D01*
X76783532Y-117563706D01*
X76786307Y-117562963D01*
X76861576Y-117544704D01*
X76877509Y-117537427D01*
X76894079Y-117531247D01*
X76910875Y-117526316D01*
X76979681Y-117490844D01*
X76982335Y-117489555D01*
X77012609Y-117475728D01*
X77052753Y-117457396D01*
X77067011Y-117447241D01*
X77082113Y-117438036D01*
X77097682Y-117430011D01*
X77158553Y-117382140D01*
X77160885Y-117380394D01*
X77223952Y-117335486D01*
X77236039Y-117322808D01*
X77249123Y-117310914D01*
X77262886Y-117300092D01*
X77313584Y-117241583D01*
X77315570Y-117239398D01*
X77330298Y-117223952D01*
X77368986Y-117183378D01*
X77378449Y-117168650D01*
X77389047Y-117154494D01*
X77400519Y-117141256D01*
X77439239Y-117074189D01*
X77440743Y-117071721D01*
X77482613Y-117006572D01*
X77489120Y-116990316D01*
X77496843Y-116974416D01*
X77505604Y-116959244D01*
X77530935Y-116886051D01*
X77531960Y-116883305D01*
X77534279Y-116877513D01*
X77560725Y-116811457D01*
X77564037Y-116794266D01*
X77568617Y-116777177D01*
X77574344Y-116760633D01*
X77585366Y-116683963D01*
X77585851Y-116681085D01*
X77587149Y-116674352D01*
X77600500Y-116605085D01*
X77600500Y-116587579D01*
X77601762Y-116569933D01*
X77604254Y-116552602D01*
X77600570Y-116475258D01*
X77600500Y-116472308D01*
X77600500Y-103587579D01*
X77601762Y-103569933D01*
X77604254Y-103552602D01*
X77600570Y-103475258D01*
X77600500Y-103472308D01*
X77600500Y-103447582D01*
X77600500Y-103447575D01*
X77598145Y-103422926D01*
X77597937Y-103420011D01*
X77594254Y-103342670D01*
X77590126Y-103325655D01*
X77587191Y-103308207D01*
X77585528Y-103290782D01*
X77563716Y-103216503D01*
X77562955Y-103213660D01*
X77556860Y-103188535D01*
X77544704Y-103138424D01*
X77537428Y-103122491D01*
X77531247Y-103105917D01*
X77526317Y-103089129D01*
X77526316Y-103089125D01*
X77490839Y-103020308D01*
X77489550Y-103017654D01*
X77457395Y-102947245D01*
X77453746Y-102942122D01*
X77447240Y-102932985D01*
X77438035Y-102917884D01*
X77430011Y-102902318D01*
X77395738Y-102858737D01*
X77382155Y-102841464D01*
X77380403Y-102839125D01*
X77335486Y-102776048D01*
X77322810Y-102763961D01*
X77310913Y-102750874D01*
X77300092Y-102737114D01*
X77300085Y-102737107D01*
X77241584Y-102686415D01*
X77239401Y-102684431D01*
X77183380Y-102631016D01*
X77183378Y-102631014D01*
X77183372Y-102631010D01*
X77168651Y-102621549D01*
X77154488Y-102610947D01*
X77141256Y-102599481D01*
X77074203Y-102560767D01*
X77071684Y-102559231D01*
X77042029Y-102540173D01*
X77006572Y-102517387D01*
X76990320Y-102510880D01*
X76974414Y-102503154D01*
X76959244Y-102494396D01*
X76959243Y-102494395D01*
X76959242Y-102494395D01*
X76886087Y-102469076D01*
X76883322Y-102468045D01*
X76811457Y-102439275D01*
X76794268Y-102435962D01*
X76777183Y-102431384D01*
X76760633Y-102425656D01*
X76683989Y-102414636D01*
X76681079Y-102414146D01*
X76605086Y-102399500D01*
X76605085Y-102399500D01*
X76587582Y-102399500D01*
X76569934Y-102398238D01*
X76552602Y-102395745D01*
X76475259Y-102399430D01*
X76472309Y-102399500D01*
X56587582Y-102399500D01*
X56569934Y-102398238D01*
X56552602Y-102395745D01*
X56475259Y-102399430D01*
X56472309Y-102399500D01*
X56447575Y-102399500D01*
X56422943Y-102401851D01*
X56420002Y-102402061D01*
X56342673Y-102405745D01*
X56332251Y-102408273D01*
X56325643Y-102409876D01*
X56308212Y-102412807D01*
X56291253Y-102414427D01*
X56290782Y-102414472D01*
X56216524Y-102436275D01*
X56213676Y-102437038D01*
X56138430Y-102455294D01*
X56138417Y-102455298D01*
X56122488Y-102462572D01*
X56105932Y-102468747D01*
X56089134Y-102473680D01*
X56089119Y-102473686D01*
X56048950Y-102494395D01*
X56020312Y-102509157D01*
X56017680Y-102510437D01*
X55947250Y-102542602D01*
X55947243Y-102542606D01*
X55932982Y-102552761D01*
X55917883Y-102561964D01*
X55902319Y-102569987D01*
X55902314Y-102569991D01*
X55841471Y-102617839D01*
X55839109Y-102619607D01*
X55776048Y-102664513D01*
X55763959Y-102677191D01*
X55750879Y-102689081D01*
X55737114Y-102699907D01*
X55686417Y-102758413D01*
X55684433Y-102760595D01*
X55631015Y-102816620D01*
X55631009Y-102816628D01*
X55621550Y-102831347D01*
X55610949Y-102845508D01*
X55599485Y-102858737D01*
X55560764Y-102925800D01*
X55559236Y-102928306D01*
X55547066Y-102947245D01*
X55517387Y-102993427D01*
X55517385Y-102993430D01*
X55510878Y-103009684D01*
X55503152Y-103025590D01*
X55494396Y-103040755D01*
X55494393Y-103040762D01*
X55469073Y-103113918D01*
X55468042Y-103116681D01*
X55439277Y-103188535D01*
X55439273Y-103188547D01*
X55435961Y-103205732D01*
X55431385Y-103222811D01*
X55425656Y-103239364D01*
X55414635Y-103316017D01*
X55414145Y-103318926D01*
X55399500Y-103394914D01*
X55399500Y-103412417D01*
X55398238Y-103430064D01*
X55395746Y-103447395D01*
X55395745Y-103447397D01*
X55399430Y-103524740D01*
X55399500Y-103527690D01*
X55399500Y-116412417D01*
X55398238Y-116430064D01*
X55395746Y-116447395D01*
X55395745Y-116447397D01*
X44555940Y-116447397D01*
X44577188Y-116230721D01*
X44786633Y-114485973D01*
X45033926Y-112746186D01*
X45318949Y-111012181D01*
X45641569Y-109284775D01*
X46001632Y-107564785D01*
X46398969Y-105853021D01*
X46833392Y-104150291D01*
X47304697Y-102457399D01*
X47812661Y-100775143D01*
X48357045Y-99104317D01*
X48935895Y-97450553D01*
X48937637Y-97445741D01*
X48937639Y-97445742D01*
X48991353Y-97297390D01*
X49068161Y-96991327D01*
X49113502Y-96679048D01*
X49126908Y-96363779D01*
X49108240Y-96048778D01*
X49057690Y-95737300D01*
X48975782Y-95432562D01*
X48863362Y-95137714D01*
X48721591Y-94855801D01*
X48551933Y-94589736D01*
X48356143Y-94342268D01*
X48136242Y-94115955D01*
X48136240Y-94115953D01*
X48098315Y-94084121D01*
X48098101Y-94083925D01*
X48095940Y-94082111D01*
X48095937Y-94082108D01*
X42480813Y-89370460D01*
X39120593Y-86550900D01*
X38987582Y-86439251D01*
X38987581Y-86439250D01*
X38987576Y-86439246D01*
X38719012Y-86257968D01*
X38719005Y-86257963D01*
X38433028Y-86105672D01*
X38433021Y-86105669D01*
X38211833Y-86016059D01*
X38132710Y-85984004D01*
X38132705Y-85984002D01*
X38132695Y-85983999D01*
X37939529Y-85928346D01*
X37880559Y-85890871D01*
X37851211Y-85827464D01*
X37860803Y-85758256D01*
X37895820Y-85712828D01*
X38084876Y-85559734D01*
X38359734Y-85284876D01*
X38604357Y-84982793D01*
X38816062Y-84656795D01*
X38992532Y-84310453D01*
X39131833Y-83947562D01*
X39232438Y-83572099D01*
X39293246Y-83188176D01*
X39313589Y-82800000D01*
X39293246Y-82411824D01*
X39232438Y-82027901D01*
X39131833Y-81652438D01*
X38992532Y-81289547D01*
X38816062Y-80943206D01*
X38604357Y-80617207D01*
X38359734Y-80315124D01*
X38084876Y-80040266D01*
X37782793Y-79795643D01*
X37782790Y-79795641D01*
X37782785Y-79795637D01*
X37456799Y-79583940D01*
X37110456Y-79407469D01*
X36747569Y-79268169D01*
X36631368Y-79237033D01*
X36372099Y-79167562D01*
X36372095Y-79167561D01*
X36372094Y-79167561D01*
X35988177Y-79106754D01*
X35600001Y-79086411D01*
X35599999Y-79086411D01*
X35211822Y-79106754D01*
X34827906Y-79167561D01*
X34827904Y-79167561D01*
X34452430Y-79268169D01*
X34089543Y-79407469D01*
X33743201Y-79583940D01*
X33417214Y-79795637D01*
X33115128Y-80040262D01*
X33115120Y-80040269D01*
X32840269Y-80315120D01*
X32840262Y-80315128D01*
X32595637Y-80617214D01*
X32383940Y-80943201D01*
X32207469Y-81289543D01*
X32068169Y-81652430D01*
X31967561Y-82027904D01*
X31967561Y-82027906D01*
X31906754Y-82411822D01*
X31886411Y-82799999D01*
X31886411Y-82800000D01*
X31906754Y-83188177D01*
X31967561Y-83572093D01*
X31967561Y-83572095D01*
X32068169Y-83947569D01*
X32207469Y-84310456D01*
X32383940Y-84656799D01*
X32595637Y-84982785D01*
X32595641Y-84982790D01*
X32595643Y-84982793D01*
X32840266Y-85284876D01*
X33115124Y-85559734D01*
X33417207Y-85804357D01*
X33417211Y-85804359D01*
X33417214Y-85804362D01*
X33743200Y-86016059D01*
X33743205Y-86016062D01*
X34089547Y-86192532D01*
X34452438Y-86331833D01*
X34827901Y-86432438D01*
X34927610Y-86448230D01*
X34990745Y-86478159D01*
X35027677Y-86537470D01*
X35026679Y-86607333D01*
X34993962Y-86660275D01*
X34857591Y-86790824D01*
X34857587Y-86790829D01*
X34681336Y-86998899D01*
X34648153Y-87038072D01*
X34465633Y-87305789D01*
X34312009Y-87591069D01*
X34312001Y-87591086D01*
X34253361Y-87733984D01*
X34247957Y-87747147D01*
X34229060Y-87793179D01*
X34226766Y-87798768D01*
X33966970Y-88431562D01*
X33887624Y-88624827D01*
X33196392Y-90406419D01*
X32539993Y-92201138D01*
X31918676Y-94008301D01*
X31332677Y-95827223D01*
X30782218Y-97657214D01*
X30267509Y-99497580D01*
X29788744Y-101347623D01*
X29346104Y-103206639D01*
X28939759Y-105073925D01*
X28569862Y-106948772D01*
X28236554Y-108830467D01*
X27939960Y-110718298D01*
X27680194Y-112611548D01*
X27457355Y-114509498D01*
X27271525Y-116411429D01*
X27122777Y-118316619D01*
X27011167Y-120224344D01*
X26936736Y-122133881D01*
X26899514Y-124044506D01*
X26899514Y-125955494D01*
X26936736Y-127866119D01*
X27011167Y-129775656D01*
X27122777Y-131683381D01*
X27271525Y-133588571D01*
X27457355Y-135490502D01*
X27680194Y-137388452D01*
X27939960Y-139281702D01*
X28236554Y-141169533D01*
X28569862Y-143051228D01*
X28939759Y-144926075D01*
X29346104Y-146793361D01*
X29788744Y-148652377D01*
X30267509Y-150502420D01*
X30782218Y-152342786D01*
X31332677Y-154172777D01*
X31918676Y-155991699D01*
X32539993Y-157798862D01*
X33196392Y-159593581D01*
X33887624Y-161375173D01*
X34210744Y-162162207D01*
X34210755Y-162162237D01*
X34236266Y-162224375D01*
X34236266Y-162224379D01*
X34251848Y-162262329D01*
X34275727Y-162320491D01*
X34290249Y-162355861D01*
X34290427Y-162356242D01*
X34312048Y-162408927D01*
X34465674Y-162694204D01*
X34646966Y-162960115D01*
X34648191Y-162961911D01*
X34648207Y-162961933D01*
X34857612Y-163209138D01*
X34857622Y-163209148D01*
X34857623Y-163209149D01*
X34894010Y-163243982D01*
X35091677Y-163433210D01*
X35091686Y-163433218D01*
X35347804Y-163631655D01*
X35347807Y-163631657D01*
X35410031Y-163670216D01*
X35456648Y-163722261D01*
X35467726Y-163791247D01*
X35439750Y-163855271D01*
X35381600Y-163894006D01*
X35351205Y-163899449D01*
X35211822Y-163906754D01*
X34827906Y-163967561D01*
X34827904Y-163967561D01*
X34452430Y-164068169D01*
X34089543Y-164207469D01*
X33743201Y-164383940D01*
X33417214Y-164595637D01*
X33115128Y-164840262D01*
X33115120Y-164840269D01*
X32840269Y-165115120D01*
X32840262Y-165115128D01*
X32595637Y-165417214D01*
X32383940Y-165743201D01*
X32207469Y-166089543D01*
X32068169Y-166452430D01*
X31967561Y-166827904D01*
X31967561Y-166827906D01*
X31909469Y-167194684D01*
X31906754Y-167211824D01*
X31886411Y-167600000D01*
X31906754Y-167988176D01*
X31967562Y-168372099D01*
X31973028Y-168392500D01*
X31973030Y-168392505D01*
X31971367Y-168462355D01*
X31932204Y-168520217D01*
X31867976Y-168547721D01*
X31799074Y-168536134D01*
X31747374Y-168489136D01*
X31740651Y-168476524D01*
X31147588Y-167190424D01*
X30354749Y-165380485D01*
X29596811Y-163555655D01*
X28874053Y-161716608D01*
X28186741Y-159864022D01*
X27535130Y-157998579D01*
X26919459Y-156120968D01*
X26339956Y-154231881D01*
X25796834Y-152332015D01*
X25290294Y-150422070D01*
X24820522Y-148502750D01*
X24387691Y-146574764D01*
X23991962Y-144638822D01*
X23633479Y-142695638D01*
X23312376Y-140745928D01*
X23028771Y-138790413D01*
X22782767Y-136829812D01*
X22574457Y-134864848D01*
X22403916Y-132896248D01*
X22271208Y-130924735D01*
X22176382Y-128951037D01*
X22119472Y-126975883D01*
X22100500Y-125000000D01*
X22119472Y-123024117D01*
X22176382Y-121048963D01*
X22271208Y-119075265D01*
X22403916Y-117103752D01*
X22574457Y-115135152D01*
X22782767Y-113170188D01*
X23028771Y-111209587D01*
X23312376Y-109254072D01*
X23633479Y-107304362D01*
X23991962Y-105361178D01*
X24387691Y-103425236D01*
X24820522Y-101497250D01*
X25290294Y-99577930D01*
X25796834Y-97667985D01*
X26339956Y-95768119D01*
X26919459Y-93879032D01*
X27535130Y-92001421D01*
X28186741Y-90135978D01*
X28874053Y-88283392D01*
X29596811Y-86444345D01*
X30354749Y-84619515D01*
X31147588Y-82809576D01*
X31975036Y-81015194D01*
X32836786Y-79237033D01*
X32913388Y-79086411D01*
X33731435Y-77477885D01*
X33733779Y-77473691D01*
X33866558Y-77256574D01*
X33871500Y-77249618D01*
X34031617Y-77054218D01*
X34037460Y-77048013D01*
X34222867Y-76876424D01*
X34229514Y-76871071D01*
X34407792Y-76746706D01*
X34436705Y-76726536D01*
X34444004Y-76722157D01*
X34669076Y-76607402D01*
X34676917Y-76604062D01*
X34915596Y-76521267D01*
X34923822Y-76519034D01*
X35171601Y-76469762D01*
X35180052Y-76468679D01*
X35432254Y-76453861D01*
X35440771Y-76453947D01*
X35692613Y-76473864D01*
X35701046Y-76475120D01*
X35947765Y-76529390D01*
X35955956Y-76531792D01*
X36192906Y-76619395D01*
X36200673Y-76622891D01*
X36423377Y-76742174D01*
X36430589Y-76746701D01*
X36636422Y-76896567D01*
X36639748Y-76899168D01*
X54950486Y-92263701D01*
X54950568Y-92263823D01*
X54989913Y-92296838D01*
X54989913Y-92296839D01*
X55039992Y-92338862D01*
X55114390Y-92401292D01*
X55114397Y-92401297D01*
X55383803Y-92583021D01*
X55383806Y-92583022D01*
X55383814Y-92583028D01*
X55670761Y-92735606D01*
X55670769Y-92735609D01*
X55670775Y-92735612D01*
X55972075Y-92857348D01*
X55972079Y-92857350D01*
X55972082Y-92857351D01*
X55972085Y-92857352D01*
X56284485Y-92946933D01*
X56604537Y-93003367D01*
X56928735Y-93026035D01*
X56928746Y-93026034D01*
X56928752Y-93026035D01*
X57158796Y-93017999D01*
X57253527Y-93014691D01*
X57575353Y-92969457D01*
X57890688Y-92890829D01*
X58196076Y-92779669D01*
X58488171Y-92637195D01*
X58763772Y-92464968D01*
X58903121Y-92356089D01*
X58968065Y-92330325D01*
X59036630Y-92343763D01*
X59087046Y-92392137D01*
X59095229Y-92409362D01*
X59207469Y-92701756D01*
X59383940Y-93048099D01*
X59595637Y-93374085D01*
X59595641Y-93374090D01*
X59595643Y-93374093D01*
X59840266Y-93676176D01*
X60115124Y-93951034D01*
X60417207Y-94195657D01*
X60417211Y-94195659D01*
X60417214Y-94195662D01*
X60681918Y-94367562D01*
X60743205Y-94407362D01*
X61089547Y-94583832D01*
X61452438Y-94723133D01*
X61827901Y-94823738D01*
X62211824Y-94884546D01*
X62578530Y-94903763D01*
X62599999Y-94904889D01*
X62600000Y-94904889D01*
X62600001Y-94904889D01*
X62620344Y-94903822D01*
X62988176Y-94884546D01*
X63372099Y-94823738D01*
X63747562Y-94723133D01*
X64110453Y-94583832D01*
X64456795Y-94407362D01*
X64782793Y-94195657D01*
X65084876Y-93951034D01*
X65359734Y-93676176D01*
X65604357Y-93374093D01*
X65816062Y-93048095D01*
X65992532Y-92701753D01*
X66131833Y-92338862D01*
X66232438Y-91963399D01*
X66293246Y-91579476D01*
X66313589Y-91191300D01*
X66293246Y-90803124D01*
X66232438Y-90419201D01*
X66131833Y-90043738D01*
X65992532Y-89680847D01*
X65816062Y-89334506D01*
X65604357Y-89008507D01*
X65359734Y-88706424D01*
X65084876Y-88431566D01*
X64782793Y-88186943D01*
X64782790Y-88186941D01*
X64782785Y-88186937D01*
X64456799Y-87975240D01*
X64110456Y-87798769D01*
X63747569Y-87659469D01*
X63699508Y-87646591D01*
X63372099Y-87558862D01*
X63372095Y-87558861D01*
X63372094Y-87558861D01*
X63271592Y-87542943D01*
X63208457Y-87513014D01*
X63171526Y-87453702D01*
X63172524Y-87383839D01*
X63195998Y-87340767D01*
X63808578Y-86610723D01*
X105286411Y-86610723D01*
X105306754Y-86998900D01*
X105355362Y-87305796D01*
X105367562Y-87382822D01*
X105461654Y-87733980D01*
X105468169Y-87758292D01*
X105607469Y-88121179D01*
X105783940Y-88467522D01*
X105995637Y-88793508D01*
X105995641Y-88793513D01*
X105995643Y-88793516D01*
X106240266Y-89095599D01*
X106515124Y-89370457D01*
X106817207Y-89615080D01*
X106817211Y-89615082D01*
X106817214Y-89615085D01*
X107143200Y-89826782D01*
X107143205Y-89826785D01*
X107489547Y-90003255D01*
X107852438Y-90142556D01*
X108227901Y-90243161D01*
X108611824Y-90303969D01*
X108978530Y-90323186D01*
X108999999Y-90324312D01*
X109000000Y-90324312D01*
X109000001Y-90324312D01*
X109020344Y-90323245D01*
X109388176Y-90303969D01*
X109772099Y-90243161D01*
X110147562Y-90142556D01*
X110510453Y-90003255D01*
X110856795Y-89826785D01*
X111182793Y-89615080D01*
X111484876Y-89370457D01*
X111759734Y-89095599D01*
X112004357Y-88793516D01*
X112216062Y-88467518D01*
X112392532Y-88121176D01*
X112531833Y-87758285D01*
X112632438Y-87382822D01*
X112693246Y-86998899D01*
X112713589Y-86610723D01*
X137286411Y-86610723D01*
X137306754Y-86998900D01*
X137355362Y-87305796D01*
X137367562Y-87382822D01*
X137461654Y-87733980D01*
X137468169Y-87758292D01*
X137607469Y-88121179D01*
X137783940Y-88467522D01*
X137995637Y-88793508D01*
X137995641Y-88793513D01*
X137995643Y-88793516D01*
X138240266Y-89095599D01*
X138515124Y-89370457D01*
X138817207Y-89615080D01*
X138817211Y-89615082D01*
X138817214Y-89615085D01*
X139143200Y-89826782D01*
X139143205Y-89826785D01*
X139489547Y-90003255D01*
X139852438Y-90142556D01*
X140227901Y-90243161D01*
X140611824Y-90303969D01*
X140978530Y-90323186D01*
X140999999Y-90324312D01*
X141000000Y-90324312D01*
X141000001Y-90324312D01*
X141020344Y-90323245D01*
X141388176Y-90303969D01*
X141772099Y-90243161D01*
X142147562Y-90142556D01*
X142510453Y-90003255D01*
X142856795Y-89826785D01*
X143182793Y-89615080D01*
X143484876Y-89370457D01*
X143759734Y-89095599D01*
X144004357Y-88793516D01*
X144216062Y-88467518D01*
X144392532Y-88121176D01*
X144531833Y-87758285D01*
X144632438Y-87382822D01*
X144693246Y-86998899D01*
X144713589Y-86610723D01*
X144713495Y-86608938D01*
X144709354Y-86529921D01*
X144693246Y-86222547D01*
X144632438Y-85838624D01*
X144531833Y-85463161D01*
X144392532Y-85100270D01*
X144216062Y-84753929D01*
X144216059Y-84753924D01*
X144004362Y-84427937D01*
X144004359Y-84427934D01*
X144004357Y-84427930D01*
X143759734Y-84125847D01*
X143484876Y-83850989D01*
X143182793Y-83606366D01*
X143182790Y-83606364D01*
X143182785Y-83606360D01*
X142856799Y-83394663D01*
X142510456Y-83218192D01*
X142147569Y-83078892D01*
X142147562Y-83078890D01*
X141772099Y-82978285D01*
X141772095Y-82978284D01*
X141772094Y-82978284D01*
X141388177Y-82917477D01*
X141000001Y-82897134D01*
X140999999Y-82897134D01*
X140611822Y-82917477D01*
X140227906Y-82978284D01*
X140227904Y-82978284D01*
X139852430Y-83078892D01*
X139489543Y-83218192D01*
X139143201Y-83394663D01*
X138817214Y-83606360D01*
X138515128Y-83850985D01*
X138515120Y-83850992D01*
X138240269Y-84125843D01*
X138240262Y-84125851D01*
X137995637Y-84427937D01*
X137783940Y-84753924D01*
X137607469Y-85100266D01*
X137468169Y-85463153D01*
X137367561Y-85838627D01*
X137367561Y-85838629D01*
X137306754Y-86222545D01*
X137286411Y-86610722D01*
X137286411Y-86610723D01*
X112713589Y-86610723D01*
X112713495Y-86608938D01*
X112709354Y-86529921D01*
X112693246Y-86222547D01*
X112632438Y-85838624D01*
X112531833Y-85463161D01*
X112392532Y-85100270D01*
X112216062Y-84753929D01*
X112216059Y-84753924D01*
X112004362Y-84427937D01*
X112004359Y-84427934D01*
X112004357Y-84427930D01*
X111759734Y-84125847D01*
X111484876Y-83850989D01*
X111182793Y-83606366D01*
X111182790Y-83606364D01*
X111182785Y-83606360D01*
X110856799Y-83394663D01*
X110510456Y-83218192D01*
X110147569Y-83078892D01*
X110147562Y-83078890D01*
X109772099Y-82978285D01*
X109772095Y-82978284D01*
X109772094Y-82978284D01*
X109388177Y-82917477D01*
X109000001Y-82897134D01*
X108999999Y-82897134D01*
X108611822Y-82917477D01*
X108227906Y-82978284D01*
X108227904Y-82978284D01*
X107852430Y-83078892D01*
X107489543Y-83218192D01*
X107143201Y-83394663D01*
X106817214Y-83606360D01*
X106515128Y-83850985D01*
X106515120Y-83850992D01*
X106240269Y-84125843D01*
X106240262Y-84125851D01*
X105995637Y-84427937D01*
X105783940Y-84753924D01*
X105607469Y-85100266D01*
X105468169Y-85463153D01*
X105367561Y-85838627D01*
X105367561Y-85838629D01*
X105306754Y-86222545D01*
X105286411Y-86610722D01*
X105286411Y-86610723D01*
X63808578Y-86610723D01*
X76948921Y-70950671D01*
X77007090Y-70911972D01*
X77076951Y-70910864D01*
X77136321Y-70947701D01*
X77159671Y-70985940D01*
X77207468Y-71110453D01*
X77207470Y-71110456D01*
X77207471Y-71110459D01*
X77383940Y-71456799D01*
X77595637Y-71782785D01*
X77595641Y-71782790D01*
X77595643Y-71782793D01*
X77840266Y-72084876D01*
X78115124Y-72359734D01*
X78417207Y-72604357D01*
X78417211Y-72604359D01*
X78417214Y-72604362D01*
X78743200Y-72816059D01*
X78743205Y-72816062D01*
X79089547Y-72992532D01*
X79452438Y-73131833D01*
X79827901Y-73232438D01*
X80211824Y-73293246D01*
X80578530Y-73312463D01*
X80599999Y-73313589D01*
X80600000Y-73313589D01*
X80600001Y-73313589D01*
X80620344Y-73312522D01*
X80988176Y-73293246D01*
X81372099Y-73232438D01*
X81747562Y-73131833D01*
X82110453Y-72992532D01*
X82456795Y-72816062D01*
X82782793Y-72604357D01*
X83084876Y-72359734D01*
X83359734Y-72084876D01*
X83604357Y-71782793D01*
X83816062Y-71456795D01*
X83992532Y-71110453D01*
X84131833Y-70747562D01*
X84232438Y-70372099D01*
X84293246Y-69988176D01*
X84313589Y-69600000D01*
X84293246Y-69211824D01*
X84232438Y-68827901D01*
X84131833Y-68452438D01*
X83992532Y-68089547D01*
X83816062Y-67743206D01*
X83604357Y-67417207D01*
X83359734Y-67115124D01*
X83084876Y-66840266D01*
X82801415Y-66610723D01*
X105286411Y-66610723D01*
X105306754Y-66998899D01*
X105367562Y-67382822D01*
X105376775Y-67417207D01*
X105468169Y-67758292D01*
X105607469Y-68121179D01*
X105783940Y-68467522D01*
X105995637Y-68793508D01*
X105995641Y-68793513D01*
X105995643Y-68793516D01*
X106240266Y-69095599D01*
X106515124Y-69370457D01*
X106817207Y-69615080D01*
X106817211Y-69615082D01*
X106817214Y-69615085D01*
X107143200Y-69826782D01*
X107143205Y-69826785D01*
X107489547Y-70003255D01*
X107852438Y-70142556D01*
X108227901Y-70243161D01*
X108611824Y-70303969D01*
X108978530Y-70323186D01*
X108999999Y-70324312D01*
X109000000Y-70324312D01*
X109000001Y-70324312D01*
X109020344Y-70323245D01*
X109388176Y-70303969D01*
X109772099Y-70243161D01*
X110147562Y-70142556D01*
X110510453Y-70003255D01*
X110856795Y-69826785D01*
X111182793Y-69615080D01*
X111484876Y-69370457D01*
X111759734Y-69095599D01*
X112004357Y-68793516D01*
X112216062Y-68467518D01*
X112392532Y-68121176D01*
X112531833Y-67758285D01*
X112632438Y-67382822D01*
X112693246Y-66998899D01*
X112713589Y-66610723D01*
X137286411Y-66610723D01*
X137306754Y-66998899D01*
X137367562Y-67382822D01*
X137376775Y-67417207D01*
X137468169Y-67758292D01*
X137607469Y-68121179D01*
X137783940Y-68467522D01*
X137995637Y-68793508D01*
X137995641Y-68793513D01*
X137995643Y-68793516D01*
X138240266Y-69095599D01*
X138515124Y-69370457D01*
X138817207Y-69615080D01*
X138817211Y-69615082D01*
X138817214Y-69615085D01*
X139143200Y-69826782D01*
X139143205Y-69826785D01*
X139489547Y-70003255D01*
X139852438Y-70142556D01*
X140227901Y-70243161D01*
X140611824Y-70303969D01*
X140978530Y-70323186D01*
X140999999Y-70324312D01*
X141000000Y-70324312D01*
X141000001Y-70324312D01*
X141020344Y-70323245D01*
X141388176Y-70303969D01*
X141772099Y-70243161D01*
X142147562Y-70142556D01*
X142510453Y-70003255D01*
X142856795Y-69826785D01*
X143182793Y-69615080D01*
X143484876Y-69370457D01*
X143759734Y-69095599D01*
X144004357Y-68793516D01*
X144216062Y-68467518D01*
X144392532Y-68121176D01*
X144531833Y-67758285D01*
X144632438Y-67382822D01*
X144693246Y-66998899D01*
X144713589Y-66610723D01*
X144693246Y-66222547D01*
X144632438Y-65838624D01*
X144531833Y-65463161D01*
X144392532Y-65100270D01*
X144216062Y-64753929D01*
X144077237Y-64540156D01*
X144004362Y-64427937D01*
X144004359Y-64427934D01*
X144004357Y-64427930D01*
X143759734Y-64125847D01*
X143484876Y-63850989D01*
X143182793Y-63606366D01*
X143182790Y-63606364D01*
X143182785Y-63606360D01*
X142856799Y-63394663D01*
X142510456Y-63218192D01*
X142147569Y-63078892D01*
X142147562Y-63078890D01*
X141772099Y-62978285D01*
X141772095Y-62978284D01*
X141772094Y-62978284D01*
X141388177Y-62917477D01*
X141000001Y-62897134D01*
X140999999Y-62897134D01*
X140611822Y-62917477D01*
X140227906Y-62978284D01*
X140227904Y-62978284D01*
X139852430Y-63078892D01*
X139489543Y-63218192D01*
X139143201Y-63394663D01*
X138817214Y-63606360D01*
X138515128Y-63850985D01*
X138515120Y-63850992D01*
X138240269Y-64125843D01*
X138240262Y-64125851D01*
X137995637Y-64427937D01*
X137783940Y-64753924D01*
X137607469Y-65100266D01*
X137468169Y-65463153D01*
X137367561Y-65838627D01*
X137367561Y-65838629D01*
X137331206Y-66068167D01*
X137306754Y-66222547D01*
X137286411Y-66610723D01*
X112713589Y-66610723D01*
X112693246Y-66222547D01*
X112632438Y-65838624D01*
X112531833Y-65463161D01*
X112392532Y-65100270D01*
X112216062Y-64753929D01*
X112077237Y-64540156D01*
X112004362Y-64427937D01*
X112004359Y-64427934D01*
X112004357Y-64427930D01*
X111759734Y-64125847D01*
X111484876Y-63850989D01*
X111182793Y-63606366D01*
X111182790Y-63606364D01*
X111182785Y-63606360D01*
X110856799Y-63394663D01*
X110510456Y-63218192D01*
X110147569Y-63078892D01*
X110147562Y-63078890D01*
X109772099Y-62978285D01*
X109772095Y-62978284D01*
X109772094Y-62978284D01*
X109388177Y-62917477D01*
X109000001Y-62897134D01*
X108999999Y-62897134D01*
X108611822Y-62917477D01*
X108227906Y-62978284D01*
X108227904Y-62978284D01*
X107852430Y-63078892D01*
X107489543Y-63218192D01*
X107143201Y-63394663D01*
X106817214Y-63606360D01*
X106515128Y-63850985D01*
X106515120Y-63850992D01*
X106240269Y-64125843D01*
X106240262Y-64125851D01*
X105995637Y-64427937D01*
X105783940Y-64753924D01*
X105607469Y-65100266D01*
X105468169Y-65463153D01*
X105367561Y-65838627D01*
X105367561Y-65838629D01*
X105331206Y-66068167D01*
X105306754Y-66222547D01*
X105286411Y-66610723D01*
X82801415Y-66610723D01*
X82782793Y-66595643D01*
X82782790Y-66595641D01*
X82782785Y-66595637D01*
X82456799Y-66383940D01*
X82110456Y-66207469D01*
X81747569Y-66068169D01*
X81747562Y-66068167D01*
X81372099Y-65967562D01*
X81358067Y-65965339D01*
X81344503Y-65963191D01*
X81281369Y-65933260D01*
X81244439Y-65873947D01*
X81245439Y-65804085D01*
X81261100Y-65771383D01*
X81304823Y-65706562D01*
X81457387Y-65419629D01*
X81579123Y-65118320D01*
X81668699Y-64805937D01*
X81725131Y-64485902D01*
X81747803Y-64161722D01*
X81736467Y-63836948D01*
X81691245Y-63515138D01*
X81612633Y-63199818D01*
X81568177Y-63077667D01*
X81501497Y-62894447D01*
X81483558Y-62857664D01*
X81359044Y-62602355D01*
X81186843Y-62326757D01*
X80986780Y-62070669D01*
X80986775Y-62070663D01*
X80986765Y-62070652D01*
X80761049Y-61836900D01*
X80761036Y-61836888D01*
X80749494Y-61827202D01*
X80719263Y-61801833D01*
X80719181Y-61801757D01*
X80623205Y-61721224D01*
X80558462Y-61666893D01*
X80558460Y-61666892D01*
X80556450Y-61665205D01*
X80556372Y-61665145D01*
X62364786Y-46400591D01*
X62364763Y-46400569D01*
X62286469Y-46334876D01*
X62283312Y-46332036D01*
X62099866Y-46155248D01*
X62094143Y-46148917D01*
X61938007Y-45950326D01*
X61933206Y-45943269D01*
X61805792Y-45725142D01*
X61802004Y-45717494D01*
X61705714Y-45483950D01*
X61703011Y-45475854D01*
X61650232Y-45272095D01*
X61639663Y-45231293D01*
X61638102Y-45222932D01*
X61608900Y-44971982D01*
X61608500Y-44963470D01*
X61610139Y-44888177D01*
X61613996Y-44710912D01*
X61614768Y-44702412D01*
X61614770Y-44702401D01*
X61647301Y-44500000D01*
X64036411Y-44500000D01*
X64056754Y-44888177D01*
X64117561Y-45272093D01*
X64117561Y-45272095D01*
X64218169Y-45647569D01*
X64357469Y-46010456D01*
X64533940Y-46356799D01*
X64745637Y-46682785D01*
X64745641Y-46682790D01*
X64745643Y-46682793D01*
X64990266Y-46984876D01*
X65265124Y-47259734D01*
X65567207Y-47504357D01*
X65567211Y-47504359D01*
X65567214Y-47504362D01*
X65893200Y-47716059D01*
X65893205Y-47716062D01*
X66239547Y-47892532D01*
X66602438Y-48031833D01*
X66977901Y-48132438D01*
X67361824Y-48193246D01*
X67728530Y-48212463D01*
X67749999Y-48213589D01*
X67750000Y-48213589D01*
X67750001Y-48213589D01*
X67770344Y-48212522D01*
X68138176Y-48193246D01*
X68522099Y-48132438D01*
X68897562Y-48031833D01*
X69260453Y-47892532D01*
X69606795Y-47716062D01*
X69932793Y-47504357D01*
X70234876Y-47259734D01*
X70509734Y-46984876D01*
X70754357Y-46682793D01*
X70966062Y-46356795D01*
X71142532Y-46010453D01*
X71281833Y-45647562D01*
X71382438Y-45272099D01*
X71443246Y-44888176D01*
X71463589Y-44500000D01*
X71443246Y-44111824D01*
X71382438Y-43727901D01*
X71281833Y-43352438D01*
X71142532Y-42989547D01*
X70966062Y-42643206D01*
X70754357Y-42317207D01*
X70509734Y-42015124D01*
X70234876Y-41740266D01*
X69932793Y-41495643D01*
X69932790Y-41495641D01*
X69932785Y-41495637D01*
X69606799Y-41283940D01*
X69260456Y-41107469D01*
X68897569Y-40968169D01*
X68897562Y-40968167D01*
X68522099Y-40867562D01*
X68522095Y-40867561D01*
X68522094Y-40867561D01*
X68138177Y-40806754D01*
X67750001Y-40786411D01*
X67749999Y-40786411D01*
X67361822Y-40806754D01*
X66977906Y-40867561D01*
X66977904Y-40867561D01*
X66602430Y-40968169D01*
X66239543Y-41107469D01*
X65893201Y-41283940D01*
X65567214Y-41495637D01*
X65265128Y-41740262D01*
X65265120Y-41740269D01*
X64990269Y-42015120D01*
X64990262Y-42015128D01*
X64745637Y-42317214D01*
X64533940Y-42643201D01*
X64357469Y-42989543D01*
X64218169Y-43352430D01*
X64117561Y-43727904D01*
X64117561Y-43727906D01*
X64056754Y-44111822D01*
X64036411Y-44499999D01*
X64036411Y-44500000D01*
X61647301Y-44500000D01*
X61654856Y-44452991D01*
X61656786Y-44444683D01*
X61730709Y-44203121D01*
X61733753Y-44195172D01*
X61840124Y-43966009D01*
X61844224Y-43958563D01*
X61981026Y-43746156D01*
X61986116Y-43739333D01*
X62150760Y-43547701D01*
X62156727Y-43541652D01*
X62347519Y-43373164D01*
X62351201Y-43370159D01*
X63820641Y-42263109D01*
X65311575Y-41181154D01*
X66821638Y-40126062D01*
X68350347Y-39098172D01*
X69897213Y-38097814D01*
X71461739Y-37125307D01*
X73043423Y-36180964D01*
X74641759Y-35265086D01*
X76256235Y-34377969D01*
X77214297Y-33873650D01*
X77282784Y-33859842D01*
X77347868Y-33885255D01*
X77388881Y-33941821D01*
X77392802Y-34011581D01*
X77390438Y-34020266D01*
X77365398Y-34100625D01*
X77306332Y-34422935D01*
X77286549Y-34750000D01*
X77306332Y-35077064D01*
X77306332Y-35077069D01*
X77306333Y-35077070D01*
X77365397Y-35399371D01*
X77365398Y-35399375D01*
X77365399Y-35399379D01*
X77462872Y-35712184D01*
X77462876Y-35712196D01*
X77462879Y-35712203D01*
X77473224Y-35735188D01*
X77597358Y-36011004D01*
X77766873Y-36291415D01*
X77968955Y-36549354D01*
X78200645Y-36781044D01*
X78200649Y-36781047D01*
X78458584Y-36983126D01*
X78738996Y-37152642D01*
X79037797Y-37287121D01*
X79037810Y-37287125D01*
X79037815Y-37287127D01*
X79246351Y-37352109D01*
X79350629Y-37384603D01*
X79672930Y-37443667D01*
X80000000Y-37463451D01*
X80327070Y-37443667D01*
X80649371Y-37384603D01*
X80962203Y-37287121D01*
X81261004Y-37152642D01*
X81541416Y-36983126D01*
X81799351Y-36781047D01*
X82031047Y-36549351D01*
X82233126Y-36291416D01*
X82402642Y-36011004D01*
X82537121Y-35712203D01*
X82634603Y-35399371D01*
X82693667Y-35077070D01*
X82713451Y-34750000D01*
X82693667Y-34422930D01*
X82634603Y-34100629D01*
X82562659Y-33869752D01*
X82537127Y-33787815D01*
X82537125Y-33787810D01*
X82537121Y-33787797D01*
X82402642Y-33488996D01*
X82233126Y-33208584D01*
X82150913Y-33103647D01*
X82031044Y-32950645D01*
X81799354Y-32718955D01*
X81541415Y-32516873D01*
X81261004Y-32347358D01*
X80978944Y-32220413D01*
X80925892Y-32174951D01*
X80905839Y-32108020D01*
X80925155Y-32040874D01*
X80976040Y-31995617D01*
X81189202Y-31892981D01*
X81193484Y-31891117D01*
X81424383Y-31800824D01*
X81432287Y-31798330D01*
X81671405Y-31740137D01*
X81679574Y-31738720D01*
X81888269Y-31716791D01*
X81924320Y-31713004D01*
X81932625Y-31712690D01*
X82178617Y-31719913D01*
X82186873Y-31720711D01*
X82296099Y-31738718D01*
X82429694Y-31760743D01*
X82437773Y-31762637D01*
X82673059Y-31834758D01*
X82680819Y-31837718D01*
X82904359Y-31940637D01*
X82911660Y-31944611D01*
X83119428Y-32076471D01*
X83126131Y-32081384D01*
X83314420Y-32239832D01*
X83320408Y-32245599D01*
X83485829Y-32427785D01*
X83490993Y-32434300D01*
X83630585Y-32636960D01*
X83634832Y-32644107D01*
X83746090Y-32863608D01*
X83749341Y-32871252D01*
X83830267Y-33103647D01*
X83832469Y-33111664D01*
X83881610Y-33352784D01*
X83882721Y-33361024D01*
X83899360Y-33608951D01*
X83899499Y-33613104D01*
X83899499Y-33715713D01*
X83899500Y-33715734D01*
X83899500Y-54505997D01*
X83899499Y-54506022D01*
X83899499Y-54559343D01*
X83899477Y-54559417D01*
X83899478Y-54850421D01*
X83937007Y-55327247D01*
X83937092Y-55328319D01*
X84012085Y-55801795D01*
X84123996Y-56267929D01*
X84272133Y-56723843D01*
X84272138Y-56723856D01*
X84455584Y-57166728D01*
X84455586Y-57166732D01*
X84673220Y-57593862D01*
X84923697Y-58002599D01*
X84923698Y-58002600D01*
X84923698Y-58002601D01*
X85205467Y-58390421D01*
X85516805Y-58754950D01*
X85686294Y-58924437D01*
X85855775Y-59093917D01*
X86038036Y-59249582D01*
X86220295Y-59405246D01*
X86608121Y-59687017D01*
X86608121Y-59687016D01*
X86608125Y-59687019D01*
X87016863Y-59937493D01*
X87443950Y-60155104D01*
X87443993Y-60155126D01*
X87886887Y-60338578D01*
X88342788Y-60486709D01*
X88342790Y-60486709D01*
X88342798Y-60486712D01*
X88808840Y-60598598D01*
X88808932Y-60598620D01*
X89282415Y-60673613D01*
X89282416Y-60673613D01*
X89760308Y-60711223D01*
X89760310Y-60711223D01*
X160053408Y-60711223D01*
X160054379Y-60711200D01*
X160239691Y-60711200D01*
X160717581Y-60673590D01*
X160717582Y-60673590D01*
X161191063Y-60598598D01*
X161657195Y-60486690D01*
X161946169Y-60392796D01*
X162113105Y-60338556D01*
X162555997Y-60155105D01*
X162983126Y-59937473D01*
X163391863Y-59687000D01*
X163779687Y-59405230D01*
X163779690Y-59405228D01*
X163961948Y-59249565D01*
X164144209Y-59093900D01*
X164313689Y-58924420D01*
X164483178Y-58754934D01*
X164794515Y-58390406D01*
X165076283Y-58002588D01*
X165076283Y-58002587D01*
X165123127Y-57926145D01*
X165326759Y-57593850D01*
X165378415Y-57492471D01*
X165544394Y-57166724D01*
X165727837Y-56723856D01*
X165727845Y-56723837D01*
X165875982Y-56267922D01*
X165987892Y-55801791D01*
X166062885Y-55328316D01*
X166062885Y-55328312D01*
X166062886Y-55328308D01*
X166100499Y-54850420D01*
X166100500Y-54610728D01*
X166100500Y-54610718D01*
X166100501Y-54508752D01*
X166100500Y-54508746D01*
X166100500Y-44500000D01*
X178536411Y-44500000D01*
X178556754Y-44888177D01*
X178617561Y-45272093D01*
X178617561Y-45272095D01*
X178718169Y-45647569D01*
X178857469Y-46010456D01*
X179033940Y-46356799D01*
X179245637Y-46682785D01*
X179245641Y-46682790D01*
X179245643Y-46682793D01*
X179490266Y-46984876D01*
X179765124Y-47259734D01*
X180067207Y-47504357D01*
X180067211Y-47504359D01*
X180067214Y-47504362D01*
X180393200Y-47716059D01*
X180393205Y-47716062D01*
X180739547Y-47892532D01*
X181102438Y-48031833D01*
X181477901Y-48132438D01*
X181861824Y-48193246D01*
X182228530Y-48212463D01*
X182249999Y-48213589D01*
X182250000Y-48213589D01*
X182250001Y-48213589D01*
X182270344Y-48212522D01*
X182638176Y-48193246D01*
X183022099Y-48132438D01*
X183397562Y-48031833D01*
X183760453Y-47892532D01*
X184106795Y-47716062D01*
X184432793Y-47504357D01*
X184734876Y-47259734D01*
X185009734Y-46984876D01*
X185254357Y-46682793D01*
X185466062Y-46356795D01*
X185642532Y-46010453D01*
X185781833Y-45647562D01*
X185882438Y-45272099D01*
X185943246Y-44888176D01*
X185963589Y-44500000D01*
X185943246Y-44111824D01*
X185882438Y-43727901D01*
X185781833Y-43352438D01*
X185642532Y-42989547D01*
X185466062Y-42643206D01*
X185254357Y-42317207D01*
X185009734Y-42015124D01*
X184734876Y-41740266D01*
X184432793Y-41495643D01*
X184432790Y-41495641D01*
X184432785Y-41495637D01*
X184106799Y-41283940D01*
X183760456Y-41107469D01*
X183397569Y-40968169D01*
X183397562Y-40968167D01*
X183022099Y-40867562D01*
X183022095Y-40867561D01*
X183022094Y-40867561D01*
X182638177Y-40806754D01*
X182250001Y-40786411D01*
X182249999Y-40786411D01*
X181861822Y-40806754D01*
X181477906Y-40867561D01*
X181477904Y-40867561D01*
X181102430Y-40968169D01*
X180739543Y-41107469D01*
X180393201Y-41283940D01*
X180067214Y-41495637D01*
X179765128Y-41740262D01*
X179765120Y-41740269D01*
X179490269Y-42015120D01*
X179490262Y-42015128D01*
X179245637Y-42317214D01*
X179033940Y-42643201D01*
X178857469Y-42989543D01*
X178718169Y-43352430D01*
X178617561Y-43727904D01*
X178617561Y-43727906D01*
X178556754Y-44111822D01*
X178536411Y-44499999D01*
X178536411Y-44500000D01*
X166100500Y-44500000D01*
X166100500Y-33712696D01*
X166100501Y-33712691D01*
X166100500Y-33612797D01*
X166100639Y-33608645D01*
X166117257Y-33361021D01*
X166118368Y-33352784D01*
X166167514Y-33111642D01*
X166169707Y-33103658D01*
X166250644Y-32871228D01*
X166253884Y-32863611D01*
X166365155Y-32644084D01*
X166369389Y-32636960D01*
X166508995Y-32434280D01*
X166514154Y-32427772D01*
X166679583Y-32245577D01*
X166685557Y-32239824D01*
X166873865Y-32081359D01*
X166880544Y-32076464D01*
X167049469Y-31969254D01*
X167088329Y-31944593D01*
X167095630Y-31940618D01*
X167191943Y-31896275D01*
X167319173Y-31837698D01*
X167326934Y-31834738D01*
X167437557Y-31800830D01*
X167562220Y-31762617D01*
X167570306Y-31760721D01*
X167813134Y-31720688D01*
X167821370Y-31719892D01*
X168067374Y-31712669D01*
X168075680Y-31712983D01*
G37*
G04 #@! TD.AperFunction*
M02*
