G04 #@! TF.GenerationSoftware,KiCad,Pcbnew,7.0.9*
G04 #@! TF.CreationDate,2024-02-22T22:19:44+08:00*
G04 #@! TF.ProjectId,layer2,6c617965-7232-42e6-9b69-6361645f7063,rev?*
G04 #@! TF.SameCoordinates,Original*
G04 #@! TF.FileFunction,Soldermask,Top*
G04 #@! TF.FilePolarity,Negative*
%FSLAX46Y46*%
G04 Gerber Fmt 4.6, Leading zero omitted, Abs format (unit mm)*
G04 Created by KiCad (PCBNEW 7.0.9) date 2024-02-22 22:19:44*
%MOMM*%
%LPD*%
G01*
G04 APERTURE LIST*
G04 Aperture macros list*
%AMRoundRect*
0 Rectangle with rounded corners*
0 $1 Rounding radius*
0 $2 $3 $4 $5 $6 $7 $8 $9 X,Y pos of 4 corners*
0 Add a 4 corners polygon primitive as box body*
4,1,4,$2,$3,$4,$5,$6,$7,$8,$9,$2,$3,0*
0 Add four circle primitives for the rounded corners*
1,1,$1+$1,$2,$3*
1,1,$1+$1,$4,$5*
1,1,$1+$1,$6,$7*
1,1,$1+$1,$8,$9*
0 Add four rect primitives between the rounded corners*
20,1,$1+$1,$2,$3,$4,$5,0*
20,1,$1+$1,$4,$5,$6,$7,0*
20,1,$1+$1,$6,$7,$8,$9,0*
20,1,$1+$1,$8,$9,$2,$3,0*%
G04 Aperture macros list end*
%ADD10RoundRect,0.250000X-0.600000X-0.750000X0.600000X-0.750000X0.600000X0.750000X-0.600000X0.750000X0*%
%ADD11O,1.700000X2.000000*%
%ADD12RoundRect,0.150000X0.625000X-0.150000X0.625000X0.150000X-0.625000X0.150000X-0.625000X-0.150000X0*%
%ADD13RoundRect,0.250000X0.650000X-0.350000X0.650000X0.350000X-0.650000X0.350000X-0.650000X-0.350000X0*%
%ADD14RoundRect,0.249999X-1.950001X-1.950001X1.950001X-1.950001X1.950001X1.950001X-1.950001X1.950001X0*%
%ADD15RoundRect,0.250002X-1.699998X-1.699998X1.699998X-1.699998X1.699998X1.699998X-1.699998X1.699998X0*%
%ADD16C,6.400000*%
%ADD17R,3.000000X3.000000*%
%ADD18C,3.000000*%
%ADD19RoundRect,0.250000X-1.425000X0.362500X-1.425000X-0.362500X1.425000X-0.362500X1.425000X0.362500X0*%
%ADD20C,4.400000*%
%ADD21C,1.400000*%
%ADD22R,3.500000X3.500000*%
%ADD23C,3.500000*%
G04 APERTURE END LIST*
D10*
X123750000Y-172500000D03*
D11*
X126250000Y-172500000D03*
D12*
X107000000Y-165500000D03*
X107000000Y-164500000D03*
D13*
X110875000Y-166800000D03*
X110875000Y-163200000D03*
D14*
X148000000Y-201000000D03*
X102000000Y-195000000D03*
D15*
X194000000Y-128000000D03*
D16*
X122000000Y-98000000D03*
X122000000Y-128000000D03*
X187400000Y-91191300D03*
X152012016Y-167075539D03*
D17*
X122500000Y-165000000D03*
D18*
X127500000Y-165000000D03*
D19*
X107000000Y-169675000D03*
X107000000Y-175600000D03*
D20*
X80000000Y-34750000D03*
D16*
X97987984Y-167075539D03*
X62600000Y-159200000D03*
D21*
X145000000Y-166000000D03*
X134000000Y-166000000D03*
D22*
X142000000Y-161000000D03*
D23*
X137000000Y-161000000D03*
D16*
X128000000Y-128000000D03*
X67750000Y-44500000D03*
D15*
X71000000Y-128000000D03*
D16*
X62600000Y-91191300D03*
D12*
X98000000Y-186000000D03*
X98000000Y-185000000D03*
X98000000Y-184000000D03*
D13*
X101875000Y-187300000D03*
X101875000Y-182700000D03*
D16*
X141000000Y-86610723D03*
D20*
X170000000Y-34750000D03*
D14*
X148000000Y-195000000D03*
D16*
X80600000Y-180600000D03*
X109000000Y-66610723D03*
X80600000Y-69600000D03*
X109000000Y-86610723D03*
X35600000Y-82800000D03*
D15*
X179000000Y-122000000D03*
D16*
X169400000Y-180600000D03*
D15*
X194000000Y-122000000D03*
D16*
X214400000Y-82800000D03*
X169400000Y-69600000D03*
D15*
X56000000Y-122000000D03*
D16*
X214400000Y-167600000D03*
X35600000Y-167600000D03*
D15*
X71000000Y-122000000D03*
D16*
X67800000Y-205800000D03*
X182250000Y-44500000D03*
X141000000Y-66610723D03*
X187400000Y-159200000D03*
X128000000Y-122000000D03*
X128000000Y-152000000D03*
D15*
X179000000Y-128000000D03*
D16*
X122000000Y-122000000D03*
X128000000Y-98000000D03*
D14*
X102000000Y-201000000D03*
D16*
X122000000Y-152000000D03*
X182200000Y-205800000D03*
D15*
X56000000Y-128000000D03*
M02*
