G04 #@! TF.GenerationSoftware,KiCad,Pcbnew,7.0.9*
G04 #@! TF.CreationDate,2024-02-22T22:19:44+08:00*
G04 #@! TF.ProjectId,layer2,6c617965-7232-42e6-9b69-6361645f7063,rev?*
G04 #@! TF.SameCoordinates,Original*
G04 #@! TF.FileFunction,Legend,Top*
G04 #@! TF.FilePolarity,Positive*
%FSLAX46Y46*%
G04 Gerber Fmt 4.6, Leading zero omitted, Abs format (unit mm)*
G04 Created by KiCad (PCBNEW 7.0.9) date 2024-02-22 22:19:44*
%MOMM*%
%LPD*%
G01*
G04 APERTURE LIST*
G04 Aperture macros list*
%AMRoundRect*
0 Rectangle with rounded corners*
0 $1 Rounding radius*
0 $2 $3 $4 $5 $6 $7 $8 $9 X,Y pos of 4 corners*
0 Add a 4 corners polygon primitive as box body*
4,1,4,$2,$3,$4,$5,$6,$7,$8,$9,$2,$3,0*
0 Add four circle primitives for the rounded corners*
1,1,$1+$1,$2,$3*
1,1,$1+$1,$4,$5*
1,1,$1+$1,$6,$7*
1,1,$1+$1,$8,$9*
0 Add four rect primitives between the rounded corners*
20,1,$1+$1,$2,$3,$4,$5,0*
20,1,$1+$1,$4,$5,$6,$7,0*
20,1,$1+$1,$6,$7,$8,$9,0*
20,1,$1+$1,$8,$9,$2,$3,0*%
G04 Aperture macros list end*
%ADD10C,0.250000*%
%ADD11C,0.300000*%
%ADD12C,0.150000*%
%ADD13C,0.120000*%
%ADD14RoundRect,0.250000X-0.600000X-0.750000X0.600000X-0.750000X0.600000X0.750000X-0.600000X0.750000X0*%
%ADD15O,1.700000X2.000000*%
%ADD16RoundRect,0.150000X0.625000X-0.150000X0.625000X0.150000X-0.625000X0.150000X-0.625000X-0.150000X0*%
%ADD17RoundRect,0.250000X0.650000X-0.350000X0.650000X0.350000X-0.650000X0.350000X-0.650000X-0.350000X0*%
%ADD18RoundRect,0.249999X-1.950001X-1.950001X1.950001X-1.950001X1.950001X1.950001X-1.950001X1.950001X0*%
%ADD19RoundRect,0.250002X-1.699998X-1.699998X1.699998X-1.699998X1.699998X1.699998X-1.699998X1.699998X0*%
%ADD20C,6.400000*%
%ADD21R,3.000000X3.000000*%
%ADD22C,3.000000*%
%ADD23RoundRect,0.250000X-1.425000X0.362500X-1.425000X-0.362500X1.425000X-0.362500X1.425000X0.362500X0*%
%ADD24C,4.400000*%
%ADD25C,1.400000*%
%ADD26R,3.500000X3.500000*%
%ADD27C,3.500000*%
G04 APERTURE END LIST*
D10*
G36*
X226537500Y-128180651D02*
G01*
X226367587Y-128231388D01*
X226387672Y-128248090D01*
X226412020Y-128270887D01*
X226434689Y-128294839D01*
X226455678Y-128319946D01*
X226474989Y-128346207D01*
X226492620Y-128373622D01*
X226508572Y-128402192D01*
X226522845Y-128431916D01*
X226535439Y-128462794D01*
X226546353Y-128494827D01*
X226555589Y-128528015D01*
X226563145Y-128562357D01*
X226569022Y-128597853D01*
X226573220Y-128634504D01*
X226575739Y-128672309D01*
X226576578Y-128711269D01*
X226575555Y-128759261D01*
X226572485Y-128805999D01*
X226567369Y-128851482D01*
X226560206Y-128895710D01*
X226550997Y-128938684D01*
X226539742Y-128980403D01*
X226526439Y-129020868D01*
X226511091Y-129060078D01*
X226493696Y-129098033D01*
X226474254Y-129134734D01*
X226452766Y-129170180D01*
X226429231Y-129204372D01*
X226403650Y-129237309D01*
X226376023Y-129268991D01*
X226346348Y-129299419D01*
X226314628Y-129328592D01*
X226280913Y-129356246D01*
X226245410Y-129382116D01*
X226208118Y-129406202D01*
X226169036Y-129428503D01*
X226128166Y-129449020D01*
X226085507Y-129467754D01*
X226041059Y-129484703D01*
X225994822Y-129499868D01*
X225971033Y-129506781D01*
X225946797Y-129513249D01*
X225922113Y-129519270D01*
X225896982Y-129524845D01*
X225871404Y-129529975D01*
X225845379Y-129534658D01*
X225818906Y-129538895D01*
X225791986Y-129542687D01*
X225764619Y-129546032D01*
X225736805Y-129548931D01*
X225708544Y-129551384D01*
X225679835Y-129553391D01*
X225650679Y-129554952D01*
X225621076Y-129556067D01*
X225591026Y-129556736D01*
X225560528Y-129556959D01*
X225530031Y-129556736D01*
X225499983Y-129556067D01*
X225470382Y-129554952D01*
X225441231Y-129553391D01*
X225412527Y-129551384D01*
X225384273Y-129548931D01*
X225356466Y-129546032D01*
X225329108Y-129542687D01*
X225302198Y-129538895D01*
X225275737Y-129534658D01*
X225249724Y-129529975D01*
X225224160Y-129524845D01*
X225199044Y-129519270D01*
X225174376Y-129513249D01*
X225150157Y-129506781D01*
X225126386Y-129499868D01*
X225103064Y-129492508D01*
X225057765Y-129476451D01*
X225014259Y-129458610D01*
X224972547Y-129438985D01*
X224932628Y-129417575D01*
X224894504Y-129394382D01*
X224858173Y-129369404D01*
X224823635Y-129342642D01*
X224807039Y-129328592D01*
X224775244Y-129299419D01*
X224745501Y-129268991D01*
X224717809Y-129237309D01*
X224692168Y-129204372D01*
X224668579Y-129170180D01*
X224647041Y-129134734D01*
X224627554Y-129098033D01*
X224610118Y-129060078D01*
X224594734Y-129020868D01*
X224581401Y-128980403D01*
X224570119Y-128938684D01*
X224560888Y-128895710D01*
X224553709Y-128851482D01*
X224548580Y-128805999D01*
X224545503Y-128759261D01*
X224544478Y-128711269D01*
X224544956Y-128685496D01*
X224546388Y-128659928D01*
X224548777Y-128634563D01*
X224552120Y-128609402D01*
X224556419Y-128584445D01*
X224559439Y-128570218D01*
X225169740Y-128570218D01*
X225170620Y-128596401D01*
X225173260Y-128621595D01*
X225177661Y-128645802D01*
X225186266Y-128676543D01*
X225198002Y-128705527D01*
X225212866Y-128732757D01*
X225230860Y-128758230D01*
X225251983Y-128781949D01*
X225269879Y-128798585D01*
X225289346Y-128813972D01*
X225310422Y-128827844D01*
X225333109Y-128840204D01*
X225357406Y-128851050D01*
X225383313Y-128860383D01*
X225410829Y-128868202D01*
X225439956Y-128874508D01*
X225470693Y-128879300D01*
X225503039Y-128882579D01*
X225536996Y-128884345D01*
X225560528Y-128884681D01*
X225595563Y-128883924D01*
X225629000Y-128881654D01*
X225660836Y-128877871D01*
X225691074Y-128872574D01*
X225719712Y-128865764D01*
X225746751Y-128857440D01*
X225772191Y-128847603D01*
X225796032Y-128836252D01*
X225818273Y-128823388D01*
X225838915Y-128809011D01*
X225851788Y-128798585D01*
X225875115Y-128776184D01*
X225895332Y-128752027D01*
X225912438Y-128726114D01*
X225926434Y-128698446D01*
X225937320Y-128669022D01*
X225945096Y-128637843D01*
X225948887Y-128613307D01*
X225950928Y-128587783D01*
X225951317Y-128570218D01*
X225950442Y-128544145D01*
X225947818Y-128519049D01*
X225943444Y-128494929D01*
X225934891Y-128464289D01*
X225923227Y-128435386D01*
X225908453Y-128408218D01*
X225890569Y-128382788D01*
X225869575Y-128359093D01*
X225851788Y-128342462D01*
X225832212Y-128326967D01*
X225811037Y-128312995D01*
X225788263Y-128300548D01*
X225763889Y-128289625D01*
X225737916Y-128280226D01*
X225710344Y-128272352D01*
X225681173Y-128266001D01*
X225650402Y-128261175D01*
X225618032Y-128257873D01*
X225584063Y-128256094D01*
X225560528Y-128255756D01*
X225525498Y-128256518D01*
X225492078Y-128258804D01*
X225460268Y-128262614D01*
X225430068Y-128267949D01*
X225401478Y-128274807D01*
X225374498Y-128283190D01*
X225349128Y-128293097D01*
X225325368Y-128304528D01*
X225303218Y-128317483D01*
X225282678Y-128331962D01*
X225269879Y-128342462D01*
X225251983Y-128359093D01*
X225230860Y-128382788D01*
X225212866Y-128408218D01*
X225198002Y-128435386D01*
X225186266Y-128464289D01*
X225177661Y-128494929D01*
X225173260Y-128519049D01*
X225170620Y-128544145D01*
X225169740Y-128570218D01*
X224559439Y-128570218D01*
X224561673Y-128559693D01*
X224567882Y-128535144D01*
X224575046Y-128510799D01*
X224583166Y-128486658D01*
X224592241Y-128462721D01*
X224598822Y-128446876D01*
X224609280Y-128423524D01*
X224620274Y-128401095D01*
X224635768Y-128372625D01*
X224652217Y-128345796D01*
X224669619Y-128320609D01*
X224687975Y-128297062D01*
X224707286Y-128275157D01*
X224727550Y-128254892D01*
X224728584Y-128253953D01*
X224036453Y-128255756D01*
X224036453Y-127583477D01*
X226537500Y-127583477D01*
X226537500Y-128180651D01*
G37*
G36*
X226576578Y-126576586D02*
G01*
X226575886Y-126608296D01*
X226573809Y-126639770D01*
X226570348Y-126671007D01*
X226565502Y-126702009D01*
X226559271Y-126732774D01*
X226551656Y-126763303D01*
X226542656Y-126793596D01*
X226532271Y-126823653D01*
X226520502Y-126853474D01*
X226507348Y-126883058D01*
X226497810Y-126902650D01*
X226482177Y-126931383D01*
X226464816Y-126959194D01*
X226445727Y-126986080D01*
X226424909Y-127012044D01*
X226402364Y-127037085D01*
X226378090Y-127061203D01*
X226352089Y-127084398D01*
X226324359Y-127106669D01*
X226294902Y-127128018D01*
X226274303Y-127141738D01*
X226252937Y-127155047D01*
X226241966Y-127161548D01*
X226219461Y-127173970D01*
X226196218Y-127185590D01*
X226172235Y-127196410D01*
X226147512Y-127206427D01*
X226122051Y-127215644D01*
X226095849Y-127224059D01*
X226068909Y-127231672D01*
X226041229Y-127238484D01*
X226012809Y-127244495D01*
X225983650Y-127249704D01*
X225953752Y-127254112D01*
X225923114Y-127257718D01*
X225891737Y-127260523D01*
X225859621Y-127262527D01*
X225826765Y-127263729D01*
X225793169Y-127264130D01*
X224583557Y-127264130D01*
X224583557Y-126591851D01*
X225672880Y-126591851D01*
X225697733Y-126591250D01*
X225729117Y-126588579D01*
X225758498Y-126583770D01*
X225785875Y-126576825D01*
X225811249Y-126567742D01*
X225834619Y-126556522D01*
X225855985Y-126543165D01*
X225875348Y-126527671D01*
X225879876Y-126523463D01*
X225896620Y-126505594D01*
X225914410Y-126481083D01*
X225928712Y-126454157D01*
X225937642Y-126430878D01*
X225944340Y-126406053D01*
X225948805Y-126379682D01*
X225951038Y-126351766D01*
X225951317Y-126337228D01*
X225950200Y-126308568D01*
X225946852Y-126281510D01*
X225941270Y-126256056D01*
X225933456Y-126232204D01*
X225920550Y-126204643D01*
X225904154Y-126179587D01*
X225884271Y-126157035D01*
X225879876Y-126152825D01*
X225861014Y-126137083D01*
X225840148Y-126123439D01*
X225817279Y-126111895D01*
X225792406Y-126102450D01*
X225765530Y-126095103D01*
X225736650Y-126089856D01*
X225705767Y-126086707D01*
X225681289Y-126085724D01*
X225672880Y-126085658D01*
X224583557Y-126085658D01*
X224583557Y-125413990D01*
X226537500Y-125413990D01*
X226537500Y-126010553D01*
X226361645Y-126063676D01*
X226361645Y-126057570D01*
X226387672Y-126083139D01*
X226412020Y-126109624D01*
X226434689Y-126137025D01*
X226455678Y-126165342D01*
X226474989Y-126194575D01*
X226492620Y-126224724D01*
X226508572Y-126255788D01*
X226522845Y-126287769D01*
X226535439Y-126320665D01*
X226546353Y-126354478D01*
X226555589Y-126389206D01*
X226563145Y-126424850D01*
X226569022Y-126461410D01*
X226573220Y-126498886D01*
X226575739Y-126537278D01*
X226576578Y-126576586D01*
G37*
G36*
X226576578Y-124195829D02*
G01*
X226576321Y-124225194D01*
X226575548Y-124254137D01*
X226574260Y-124282658D01*
X226572457Y-124310757D01*
X226570138Y-124338433D01*
X226567305Y-124365687D01*
X226563956Y-124392520D01*
X226560092Y-124418930D01*
X226555713Y-124444917D01*
X226550818Y-124470483D01*
X226545409Y-124495626D01*
X226539484Y-124520348D01*
X226533044Y-124544647D01*
X226526089Y-124568524D01*
X226518618Y-124591978D01*
X226502132Y-124637621D01*
X226483585Y-124681575D01*
X226462977Y-124723841D01*
X226440308Y-124764417D01*
X226415578Y-124803306D01*
X226388788Y-124840505D01*
X226359937Y-124876015D01*
X226329025Y-124909837D01*
X226312796Y-124926115D01*
X226278946Y-124957170D01*
X226243340Y-124986222D01*
X226205978Y-125013270D01*
X226166861Y-125038314D01*
X226125988Y-125061355D01*
X226083360Y-125082392D01*
X226038977Y-125101426D01*
X226016127Y-125110192D01*
X225992838Y-125118456D01*
X225969110Y-125126220D01*
X225944943Y-125133483D01*
X225920338Y-125140245D01*
X225895293Y-125146506D01*
X225869810Y-125152266D01*
X225843888Y-125157526D01*
X225817527Y-125162284D01*
X225790727Y-125166542D01*
X225763488Y-125170298D01*
X225735811Y-125173554D01*
X225707694Y-125176309D01*
X225679139Y-125178563D01*
X225650144Y-125180316D01*
X225620711Y-125181568D01*
X225590839Y-125182320D01*
X225560528Y-125182570D01*
X225530217Y-125182320D01*
X225500345Y-125181568D01*
X225470912Y-125180316D01*
X225441918Y-125178563D01*
X225413362Y-125176309D01*
X225385246Y-125173554D01*
X225357568Y-125170298D01*
X225330329Y-125166542D01*
X225303529Y-125162284D01*
X225277168Y-125157526D01*
X225251246Y-125152266D01*
X225225763Y-125146506D01*
X225200718Y-125140245D01*
X225176113Y-125133483D01*
X225151946Y-125126220D01*
X225128218Y-125118456D01*
X225104929Y-125110192D01*
X225082079Y-125101426D01*
X225037696Y-125082392D01*
X224995068Y-125061355D01*
X224954195Y-125038314D01*
X224915078Y-125013270D01*
X224877717Y-124986222D01*
X224842111Y-124957170D01*
X224808260Y-124926115D01*
X224776318Y-124893138D01*
X224746436Y-124858471D01*
X224718615Y-124822116D01*
X224692855Y-124784073D01*
X224669156Y-124744340D01*
X224647518Y-124702919D01*
X224627940Y-124659809D01*
X224610423Y-124615011D01*
X224594967Y-124568524D01*
X224588012Y-124544647D01*
X224581572Y-124520348D01*
X224575647Y-124495626D01*
X224570238Y-124470483D01*
X224565343Y-124444917D01*
X224560964Y-124418930D01*
X224557100Y-124392520D01*
X224553751Y-124365687D01*
X224550918Y-124338433D01*
X224548599Y-124310757D01*
X224546796Y-124282658D01*
X224545508Y-124254137D01*
X224544735Y-124225194D01*
X224544478Y-124195829D01*
X224544943Y-124158577D01*
X224546338Y-124122079D01*
X224548664Y-124086335D01*
X224551920Y-124051344D01*
X224556106Y-124017107D01*
X224561222Y-123983624D01*
X224567268Y-123950894D01*
X224574245Y-123918919D01*
X224582152Y-123887697D01*
X224590989Y-123857228D01*
X224600756Y-123827514D01*
X224611454Y-123798553D01*
X224623082Y-123770346D01*
X224635640Y-123742892D01*
X224649128Y-123716192D01*
X224663546Y-123690246D01*
X224678671Y-123665061D01*
X224694277Y-123640644D01*
X224710365Y-123616995D01*
X224726935Y-123594114D01*
X224743987Y-123572001D01*
X224761520Y-123550656D01*
X224779535Y-123530079D01*
X224798032Y-123510270D01*
X224817011Y-123491229D01*
X224836472Y-123472956D01*
X224856415Y-123455451D01*
X224876839Y-123438714D01*
X224897745Y-123422746D01*
X224919133Y-123407545D01*
X224941003Y-123393112D01*
X224963354Y-123379447D01*
X224986104Y-123366458D01*
X225009169Y-123354050D01*
X225032549Y-123342224D01*
X225056243Y-123330980D01*
X225080252Y-123320319D01*
X225104576Y-123310239D01*
X225129215Y-123300741D01*
X225154169Y-123291825D01*
X225179438Y-123283491D01*
X225205021Y-123275739D01*
X225230920Y-123268570D01*
X225257133Y-123261982D01*
X225283661Y-123255976D01*
X225310504Y-123250552D01*
X225337661Y-123245710D01*
X225365134Y-123241450D01*
X225365134Y-123910065D01*
X225340233Y-123921733D01*
X225317125Y-123934146D01*
X225295811Y-123947302D01*
X225271691Y-123964795D01*
X225250373Y-123983450D01*
X225231858Y-124003268D01*
X225216146Y-124024248D01*
X225202777Y-124047063D01*
X225191674Y-124072381D01*
X225182837Y-124100205D01*
X225177398Y-124124266D01*
X225173410Y-124149931D01*
X225170873Y-124177198D01*
X225169785Y-124206069D01*
X225169740Y-124213537D01*
X225171304Y-124244907D01*
X225175998Y-124274903D01*
X225183822Y-124303525D01*
X225194774Y-124330773D01*
X225208857Y-124356648D01*
X225226068Y-124381148D01*
X225246409Y-124404275D01*
X225269879Y-124426028D01*
X225289346Y-124441087D01*
X225310422Y-124454664D01*
X225333109Y-124466761D01*
X225357406Y-124477376D01*
X225383313Y-124486510D01*
X225410829Y-124494163D01*
X225439956Y-124500335D01*
X225470693Y-124505025D01*
X225503039Y-124508234D01*
X225536996Y-124509962D01*
X225560528Y-124510292D01*
X225595563Y-124509551D01*
X225629000Y-124507329D01*
X225660836Y-124503626D01*
X225691074Y-124498442D01*
X225719712Y-124491777D01*
X225746751Y-124483630D01*
X225772191Y-124474002D01*
X225796032Y-124462893D01*
X225818273Y-124450303D01*
X225838915Y-124436232D01*
X225851788Y-124426028D01*
X225875115Y-124404275D01*
X225895332Y-124381148D01*
X225912438Y-124356648D01*
X225926434Y-124330773D01*
X225937320Y-124303525D01*
X225945096Y-124274903D01*
X225949762Y-124244907D01*
X225951317Y-124213537D01*
X225950601Y-124184266D01*
X225948454Y-124156597D01*
X225944877Y-124130532D01*
X225939868Y-124106070D01*
X225931594Y-124077746D01*
X225921084Y-124051926D01*
X225908339Y-124028611D01*
X225905521Y-124024248D01*
X225889633Y-124003268D01*
X225870972Y-123983450D01*
X225849538Y-123964795D01*
X225825331Y-123947302D01*
X225803970Y-123934146D01*
X225780833Y-123921733D01*
X225755922Y-123910065D01*
X225755922Y-123241450D01*
X225783395Y-123245710D01*
X225810553Y-123250552D01*
X225837396Y-123255976D01*
X225863924Y-123261982D01*
X225890137Y-123268570D01*
X225916035Y-123275739D01*
X225941619Y-123283491D01*
X225966887Y-123291825D01*
X225991841Y-123300741D01*
X226016480Y-123310239D01*
X226040804Y-123320319D01*
X226064813Y-123330980D01*
X226088508Y-123342224D01*
X226111887Y-123354050D01*
X226134952Y-123366458D01*
X226157702Y-123379447D01*
X226180053Y-123393112D01*
X226201923Y-123407545D01*
X226223311Y-123422746D01*
X226244217Y-123438714D01*
X226264642Y-123455451D01*
X226284584Y-123472956D01*
X226304045Y-123491229D01*
X226323024Y-123510270D01*
X226341521Y-123530079D01*
X226359536Y-123550656D01*
X226377070Y-123572001D01*
X226394121Y-123594114D01*
X226410691Y-123616995D01*
X226426779Y-123640644D01*
X226442386Y-123665061D01*
X226457510Y-123690246D01*
X226471928Y-123716192D01*
X226485417Y-123742892D01*
X226497975Y-123770346D01*
X226509602Y-123798553D01*
X226520300Y-123827514D01*
X226530067Y-123857228D01*
X226538904Y-123887697D01*
X226546811Y-123918919D01*
X226553788Y-123950894D01*
X226559834Y-123983624D01*
X226564951Y-124017107D01*
X226569137Y-124051344D01*
X226572392Y-124086335D01*
X226574718Y-124122079D01*
X226576113Y-124158577D01*
X226576578Y-124195829D01*
G37*
G36*
X226576578Y-122166171D02*
G01*
X226576321Y-122195536D01*
X226575548Y-122224479D01*
X226574260Y-122253000D01*
X226572457Y-122281099D01*
X226570138Y-122308775D01*
X226567305Y-122336029D01*
X226563956Y-122362862D01*
X226560092Y-122389271D01*
X226555713Y-122415259D01*
X226550818Y-122440825D01*
X226545409Y-122465968D01*
X226539484Y-122490690D01*
X226533044Y-122514989D01*
X226526089Y-122538865D01*
X226518618Y-122562320D01*
X226502132Y-122607963D01*
X226483585Y-122651917D01*
X226462977Y-122694183D01*
X226440308Y-122734759D01*
X226415578Y-122773647D01*
X226388788Y-122810847D01*
X226359937Y-122846357D01*
X226329025Y-122880179D01*
X226312796Y-122896457D01*
X226278946Y-122927512D01*
X226243340Y-122956564D01*
X226205978Y-122983612D01*
X226166861Y-123008656D01*
X226125988Y-123031697D01*
X226083360Y-123052734D01*
X226038977Y-123071768D01*
X226016127Y-123080534D01*
X225992838Y-123088798D01*
X225969110Y-123096562D01*
X225944943Y-123103825D01*
X225920338Y-123110587D01*
X225895293Y-123116848D01*
X225869810Y-123122608D01*
X225843888Y-123127868D01*
X225817527Y-123132626D01*
X225790727Y-123136884D01*
X225763488Y-123140640D01*
X225735811Y-123143896D01*
X225707694Y-123146651D01*
X225679139Y-123148905D01*
X225650144Y-123150658D01*
X225620711Y-123151910D01*
X225590839Y-123152662D01*
X225560528Y-123152912D01*
X225530217Y-123152662D01*
X225500345Y-123151910D01*
X225470912Y-123150658D01*
X225441918Y-123148905D01*
X225413362Y-123146651D01*
X225385246Y-123143896D01*
X225357568Y-123140640D01*
X225330329Y-123136884D01*
X225303529Y-123132626D01*
X225277168Y-123127868D01*
X225251246Y-123122608D01*
X225225763Y-123116848D01*
X225200718Y-123110587D01*
X225176113Y-123103825D01*
X225151946Y-123096562D01*
X225128218Y-123088798D01*
X225104929Y-123080534D01*
X225082079Y-123071768D01*
X225037696Y-123052734D01*
X224995068Y-123031697D01*
X224954195Y-123008656D01*
X224915078Y-122983612D01*
X224877717Y-122956564D01*
X224842111Y-122927512D01*
X224808260Y-122896457D01*
X224776318Y-122863479D01*
X224746436Y-122828813D01*
X224718615Y-122792458D01*
X224692855Y-122754415D01*
X224669156Y-122714682D01*
X224647518Y-122673261D01*
X224627940Y-122630151D01*
X224610423Y-122585353D01*
X224594967Y-122538865D01*
X224588012Y-122514989D01*
X224581572Y-122490690D01*
X224575647Y-122465968D01*
X224570238Y-122440825D01*
X224565343Y-122415259D01*
X224560964Y-122389271D01*
X224557100Y-122362862D01*
X224553751Y-122336029D01*
X224550918Y-122308775D01*
X224548599Y-122281099D01*
X224546796Y-122253000D01*
X224545508Y-122224479D01*
X224544735Y-122195536D01*
X224544478Y-122166171D01*
X224544943Y-122128919D01*
X224546338Y-122092421D01*
X224548664Y-122056677D01*
X224551920Y-122021686D01*
X224556106Y-121987449D01*
X224561222Y-121953966D01*
X224567268Y-121921236D01*
X224574245Y-121889261D01*
X224582152Y-121858039D01*
X224590989Y-121827570D01*
X224600756Y-121797856D01*
X224611454Y-121768895D01*
X224623082Y-121740687D01*
X224635640Y-121713234D01*
X224649128Y-121686534D01*
X224663546Y-121660588D01*
X224678671Y-121635403D01*
X224694277Y-121610986D01*
X224710365Y-121587337D01*
X224726935Y-121564456D01*
X224743987Y-121542343D01*
X224761520Y-121520998D01*
X224779535Y-121500421D01*
X224798032Y-121480612D01*
X224817011Y-121461571D01*
X224836472Y-121443298D01*
X224856415Y-121425793D01*
X224876839Y-121409056D01*
X224897745Y-121393087D01*
X224919133Y-121377887D01*
X224941003Y-121363454D01*
X224963354Y-121349789D01*
X224986104Y-121336799D01*
X225009169Y-121324392D01*
X225032549Y-121312566D01*
X225056243Y-121301322D01*
X225080252Y-121290660D01*
X225104576Y-121280581D01*
X225129215Y-121271083D01*
X225154169Y-121262167D01*
X225179438Y-121253833D01*
X225205021Y-121246081D01*
X225230920Y-121238912D01*
X225257133Y-121232324D01*
X225283661Y-121226318D01*
X225310504Y-121220894D01*
X225337661Y-121216052D01*
X225365134Y-121211792D01*
X225365134Y-121880407D01*
X225340233Y-121892075D01*
X225317125Y-121904488D01*
X225295811Y-121917644D01*
X225271691Y-121935137D01*
X225250373Y-121953792D01*
X225231858Y-121973610D01*
X225216146Y-121994590D01*
X225202777Y-122017405D01*
X225191674Y-122042723D01*
X225182837Y-122070546D01*
X225177398Y-122094608D01*
X225173410Y-122120273D01*
X225170873Y-122147540D01*
X225169785Y-122176411D01*
X225169740Y-122183879D01*
X225171304Y-122215248D01*
X225175998Y-122245245D01*
X225183822Y-122273867D01*
X225194774Y-122301115D01*
X225208857Y-122326990D01*
X225226068Y-122351490D01*
X225246409Y-122374617D01*
X225269879Y-122396370D01*
X225289346Y-122411429D01*
X225310422Y-122425006D01*
X225333109Y-122437103D01*
X225357406Y-122447718D01*
X225383313Y-122456852D01*
X225410829Y-122464505D01*
X225439956Y-122470677D01*
X225470693Y-122475367D01*
X225503039Y-122478576D01*
X225536996Y-122480304D01*
X225560528Y-122480634D01*
X225595563Y-122479893D01*
X225629000Y-122477671D01*
X225660836Y-122473968D01*
X225691074Y-122468784D01*
X225719712Y-122462119D01*
X225746751Y-122453972D01*
X225772191Y-122444344D01*
X225796032Y-122433235D01*
X225818273Y-122420645D01*
X225838915Y-122406574D01*
X225851788Y-122396370D01*
X225875115Y-122374617D01*
X225895332Y-122351490D01*
X225912438Y-122326990D01*
X225926434Y-122301115D01*
X225937320Y-122273867D01*
X225945096Y-122245245D01*
X225949762Y-122215248D01*
X225951317Y-122183879D01*
X225950601Y-122154608D01*
X225948454Y-122126939D01*
X225944877Y-122100874D01*
X225939868Y-122076412D01*
X225931594Y-122048088D01*
X225921084Y-122022268D01*
X225908339Y-121998953D01*
X225905521Y-121994590D01*
X225889633Y-121973610D01*
X225870972Y-121953792D01*
X225849538Y-121935137D01*
X225825331Y-121917644D01*
X225803970Y-121904488D01*
X225780833Y-121892075D01*
X225755922Y-121880407D01*
X225755922Y-121211792D01*
X225783395Y-121216052D01*
X225810553Y-121220894D01*
X225837396Y-121226318D01*
X225863924Y-121232324D01*
X225890137Y-121238912D01*
X225916035Y-121246081D01*
X225941619Y-121253833D01*
X225966887Y-121262167D01*
X225991841Y-121271083D01*
X226016480Y-121280581D01*
X226040804Y-121290660D01*
X226064813Y-121301322D01*
X226088508Y-121312566D01*
X226111887Y-121324392D01*
X226134952Y-121336799D01*
X226157702Y-121349789D01*
X226180053Y-121363454D01*
X226201923Y-121377887D01*
X226223311Y-121393087D01*
X226244217Y-121409056D01*
X226264642Y-121425793D01*
X226284584Y-121443298D01*
X226304045Y-121461571D01*
X226323024Y-121480612D01*
X226341521Y-121500421D01*
X226359536Y-121520998D01*
X226377070Y-121542343D01*
X226394121Y-121564456D01*
X226410691Y-121587337D01*
X226426779Y-121610986D01*
X226442386Y-121635403D01*
X226457510Y-121660588D01*
X226471928Y-121686534D01*
X226485417Y-121713234D01*
X226497975Y-121740687D01*
X226509602Y-121768895D01*
X226520300Y-121797856D01*
X226530067Y-121827570D01*
X226538904Y-121858039D01*
X226546811Y-121889261D01*
X226553788Y-121921236D01*
X226559834Y-121953966D01*
X226564951Y-121987449D01*
X226569137Y-122021686D01*
X226572392Y-122056677D01*
X226574718Y-122092421D01*
X226576113Y-122128919D01*
X226576578Y-122166171D01*
G37*
G36*
X226576578Y-120736129D02*
G01*
X226575704Y-120761741D01*
X226573079Y-120786826D01*
X226568705Y-120811386D01*
X226562582Y-120835419D01*
X226554709Y-120858927D01*
X226545087Y-120881909D01*
X226533715Y-120904365D01*
X226520593Y-120926295D01*
X226505722Y-120947699D01*
X226489102Y-120968577D01*
X226477049Y-120982204D01*
X226457817Y-121001409D01*
X226437672Y-121018726D01*
X226416615Y-121034153D01*
X226394646Y-121047691D01*
X226371764Y-121059341D01*
X226347970Y-121069101D01*
X226323264Y-121076972D01*
X226297645Y-121082954D01*
X226271114Y-121087047D01*
X226243671Y-121089251D01*
X226224869Y-121089671D01*
X226196822Y-121088726D01*
X226169699Y-121085892D01*
X226143499Y-121081170D01*
X226118222Y-121074558D01*
X226093868Y-121066057D01*
X226070438Y-121055667D01*
X226047930Y-121043388D01*
X226026345Y-121029220D01*
X226005683Y-121013163D01*
X225985945Y-120995217D01*
X225973299Y-120982204D01*
X225955402Y-120961676D01*
X225939267Y-120940623D01*
X225924891Y-120919043D01*
X225912276Y-120896938D01*
X225901421Y-120874307D01*
X225892326Y-120851150D01*
X225884992Y-120827467D01*
X225879418Y-120803258D01*
X225875604Y-120778523D01*
X225873550Y-120753262D01*
X225873159Y-120736129D01*
X225874039Y-120710523D01*
X225876679Y-120685453D01*
X225881080Y-120660921D01*
X225887241Y-120636924D01*
X225895162Y-120613465D01*
X225904844Y-120590542D01*
X225916285Y-120568156D01*
X225929487Y-120546307D01*
X225944450Y-120524994D01*
X225961172Y-120504218D01*
X225973299Y-120490665D01*
X225992422Y-120471350D01*
X226012468Y-120453936D01*
X226033437Y-120438421D01*
X226055330Y-120424805D01*
X226078145Y-120413090D01*
X226101884Y-120403274D01*
X226126545Y-120395358D01*
X226152130Y-120389342D01*
X226178638Y-120385226D01*
X226206069Y-120383010D01*
X226224869Y-120382588D01*
X226252920Y-120383537D01*
X226280059Y-120386387D01*
X226306286Y-120391137D01*
X226331601Y-120397786D01*
X226356003Y-120406335D01*
X226379493Y-120416784D01*
X226402071Y-120429133D01*
X226423736Y-120443381D01*
X226444489Y-120459529D01*
X226464329Y-120477577D01*
X226477049Y-120490665D01*
X226494836Y-120511083D01*
X226510874Y-120532038D01*
X226525162Y-120553530D01*
X226537700Y-120575558D01*
X226548489Y-120598123D01*
X226557528Y-120621225D01*
X226564818Y-120644864D01*
X226570358Y-120669039D01*
X226574148Y-120693750D01*
X226576190Y-120718999D01*
X226576578Y-120736129D01*
G37*
G36*
X24469968Y-120443263D02*
G01*
X24500016Y-120443932D01*
X24529617Y-120445047D01*
X24558768Y-120446608D01*
X24587472Y-120448615D01*
X24615726Y-120451068D01*
X24643533Y-120453967D01*
X24670891Y-120457312D01*
X24697801Y-120461104D01*
X24724262Y-120465341D01*
X24750275Y-120470024D01*
X24775839Y-120475154D01*
X24800955Y-120480729D01*
X24825623Y-120486750D01*
X24849842Y-120493218D01*
X24873613Y-120500131D01*
X24896935Y-120507491D01*
X24942234Y-120523548D01*
X24985740Y-120541389D01*
X25027452Y-120561014D01*
X25067371Y-120582424D01*
X25105495Y-120605617D01*
X25141826Y-120630595D01*
X25176364Y-120657357D01*
X25192960Y-120671407D01*
X25224755Y-120700580D01*
X25254498Y-120731008D01*
X25282190Y-120762690D01*
X25307831Y-120795627D01*
X25331420Y-120829819D01*
X25352958Y-120865265D01*
X25372445Y-120901966D01*
X25389881Y-120939921D01*
X25405265Y-120979131D01*
X25418598Y-121019596D01*
X25429880Y-121061315D01*
X25439111Y-121104289D01*
X25446290Y-121148517D01*
X25451419Y-121194000D01*
X25454496Y-121240738D01*
X25455521Y-121288730D01*
X25455043Y-121314503D01*
X25453611Y-121340071D01*
X25451222Y-121365436D01*
X25447879Y-121390597D01*
X25443580Y-121415554D01*
X25438326Y-121440306D01*
X25432117Y-121464855D01*
X25424953Y-121489200D01*
X25416833Y-121513341D01*
X25407758Y-121537278D01*
X25401177Y-121553123D01*
X25390719Y-121576475D01*
X25379725Y-121598904D01*
X25364231Y-121627374D01*
X25347782Y-121654203D01*
X25330380Y-121679390D01*
X25312024Y-121702937D01*
X25292713Y-121724842D01*
X25272449Y-121745107D01*
X25271414Y-121746045D01*
X25963546Y-121744243D01*
X25963546Y-122416522D01*
X23462500Y-122416522D01*
X23462500Y-121819348D01*
X23632411Y-121768610D01*
X23612327Y-121751909D01*
X23587979Y-121729112D01*
X23565310Y-121705160D01*
X23544321Y-121680053D01*
X23525010Y-121653792D01*
X23507379Y-121626377D01*
X23491427Y-121597807D01*
X23477154Y-121568083D01*
X23464560Y-121537205D01*
X23453646Y-121505172D01*
X23444410Y-121471984D01*
X23436854Y-121437642D01*
X23435552Y-121429781D01*
X24048682Y-121429781D01*
X24049557Y-121455854D01*
X24052181Y-121480950D01*
X24056555Y-121505070D01*
X24065108Y-121535710D01*
X24076772Y-121564613D01*
X24091546Y-121591781D01*
X24109430Y-121617211D01*
X24130424Y-121640906D01*
X24148211Y-121657537D01*
X24167787Y-121673032D01*
X24188962Y-121687004D01*
X24211736Y-121699451D01*
X24236110Y-121710374D01*
X24262083Y-121719773D01*
X24289655Y-121727647D01*
X24318826Y-121733998D01*
X24349597Y-121738824D01*
X24381967Y-121742126D01*
X24415936Y-121743905D01*
X24439471Y-121744243D01*
X24474501Y-121743481D01*
X24507921Y-121741195D01*
X24539731Y-121737385D01*
X24569931Y-121732050D01*
X24598521Y-121725192D01*
X24625501Y-121716809D01*
X24650871Y-121706902D01*
X24674631Y-121695471D01*
X24696781Y-121682516D01*
X24717321Y-121668037D01*
X24730120Y-121657537D01*
X24748016Y-121640906D01*
X24769139Y-121617211D01*
X24787133Y-121591781D01*
X24801997Y-121564613D01*
X24813733Y-121535710D01*
X24822338Y-121505070D01*
X24826739Y-121480950D01*
X24829379Y-121455854D01*
X24830259Y-121429781D01*
X24829379Y-121403598D01*
X24826739Y-121378404D01*
X24822338Y-121354197D01*
X24813733Y-121323456D01*
X24801997Y-121294472D01*
X24787133Y-121267242D01*
X24769139Y-121241769D01*
X24748016Y-121218050D01*
X24730120Y-121201414D01*
X24710653Y-121186027D01*
X24689577Y-121172155D01*
X24666890Y-121159795D01*
X24642593Y-121148949D01*
X24616686Y-121139616D01*
X24589170Y-121131797D01*
X24560043Y-121125491D01*
X24529306Y-121120699D01*
X24496960Y-121117420D01*
X24463003Y-121115654D01*
X24439471Y-121115318D01*
X24404436Y-121116075D01*
X24370999Y-121118345D01*
X24339163Y-121122128D01*
X24308925Y-121127425D01*
X24280287Y-121134235D01*
X24253248Y-121142559D01*
X24227808Y-121152396D01*
X24203967Y-121163747D01*
X24181726Y-121176611D01*
X24161084Y-121190988D01*
X24148211Y-121201414D01*
X24124884Y-121223815D01*
X24104667Y-121247972D01*
X24087561Y-121273885D01*
X24073565Y-121301553D01*
X24062679Y-121330977D01*
X24054903Y-121362156D01*
X24051112Y-121386692D01*
X24049071Y-121412216D01*
X24048682Y-121429781D01*
X23435552Y-121429781D01*
X23430977Y-121402146D01*
X23426779Y-121365495D01*
X23424260Y-121327690D01*
X23423421Y-121288730D01*
X23424444Y-121240738D01*
X23427514Y-121194000D01*
X23432630Y-121148517D01*
X23439793Y-121104289D01*
X23449002Y-121061315D01*
X23460257Y-121019596D01*
X23473560Y-120979131D01*
X23488908Y-120939921D01*
X23506303Y-120901966D01*
X23525745Y-120865265D01*
X23547233Y-120829819D01*
X23570768Y-120795627D01*
X23596349Y-120762690D01*
X23623976Y-120731008D01*
X23653651Y-120700580D01*
X23685371Y-120671407D01*
X23719086Y-120643753D01*
X23754589Y-120617883D01*
X23791881Y-120593797D01*
X23830963Y-120571496D01*
X23871833Y-120550979D01*
X23914492Y-120532245D01*
X23958940Y-120515296D01*
X24005177Y-120500131D01*
X24028966Y-120493218D01*
X24053202Y-120486750D01*
X24077886Y-120480729D01*
X24103017Y-120475154D01*
X24128595Y-120470024D01*
X24154620Y-120465341D01*
X24181093Y-120461104D01*
X24208013Y-120457312D01*
X24235380Y-120453967D01*
X24263194Y-120451068D01*
X24291455Y-120448615D01*
X24320164Y-120446608D01*
X24349320Y-120445047D01*
X24378923Y-120443932D01*
X24408973Y-120443263D01*
X24439471Y-120443040D01*
X24469968Y-120443263D01*
G37*
G36*
X23423421Y-123423413D02*
G01*
X23424113Y-123391703D01*
X23426190Y-123360229D01*
X23429651Y-123328992D01*
X23434497Y-123297990D01*
X23440728Y-123267225D01*
X23448343Y-123236696D01*
X23457343Y-123206403D01*
X23467728Y-123176346D01*
X23479497Y-123146525D01*
X23492651Y-123116941D01*
X23502189Y-123097349D01*
X23517822Y-123068616D01*
X23535183Y-123040805D01*
X23554272Y-123013919D01*
X23575090Y-122987955D01*
X23597635Y-122962914D01*
X23621909Y-122938796D01*
X23647910Y-122915601D01*
X23675640Y-122893330D01*
X23705097Y-122871981D01*
X23725696Y-122858261D01*
X23747062Y-122844952D01*
X23758033Y-122838451D01*
X23780538Y-122826029D01*
X23803781Y-122814409D01*
X23827764Y-122803589D01*
X23852487Y-122793572D01*
X23877948Y-122784355D01*
X23904150Y-122775940D01*
X23931090Y-122768327D01*
X23958770Y-122761515D01*
X23987190Y-122755504D01*
X24016349Y-122750295D01*
X24046247Y-122745887D01*
X24076885Y-122742281D01*
X24108262Y-122739476D01*
X24140378Y-122737472D01*
X24173234Y-122736270D01*
X24206830Y-122735869D01*
X25416442Y-122735869D01*
X25416442Y-123408148D01*
X24327119Y-123408148D01*
X24302266Y-123408749D01*
X24270882Y-123411420D01*
X24241501Y-123416229D01*
X24214124Y-123423174D01*
X24188750Y-123432257D01*
X24165380Y-123443477D01*
X24144014Y-123456834D01*
X24124651Y-123472328D01*
X24120123Y-123476536D01*
X24103379Y-123494405D01*
X24085589Y-123518916D01*
X24071287Y-123545842D01*
X24062357Y-123569121D01*
X24055659Y-123593946D01*
X24051194Y-123620317D01*
X24048961Y-123648233D01*
X24048682Y-123662771D01*
X24049799Y-123691431D01*
X24053147Y-123718489D01*
X24058729Y-123743943D01*
X24066543Y-123767795D01*
X24079449Y-123795356D01*
X24095845Y-123820412D01*
X24115728Y-123842964D01*
X24120123Y-123847174D01*
X24138985Y-123862916D01*
X24159851Y-123876560D01*
X24182720Y-123888104D01*
X24207593Y-123897549D01*
X24234469Y-123904896D01*
X24263349Y-123910143D01*
X24294232Y-123913292D01*
X24318710Y-123914275D01*
X24327119Y-123914341D01*
X25416442Y-123914341D01*
X25416442Y-124586009D01*
X23462500Y-124586009D01*
X23462500Y-123989446D01*
X23638354Y-123936323D01*
X23638354Y-123942429D01*
X23612327Y-123916860D01*
X23587979Y-123890375D01*
X23565310Y-123862974D01*
X23544321Y-123834657D01*
X23525010Y-123805424D01*
X23507379Y-123775275D01*
X23491427Y-123744211D01*
X23477154Y-123712230D01*
X23464560Y-123679334D01*
X23453646Y-123645521D01*
X23444410Y-123610793D01*
X23436854Y-123575149D01*
X23430977Y-123538589D01*
X23426779Y-123501113D01*
X23424260Y-123462721D01*
X23423421Y-123423413D01*
G37*
G36*
X23423421Y-125804170D02*
G01*
X23423678Y-125774805D01*
X23424451Y-125745862D01*
X23425739Y-125717341D01*
X23427542Y-125689242D01*
X23429861Y-125661566D01*
X23432694Y-125634312D01*
X23436043Y-125607479D01*
X23439907Y-125581069D01*
X23444286Y-125555082D01*
X23449181Y-125529516D01*
X23454590Y-125504373D01*
X23460515Y-125479651D01*
X23466955Y-125455352D01*
X23473910Y-125431475D01*
X23481381Y-125408021D01*
X23497867Y-125362378D01*
X23516414Y-125318424D01*
X23537022Y-125276158D01*
X23559691Y-125235582D01*
X23584421Y-125196693D01*
X23611211Y-125159494D01*
X23640062Y-125123984D01*
X23670974Y-125090162D01*
X23687203Y-125073884D01*
X23721053Y-125042829D01*
X23756659Y-125013777D01*
X23794021Y-124986729D01*
X23833138Y-124961685D01*
X23874011Y-124938644D01*
X23916639Y-124917607D01*
X23961022Y-124898573D01*
X23983872Y-124889807D01*
X24007161Y-124881543D01*
X24030889Y-124873779D01*
X24055056Y-124866516D01*
X24079661Y-124859754D01*
X24104706Y-124853493D01*
X24130189Y-124847733D01*
X24156111Y-124842473D01*
X24182472Y-124837715D01*
X24209272Y-124833457D01*
X24236511Y-124829701D01*
X24264188Y-124826445D01*
X24292305Y-124823690D01*
X24320860Y-124821436D01*
X24349855Y-124819683D01*
X24379288Y-124818431D01*
X24409160Y-124817679D01*
X24439471Y-124817429D01*
X24469782Y-124817679D01*
X24499654Y-124818431D01*
X24529087Y-124819683D01*
X24558081Y-124821436D01*
X24586637Y-124823690D01*
X24614753Y-124826445D01*
X24642431Y-124829701D01*
X24669670Y-124833457D01*
X24696470Y-124837715D01*
X24722831Y-124842473D01*
X24748753Y-124847733D01*
X24774236Y-124853493D01*
X24799281Y-124859754D01*
X24823886Y-124866516D01*
X24848053Y-124873779D01*
X24871781Y-124881543D01*
X24895070Y-124889807D01*
X24917920Y-124898573D01*
X24962303Y-124917607D01*
X25004931Y-124938644D01*
X25045804Y-124961685D01*
X25084921Y-124986729D01*
X25122282Y-125013777D01*
X25157888Y-125042829D01*
X25191739Y-125073884D01*
X25223681Y-125106861D01*
X25253563Y-125141528D01*
X25281384Y-125177883D01*
X25307144Y-125215926D01*
X25330843Y-125255659D01*
X25352481Y-125297080D01*
X25372059Y-125340190D01*
X25389576Y-125384988D01*
X25405032Y-125431475D01*
X25411987Y-125455352D01*
X25418427Y-125479651D01*
X25424352Y-125504373D01*
X25429761Y-125529516D01*
X25434656Y-125555082D01*
X25439035Y-125581069D01*
X25442899Y-125607479D01*
X25446248Y-125634312D01*
X25449081Y-125661566D01*
X25451400Y-125689242D01*
X25453203Y-125717341D01*
X25454491Y-125745862D01*
X25455264Y-125774805D01*
X25455521Y-125804170D01*
X25455056Y-125841422D01*
X25453661Y-125877920D01*
X25451335Y-125913664D01*
X25448079Y-125948655D01*
X25443893Y-125982892D01*
X25438777Y-126016375D01*
X25432731Y-126049105D01*
X25425754Y-126081080D01*
X25417847Y-126112302D01*
X25409010Y-126142771D01*
X25399243Y-126172485D01*
X25388545Y-126201446D01*
X25376917Y-126229653D01*
X25364359Y-126257107D01*
X25350871Y-126283807D01*
X25336453Y-126309753D01*
X25321328Y-126334938D01*
X25305722Y-126359355D01*
X25289634Y-126383004D01*
X25273064Y-126405885D01*
X25256012Y-126427998D01*
X25238479Y-126449343D01*
X25220464Y-126469920D01*
X25201967Y-126489729D01*
X25182988Y-126508770D01*
X25163527Y-126527043D01*
X25143584Y-126544548D01*
X25123160Y-126561285D01*
X25102254Y-126577253D01*
X25080866Y-126592454D01*
X25058996Y-126606887D01*
X25036645Y-126620552D01*
X25013895Y-126633541D01*
X24990830Y-126645949D01*
X24967450Y-126657775D01*
X24943756Y-126669019D01*
X24919747Y-126679680D01*
X24895423Y-126689760D01*
X24870784Y-126699258D01*
X24845830Y-126708174D01*
X24820561Y-126716508D01*
X24794978Y-126724260D01*
X24769079Y-126731429D01*
X24742866Y-126738017D01*
X24716338Y-126744023D01*
X24689495Y-126749447D01*
X24662338Y-126754289D01*
X24634865Y-126758549D01*
X24634865Y-126089934D01*
X24659766Y-126078266D01*
X24682874Y-126065853D01*
X24704188Y-126052697D01*
X24728308Y-126035204D01*
X24749626Y-126016549D01*
X24768141Y-125996731D01*
X24783853Y-125975751D01*
X24797222Y-125952936D01*
X24808325Y-125927618D01*
X24817162Y-125899794D01*
X24822601Y-125875733D01*
X24826589Y-125850068D01*
X24829126Y-125822801D01*
X24830214Y-125793930D01*
X24830259Y-125786462D01*
X24828695Y-125755092D01*
X24824001Y-125725096D01*
X24816177Y-125696474D01*
X24805225Y-125669226D01*
X24791142Y-125643351D01*
X24773931Y-125618851D01*
X24753590Y-125595724D01*
X24730120Y-125573971D01*
X24710653Y-125558912D01*
X24689577Y-125545335D01*
X24666890Y-125533238D01*
X24642593Y-125522623D01*
X24616686Y-125513489D01*
X24589170Y-125505836D01*
X24560043Y-125499664D01*
X24529306Y-125494974D01*
X24496960Y-125491765D01*
X24463003Y-125490037D01*
X24439471Y-125489707D01*
X24404436Y-125490448D01*
X24370999Y-125492670D01*
X24339163Y-125496373D01*
X24308925Y-125501557D01*
X24280287Y-125508222D01*
X24253248Y-125516369D01*
X24227808Y-125525997D01*
X24203967Y-125537106D01*
X24181726Y-125549696D01*
X24161084Y-125563767D01*
X24148211Y-125573971D01*
X24124884Y-125595724D01*
X24104667Y-125618851D01*
X24087561Y-125643351D01*
X24073565Y-125669226D01*
X24062679Y-125696474D01*
X24054903Y-125725096D01*
X24050237Y-125755092D01*
X24048682Y-125786462D01*
X24049398Y-125815733D01*
X24051545Y-125843402D01*
X24055122Y-125869467D01*
X24060131Y-125893929D01*
X24068405Y-125922253D01*
X24078915Y-125948073D01*
X24091660Y-125971388D01*
X24094478Y-125975751D01*
X24110366Y-125996731D01*
X24129027Y-126016549D01*
X24150461Y-126035204D01*
X24174668Y-126052697D01*
X24196029Y-126065853D01*
X24219166Y-126078266D01*
X24244077Y-126089934D01*
X24244077Y-126758549D01*
X24216604Y-126754289D01*
X24189446Y-126749447D01*
X24162603Y-126744023D01*
X24136075Y-126738017D01*
X24109862Y-126731429D01*
X24083964Y-126724260D01*
X24058380Y-126716508D01*
X24033112Y-126708174D01*
X24008158Y-126699258D01*
X23983519Y-126689760D01*
X23959195Y-126679680D01*
X23935186Y-126669019D01*
X23911491Y-126657775D01*
X23888112Y-126645949D01*
X23865047Y-126633541D01*
X23842297Y-126620552D01*
X23819946Y-126606887D01*
X23798076Y-126592454D01*
X23776688Y-126577253D01*
X23755782Y-126561285D01*
X23735357Y-126544548D01*
X23715415Y-126527043D01*
X23695954Y-126508770D01*
X23676975Y-126489729D01*
X23658478Y-126469920D01*
X23640463Y-126449343D01*
X23622929Y-126427998D01*
X23605878Y-126405885D01*
X23589308Y-126383004D01*
X23573220Y-126359355D01*
X23557613Y-126334938D01*
X23542489Y-126309753D01*
X23528071Y-126283807D01*
X23514582Y-126257107D01*
X23502024Y-126229653D01*
X23490397Y-126201446D01*
X23479699Y-126172485D01*
X23469932Y-126142771D01*
X23461095Y-126112302D01*
X23453188Y-126081080D01*
X23446211Y-126049105D01*
X23440165Y-126016375D01*
X23435048Y-125982892D01*
X23430862Y-125948655D01*
X23427607Y-125913664D01*
X23425281Y-125877920D01*
X23423886Y-125841422D01*
X23423421Y-125804170D01*
G37*
G36*
X23423421Y-127833828D02*
G01*
X23423678Y-127804463D01*
X23424451Y-127775520D01*
X23425739Y-127746999D01*
X23427542Y-127718900D01*
X23429861Y-127691224D01*
X23432694Y-127663970D01*
X23436043Y-127637137D01*
X23439907Y-127610728D01*
X23444286Y-127584740D01*
X23449181Y-127559174D01*
X23454590Y-127534031D01*
X23460515Y-127509309D01*
X23466955Y-127485010D01*
X23473910Y-127461134D01*
X23481381Y-127437679D01*
X23497867Y-127392036D01*
X23516414Y-127348082D01*
X23537022Y-127305816D01*
X23559691Y-127265240D01*
X23584421Y-127226352D01*
X23611211Y-127189152D01*
X23640062Y-127153642D01*
X23670974Y-127119820D01*
X23687203Y-127103542D01*
X23721053Y-127072487D01*
X23756659Y-127043435D01*
X23794021Y-127016387D01*
X23833138Y-126991343D01*
X23874011Y-126968302D01*
X23916639Y-126947265D01*
X23961022Y-126928231D01*
X23983872Y-126919465D01*
X24007161Y-126911201D01*
X24030889Y-126903437D01*
X24055056Y-126896174D01*
X24079661Y-126889412D01*
X24104706Y-126883151D01*
X24130189Y-126877391D01*
X24156111Y-126872131D01*
X24182472Y-126867373D01*
X24209272Y-126863115D01*
X24236511Y-126859359D01*
X24264188Y-126856103D01*
X24292305Y-126853348D01*
X24320860Y-126851094D01*
X24349855Y-126849341D01*
X24379288Y-126848089D01*
X24409160Y-126847337D01*
X24439471Y-126847087D01*
X24469782Y-126847337D01*
X24499654Y-126848089D01*
X24529087Y-126849341D01*
X24558081Y-126851094D01*
X24586637Y-126853348D01*
X24614753Y-126856103D01*
X24642431Y-126859359D01*
X24669670Y-126863115D01*
X24696470Y-126867373D01*
X24722831Y-126872131D01*
X24748753Y-126877391D01*
X24774236Y-126883151D01*
X24799281Y-126889412D01*
X24823886Y-126896174D01*
X24848053Y-126903437D01*
X24871781Y-126911201D01*
X24895070Y-126919465D01*
X24917920Y-126928231D01*
X24962303Y-126947265D01*
X25004931Y-126968302D01*
X25045804Y-126991343D01*
X25084921Y-127016387D01*
X25122282Y-127043435D01*
X25157888Y-127072487D01*
X25191739Y-127103542D01*
X25223681Y-127136520D01*
X25253563Y-127171186D01*
X25281384Y-127207541D01*
X25307144Y-127245584D01*
X25330843Y-127285317D01*
X25352481Y-127326738D01*
X25372059Y-127369848D01*
X25389576Y-127414646D01*
X25405032Y-127461134D01*
X25411987Y-127485010D01*
X25418427Y-127509309D01*
X25424352Y-127534031D01*
X25429761Y-127559174D01*
X25434656Y-127584740D01*
X25439035Y-127610728D01*
X25442899Y-127637137D01*
X25446248Y-127663970D01*
X25449081Y-127691224D01*
X25451400Y-127718900D01*
X25453203Y-127746999D01*
X25454491Y-127775520D01*
X25455264Y-127804463D01*
X25455521Y-127833828D01*
X25455056Y-127871080D01*
X25453661Y-127907578D01*
X25451335Y-127943322D01*
X25448079Y-127978313D01*
X25443893Y-128012550D01*
X25438777Y-128046033D01*
X25432731Y-128078763D01*
X25425754Y-128110738D01*
X25417847Y-128141960D01*
X25409010Y-128172429D01*
X25399243Y-128202143D01*
X25388545Y-128231104D01*
X25376917Y-128259312D01*
X25364359Y-128286765D01*
X25350871Y-128313465D01*
X25336453Y-128339411D01*
X25321328Y-128364596D01*
X25305722Y-128389013D01*
X25289634Y-128412662D01*
X25273064Y-128435543D01*
X25256012Y-128457656D01*
X25238479Y-128479001D01*
X25220464Y-128499578D01*
X25201967Y-128519387D01*
X25182988Y-128538428D01*
X25163527Y-128556701D01*
X25143584Y-128574206D01*
X25123160Y-128590943D01*
X25102254Y-128606912D01*
X25080866Y-128622112D01*
X25058996Y-128636545D01*
X25036645Y-128650210D01*
X25013895Y-128663200D01*
X24990830Y-128675607D01*
X24967450Y-128687433D01*
X24943756Y-128698677D01*
X24919747Y-128709339D01*
X24895423Y-128719418D01*
X24870784Y-128728916D01*
X24845830Y-128737832D01*
X24820561Y-128746166D01*
X24794978Y-128753918D01*
X24769079Y-128761087D01*
X24742866Y-128767675D01*
X24716338Y-128773681D01*
X24689495Y-128779105D01*
X24662338Y-128783947D01*
X24634865Y-128788207D01*
X24634865Y-128119592D01*
X24659766Y-128107924D01*
X24682874Y-128095511D01*
X24704188Y-128082355D01*
X24728308Y-128064862D01*
X24749626Y-128046207D01*
X24768141Y-128026389D01*
X24783853Y-128005409D01*
X24797222Y-127982594D01*
X24808325Y-127957276D01*
X24817162Y-127929453D01*
X24822601Y-127905391D01*
X24826589Y-127879726D01*
X24829126Y-127852459D01*
X24830214Y-127823588D01*
X24830259Y-127816120D01*
X24828695Y-127784751D01*
X24824001Y-127754754D01*
X24816177Y-127726132D01*
X24805225Y-127698884D01*
X24791142Y-127673009D01*
X24773931Y-127648509D01*
X24753590Y-127625382D01*
X24730120Y-127603629D01*
X24710653Y-127588570D01*
X24689577Y-127574993D01*
X24666890Y-127562896D01*
X24642593Y-127552281D01*
X24616686Y-127543147D01*
X24589170Y-127535494D01*
X24560043Y-127529322D01*
X24529306Y-127524632D01*
X24496960Y-127521423D01*
X24463003Y-127519695D01*
X24439471Y-127519365D01*
X24404436Y-127520106D01*
X24370999Y-127522328D01*
X24339163Y-127526031D01*
X24308925Y-127531215D01*
X24280287Y-127537880D01*
X24253248Y-127546027D01*
X24227808Y-127555655D01*
X24203967Y-127566764D01*
X24181726Y-127579354D01*
X24161084Y-127593425D01*
X24148211Y-127603629D01*
X24124884Y-127625382D01*
X24104667Y-127648509D01*
X24087561Y-127673009D01*
X24073565Y-127698884D01*
X24062679Y-127726132D01*
X24054903Y-127754754D01*
X24050237Y-127784751D01*
X24048682Y-127816120D01*
X24049398Y-127845391D01*
X24051545Y-127873060D01*
X24055122Y-127899125D01*
X24060131Y-127923587D01*
X24068405Y-127951911D01*
X24078915Y-127977731D01*
X24091660Y-128001046D01*
X24094478Y-128005409D01*
X24110366Y-128026389D01*
X24129027Y-128046207D01*
X24150461Y-128064862D01*
X24174668Y-128082355D01*
X24196029Y-128095511D01*
X24219166Y-128107924D01*
X24244077Y-128119592D01*
X24244077Y-128788207D01*
X24216604Y-128783947D01*
X24189446Y-128779105D01*
X24162603Y-128773681D01*
X24136075Y-128767675D01*
X24109862Y-128761087D01*
X24083964Y-128753918D01*
X24058380Y-128746166D01*
X24033112Y-128737832D01*
X24008158Y-128728916D01*
X23983519Y-128719418D01*
X23959195Y-128709339D01*
X23935186Y-128698677D01*
X23911491Y-128687433D01*
X23888112Y-128675607D01*
X23865047Y-128663200D01*
X23842297Y-128650210D01*
X23819946Y-128636545D01*
X23798076Y-128622112D01*
X23776688Y-128606912D01*
X23755782Y-128590943D01*
X23735357Y-128574206D01*
X23715415Y-128556701D01*
X23695954Y-128538428D01*
X23676975Y-128519387D01*
X23658478Y-128499578D01*
X23640463Y-128479001D01*
X23622929Y-128457656D01*
X23605878Y-128435543D01*
X23589308Y-128412662D01*
X23573220Y-128389013D01*
X23557613Y-128364596D01*
X23542489Y-128339411D01*
X23528071Y-128313465D01*
X23514582Y-128286765D01*
X23502024Y-128259312D01*
X23490397Y-128231104D01*
X23479699Y-128202143D01*
X23469932Y-128172429D01*
X23461095Y-128141960D01*
X23453188Y-128110738D01*
X23446211Y-128078763D01*
X23440165Y-128046033D01*
X23435048Y-128012550D01*
X23430862Y-127978313D01*
X23427607Y-127943322D01*
X23425281Y-127907578D01*
X23423886Y-127871080D01*
X23423421Y-127833828D01*
G37*
G36*
X23423421Y-129263870D02*
G01*
X23424295Y-129238258D01*
X23426920Y-129213173D01*
X23431294Y-129188613D01*
X23437417Y-129164580D01*
X23445290Y-129141072D01*
X23454912Y-129118090D01*
X23466284Y-129095634D01*
X23479406Y-129073704D01*
X23494277Y-129052300D01*
X23510897Y-129031422D01*
X23522950Y-129017795D01*
X23542182Y-128998590D01*
X23562327Y-128981273D01*
X23583384Y-128965846D01*
X23605353Y-128952308D01*
X23628235Y-128940658D01*
X23652029Y-128930898D01*
X23676735Y-128923027D01*
X23702354Y-128917045D01*
X23728885Y-128912952D01*
X23756328Y-128910748D01*
X23775130Y-128910328D01*
X23803177Y-128911273D01*
X23830300Y-128914107D01*
X23856500Y-128918829D01*
X23881777Y-128925441D01*
X23906131Y-128933942D01*
X23929561Y-128944332D01*
X23952069Y-128956611D01*
X23973654Y-128970779D01*
X23994316Y-128986836D01*
X24014054Y-129004782D01*
X24026700Y-129017795D01*
X24044597Y-129038323D01*
X24060732Y-129059376D01*
X24075108Y-129080956D01*
X24087723Y-129103061D01*
X24098578Y-129125692D01*
X24107673Y-129148849D01*
X24115007Y-129172532D01*
X24120581Y-129196741D01*
X24124395Y-129221476D01*
X24126449Y-129246737D01*
X24126840Y-129263870D01*
X24125960Y-129289476D01*
X24123320Y-129314546D01*
X24118919Y-129339078D01*
X24112758Y-129363075D01*
X24104837Y-129386534D01*
X24095155Y-129409457D01*
X24083714Y-129431843D01*
X24070512Y-129453692D01*
X24055549Y-129475005D01*
X24038827Y-129495781D01*
X24026700Y-129509334D01*
X24007577Y-129528649D01*
X23987531Y-129546063D01*
X23966562Y-129561578D01*
X23944669Y-129575194D01*
X23921854Y-129586909D01*
X23898115Y-129596725D01*
X23873454Y-129604641D01*
X23847869Y-129610657D01*
X23821361Y-129614773D01*
X23793930Y-129616989D01*
X23775130Y-129617411D01*
X23747079Y-129616462D01*
X23719940Y-129613612D01*
X23693713Y-129608862D01*
X23668398Y-129602213D01*
X23643996Y-129593664D01*
X23620506Y-129583215D01*
X23597928Y-129570866D01*
X23576263Y-129556618D01*
X23555510Y-129540470D01*
X23535670Y-129522422D01*
X23522950Y-129509334D01*
X23505163Y-129488916D01*
X23489125Y-129467961D01*
X23474837Y-129446469D01*
X23462299Y-129424441D01*
X23451510Y-129401876D01*
X23442471Y-129378774D01*
X23435181Y-129355135D01*
X23429641Y-129330960D01*
X23425851Y-129306249D01*
X23423809Y-129281000D01*
X23423421Y-129263870D01*
G37*
D11*
X62357143Y-127249757D02*
X62214286Y-127178328D01*
X62214286Y-127178328D02*
X62000000Y-127178328D01*
X62000000Y-127178328D02*
X61785714Y-127249757D01*
X61785714Y-127249757D02*
X61642857Y-127392614D01*
X61642857Y-127392614D02*
X61571428Y-127535471D01*
X61571428Y-127535471D02*
X61500000Y-127821185D01*
X61500000Y-127821185D02*
X61500000Y-128035471D01*
X61500000Y-128035471D02*
X61571428Y-128321185D01*
X61571428Y-128321185D02*
X61642857Y-128464042D01*
X61642857Y-128464042D02*
X61785714Y-128606900D01*
X61785714Y-128606900D02*
X62000000Y-128678328D01*
X62000000Y-128678328D02*
X62142857Y-128678328D01*
X62142857Y-128678328D02*
X62357143Y-128606900D01*
X62357143Y-128606900D02*
X62428571Y-128535471D01*
X62428571Y-128535471D02*
X62428571Y-128035471D01*
X62428571Y-128035471D02*
X62142857Y-128035471D01*
X63071428Y-128678328D02*
X63071428Y-127178328D01*
X63071428Y-127178328D02*
X63928571Y-128678328D01*
X63928571Y-128678328D02*
X63928571Y-127178328D01*
X64642857Y-128678328D02*
X64642857Y-127178328D01*
X64642857Y-127178328D02*
X65000000Y-127178328D01*
X65000000Y-127178328D02*
X65214286Y-127249757D01*
X65214286Y-127249757D02*
X65357143Y-127392614D01*
X65357143Y-127392614D02*
X65428572Y-127535471D01*
X65428572Y-127535471D02*
X65500000Y-127821185D01*
X65500000Y-127821185D02*
X65500000Y-128035471D01*
X65500000Y-128035471D02*
X65428572Y-128321185D01*
X65428572Y-128321185D02*
X65357143Y-128464042D01*
X65357143Y-128464042D02*
X65214286Y-128606900D01*
X65214286Y-128606900D02*
X65000000Y-128678328D01*
X65000000Y-128678328D02*
X64642857Y-128678328D01*
X60857143Y-122106900D02*
X62000001Y-122106900D01*
X61428572Y-122678328D02*
X61428572Y-121535471D01*
X63500001Y-122678328D02*
X62642858Y-122678328D01*
X63071429Y-122678328D02*
X63071429Y-121178328D01*
X63071429Y-121178328D02*
X62928572Y-121392614D01*
X62928572Y-121392614D02*
X62785715Y-121535471D01*
X62785715Y-121535471D02*
X62642858Y-121606900D01*
X64071429Y-121321185D02*
X64142857Y-121249757D01*
X64142857Y-121249757D02*
X64285715Y-121178328D01*
X64285715Y-121178328D02*
X64642857Y-121178328D01*
X64642857Y-121178328D02*
X64785715Y-121249757D01*
X64785715Y-121249757D02*
X64857143Y-121321185D01*
X64857143Y-121321185D02*
X64928572Y-121464042D01*
X64928572Y-121464042D02*
X64928572Y-121606900D01*
X64928572Y-121606900D02*
X64857143Y-121821185D01*
X64857143Y-121821185D02*
X64000000Y-122678328D01*
X64000000Y-122678328D02*
X64928572Y-122678328D01*
X65357143Y-121178328D02*
X65857143Y-122678328D01*
X65857143Y-122678328D02*
X66357143Y-121178328D01*
X185357143Y-127249757D02*
X185214286Y-127178328D01*
X185214286Y-127178328D02*
X185000000Y-127178328D01*
X185000000Y-127178328D02*
X184785714Y-127249757D01*
X184785714Y-127249757D02*
X184642857Y-127392614D01*
X184642857Y-127392614D02*
X184571428Y-127535471D01*
X184571428Y-127535471D02*
X184500000Y-127821185D01*
X184500000Y-127821185D02*
X184500000Y-128035471D01*
X184500000Y-128035471D02*
X184571428Y-128321185D01*
X184571428Y-128321185D02*
X184642857Y-128464042D01*
X184642857Y-128464042D02*
X184785714Y-128606900D01*
X184785714Y-128606900D02*
X185000000Y-128678328D01*
X185000000Y-128678328D02*
X185142857Y-128678328D01*
X185142857Y-128678328D02*
X185357143Y-128606900D01*
X185357143Y-128606900D02*
X185428571Y-128535471D01*
X185428571Y-128535471D02*
X185428571Y-128035471D01*
X185428571Y-128035471D02*
X185142857Y-128035471D01*
X186071428Y-128678328D02*
X186071428Y-127178328D01*
X186071428Y-127178328D02*
X186928571Y-128678328D01*
X186928571Y-128678328D02*
X186928571Y-127178328D01*
X187642857Y-128678328D02*
X187642857Y-127178328D01*
X187642857Y-127178328D02*
X188000000Y-127178328D01*
X188000000Y-127178328D02*
X188214286Y-127249757D01*
X188214286Y-127249757D02*
X188357143Y-127392614D01*
X188357143Y-127392614D02*
X188428572Y-127535471D01*
X188428572Y-127535471D02*
X188500000Y-127821185D01*
X188500000Y-127821185D02*
X188500000Y-128035471D01*
X188500000Y-128035471D02*
X188428572Y-128321185D01*
X188428572Y-128321185D02*
X188357143Y-128464042D01*
X188357143Y-128464042D02*
X188214286Y-128606900D01*
X188214286Y-128606900D02*
X188000000Y-128678328D01*
X188000000Y-128678328D02*
X187642857Y-128678328D01*
X183857143Y-122106900D02*
X185000001Y-122106900D01*
X184428572Y-122678328D02*
X184428572Y-121535471D01*
X186500001Y-122678328D02*
X185642858Y-122678328D01*
X186071429Y-122678328D02*
X186071429Y-121178328D01*
X186071429Y-121178328D02*
X185928572Y-121392614D01*
X185928572Y-121392614D02*
X185785715Y-121535471D01*
X185785715Y-121535471D02*
X185642858Y-121606900D01*
X187071429Y-121321185D02*
X187142857Y-121249757D01*
X187142857Y-121249757D02*
X187285715Y-121178328D01*
X187285715Y-121178328D02*
X187642857Y-121178328D01*
X187642857Y-121178328D02*
X187785715Y-121249757D01*
X187785715Y-121249757D02*
X187857143Y-121321185D01*
X187857143Y-121321185D02*
X187928572Y-121464042D01*
X187928572Y-121464042D02*
X187928572Y-121606900D01*
X187928572Y-121606900D02*
X187857143Y-121821185D01*
X187857143Y-121821185D02*
X187000000Y-122678328D01*
X187000000Y-122678328D02*
X187928572Y-122678328D01*
X188357143Y-121178328D02*
X188857143Y-122678328D01*
X188857143Y-122678328D02*
X189357143Y-121178328D01*
D12*
X135804761Y-167812295D02*
X135804761Y-168383723D01*
X135804761Y-168383723D02*
X135766666Y-168498009D01*
X135766666Y-168498009D02*
X135690475Y-168574200D01*
X135690475Y-168574200D02*
X135576190Y-168612295D01*
X135576190Y-168612295D02*
X135499999Y-168612295D01*
X136566666Y-168612295D02*
X136185714Y-168612295D01*
X136185714Y-168612295D02*
X136185714Y-167812295D01*
X137290476Y-168536104D02*
X137252380Y-168574200D01*
X137252380Y-168574200D02*
X137138095Y-168612295D01*
X137138095Y-168612295D02*
X137061904Y-168612295D01*
X137061904Y-168612295D02*
X136947618Y-168574200D01*
X136947618Y-168574200D02*
X136871428Y-168498009D01*
X136871428Y-168498009D02*
X136833333Y-168421819D01*
X136833333Y-168421819D02*
X136795237Y-168269438D01*
X136795237Y-168269438D02*
X136795237Y-168155152D01*
X136795237Y-168155152D02*
X136833333Y-168002771D01*
X136833333Y-168002771D02*
X136871428Y-167926580D01*
X136871428Y-167926580D02*
X136947618Y-167850390D01*
X136947618Y-167850390D02*
X137061904Y-167812295D01*
X137061904Y-167812295D02*
X137138095Y-167812295D01*
X137138095Y-167812295D02*
X137252380Y-167850390D01*
X137252380Y-167850390D02*
X137290476Y-167888485D01*
X137861904Y-167812295D02*
X137861904Y-168383723D01*
X137861904Y-168383723D02*
X137823809Y-168498009D01*
X137823809Y-168498009D02*
X137747618Y-168574200D01*
X137747618Y-168574200D02*
X137633333Y-168612295D01*
X137633333Y-168612295D02*
X137557142Y-168612295D01*
X138623809Y-168612295D02*
X138242857Y-168612295D01*
X138242857Y-168612295D02*
X138242857Y-167812295D01*
X139347619Y-168536104D02*
X139309523Y-168574200D01*
X139309523Y-168574200D02*
X139195238Y-168612295D01*
X139195238Y-168612295D02*
X139119047Y-168612295D01*
X139119047Y-168612295D02*
X139004761Y-168574200D01*
X139004761Y-168574200D02*
X138928571Y-168498009D01*
X138928571Y-168498009D02*
X138890476Y-168421819D01*
X138890476Y-168421819D02*
X138852380Y-168269438D01*
X138852380Y-168269438D02*
X138852380Y-168155152D01*
X138852380Y-168155152D02*
X138890476Y-168002771D01*
X138890476Y-168002771D02*
X138928571Y-167926580D01*
X138928571Y-167926580D02*
X139004761Y-167850390D01*
X139004761Y-167850390D02*
X139119047Y-167812295D01*
X139119047Y-167812295D02*
X139195238Y-167812295D01*
X139195238Y-167812295D02*
X139309523Y-167850390D01*
X139309523Y-167850390D02*
X139347619Y-167888485D01*
X139919047Y-167812295D02*
X139919047Y-168383723D01*
X139919047Y-168383723D02*
X139880952Y-168498009D01*
X139880952Y-168498009D02*
X139804761Y-168574200D01*
X139804761Y-168574200D02*
X139690476Y-168612295D01*
X139690476Y-168612295D02*
X139614285Y-168612295D01*
X140680952Y-168612295D02*
X140300000Y-168612295D01*
X140300000Y-168612295D02*
X140300000Y-167812295D01*
X141404762Y-168536104D02*
X141366666Y-168574200D01*
X141366666Y-168574200D02*
X141252381Y-168612295D01*
X141252381Y-168612295D02*
X141176190Y-168612295D01*
X141176190Y-168612295D02*
X141061904Y-168574200D01*
X141061904Y-168574200D02*
X140985714Y-168498009D01*
X140985714Y-168498009D02*
X140947619Y-168421819D01*
X140947619Y-168421819D02*
X140909523Y-168269438D01*
X140909523Y-168269438D02*
X140909523Y-168155152D01*
X140909523Y-168155152D02*
X140947619Y-168002771D01*
X140947619Y-168002771D02*
X140985714Y-167926580D01*
X140985714Y-167926580D02*
X141061904Y-167850390D01*
X141061904Y-167850390D02*
X141176190Y-167812295D01*
X141176190Y-167812295D02*
X141252381Y-167812295D01*
X141252381Y-167812295D02*
X141366666Y-167850390D01*
X141366666Y-167850390D02*
X141404762Y-167888485D01*
X141976190Y-167812295D02*
X141976190Y-168383723D01*
X141976190Y-168383723D02*
X141938095Y-168498009D01*
X141938095Y-168498009D02*
X141861904Y-168574200D01*
X141861904Y-168574200D02*
X141747619Y-168612295D01*
X141747619Y-168612295D02*
X141671428Y-168612295D01*
X142738095Y-168612295D02*
X142357143Y-168612295D01*
X142357143Y-168612295D02*
X142357143Y-167812295D01*
X143461905Y-168536104D02*
X143423809Y-168574200D01*
X143423809Y-168574200D02*
X143309524Y-168612295D01*
X143309524Y-168612295D02*
X143233333Y-168612295D01*
X143233333Y-168612295D02*
X143119047Y-168574200D01*
X143119047Y-168574200D02*
X143042857Y-168498009D01*
X143042857Y-168498009D02*
X143004762Y-168421819D01*
X143004762Y-168421819D02*
X142966666Y-168269438D01*
X142966666Y-168269438D02*
X142966666Y-168155152D01*
X142966666Y-168155152D02*
X143004762Y-168002771D01*
X143004762Y-168002771D02*
X143042857Y-167926580D01*
X143042857Y-167926580D02*
X143119047Y-167850390D01*
X143119047Y-167850390D02*
X143233333Y-167812295D01*
X143233333Y-167812295D02*
X143309524Y-167812295D01*
X143309524Y-167812295D02*
X143423809Y-167850390D01*
X143423809Y-167850390D02*
X143461905Y-167888485D01*
X124190476Y-168404819D02*
X124190476Y-169119104D01*
X124190476Y-169119104D02*
X124142857Y-169261961D01*
X124142857Y-169261961D02*
X124047619Y-169357200D01*
X124047619Y-169357200D02*
X123904762Y-169404819D01*
X123904762Y-169404819D02*
X123809524Y-169404819D01*
X125190476Y-169404819D02*
X124619048Y-169404819D01*
X124904762Y-169404819D02*
X124904762Y-168404819D01*
X124904762Y-168404819D02*
X124809524Y-168547676D01*
X124809524Y-168547676D02*
X124714286Y-168642914D01*
X124714286Y-168642914D02*
X124619048Y-168690533D01*
X126047619Y-168738152D02*
X126047619Y-169404819D01*
X125809524Y-168357200D02*
X125571429Y-169071485D01*
X125571429Y-169071485D02*
X126190476Y-169071485D01*
X104474819Y-165809523D02*
X105189104Y-165809523D01*
X105189104Y-165809523D02*
X105331961Y-165857142D01*
X105331961Y-165857142D02*
X105427200Y-165952380D01*
X105427200Y-165952380D02*
X105474819Y-166095237D01*
X105474819Y-166095237D02*
X105474819Y-166190475D01*
X105474819Y-164809523D02*
X105474819Y-165380951D01*
X105474819Y-165095237D02*
X104474819Y-165095237D01*
X104474819Y-165095237D02*
X104617676Y-165190475D01*
X104617676Y-165190475D02*
X104712914Y-165285713D01*
X104712914Y-165285713D02*
X104760533Y-165380951D01*
X104474819Y-164476189D02*
X104474819Y-163809523D01*
X104474819Y-163809523D02*
X105474819Y-164238094D01*
X147190476Y-203954819D02*
X147190476Y-204669104D01*
X147190476Y-204669104D02*
X147142857Y-204811961D01*
X147142857Y-204811961D02*
X147047619Y-204907200D01*
X147047619Y-204907200D02*
X146904762Y-204954819D01*
X146904762Y-204954819D02*
X146809524Y-204954819D01*
X148190476Y-204954819D02*
X147619048Y-204954819D01*
X147904762Y-204954819D02*
X147904762Y-203954819D01*
X147904762Y-203954819D02*
X147809524Y-204097676D01*
X147809524Y-204097676D02*
X147714286Y-204192914D01*
X147714286Y-204192914D02*
X147619048Y-204240533D01*
X148761905Y-204383390D02*
X148666667Y-204335771D01*
X148666667Y-204335771D02*
X148619048Y-204288152D01*
X148619048Y-204288152D02*
X148571429Y-204192914D01*
X148571429Y-204192914D02*
X148571429Y-204145295D01*
X148571429Y-204145295D02*
X148619048Y-204050057D01*
X148619048Y-204050057D02*
X148666667Y-204002438D01*
X148666667Y-204002438D02*
X148761905Y-203954819D01*
X148761905Y-203954819D02*
X148952381Y-203954819D01*
X148952381Y-203954819D02*
X149047619Y-204002438D01*
X149047619Y-204002438D02*
X149095238Y-204050057D01*
X149095238Y-204050057D02*
X149142857Y-204145295D01*
X149142857Y-204145295D02*
X149142857Y-204192914D01*
X149142857Y-204192914D02*
X149095238Y-204288152D01*
X149095238Y-204288152D02*
X149047619Y-204335771D01*
X149047619Y-204335771D02*
X148952381Y-204383390D01*
X148952381Y-204383390D02*
X148761905Y-204383390D01*
X148761905Y-204383390D02*
X148666667Y-204431009D01*
X148666667Y-204431009D02*
X148619048Y-204478628D01*
X148619048Y-204478628D02*
X148571429Y-204573866D01*
X148571429Y-204573866D02*
X148571429Y-204764342D01*
X148571429Y-204764342D02*
X148619048Y-204859580D01*
X148619048Y-204859580D02*
X148666667Y-204907200D01*
X148666667Y-204907200D02*
X148761905Y-204954819D01*
X148761905Y-204954819D02*
X148952381Y-204954819D01*
X148952381Y-204954819D02*
X149047619Y-204907200D01*
X149047619Y-204907200D02*
X149095238Y-204859580D01*
X149095238Y-204859580D02*
X149142857Y-204764342D01*
X149142857Y-204764342D02*
X149142857Y-204573866D01*
X149142857Y-204573866D02*
X149095238Y-204478628D01*
X149095238Y-204478628D02*
X149047619Y-204431009D01*
X149047619Y-204431009D02*
X148952381Y-204383390D01*
X101666666Y-191054819D02*
X101666666Y-191769104D01*
X101666666Y-191769104D02*
X101619047Y-191911961D01*
X101619047Y-191911961D02*
X101523809Y-192007200D01*
X101523809Y-192007200D02*
X101380952Y-192054819D01*
X101380952Y-192054819D02*
X101285714Y-192054819D01*
X102095238Y-191150057D02*
X102142857Y-191102438D01*
X102142857Y-191102438D02*
X102238095Y-191054819D01*
X102238095Y-191054819D02*
X102476190Y-191054819D01*
X102476190Y-191054819D02*
X102571428Y-191102438D01*
X102571428Y-191102438D02*
X102619047Y-191150057D01*
X102619047Y-191150057D02*
X102666666Y-191245295D01*
X102666666Y-191245295D02*
X102666666Y-191340533D01*
X102666666Y-191340533D02*
X102619047Y-191483390D01*
X102619047Y-191483390D02*
X102047619Y-192054819D01*
X102047619Y-192054819D02*
X102666666Y-192054819D01*
X193666666Y-124304819D02*
X193666666Y-125019104D01*
X193666666Y-125019104D02*
X193619047Y-125161961D01*
X193619047Y-125161961D02*
X193523809Y-125257200D01*
X193523809Y-125257200D02*
X193380952Y-125304819D01*
X193380952Y-125304819D02*
X193285714Y-125304819D01*
X194190476Y-125304819D02*
X194380952Y-125304819D01*
X194380952Y-125304819D02*
X194476190Y-125257200D01*
X194476190Y-125257200D02*
X194523809Y-125209580D01*
X194523809Y-125209580D02*
X194619047Y-125066723D01*
X194619047Y-125066723D02*
X194666666Y-124876247D01*
X194666666Y-124876247D02*
X194666666Y-124495295D01*
X194666666Y-124495295D02*
X194619047Y-124400057D01*
X194619047Y-124400057D02*
X194571428Y-124352438D01*
X194571428Y-124352438D02*
X194476190Y-124304819D01*
X194476190Y-124304819D02*
X194285714Y-124304819D01*
X194285714Y-124304819D02*
X194190476Y-124352438D01*
X194190476Y-124352438D02*
X194142857Y-124400057D01*
X194142857Y-124400057D02*
X194095238Y-124495295D01*
X194095238Y-124495295D02*
X194095238Y-124733390D01*
X194095238Y-124733390D02*
X194142857Y-124828628D01*
X194142857Y-124828628D02*
X194190476Y-124876247D01*
X194190476Y-124876247D02*
X194285714Y-124923866D01*
X194285714Y-124923866D02*
X194476190Y-124923866D01*
X194476190Y-124923866D02*
X194571428Y-124876247D01*
X194571428Y-124876247D02*
X194619047Y-124828628D01*
X194619047Y-124828628D02*
X194666666Y-124733390D01*
X124190476Y-160454819D02*
X124190476Y-161169104D01*
X124190476Y-161169104D02*
X124142857Y-161311961D01*
X124142857Y-161311961D02*
X124047619Y-161407200D01*
X124047619Y-161407200D02*
X123904762Y-161454819D01*
X123904762Y-161454819D02*
X123809524Y-161454819D01*
X125190476Y-161454819D02*
X124619048Y-161454819D01*
X124904762Y-161454819D02*
X124904762Y-160454819D01*
X124904762Y-160454819D02*
X124809524Y-160597676D01*
X124809524Y-160597676D02*
X124714286Y-160692914D01*
X124714286Y-160692914D02*
X124619048Y-160740533D01*
X126095238Y-160454819D02*
X125619048Y-160454819D01*
X125619048Y-160454819D02*
X125571429Y-160931009D01*
X125571429Y-160931009D02*
X125619048Y-160883390D01*
X125619048Y-160883390D02*
X125714286Y-160835771D01*
X125714286Y-160835771D02*
X125952381Y-160835771D01*
X125952381Y-160835771D02*
X126047619Y-160883390D01*
X126047619Y-160883390D02*
X126095238Y-160931009D01*
X126095238Y-160931009D02*
X126142857Y-161026247D01*
X126142857Y-161026247D02*
X126142857Y-161264342D01*
X126142857Y-161264342D02*
X126095238Y-161359580D01*
X126095238Y-161359580D02*
X126047619Y-161407200D01*
X126047619Y-161407200D02*
X125952381Y-161454819D01*
X125952381Y-161454819D02*
X125714286Y-161454819D01*
X125714286Y-161454819D02*
X125619048Y-161407200D01*
X125619048Y-161407200D02*
X125571429Y-161359580D01*
X117928571Y-165114700D02*
X119071429Y-165114700D01*
X130928571Y-165114700D02*
X132071429Y-165114700D01*
X131500000Y-165686128D02*
X131500000Y-164543271D01*
X110074819Y-172804166D02*
X109598628Y-173137499D01*
X110074819Y-173375594D02*
X109074819Y-173375594D01*
X109074819Y-173375594D02*
X109074819Y-172994642D01*
X109074819Y-172994642D02*
X109122438Y-172899404D01*
X109122438Y-172899404D02*
X109170057Y-172851785D01*
X109170057Y-172851785D02*
X109265295Y-172804166D01*
X109265295Y-172804166D02*
X109408152Y-172804166D01*
X109408152Y-172804166D02*
X109503390Y-172851785D01*
X109503390Y-172851785D02*
X109551009Y-172899404D01*
X109551009Y-172899404D02*
X109598628Y-172994642D01*
X109598628Y-172994642D02*
X109598628Y-173375594D01*
X109170057Y-172423213D02*
X109122438Y-172375594D01*
X109122438Y-172375594D02*
X109074819Y-172280356D01*
X109074819Y-172280356D02*
X109074819Y-172042261D01*
X109074819Y-172042261D02*
X109122438Y-171947023D01*
X109122438Y-171947023D02*
X109170057Y-171899404D01*
X109170057Y-171899404D02*
X109265295Y-171851785D01*
X109265295Y-171851785D02*
X109360533Y-171851785D01*
X109360533Y-171851785D02*
X109503390Y-171899404D01*
X109503390Y-171899404D02*
X110074819Y-172470832D01*
X110074819Y-172470832D02*
X110074819Y-171851785D01*
X103834819Y-173185118D02*
X103834819Y-173089880D01*
X103834819Y-173089880D02*
X103882438Y-172994642D01*
X103882438Y-172994642D02*
X103930057Y-172947023D01*
X103930057Y-172947023D02*
X104025295Y-172899404D01*
X104025295Y-172899404D02*
X104215771Y-172851785D01*
X104215771Y-172851785D02*
X104453866Y-172851785D01*
X104453866Y-172851785D02*
X104644342Y-172899404D01*
X104644342Y-172899404D02*
X104739580Y-172947023D01*
X104739580Y-172947023D02*
X104787200Y-172994642D01*
X104787200Y-172994642D02*
X104834819Y-173089880D01*
X104834819Y-173089880D02*
X104834819Y-173185118D01*
X104834819Y-173185118D02*
X104787200Y-173280356D01*
X104787200Y-173280356D02*
X104739580Y-173327975D01*
X104739580Y-173327975D02*
X104644342Y-173375594D01*
X104644342Y-173375594D02*
X104453866Y-173423213D01*
X104453866Y-173423213D02*
X104215771Y-173423213D01*
X104215771Y-173423213D02*
X104025295Y-173375594D01*
X104025295Y-173375594D02*
X103930057Y-173327975D01*
X103930057Y-173327975D02*
X103882438Y-173280356D01*
X103882438Y-173280356D02*
X103834819Y-173185118D01*
X104834819Y-171851785D02*
X104358628Y-172185118D01*
X104834819Y-172423213D02*
X103834819Y-172423213D01*
X103834819Y-172423213D02*
X103834819Y-172042261D01*
X103834819Y-172042261D02*
X103882438Y-171947023D01*
X103882438Y-171947023D02*
X103930057Y-171899404D01*
X103930057Y-171899404D02*
X104025295Y-171851785D01*
X104025295Y-171851785D02*
X104168152Y-171851785D01*
X104168152Y-171851785D02*
X104263390Y-171899404D01*
X104263390Y-171899404D02*
X104311009Y-171947023D01*
X104311009Y-171947023D02*
X104358628Y-172042261D01*
X104358628Y-172042261D02*
X104358628Y-172423213D01*
X138690476Y-175954819D02*
X138690476Y-176669104D01*
X138690476Y-176669104D02*
X138642857Y-176811961D01*
X138642857Y-176811961D02*
X138547619Y-176907200D01*
X138547619Y-176907200D02*
X138404762Y-176954819D01*
X138404762Y-176954819D02*
X138309524Y-176954819D01*
X139690476Y-176954819D02*
X139119048Y-176954819D01*
X139404762Y-176954819D02*
X139404762Y-175954819D01*
X139404762Y-175954819D02*
X139309524Y-176097676D01*
X139309524Y-176097676D02*
X139214286Y-176192914D01*
X139214286Y-176192914D02*
X139119048Y-176240533D01*
X140547619Y-175954819D02*
X140357143Y-175954819D01*
X140357143Y-175954819D02*
X140261905Y-176002438D01*
X140261905Y-176002438D02*
X140214286Y-176050057D01*
X140214286Y-176050057D02*
X140119048Y-176192914D01*
X140119048Y-176192914D02*
X140071429Y-176383390D01*
X140071429Y-176383390D02*
X140071429Y-176764342D01*
X140071429Y-176764342D02*
X140119048Y-176859580D01*
X140119048Y-176859580D02*
X140166667Y-176907200D01*
X140166667Y-176907200D02*
X140261905Y-176954819D01*
X140261905Y-176954819D02*
X140452381Y-176954819D01*
X140452381Y-176954819D02*
X140547619Y-176907200D01*
X140547619Y-176907200D02*
X140595238Y-176859580D01*
X140595238Y-176859580D02*
X140642857Y-176764342D01*
X140642857Y-176764342D02*
X140642857Y-176526247D01*
X140642857Y-176526247D02*
X140595238Y-176431009D01*
X140595238Y-176431009D02*
X140547619Y-176383390D01*
X140547619Y-176383390D02*
X140452381Y-176335771D01*
X140452381Y-176335771D02*
X140261905Y-176335771D01*
X140261905Y-176335771D02*
X140166667Y-176383390D01*
X140166667Y-176383390D02*
X140119048Y-176431009D01*
X140119048Y-176431009D02*
X140071429Y-176526247D01*
X133428571Y-161114700D02*
X134571429Y-161114700D01*
X134000000Y-161686128D02*
X134000000Y-160543271D01*
X144428571Y-161114700D02*
X145571429Y-161114700D01*
X70666666Y-124304819D02*
X70666666Y-125019104D01*
X70666666Y-125019104D02*
X70619047Y-125161961D01*
X70619047Y-125161961D02*
X70523809Y-125257200D01*
X70523809Y-125257200D02*
X70380952Y-125304819D01*
X70380952Y-125304819D02*
X70285714Y-125304819D01*
X71285714Y-124733390D02*
X71190476Y-124685771D01*
X71190476Y-124685771D02*
X71142857Y-124638152D01*
X71142857Y-124638152D02*
X71095238Y-124542914D01*
X71095238Y-124542914D02*
X71095238Y-124495295D01*
X71095238Y-124495295D02*
X71142857Y-124400057D01*
X71142857Y-124400057D02*
X71190476Y-124352438D01*
X71190476Y-124352438D02*
X71285714Y-124304819D01*
X71285714Y-124304819D02*
X71476190Y-124304819D01*
X71476190Y-124304819D02*
X71571428Y-124352438D01*
X71571428Y-124352438D02*
X71619047Y-124400057D01*
X71619047Y-124400057D02*
X71666666Y-124495295D01*
X71666666Y-124495295D02*
X71666666Y-124542914D01*
X71666666Y-124542914D02*
X71619047Y-124638152D01*
X71619047Y-124638152D02*
X71571428Y-124685771D01*
X71571428Y-124685771D02*
X71476190Y-124733390D01*
X71476190Y-124733390D02*
X71285714Y-124733390D01*
X71285714Y-124733390D02*
X71190476Y-124781009D01*
X71190476Y-124781009D02*
X71142857Y-124828628D01*
X71142857Y-124828628D02*
X71095238Y-124923866D01*
X71095238Y-124923866D02*
X71095238Y-125114342D01*
X71095238Y-125114342D02*
X71142857Y-125209580D01*
X71142857Y-125209580D02*
X71190476Y-125257200D01*
X71190476Y-125257200D02*
X71285714Y-125304819D01*
X71285714Y-125304819D02*
X71476190Y-125304819D01*
X71476190Y-125304819D02*
X71571428Y-125257200D01*
X71571428Y-125257200D02*
X71619047Y-125209580D01*
X71619047Y-125209580D02*
X71666666Y-125114342D01*
X71666666Y-125114342D02*
X71666666Y-124923866D01*
X71666666Y-124923866D02*
X71619047Y-124828628D01*
X71619047Y-124828628D02*
X71571428Y-124781009D01*
X71571428Y-124781009D02*
X71476190Y-124733390D01*
X95474819Y-185809523D02*
X96189104Y-185809523D01*
X96189104Y-185809523D02*
X96331961Y-185857142D01*
X96331961Y-185857142D02*
X96427200Y-185952380D01*
X96427200Y-185952380D02*
X96474819Y-186095237D01*
X96474819Y-186095237D02*
X96474819Y-186190475D01*
X96474819Y-184809523D02*
X96474819Y-185380951D01*
X96474819Y-185095237D02*
X95474819Y-185095237D01*
X95474819Y-185095237D02*
X95617676Y-185190475D01*
X95617676Y-185190475D02*
X95712914Y-185285713D01*
X95712914Y-185285713D02*
X95760533Y-185380951D01*
X96474819Y-183857142D02*
X96474819Y-184428570D01*
X96474819Y-184142856D02*
X95474819Y-184142856D01*
X95474819Y-184142856D02*
X95617676Y-184238094D01*
X95617676Y-184238094D02*
X95712914Y-184333332D01*
X95712914Y-184333332D02*
X95760533Y-184428570D01*
X147190476Y-191054819D02*
X147190476Y-191769104D01*
X147190476Y-191769104D02*
X147142857Y-191911961D01*
X147142857Y-191911961D02*
X147047619Y-192007200D01*
X147047619Y-192007200D02*
X146904762Y-192054819D01*
X146904762Y-192054819D02*
X146809524Y-192054819D01*
X148190476Y-192054819D02*
X147619048Y-192054819D01*
X147904762Y-192054819D02*
X147904762Y-191054819D01*
X147904762Y-191054819D02*
X147809524Y-191197676D01*
X147809524Y-191197676D02*
X147714286Y-191292914D01*
X147714286Y-191292914D02*
X147619048Y-191340533D01*
X148666667Y-192054819D02*
X148857143Y-192054819D01*
X148857143Y-192054819D02*
X148952381Y-192007200D01*
X148952381Y-192007200D02*
X149000000Y-191959580D01*
X149000000Y-191959580D02*
X149095238Y-191816723D01*
X149095238Y-191816723D02*
X149142857Y-191626247D01*
X149142857Y-191626247D02*
X149142857Y-191245295D01*
X149142857Y-191245295D02*
X149095238Y-191150057D01*
X149095238Y-191150057D02*
X149047619Y-191102438D01*
X149047619Y-191102438D02*
X148952381Y-191054819D01*
X148952381Y-191054819D02*
X148761905Y-191054819D01*
X148761905Y-191054819D02*
X148666667Y-191102438D01*
X148666667Y-191102438D02*
X148619048Y-191150057D01*
X148619048Y-191150057D02*
X148571429Y-191245295D01*
X148571429Y-191245295D02*
X148571429Y-191483390D01*
X148571429Y-191483390D02*
X148619048Y-191578628D01*
X148619048Y-191578628D02*
X148666667Y-191626247D01*
X148666667Y-191626247D02*
X148761905Y-191673866D01*
X148761905Y-191673866D02*
X148952381Y-191673866D01*
X148952381Y-191673866D02*
X149047619Y-191626247D01*
X149047619Y-191626247D02*
X149095238Y-191578628D01*
X149095238Y-191578628D02*
X149142857Y-191483390D01*
X178666666Y-118304819D02*
X178666666Y-119019104D01*
X178666666Y-119019104D02*
X178619047Y-119161961D01*
X178619047Y-119161961D02*
X178523809Y-119257200D01*
X178523809Y-119257200D02*
X178380952Y-119304819D01*
X178380952Y-119304819D02*
X178285714Y-119304819D01*
X179571428Y-118304819D02*
X179380952Y-118304819D01*
X179380952Y-118304819D02*
X179285714Y-118352438D01*
X179285714Y-118352438D02*
X179238095Y-118400057D01*
X179238095Y-118400057D02*
X179142857Y-118542914D01*
X179142857Y-118542914D02*
X179095238Y-118733390D01*
X179095238Y-118733390D02*
X179095238Y-119114342D01*
X179095238Y-119114342D02*
X179142857Y-119209580D01*
X179142857Y-119209580D02*
X179190476Y-119257200D01*
X179190476Y-119257200D02*
X179285714Y-119304819D01*
X179285714Y-119304819D02*
X179476190Y-119304819D01*
X179476190Y-119304819D02*
X179571428Y-119257200D01*
X179571428Y-119257200D02*
X179619047Y-119209580D01*
X179619047Y-119209580D02*
X179666666Y-119114342D01*
X179666666Y-119114342D02*
X179666666Y-118876247D01*
X179666666Y-118876247D02*
X179619047Y-118781009D01*
X179619047Y-118781009D02*
X179571428Y-118733390D01*
X179571428Y-118733390D02*
X179476190Y-118685771D01*
X179476190Y-118685771D02*
X179285714Y-118685771D01*
X179285714Y-118685771D02*
X179190476Y-118733390D01*
X179190476Y-118733390D02*
X179142857Y-118781009D01*
X179142857Y-118781009D02*
X179095238Y-118876247D01*
X193666666Y-118304819D02*
X193666666Y-119019104D01*
X193666666Y-119019104D02*
X193619047Y-119161961D01*
X193619047Y-119161961D02*
X193523809Y-119257200D01*
X193523809Y-119257200D02*
X193380952Y-119304819D01*
X193380952Y-119304819D02*
X193285714Y-119304819D01*
X194619047Y-118304819D02*
X194142857Y-118304819D01*
X194142857Y-118304819D02*
X194095238Y-118781009D01*
X194095238Y-118781009D02*
X194142857Y-118733390D01*
X194142857Y-118733390D02*
X194238095Y-118685771D01*
X194238095Y-118685771D02*
X194476190Y-118685771D01*
X194476190Y-118685771D02*
X194571428Y-118733390D01*
X194571428Y-118733390D02*
X194619047Y-118781009D01*
X194619047Y-118781009D02*
X194666666Y-118876247D01*
X194666666Y-118876247D02*
X194666666Y-119114342D01*
X194666666Y-119114342D02*
X194619047Y-119209580D01*
X194619047Y-119209580D02*
X194571428Y-119257200D01*
X194571428Y-119257200D02*
X194476190Y-119304819D01*
X194476190Y-119304819D02*
X194238095Y-119304819D01*
X194238095Y-119304819D02*
X194142857Y-119257200D01*
X194142857Y-119257200D02*
X194095238Y-119209580D01*
X55666666Y-118304819D02*
X55666666Y-119019104D01*
X55666666Y-119019104D02*
X55619047Y-119161961D01*
X55619047Y-119161961D02*
X55523809Y-119257200D01*
X55523809Y-119257200D02*
X55380952Y-119304819D01*
X55380952Y-119304819D02*
X55285714Y-119304819D01*
X56047619Y-118304819D02*
X56666666Y-118304819D01*
X56666666Y-118304819D02*
X56333333Y-118685771D01*
X56333333Y-118685771D02*
X56476190Y-118685771D01*
X56476190Y-118685771D02*
X56571428Y-118733390D01*
X56571428Y-118733390D02*
X56619047Y-118781009D01*
X56619047Y-118781009D02*
X56666666Y-118876247D01*
X56666666Y-118876247D02*
X56666666Y-119114342D01*
X56666666Y-119114342D02*
X56619047Y-119209580D01*
X56619047Y-119209580D02*
X56571428Y-119257200D01*
X56571428Y-119257200D02*
X56476190Y-119304819D01*
X56476190Y-119304819D02*
X56190476Y-119304819D01*
X56190476Y-119304819D02*
X56095238Y-119257200D01*
X56095238Y-119257200D02*
X56047619Y-119209580D01*
X70666666Y-118304819D02*
X70666666Y-119019104D01*
X70666666Y-119019104D02*
X70619047Y-119161961D01*
X70619047Y-119161961D02*
X70523809Y-119257200D01*
X70523809Y-119257200D02*
X70380952Y-119304819D01*
X70380952Y-119304819D02*
X70285714Y-119304819D01*
X71571428Y-118638152D02*
X71571428Y-119304819D01*
X71333333Y-118257200D02*
X71095238Y-118971485D01*
X71095238Y-118971485D02*
X71714285Y-118971485D01*
X178190476Y-124304819D02*
X178190476Y-125019104D01*
X178190476Y-125019104D02*
X178142857Y-125161961D01*
X178142857Y-125161961D02*
X178047619Y-125257200D01*
X178047619Y-125257200D02*
X177904762Y-125304819D01*
X177904762Y-125304819D02*
X177809524Y-125304819D01*
X179190476Y-125304819D02*
X178619048Y-125304819D01*
X178904762Y-125304819D02*
X178904762Y-124304819D01*
X178904762Y-124304819D02*
X178809524Y-124447676D01*
X178809524Y-124447676D02*
X178714286Y-124542914D01*
X178714286Y-124542914D02*
X178619048Y-124590533D01*
X179809524Y-124304819D02*
X179904762Y-124304819D01*
X179904762Y-124304819D02*
X180000000Y-124352438D01*
X180000000Y-124352438D02*
X180047619Y-124400057D01*
X180047619Y-124400057D02*
X180095238Y-124495295D01*
X180095238Y-124495295D02*
X180142857Y-124685771D01*
X180142857Y-124685771D02*
X180142857Y-124923866D01*
X180142857Y-124923866D02*
X180095238Y-125114342D01*
X180095238Y-125114342D02*
X180047619Y-125209580D01*
X180047619Y-125209580D02*
X180000000Y-125257200D01*
X180000000Y-125257200D02*
X179904762Y-125304819D01*
X179904762Y-125304819D02*
X179809524Y-125304819D01*
X179809524Y-125304819D02*
X179714286Y-125257200D01*
X179714286Y-125257200D02*
X179666667Y-125209580D01*
X179666667Y-125209580D02*
X179619048Y-125114342D01*
X179619048Y-125114342D02*
X179571429Y-124923866D01*
X179571429Y-124923866D02*
X179571429Y-124685771D01*
X179571429Y-124685771D02*
X179619048Y-124495295D01*
X179619048Y-124495295D02*
X179666667Y-124400057D01*
X179666667Y-124400057D02*
X179714286Y-124352438D01*
X179714286Y-124352438D02*
X179809524Y-124304819D01*
X101666666Y-203954819D02*
X101666666Y-204669104D01*
X101666666Y-204669104D02*
X101619047Y-204811961D01*
X101619047Y-204811961D02*
X101523809Y-204907200D01*
X101523809Y-204907200D02*
X101380952Y-204954819D01*
X101380952Y-204954819D02*
X101285714Y-204954819D01*
X102666666Y-204954819D02*
X102095238Y-204954819D01*
X102380952Y-204954819D02*
X102380952Y-203954819D01*
X102380952Y-203954819D02*
X102285714Y-204097676D01*
X102285714Y-204097676D02*
X102190476Y-204192914D01*
X102190476Y-204192914D02*
X102095238Y-204240533D01*
X55666666Y-124304819D02*
X55666666Y-125019104D01*
X55666666Y-125019104D02*
X55619047Y-125161961D01*
X55619047Y-125161961D02*
X55523809Y-125257200D01*
X55523809Y-125257200D02*
X55380952Y-125304819D01*
X55380952Y-125304819D02*
X55285714Y-125304819D01*
X56047619Y-124304819D02*
X56714285Y-124304819D01*
X56714285Y-124304819D02*
X56285714Y-125304819D01*
D13*
X120900000Y-169750000D02*
X120900000Y-171000000D01*
X121190000Y-170040000D02*
X121190000Y-176010000D01*
X121190000Y-176010000D02*
X128810000Y-176010000D01*
X121200000Y-170050000D02*
X121200000Y-170800000D01*
X121200000Y-170800000D02*
X123000000Y-170800000D01*
X121200000Y-172300000D02*
X121950000Y-172300000D01*
X121950000Y-172300000D02*
X121950000Y-175250000D01*
X121950000Y-175250000D02*
X125000000Y-175250000D01*
X122150000Y-169750000D02*
X120900000Y-169750000D01*
X123000000Y-170050000D02*
X121200000Y-170050000D01*
X123000000Y-170800000D02*
X123000000Y-170050000D01*
X124500000Y-170050000D02*
X124500000Y-170800000D01*
X124500000Y-170800000D02*
X125500000Y-170800000D01*
X125500000Y-170050000D02*
X124500000Y-170050000D01*
X125500000Y-170800000D02*
X125500000Y-170050000D01*
X127000000Y-170050000D02*
X127000000Y-170800000D01*
X127000000Y-170800000D02*
X128800000Y-170800000D01*
X128050000Y-172300000D02*
X128050000Y-175250000D01*
X128050000Y-175250000D02*
X125000000Y-175250000D01*
X128800000Y-170050000D02*
X127000000Y-170050000D01*
X128800000Y-170800000D02*
X128800000Y-170050000D01*
X128800000Y-172300000D02*
X128050000Y-172300000D01*
X128810000Y-170040000D02*
X121190000Y-170040000D01*
X128810000Y-176010000D02*
X128810000Y-170040000D01*
X107215000Y-167110000D02*
X107215000Y-166060000D01*
X109715000Y-167110000D02*
X107215000Y-167110000D01*
X107215000Y-166060000D02*
X106225000Y-166060000D01*
X111685000Y-165940000D02*
X111685000Y-164060000D01*
X107215000Y-162890000D02*
X107215000Y-163940000D01*
X109715000Y-162890000D02*
X107215000Y-162890000D01*
X119790000Y-163590000D02*
X119790000Y-166410000D01*
X119790000Y-163590000D02*
X121490000Y-162290000D01*
X119790000Y-166410000D02*
X121490000Y-167710000D01*
X121490000Y-162290000D02*
X130210000Y-162290000D01*
X121490000Y-167710000D02*
X130210000Y-167710000D01*
X130210000Y-162290000D02*
X130210000Y-167710000D01*
X108710000Y-170460436D02*
X108710000Y-174814564D01*
X105290000Y-170460436D02*
X105290000Y-174814564D01*
X145260000Y-167110000D02*
X144560000Y-167110000D01*
X145260000Y-164890000D02*
X133740000Y-164890000D01*
X144560000Y-169160000D02*
X144560000Y-167110000D01*
X144560000Y-169160000D02*
X144030000Y-169160000D01*
X144030000Y-175160000D02*
X144030000Y-169160000D01*
X144030000Y-175160000D02*
X135000000Y-175160000D01*
X134970000Y-175160000D02*
X134970000Y-169160000D01*
X134970000Y-169160000D02*
X134440000Y-169160000D01*
X134440000Y-169160000D02*
X134440000Y-167110000D01*
X134440000Y-167110000D02*
X133740000Y-167110000D01*
X145150000Y-167109999D02*
G75*
G03*
X145321729Y-164903366I-1J1109999D01*
G01*
X133850000Y-164890000D02*
G75*
G03*
X133850000Y-167110000I0J-1110000D01*
G01*
X98215000Y-187610000D02*
X98215000Y-186560000D01*
X100715000Y-187610000D02*
X98215000Y-187610000D01*
X98215000Y-186560000D02*
X97225000Y-186560000D01*
X102685000Y-186440000D02*
X102685000Y-183560000D01*
X98215000Y-182390000D02*
X98215000Y-183440000D01*
X100715000Y-182390000D02*
X98215000Y-182390000D01*
%LPC*%
D14*
X123750000Y-172500000D03*
D15*
X126250000Y-172500000D03*
D16*
X107000000Y-165500000D03*
X107000000Y-164500000D03*
D17*
X110875000Y-166800000D03*
X110875000Y-163200000D03*
D18*
X148000000Y-201000000D03*
X102000000Y-195000000D03*
D19*
X194000000Y-128000000D03*
D20*
X122000000Y-98000000D03*
X122000000Y-128000000D03*
X187400000Y-91191300D03*
X152012016Y-167075539D03*
D21*
X122500000Y-165000000D03*
D22*
X127500000Y-165000000D03*
D23*
X107000000Y-169675000D03*
X107000000Y-175600000D03*
D24*
X80000000Y-34750000D03*
D20*
X97987984Y-167075539D03*
X62600000Y-159200000D03*
D25*
X145000000Y-166000000D03*
X134000000Y-166000000D03*
D26*
X142000000Y-161000000D03*
D27*
X137000000Y-161000000D03*
D20*
X128000000Y-128000000D03*
X67750000Y-44500000D03*
D19*
X71000000Y-128000000D03*
D20*
X62600000Y-91191300D03*
D16*
X98000000Y-186000000D03*
X98000000Y-185000000D03*
X98000000Y-184000000D03*
D17*
X101875000Y-187300000D03*
X101875000Y-182700000D03*
D20*
X141000000Y-86610723D03*
D24*
X170000000Y-34750000D03*
D18*
X148000000Y-195000000D03*
D20*
X80600000Y-180600000D03*
X109000000Y-66610723D03*
X80600000Y-69600000D03*
X109000000Y-86610723D03*
X35600000Y-82800000D03*
D19*
X179000000Y-122000000D03*
D20*
X169400000Y-180600000D03*
D19*
X194000000Y-122000000D03*
D20*
X214400000Y-82800000D03*
X169400000Y-69600000D03*
D19*
X56000000Y-122000000D03*
D20*
X214400000Y-167600000D03*
X35600000Y-167600000D03*
D19*
X71000000Y-122000000D03*
D20*
X67800000Y-205800000D03*
X182250000Y-44500000D03*
X141000000Y-66610723D03*
X187400000Y-159200000D03*
X128000000Y-122000000D03*
X128000000Y-152000000D03*
D19*
X179000000Y-128000000D03*
D20*
X122000000Y-122000000D03*
X128000000Y-98000000D03*
D18*
X102000000Y-201000000D03*
D20*
X122000000Y-152000000D03*
X182200000Y-205800000D03*
D19*
X56000000Y-128000000D03*
%LPD*%
M02*
