0
SECTION
2
HEADER
9
$INSUNITS
70
4
9
$ACADVER
1
AC1014
9
$HANDSEED
5
FFFF
0
ENDSEC
0
SECTION
2
TABLES
0
TABLE
2
VPORT
5
8
100
AcDbSymbolTable
0
ENDTAB
0
TABLE
2
LTYPE
5
5
100
AcDbSymbolTable
0
LTYPE
5
14
100
AcDbSymbolTableRecord
100
AcDbLinetypeTableRecord
2
BYBLOCK
70
0
0
LTYPE
5
15
100
AcDbSymbolTableRecord
100
AcDbLinetypeTableRecord
2
BYLAYER
70
0
0
ENDTAB
0
TABLE
2
LAYER
5
2
100
AcDbSymbolTable
70
2
0
LAYER
5
50
100
AcDbSymbolTableRecord
100
AcDbLayerTableRecord
2
0
70
0
6
CONTINUOUS
0
ENDTAB
0
TABLE
2
STYLE
5
3
100
AcDbSymbolTable
70
1
0
STYLE
5
11
100
AcDbSymbolTableRecord
100
AcDbTextStyleTableRecord
2
STANDARD
70
0
0
ENDTAB
0
TABLE
2
VIEW
5
6
100
AcDbSymbolTable
70
0
0
ENDTAB
0
TABLE
2
UCS
5
7
100
AcDbSymbolTable
70
0
0
ENDTAB
0
TABLE
2
APPID
5
9
100
AcDbSymbolTable
70
2
0
APPID
5
12
100
AcDbSymbolTableRecord
100
AcDbRegAppTableRecord
2
ACAD
70
0
0
ENDTAB
0
TABLE
2
DIMSTYLE
5
A
100
AcDbSymbolTable
70
1
0
ENDTAB
0
TABLE
2
BLOCK_RECORD
5
1
100
AcDbSymbolTable
70
1
0
BLOCK_RECORD
5
1F
100
AcDbSymbolTableRecord
100
AcDbBlockTableRecord
2
*MODEL_SPACE
0
BLOCK_RECORD
5
1B
100
AcDbSymbolTableRecord
100
AcDbBlockTableRecord
2
*PAPER_SPACE
0
ENDTAB
0
ENDSEC
0
SECTION
2
BLOCKS
0
BLOCK
5
20
100
AcDbEntity
100
AcDbBlockBegin
2
*MODEL_SPACE
0
ENDBLK
5
21
100
AcDbEntity
100
AcDbBlockEnd
0
BLOCK
5
1C
100
AcDbEntity
100
AcDbBlockBegin
2
*PAPER_SPACE
0
ENDBLK
5
1D
100
AcDbEntity
100
AcDbBlockEnd
0
ENDSEC
0
SECTION
2
ENTITIES
0
CIRCLE
5
100
100
AcDbEntity
8
0
100
AcDbCircle
10
-45.380186920123037
20
-70.686905683405712
30
0
40
1.6000000000000014
210
0
220
0
230
1
0
CIRCLE
5
101
100
AcDbEntity
8
0
100
AcDbCircle
10
45.380186920123009
20
-70.686905683405755
30
0
40
1.6000000000000014
210
0
220
0
230
1
0
CIRCLE
5
102
100
AcDbEntity
8
0
100
AcDbCircle
10
-45.380186920123045
20
70.68690568340574
30
0
40
1.6000000000000014
210
0
220
0
230
1
0
CIRCLE
5
103
100
AcDbEntity
8
0
100
AcDbCircle
10
45.380186920123037
20
70.686905683405726
30
0
40
1.6000000000000014
210
0
220
0
230
1
0
LWPOLYLINE
5
104
100
AcDbEntity
8
0
100
AcDbPolyline
90
32
70
1
43
0.0
10
41.172633010396467
20
-73.388107285793993
42
0.99999999999999989
10
49.587740829849551
20
-67.985704081017474
10
41.145930269432895
20
-54.836232750463232
42
-0.35228494941880789
10
42.480889790473725
20
-42.371853896302738
42
0.41346102656733091
10
42.480889790473633
20
42.371853896302738
42
-0.35228494941880795
10
41.145930269432867
20
54.836232750463097
10
49.587740829849551
20
67.985704081017516
42
0.99999999999999989
10
41.172633010396524
20
73.388107285793922
10
32.730822449979811
20
60.238635955239758
42
-0.35228494941880811
10
20.842041111879979
20
56.263747851442517
42
0.17926517506137182
10
-20.842041111880079
20
56.263747851442474
42
-0.35228494941881028
10
-32.730822449979897
20
60.238635955239708
10
-41.172633010396595
20
73.388107285794007
42
0.99999999999999989
10
-49.587740829849494
20
67.985704081017474
10
-41.145930269432881
20
54.836232750463274
42
-0.35228494941880811
10
-42.480889790473675
20
42.37185389630276
42
0.40210575188591169
10
-44.098428071485351
20
-40.68573019652014
42
-0.34137748594699519
10
-43.565743167715951
20
-46.777409315285141
10
-50.729510613505148
20
-57.936123902990147
42
0.41421356244753371
10
-49.976334459455316
20
-61.390501658684578
10
-47.12361290827819
20
-63.221916344325606
42
-0.4142135624475291
10
-46.972977677637473
20
-63.912791894688297
10
-49.587740829849565
20
-67.985704081017431
42
0.99999999999999989
10
-41.172633010396567
20
-73.388107285793978
10
-38.557869853559986
20
-69.315195092261646
42
-0.41421356213545218
10
-37.866994300493836
20
-69.164559860829868
10
-35.014132833345499
20
-70.996064368683335
42
0.41419408306199923
10
-31.559895009137634
20
-70.242798398112626
10
-24.396127560300851
20
-59.084083813763456
42
-0.34137748596705275
10
-18.635606446684044
20
-57.032571153370839
42
0.16923326418552515
10
20.842041111880036
20
-56.263747851442517
42
-0.35228494941881022
10
32.730822449979819
20
-60.238635955239729
0
CIRCLE
5
105
100
AcDbEntity
8
0
100
AcDbCircle
10
-48.625733659071983
20
-59.286724703908156
30
0
40
1.25
210
0
220
0
230
1
0
CIRCLE
5
106
100
AcDbEntity
8
0
100
AcDbCircle
10
-22.685988643978476
20
-51.792698512872164
30
0
40
1.25
210
0
220
0
230
1
0
CIRCLE
5
107
100
AcDbEntity
8
0
100
AcDbCircle
10
-33.663671956084663
20
-68.892197602000621
30
0
40
1.25
210
0
220
0
230
1
0
CIRCLE
5
108
100
AcDbEntity
8
0
100
AcDbCircle
10
-37.648050346966059
20
-42.187225614779507
30
0
40
1.25
210
0
220
0
230
1
0
LWPOLYLINE
5
109
100
AcDbEntity
8
0
100
AcDbPolyline
90
4
70
1
43
0.0
10
-33.759019036770994
20
-66.264173832282466
10
-25.115173909128458
20
-52.800001321157588
10
-22.590641563292692
20
-54.420722282590496
10
-31.234486690935086
20
-67.884894793715446
0
ARC
5
110
100
AcDbEntity
8
0
100
AcDbCircle
10
6.499999999999984
20
24.000000000000021
30
0
40
3.9999999999999947
210
0
220
-0
230
1
100
AcDbArc
50
90
51
180
0
LINE
5
111
100
AcDbEntity
8
0
100
AcDbLine
10
6.499999999999984
20
28.000000000000014
30
0
11
39.499999999999993
21
28.000000000000036
31
0
0
ARC
5
112
100
AcDbEntity
8
0
100
AcDbCircle
10
39.499999999999986
20
24.000000000000036
30
0
40
3.9999999999999991
210
0
220
-0
230
1
100
AcDbArc
50
0
51
89.999999999999901
0
LINE
5
113
100
AcDbEntity
8
0
100
AcDbLine
10
43.499999999999986
20
24.000000000000039
30
0
11
43.500000000000021
21
-23.999999999999968
31
0
0
ARC
5
114
100
AcDbEntity
8
0
100
AcDbCircle
10
39.500000000000036
20
-23.999999999999986
30
0
40
3.9999999999999858
210
0
220
0
230
1
100
AcDbArc
50
-90.000000000000199
51
0
0
LINE
5
115
100
AcDbEntity
8
0
100
AcDbLine
10
39.500000000000021
20
-27.999999999999972
30
0
11
6.5000000000000169
21
-27.999999999999979
31
0
0
ARC
5
116
100
AcDbEntity
8
0
100
AcDbCircle
10
6.5000000000000169
20
-23.999999999999982
30
0
40
4.0000000000000027
210
0
220
0
230
1
100
AcDbArc
50
180
51
270
0
LINE
5
117
100
AcDbEntity
8
0
100
AcDbLine
10
2.5000000000000142
20
-23.999999999999989
30
0
11
2.4999999999999822
21
24.000000000000014
31
0
0
ARC
5
118
100
AcDbEntity
8
0
100
AcDbCircle
10
-6.4999999999999991
20
-23.999999999999989
30
0
40
3.9999999999999991
210
0
220
0
230
1
100
AcDbArc
50
270
51
360
0
LINE
5
119
100
AcDbEntity
8
0
100
AcDbLine
10
-6.4999999999999991
20
-27.999999999999989
30
0
11
-39.5
21
-28
31
0
0
ARC
5
120
100
AcDbEntity
8
0
100
AcDbCircle
10
-39.500000000000014
20
-24.000000000000004
30
0
40
3.9999999999999902
210
0
220
0
230
1
100
AcDbArc
50
180
51
270.00000000000023
0
LINE
5
121
100
AcDbEntity
8
0
100
AcDbLine
10
-43.500000000000007
20
-23.999999999999993
30
0
11
-43.500000000000007
21
24.000000000000014
31
0
0
ARC
5
122
100
AcDbEntity
8
0
100
AcDbCircle
10
-39.500000000000007
20
24.000000000000014
30
0
40
3.9999999999999991
210
0
220
-0
230
1
100
AcDbArc
50
90
51
180
0
LINE
5
123
100
AcDbEntity
8
0
100
AcDbLine
10
-39.500000000000007
20
28.000000000000011
30
0
11
-6.4999999999999947
21
28.000000000000014
31
0
0
ARC
5
124
100
AcDbEntity
8
0
100
AcDbCircle
10
-6.5000000000000018
20
24.000000000000007
30
0
40
4.0000000000000027
210
0
220
-0
230
1
100
AcDbArc
50
0
51
89.999999999999901
0
LINE
5
125
100
AcDbEntity
8
0
100
AcDbLine
10
-2.4999999999999991
20
24.000000000000014
30
0
11
-2.5
21
-23.999999999999993
31
0
0
LWPOLYLINE
5
126
100
AcDbEntity
8
0
100
AcDbPolyline
90
4
70
1
43
0.0
10
-48.721080739758101
20
-56.658700934190087
10
-40.077235612115516
20
-43.194528423065243
10
-37.552703266279693
20
-44.815249384498117
10
-46.196548393922157
20
-58.279421895623031
0
CIRCLE
5
127
100
AcDbEntity
8
0
100
AcDbCircle
10
27.012016023882751
20
42.075539097265292
30
0
40
1.599999999999997
210
0
220
0
230
1
0
CIRCLE
5
128
100
AcDbEntity
8
0
100
AcDbCircle
10
-27.012016023882751
20
-42.075539097265292
30
0
40
1.6000000000000014
210
0
220
0
230
1
0
CIRCLE
5
129
100
AcDbEntity
8
0
100
AcDbCircle
10
-27.012016023882751
20
42.075539097265292
30
0
40
1.6000000000000014
210
0
220
0
230
1
0
CIRCLE
5
130
100
AcDbEntity
8
0
100
AcDbCircle
10
27.012016023882751
20
-42.075539097265292
30
0
40
1.6000000000000014
210
0
220
0
230
1
0
ENDSEC
0
SECTION
2
OBJECTS
0
DICTIONARY
5
C
100
AcDbDictionary
3
ACAD_GROUP
350
D
3
ACAD_MLINESTYLE
350
17
0
DICTIONARY
5
D
100
AcDbDictionary
0
DICTIONARY
5
1A
330
C
100
AcDbDictionary
0
DICTIONARY
5
17
100
AcDbDictionary
0
ENDSEC
0
EOF
