M48
; DRILL file {KiCad 7.0.9} date 
; FORMAT={-:-/ absolute / metric / decimal}
; #@! TF.CreationDate,2023-12-19T12:29:51+08:00
; #@! TF.GenerationSoftware,Kicad,Pcbnew,7.0.9
; #@! TF.FileFunction,Plated,1,2,PTH
FMAT,2
METRIC
; #@! TA.AperFunction,Plated,PTH,ViaDrill
T1C0.400
; #@! TA.AperFunction,Plated,PTH,ComponentDrill
T2C0.800
; #@! TA.AperFunction,Plated,PTH,ComponentDrill
T3C0.950
; #@! TA.AperFunction,Plated,PTH,ComponentDrill
T4C1.000
; #@! TA.AperFunction,Plated,PTH,ComponentDrill
T5C1.100
; #@! TA.AperFunction,Plated,PTH,ComponentDrill
T6C2.300
; #@! TA.AperFunction,Plated,PTH,ComponentDrill
T7C3.200
%
G90
G05
T1
X49.0Y-93.25
X49.0Y-96.25
X49.0Y-103.5
X49.0Y-105.0
X49.0Y-107.5
X49.0Y-109.0
X49.75Y-131.5
X49.75Y-132.5
X49.75Y-133.5
X50.75Y-131.5
X50.75Y-132.5
X50.75Y-133.5
X52.0Y-93.25
X52.0Y-96.25
X57.75Y-86.5
X57.75Y-87.5
X58.75Y-86.5
X58.75Y-87.5
X59.437Y-97.363
X63.75Y-88.75
X66.2Y-107.4
X67.2Y-107.4
X68.0Y-100.75
X69.0Y-105.5
X70.5Y-108.0
X73.0Y-108.0
X74.6Y-102.6
X75.5Y-164.25
X75.8Y-109.0
X79.25Y-156.0
X80.0Y-109.2
X81.0Y-100.0
X81.0Y-102.0
X81.0Y-109.2
X81.5Y-104.0
X81.5Y-115.0
X81.5Y-153.5
X81.5Y-154.75
X82.0Y-89.25
X83.476Y-109.275
X84.0Y-151.75
X85.25Y-159.944
X85.25Y-161.0
X85.4Y-106.6
X87.25Y-105.474
X88.0Y-101.0
X88.5Y-107.75
X88.5Y-153.5
X88.5Y-154.75
X90.25Y-106.0
X90.25Y-108.25
X91.0Y-105.0
X91.75Y-109.25
X94.0Y-143.0
X94.0Y-144.0
X94.0Y-145.0
X94.0Y-146.0
X94.0Y-147.0
X94.75Y-98.775
X95.0Y-143.0
X95.0Y-144.0
X95.0Y-145.0
X95.0Y-146.0
X95.0Y-147.0
X99.016Y-161.484
X99.039Y-158.969
X104.0Y-98.25
X104.0Y-100.75
X104.0Y-103.25
X104.0Y-108.75
X104.0Y-153.0
X104.0Y-154.0
X104.5Y-115.25
X104.5Y-116.25
X104.5Y-126.25
X104.5Y-127.25
X104.5Y-128.25
X104.5Y-129.25
X104.5Y-130.25
X105.0Y-98.25
X105.0Y-100.75
X105.0Y-103.25
X105.0Y-108.75
X105.0Y-153.0
X105.0Y-154.0
X105.5Y-110.75
X105.5Y-116.25
X105.5Y-126.25
X105.5Y-127.25
X105.5Y-128.25
X105.5Y-129.25
X105.5Y-130.25
X106.0Y-98.25
X106.0Y-100.75
X106.0Y-103.25
X106.0Y-108.75
X106.0Y-153.0
X106.0Y-154.0
X107.75Y-115.25
X108.75Y-115.25
X108.75Y-116.25
X109.0Y-108.75
X110.0Y-107.75
X110.0Y-108.75
X113.9Y-109.9
X115.724Y-110.5
X116.25Y-122.25
X116.25Y-123.25
X116.25Y-150.5
X116.5Y-99.0
X117.0Y-141.0
X117.25Y-122.25
X117.25Y-123.25
X117.25Y-137.0
X117.75Y-151.25
X117.75Y-153.5
X118.25Y-122.25
X118.25Y-123.25
X118.75Y-151.25
X118.75Y-153.5
X119.75Y-151.25
X119.75Y-153.5
X120.5Y-98.5
X120.5Y-143.0
X121.25Y-141.0
X121.674Y-103.325
X122.6Y-106.0
X123.25Y-153.5
X123.525Y-90.025
X124.25Y-153.5
X125.0Y-106.0
X125.25Y-145.0
X125.25Y-151.25
X126.0Y-106.0
X126.25Y-151.25
X126.5Y-137.0
X126.5Y-141.0
X126.5Y-147.0
X127.5Y-137.0
X127.5Y-141.0
X128.5Y-137.0
X128.5Y-141.0
X131.0Y-103.5
X131.0Y-106.5
X132.0Y-103.5
X132.0Y-106.5
X133.0Y-103.5
X133.0Y-106.5
X138.25Y-155.0
X138.293Y-153.775
X141.5Y-144.25
X141.5Y-145.25
X141.5Y-146.25
X143.363Y-97.887
X145.5Y-144.25
X145.5Y-145.25
X145.5Y-146.25
X146.0Y-136.5
X146.262Y-97.738
X147.0Y-133.5
X147.0Y-136.5
X148.0Y-133.5
X148.0Y-136.5
X149.0Y-127.099
X153.0Y-97.25
X156.65Y-105.0
X156.69Y-102.5
X159.0Y-80.5
X159.75Y-71.25
X159.75Y-73.75
X160.0Y-79.0
X163.0Y-84.0
X163.0Y-85.0
X164.0Y-84.0
X164.0Y-85.0
X165.0Y-84.0
X165.0Y-85.0
X168.75Y-96.25
T2
X149.0Y-116.75
X149.0Y-119.29
T3
X149.0Y-100.0
X149.0Y-102.5
X149.0Y-105.0
X149.0Y-107.5
X149.0Y-110.0
T4
X50.475Y-127.71
X53.015Y-127.71
X55.555Y-127.71
X61.4Y-102.445
X61.4Y-104.985
X61.4Y-107.525
X87.38Y-157.25
X87.38Y-159.79
X87.38Y-162.33
X87.38Y-164.87
X87.38Y-167.41
X87.38Y-169.95
X87.38Y-172.49
X102.62Y-157.25
X102.62Y-159.79
X102.62Y-162.33
X102.62Y-164.87
X102.62Y-167.41
X102.62Y-169.95
X102.62Y-172.49
X105.0Y-133.75
X105.0Y-136.25
X107.38Y-157.25
X107.38Y-159.79
X107.38Y-162.33
X107.38Y-164.87
X107.38Y-167.41
X107.38Y-169.95
X107.38Y-172.49
X122.62Y-157.25
X122.62Y-159.79
X122.62Y-162.33
X122.62Y-164.87
X122.62Y-167.41
X122.62Y-169.95
X122.62Y-172.49
X143.414Y-149.491
X144.765Y-151.594
X154.46Y-128.0
X157.0Y-128.0
X159.54Y-128.0
T5
X39.38Y-88.49
X39.38Y-91.03
X39.38Y-93.57
X39.38Y-96.11
X39.38Y-98.65
X39.38Y-101.19
X39.38Y-103.73
X39.38Y-106.27
X39.38Y-108.81
X39.38Y-111.35
X39.38Y-113.89
X39.38Y-116.43
X39.38Y-118.97
X39.38Y-121.51
X52.08Y-91.03
X54.62Y-88.49
X54.62Y-91.03
X54.62Y-93.57
X54.62Y-96.11
X54.62Y-98.65
X54.62Y-101.19
X54.62Y-103.73
X54.62Y-106.27
X54.62Y-108.81
X54.62Y-111.35
X54.62Y-113.89
X54.62Y-116.43
X54.62Y-118.97
X54.62Y-121.51
X155.38Y-88.49
X155.38Y-91.03
X155.38Y-93.57
X155.38Y-96.11
X155.38Y-98.65
X155.38Y-101.19
X155.38Y-103.73
X155.38Y-106.27
X155.38Y-108.81
X155.38Y-111.35
X155.38Y-113.89
X155.38Y-116.43
X155.38Y-118.97
X155.38Y-121.51
X168.08Y-91.03
X170.62Y-88.49
X170.62Y-91.03
X170.62Y-93.57
X170.62Y-96.11
X170.62Y-98.65
X170.62Y-101.19
X170.62Y-103.73
X170.62Y-106.27
X170.62Y-108.81
X170.62Y-111.35
X170.62Y-113.89
X170.62Y-116.43
X170.62Y-118.97
X170.62Y-121.51
T6
X50.0Y-70.2
X50.0Y-75.0
X50.0Y-79.8
T7
X67.0Y-79.0
X67.0Y-131.0
X77.988Y-147.076
X84.14Y-84.14
X84.14Y-125.86
X125.86Y-84.14
X125.86Y-125.86
X132.012Y-147.076
X143.0Y-79.0
X143.0Y-131.0
T0
M30
