%TF.GenerationSoftware,KiCad,Pcbnew,7.0.9*%
%TF.CreationDate,2023-12-19T12:29:39+08:00*%
%TF.ProjectId,layer3,6c617965-7233-42e6-9b69-6361645f7063,rev?*%
%TF.SameCoordinates,Original*%
%TF.FileFunction,Soldermask,Bot*%
%TF.FilePolarity,Negative*%
%FSLAX46Y46*%
G04 Gerber Fmt 4.6, Leading zero omitted, Abs format (unit mm)*
G04 Created by KiCad (PCBNEW 7.0.9) date 2023-12-19 12:29:39*
%MOMM*%
%LPD*%
G01*
G04 APERTURE LIST*
G04 Aperture macros list*
%AMRoundRect*
0 Rectangle with rounded corners*
0 $1 Rounding radius*
0 $2 $3 $4 $5 $6 $7 $8 $9 X,Y pos of 4 corners*
0 Add a 4 corners polygon primitive as box body*
4,1,4,$2,$3,$4,$5,$6,$7,$8,$9,$2,$3,0*
0 Add four circle primitives for the rounded corners*
1,1,$1+$1,$2,$3*
1,1,$1+$1,$4,$5*
1,1,$1+$1,$6,$7*
1,1,$1+$1,$8,$9*
0 Add four rect primitives between the rounded corners*
20,1,$1+$1,$2,$3,$4,$5,0*
20,1,$1+$1,$4,$5,$6,$7,0*
20,1,$1+$1,$6,$7,$8,$9,0*
20,1,$1+$1,$8,$9,$2,$3,0*%
%AMHorizOval*
0 Thick line with rounded ends*
0 $1 width*
0 $2 $3 position (X,Y) of the first rounded end (center of the circle)*
0 $4 $5 position (X,Y) of the second rounded end (center of the circle)*
0 Add line between two ends*
20,1,$1,$2,$3,$4,$5,0*
0 Add two circle primitives to create the rounded ends*
1,1,$1,$2,$3*
1,1,$1,$4,$5*%
G04 Aperture macros list end*
%ADD10RoundRect,0.150000X-0.600000X-0.600000X0.600000X-0.600000X0.600000X0.600000X-0.600000X0.600000X0*%
%ADD11RoundRect,0.150000X0.600000X0.600000X-0.600000X0.600000X-0.600000X-0.600000X0.600000X-0.600000X0*%
%ADD12R,1.700000X1.700000*%
%ADD13O,1.700000X1.700000*%
%ADD14C,6.400000*%
%ADD15C,3.703200*%
%ADD16C,1.600000*%
%ADD17RoundRect,0.250000X-0.955277X0.099726X-0.306989X-0.910087X0.955277X-0.099726X0.306989X0.910087X0*%
%ADD18HorizOval,1.700000X-0.126227X-0.081036X0.126227X0.081036X0*%
%ADD19RoundRect,0.250000X-0.725000X0.600000X-0.725000X-0.600000X0.725000X-0.600000X0.725000X0.600000X0*%
%ADD20O,1.950000X1.700000*%
%ADD21C,1.400000*%
%ADD22RoundRect,0.150000X0.625000X-0.150000X0.625000X0.150000X-0.625000X0.150000X-0.625000X-0.150000X0*%
%ADD23RoundRect,0.250000X0.650000X-0.350000X0.650000X0.350000X-0.650000X0.350000X-0.650000X-0.350000X0*%
%ADD24RoundRect,0.150000X-0.625000X0.150000X-0.625000X-0.150000X0.625000X-0.150000X0.625000X0.150000X0*%
%ADD25RoundRect,0.250000X-0.650000X0.350000X-0.650000X-0.350000X0.650000X-0.350000X0.650000X0.350000X0*%
%ADD26RoundRect,0.250000X0.750000X-0.600000X0.750000X0.600000X-0.750000X0.600000X-0.750000X-0.600000X0*%
%ADD27O,2.000000X1.700000*%
G04 APERTURE END LIST*
D10*
%TO.C,U4*%
X122620000Y-172490000D03*
X122620000Y-169950000D03*
X122620000Y-167410000D03*
X122620000Y-164870000D03*
X122620000Y-162330000D03*
X122620000Y-159790000D03*
X122620000Y-157250000D03*
D11*
X107380000Y-157250000D03*
X107380000Y-159790000D03*
X107380000Y-162330000D03*
X107380000Y-164870000D03*
X107380000Y-167410000D03*
X107380000Y-169950000D03*
X107380000Y-172490000D03*
%TD*%
D12*
%TO.C,DRIBBLERJ1*%
X61400000Y-107525000D03*
D13*
X61400000Y-104985000D03*
X61400000Y-102445000D03*
%TD*%
D14*
%TO.C,H9*%
X77987984Y-147075539D03*
%TD*%
%TO.C,H3*%
X84140350Y-84140350D03*
%TD*%
D10*
%TO.C,U3*%
X102620000Y-172490000D03*
X102620000Y-169950000D03*
X102620000Y-167410000D03*
X102620000Y-164870000D03*
X102620000Y-162330000D03*
X102620000Y-159790000D03*
X102620000Y-157250000D03*
D11*
X87380000Y-157250000D03*
X87380000Y-159790000D03*
X87380000Y-162330000D03*
X87380000Y-164870000D03*
X87380000Y-167410000D03*
X87380000Y-169950000D03*
X87380000Y-172490000D03*
%TD*%
D14*
%TO.C,H7*%
X67000000Y-131000000D03*
%TD*%
%TO.C,H6*%
X125859650Y-125859650D03*
%TD*%
%TO.C,H8*%
X143000000Y-131000000D03*
%TD*%
%TO.C,H4*%
X125859650Y-84140350D03*
%TD*%
%TO.C,H5*%
X84140350Y-125859650D03*
%TD*%
D15*
%TO.C,SW1*%
X50000000Y-70200000D03*
X50000000Y-75000000D03*
X50000000Y-79800000D03*
%TD*%
D16*
%TO.C,U2*%
X155380000Y-91030000D03*
X155380000Y-93570000D03*
X155380000Y-96110000D03*
X155380000Y-98650000D03*
X170620000Y-93570000D03*
X155380000Y-101190000D03*
X155380000Y-103730000D03*
X155380000Y-106270000D03*
X155380000Y-108810000D03*
X155380000Y-111350000D03*
X155380000Y-113890000D03*
X155380000Y-116430000D03*
X155380000Y-118970000D03*
X155380000Y-121510000D03*
X170620000Y-121510000D03*
X170620000Y-118970000D03*
X170620000Y-116430000D03*
X170620000Y-113890000D03*
X170620000Y-111350000D03*
X170620000Y-108810000D03*
X170620000Y-106270000D03*
X170620000Y-103730000D03*
X170620000Y-101190000D03*
X170620000Y-98650000D03*
X170620000Y-96110000D03*
X155380000Y-88490000D03*
X170620000Y-91030000D03*
X170620000Y-88490000D03*
X168080000Y-91030000D03*
%TD*%
D12*
%TO.C,BUCK1*%
X50475000Y-127710000D03*
D13*
X53015000Y-127710000D03*
X55555000Y-127710000D03*
%TD*%
D12*
%TO.C,BUCK2*%
X154460000Y-128000000D03*
D13*
X157000000Y-128000000D03*
X159540000Y-128000000D03*
%TD*%
D14*
%TO.C,H10*%
X132012016Y-147075539D03*
%TD*%
%TO.C,H1*%
X67000000Y-79000000D03*
%TD*%
D17*
%TO.C,J12*%
X143414402Y-149490658D03*
D18*
X144765003Y-151594435D03*
%TD*%
D19*
%TO.C,J5*%
X149000000Y-100000000D03*
D20*
X149000000Y-102500000D03*
X149000000Y-105000000D03*
X149000000Y-107500000D03*
X149000000Y-110000000D03*
%TD*%
D21*
%TO.C,TP1*%
X149000000Y-116750000D03*
X149000000Y-119290000D03*
%TD*%
D14*
%TO.C,H2*%
X143000000Y-79000000D03*
%TD*%
D16*
%TO.C,U1*%
X39380000Y-91030000D03*
X39380000Y-93570000D03*
X39380000Y-96110000D03*
X39380000Y-98650000D03*
X54620000Y-93570000D03*
X39380000Y-101190000D03*
X39380000Y-103730000D03*
X39380000Y-106270000D03*
X39380000Y-108810000D03*
X39380000Y-111350000D03*
X39380000Y-113890000D03*
X39380000Y-116430000D03*
X39380000Y-118970000D03*
X39380000Y-121510000D03*
X54620000Y-121510000D03*
X54620000Y-118970000D03*
X54620000Y-116430000D03*
X54620000Y-113890000D03*
X54620000Y-111350000D03*
X54620000Y-108810000D03*
X54620000Y-106270000D03*
X54620000Y-103730000D03*
X54620000Y-101190000D03*
X54620000Y-98650000D03*
X54620000Y-96110000D03*
X39380000Y-88490000D03*
X54620000Y-91030000D03*
X54620000Y-88490000D03*
X52080000Y-91030000D03*
%TD*%
D22*
%TO.C,J11*%
X123000000Y-147000000D03*
X123000000Y-146000000D03*
X123000000Y-145000000D03*
X123000000Y-144000000D03*
X123000000Y-143000000D03*
D23*
X119125000Y-148300000D03*
X119125000Y-141700000D03*
%TD*%
D24*
%TO.C,J10*%
X87000000Y-144500000D03*
X87000000Y-145500000D03*
D25*
X90875000Y-143200000D03*
X90875000Y-146800000D03*
%TD*%
D26*
%TO.C,J9*%
X105000000Y-136250000D03*
D27*
X105000000Y-133750000D03*
%TD*%
M02*
