%TF.GenerationSoftware,KiCad,Pcbnew,7.0.9*%
%TF.CreationDate,2023-12-19T12:29:38+08:00*%
%TF.ProjectId,layer3,6c617965-7233-42e6-9b69-6361645f7063,rev?*%
%TF.SameCoordinates,Original*%
%TF.FileFunction,Paste,Top*%
%TF.FilePolarity,Positive*%
%FSLAX46Y46*%
G04 Gerber Fmt 4.6, Leading zero omitted, Abs format (unit mm)*
G04 Created by KiCad (PCBNEW 7.0.9) date 2023-12-19 12:29:38*
%MOMM*%
%LPD*%
G01*
G04 APERTURE LIST*
G04 Aperture macros list*
%AMRoundRect*
0 Rectangle with rounded corners*
0 $1 Rounding radius*
0 $2 $3 $4 $5 $6 $7 $8 $9 X,Y pos of 4 corners*
0 Add a 4 corners polygon primitive as box body*
4,1,4,$2,$3,$4,$5,$6,$7,$8,$9,$2,$3,0*
0 Add four circle primitives for the rounded corners*
1,1,$1+$1,$2,$3*
1,1,$1+$1,$4,$5*
1,1,$1+$1,$6,$7*
1,1,$1+$1,$8,$9*
0 Add four rect primitives between the rounded corners*
20,1,$1+$1,$2,$3,$4,$5,0*
20,1,$1+$1,$4,$5,$6,$7,0*
20,1,$1+$1,$6,$7,$8,$9,0*
20,1,$1+$1,$8,$9,$2,$3,0*%
G04 Aperture macros list end*
%ADD10RoundRect,0.200000X-0.200000X-0.275000X0.200000X-0.275000X0.200000X0.275000X-0.200000X0.275000X0*%
%ADD11RoundRect,0.150000X-0.512500X-0.150000X0.512500X-0.150000X0.512500X0.150000X-0.512500X0.150000X0*%
%ADD12RoundRect,0.200000X0.200000X0.275000X-0.200000X0.275000X-0.200000X-0.275000X0.200000X-0.275000X0*%
%ADD13RoundRect,0.150000X0.444908X-0.463877X0.606980X-0.211424X-0.444908X0.463877X-0.606980X0.211424X0*%
%ADD14RoundRect,0.250000X0.357898X-0.645685X0.736066X-0.056627X-0.357898X0.645685X-0.736066X0.056627X0*%
%ADD15RoundRect,0.150000X0.150000X0.625000X-0.150000X0.625000X-0.150000X-0.625000X0.150000X-0.625000X0*%
%ADD16RoundRect,0.250000X0.350000X0.650000X-0.350000X0.650000X-0.350000X-0.650000X0.350000X-0.650000X0*%
%ADD17RoundRect,0.150000X-0.670094X-0.251942X-0.508021X-0.504395X0.670094X0.251942X0.508021X0.504395X0*%
%ADD18RoundRect,0.250000X-1.102797X-0.410899X-0.832677X-0.831654X1.102797X0.410899X0.832677X0.831654X0*%
%ADD19RoundRect,0.150000X-0.150000X-0.625000X0.150000X-0.625000X0.150000X0.625000X-0.150000X0.625000X0*%
%ADD20RoundRect,0.250000X-0.350000X-0.650000X0.350000X-0.650000X0.350000X0.650000X-0.350000X0.650000X0*%
%ADD21RoundRect,0.150000X0.508021X-0.504395X0.670094X-0.251942X-0.508021X0.504395X-0.670094X0.251942X0*%
%ADD22RoundRect,0.250000X0.832677X-0.831654X1.102797X-0.410899X-0.832677X0.831654X-1.102797X0.410899X0*%
%ADD23RoundRect,0.200000X0.275000X-0.200000X0.275000X0.200000X-0.275000X0.200000X-0.275000X-0.200000X0*%
%ADD24R,2.440000X1.120000*%
G04 APERTURE END LIST*
D10*
%TO.C,R3*%
X150000000Y-73730000D03*
X151650000Y-73730000D03*
%TD*%
D11*
%TO.C,U5*%
X92862500Y-104050000D03*
X92862500Y-105000000D03*
X92862500Y-105950000D03*
X95137500Y-105950000D03*
X95137500Y-105000000D03*
X95137500Y-104050000D03*
%TD*%
D12*
%TO.C,R6*%
X99900000Y-162330000D03*
X98250000Y-162330000D03*
%TD*%
D10*
%TO.C,R4*%
X150000000Y-71190000D03*
X151650000Y-71190000D03*
%TD*%
D13*
%TO.C,J8*%
X77890239Y-162468743D03*
X78430480Y-161627232D03*
X78970720Y-160785721D03*
X79510960Y-159944210D03*
D14*
X75063112Y-162198600D03*
X78088458Y-157486139D03*
%TD*%
D15*
%TO.C,J1*%
X87000000Y-102000000D03*
X86000000Y-102000000D03*
X85000000Y-102000000D03*
X84000000Y-102000000D03*
X83000000Y-102000000D03*
D16*
X88300000Y-98125000D03*
X81700000Y-98125000D03*
%TD*%
D17*
%TO.C,J7*%
X134085205Y-153914405D03*
X134760505Y-154966294D03*
X135435806Y-156018182D03*
X136111106Y-157070071D03*
X136786407Y-158121959D03*
X137461707Y-159173848D03*
D18*
X135904822Y-150547805D03*
X141280213Y-158920838D03*
%TD*%
D19*
%TO.C,J3*%
X83000000Y-108000000D03*
X84000000Y-108000000D03*
X85000000Y-108000000D03*
X86000000Y-108000000D03*
X87000000Y-108000000D03*
D20*
X81700000Y-111875000D03*
X88300000Y-111875000D03*
%TD*%
D12*
%TO.C,R7*%
X99900000Y-159790000D03*
X98250000Y-159790000D03*
%TD*%
D10*
%TO.C,R2*%
X150000000Y-76270000D03*
X151650000Y-76270000D03*
%TD*%
D21*
%TO.C,J6*%
X72538293Y-159173848D03*
X73213593Y-158121959D03*
X73888894Y-157070071D03*
X74564194Y-156018182D03*
X75239495Y-154966294D03*
X75914795Y-153914405D03*
D22*
X68719787Y-158920838D03*
X74095178Y-150547805D03*
%TD*%
D11*
%TO.C,U6*%
X113862500Y-104050000D03*
X113862500Y-105000000D03*
X113862500Y-105950000D03*
X116137500Y-105950000D03*
X116137500Y-105000000D03*
X116137500Y-104050000D03*
%TD*%
D23*
%TO.C,R5*%
X78400000Y-108250000D03*
X78400000Y-106600000D03*
%TD*%
D10*
%TO.C,R1*%
X150000000Y-78810000D03*
X151650000Y-78810000D03*
%TD*%
D24*
%TO.C,SW2*%
X165805000Y-78810000D03*
X165805000Y-76270000D03*
X165805000Y-73730000D03*
X165805000Y-71190000D03*
X157195000Y-71190000D03*
X157195000Y-73730000D03*
X157195000Y-76270000D03*
X157195000Y-78810000D03*
%TD*%
D19*
%TO.C,J4*%
X123000000Y-108000000D03*
X124000000Y-108000000D03*
X125000000Y-108000000D03*
X126000000Y-108000000D03*
X127000000Y-108000000D03*
D20*
X121700000Y-111875000D03*
X128300000Y-111875000D03*
%TD*%
D15*
%TO.C,J2*%
X127000000Y-102000000D03*
X126000000Y-102000000D03*
X125000000Y-102000000D03*
X124000000Y-102000000D03*
X123000000Y-102000000D03*
D16*
X128300000Y-98125000D03*
X121700000Y-98125000D03*
%TD*%
M02*
