0
SECTION
2
HEADER
9
$INSUNITS
70
4
9
$ACADVER
1
AC1014
9
$HANDSEED
5
FFFF
0
ENDSEC
0
SECTION
2
TABLES
0
TABLE
2
VPORT
5
8
100
AcDbSymbolTable
0
ENDTAB
0
TABLE
2
LTYPE
5
5
100
AcDbSymbolTable
0
LTYPE
5
14
100
AcDbSymbolTableRecord
100
AcDbLinetypeTableRecord
2
BYBLOCK
70
0
0
LTYPE
5
15
100
AcDbSymbolTableRecord
100
AcDbLinetypeTableRecord
2
BYLAYER
70
0
0
ENDTAB
0
TABLE
2
LAYER
5
2
100
AcDbSymbolTable
70
2
0
LAYER
5
50
100
AcDbSymbolTableRecord
100
AcDbLayerTableRecord
2
0
70
0
6
CONTINUOUS
0
ENDTAB
0
TABLE
2
STYLE
5
3
100
AcDbSymbolTable
70
1
0
STYLE
5
11
100
AcDbSymbolTableRecord
100
AcDbTextStyleTableRecord
2
STANDARD
70
0
0
ENDTAB
0
TABLE
2
VIEW
5
6
100
AcDbSymbolTable
70
0
0
ENDTAB
0
TABLE
2
UCS
5
7
100
AcDbSymbolTable
70
0
0
ENDTAB
0
TABLE
2
APPID
5
9
100
AcDbSymbolTable
70
2
0
APPID
5
12
100
AcDbSymbolTableRecord
100
AcDbRegAppTableRecord
2
ACAD
70
0
0
ENDTAB
0
TABLE
2
DIMSTYLE
5
A
100
AcDbSymbolTable
70
1
0
ENDTAB
0
TABLE
2
BLOCK_RECORD
5
1
100
AcDbSymbolTable
70
1
0
BLOCK_RECORD
5
1F
100
AcDbSymbolTableRecord
100
AcDbBlockTableRecord
2
*MODEL_SPACE
0
BLOCK_RECORD
5
1B
100
AcDbSymbolTableRecord
100
AcDbBlockTableRecord
2
*PAPER_SPACE
0
ENDTAB
0
ENDSEC
0
SECTION
2
BLOCKS
0
BLOCK
5
20
100
AcDbEntity
100
AcDbBlockBegin
2
*MODEL_SPACE
0
ENDBLK
5
21
100
AcDbEntity
100
AcDbBlockEnd
0
BLOCK
5
1C
100
AcDbEntity
100
AcDbBlockBegin
2
*PAPER_SPACE
0
ENDBLK
5
1D
100
AcDbEntity
100
AcDbBlockEnd
0
ENDSEC
0
SECTION
2
ENTITIES
0
LWPOLYLINE
5
100
100
AcDbEntity
8
0
100
AcDbPolyline
90
44
70
1
43
0.0
10
55.654660881479984
20
46.699805418946461
10
66.484989317088491
20
33.792722596834778
42
0.41421356237309459
10
69.302653422699507
20
33.546208929969907
10
87.654338575655814
20
48.945101173297083
42
-0.47962077366658956
10
92.243573723667367
20
48.032521344255237
42
-0.24475971586152589
10
92.243573723667382
20
-48.032521344255215
42
-0.47962077366658956
10
87.654338575655814
20
-48.94510117329709
10
69.302653422699493
20
-33.546208929969907
42
0.41421356237309087
10
66.484989317088505
20
-33.792722596834778
10
55.654660881479984
20
-46.699805418946461
10
44.824332445871477
20
-59.606888241058144
42
0.41421356237309598
10
45.070846112736362
20
-62.424552346669216
10
63.422531265692655
20
-77.823444589996342
42
-0.47962077366659089
10
63.320727895146916
20
-82.501426768442968
42
-0.33951873179911302
10
-63.320727895146895
20
-82.501426768442983
42
-0.47962077366659089
10
-63.422531265692655
20
-77.823444589996342
10
-45.070846112736362
20
-62.424552346669216
42
0.41421356237309598
10
-44.824332445871477
20
-59.606888241058144
10
-55.654660881479984
20
-46.699805418946461
10
-66.484989317088505
20
-33.792722596834778
42
0.41421356237309087
10
-69.302653422699493
20
-33.546208929969907
10
-87.654338575655814
20
-48.945101173297083
42
-0.47962077366658956
10
-92.243573723667367
20
-48.032521344255237
42
-0.24475971586152589
10
-92.243573723667382
20
48.032521344255215
42
-0.47962077366658956
10
-87.654338575655814
20
48.94510117329709
10
-69.302653422699507
20
33.546208929969907
42
0.41421356237309459
10
-66.484989317088491
20
33.792722596834778
10
-55.654660881479984
20
46.699805418946461
10
-44.824332445871477
20
59.606888241058144
42
0.41421356237309598
10
-45.070846112736362
20
62.424552346669216
10
-63.422531265692655
20
77.823444589996342
42
-0.47962077366659089
10
-63.320727895146902
20
82.501426768443025
42
-0.05375962492428598
10
-44.277227722772984
20
94.103810258595288
42
-0.5497414414740005
10
-40.000000000000696
20
91.389277270366577
10
-40.000000000000675
20
70.389277270366875
42
0.41421356237309531
10
-35.000000000000682
20
65.38927727036689
10
34.999999999999318
20
65.38927727036689
42
0.41421356237309503
10
39.999999999999318
20
70.38927727036689
10
39.999999999999318
20
91.389277270367174
42
-0.54974144147399628
10
44.277227722771606
20
94.103810258595914
42
-0.053759624924289658
10
63.320727895146895
20
82.501426768442983
42
-0.47962077366659089
10
63.422531265692655
20
77.823444589996342
10
45.070846112736362
20
62.424552346669216
42
0.41421356237309598
10
44.824332445871477
20
59.606888241058144
0
CIRCLE
5
101
100
AcDbEntity
8
0
100
AcDbCircle
10
44.357501016511449
20
55.496064793552613
30
0
40
1.6000000000000045
210
0
220
0
230
1
0
CIRCLE
5
102
100
AcDbEntity
8
0
100
AcDbCircle
10
62.355554087734703
20
34.046820386221043
30
0
40
1.6000000000000045
210
0
220
0
230
1
0
CIRCLE
5
103
100
AcDbEntity
8
0
100
AcDbCircle
10
44.357501016511449
20
-55.496064793552613
30
0
40
1.6000000000000045
210
0
220
0
230
1
0
CIRCLE
5
104
100
AcDbEntity
8
0
100
AcDbCircle
10
62.355554087734703
20
-34.046820386221043
30
0
40
1.6000000000000045
210
0
220
0
230
1
0
CIRCLE
5
105
100
AcDbEntity
8
0
100
AcDbCircle
10
-44.357501016511449
20
55.496064793552613
30
0
40
1.6000000000000045
210
0
220
0
230
1
0
CIRCLE
5
106
100
AcDbEntity
8
0
100
AcDbCircle
10
-62.355554087734703
20
34.046820386221043
30
0
40
1.6000000000000045
210
0
220
0
230
1
0
CIRCLE
5
107
100
AcDbEntity
8
0
100
AcDbCircle
10
-62.355554087734703
20
-34.046820386221043
30
0
40
1.6000000000000045
210
0
220
0
230
1
0
CIRCLE
5
108
100
AcDbEntity
8
0
100
AcDbCircle
10
-44.357501016511449
20
-55.496064793552613
30
0
40
1.6000000000000045
210
0
220
0
230
1
0
LINE
5
109
100
AcDbEntity
8
0
100
AcDbLine
10
44.357501016511449
20
55.496064793552613
30
0
11
46.655634345868378
21
57.424427622612228
31
0
0
LWPOLYLINE
5
110
100
AcDbEntity
8
0
100
AcDbPolyline
90
8
70
1
43
0.0
10
-84.179696255024865
20
35.586271768924441
10
-86.595743919208928
20
37.613576472848031
42
0.50775909207926395
10
-89.731452173078466
20
36.84109785159135
42
0.19729455012990482
10
-89.731452173078466
20
-36.841097851591343
42
0.50775909207926451
10
-86.595743919208971
20
-37.613576472848052
10
-84.179696255024908
20
-35.58627176892449
42
0.32359422371668789
10
-83.607330790171915
20
-33.313874559149866
42
-0.19189209584366107
10
-83.607330790171929
20
33.313874559149831
42
0.32359422371668761
0
LWPOLYLINE
5
111
100
AcDbEntity
8
0
100
AcDbPolyline
90
8
70
1
43
0.0
10
49.663287190077092
20
-76.721326275527417
10
52.07933485426112
20
-78.748630979450965
42
-0.50775909207926373
10
51.86310194299098
20
-81.970840283913944
42
-0.28978520668907232
10
-51.86310194299093
20
-81.970840283913944
42
-0.50775909207926684
10
-52.079334854261091
20
-78.748630979450922
10
-49.663287190077043
20
-76.721326275527403
42
-0.32359422371668789
10
-47.326022580036515
20
-76.552253962596566
42
0.2841511985221451
10
47.326022580036536
20
-76.552253962596566
42
-0.32359422371668706
0
LWPOLYLINE
5
112
100
AcDbEntity
8
0
100
AcDbPolyline
90
8
70
1
43
0.0
10
-50.554202746823222
20
76.163485901270889
10
-52.961634756596936
20
78.183561212756388
42
-0.50429584507951419
10
-52.763976580112974
20
81.393874311604577
42
-0.0083048262256358533
10
-50.031578947369127
20
83.101390530081829
42
-0.58347656408041648
10
-47.000000000000682
20
81.387959797502816
10
-47.000000000000696
20
77.865268252282618
42
-0.25777105998756256
10
-47.934782608696338
20
76.172545029406933
42
0.00086341563192937783
10
-48.197570407288175
20
76.006540552997791
42
-0.32675265622166971
0
LWPOLYLINE
5
113
100
AcDbEntity
8
0
100
AcDbPolyline
90
8
70
1
43
0.0
10
83.607330790171929
20
-33.313874559149859
42
0.19189209584366107
10
83.607330790171886
20
33.313874559149824
42
-0.32359422371668761
10
84.179696255024865
20
35.586271768924441
10
86.595743919208957
20
37.613576472848024
42
-0.50775909207926395
10
89.731452173078466
20
36.841097851591371
42
-0.19729455012990482
10
89.731452173078509
20
-36.841097851591364
42
-0.50775909207926451
10
86.595743919208971
20
-37.613576472848052
10
84.179696255024908
20
-35.586271768924497
42
-0.32359422371668789
0
LWPOLYLINE
5
114
100
AcDbEntity
8
0
100
AcDbPolyline
90
8
70
1
43
0.0
10
47.000000000000682
20
77.865268252282618
10
47.000000000000711
20
81.387959797502816
42
-0.58347656408041648
10
50.031578947368914
20
83.101390530081972
42
-0.0083048262256358533
10
52.763976580112782
20
81.393874311604776
42
-0.50429584507951419
10
52.961634756596936
20
78.183561212756388
10
50.554202746823222
20
76.163485901270874
42
-0.32675265622166971
10
48.197570407288175
20
76.006540552997791
42
0.00086341563192937783
10
47.934782608696331
20
76.172545029406905
42
-0.25777105998756256
0
CIRCLE
5
115
100
AcDbEntity
8
0
100
AcDbCircle
10
-16.764000000000003
20
-52.118000000000009
30
0
40
1.6000000000000032
210
0
220
0
230
1
0
CIRCLE
5
116
100
AcDbEntity
8
0
100
AcDbCircle
10
16.764000000000003
20
-68.882000000000005
30
0
40
1.6000000000000039
210
0
220
0
230
1
0
CIRCLE
5
117
100
AcDbEntity
8
0
100
AcDbCircle
10
-89.380513380073907
20
42.363973578349089
30
0
40
1.5999999999999943
210
0
220
0
230
1
0
CIRCLE
5
118
100
AcDbEntity
8
0
100
AcDbCircle
10
-57.241132895746922
20
80.666195734297958
30
0
40
1.6000000000000014
210
0
220
0
230
1
0
CIRCLE
5
119
100
AcDbEntity
8
0
100
AcDbCircle
10
57.241132895746922
20
80.666195734297958
30
0
40
1.6000000000000014
210
0
220
0
230
1
0
CIRCLE
5
120
100
AcDbEntity
8
0
100
AcDbCircle
10
89.380513380073907
20
42.363973578349089
30
0
40
1.5999999999999943
210
0
220
0
230
1
0
CIRCLE
5
121
100
AcDbEntity
8
0
100
AcDbCircle
10
-89.380513380073907
20
-42.363973578349089
30
0
40
1.5999999999999943
210
0
220
0
230
1
0
CIRCLE
5
122
100
AcDbEntity
8
0
100
AcDbCircle
10
-57.241132895746922
20
-80.666195734297958
30
0
40
1.6000000000000014
210
0
220
0
230
1
0
CIRCLE
5
123
100
AcDbEntity
8
0
100
AcDbCircle
10
57.241132895746922
20
-80.666195734297958
30
0
40
1.6000000000000014
210
0
220
0
230
1
0
CIRCLE
5
124
100
AcDbEntity
8
0
100
AcDbCircle
10
89.380513380073907
20
-42.363973578349089
30
0
40
1.5999999999999943
210
0
220
0
230
1
0
CIRCLE
5
125
100
AcDbEntity
8
0
100
AcDbCircle
10
-15.000000223517418
20
60.38927727036689
30
0
40
1.6000000000000014
210
0
220
0
230
1
0
CIRCLE
5
126
100
AcDbEntity
8
0
100
AcDbCircle
10
15.000000223517418
20
60.38927727036689
30
0
40
1.6000000000000014
210
0
220
0
230
1
0
CIRCLE
5
127
100
AcDbEntity
8
0
100
AcDbCircle
10
-9.7500000000000071
20
8.9999999999999964
30
0
40
1.6000000000000003
210
0
220
0
230
1
0
CIRCLE
5
128
100
AcDbEntity
8
0
100
AcDbCircle
10
9.7499999999999947
20
8.9999999999999964
30
0
40
1.6000000000000003
210
0
220
0
230
1
0
CIRCLE
5
129
100
AcDbEntity
8
0
100
AcDbCircle
10
9.7499999999999947
20
-9.0000000000000036
30
0
40
1.6000000000000003
210
0
220
0
230
1
0
CIRCLE
5
130
100
AcDbEntity
8
0
100
AcDbCircle
10
-9.7500000000000071
20
-9.0000000000000036
30
0
40
1.6000000000000003
210
0
220
0
230
1
0
ENDSEC
0
SECTION
2
OBJECTS
0
DICTIONARY
5
C
100
AcDbDictionary
3
ACAD_GROUP
350
D
3
ACAD_MLINESTYLE
350
17
0
DICTIONARY
5
D
100
AcDbDictionary
0
DICTIONARY
5
1A
330
C
100
AcDbDictionary
0
DICTIONARY
5
17
100
AcDbDictionary
0
ENDSEC
0
EOF
