G04 #@! TF.GenerationSoftware,KiCad,Pcbnew,7.0.9*
G04 #@! TF.CreationDate,2023-12-19T12:33:16+08:00*
G04 #@! TF.ProjectId,vnh5019,766e6835-3031-4392-9e6b-696361645f70,rev?*
G04 #@! TF.SameCoordinates,Original*
G04 #@! TF.FileFunction,Legend,Bot*
G04 #@! TF.FilePolarity,Positive*
%FSLAX46Y46*%
G04 Gerber Fmt 4.6, Leading zero omitted, Abs format (unit mm)*
G04 Created by KiCad (PCBNEW 7.0.9) date 2023-12-19 12:33:16*
%MOMM*%
%LPD*%
G01*
G04 APERTURE LIST*
G04 Aperture macros list*
%AMRoundRect*
0 Rectangle with rounded corners*
0 $1 Rounding radius*
0 $2 $3 $4 $5 $6 $7 $8 $9 X,Y pos of 4 corners*
0 Add a 4 corners polygon primitive as box body*
4,1,4,$2,$3,$4,$5,$6,$7,$8,$9,$2,$3,0*
0 Add four circle primitives for the rounded corners*
1,1,$1+$1,$2,$3*
1,1,$1+$1,$4,$5*
1,1,$1+$1,$6,$7*
1,1,$1+$1,$8,$9*
0 Add four rect primitives between the rounded corners*
20,1,$1+$1,$2,$3,$4,$5,0*
20,1,$1+$1,$4,$5,$6,$7,0*
20,1,$1+$1,$6,$7,$8,$9,0*
20,1,$1+$1,$8,$9,$2,$3,0*%
G04 Aperture macros list end*
%ADD10C,0.300000*%
%ADD11C,0.150000*%
%ADD12C,0.120000*%
%ADD13C,6.400000*%
%ADD14R,1.600000X1.600000*%
%ADD15C,1.600000*%
%ADD16R,3.000000X3.000000*%
%ADD17C,3.000000*%
%ADD18RoundRect,0.218750X0.256250X-0.218750X0.256250X0.218750X-0.256250X0.218750X-0.256250X-0.218750X0*%
%ADD19RoundRect,0.250000X0.850000X0.350000X-0.850000X0.350000X-0.850000X-0.350000X0.850000X-0.350000X0*%
%ADD20RoundRect,0.249997X2.950003X2.650003X-2.950003X2.650003X-2.950003X-2.650003X2.950003X-2.650003X0*%
%ADD21RoundRect,0.150000X-0.625000X0.150000X-0.625000X-0.150000X0.625000X-0.150000X0.625000X0.150000X0*%
%ADD22RoundRect,0.250000X-0.650000X0.350000X-0.650000X-0.350000X0.650000X-0.350000X0.650000X0.350000X0*%
%ADD23RoundRect,0.225000X0.250000X-0.225000X0.250000X0.225000X-0.250000X0.225000X-0.250000X-0.225000X0*%
%ADD24R,10.000000X5.000000*%
%ADD25RoundRect,0.218750X-0.256250X0.218750X-0.256250X-0.218750X0.256250X-0.218750X0.256250X0.218750X0*%
%ADD26RoundRect,0.200000X0.275000X-0.200000X0.275000X0.200000X-0.275000X0.200000X-0.275000X-0.200000X0*%
G04 APERTURE END LIST*
D10*
X98306900Y-112357143D02*
X98306900Y-113500001D01*
X98878328Y-112928572D02*
X97735471Y-112928572D01*
X98878328Y-115000001D02*
X98878328Y-114142858D01*
X98878328Y-114571429D02*
X97378328Y-114571429D01*
X97378328Y-114571429D02*
X97592614Y-114428572D01*
X97592614Y-114428572D02*
X97735471Y-114285715D01*
X97735471Y-114285715D02*
X97806900Y-114142858D01*
X97521185Y-115571429D02*
X97449757Y-115642857D01*
X97449757Y-115642857D02*
X97378328Y-115785715D01*
X97378328Y-115785715D02*
X97378328Y-116142857D01*
X97378328Y-116142857D02*
X97449757Y-116285715D01*
X97449757Y-116285715D02*
X97521185Y-116357143D01*
X97521185Y-116357143D02*
X97664042Y-116428572D01*
X97664042Y-116428572D02*
X97806900Y-116428572D01*
X97806900Y-116428572D02*
X98021185Y-116357143D01*
X98021185Y-116357143D02*
X98878328Y-115500000D01*
X98878328Y-115500000D02*
X98878328Y-116428572D01*
X97378328Y-116857143D02*
X98878328Y-117357143D01*
X98878328Y-117357143D02*
X97378328Y-117857143D01*
X97449757Y-93857143D02*
X97378328Y-93714286D01*
X97378328Y-93714286D02*
X97378328Y-93500000D01*
X97378328Y-93500000D02*
X97449757Y-93285714D01*
X97449757Y-93285714D02*
X97592614Y-93142857D01*
X97592614Y-93142857D02*
X97735471Y-93071428D01*
X97735471Y-93071428D02*
X98021185Y-93000000D01*
X98021185Y-93000000D02*
X98235471Y-93000000D01*
X98235471Y-93000000D02*
X98521185Y-93071428D01*
X98521185Y-93071428D02*
X98664042Y-93142857D01*
X98664042Y-93142857D02*
X98806900Y-93285714D01*
X98806900Y-93285714D02*
X98878328Y-93500000D01*
X98878328Y-93500000D02*
X98878328Y-93642857D01*
X98878328Y-93642857D02*
X98806900Y-93857143D01*
X98806900Y-93857143D02*
X98735471Y-93928571D01*
X98735471Y-93928571D02*
X98235471Y-93928571D01*
X98235471Y-93928571D02*
X98235471Y-93642857D01*
X98878328Y-94571428D02*
X97378328Y-94571428D01*
X97378328Y-94571428D02*
X98878328Y-95428571D01*
X98878328Y-95428571D02*
X97378328Y-95428571D01*
X98878328Y-96142857D02*
X97378328Y-96142857D01*
X97378328Y-96142857D02*
X97378328Y-96500000D01*
X97378328Y-96500000D02*
X97449757Y-96714286D01*
X97449757Y-96714286D02*
X97592614Y-96857143D01*
X97592614Y-96857143D02*
X97735471Y-96928572D01*
X97735471Y-96928572D02*
X98021185Y-97000000D01*
X98021185Y-97000000D02*
X98235471Y-97000000D01*
X98235471Y-97000000D02*
X98521185Y-96928572D01*
X98521185Y-96928572D02*
X98664042Y-96857143D01*
X98664042Y-96857143D02*
X98806900Y-96714286D01*
X98806900Y-96714286D02*
X98878328Y-96500000D01*
X98878328Y-96500000D02*
X98878328Y-96142857D01*
D11*
X86454819Y-101661905D02*
X85454819Y-101661905D01*
X85454819Y-101661905D02*
X85454819Y-101900000D01*
X85454819Y-101900000D02*
X85502438Y-102042857D01*
X85502438Y-102042857D02*
X85597676Y-102138095D01*
X85597676Y-102138095D02*
X85692914Y-102185714D01*
X85692914Y-102185714D02*
X85883390Y-102233333D01*
X85883390Y-102233333D02*
X86026247Y-102233333D01*
X86026247Y-102233333D02*
X86216723Y-102185714D01*
X86216723Y-102185714D02*
X86311961Y-102138095D01*
X86311961Y-102138095D02*
X86407200Y-102042857D01*
X86407200Y-102042857D02*
X86454819Y-101900000D01*
X86454819Y-101900000D02*
X86454819Y-101661905D01*
X85550057Y-102614286D02*
X85502438Y-102661905D01*
X85502438Y-102661905D02*
X85454819Y-102757143D01*
X85454819Y-102757143D02*
X85454819Y-102995238D01*
X85454819Y-102995238D02*
X85502438Y-103090476D01*
X85502438Y-103090476D02*
X85550057Y-103138095D01*
X85550057Y-103138095D02*
X85645295Y-103185714D01*
X85645295Y-103185714D02*
X85740533Y-103185714D01*
X85740533Y-103185714D02*
X85883390Y-103138095D01*
X85883390Y-103138095D02*
X86454819Y-102566667D01*
X86454819Y-102566667D02*
X86454819Y-103185714D01*
X86454819Y-107559523D02*
X85978628Y-107226190D01*
X86454819Y-106988095D02*
X85454819Y-106988095D01*
X85454819Y-106988095D02*
X85454819Y-107369047D01*
X85454819Y-107369047D02*
X85502438Y-107464285D01*
X85502438Y-107464285D02*
X85550057Y-107511904D01*
X85550057Y-107511904D02*
X85645295Y-107559523D01*
X85645295Y-107559523D02*
X85788152Y-107559523D01*
X85788152Y-107559523D02*
X85883390Y-107511904D01*
X85883390Y-107511904D02*
X85931009Y-107464285D01*
X85931009Y-107464285D02*
X85978628Y-107369047D01*
X85978628Y-107369047D02*
X85978628Y-106988095D01*
X109470238Y-101050057D02*
X109565476Y-101002438D01*
X109565476Y-101002438D02*
X109660714Y-100907200D01*
X109660714Y-100907200D02*
X109803571Y-100764342D01*
X109803571Y-100764342D02*
X109898809Y-100716723D01*
X109898809Y-100716723D02*
X109994047Y-100716723D01*
X109946428Y-100954819D02*
X110041666Y-100907200D01*
X110041666Y-100907200D02*
X110136904Y-100811961D01*
X110136904Y-100811961D02*
X110184523Y-100621485D01*
X110184523Y-100621485D02*
X110184523Y-100288152D01*
X110184523Y-100288152D02*
X110136904Y-100097676D01*
X110136904Y-100097676D02*
X110041666Y-100002438D01*
X110041666Y-100002438D02*
X109946428Y-99954819D01*
X109946428Y-99954819D02*
X109755952Y-99954819D01*
X109755952Y-99954819D02*
X109660714Y-100002438D01*
X109660714Y-100002438D02*
X109565476Y-100097676D01*
X109565476Y-100097676D02*
X109517857Y-100288152D01*
X109517857Y-100288152D02*
X109517857Y-100621485D01*
X109517857Y-100621485D02*
X109565476Y-100811961D01*
X109565476Y-100811961D02*
X109660714Y-100907200D01*
X109660714Y-100907200D02*
X109755952Y-100954819D01*
X109755952Y-100954819D02*
X109946428Y-100954819D01*
X108565476Y-100954819D02*
X109136904Y-100954819D01*
X108851190Y-100954819D02*
X108851190Y-99954819D01*
X108851190Y-99954819D02*
X108946428Y-100097676D01*
X108946428Y-100097676D02*
X109041666Y-100192914D01*
X109041666Y-100192914D02*
X109136904Y-100240533D01*
X116224819Y-104416666D02*
X116939104Y-104416666D01*
X116939104Y-104416666D02*
X117081961Y-104369047D01*
X117081961Y-104369047D02*
X117177200Y-104273809D01*
X117177200Y-104273809D02*
X117224819Y-104130952D01*
X117224819Y-104130952D02*
X117224819Y-104035714D01*
X116320057Y-104845238D02*
X116272438Y-104892857D01*
X116272438Y-104892857D02*
X116224819Y-104988095D01*
X116224819Y-104988095D02*
X116224819Y-105226190D01*
X116224819Y-105226190D02*
X116272438Y-105321428D01*
X116272438Y-105321428D02*
X116320057Y-105369047D01*
X116320057Y-105369047D02*
X116415295Y-105416666D01*
X116415295Y-105416666D02*
X116510533Y-105416666D01*
X116510533Y-105416666D02*
X116653390Y-105369047D01*
X116653390Y-105369047D02*
X117224819Y-104797619D01*
X117224819Y-104797619D02*
X117224819Y-105416666D01*
X95289580Y-104833333D02*
X95337200Y-104785714D01*
X95337200Y-104785714D02*
X95384819Y-104642857D01*
X95384819Y-104642857D02*
X95384819Y-104547619D01*
X95384819Y-104547619D02*
X95337200Y-104404762D01*
X95337200Y-104404762D02*
X95241961Y-104309524D01*
X95241961Y-104309524D02*
X95146723Y-104261905D01*
X95146723Y-104261905D02*
X94956247Y-104214286D01*
X94956247Y-104214286D02*
X94813390Y-104214286D01*
X94813390Y-104214286D02*
X94622914Y-104261905D01*
X94622914Y-104261905D02*
X94527676Y-104309524D01*
X94527676Y-104309524D02*
X94432438Y-104404762D01*
X94432438Y-104404762D02*
X94384819Y-104547619D01*
X94384819Y-104547619D02*
X94384819Y-104642857D01*
X94384819Y-104642857D02*
X94432438Y-104785714D01*
X94432438Y-104785714D02*
X94480057Y-104833333D01*
X94480057Y-105214286D02*
X94432438Y-105261905D01*
X94432438Y-105261905D02*
X94384819Y-105357143D01*
X94384819Y-105357143D02*
X94384819Y-105595238D01*
X94384819Y-105595238D02*
X94432438Y-105690476D01*
X94432438Y-105690476D02*
X94480057Y-105738095D01*
X94480057Y-105738095D02*
X94575295Y-105785714D01*
X94575295Y-105785714D02*
X94670533Y-105785714D01*
X94670533Y-105785714D02*
X94813390Y-105738095D01*
X94813390Y-105738095D02*
X95384819Y-105166667D01*
X95384819Y-105166667D02*
X95384819Y-105785714D01*
X92204819Y-104476190D02*
X92204819Y-103904762D01*
X92204819Y-104190476D02*
X91204819Y-104190476D01*
X91204819Y-104190476D02*
X91347676Y-104095238D01*
X91347676Y-104095238D02*
X91442914Y-104000000D01*
X91442914Y-104000000D02*
X91490533Y-103904762D01*
X91538152Y-104904762D02*
X92538152Y-104904762D01*
X92061961Y-105380952D02*
X92157200Y-105428571D01*
X92157200Y-105428571D02*
X92204819Y-105523809D01*
X92061961Y-104904762D02*
X92157200Y-104952381D01*
X92157200Y-104952381D02*
X92204819Y-105047619D01*
X92204819Y-105047619D02*
X92204819Y-105238095D01*
X92204819Y-105238095D02*
X92157200Y-105333333D01*
X92157200Y-105333333D02*
X92061961Y-105380952D01*
X92061961Y-105380952D02*
X91538152Y-105380952D01*
X91538152Y-105809524D02*
X91538152Y-106190476D01*
X92204819Y-105952381D02*
X91347676Y-105952381D01*
X91347676Y-105952381D02*
X91252438Y-106000000D01*
X91252438Y-106000000D02*
X91204819Y-106095238D01*
X91204819Y-106095238D02*
X91204819Y-106190476D01*
X84454819Y-101661905D02*
X83454819Y-101661905D01*
X83454819Y-101661905D02*
X83454819Y-101900000D01*
X83454819Y-101900000D02*
X83502438Y-102042857D01*
X83502438Y-102042857D02*
X83597676Y-102138095D01*
X83597676Y-102138095D02*
X83692914Y-102185714D01*
X83692914Y-102185714D02*
X83883390Y-102233333D01*
X83883390Y-102233333D02*
X84026247Y-102233333D01*
X84026247Y-102233333D02*
X84216723Y-102185714D01*
X84216723Y-102185714D02*
X84311961Y-102138095D01*
X84311961Y-102138095D02*
X84407200Y-102042857D01*
X84407200Y-102042857D02*
X84454819Y-101900000D01*
X84454819Y-101900000D02*
X84454819Y-101661905D01*
X84454819Y-103185714D02*
X84454819Y-102614286D01*
X84454819Y-102900000D02*
X83454819Y-102900000D01*
X83454819Y-102900000D02*
X83597676Y-102804762D01*
X83597676Y-102804762D02*
X83692914Y-102709524D01*
X83692914Y-102709524D02*
X83740533Y-102614286D01*
X83502438Y-107511904D02*
X83454819Y-107416666D01*
X83454819Y-107416666D02*
X83454819Y-107273809D01*
X83454819Y-107273809D02*
X83502438Y-107130952D01*
X83502438Y-107130952D02*
X83597676Y-107035714D01*
X83597676Y-107035714D02*
X83692914Y-106988095D01*
X83692914Y-106988095D02*
X83883390Y-106940476D01*
X83883390Y-106940476D02*
X84026247Y-106940476D01*
X84026247Y-106940476D02*
X84216723Y-106988095D01*
X84216723Y-106988095D02*
X84311961Y-107035714D01*
X84311961Y-107035714D02*
X84407200Y-107130952D01*
X84407200Y-107130952D02*
X84454819Y-107273809D01*
X84454819Y-107273809D02*
X84454819Y-107369047D01*
X84454819Y-107369047D02*
X84407200Y-107511904D01*
X84407200Y-107511904D02*
X84359580Y-107559523D01*
X84359580Y-107559523D02*
X84026247Y-107559523D01*
X84026247Y-107559523D02*
X84026247Y-107369047D01*
X88454819Y-101357142D02*
X87978628Y-101023809D01*
X88454819Y-100785714D02*
X87454819Y-100785714D01*
X87454819Y-100785714D02*
X87454819Y-101166666D01*
X87454819Y-101166666D02*
X87502438Y-101261904D01*
X87502438Y-101261904D02*
X87550057Y-101309523D01*
X87550057Y-101309523D02*
X87645295Y-101357142D01*
X87645295Y-101357142D02*
X87788152Y-101357142D01*
X87788152Y-101357142D02*
X87883390Y-101309523D01*
X87883390Y-101309523D02*
X87931009Y-101261904D01*
X87931009Y-101261904D02*
X87978628Y-101166666D01*
X87978628Y-101166666D02*
X87978628Y-100785714D01*
X88454819Y-102309523D02*
X88454819Y-101738095D01*
X88454819Y-102023809D02*
X87454819Y-102023809D01*
X87454819Y-102023809D02*
X87597676Y-101928571D01*
X87597676Y-101928571D02*
X87692914Y-101833333D01*
X87692914Y-101833333D02*
X87740533Y-101738095D01*
X87454819Y-102928571D02*
X87454819Y-103023809D01*
X87454819Y-103023809D02*
X87502438Y-103119047D01*
X87502438Y-103119047D02*
X87550057Y-103166666D01*
X87550057Y-103166666D02*
X87645295Y-103214285D01*
X87645295Y-103214285D02*
X87835771Y-103261904D01*
X87835771Y-103261904D02*
X88073866Y-103261904D01*
X88073866Y-103261904D02*
X88264342Y-103214285D01*
X88264342Y-103214285D02*
X88359580Y-103166666D01*
X88359580Y-103166666D02*
X88407200Y-103119047D01*
X88407200Y-103119047D02*
X88454819Y-103023809D01*
X88454819Y-103023809D02*
X88454819Y-102928571D01*
X88454819Y-102928571D02*
X88407200Y-102833333D01*
X88407200Y-102833333D02*
X88359580Y-102785714D01*
X88359580Y-102785714D02*
X88264342Y-102738095D01*
X88264342Y-102738095D02*
X88073866Y-102690476D01*
X88073866Y-102690476D02*
X87835771Y-102690476D01*
X87835771Y-102690476D02*
X87645295Y-102738095D01*
X87645295Y-102738095D02*
X87550057Y-102785714D01*
X87550057Y-102785714D02*
X87502438Y-102833333D01*
X87502438Y-102833333D02*
X87454819Y-102928571D01*
X87788152Y-107271428D02*
X88454819Y-107271428D01*
X87407200Y-107033333D02*
X88121485Y-106795238D01*
X88121485Y-106795238D02*
X88121485Y-107414285D01*
X88359580Y-107795238D02*
X88407200Y-107842857D01*
X88407200Y-107842857D02*
X88454819Y-107795238D01*
X88454819Y-107795238D02*
X88407200Y-107747619D01*
X88407200Y-107747619D02*
X88359580Y-107795238D01*
X88359580Y-107795238D02*
X88454819Y-107795238D01*
X87454819Y-108176190D02*
X87454819Y-108842856D01*
X87454819Y-108842856D02*
X88454819Y-108414285D01*
X88454819Y-109223809D02*
X87454819Y-109223809D01*
X88073866Y-109319047D02*
X88454819Y-109604761D01*
X87788152Y-109604761D02*
X88169104Y-109223809D01*
D12*
X85265000Y-106525000D02*
X85265000Y-104240000D01*
X86735000Y-106525000D02*
X85265000Y-106525000D01*
X86735000Y-104240000D02*
X86735000Y-106525000D01*
X112685000Y-108450000D02*
X112685000Y-108180000D01*
X112685000Y-108180000D02*
X113785000Y-108180000D01*
X112685000Y-101820000D02*
X115515000Y-101820000D01*
X112685000Y-101550000D02*
X112685000Y-101820000D01*
X106265000Y-108450000D02*
X112685000Y-108450000D01*
X106265000Y-101550000D02*
X112685000Y-101550000D01*
X121465000Y-101140000D02*
X118965000Y-101140000D01*
X118965000Y-101140000D02*
X118965000Y-102190000D01*
X118965000Y-102190000D02*
X117975000Y-102190000D01*
X123435000Y-102310000D02*
X123435000Y-107190000D01*
X121465000Y-108360000D02*
X118965000Y-108360000D01*
X118965000Y-108360000D02*
X118965000Y-107310000D01*
X92990000Y-105140580D02*
X92990000Y-104859420D01*
X94010000Y-105140580D02*
X94010000Y-104859420D01*
X84735000Y-103555000D02*
X84735000Y-105840000D01*
X83265000Y-103555000D02*
X84735000Y-103555000D01*
X83265000Y-105840000D02*
X83265000Y-103555000D01*
X87477500Y-105237258D02*
X87477500Y-104762742D01*
X88522500Y-105237258D02*
X88522500Y-104762742D01*
%LPC*%
D13*
X127000000Y-93000000D03*
X127000000Y-117000000D03*
D14*
X75418036Y-106652651D03*
D15*
X75418036Y-103152651D03*
D16*
X66918036Y-102500000D03*
D17*
X66918036Y-107500000D03*
D18*
X86000000Y-105827500D03*
X86000000Y-104252500D03*
D19*
X114415000Y-102720000D03*
D20*
X108115000Y-105000000D03*
D19*
X114415000Y-107280000D03*
D21*
X118750000Y-102750000D03*
X118750000Y-103750000D03*
X118750000Y-104750000D03*
X118750000Y-105750000D03*
X118750000Y-106750000D03*
D22*
X122625000Y-101450000D03*
X122625000Y-108050000D03*
D23*
X93500000Y-105775000D03*
X93500000Y-104225000D03*
D24*
X91592400Y-95000000D03*
X91592400Y-115000000D03*
D25*
X84000000Y-104252500D03*
X84000000Y-105827500D03*
D26*
X88000000Y-105825000D03*
X88000000Y-104175000D03*
%LPD*%
M02*
