%TF.GenerationSoftware,KiCad,Pcbnew,7.0.9*%
%TF.CreationDate,2023-12-19T12:33:21+08:00*%
%TF.ProjectId,vnh5019,766e6835-3031-4392-9e6b-696361645f70,rev?*%
%TF.SameCoordinates,Original*%
%TF.FileFunction,Drillmap*%
%TF.FilePolarity,Positive*%
%FSLAX45Y45*%
G04 Gerber Fmt 4.5, Leading zero omitted, Abs format (unit mm)*
G04 Created by KiCad (PCBNEW 7.0.9) date 2023-12-19 12:33:21*
%MOMM*%
%LPD*%
G01*
G04 APERTURE LIST*
%ADD10C,0.200000*%
G04 APERTURE END LIST*
D10*
X8400000Y-11300000D02*
G75*
G03*
X8300000Y-11200000I-100000J0D01*
G01*
X12700000Y-9000000D02*
X8700000Y-9000000D01*
X13000000Y-11700000D02*
X13000000Y-9300000D01*
X5900000Y-11000000D02*
G75*
G03*
X6100000Y-11200000I200000J0D01*
G01*
X8400000Y-11300000D02*
X8400000Y-11700000D01*
X8400000Y-9300000D02*
X8400000Y-9700000D01*
X8300000Y-9800000D02*
G75*
G03*
X8400000Y-9700000I0J100000D01*
G01*
X13000000Y-9300000D02*
G75*
G03*
X12700000Y-9000000I-300000J0D01*
G01*
X12700000Y-12000000D02*
G75*
G03*
X13000000Y-11700000I0J300000D01*
G01*
X6100000Y-9800000D02*
G75*
G03*
X5900000Y-10000000I0J-200000D01*
G01*
X8300000Y-9800000D02*
X6100000Y-9800000D01*
X8700000Y-12000000D02*
X12700000Y-12000000D01*
X8400000Y-11700000D02*
G75*
G03*
X8700000Y-12000000I300000J0D01*
G01*
X5900000Y-10000000D02*
X5900000Y-11000000D01*
X6100000Y-11200000D02*
X8300000Y-11200000D01*
X8700000Y-9000000D02*
G75*
G03*
X8400000Y-9300000I0J-300000D01*
G01*
X6150777Y-12321484D02*
X6150777Y-12121484D01*
X6150777Y-12121484D02*
X6198396Y-12121484D01*
X6198396Y-12121484D02*
X6226967Y-12131008D01*
X6226967Y-12131008D02*
X6246015Y-12150055D01*
X6246015Y-12150055D02*
X6255539Y-12169103D01*
X6255539Y-12169103D02*
X6265062Y-12207198D01*
X6265062Y-12207198D02*
X6265062Y-12235769D01*
X6265062Y-12235769D02*
X6255539Y-12273865D01*
X6255539Y-12273865D02*
X6246015Y-12292912D01*
X6246015Y-12292912D02*
X6226967Y-12311960D01*
X6226967Y-12311960D02*
X6198396Y-12321484D01*
X6198396Y-12321484D02*
X6150777Y-12321484D01*
X6350777Y-12321484D02*
X6350777Y-12188150D01*
X6350777Y-12226246D02*
X6360301Y-12207198D01*
X6360301Y-12207198D02*
X6369824Y-12197674D01*
X6369824Y-12197674D02*
X6388872Y-12188150D01*
X6388872Y-12188150D02*
X6407920Y-12188150D01*
X6474586Y-12321484D02*
X6474586Y-12188150D01*
X6474586Y-12121484D02*
X6465062Y-12131008D01*
X6465062Y-12131008D02*
X6474586Y-12140531D01*
X6474586Y-12140531D02*
X6484110Y-12131008D01*
X6484110Y-12131008D02*
X6474586Y-12121484D01*
X6474586Y-12121484D02*
X6474586Y-12140531D01*
X6598396Y-12321484D02*
X6579348Y-12311960D01*
X6579348Y-12311960D02*
X6569824Y-12292912D01*
X6569824Y-12292912D02*
X6569824Y-12121484D01*
X6703158Y-12321484D02*
X6684110Y-12311960D01*
X6684110Y-12311960D02*
X6674586Y-12292912D01*
X6674586Y-12292912D02*
X6674586Y-12121484D01*
X6931729Y-12321484D02*
X6931729Y-12121484D01*
X6931729Y-12121484D02*
X6998396Y-12264341D01*
X6998396Y-12264341D02*
X7065062Y-12121484D01*
X7065062Y-12121484D02*
X7065062Y-12321484D01*
X7246015Y-12321484D02*
X7246015Y-12216722D01*
X7246015Y-12216722D02*
X7236491Y-12197674D01*
X7236491Y-12197674D02*
X7217443Y-12188150D01*
X7217443Y-12188150D02*
X7179348Y-12188150D01*
X7179348Y-12188150D02*
X7160301Y-12197674D01*
X7246015Y-12311960D02*
X7226967Y-12321484D01*
X7226967Y-12321484D02*
X7179348Y-12321484D01*
X7179348Y-12321484D02*
X7160301Y-12311960D01*
X7160301Y-12311960D02*
X7150777Y-12292912D01*
X7150777Y-12292912D02*
X7150777Y-12273865D01*
X7150777Y-12273865D02*
X7160301Y-12254817D01*
X7160301Y-12254817D02*
X7179348Y-12245293D01*
X7179348Y-12245293D02*
X7226967Y-12245293D01*
X7226967Y-12245293D02*
X7246015Y-12235769D01*
X7341253Y-12188150D02*
X7341253Y-12388150D01*
X7341253Y-12197674D02*
X7360301Y-12188150D01*
X7360301Y-12188150D02*
X7398396Y-12188150D01*
X7398396Y-12188150D02*
X7417443Y-12197674D01*
X7417443Y-12197674D02*
X7426967Y-12207198D01*
X7426967Y-12207198D02*
X7436491Y-12226246D01*
X7436491Y-12226246D02*
X7436491Y-12283388D01*
X7436491Y-12283388D02*
X7426967Y-12302436D01*
X7426967Y-12302436D02*
X7417443Y-12311960D01*
X7417443Y-12311960D02*
X7398396Y-12321484D01*
X7398396Y-12321484D02*
X7360301Y-12321484D01*
X7360301Y-12321484D02*
X7341253Y-12311960D01*
X7522205Y-12302436D02*
X7531729Y-12311960D01*
X7531729Y-12311960D02*
X7522205Y-12321484D01*
X7522205Y-12321484D02*
X7512682Y-12311960D01*
X7512682Y-12311960D02*
X7522205Y-12302436D01*
X7522205Y-12302436D02*
X7522205Y-12321484D01*
X7522205Y-12197674D02*
X7531729Y-12207198D01*
X7531729Y-12207198D02*
X7522205Y-12216722D01*
X7522205Y-12216722D02*
X7512682Y-12207198D01*
X7512682Y-12207198D02*
X7522205Y-12197674D01*
X7522205Y-12197674D02*
X7522205Y-12216722D01*
M02*
