G04 #@! TF.GenerationSoftware,KiCad,Pcbnew,7.0.9*
G04 #@! TF.CreationDate,2024-02-22T22:00:58+08:00*
G04 #@! TF.ProjectId,layer3,6c617965-7233-42e6-9b69-6361645f7063,0.1*
G04 #@! TF.SameCoordinates,Original*
G04 #@! TF.FileFunction,Paste,Bot*
G04 #@! TF.FilePolarity,Positive*
%FSLAX46Y46*%
G04 Gerber Fmt 4.6, Leading zero omitted, Abs format (unit mm)*
G04 Created by KiCad (PCBNEW 7.0.9) date 2024-02-22 22:00:58*
%MOMM*%
%LPD*%
G01*
G04 APERTURE LIST*
G04 Aperture macros list*
%AMRoundRect*
0 Rectangle with rounded corners*
0 $1 Rounding radius*
0 $2 $3 $4 $5 $6 $7 $8 $9 X,Y pos of 4 corners*
0 Add a 4 corners polygon primitive as box body*
4,1,4,$2,$3,$4,$5,$6,$7,$8,$9,$2,$3,0*
0 Add four circle primitives for the rounded corners*
1,1,$1+$1,$2,$3*
1,1,$1+$1,$4,$5*
1,1,$1+$1,$6,$7*
1,1,$1+$1,$8,$9*
0 Add four rect primitives between the rounded corners*
20,1,$1+$1,$2,$3,$4,$5,0*
20,1,$1+$1,$4,$5,$6,$7,0*
20,1,$1+$1,$6,$7,$8,$9,0*
20,1,$1+$1,$8,$9,$2,$3,0*%
G04 Aperture macros list end*
%ADD10RoundRect,0.200000X0.200000X0.275000X-0.200000X0.275000X-0.200000X-0.275000X0.200000X-0.275000X0*%
%ADD11RoundRect,0.150000X0.150000X0.625000X-0.150000X0.625000X-0.150000X-0.625000X0.150000X-0.625000X0*%
%ADD12RoundRect,0.250000X0.350000X0.650000X-0.350000X0.650000X-0.350000X-0.650000X0.350000X-0.650000X0*%
%ADD13RoundRect,0.075000X-0.521491X0.415425X0.415425X-0.521491X0.521491X-0.415425X-0.415425X0.521491X0*%
%ADD14RoundRect,0.075000X-0.521491X-0.415425X-0.415425X-0.521491X0.521491X0.415425X0.415425X0.521491X0*%
G04 APERTURE END LIST*
D10*
X52425000Y-62600000D03*
X50775000Y-62600000D03*
D11*
X107000000Y-145000000D03*
X106000000Y-145000000D03*
X105000000Y-145000000D03*
X104000000Y-145000000D03*
X103000000Y-145000000D03*
D12*
X108300000Y-148875000D03*
X101700000Y-148875000D03*
D13*
X100112124Y-104001212D03*
X100465678Y-103647658D03*
X100819231Y-103294105D03*
X101172785Y-102940551D03*
X101526338Y-102586998D03*
X101879891Y-102233445D03*
X102233445Y-101879891D03*
X102586998Y-101526338D03*
X102940551Y-101172785D03*
X103294105Y-100819231D03*
X103647658Y-100465678D03*
X104001212Y-100112124D03*
D14*
X105998788Y-100112124D03*
X106352342Y-100465678D03*
X106705895Y-100819231D03*
X107059449Y-101172785D03*
X107413002Y-101526338D03*
X107766555Y-101879891D03*
X108120109Y-102233445D03*
X108473662Y-102586998D03*
X108827215Y-102940551D03*
X109180769Y-103294105D03*
X109534322Y-103647658D03*
X109887876Y-104001212D03*
D13*
X109887876Y-105998788D03*
X109534322Y-106352342D03*
X109180769Y-106705895D03*
X108827215Y-107059449D03*
X108473662Y-107413002D03*
X108120109Y-107766555D03*
X107766555Y-108120109D03*
X107413002Y-108473662D03*
X107059449Y-108827215D03*
X106705895Y-109180769D03*
X106352342Y-109534322D03*
X105998788Y-109887876D03*
D14*
X104001212Y-109887876D03*
X103647658Y-109534322D03*
X103294105Y-109180769D03*
X102940551Y-108827215D03*
X102586998Y-108473662D03*
X102233445Y-108120109D03*
X101879891Y-107766555D03*
X101526338Y-107413002D03*
X101172785Y-107059449D03*
X100819231Y-106705895D03*
X100465678Y-106352342D03*
X100112124Y-105998788D03*
M02*
