G04 #@! TF.GenerationSoftware,KiCad,Pcbnew,7.0.9*
G04 #@! TF.CreationDate,2024-02-22T22:00:58+08:00*
G04 #@! TF.ProjectId,layer3,6c617965-7233-42e6-9b69-6361645f7063,0.1*
G04 #@! TF.SameCoordinates,Original*
G04 #@! TF.FileFunction,Paste,Top*
G04 #@! TF.FilePolarity,Positive*
%FSLAX46Y46*%
G04 Gerber Fmt 4.6, Leading zero omitted, Abs format (unit mm)*
G04 Created by KiCad (PCBNEW 7.0.9) date 2024-02-22 22:00:58*
%MOMM*%
%LPD*%
G01*
G04 APERTURE LIST*
G04 Aperture macros list*
%AMRoundRect*
0 Rectangle with rounded corners*
0 $1 Rounding radius*
0 $2 $3 $4 $5 $6 $7 $8 $9 X,Y pos of 4 corners*
0 Add a 4 corners polygon primitive as box body*
4,1,4,$2,$3,$4,$5,$6,$7,$8,$9,$2,$3,0*
0 Add four circle primitives for the rounded corners*
1,1,$1+$1,$2,$3*
1,1,$1+$1,$4,$5*
1,1,$1+$1,$6,$7*
1,1,$1+$1,$8,$9*
0 Add four rect primitives between the rounded corners*
20,1,$1+$1,$2,$3,$4,$5,0*
20,1,$1+$1,$4,$5,$6,$7,0*
20,1,$1+$1,$6,$7,$8,$9,0*
20,1,$1+$1,$8,$9,$2,$3,0*%
G04 Aperture macros list end*
%ADD10RoundRect,0.218750X0.218750X0.256250X-0.218750X0.256250X-0.218750X-0.256250X0.218750X-0.256250X0*%
%ADD11RoundRect,0.225000X-0.225000X-0.250000X0.225000X-0.250000X0.225000X0.250000X-0.225000X0.250000X0*%
%ADD12RoundRect,0.225000X-0.250000X0.225000X-0.250000X-0.225000X0.250000X-0.225000X0.250000X0.225000X0*%
%ADD13RoundRect,0.150000X0.150000X-0.512500X0.150000X0.512500X-0.150000X0.512500X-0.150000X-0.512500X0*%
%ADD14RoundRect,0.200000X-0.200000X-0.275000X0.200000X-0.275000X0.200000X0.275000X-0.200000X0.275000X0*%
%ADD15RoundRect,0.150000X0.625000X-0.150000X0.625000X0.150000X-0.625000X0.150000X-0.625000X-0.150000X0*%
%ADD16RoundRect,0.250000X0.650000X-0.350000X0.650000X0.350000X-0.650000X0.350000X-0.650000X-0.350000X0*%
%ADD17RoundRect,0.225000X0.250000X-0.225000X0.250000X0.225000X-0.250000X0.225000X-0.250000X-0.225000X0*%
%ADD18RoundRect,0.200000X-0.200000X-0.800000X0.200000X-0.800000X0.200000X0.800000X-0.200000X0.800000X0*%
%ADD19R,2.400000X2.000000*%
%ADD20RoundRect,0.200000X-0.275000X0.200000X-0.275000X-0.200000X0.275000X-0.200000X0.275000X0.200000X0*%
%ADD21RoundRect,0.150000X-0.625000X0.150000X-0.625000X-0.150000X0.625000X-0.150000X0.625000X0.150000X0*%
%ADD22RoundRect,0.250000X-0.650000X0.350000X-0.650000X-0.350000X0.650000X-0.350000X0.650000X0.350000X0*%
G04 APERTURE END LIST*
D10*
X116575000Y-101000000D03*
X115000000Y-101000000D03*
D11*
X104000000Y-100980000D03*
X105550000Y-100980000D03*
D12*
X99000000Y-98225000D03*
X99000000Y-99775000D03*
D11*
X104000000Y-103490000D03*
X105550000Y-103490000D03*
D13*
X104050000Y-76137500D03*
X105000000Y-76137500D03*
X105950000Y-76137500D03*
X105950000Y-73862500D03*
X105000000Y-73862500D03*
X104050000Y-73862500D03*
D14*
X103175000Y-112000000D03*
X104825000Y-112000000D03*
D11*
X104000000Y-106000000D03*
X105550000Y-106000000D03*
D13*
X104050000Y-136137500D03*
X105000000Y-136137500D03*
X105950000Y-136137500D03*
X105950000Y-133862500D03*
X105000000Y-133862500D03*
X104050000Y-133862500D03*
D15*
X75000000Y-134000000D03*
X75000000Y-133000000D03*
X75000000Y-132000000D03*
X75000000Y-131000000D03*
X75000000Y-130000000D03*
D16*
X78875000Y-135300000D03*
X78875000Y-128700000D03*
D17*
X99000000Y-111775000D03*
X99000000Y-110225000D03*
D18*
X145000000Y-93979436D03*
X149200000Y-93979436D03*
D19*
X99000000Y-103150000D03*
X99000000Y-106850000D03*
D20*
X145000000Y-88175000D03*
X145000000Y-89825000D03*
D21*
X135000000Y-76000000D03*
X135000000Y-77000000D03*
X135000000Y-78000000D03*
X135000000Y-79000000D03*
X135000000Y-80000000D03*
D22*
X131125000Y-74700000D03*
X131125000Y-81300000D03*
D11*
X104000000Y-108510000D03*
X105550000Y-108510000D03*
D20*
X112000000Y-104000000D03*
X112000000Y-105650000D03*
D15*
X75000000Y-80000000D03*
X75000000Y-79000000D03*
X75000000Y-78000000D03*
X75000000Y-77000000D03*
X75000000Y-76000000D03*
D16*
X78875000Y-81300000D03*
X78875000Y-74700000D03*
D14*
X111350000Y-101000000D03*
X113000000Y-101000000D03*
D21*
X135000000Y-130000000D03*
X135000000Y-131000000D03*
X135000000Y-132000000D03*
X135000000Y-133000000D03*
X135000000Y-134000000D03*
D22*
X131125000Y-128700000D03*
X131125000Y-135300000D03*
D21*
X145675000Y-111255719D03*
X145675000Y-112255719D03*
X145675000Y-113255719D03*
X145675000Y-114255719D03*
X145675000Y-115255719D03*
X145675000Y-116255719D03*
D22*
X148200000Y-109955719D03*
X148200000Y-117555719D03*
M02*
