%TF.GenerationSoftware,KiCad,Pcbnew,7.0.9*%
%TF.CreationDate,2023-12-19T12:29:52+08:00*%
%TF.ProjectId,layer3,6c617965-7233-42e6-9b69-6361645f7063,rev?*%
%TF.SameCoordinates,Original*%
%TF.FileFunction,Drillmap*%
%TF.FilePolarity,Positive*%
%FSLAX45Y45*%
G04 Gerber Fmt 4.5, Leading zero omitted, Abs format (unit mm)*
G04 Created by KiCad (PCBNEW 7.0.9) date 2023-12-19 12:29:52*
%MOMM*%
%LPD*%
G01*
G04 APERTURE LIST*
%ADD10C,0.200000*%
G04 APERTURE END LIST*
D10*
X8900000Y-13000000D02*
X8100000Y-13000000D01*
X12950000Y-13350000D02*
X12950000Y-13050000D01*
X11200000Y-11200000D02*
X11300000Y-11200000D01*
X11000000Y-14200000D02*
X10000000Y-14200000D01*
X11300000Y-11200000D02*
X11300000Y-11500000D01*
X6795274Y-17021120D02*
G75*
G03*
X14204726Y-17021120I3704726J6521120D01*
G01*
X6255613Y-16556004D02*
X6546901Y-16102277D01*
X14453101Y-16102276D02*
G75*
G03*
X14314924Y-16072150I-84151J-54024D01*
G01*
X11200000Y-9800000D02*
X11200000Y-9500000D01*
X7051802Y-16426418D02*
G75*
G03*
X7021680Y-16288246I-84133J54028D01*
G01*
X13800000Y-7400000D02*
X7200000Y-7400000D01*
X8950000Y-7950000D02*
X8950000Y-7650000D01*
X11200000Y-9500000D02*
X11300000Y-9500000D01*
X8950000Y-7650000D02*
G75*
G03*
X8900000Y-7600000I-50000J0D01*
G01*
X10000000Y-14800000D02*
X11000000Y-14800000D01*
X12100000Y-7600000D02*
X12900000Y-7600000D01*
X11200000Y-11500000D02*
X11200000Y-11200000D01*
X8100000Y-13400000D02*
X8900000Y-13400000D01*
X6760517Y-16880146D02*
G75*
G03*
X6795274Y-17021120I84153J-54024D01*
G01*
X14887032Y-16583087D02*
G75*
G03*
X14666667Y-4263905I-4387032J6083087D01*
G01*
X13800000Y-7400000D02*
G75*
G03*
X14200000Y-7000000I0J400000D01*
G01*
X9700000Y-11500000D02*
X9700000Y-11200000D01*
X8050000Y-13350000D02*
G75*
G03*
X8100000Y-13400000I50000J0D01*
G01*
X12100000Y-13000000D02*
G75*
G03*
X12050000Y-13050000I0J-50000D01*
G01*
X12050000Y-7950000D02*
X12050000Y-7650000D01*
X6800001Y-4513348D02*
G75*
G03*
X6333333Y-4263905I-300001J-2D01*
G01*
X12900000Y-8000000D02*
X12100000Y-8000000D01*
X9700000Y-11200000D02*
X9800000Y-11200000D01*
X10000000Y-14200000D02*
G75*
G03*
X9900000Y-14300000I0J-100000D01*
G01*
X14239480Y-16880148D02*
X13948193Y-16426421D01*
X12950000Y-7650000D02*
G75*
G03*
X12900000Y-7600000I-50000J0D01*
G01*
X14744387Y-16556003D02*
G75*
G03*
X14887032Y-16583087I84153J54033D01*
G01*
X6800000Y-7000000D02*
X6800000Y-4513348D01*
X9800000Y-11500000D02*
X9700000Y-11500000D01*
X12900000Y-13400000D02*
G75*
G03*
X12950000Y-13350000I0J50000D01*
G01*
X8900000Y-13400000D02*
G75*
G03*
X8950000Y-13350000I0J50000D01*
G01*
X8950000Y-13350000D02*
X8950000Y-13050000D01*
X12950000Y-7650000D02*
X12950000Y-7950000D01*
X9800000Y-9800000D02*
X9700000Y-9800000D01*
X14453099Y-16102277D02*
X14744387Y-16556004D01*
X11000000Y-14800000D02*
G75*
G03*
X11100000Y-14700000I0J100000D01*
G01*
X11300000Y-11500000D02*
X11200000Y-11500000D01*
X12100000Y-13400000D02*
X12900000Y-13400000D01*
X8050000Y-7950000D02*
G75*
G03*
X8100000Y-8000000I50000J0D01*
G01*
X12050000Y-7950000D02*
G75*
G03*
X12100000Y-8000000I50000J0D01*
G01*
X12900000Y-8000000D02*
G75*
G03*
X12950000Y-7950000I0J50000D01*
G01*
X12950000Y-13050000D02*
G75*
G03*
X12900000Y-13000000I-50000J0D01*
G01*
X6685074Y-16072151D02*
G75*
G03*
X6546901Y-16102277I-54025J-84149D01*
G01*
X9800000Y-9500000D02*
X9800000Y-9800000D01*
X7051807Y-16426421D02*
X6760520Y-16880148D01*
X9700000Y-9500000D02*
X9800000Y-9500000D01*
X8050000Y-7650000D02*
X8050000Y-7950000D01*
X14200000Y-4513348D02*
X14200000Y-7000000D01*
X8900000Y-7600000D02*
X8100000Y-7600000D01*
X13978321Y-16288248D02*
G75*
G03*
X13948193Y-16426421I54029J-84152D01*
G01*
X11300000Y-9800000D02*
X11200000Y-9800000D01*
X11100000Y-14300000D02*
G75*
G03*
X11000000Y-14200000I-100000J0D01*
G01*
X8900000Y-8000000D02*
G75*
G03*
X8950000Y-7950000I0J50000D01*
G01*
X6333333Y-4263905D02*
G75*
G03*
X6112968Y-16583087I4166667J-6236096D01*
G01*
X11300000Y-9500000D02*
X11300000Y-9800000D01*
X8100000Y-8000000D02*
X8900000Y-8000000D01*
X8950000Y-13050000D02*
G75*
G03*
X8900000Y-13000000I-50000J0D01*
G01*
X13978320Y-16288246D02*
X14314924Y-16072150D01*
X14204724Y-17021118D02*
G75*
G03*
X14239480Y-16880148I-49394J86948D01*
G01*
X11100000Y-14700000D02*
X11100000Y-14300000D01*
X9900000Y-14300000D02*
X9900000Y-14700000D01*
X8050000Y-13050000D02*
X8050000Y-13350000D01*
X6112967Y-16583090D02*
G75*
G03*
X6255613Y-16556004I58493J81110D01*
G01*
X14666666Y-4263906D02*
G75*
G03*
X14200000Y-4513348I-166666J-249444D01*
G01*
X12100000Y-7600000D02*
G75*
G03*
X12050000Y-7650000I0J-50000D01*
G01*
X9900000Y-14700000D02*
G75*
G03*
X10000000Y-14800000I100000J0D01*
G01*
X8100000Y-13000000D02*
G75*
G03*
X8050000Y-13050000I0J-50000D01*
G01*
X6685076Y-16072150D02*
X7021680Y-16288246D01*
X12050000Y-13050000D02*
X12050000Y-13350000D01*
X6800000Y-7000000D02*
G75*
G03*
X7200000Y-7400000I400000J0D01*
G01*
X9800000Y-11200000D02*
X9800000Y-11500000D01*
X12900000Y-13000000D02*
X12100000Y-13000000D01*
X9700000Y-9800000D02*
X9700000Y-9500000D01*
X8100000Y-7600000D02*
G75*
G03*
X8050000Y-7650000I0J-50000D01*
G01*
X12050000Y-13350000D02*
G75*
G03*
X12100000Y-13400000I50000J0D01*
G01*
X3250777Y-18321484D02*
X3250777Y-18121484D01*
X3250777Y-18121484D02*
X3298396Y-18121484D01*
X3298396Y-18121484D02*
X3326967Y-18131008D01*
X3326967Y-18131008D02*
X3346015Y-18150055D01*
X3346015Y-18150055D02*
X3355539Y-18169103D01*
X3355539Y-18169103D02*
X3365062Y-18207198D01*
X3365062Y-18207198D02*
X3365062Y-18235770D01*
X3365062Y-18235770D02*
X3355539Y-18273865D01*
X3355539Y-18273865D02*
X3346015Y-18292912D01*
X3346015Y-18292912D02*
X3326967Y-18311960D01*
X3326967Y-18311960D02*
X3298396Y-18321484D01*
X3298396Y-18321484D02*
X3250777Y-18321484D01*
X3450777Y-18321484D02*
X3450777Y-18188150D01*
X3450777Y-18226246D02*
X3460301Y-18207198D01*
X3460301Y-18207198D02*
X3469824Y-18197674D01*
X3469824Y-18197674D02*
X3488872Y-18188150D01*
X3488872Y-18188150D02*
X3507920Y-18188150D01*
X3574586Y-18321484D02*
X3574586Y-18188150D01*
X3574586Y-18121484D02*
X3565062Y-18131008D01*
X3565062Y-18131008D02*
X3574586Y-18140531D01*
X3574586Y-18140531D02*
X3584110Y-18131008D01*
X3584110Y-18131008D02*
X3574586Y-18121484D01*
X3574586Y-18121484D02*
X3574586Y-18140531D01*
X3698396Y-18321484D02*
X3679348Y-18311960D01*
X3679348Y-18311960D02*
X3669824Y-18292912D01*
X3669824Y-18292912D02*
X3669824Y-18121484D01*
X3803158Y-18321484D02*
X3784110Y-18311960D01*
X3784110Y-18311960D02*
X3774586Y-18292912D01*
X3774586Y-18292912D02*
X3774586Y-18121484D01*
X4031729Y-18321484D02*
X4031729Y-18121484D01*
X4031729Y-18121484D02*
X4098396Y-18264341D01*
X4098396Y-18264341D02*
X4165062Y-18121484D01*
X4165062Y-18121484D02*
X4165062Y-18321484D01*
X4346015Y-18321484D02*
X4346015Y-18216722D01*
X4346015Y-18216722D02*
X4336491Y-18197674D01*
X4336491Y-18197674D02*
X4317444Y-18188150D01*
X4317444Y-18188150D02*
X4279348Y-18188150D01*
X4279348Y-18188150D02*
X4260301Y-18197674D01*
X4346015Y-18311960D02*
X4326967Y-18321484D01*
X4326967Y-18321484D02*
X4279348Y-18321484D01*
X4279348Y-18321484D02*
X4260301Y-18311960D01*
X4260301Y-18311960D02*
X4250777Y-18292912D01*
X4250777Y-18292912D02*
X4250777Y-18273865D01*
X4250777Y-18273865D02*
X4260301Y-18254817D01*
X4260301Y-18254817D02*
X4279348Y-18245293D01*
X4279348Y-18245293D02*
X4326967Y-18245293D01*
X4326967Y-18245293D02*
X4346015Y-18235770D01*
X4441253Y-18188150D02*
X4441253Y-18388150D01*
X4441253Y-18197674D02*
X4460301Y-18188150D01*
X4460301Y-18188150D02*
X4498396Y-18188150D01*
X4498396Y-18188150D02*
X4517444Y-18197674D01*
X4517444Y-18197674D02*
X4526967Y-18207198D01*
X4526967Y-18207198D02*
X4536491Y-18226246D01*
X4536491Y-18226246D02*
X4536491Y-18283389D01*
X4536491Y-18283389D02*
X4526967Y-18302436D01*
X4526967Y-18302436D02*
X4517444Y-18311960D01*
X4517444Y-18311960D02*
X4498396Y-18321484D01*
X4498396Y-18321484D02*
X4460301Y-18321484D01*
X4460301Y-18321484D02*
X4441253Y-18311960D01*
X4622205Y-18302436D02*
X4631729Y-18311960D01*
X4631729Y-18311960D02*
X4622205Y-18321484D01*
X4622205Y-18321484D02*
X4612682Y-18311960D01*
X4612682Y-18311960D02*
X4622205Y-18302436D01*
X4622205Y-18302436D02*
X4622205Y-18321484D01*
X4622205Y-18197674D02*
X4631729Y-18207198D01*
X4631729Y-18207198D02*
X4622205Y-18216722D01*
X4622205Y-18216722D02*
X4612682Y-18207198D01*
X4612682Y-18207198D02*
X4622205Y-18197674D01*
X4622205Y-18197674D02*
X4622205Y-18216722D01*
M02*
