G04 #@! TF.GenerationSoftware,KiCad,Pcbnew,7.0.9*
G04 #@! TF.CreationDate,2024-02-22T22:00:58+08:00*
G04 #@! TF.ProjectId,layer3,6c617965-7233-42e6-9b69-6361645f7063,0.1*
G04 #@! TF.SameCoordinates,Original*
G04 #@! TF.FileFunction,Legend,Bot*
G04 #@! TF.FilePolarity,Positive*
%FSLAX46Y46*%
G04 Gerber Fmt 4.6, Leading zero omitted, Abs format (unit mm)*
G04 Created by KiCad (PCBNEW 7.0.9) date 2024-02-22 22:00:58*
%MOMM*%
%LPD*%
G01*
G04 APERTURE LIST*
G04 Aperture macros list*
%AMRoundRect*
0 Rectangle with rounded corners*
0 $1 Rounding radius*
0 $2 $3 $4 $5 $6 $7 $8 $9 X,Y pos of 4 corners*
0 Add a 4 corners polygon primitive as box body*
4,1,4,$2,$3,$4,$5,$6,$7,$8,$9,$2,$3,0*
0 Add four circle primitives for the rounded corners*
1,1,$1+$1,$2,$3*
1,1,$1+$1,$4,$5*
1,1,$1+$1,$6,$7*
1,1,$1+$1,$8,$9*
0 Add four rect primitives between the rounded corners*
20,1,$1+$1,$2,$3,$4,$5,0*
20,1,$1+$1,$4,$5,$6,$7,0*
20,1,$1+$1,$6,$7,$8,$9,0*
20,1,$1+$1,$8,$9,$2,$3,0*%
G04 Aperture macros list end*
%ADD10C,0.150000*%
%ADD11C,0.120000*%
%ADD12RoundRect,0.250200X0.887643X0.237843X-0.237843X0.887643X-0.887643X-0.237843X0.237843X-0.887643X0*%
%ADD13C,1.800000*%
%ADD14RoundRect,0.250200X0.649800X-0.649800X0.649800X0.649800X-0.649800X0.649800X-0.649800X-0.649800X0*%
%ADD15R,1.700000X1.700000*%
%ADD16O,1.700000X1.700000*%
%ADD17C,6.400000*%
%ADD18RoundRect,0.250200X-0.795839X0.459478X-0.459478X-0.795839X0.795839X-0.459478X0.459478X0.795839X0*%
%ADD19RoundRect,0.250200X0.887643X-0.237843X0.237843X0.887643X-0.887643X0.237843X-0.237843X-0.887643X0*%
%ADD20RoundRect,0.150000X-0.600000X-0.600000X0.600000X-0.600000X0.600000X0.600000X-0.600000X0.600000X0*%
%ADD21RoundRect,0.150000X0.600000X0.600000X-0.600000X0.600000X-0.600000X-0.600000X0.600000X-0.600000X0*%
%ADD22C,2.082800*%
%ADD23RoundRect,0.250200X0.459478X-0.795839X0.795839X0.459478X-0.459478X0.795839X-0.795839X-0.459478X0*%
%ADD24RoundRect,0.250200X-0.237843X0.887643X-0.887643X-0.237843X0.237843X-0.887643X0.887643X0.237843X0*%
%ADD25RoundRect,0.250200X0.795839X0.459478X-0.459478X0.795839X-0.795839X-0.459478X0.459478X-0.795839X0*%
%ADD26C,1.530000*%
%ADD27RoundRect,0.250200X-0.649800X0.649800X-0.649800X-0.649800X0.649800X-0.649800X0.649800X0.649800X0*%
%ADD28RoundRect,0.250200X0.000000X-0.918956X0.918956X0.000000X0.000000X0.918956X-0.918956X0.000000X0*%
%ADD29RoundRect,0.250200X0.649800X0.649800X-0.649800X0.649800X-0.649800X-0.649800X0.649800X-0.649800X0*%
%ADD30C,1.778000*%
%ADD31RoundRect,0.250200X-0.237843X-0.887643X0.887643X-0.237843X0.237843X0.887643X-0.887643X0.237843X0*%
%ADD32RoundRect,0.250200X-0.887643X-0.237843X0.237843X-0.887643X0.887643X0.237843X-0.237843X0.887643X0*%
%ADD33RoundRect,0.250200X0.237843X-0.887643X0.887643X0.237843X-0.237843X0.887643X-0.887643X-0.237843X0*%
%ADD34RoundRect,0.250200X0.459478X0.795839X-0.795839X0.459478X-0.459478X-0.795839X0.795839X-0.459478X0*%
%ADD35RoundRect,0.250200X-0.459478X-0.795839X0.795839X-0.459478X0.459478X0.795839X-0.795839X0.459478X0*%
%ADD36RoundRect,0.250200X-0.887643X0.237843X-0.237843X-0.887643X0.887643X-0.237843X0.237843X0.887643X0*%
%ADD37RoundRect,0.250200X0.000000X0.918956X-0.918956X0.000000X0.000000X-0.918956X0.918956X0.000000X0*%
%ADD38RoundRect,0.250200X0.918956X0.000000X0.000000X0.918956X-0.918956X0.000000X0.000000X-0.918956X0*%
%ADD39RoundRect,0.250200X-0.795839X-0.459478X0.459478X-0.795839X0.795839X0.459478X-0.459478X0.795839X0*%
%ADD40C,3.703200*%
%ADD41C,0.800000*%
%ADD42RoundRect,0.250200X0.237843X0.887643X-0.887643X0.237843X-0.237843X-0.887643X0.887643X-0.237843X0*%
%ADD43RoundRect,0.250200X-0.459478X0.795839X-0.795839X-0.459478X0.459478X-0.795839X0.795839X0.459478X0*%
%ADD44RoundRect,0.250200X-0.649800X-0.649800X0.649800X-0.649800X0.649800X0.649800X-0.649800X0.649800X0*%
%ADD45RoundRect,0.250200X-0.918956X0.000000X0.000000X-0.918956X0.918956X0.000000X0.000000X0.918956X0*%
%ADD46RoundRect,0.250200X0.795839X-0.459478X0.459478X0.795839X-0.795839X0.459478X-0.459478X-0.795839X0*%
%ADD47RoundRect,0.200000X0.200000X0.275000X-0.200000X0.275000X-0.200000X-0.275000X0.200000X-0.275000X0*%
%ADD48RoundRect,0.150000X0.150000X0.625000X-0.150000X0.625000X-0.150000X-0.625000X0.150000X-0.625000X0*%
%ADD49RoundRect,0.250000X0.350000X0.650000X-0.350000X0.650000X-0.350000X-0.650000X0.350000X-0.650000X0*%
%ADD50RoundRect,0.075000X-0.521491X0.415425X0.415425X-0.521491X0.521491X-0.415425X-0.415425X0.521491X0*%
%ADD51RoundRect,0.075000X-0.521491X-0.415425X-0.415425X-0.521491X0.521491X0.415425X0.415425X0.521491X0*%
%ADD52RoundRect,0.250000X0.600000X0.725000X-0.600000X0.725000X-0.600000X-0.725000X0.600000X-0.725000X0*%
%ADD53O,1.700000X1.950000*%
G04 APERTURE END LIST*
D10*
X51766666Y-61624819D02*
X52099999Y-61148628D01*
X52338094Y-61624819D02*
X52338094Y-60624819D01*
X52338094Y-60624819D02*
X51957142Y-60624819D01*
X51957142Y-60624819D02*
X51861904Y-60672438D01*
X51861904Y-60672438D02*
X51814285Y-60720057D01*
X51814285Y-60720057D02*
X51766666Y-60815295D01*
X51766666Y-60815295D02*
X51766666Y-60958152D01*
X51766666Y-60958152D02*
X51814285Y-61053390D01*
X51814285Y-61053390D02*
X51861904Y-61101009D01*
X51861904Y-61101009D02*
X51957142Y-61148628D01*
X51957142Y-61148628D02*
X52338094Y-61148628D01*
X50861904Y-60624819D02*
X51338094Y-60624819D01*
X51338094Y-60624819D02*
X51385713Y-61101009D01*
X51385713Y-61101009D02*
X51338094Y-61053390D01*
X51338094Y-61053390D02*
X51242856Y-61005771D01*
X51242856Y-61005771D02*
X51004761Y-61005771D01*
X51004761Y-61005771D02*
X50909523Y-61053390D01*
X50909523Y-61053390D02*
X50861904Y-61101009D01*
X50861904Y-61101009D02*
X50814285Y-61196247D01*
X50814285Y-61196247D02*
X50814285Y-61434342D01*
X50814285Y-61434342D02*
X50861904Y-61529580D01*
X50861904Y-61529580D02*
X50909523Y-61577200D01*
X50909523Y-61577200D02*
X51004761Y-61624819D01*
X51004761Y-61624819D02*
X51242856Y-61624819D01*
X51242856Y-61624819D02*
X51338094Y-61577200D01*
X51338094Y-61577200D02*
X51385713Y-61529580D01*
X52195238Y-64484819D02*
X52766666Y-64484819D01*
X52480952Y-64484819D02*
X52480952Y-63484819D01*
X52480952Y-63484819D02*
X52576190Y-63627676D01*
X52576190Y-63627676D02*
X52671428Y-63722914D01*
X52671428Y-63722914D02*
X52766666Y-63770533D01*
X51576190Y-63484819D02*
X51480952Y-63484819D01*
X51480952Y-63484819D02*
X51385714Y-63532438D01*
X51385714Y-63532438D02*
X51338095Y-63580057D01*
X51338095Y-63580057D02*
X51290476Y-63675295D01*
X51290476Y-63675295D02*
X51242857Y-63865771D01*
X51242857Y-63865771D02*
X51242857Y-64103866D01*
X51242857Y-64103866D02*
X51290476Y-64294342D01*
X51290476Y-64294342D02*
X51338095Y-64389580D01*
X51338095Y-64389580D02*
X51385714Y-64437200D01*
X51385714Y-64437200D02*
X51480952Y-64484819D01*
X51480952Y-64484819D02*
X51576190Y-64484819D01*
X51576190Y-64484819D02*
X51671428Y-64437200D01*
X51671428Y-64437200D02*
X51719047Y-64389580D01*
X51719047Y-64389580D02*
X51766666Y-64294342D01*
X51766666Y-64294342D02*
X51814285Y-64103866D01*
X51814285Y-64103866D02*
X51814285Y-63865771D01*
X51814285Y-63865771D02*
X51766666Y-63675295D01*
X51766666Y-63675295D02*
X51719047Y-63580057D01*
X51719047Y-63580057D02*
X51671428Y-63532438D01*
X51671428Y-63532438D02*
X51576190Y-63484819D01*
X50814285Y-64484819D02*
X50814285Y-63484819D01*
X50719047Y-64103866D02*
X50433333Y-64484819D01*
X50433333Y-63818152D02*
X50814285Y-64199104D01*
X105809523Y-142474819D02*
X105809523Y-143189104D01*
X105809523Y-143189104D02*
X105857142Y-143331961D01*
X105857142Y-143331961D02*
X105952380Y-143427200D01*
X105952380Y-143427200D02*
X106095237Y-143474819D01*
X106095237Y-143474819D02*
X106190475Y-143474819D01*
X104809523Y-143474819D02*
X105380951Y-143474819D01*
X105095237Y-143474819D02*
X105095237Y-142474819D01*
X105095237Y-142474819D02*
X105190475Y-142617676D01*
X105190475Y-142617676D02*
X105285713Y-142712914D01*
X105285713Y-142712914D02*
X105380951Y-142760533D01*
X103857142Y-143474819D02*
X104428570Y-143474819D01*
X104142856Y-143474819D02*
X104142856Y-142474819D01*
X104142856Y-142474819D02*
X104238094Y-142617676D01*
X104238094Y-142617676D02*
X104333332Y-142712914D01*
X104333332Y-142712914D02*
X104428570Y-142760533D01*
X101787674Y-109289821D02*
X101215254Y-109862241D01*
X101215254Y-109862241D02*
X101114239Y-109895913D01*
X101114239Y-109895913D02*
X101046895Y-109895913D01*
X101046895Y-109895913D02*
X100945880Y-109862241D01*
X100945880Y-109862241D02*
X100811193Y-109727554D01*
X100811193Y-109727554D02*
X100777521Y-109626539D01*
X100777521Y-109626539D02*
X100777521Y-109559195D01*
X100777521Y-109559195D02*
X100811193Y-109458180D01*
X100811193Y-109458180D02*
X101383613Y-108885760D01*
X101114239Y-108616386D02*
X100642834Y-108144982D01*
X100642834Y-108144982D02*
X100238773Y-109155134D01*
X105333333Y-135104819D02*
X105333333Y-135819104D01*
X105333333Y-135819104D02*
X105380952Y-135961961D01*
X105380952Y-135961961D02*
X105476190Y-136057200D01*
X105476190Y-136057200D02*
X105619047Y-136104819D01*
X105619047Y-136104819D02*
X105714285Y-136104819D01*
X104380952Y-135104819D02*
X104857142Y-135104819D01*
X104857142Y-135104819D02*
X104904761Y-135581009D01*
X104904761Y-135581009D02*
X104857142Y-135533390D01*
X104857142Y-135533390D02*
X104761904Y-135485771D01*
X104761904Y-135485771D02*
X104523809Y-135485771D01*
X104523809Y-135485771D02*
X104428571Y-135533390D01*
X104428571Y-135533390D02*
X104380952Y-135581009D01*
X104380952Y-135581009D02*
X104333333Y-135676247D01*
X104333333Y-135676247D02*
X104333333Y-135914342D01*
X104333333Y-135914342D02*
X104380952Y-136009580D01*
X104380952Y-136009580D02*
X104428571Y-136057200D01*
X104428571Y-136057200D02*
X104523809Y-136104819D01*
X104523809Y-136104819D02*
X104761904Y-136104819D01*
X104761904Y-136104819D02*
X104857142Y-136057200D01*
X104857142Y-136057200D02*
X104904761Y-136009580D01*
D11*
X51837258Y-63122500D02*
X51362742Y-63122500D01*
X51837258Y-62077500D02*
X51362742Y-62077500D01*
X108610000Y-147715000D02*
X108610000Y-145215000D01*
X108610000Y-145215000D02*
X107560000Y-145215000D01*
X107560000Y-145215000D02*
X107560000Y-144225000D01*
X107440000Y-149685000D02*
X102560000Y-149685000D01*
X101390000Y-147715000D02*
X101390000Y-145215000D01*
X101390000Y-145215000D02*
X102440000Y-145215000D01*
X105000000Y-99894689D02*
X104681802Y-100212887D01*
X100212887Y-104681802D02*
X99300719Y-103769634D01*
X99894689Y-105000000D02*
X100212887Y-104681802D01*
X105318198Y-100212887D02*
X105000000Y-99894689D01*
X100212887Y-105318198D02*
X99894689Y-105000000D01*
X109787113Y-104681802D02*
X110105311Y-105000000D01*
X104681802Y-109787113D02*
X105000000Y-110105311D01*
X110105311Y-105000000D02*
X109787113Y-105318198D01*
X105000000Y-110105311D02*
X105318198Y-109787113D01*
X110350000Y-136450000D02*
X110350000Y-137700000D01*
X110060000Y-142710000D02*
X99940000Y-142710000D01*
X110060000Y-136740000D02*
X110060000Y-142710000D01*
X110050000Y-139000000D02*
X109300000Y-139000000D01*
X110050000Y-137500000D02*
X108250000Y-137500000D01*
X110050000Y-136750000D02*
X110050000Y-137500000D01*
X109300000Y-141950000D02*
X105000000Y-141950000D01*
X109300000Y-139000000D02*
X109300000Y-141950000D01*
X109100000Y-136450000D02*
X110350000Y-136450000D01*
X108250000Y-137500000D02*
X108250000Y-136750000D01*
X108250000Y-136750000D02*
X110050000Y-136750000D01*
X106750000Y-137500000D02*
X103250000Y-137500000D01*
X106750000Y-136750000D02*
X106750000Y-137500000D01*
X103250000Y-137500000D02*
X103250000Y-136750000D01*
X103250000Y-136750000D02*
X106750000Y-136750000D01*
X101750000Y-137500000D02*
X99950000Y-137500000D01*
X101750000Y-136750000D02*
X101750000Y-137500000D01*
X100700000Y-141950000D02*
X105000000Y-141950000D01*
X100700000Y-139000000D02*
X100700000Y-141950000D01*
X99950000Y-139000000D02*
X100700000Y-139000000D01*
X99950000Y-137500000D02*
X99950000Y-136750000D01*
X99950000Y-136750000D02*
X101750000Y-136750000D01*
X99940000Y-142710000D02*
X99940000Y-136740000D01*
X99940000Y-136740000D02*
X110060000Y-136740000D01*
%LPC*%
D12*
X132937205Y-61691342D03*
D13*
X130737500Y-60421342D03*
X128537795Y-59151342D03*
D14*
X156475000Y-107540000D03*
D13*
X156475000Y-105000000D03*
X156475000Y-102460000D03*
D15*
X72000000Y-88475000D03*
D16*
X72000000Y-91015000D03*
X72000000Y-93555000D03*
D17*
X194350700Y-62573168D03*
D18*
X54621568Y-115869258D03*
D13*
X55278968Y-118322710D03*
X55936368Y-120776162D03*
D17*
X15649300Y-147426832D03*
D19*
X150848658Y-81462205D03*
D13*
X149578658Y-79262500D03*
X148308658Y-77062795D03*
D20*
X112620000Y-143240000D03*
X112620000Y-140700000D03*
X112620000Y-138160000D03*
X112620000Y-135620000D03*
X112620000Y-133080000D03*
X112620000Y-130540000D03*
X112620000Y-128000000D03*
D21*
X97380000Y-128000000D03*
X97380000Y-130540000D03*
X97380000Y-133080000D03*
X97380000Y-135620000D03*
X97380000Y-138160000D03*
X97380000Y-140700000D03*
X97380000Y-143240000D03*
D22*
X147000000Y-100037919D03*
X147000000Y-102755719D03*
X147000000Y-105473519D03*
D23*
X154063632Y-120776162D03*
D13*
X154721032Y-118322710D03*
X155378432Y-115869258D03*
D24*
X61691342Y-77062795D03*
D13*
X60421342Y-79262500D03*
X59151342Y-81462205D03*
D25*
X120776162Y-55936368D03*
D13*
X118322710Y-55278968D03*
X115869258Y-54621568D03*
D26*
X76760000Y-91030000D03*
X76760000Y-93570000D03*
X76760000Y-96110000D03*
X76760000Y-98650000D03*
X92000000Y-93570000D03*
X76760000Y-101190000D03*
X76760000Y-103730000D03*
X76760000Y-106270000D03*
X76760000Y-108810000D03*
X76760000Y-111350000D03*
X76760000Y-113890000D03*
X76760000Y-116430000D03*
X76760000Y-118970000D03*
X76760000Y-121510000D03*
X92000000Y-121510000D03*
X92000000Y-118970000D03*
X92000000Y-116430000D03*
X92000000Y-113890000D03*
X92000000Y-111350000D03*
X92000000Y-108810000D03*
X92000000Y-106270000D03*
X92000000Y-103730000D03*
X92000000Y-101190000D03*
X92000000Y-98650000D03*
X92000000Y-96110000D03*
X76760000Y-88490000D03*
X92000000Y-91030000D03*
X92000000Y-88490000D03*
D17*
X194350700Y-147426832D03*
D27*
X53525000Y-102460000D03*
D13*
X53525000Y-105000000D03*
X53525000Y-107540000D03*
D28*
X139602271Y-143194373D03*
D13*
X141398322Y-141398322D03*
X143194373Y-139602271D03*
D17*
X15649300Y-62573168D03*
D29*
X107540000Y-53525000D03*
D13*
X105000000Y-53525000D03*
X102460000Y-53525000D03*
D30*
X98650000Y-82890000D03*
X101190000Y-82890000D03*
X103730000Y-82890000D03*
X106270000Y-82890000D03*
X108810000Y-82890000D03*
X111350000Y-82890000D03*
X98650000Y-65110000D03*
X101190000Y-65110000D03*
X103730000Y-65110000D03*
X106270000Y-65110000D03*
X108810000Y-65110000D03*
X111350000Y-65110000D03*
D31*
X128537795Y-150848658D03*
D13*
X130737500Y-149578658D03*
X132937205Y-148308658D03*
D32*
X77062795Y-148308658D03*
D13*
X79262500Y-149578658D03*
X81462205Y-150848658D03*
D33*
X148308658Y-132937205D03*
D13*
X149578658Y-130737500D03*
X150848658Y-128537795D03*
D34*
X94130742Y-54621568D03*
D13*
X91677290Y-55278968D03*
X89223838Y-55936368D03*
D35*
X115869258Y-155378432D03*
D13*
X118322710Y-154721032D03*
X120776162Y-154063632D03*
D36*
X59151342Y-128537795D03*
D13*
X60421342Y-130737500D03*
X61691342Y-132937205D03*
D37*
X70397729Y-66805627D03*
D13*
X68601678Y-68601678D03*
X66805627Y-70397729D03*
D38*
X143194373Y-70397729D03*
D13*
X141398322Y-68601678D03*
X139602271Y-66805627D03*
D39*
X89223838Y-154063632D03*
D13*
X91677290Y-154721032D03*
X94130742Y-155378432D03*
D40*
X47600000Y-62600000D03*
X42800000Y-62600000D03*
X38000000Y-62600000D03*
D41*
X99285000Y-122132000D03*
X97587944Y-121429056D03*
X100982056Y-121429056D03*
X96885000Y-119732000D03*
D17*
X99285000Y-119732000D03*
D41*
X101685000Y-119732000D03*
X97587944Y-118034944D03*
X100982056Y-118034944D03*
X99285000Y-117332000D03*
X99285000Y-92668000D03*
X97587944Y-91965056D03*
X100982056Y-91965056D03*
X96885000Y-90268000D03*
D17*
X99285000Y-90268000D03*
D41*
X101685000Y-90268000D03*
X97587944Y-88570944D03*
X100982056Y-88570944D03*
X99285000Y-87868000D03*
D15*
X121383000Y-121256000D03*
D16*
X123923000Y-121256000D03*
X126463000Y-121256000D03*
X129003000Y-121256000D03*
X131543000Y-121256000D03*
X134083000Y-121256000D03*
X136623000Y-121256000D03*
X139163000Y-121256000D03*
X139163000Y-88490000D03*
X136623000Y-88490000D03*
X134083000Y-88490000D03*
X131543000Y-88490000D03*
X129003000Y-88490000D03*
X126463000Y-88490000D03*
X123923000Y-88490000D03*
D15*
X121383000Y-88490000D03*
D42*
X81462205Y-59151342D03*
D13*
X79262500Y-60421342D03*
X77062795Y-61691342D03*
D43*
X55936368Y-89223838D03*
D13*
X55278968Y-91677290D03*
X54621568Y-94130742D03*
D44*
X102460000Y-156475000D03*
D13*
X105000000Y-156475000D03*
X107540000Y-156475000D03*
D45*
X66805627Y-139602271D03*
D13*
X68601678Y-141398322D03*
X70397729Y-143194373D03*
D46*
X155378432Y-94130742D03*
D13*
X154721032Y-91677290D03*
X154063632Y-89223838D03*
D47*
X52425000Y-62600000D03*
X50775000Y-62600000D03*
D48*
X107000000Y-145000000D03*
X106000000Y-145000000D03*
X105000000Y-145000000D03*
X104000000Y-145000000D03*
X103000000Y-145000000D03*
D49*
X108300000Y-148875000D03*
X101700000Y-148875000D03*
D50*
X100112124Y-104001212D03*
X100465678Y-103647658D03*
X100819231Y-103294105D03*
X101172785Y-102940551D03*
X101526338Y-102586998D03*
X101879891Y-102233445D03*
X102233445Y-101879891D03*
X102586998Y-101526338D03*
X102940551Y-101172785D03*
X103294105Y-100819231D03*
X103647658Y-100465678D03*
X104001212Y-100112124D03*
D51*
X105998788Y-100112124D03*
X106352342Y-100465678D03*
X106705895Y-100819231D03*
X107059449Y-101172785D03*
X107413002Y-101526338D03*
X107766555Y-101879891D03*
X108120109Y-102233445D03*
X108473662Y-102586998D03*
X108827215Y-102940551D03*
X109180769Y-103294105D03*
X109534322Y-103647658D03*
X109887876Y-104001212D03*
D50*
X109887876Y-105998788D03*
X109534322Y-106352342D03*
X109180769Y-106705895D03*
X108827215Y-107059449D03*
X108473662Y-107413002D03*
X108120109Y-107766555D03*
X107766555Y-108120109D03*
X107413002Y-108473662D03*
X107059449Y-108827215D03*
X106705895Y-109180769D03*
X106352342Y-109534322D03*
X105998788Y-109887876D03*
D51*
X104001212Y-109887876D03*
X103647658Y-109534322D03*
X103294105Y-109180769D03*
X102940551Y-108827215D03*
X102586998Y-108473662D03*
X102233445Y-108120109D03*
X101879891Y-107766555D03*
X101526338Y-107413002D03*
X101172785Y-107059449D03*
X100819231Y-106705895D03*
X100465678Y-106352342D03*
X100112124Y-105998788D03*
D52*
X107500000Y-139200000D03*
D53*
X105000000Y-139200000D03*
X102500000Y-139200000D03*
%LPD*%
M02*
