G04 #@! TF.GenerationSoftware,KiCad,Pcbnew,7.0.9*
G04 #@! TF.CreationDate,2024-02-22T22:00:58+08:00*
G04 #@! TF.ProjectId,layer3,6c617965-7233-42e6-9b69-6361645f7063,0.1*
G04 #@! TF.SameCoordinates,Original*
G04 #@! TF.FileFunction,Soldermask,Top*
G04 #@! TF.FilePolarity,Negative*
%FSLAX46Y46*%
G04 Gerber Fmt 4.6, Leading zero omitted, Abs format (unit mm)*
G04 Created by KiCad (PCBNEW 7.0.9) date 2024-02-22 22:00:58*
%MOMM*%
%LPD*%
G01*
G04 APERTURE LIST*
G04 Aperture macros list*
%AMRoundRect*
0 Rectangle with rounded corners*
0 $1 Rounding radius*
0 $2 $3 $4 $5 $6 $7 $8 $9 X,Y pos of 4 corners*
0 Add a 4 corners polygon primitive as box body*
4,1,4,$2,$3,$4,$5,$6,$7,$8,$9,$2,$3,0*
0 Add four circle primitives for the rounded corners*
1,1,$1+$1,$2,$3*
1,1,$1+$1,$4,$5*
1,1,$1+$1,$6,$7*
1,1,$1+$1,$8,$9*
0 Add four rect primitives between the rounded corners*
20,1,$1+$1,$2,$3,$4,$5,0*
20,1,$1+$1,$4,$5,$6,$7,0*
20,1,$1+$1,$6,$7,$8,$9,0*
20,1,$1+$1,$8,$9,$2,$3,0*%
G04 Aperture macros list end*
%ADD10RoundRect,0.250200X0.887643X0.237843X-0.237843X0.887643X-0.887643X-0.237843X0.237843X-0.887643X0*%
%ADD11C,1.800000*%
%ADD12RoundRect,0.250200X0.649800X-0.649800X0.649800X0.649800X-0.649800X0.649800X-0.649800X-0.649800X0*%
%ADD13R,1.700000X1.700000*%
%ADD14O,1.700000X1.700000*%
%ADD15RoundRect,0.218750X0.218750X0.256250X-0.218750X0.256250X-0.218750X-0.256250X0.218750X-0.256250X0*%
%ADD16C,6.400000*%
%ADD17RoundRect,0.250200X-0.795839X0.459478X-0.459478X-0.795839X0.795839X-0.459478X0.459478X0.795839X0*%
%ADD18RoundRect,0.250200X0.887643X-0.237843X0.237843X0.887643X-0.887643X0.237843X-0.237843X-0.887643X0*%
%ADD19RoundRect,0.150000X-0.600000X-0.600000X0.600000X-0.600000X0.600000X0.600000X-0.600000X0.600000X0*%
%ADD20RoundRect,0.150000X0.600000X0.600000X-0.600000X0.600000X-0.600000X-0.600000X0.600000X-0.600000X0*%
%ADD21C,2.082800*%
%ADD22RoundRect,0.225000X-0.225000X-0.250000X0.225000X-0.250000X0.225000X0.250000X-0.225000X0.250000X0*%
%ADD23RoundRect,0.250200X0.459478X-0.795839X0.795839X0.459478X-0.459478X0.795839X-0.795839X-0.459478X0*%
%ADD24RoundRect,0.250200X-0.237843X0.887643X-0.887643X-0.237843X0.237843X-0.887643X0.887643X0.237843X0*%
%ADD25RoundRect,0.225000X-0.250000X0.225000X-0.250000X-0.225000X0.250000X-0.225000X0.250000X0.225000X0*%
%ADD26RoundRect,0.250200X0.795839X0.459478X-0.459478X0.795839X-0.795839X-0.459478X0.459478X-0.795839X0*%
%ADD27C,1.530000*%
%ADD28RoundRect,0.250200X-0.649800X0.649800X-0.649800X-0.649800X0.649800X-0.649800X0.649800X0.649800X0*%
%ADD29RoundRect,0.150000X0.150000X-0.512500X0.150000X0.512500X-0.150000X0.512500X-0.150000X-0.512500X0*%
%ADD30RoundRect,0.200000X-0.200000X-0.275000X0.200000X-0.275000X0.200000X0.275000X-0.200000X0.275000X0*%
%ADD31RoundRect,0.250200X0.000000X-0.918956X0.918956X0.000000X0.000000X0.918956X-0.918956X0.000000X0*%
%ADD32RoundRect,0.250200X0.649800X0.649800X-0.649800X0.649800X-0.649800X-0.649800X0.649800X-0.649800X0*%
%ADD33C,1.778000*%
%ADD34RoundRect,0.250200X-0.237843X-0.887643X0.887643X-0.237843X0.237843X0.887643X-0.887643X0.237843X0*%
%ADD35RoundRect,0.250200X-0.887643X-0.237843X0.237843X-0.887643X0.887643X0.237843X-0.237843X0.887643X0*%
%ADD36RoundRect,0.250200X0.237843X-0.887643X0.887643X0.237843X-0.237843X0.887643X-0.887643X-0.237843X0*%
%ADD37RoundRect,0.250200X0.459478X0.795839X-0.795839X0.459478X-0.459478X-0.795839X0.795839X-0.459478X0*%
%ADD38RoundRect,0.250200X-0.459478X-0.795839X0.795839X-0.459478X0.459478X0.795839X-0.795839X0.459478X0*%
%ADD39RoundRect,0.150000X0.625000X-0.150000X0.625000X0.150000X-0.625000X0.150000X-0.625000X-0.150000X0*%
%ADD40RoundRect,0.250000X0.650000X-0.350000X0.650000X0.350000X-0.650000X0.350000X-0.650000X-0.350000X0*%
%ADD41RoundRect,0.250200X-0.887643X0.237843X-0.237843X-0.887643X0.887643X-0.237843X0.237843X0.887643X0*%
%ADD42RoundRect,0.250200X0.000000X0.918956X-0.918956X0.000000X0.000000X-0.918956X0.918956X0.000000X0*%
%ADD43RoundRect,0.250200X0.918956X0.000000X0.000000X0.918956X-0.918956X0.000000X0.000000X-0.918956X0*%
%ADD44RoundRect,0.225000X0.250000X-0.225000X0.250000X0.225000X-0.250000X0.225000X-0.250000X-0.225000X0*%
%ADD45RoundRect,0.250200X-0.795839X-0.459478X0.459478X-0.795839X0.795839X0.459478X-0.459478X0.795839X0*%
%ADD46RoundRect,0.200000X-0.200000X-0.800000X0.200000X-0.800000X0.200000X0.800000X-0.200000X0.800000X0*%
%ADD47C,3.703200*%
%ADD48R,2.400000X2.000000*%
%ADD49C,0.800000*%
%ADD50RoundRect,0.250200X0.237843X0.887643X-0.887643X0.237843X-0.237843X-0.887643X0.887643X-0.237843X0*%
%ADD51RoundRect,0.200000X-0.275000X0.200000X-0.275000X-0.200000X0.275000X-0.200000X0.275000X0.200000X0*%
%ADD52RoundRect,0.150000X-0.625000X0.150000X-0.625000X-0.150000X0.625000X-0.150000X0.625000X0.150000X0*%
%ADD53RoundRect,0.250000X-0.650000X0.350000X-0.650000X-0.350000X0.650000X-0.350000X0.650000X0.350000X0*%
%ADD54RoundRect,0.250200X-0.459478X0.795839X-0.795839X-0.459478X0.459478X-0.795839X0.795839X0.459478X0*%
%ADD55RoundRect,0.250200X-0.649800X-0.649800X0.649800X-0.649800X0.649800X0.649800X-0.649800X0.649800X0*%
%ADD56RoundRect,0.250200X-0.918956X0.000000X0.000000X-0.918956X0.918956X0.000000X0.000000X0.918956X0*%
%ADD57RoundRect,0.250200X0.795839X-0.459478X0.459478X0.795839X-0.795839X0.459478X-0.459478X-0.795839X0*%
%ADD58RoundRect,0.250000X0.600000X0.725000X-0.600000X0.725000X-0.600000X-0.725000X0.600000X-0.725000X0*%
%ADD59O,1.700000X1.950000*%
G04 APERTURE END LIST*
D10*
X132937205Y-61691342D03*
D11*
X130737500Y-60421342D03*
X128537795Y-59151342D03*
D12*
X156475000Y-107540000D03*
D11*
X156475000Y-105000000D03*
X156475000Y-102460000D03*
D13*
X72000000Y-88475000D03*
D14*
X72000000Y-91015000D03*
X72000000Y-93555000D03*
D15*
X116575000Y-101000000D03*
X115000000Y-101000000D03*
D16*
X194350700Y-62573168D03*
D17*
X54621568Y-115869258D03*
D11*
X55278968Y-118322710D03*
X55936368Y-120776162D03*
D16*
X15649300Y-147426832D03*
D18*
X150848658Y-81462205D03*
D11*
X149578658Y-79262500D03*
X148308658Y-77062795D03*
D19*
X112620000Y-143240000D03*
X112620000Y-140700000D03*
X112620000Y-138160000D03*
X112620000Y-135620000D03*
X112620000Y-133080000D03*
X112620000Y-130540000D03*
X112620000Y-128000000D03*
D20*
X97380000Y-128000000D03*
X97380000Y-130540000D03*
X97380000Y-133080000D03*
X97380000Y-135620000D03*
X97380000Y-138160000D03*
X97380000Y-140700000D03*
X97380000Y-143240000D03*
D21*
X147000000Y-100037919D03*
X147000000Y-102755719D03*
X147000000Y-105473519D03*
D22*
X104000000Y-100980000D03*
X105550000Y-100980000D03*
D23*
X154063632Y-120776162D03*
D11*
X154721032Y-118322710D03*
X155378432Y-115869258D03*
D24*
X61691342Y-77062795D03*
D11*
X60421342Y-79262500D03*
X59151342Y-81462205D03*
D25*
X99000000Y-98225000D03*
X99000000Y-99775000D03*
D26*
X120776162Y-55936368D03*
D11*
X118322710Y-55278968D03*
X115869258Y-54621568D03*
D27*
X76760000Y-91030000D03*
X76760000Y-93570000D03*
X76760000Y-96110000D03*
X76760000Y-98650000D03*
X92000000Y-93570000D03*
X76760000Y-101190000D03*
X76760000Y-103730000D03*
X76760000Y-106270000D03*
X76760000Y-108810000D03*
X76760000Y-111350000D03*
X76760000Y-113890000D03*
X76760000Y-116430000D03*
X76760000Y-118970000D03*
X76760000Y-121510000D03*
X92000000Y-121510000D03*
X92000000Y-118970000D03*
X92000000Y-116430000D03*
X92000000Y-113890000D03*
X92000000Y-111350000D03*
X92000000Y-108810000D03*
X92000000Y-106270000D03*
X92000000Y-103730000D03*
X92000000Y-101190000D03*
X92000000Y-98650000D03*
X92000000Y-96110000D03*
X76760000Y-88490000D03*
X92000000Y-91030000D03*
X92000000Y-88490000D03*
D16*
X194350700Y-147426832D03*
D22*
X104000000Y-103490000D03*
X105550000Y-103490000D03*
D28*
X53525000Y-102460000D03*
D11*
X53525000Y-105000000D03*
X53525000Y-107540000D03*
D29*
X104050000Y-76137500D03*
X105000000Y-76137500D03*
X105950000Y-76137500D03*
X105950000Y-73862500D03*
X105000000Y-73862500D03*
X104050000Y-73862500D03*
D30*
X103175000Y-112000000D03*
X104825000Y-112000000D03*
D31*
X139602271Y-143194373D03*
D11*
X141398322Y-141398322D03*
X143194373Y-139602271D03*
D22*
X104000000Y-106000000D03*
X105550000Y-106000000D03*
D16*
X15649300Y-62573168D03*
D32*
X107540000Y-53525000D03*
D11*
X105000000Y-53525000D03*
X102460000Y-53525000D03*
D33*
X98650000Y-82890000D03*
X101190000Y-82890000D03*
X103730000Y-82890000D03*
X106270000Y-82890000D03*
X108810000Y-82890000D03*
X111350000Y-82890000D03*
X98650000Y-65110000D03*
X101190000Y-65110000D03*
X103730000Y-65110000D03*
X106270000Y-65110000D03*
X108810000Y-65110000D03*
X111350000Y-65110000D03*
D34*
X128537795Y-150848658D03*
D11*
X130737500Y-149578658D03*
X132937205Y-148308658D03*
D35*
X77062795Y-148308658D03*
D11*
X79262500Y-149578658D03*
X81462205Y-150848658D03*
D36*
X148308658Y-132937205D03*
D11*
X149578658Y-130737500D03*
X150848658Y-128537795D03*
D37*
X94130742Y-54621568D03*
D11*
X91677290Y-55278968D03*
X89223838Y-55936368D03*
D38*
X115869258Y-155378432D03*
D11*
X118322710Y-154721032D03*
X120776162Y-154063632D03*
D29*
X104050000Y-136137500D03*
X105000000Y-136137500D03*
X105950000Y-136137500D03*
X105950000Y-133862500D03*
X105000000Y-133862500D03*
X104050000Y-133862500D03*
D39*
X75000000Y-134000000D03*
X75000000Y-133000000D03*
X75000000Y-132000000D03*
X75000000Y-131000000D03*
X75000000Y-130000000D03*
D40*
X78875000Y-135300000D03*
X78875000Y-128700000D03*
D41*
X59151342Y-128537795D03*
D11*
X60421342Y-130737500D03*
X61691342Y-132937205D03*
D42*
X70397729Y-66805627D03*
D11*
X68601678Y-68601678D03*
X66805627Y-70397729D03*
D43*
X143194373Y-70397729D03*
D11*
X141398322Y-68601678D03*
X139602271Y-66805627D03*
D44*
X99000000Y-111775000D03*
X99000000Y-110225000D03*
D45*
X89223838Y-154063632D03*
D11*
X91677290Y-154721032D03*
X94130742Y-155378432D03*
D46*
X145000000Y-93979436D03*
X149200000Y-93979436D03*
D47*
X47600000Y-62600000D03*
X42800000Y-62600000D03*
X38000000Y-62600000D03*
D48*
X99000000Y-103150000D03*
X99000000Y-106850000D03*
D49*
X99285000Y-122132000D03*
X97587944Y-121429056D03*
X100982056Y-121429056D03*
X96885000Y-119732000D03*
D16*
X99285000Y-119732000D03*
D49*
X101685000Y-119732000D03*
X97587944Y-118034944D03*
X100982056Y-118034944D03*
X99285000Y-117332000D03*
X99285000Y-92668000D03*
X97587944Y-91965056D03*
X100982056Y-91965056D03*
X96885000Y-90268000D03*
D16*
X99285000Y-90268000D03*
D49*
X101685000Y-90268000D03*
X97587944Y-88570944D03*
X100982056Y-88570944D03*
X99285000Y-87868000D03*
D13*
X121383000Y-121256000D03*
D14*
X123923000Y-121256000D03*
X126463000Y-121256000D03*
X129003000Y-121256000D03*
X131543000Y-121256000D03*
X134083000Y-121256000D03*
X136623000Y-121256000D03*
X139163000Y-121256000D03*
X139163000Y-88490000D03*
X136623000Y-88490000D03*
X134083000Y-88490000D03*
X131543000Y-88490000D03*
X129003000Y-88490000D03*
X126463000Y-88490000D03*
X123923000Y-88490000D03*
D13*
X121383000Y-88490000D03*
D50*
X81462205Y-59151342D03*
D11*
X79262500Y-60421342D03*
X77062795Y-61691342D03*
D51*
X145000000Y-88175000D03*
X145000000Y-89825000D03*
D52*
X135000000Y-76000000D03*
X135000000Y-77000000D03*
X135000000Y-78000000D03*
X135000000Y-79000000D03*
X135000000Y-80000000D03*
D53*
X131125000Y-74700000D03*
X131125000Y-81300000D03*
D22*
X104000000Y-108510000D03*
X105550000Y-108510000D03*
D54*
X55936368Y-89223838D03*
D11*
X55278968Y-91677290D03*
X54621568Y-94130742D03*
D51*
X112000000Y-104000000D03*
X112000000Y-105650000D03*
D55*
X102460000Y-156475000D03*
D11*
X105000000Y-156475000D03*
X107540000Y-156475000D03*
D56*
X66805627Y-139602271D03*
D11*
X68601678Y-141398322D03*
X70397729Y-143194373D03*
D39*
X75000000Y-80000000D03*
X75000000Y-79000000D03*
X75000000Y-78000000D03*
X75000000Y-77000000D03*
X75000000Y-76000000D03*
D40*
X78875000Y-81300000D03*
X78875000Y-74700000D03*
D30*
X111350000Y-101000000D03*
X113000000Y-101000000D03*
D57*
X155378432Y-94130742D03*
D11*
X154721032Y-91677290D03*
X154063632Y-89223838D03*
D52*
X135000000Y-130000000D03*
X135000000Y-131000000D03*
X135000000Y-132000000D03*
X135000000Y-133000000D03*
X135000000Y-134000000D03*
D53*
X131125000Y-128700000D03*
X131125000Y-135300000D03*
D52*
X145675000Y-111255719D03*
X145675000Y-112255719D03*
X145675000Y-113255719D03*
X145675000Y-114255719D03*
X145675000Y-115255719D03*
X145675000Y-116255719D03*
D53*
X148200000Y-109955719D03*
X148200000Y-117555719D03*
D58*
X107500000Y-139200000D03*
D59*
X105000000Y-139200000D03*
X102500000Y-139200000D03*
M02*
