G04 #@! TF.GenerationSoftware,KiCad,Pcbnew,7.0.9*
G04 #@! TF.CreationDate,2024-02-22T22:00:58+08:00*
G04 #@! TF.ProjectId,layer3,6c617965-7233-42e6-9b69-6361645f7063,0.1*
G04 #@! TF.SameCoordinates,Original*
G04 #@! TF.FileFunction,Legend,Top*
G04 #@! TF.FilePolarity,Positive*
%FSLAX46Y46*%
G04 Gerber Fmt 4.6, Leading zero omitted, Abs format (unit mm)*
G04 Created by KiCad (PCBNEW 7.0.9) date 2024-02-22 22:00:58*
%MOMM*%
%LPD*%
G01*
G04 APERTURE LIST*
G04 Aperture macros list*
%AMRoundRect*
0 Rectangle with rounded corners*
0 $1 Rounding radius*
0 $2 $3 $4 $5 $6 $7 $8 $9 X,Y pos of 4 corners*
0 Add a 4 corners polygon primitive as box body*
4,1,4,$2,$3,$4,$5,$6,$7,$8,$9,$2,$3,0*
0 Add four circle primitives for the rounded corners*
1,1,$1+$1,$2,$3*
1,1,$1+$1,$4,$5*
1,1,$1+$1,$6,$7*
1,1,$1+$1,$8,$9*
0 Add four rect primitives between the rounded corners*
20,1,$1+$1,$2,$3,$4,$5,0*
20,1,$1+$1,$4,$5,$6,$7,0*
20,1,$1+$1,$6,$7,$8,$9,0*
20,1,$1+$1,$8,$9,$2,$3,0*%
G04 Aperture macros list end*
%ADD10C,0.200000*%
%ADD11C,0.150000*%
%ADD12C,0.127000*%
%ADD13C,0.120000*%
%ADD14C,0.203200*%
%ADD15C,0.100000*%
%ADD16RoundRect,0.250200X0.887643X0.237843X-0.237843X0.887643X-0.887643X-0.237843X0.237843X-0.887643X0*%
%ADD17C,1.800000*%
%ADD18RoundRect,0.250200X0.649800X-0.649800X0.649800X0.649800X-0.649800X0.649800X-0.649800X-0.649800X0*%
%ADD19R,1.700000X1.700000*%
%ADD20O,1.700000X1.700000*%
%ADD21RoundRect,0.218750X0.218750X0.256250X-0.218750X0.256250X-0.218750X-0.256250X0.218750X-0.256250X0*%
%ADD22C,6.400000*%
%ADD23RoundRect,0.250200X-0.795839X0.459478X-0.459478X-0.795839X0.795839X-0.459478X0.459478X0.795839X0*%
%ADD24RoundRect,0.250200X0.887643X-0.237843X0.237843X0.887643X-0.887643X0.237843X-0.237843X-0.887643X0*%
%ADD25RoundRect,0.150000X-0.600000X-0.600000X0.600000X-0.600000X0.600000X0.600000X-0.600000X0.600000X0*%
%ADD26RoundRect,0.150000X0.600000X0.600000X-0.600000X0.600000X-0.600000X-0.600000X0.600000X-0.600000X0*%
%ADD27C,2.082800*%
%ADD28RoundRect,0.225000X-0.225000X-0.250000X0.225000X-0.250000X0.225000X0.250000X-0.225000X0.250000X0*%
%ADD29RoundRect,0.250200X0.459478X-0.795839X0.795839X0.459478X-0.459478X0.795839X-0.795839X-0.459478X0*%
%ADD30RoundRect,0.250200X-0.237843X0.887643X-0.887643X-0.237843X0.237843X-0.887643X0.887643X0.237843X0*%
%ADD31RoundRect,0.225000X-0.250000X0.225000X-0.250000X-0.225000X0.250000X-0.225000X0.250000X0.225000X0*%
%ADD32RoundRect,0.250200X0.795839X0.459478X-0.459478X0.795839X-0.795839X-0.459478X0.459478X-0.795839X0*%
%ADD33C,1.530000*%
%ADD34RoundRect,0.250200X-0.649800X0.649800X-0.649800X-0.649800X0.649800X-0.649800X0.649800X0.649800X0*%
%ADD35RoundRect,0.150000X0.150000X-0.512500X0.150000X0.512500X-0.150000X0.512500X-0.150000X-0.512500X0*%
%ADD36RoundRect,0.200000X-0.200000X-0.275000X0.200000X-0.275000X0.200000X0.275000X-0.200000X0.275000X0*%
%ADD37RoundRect,0.250200X0.000000X-0.918956X0.918956X0.000000X0.000000X0.918956X-0.918956X0.000000X0*%
%ADD38RoundRect,0.250200X0.649800X0.649800X-0.649800X0.649800X-0.649800X-0.649800X0.649800X-0.649800X0*%
%ADD39C,1.778000*%
%ADD40RoundRect,0.250200X-0.237843X-0.887643X0.887643X-0.237843X0.237843X0.887643X-0.887643X0.237843X0*%
%ADD41RoundRect,0.250200X-0.887643X-0.237843X0.237843X-0.887643X0.887643X0.237843X-0.237843X0.887643X0*%
%ADD42RoundRect,0.250200X0.237843X-0.887643X0.887643X0.237843X-0.237843X0.887643X-0.887643X-0.237843X0*%
%ADD43RoundRect,0.250200X0.459478X0.795839X-0.795839X0.459478X-0.459478X-0.795839X0.795839X-0.459478X0*%
%ADD44RoundRect,0.250200X-0.459478X-0.795839X0.795839X-0.459478X0.459478X0.795839X-0.795839X0.459478X0*%
%ADD45RoundRect,0.150000X0.625000X-0.150000X0.625000X0.150000X-0.625000X0.150000X-0.625000X-0.150000X0*%
%ADD46RoundRect,0.250000X0.650000X-0.350000X0.650000X0.350000X-0.650000X0.350000X-0.650000X-0.350000X0*%
%ADD47RoundRect,0.250200X-0.887643X0.237843X-0.237843X-0.887643X0.887643X-0.237843X0.237843X0.887643X0*%
%ADD48RoundRect,0.250200X0.000000X0.918956X-0.918956X0.000000X0.000000X-0.918956X0.918956X0.000000X0*%
%ADD49RoundRect,0.250200X0.918956X0.000000X0.000000X0.918956X-0.918956X0.000000X0.000000X-0.918956X0*%
%ADD50RoundRect,0.225000X0.250000X-0.225000X0.250000X0.225000X-0.250000X0.225000X-0.250000X-0.225000X0*%
%ADD51RoundRect,0.250200X-0.795839X-0.459478X0.459478X-0.795839X0.795839X0.459478X-0.459478X0.795839X0*%
%ADD52RoundRect,0.200000X-0.200000X-0.800000X0.200000X-0.800000X0.200000X0.800000X-0.200000X0.800000X0*%
%ADD53C,3.703200*%
%ADD54R,2.400000X2.000000*%
%ADD55C,0.800000*%
%ADD56RoundRect,0.250200X0.237843X0.887643X-0.887643X0.237843X-0.237843X-0.887643X0.887643X-0.237843X0*%
%ADD57RoundRect,0.200000X-0.275000X0.200000X-0.275000X-0.200000X0.275000X-0.200000X0.275000X0.200000X0*%
%ADD58RoundRect,0.150000X-0.625000X0.150000X-0.625000X-0.150000X0.625000X-0.150000X0.625000X0.150000X0*%
%ADD59RoundRect,0.250000X-0.650000X0.350000X-0.650000X-0.350000X0.650000X-0.350000X0.650000X0.350000X0*%
%ADD60RoundRect,0.250200X-0.459478X0.795839X-0.795839X-0.459478X0.459478X-0.795839X0.795839X0.459478X0*%
%ADD61RoundRect,0.250200X-0.649800X-0.649800X0.649800X-0.649800X0.649800X0.649800X-0.649800X0.649800X0*%
%ADD62RoundRect,0.250200X-0.918956X0.000000X0.000000X-0.918956X0.918956X0.000000X0.000000X0.918956X0*%
%ADD63RoundRect,0.250200X0.795839X-0.459478X0.459478X0.795839X-0.795839X0.459478X-0.459478X-0.795839X0*%
%ADD64RoundRect,0.250000X0.600000X0.725000X-0.600000X0.725000X-0.600000X-0.725000X0.600000X-0.725000X0*%
%ADD65O,1.700000X1.950000*%
G04 APERTURE END LIST*
D10*
X100380951Y-79652219D02*
X100380951Y-80366504D01*
X100380951Y-80366504D02*
X100333332Y-80509361D01*
X100333332Y-80509361D02*
X100238094Y-80604600D01*
X100238094Y-80604600D02*
X100095237Y-80652219D01*
X100095237Y-80652219D02*
X99999999Y-80652219D01*
X101333332Y-80652219D02*
X100857142Y-80652219D01*
X100857142Y-80652219D02*
X100857142Y-79652219D01*
X102238094Y-80556980D02*
X102190475Y-80604600D01*
X102190475Y-80604600D02*
X102047618Y-80652219D01*
X102047618Y-80652219D02*
X101952380Y-80652219D01*
X101952380Y-80652219D02*
X101809523Y-80604600D01*
X101809523Y-80604600D02*
X101714285Y-80509361D01*
X101714285Y-80509361D02*
X101666666Y-80414123D01*
X101666666Y-80414123D02*
X101619047Y-80223647D01*
X101619047Y-80223647D02*
X101619047Y-80080790D01*
X101619047Y-80080790D02*
X101666666Y-79890314D01*
X101666666Y-79890314D02*
X101714285Y-79795076D01*
X101714285Y-79795076D02*
X101809523Y-79699838D01*
X101809523Y-79699838D02*
X101952380Y-79652219D01*
X101952380Y-79652219D02*
X102047618Y-79652219D01*
X102047618Y-79652219D02*
X102190475Y-79699838D01*
X102190475Y-79699838D02*
X102238094Y-79747457D01*
X102952380Y-79652219D02*
X102952380Y-80366504D01*
X102952380Y-80366504D02*
X102904761Y-80509361D01*
X102904761Y-80509361D02*
X102809523Y-80604600D01*
X102809523Y-80604600D02*
X102666666Y-80652219D01*
X102666666Y-80652219D02*
X102571428Y-80652219D01*
X103904761Y-80652219D02*
X103428571Y-80652219D01*
X103428571Y-80652219D02*
X103428571Y-79652219D01*
X104809523Y-80556980D02*
X104761904Y-80604600D01*
X104761904Y-80604600D02*
X104619047Y-80652219D01*
X104619047Y-80652219D02*
X104523809Y-80652219D01*
X104523809Y-80652219D02*
X104380952Y-80604600D01*
X104380952Y-80604600D02*
X104285714Y-80509361D01*
X104285714Y-80509361D02*
X104238095Y-80414123D01*
X104238095Y-80414123D02*
X104190476Y-80223647D01*
X104190476Y-80223647D02*
X104190476Y-80080790D01*
X104190476Y-80080790D02*
X104238095Y-79890314D01*
X104238095Y-79890314D02*
X104285714Y-79795076D01*
X104285714Y-79795076D02*
X104380952Y-79699838D01*
X104380952Y-79699838D02*
X104523809Y-79652219D01*
X104523809Y-79652219D02*
X104619047Y-79652219D01*
X104619047Y-79652219D02*
X104761904Y-79699838D01*
X104761904Y-79699838D02*
X104809523Y-79747457D01*
X105523809Y-79652219D02*
X105523809Y-80366504D01*
X105523809Y-80366504D02*
X105476190Y-80509361D01*
X105476190Y-80509361D02*
X105380952Y-80604600D01*
X105380952Y-80604600D02*
X105238095Y-80652219D01*
X105238095Y-80652219D02*
X105142857Y-80652219D01*
X106476190Y-80652219D02*
X106000000Y-80652219D01*
X106000000Y-80652219D02*
X106000000Y-79652219D01*
X107380952Y-80556980D02*
X107333333Y-80604600D01*
X107333333Y-80604600D02*
X107190476Y-80652219D01*
X107190476Y-80652219D02*
X107095238Y-80652219D01*
X107095238Y-80652219D02*
X106952381Y-80604600D01*
X106952381Y-80604600D02*
X106857143Y-80509361D01*
X106857143Y-80509361D02*
X106809524Y-80414123D01*
X106809524Y-80414123D02*
X106761905Y-80223647D01*
X106761905Y-80223647D02*
X106761905Y-80080790D01*
X106761905Y-80080790D02*
X106809524Y-79890314D01*
X106809524Y-79890314D02*
X106857143Y-79795076D01*
X106857143Y-79795076D02*
X106952381Y-79699838D01*
X106952381Y-79699838D02*
X107095238Y-79652219D01*
X107095238Y-79652219D02*
X107190476Y-79652219D01*
X107190476Y-79652219D02*
X107333333Y-79699838D01*
X107333333Y-79699838D02*
X107380952Y-79747457D01*
X108095238Y-79652219D02*
X108095238Y-80366504D01*
X108095238Y-80366504D02*
X108047619Y-80509361D01*
X108047619Y-80509361D02*
X107952381Y-80604600D01*
X107952381Y-80604600D02*
X107809524Y-80652219D01*
X107809524Y-80652219D02*
X107714286Y-80652219D01*
X109047619Y-80652219D02*
X108571429Y-80652219D01*
X108571429Y-80652219D02*
X108571429Y-79652219D01*
X109952381Y-80556980D02*
X109904762Y-80604600D01*
X109904762Y-80604600D02*
X109761905Y-80652219D01*
X109761905Y-80652219D02*
X109666667Y-80652219D01*
X109666667Y-80652219D02*
X109523810Y-80604600D01*
X109523810Y-80604600D02*
X109428572Y-80509361D01*
X109428572Y-80509361D02*
X109380953Y-80414123D01*
X109380953Y-80414123D02*
X109333334Y-80223647D01*
X109333334Y-80223647D02*
X109333334Y-80080790D01*
X109333334Y-80080790D02*
X109380953Y-79890314D01*
X109380953Y-79890314D02*
X109428572Y-79795076D01*
X109428572Y-79795076D02*
X109523810Y-79699838D01*
X109523810Y-79699838D02*
X109666667Y-79652219D01*
X109666667Y-79652219D02*
X109761905Y-79652219D01*
X109761905Y-79652219D02*
X109904762Y-79699838D01*
X109904762Y-79699838D02*
X109952381Y-79747457D01*
D11*
X128086932Y-62187497D02*
X128586932Y-61321472D01*
X128994197Y-62711306D02*
X128943617Y-62132247D01*
X128499325Y-62425592D02*
X128999325Y-61559567D01*
X128999325Y-61559567D02*
X129329239Y-61750043D01*
X129329239Y-61750043D02*
X129387909Y-61838901D01*
X129387909Y-61838901D02*
X129405338Y-61903950D01*
X129405338Y-61903950D02*
X129398959Y-62010238D01*
X129398959Y-62010238D02*
X129327530Y-62133956D01*
X129327530Y-62133956D02*
X129238672Y-62192625D01*
X129238672Y-62192625D02*
X129173623Y-62210055D01*
X129173623Y-62210055D02*
X129067335Y-62203675D01*
X129067335Y-62203675D02*
X128737420Y-62013199D01*
X129776492Y-62118236D02*
X129841541Y-62100806D01*
X129841541Y-62100806D02*
X129947829Y-62107186D01*
X129947829Y-62107186D02*
X130154026Y-62226233D01*
X130154026Y-62226233D02*
X130212695Y-62315092D01*
X130212695Y-62315092D02*
X130230124Y-62380140D01*
X130230124Y-62380140D02*
X130223745Y-62486429D01*
X130223745Y-62486429D02*
X130176126Y-62568907D01*
X130176126Y-62568907D02*
X130063458Y-62668816D01*
X130063458Y-62668816D02*
X129282872Y-62877973D01*
X129282872Y-62877973D02*
X129818983Y-63187497D01*
X130607658Y-62488138D02*
X131143769Y-62797662D01*
X131143769Y-62797662D02*
X130664618Y-62960910D01*
X130664618Y-62960910D02*
X130788335Y-63032338D01*
X130788335Y-63032338D02*
X130847005Y-63121197D01*
X130847005Y-63121197D02*
X130864434Y-63186245D01*
X130864434Y-63186245D02*
X130858055Y-63292533D01*
X130858055Y-63292533D02*
X130739007Y-63498730D01*
X130739007Y-63498730D02*
X130650149Y-63557399D01*
X130650149Y-63557399D02*
X130585100Y-63574829D01*
X130585100Y-63574829D02*
X130478812Y-63568449D01*
X130478812Y-63568449D02*
X130231376Y-63425592D01*
X130231376Y-63425592D02*
X130172707Y-63336734D01*
X130172707Y-63336734D02*
X130155277Y-63271685D01*
X154529819Y-106492380D02*
X153529819Y-106492380D01*
X154529819Y-105444762D02*
X154053628Y-105778095D01*
X154529819Y-106016190D02*
X153529819Y-106016190D01*
X153529819Y-106016190D02*
X153529819Y-105635238D01*
X153529819Y-105635238D02*
X153577438Y-105540000D01*
X153577438Y-105540000D02*
X153625057Y-105492381D01*
X153625057Y-105492381D02*
X153720295Y-105444762D01*
X153720295Y-105444762D02*
X153863152Y-105444762D01*
X153863152Y-105444762D02*
X153958390Y-105492381D01*
X153958390Y-105492381D02*
X154006009Y-105540000D01*
X154006009Y-105540000D02*
X154053628Y-105635238D01*
X154053628Y-105635238D02*
X154053628Y-106016190D01*
X154529819Y-104492381D02*
X154529819Y-105063809D01*
X154529819Y-104778095D02*
X153529819Y-104778095D01*
X153529819Y-104778095D02*
X153672676Y-104873333D01*
X153672676Y-104873333D02*
X153767914Y-104968571D01*
X153767914Y-104968571D02*
X153815533Y-105063809D01*
X154529819Y-104016190D02*
X154529819Y-103825714D01*
X154529819Y-103825714D02*
X154482200Y-103730476D01*
X154482200Y-103730476D02*
X154434580Y-103682857D01*
X154434580Y-103682857D02*
X154291723Y-103587619D01*
X154291723Y-103587619D02*
X154101247Y-103540000D01*
X154101247Y-103540000D02*
X153720295Y-103540000D01*
X153720295Y-103540000D02*
X153625057Y-103587619D01*
X153625057Y-103587619D02*
X153577438Y-103635238D01*
X153577438Y-103635238D02*
X153529819Y-103730476D01*
X153529819Y-103730476D02*
X153529819Y-103920952D01*
X153529819Y-103920952D02*
X153577438Y-104016190D01*
X153577438Y-104016190D02*
X153625057Y-104063809D01*
X153625057Y-104063809D02*
X153720295Y-104111428D01*
X153720295Y-104111428D02*
X153958390Y-104111428D01*
X153958390Y-104111428D02*
X154053628Y-104063809D01*
X154053628Y-104063809D02*
X154101247Y-104016190D01*
X154101247Y-104016190D02*
X154148866Y-103920952D01*
X154148866Y-103920952D02*
X154148866Y-103730476D01*
X154148866Y-103730476D02*
X154101247Y-103635238D01*
X154101247Y-103635238D02*
X154053628Y-103587619D01*
X154053628Y-103587619D02*
X153958390Y-103540000D01*
X67785714Y-86599819D02*
X67785714Y-85599819D01*
X67785714Y-85599819D02*
X68023809Y-85599819D01*
X68023809Y-85599819D02*
X68166666Y-85647438D01*
X68166666Y-85647438D02*
X68261904Y-85742676D01*
X68261904Y-85742676D02*
X68309523Y-85837914D01*
X68309523Y-85837914D02*
X68357142Y-86028390D01*
X68357142Y-86028390D02*
X68357142Y-86171247D01*
X68357142Y-86171247D02*
X68309523Y-86361723D01*
X68309523Y-86361723D02*
X68261904Y-86456961D01*
X68261904Y-86456961D02*
X68166666Y-86552200D01*
X68166666Y-86552200D02*
X68023809Y-86599819D01*
X68023809Y-86599819D02*
X67785714Y-86599819D01*
X69357142Y-86599819D02*
X69023809Y-86123628D01*
X68785714Y-86599819D02*
X68785714Y-85599819D01*
X68785714Y-85599819D02*
X69166666Y-85599819D01*
X69166666Y-85599819D02*
X69261904Y-85647438D01*
X69261904Y-85647438D02*
X69309523Y-85695057D01*
X69309523Y-85695057D02*
X69357142Y-85790295D01*
X69357142Y-85790295D02*
X69357142Y-85933152D01*
X69357142Y-85933152D02*
X69309523Y-86028390D01*
X69309523Y-86028390D02*
X69261904Y-86076009D01*
X69261904Y-86076009D02*
X69166666Y-86123628D01*
X69166666Y-86123628D02*
X68785714Y-86123628D01*
X69785714Y-86599819D02*
X69785714Y-85599819D01*
X70595237Y-86076009D02*
X70738094Y-86123628D01*
X70738094Y-86123628D02*
X70785713Y-86171247D01*
X70785713Y-86171247D02*
X70833332Y-86266485D01*
X70833332Y-86266485D02*
X70833332Y-86409342D01*
X70833332Y-86409342D02*
X70785713Y-86504580D01*
X70785713Y-86504580D02*
X70738094Y-86552200D01*
X70738094Y-86552200D02*
X70642856Y-86599819D01*
X70642856Y-86599819D02*
X70261904Y-86599819D01*
X70261904Y-86599819D02*
X70261904Y-85599819D01*
X70261904Y-85599819D02*
X70595237Y-85599819D01*
X70595237Y-85599819D02*
X70690475Y-85647438D01*
X70690475Y-85647438D02*
X70738094Y-85695057D01*
X70738094Y-85695057D02*
X70785713Y-85790295D01*
X70785713Y-85790295D02*
X70785713Y-85885533D01*
X70785713Y-85885533D02*
X70738094Y-85980771D01*
X70738094Y-85980771D02*
X70690475Y-86028390D01*
X70690475Y-86028390D02*
X70595237Y-86076009D01*
X70595237Y-86076009D02*
X70261904Y-86076009D01*
X71595237Y-86076009D02*
X71738094Y-86123628D01*
X71738094Y-86123628D02*
X71785713Y-86171247D01*
X71785713Y-86171247D02*
X71833332Y-86266485D01*
X71833332Y-86266485D02*
X71833332Y-86409342D01*
X71833332Y-86409342D02*
X71785713Y-86504580D01*
X71785713Y-86504580D02*
X71738094Y-86552200D01*
X71738094Y-86552200D02*
X71642856Y-86599819D01*
X71642856Y-86599819D02*
X71261904Y-86599819D01*
X71261904Y-86599819D02*
X71261904Y-85599819D01*
X71261904Y-85599819D02*
X71595237Y-85599819D01*
X71595237Y-85599819D02*
X71690475Y-85647438D01*
X71690475Y-85647438D02*
X71738094Y-85695057D01*
X71738094Y-85695057D02*
X71785713Y-85790295D01*
X71785713Y-85790295D02*
X71785713Y-85885533D01*
X71785713Y-85885533D02*
X71738094Y-85980771D01*
X71738094Y-85980771D02*
X71690475Y-86028390D01*
X71690475Y-86028390D02*
X71595237Y-86076009D01*
X71595237Y-86076009D02*
X71261904Y-86076009D01*
X72738094Y-86599819D02*
X72261904Y-86599819D01*
X72261904Y-86599819D02*
X72261904Y-85599819D01*
X73071428Y-86076009D02*
X73404761Y-86076009D01*
X73547618Y-86599819D02*
X73071428Y-86599819D01*
X73071428Y-86599819D02*
X73071428Y-85599819D01*
X73071428Y-85599819D02*
X73547618Y-85599819D01*
X74547618Y-86599819D02*
X74214285Y-86123628D01*
X73976190Y-86599819D02*
X73976190Y-85599819D01*
X73976190Y-85599819D02*
X74357142Y-85599819D01*
X74357142Y-85599819D02*
X74452380Y-85647438D01*
X74452380Y-85647438D02*
X74499999Y-85695057D01*
X74499999Y-85695057D02*
X74547618Y-85790295D01*
X74547618Y-85790295D02*
X74547618Y-85933152D01*
X74547618Y-85933152D02*
X74499999Y-86028390D01*
X74499999Y-86028390D02*
X74452380Y-86076009D01*
X74452380Y-86076009D02*
X74357142Y-86123628D01*
X74357142Y-86123628D02*
X73976190Y-86123628D01*
X75261904Y-85599819D02*
X75261904Y-86314104D01*
X75261904Y-86314104D02*
X75214285Y-86456961D01*
X75214285Y-86456961D02*
X75119047Y-86552200D01*
X75119047Y-86552200D02*
X74976190Y-86599819D01*
X74976190Y-86599819D02*
X74880952Y-86599819D01*
X76261904Y-86599819D02*
X75690476Y-86599819D01*
X75976190Y-86599819D02*
X75976190Y-85599819D01*
X75976190Y-85599819D02*
X75880952Y-85742676D01*
X75880952Y-85742676D02*
X75785714Y-85837914D01*
X75785714Y-85837914D02*
X75690476Y-85885533D01*
X115049405Y-102884819D02*
X115049405Y-101884819D01*
X115049405Y-101884819D02*
X115287500Y-101884819D01*
X115287500Y-101884819D02*
X115430357Y-101932438D01*
X115430357Y-101932438D02*
X115525595Y-102027676D01*
X115525595Y-102027676D02*
X115573214Y-102122914D01*
X115573214Y-102122914D02*
X115620833Y-102313390D01*
X115620833Y-102313390D02*
X115620833Y-102456247D01*
X115620833Y-102456247D02*
X115573214Y-102646723D01*
X115573214Y-102646723D02*
X115525595Y-102741961D01*
X115525595Y-102741961D02*
X115430357Y-102837200D01*
X115430357Y-102837200D02*
X115287500Y-102884819D01*
X115287500Y-102884819D02*
X115049405Y-102884819D01*
X116573214Y-102884819D02*
X116001786Y-102884819D01*
X116287500Y-102884819D02*
X116287500Y-101884819D01*
X116287500Y-101884819D02*
X116192262Y-102027676D01*
X116192262Y-102027676D02*
X116097024Y-102122914D01*
X116097024Y-102122914D02*
X116001786Y-102170533D01*
X114477976Y-99501009D02*
X114620833Y-99548628D01*
X114620833Y-99548628D02*
X114668452Y-99596247D01*
X114668452Y-99596247D02*
X114716071Y-99691485D01*
X114716071Y-99691485D02*
X114716071Y-99834342D01*
X114716071Y-99834342D02*
X114668452Y-99929580D01*
X114668452Y-99929580D02*
X114620833Y-99977200D01*
X114620833Y-99977200D02*
X114525595Y-100024819D01*
X114525595Y-100024819D02*
X114144643Y-100024819D01*
X114144643Y-100024819D02*
X114144643Y-99024819D01*
X114144643Y-99024819D02*
X114477976Y-99024819D01*
X114477976Y-99024819D02*
X114573214Y-99072438D01*
X114573214Y-99072438D02*
X114620833Y-99120057D01*
X114620833Y-99120057D02*
X114668452Y-99215295D01*
X114668452Y-99215295D02*
X114668452Y-99310533D01*
X114668452Y-99310533D02*
X114620833Y-99405771D01*
X114620833Y-99405771D02*
X114573214Y-99453390D01*
X114573214Y-99453390D02*
X114477976Y-99501009D01*
X114477976Y-99501009D02*
X114144643Y-99501009D01*
X115620833Y-100024819D02*
X115144643Y-100024819D01*
X115144643Y-100024819D02*
X115144643Y-99024819D01*
X115954167Y-99024819D02*
X115954167Y-99834342D01*
X115954167Y-99834342D02*
X116001786Y-99929580D01*
X116001786Y-99929580D02*
X116049405Y-99977200D01*
X116049405Y-99977200D02*
X116144643Y-100024819D01*
X116144643Y-100024819D02*
X116335119Y-100024819D01*
X116335119Y-100024819D02*
X116430357Y-99977200D01*
X116430357Y-99977200D02*
X116477976Y-99929580D01*
X116477976Y-99929580D02*
X116525595Y-99834342D01*
X116525595Y-99834342D02*
X116525595Y-99024819D01*
X117001786Y-99501009D02*
X117335119Y-99501009D01*
X117477976Y-100024819D02*
X117001786Y-100024819D01*
X117001786Y-100024819D02*
X117001786Y-99024819D01*
X117001786Y-99024819D02*
X117477976Y-99024819D01*
X56894859Y-116837695D02*
X57860784Y-116578876D01*
X57166002Y-117849617D02*
X57539694Y-117404395D01*
X57018106Y-117297660D02*
X57984031Y-117038841D01*
X57984031Y-117038841D02*
X58082629Y-117406812D01*
X58082629Y-117406812D02*
X58061282Y-117511130D01*
X58061282Y-117511130D02*
X58027610Y-117569451D01*
X58027610Y-117569451D02*
X57947942Y-117640097D01*
X57947942Y-117640097D02*
X57809953Y-117677071D01*
X57809953Y-117677071D02*
X57705635Y-117655724D01*
X57705635Y-117655724D02*
X57647314Y-117622052D01*
X57647314Y-117622052D02*
X57576668Y-117542384D01*
X57576668Y-117542384D02*
X57478070Y-117174412D01*
X57865856Y-118253678D02*
X57887203Y-118149361D01*
X57887203Y-118149361D02*
X57920875Y-118091039D01*
X57920875Y-118091039D02*
X58000543Y-118020394D01*
X58000543Y-118020394D02*
X58046540Y-118008069D01*
X58046540Y-118008069D02*
X58150858Y-118029416D01*
X58150858Y-118029416D02*
X58209179Y-118063088D01*
X58209179Y-118063088D02*
X58279825Y-118142756D01*
X58279825Y-118142756D02*
X58329123Y-118326742D01*
X58329123Y-118326742D02*
X58307776Y-118431059D01*
X58307776Y-118431059D02*
X58274105Y-118489381D01*
X58274105Y-118489381D02*
X58194436Y-118560026D01*
X58194436Y-118560026D02*
X58148440Y-118572351D01*
X58148440Y-118572351D02*
X58044122Y-118551004D01*
X58044122Y-118551004D02*
X57985801Y-118517332D01*
X57985801Y-118517332D02*
X57915155Y-118437664D01*
X57915155Y-118437664D02*
X57865856Y-118253678D01*
X57865856Y-118253678D02*
X57795210Y-118174010D01*
X57795210Y-118174010D02*
X57736889Y-118140338D01*
X57736889Y-118140338D02*
X57632572Y-118118991D01*
X57632572Y-118118991D02*
X57448586Y-118168290D01*
X57448586Y-118168290D02*
X57368918Y-118238936D01*
X57368918Y-118238936D02*
X57335246Y-118297257D01*
X57335246Y-118297257D02*
X57313899Y-118401575D01*
X57313899Y-118401575D02*
X57363198Y-118585561D01*
X57363198Y-118585561D02*
X57433844Y-118665229D01*
X57433844Y-118665229D02*
X57492165Y-118698901D01*
X57492165Y-118698901D02*
X57596482Y-118720248D01*
X57596482Y-118720248D02*
X57780468Y-118670949D01*
X57780468Y-118670949D02*
X57860136Y-118600303D01*
X57860136Y-118600303D02*
X57893808Y-118541982D01*
X57893808Y-118541982D02*
X57915155Y-118437664D01*
X146400121Y-79466751D02*
X147266147Y-78966751D01*
X146923931Y-80374016D02*
X147169657Y-79847245D01*
X146638216Y-79879144D02*
X147504242Y-79379144D01*
X147504242Y-79379144D02*
X147694718Y-79709058D01*
X147694718Y-79709058D02*
X147701098Y-79815347D01*
X147701098Y-79815347D02*
X147683668Y-79880395D01*
X147683668Y-79880395D02*
X147624999Y-79969254D01*
X147624999Y-79969254D02*
X147501281Y-80040682D01*
X147501281Y-80040682D02*
X147394993Y-80047062D01*
X147394993Y-80047062D02*
X147329944Y-80029632D01*
X147329944Y-80029632D02*
X147241086Y-79970963D01*
X147241086Y-79970963D02*
X147050609Y-79641049D01*
X147897954Y-80251549D02*
X147963002Y-80268979D01*
X147963002Y-80268979D02*
X148051861Y-80327648D01*
X148051861Y-80327648D02*
X148170908Y-80533845D01*
X148170908Y-80533845D02*
X148177288Y-80640133D01*
X148177288Y-80640133D02*
X148159858Y-80705182D01*
X148159858Y-80705182D02*
X148101189Y-80794040D01*
X148101189Y-80794040D02*
X148018711Y-80841659D01*
X148018711Y-80841659D02*
X147871183Y-80871848D01*
X147871183Y-80871848D02*
X147090597Y-80662691D01*
X147090597Y-80662691D02*
X147400121Y-81198802D01*
X147876312Y-82023588D02*
X147590597Y-81528716D01*
X147733454Y-81776152D02*
X148599480Y-81276152D01*
X148599480Y-81276152D02*
X148428143Y-81265102D01*
X148428143Y-81265102D02*
X148298045Y-81230242D01*
X148298045Y-81230242D02*
X148209187Y-81171573D01*
D12*
X144452380Y-103568518D02*
X144481408Y-103481433D01*
X144481408Y-103481433D02*
X144481408Y-103336290D01*
X144481408Y-103336290D02*
X144452380Y-103278233D01*
X144452380Y-103278233D02*
X144423351Y-103249204D01*
X144423351Y-103249204D02*
X144365294Y-103220175D01*
X144365294Y-103220175D02*
X144307237Y-103220175D01*
X144307237Y-103220175D02*
X144249180Y-103249204D01*
X144249180Y-103249204D02*
X144220151Y-103278233D01*
X144220151Y-103278233D02*
X144191122Y-103336290D01*
X144191122Y-103336290D02*
X144162094Y-103452404D01*
X144162094Y-103452404D02*
X144133065Y-103510461D01*
X144133065Y-103510461D02*
X144104037Y-103539490D01*
X144104037Y-103539490D02*
X144045980Y-103568518D01*
X144045980Y-103568518D02*
X143987922Y-103568518D01*
X143987922Y-103568518D02*
X143929865Y-103539490D01*
X143929865Y-103539490D02*
X143900837Y-103510461D01*
X143900837Y-103510461D02*
X143871808Y-103452404D01*
X143871808Y-103452404D02*
X143871808Y-103307261D01*
X143871808Y-103307261D02*
X143900837Y-103220175D01*
X143871808Y-103016976D02*
X144481408Y-102871833D01*
X144481408Y-102871833D02*
X144045980Y-102755719D01*
X144045980Y-102755719D02*
X144481408Y-102639604D01*
X144481408Y-102639604D02*
X143871808Y-102494462D01*
X143929865Y-102291261D02*
X143900837Y-102262233D01*
X143900837Y-102262233D02*
X143871808Y-102204176D01*
X143871808Y-102204176D02*
X143871808Y-102059033D01*
X143871808Y-102059033D02*
X143900837Y-102000976D01*
X143900837Y-102000976D02*
X143929865Y-101971947D01*
X143929865Y-101971947D02*
X143987922Y-101942918D01*
X143987922Y-101942918D02*
X144045980Y-101942918D01*
X144045980Y-101942918D02*
X144133065Y-101971947D01*
X144133065Y-101971947D02*
X144481408Y-102320290D01*
X144481408Y-102320290D02*
X144481408Y-101942918D01*
X150167380Y-105426346D02*
X150196408Y-105339261D01*
X150196408Y-105339261D02*
X150196408Y-105194118D01*
X150196408Y-105194118D02*
X150167380Y-105136061D01*
X150167380Y-105136061D02*
X150138351Y-105107032D01*
X150138351Y-105107032D02*
X150080294Y-105078003D01*
X150080294Y-105078003D02*
X150022237Y-105078003D01*
X150022237Y-105078003D02*
X149964180Y-105107032D01*
X149964180Y-105107032D02*
X149935151Y-105136061D01*
X149935151Y-105136061D02*
X149906122Y-105194118D01*
X149906122Y-105194118D02*
X149877094Y-105310232D01*
X149877094Y-105310232D02*
X149848065Y-105368289D01*
X149848065Y-105368289D02*
X149819037Y-105397318D01*
X149819037Y-105397318D02*
X149760980Y-105426346D01*
X149760980Y-105426346D02*
X149702922Y-105426346D01*
X149702922Y-105426346D02*
X149644865Y-105397318D01*
X149644865Y-105397318D02*
X149615837Y-105368289D01*
X149615837Y-105368289D02*
X149586808Y-105310232D01*
X149586808Y-105310232D02*
X149586808Y-105165089D01*
X149586808Y-105165089D02*
X149615837Y-105078003D01*
X149586808Y-104874804D02*
X150196408Y-104729661D01*
X150196408Y-104729661D02*
X149760980Y-104613547D01*
X149760980Y-104613547D02*
X150196408Y-104497432D01*
X150196408Y-104497432D02*
X149586808Y-104352290D01*
X150254465Y-104265204D02*
X150254465Y-103800746D01*
X150196408Y-103655604D02*
X149586808Y-103655604D01*
X149586808Y-103655604D02*
X149586808Y-103510461D01*
X149586808Y-103510461D02*
X149615837Y-103423375D01*
X149615837Y-103423375D02*
X149673894Y-103365318D01*
X149673894Y-103365318D02*
X149731951Y-103336289D01*
X149731951Y-103336289D02*
X149848065Y-103307261D01*
X149848065Y-103307261D02*
X149935151Y-103307261D01*
X149935151Y-103307261D02*
X150051265Y-103336289D01*
X150051265Y-103336289D02*
X150109322Y-103365318D01*
X150109322Y-103365318D02*
X150167380Y-103423375D01*
X150167380Y-103423375D02*
X150196408Y-103510461D01*
X150196408Y-103510461D02*
X150196408Y-103655604D01*
X150196408Y-103046004D02*
X149586808Y-103046004D01*
X149586808Y-103046004D02*
X149586808Y-102813775D01*
X149586808Y-102813775D02*
X149615837Y-102755718D01*
X149615837Y-102755718D02*
X149644865Y-102726689D01*
X149644865Y-102726689D02*
X149702922Y-102697661D01*
X149702922Y-102697661D02*
X149790008Y-102697661D01*
X149790008Y-102697661D02*
X149848065Y-102726689D01*
X149848065Y-102726689D02*
X149877094Y-102755718D01*
X149877094Y-102755718D02*
X149906122Y-102813775D01*
X149906122Y-102813775D02*
X149906122Y-103046004D01*
X150196408Y-102436404D02*
X149586808Y-102436404D01*
X149586808Y-102436404D02*
X149586808Y-102291261D01*
X149586808Y-102291261D02*
X149615837Y-102204175D01*
X149615837Y-102204175D02*
X149673894Y-102146118D01*
X149673894Y-102146118D02*
X149731951Y-102117089D01*
X149731951Y-102117089D02*
X149848065Y-102088061D01*
X149848065Y-102088061D02*
X149935151Y-102088061D01*
X149935151Y-102088061D02*
X150051265Y-102117089D01*
X150051265Y-102117089D02*
X150109322Y-102146118D01*
X150109322Y-102146118D02*
X150167380Y-102204175D01*
X150167380Y-102204175D02*
X150196408Y-102291261D01*
X150196408Y-102291261D02*
X150196408Y-102436404D01*
X149586808Y-101913889D02*
X149586808Y-101565547D01*
X150196408Y-101739718D02*
X149586808Y-101739718D01*
X150254465Y-101507490D02*
X150254465Y-101043032D01*
X150196408Y-100955947D02*
X149790008Y-100636633D01*
X149790008Y-100955947D02*
X150196408Y-100636633D01*
X149644865Y-100433432D02*
X149615837Y-100404404D01*
X149615837Y-100404404D02*
X149586808Y-100346347D01*
X149586808Y-100346347D02*
X149586808Y-100201204D01*
X149586808Y-100201204D02*
X149615837Y-100143147D01*
X149615837Y-100143147D02*
X149644865Y-100114118D01*
X149644865Y-100114118D02*
X149702922Y-100085089D01*
X149702922Y-100085089D02*
X149760980Y-100085089D01*
X149760980Y-100085089D02*
X149848065Y-100114118D01*
X149848065Y-100114118D02*
X150196408Y-100462461D01*
X150196408Y-100462461D02*
X150196408Y-100085089D01*
D11*
X101833333Y-101359580D02*
X101785714Y-101407200D01*
X101785714Y-101407200D02*
X101642857Y-101454819D01*
X101642857Y-101454819D02*
X101547619Y-101454819D01*
X101547619Y-101454819D02*
X101404762Y-101407200D01*
X101404762Y-101407200D02*
X101309524Y-101311961D01*
X101309524Y-101311961D02*
X101261905Y-101216723D01*
X101261905Y-101216723D02*
X101214286Y-101026247D01*
X101214286Y-101026247D02*
X101214286Y-100883390D01*
X101214286Y-100883390D02*
X101261905Y-100692914D01*
X101261905Y-100692914D02*
X101309524Y-100597676D01*
X101309524Y-100597676D02*
X101404762Y-100502438D01*
X101404762Y-100502438D02*
X101547619Y-100454819D01*
X101547619Y-100454819D02*
X101642857Y-100454819D01*
X101642857Y-100454819D02*
X101785714Y-100502438D01*
X101785714Y-100502438D02*
X101833333Y-100550057D01*
X102785714Y-101454819D02*
X102214286Y-101454819D01*
X102500000Y-101454819D02*
X102500000Y-100454819D01*
X102500000Y-100454819D02*
X102404762Y-100597676D01*
X102404762Y-100597676D02*
X102309524Y-100692914D01*
X102309524Y-100692914D02*
X102214286Y-100740533D01*
X107333333Y-101454819D02*
X106761905Y-101454819D01*
X107047619Y-101454819D02*
X107047619Y-100454819D01*
X107047619Y-100454819D02*
X106952381Y-100597676D01*
X106952381Y-100597676D02*
X106857143Y-100692914D01*
X106857143Y-100692914D02*
X106761905Y-100740533D01*
X107761905Y-100788152D02*
X107761905Y-101788152D01*
X108238095Y-101311961D02*
X108285714Y-101407200D01*
X108285714Y-101407200D02*
X108380952Y-101454819D01*
X107761905Y-101311961D02*
X107809524Y-101407200D01*
X107809524Y-101407200D02*
X107904762Y-101454819D01*
X107904762Y-101454819D02*
X108095238Y-101454819D01*
X108095238Y-101454819D02*
X108190476Y-101407200D01*
X108190476Y-101407200D02*
X108238095Y-101311961D01*
X108238095Y-101311961D02*
X108238095Y-100788152D01*
X109142857Y-100931009D02*
X108809524Y-100931009D01*
X108809524Y-101454819D02*
X108809524Y-100454819D01*
X108809524Y-100454819D02*
X109285714Y-100454819D01*
X152455874Y-119260788D02*
X151489948Y-119001969D01*
X152727018Y-118248867D02*
X152180780Y-118447595D01*
X152579121Y-118800824D02*
X151613195Y-118542005D01*
X151613195Y-118542005D02*
X151711793Y-118174033D01*
X151711793Y-118174033D02*
X151782439Y-118094365D01*
X151782439Y-118094365D02*
X151840760Y-118060693D01*
X151840760Y-118060693D02*
X151945078Y-118039346D01*
X151945078Y-118039346D02*
X152083067Y-118076321D01*
X152083067Y-118076321D02*
X152162735Y-118146966D01*
X152162735Y-118146966D02*
X152196407Y-118205288D01*
X152196407Y-118205288D02*
X152217754Y-118309605D01*
X152217754Y-118309605D02*
X152119157Y-118677577D01*
X152973512Y-117328937D02*
X152825616Y-117880895D01*
X152899564Y-117604916D02*
X151933638Y-117346097D01*
X151933638Y-117346097D02*
X152046978Y-117475064D01*
X152046978Y-117475064D02*
X152114321Y-117591706D01*
X152114321Y-117591706D02*
X152135669Y-117696024D01*
X152569451Y-116629083D02*
X152498805Y-116708751D01*
X152498805Y-116708751D02*
X152440484Y-116742423D01*
X152440484Y-116742423D02*
X152336166Y-116763770D01*
X152336166Y-116763770D02*
X152290170Y-116751445D01*
X152290170Y-116751445D02*
X152210502Y-116680799D01*
X152210502Y-116680799D02*
X152176830Y-116622478D01*
X152176830Y-116622478D02*
X152155483Y-116518161D01*
X152155483Y-116518161D02*
X152204782Y-116334175D01*
X152204782Y-116334175D02*
X152275428Y-116254506D01*
X152275428Y-116254506D02*
X152333749Y-116220835D01*
X152333749Y-116220835D02*
X152438067Y-116199488D01*
X152438067Y-116199488D02*
X152484063Y-116211812D01*
X152484063Y-116211812D02*
X152563731Y-116282458D01*
X152563731Y-116282458D02*
X152597403Y-116340779D01*
X152597403Y-116340779D02*
X152618750Y-116445097D01*
X152618750Y-116445097D02*
X152569451Y-116629083D01*
X152569451Y-116629083D02*
X152590798Y-116733401D01*
X152590798Y-116733401D02*
X152624470Y-116791722D01*
X152624470Y-116791722D02*
X152704138Y-116862368D01*
X152704138Y-116862368D02*
X152888124Y-116911667D01*
X152888124Y-116911667D02*
X152992442Y-116890320D01*
X152992442Y-116890320D02*
X153050763Y-116856648D01*
X153050763Y-116856648D02*
X153121409Y-116776980D01*
X153121409Y-116776980D02*
X153170708Y-116592994D01*
X153170708Y-116592994D02*
X153149361Y-116488676D01*
X153149361Y-116488676D02*
X153115689Y-116430355D01*
X153115689Y-116430355D02*
X153036021Y-116359709D01*
X153036021Y-116359709D02*
X152852035Y-116310410D01*
X152852035Y-116310410D02*
X152747717Y-116331757D01*
X152747717Y-116331757D02*
X152689396Y-116365429D01*
X152689396Y-116365429D02*
X152618750Y-116445097D01*
X62425592Y-81500673D02*
X61559567Y-81000673D01*
X62949402Y-80593409D02*
X62370342Y-80643989D01*
X62663687Y-81088281D02*
X61797662Y-80588281D01*
X61797662Y-80588281D02*
X61988138Y-80258366D01*
X61988138Y-80258366D02*
X62076997Y-80199697D01*
X62076997Y-80199697D02*
X62142045Y-80182267D01*
X62142045Y-80182267D02*
X62248334Y-80188647D01*
X62248334Y-80188647D02*
X62372051Y-80260076D01*
X62372051Y-80260076D02*
X62430721Y-80348934D01*
X62430721Y-80348934D02*
X62448150Y-80413983D01*
X62448150Y-80413983D02*
X62441771Y-80520271D01*
X62441771Y-80520271D02*
X62251294Y-80850185D01*
X62535757Y-79309862D02*
X62297662Y-79722255D01*
X62297662Y-79722255D02*
X62686246Y-80001590D01*
X62686246Y-80001590D02*
X62668816Y-79936541D01*
X62668816Y-79936541D02*
X62675196Y-79830253D01*
X62675196Y-79830253D02*
X62794243Y-79624056D01*
X62794243Y-79624056D02*
X62883102Y-79565387D01*
X62883102Y-79565387D02*
X62948150Y-79547957D01*
X62948150Y-79547957D02*
X63054438Y-79554337D01*
X63054438Y-79554337D02*
X63260635Y-79673385D01*
X63260635Y-79673385D02*
X63319304Y-79762243D01*
X63319304Y-79762243D02*
X63336734Y-79827292D01*
X63336734Y-79827292D02*
X63330354Y-79933580D01*
X63330354Y-79933580D02*
X63211307Y-80139777D01*
X63211307Y-80139777D02*
X63122448Y-80198446D01*
X63122448Y-80198446D02*
X63057399Y-80215875D01*
X100789580Y-99166666D02*
X100837200Y-99214285D01*
X100837200Y-99214285D02*
X100884819Y-99357142D01*
X100884819Y-99357142D02*
X100884819Y-99452380D01*
X100884819Y-99452380D02*
X100837200Y-99595237D01*
X100837200Y-99595237D02*
X100741961Y-99690475D01*
X100741961Y-99690475D02*
X100646723Y-99738094D01*
X100646723Y-99738094D02*
X100456247Y-99785713D01*
X100456247Y-99785713D02*
X100313390Y-99785713D01*
X100313390Y-99785713D02*
X100122914Y-99738094D01*
X100122914Y-99738094D02*
X100027676Y-99690475D01*
X100027676Y-99690475D02*
X99932438Y-99595237D01*
X99932438Y-99595237D02*
X99884819Y-99452380D01*
X99884819Y-99452380D02*
X99884819Y-99357142D01*
X99884819Y-99357142D02*
X99932438Y-99214285D01*
X99932438Y-99214285D02*
X99980057Y-99166666D01*
X99884819Y-98309523D02*
X99884819Y-98499999D01*
X99884819Y-98499999D02*
X99932438Y-98595237D01*
X99932438Y-98595237D02*
X99980057Y-98642856D01*
X99980057Y-98642856D02*
X100122914Y-98738094D01*
X100122914Y-98738094D02*
X100313390Y-98785713D01*
X100313390Y-98785713D02*
X100694342Y-98785713D01*
X100694342Y-98785713D02*
X100789580Y-98738094D01*
X100789580Y-98738094D02*
X100837200Y-98690475D01*
X100837200Y-98690475D02*
X100884819Y-98595237D01*
X100884819Y-98595237D02*
X100884819Y-98404761D01*
X100884819Y-98404761D02*
X100837200Y-98309523D01*
X100837200Y-98309523D02*
X100789580Y-98261904D01*
X100789580Y-98261904D02*
X100694342Y-98214285D01*
X100694342Y-98214285D02*
X100456247Y-98214285D01*
X100456247Y-98214285D02*
X100361009Y-98261904D01*
X100361009Y-98261904D02*
X100313390Y-98309523D01*
X100313390Y-98309523D02*
X100265771Y-98404761D01*
X100265771Y-98404761D02*
X100265771Y-98595237D01*
X100265771Y-98595237D02*
X100313390Y-98690475D01*
X100313390Y-98690475D02*
X100361009Y-98738094D01*
X100361009Y-98738094D02*
X100456247Y-98785713D01*
X98024819Y-99595238D02*
X98024819Y-100166666D01*
X98024819Y-99880952D02*
X97024819Y-99880952D01*
X97024819Y-99880952D02*
X97167676Y-99976190D01*
X97167676Y-99976190D02*
X97262914Y-100071428D01*
X97262914Y-100071428D02*
X97310533Y-100166666D01*
X97358152Y-99166666D02*
X98358152Y-99166666D01*
X97405771Y-99166666D02*
X97358152Y-99071428D01*
X97358152Y-99071428D02*
X97358152Y-98880952D01*
X97358152Y-98880952D02*
X97405771Y-98785714D01*
X97405771Y-98785714D02*
X97453390Y-98738095D01*
X97453390Y-98738095D02*
X97548628Y-98690476D01*
X97548628Y-98690476D02*
X97834342Y-98690476D01*
X97834342Y-98690476D02*
X97929580Y-98738095D01*
X97929580Y-98738095D02*
X97977200Y-98785714D01*
X97977200Y-98785714D02*
X98024819Y-98880952D01*
X98024819Y-98880952D02*
X98024819Y-99071428D01*
X98024819Y-99071428D02*
X97977200Y-99166666D01*
X97501009Y-97928571D02*
X97501009Y-98261904D01*
X98024819Y-98261904D02*
X97024819Y-98261904D01*
X97024819Y-98261904D02*
X97024819Y-97785714D01*
X116219573Y-57670960D02*
X116478392Y-56705034D01*
X117231494Y-57942104D02*
X117032766Y-57395866D01*
X116679537Y-57794207D02*
X116938356Y-56828281D01*
X116938356Y-56828281D02*
X117306328Y-56926879D01*
X117306328Y-56926879D02*
X117385996Y-56997525D01*
X117385996Y-56997525D02*
X117419668Y-57055846D01*
X117419668Y-57055846D02*
X117441015Y-57160164D01*
X117441015Y-57160164D02*
X117404040Y-57298153D01*
X117404040Y-57298153D02*
X117333395Y-57377821D01*
X117333395Y-57377821D02*
X117275073Y-57411493D01*
X117275073Y-57411493D02*
X117170756Y-57432840D01*
X117170756Y-57432840D02*
X116802784Y-57334243D01*
X117833636Y-57166769D02*
X117891957Y-57133097D01*
X117891957Y-57133097D02*
X117996275Y-57111750D01*
X117996275Y-57111750D02*
X118226257Y-57173373D01*
X118226257Y-57173373D02*
X118305925Y-57244019D01*
X118305925Y-57244019D02*
X118339597Y-57302341D01*
X118339597Y-57302341D02*
X118360944Y-57406658D01*
X118360944Y-57406658D02*
X118336295Y-57498651D01*
X118336295Y-57498651D02*
X118253324Y-57624316D01*
X118253324Y-57624316D02*
X117553470Y-58028377D01*
X117553470Y-58028377D02*
X118151424Y-58188598D01*
X119151906Y-57766492D02*
X118979360Y-58410443D01*
X119020522Y-57336897D02*
X118605669Y-57965221D01*
X118605669Y-57965221D02*
X119203623Y-58125442D01*
X77903095Y-84769819D02*
X77903095Y-85579342D01*
X77903095Y-85579342D02*
X77950714Y-85674580D01*
X77950714Y-85674580D02*
X77998333Y-85722200D01*
X77998333Y-85722200D02*
X78093571Y-85769819D01*
X78093571Y-85769819D02*
X78284047Y-85769819D01*
X78284047Y-85769819D02*
X78379285Y-85722200D01*
X78379285Y-85722200D02*
X78426904Y-85674580D01*
X78426904Y-85674580D02*
X78474523Y-85579342D01*
X78474523Y-85579342D02*
X78474523Y-84769819D01*
X79474523Y-85769819D02*
X78903095Y-85769819D01*
X79188809Y-85769819D02*
X79188809Y-84769819D01*
X79188809Y-84769819D02*
X79093571Y-84912676D01*
X79093571Y-84912676D02*
X78998333Y-85007914D01*
X78998333Y-85007914D02*
X78903095Y-85055533D01*
X82979999Y-106840033D02*
X82979999Y-106140033D01*
X82979999Y-106140033D02*
X83146666Y-106140033D01*
X83146666Y-106140033D02*
X83246666Y-106173366D01*
X83246666Y-106173366D02*
X83313333Y-106240033D01*
X83313333Y-106240033D02*
X83346666Y-106306700D01*
X83346666Y-106306700D02*
X83379999Y-106440033D01*
X83379999Y-106440033D02*
X83379999Y-106540033D01*
X83379999Y-106540033D02*
X83346666Y-106673366D01*
X83346666Y-106673366D02*
X83313333Y-106740033D01*
X83313333Y-106740033D02*
X83246666Y-106806700D01*
X83246666Y-106806700D02*
X83146666Y-106840033D01*
X83146666Y-106840033D02*
X82979999Y-106840033D01*
X83579999Y-106140033D02*
X83813333Y-106840033D01*
X83813333Y-106840033D02*
X84046666Y-106140033D01*
X84613333Y-106840033D02*
X84279999Y-106840033D01*
X84279999Y-106840033D02*
X84279999Y-106140033D01*
X85146666Y-106140033D02*
X85013333Y-106140033D01*
X85013333Y-106140033D02*
X84946666Y-106173366D01*
X84946666Y-106173366D02*
X84913333Y-106206700D01*
X84913333Y-106206700D02*
X84846666Y-106306700D01*
X84846666Y-106306700D02*
X84813333Y-106440033D01*
X84813333Y-106440033D02*
X84813333Y-106706700D01*
X84813333Y-106706700D02*
X84846666Y-106773366D01*
X84846666Y-106773366D02*
X84880000Y-106806700D01*
X84880000Y-106806700D02*
X84946666Y-106840033D01*
X84946666Y-106840033D02*
X85080000Y-106840033D01*
X85080000Y-106840033D02*
X85146666Y-106806700D01*
X85146666Y-106806700D02*
X85180000Y-106773366D01*
X85180000Y-106773366D02*
X85213333Y-106706700D01*
X85213333Y-106706700D02*
X85213333Y-106540033D01*
X85213333Y-106540033D02*
X85180000Y-106473366D01*
X85180000Y-106473366D02*
X85146666Y-106440033D01*
X85146666Y-106440033D02*
X85080000Y-106406700D01*
X85080000Y-106406700D02*
X84946666Y-106406700D01*
X84946666Y-106406700D02*
X84880000Y-106440033D01*
X84880000Y-106440033D02*
X84846666Y-106473366D01*
X84846666Y-106473366D02*
X84813333Y-106540033D01*
X85480000Y-106640033D02*
X85813333Y-106640033D01*
X85413333Y-106840033D02*
X85646667Y-106140033D01*
X85646667Y-106140033D02*
X85880000Y-106840033D01*
X81296666Y-105316033D02*
X81296666Y-104616033D01*
X81296666Y-104616033D02*
X81530000Y-105116033D01*
X81530000Y-105116033D02*
X81763333Y-104616033D01*
X81763333Y-104616033D02*
X81763333Y-105316033D01*
X82096666Y-105316033D02*
X82096666Y-104616033D01*
X82429999Y-105316033D02*
X82429999Y-104616033D01*
X82429999Y-104616033D02*
X82663333Y-105116033D01*
X82663333Y-105116033D02*
X82896666Y-104616033D01*
X82896666Y-104616033D02*
X82896666Y-105316033D01*
X83163333Y-104616033D02*
X83629999Y-105316033D01*
X83629999Y-104616033D02*
X83163333Y-105316033D01*
X84296666Y-105316033D02*
X84063333Y-104982700D01*
X83896666Y-105316033D02*
X83896666Y-104616033D01*
X83896666Y-104616033D02*
X84163333Y-104616033D01*
X84163333Y-104616033D02*
X84230000Y-104649366D01*
X84230000Y-104649366D02*
X84263333Y-104682700D01*
X84263333Y-104682700D02*
X84296666Y-104749366D01*
X84296666Y-104749366D02*
X84296666Y-104849366D01*
X84296666Y-104849366D02*
X84263333Y-104916033D01*
X84263333Y-104916033D02*
X84230000Y-104949366D01*
X84230000Y-104949366D02*
X84163333Y-104982700D01*
X84163333Y-104982700D02*
X83896666Y-104982700D01*
X84496666Y-104616033D02*
X84896666Y-104616033D01*
X84696666Y-105316033D02*
X84696666Y-104616033D01*
X85496666Y-105316033D02*
X85096666Y-105316033D01*
X85296666Y-105316033D02*
X85296666Y-104616033D01*
X85296666Y-104616033D02*
X85229999Y-104716033D01*
X85229999Y-104716033D02*
X85163333Y-104782700D01*
X85163333Y-104782700D02*
X85096666Y-104816033D01*
X85930000Y-104616033D02*
X85996666Y-104616033D01*
X85996666Y-104616033D02*
X86063333Y-104649366D01*
X86063333Y-104649366D02*
X86096666Y-104682700D01*
X86096666Y-104682700D02*
X86130000Y-104749366D01*
X86130000Y-104749366D02*
X86163333Y-104882700D01*
X86163333Y-104882700D02*
X86163333Y-105049366D01*
X86163333Y-105049366D02*
X86130000Y-105182700D01*
X86130000Y-105182700D02*
X86096666Y-105249366D01*
X86096666Y-105249366D02*
X86063333Y-105282700D01*
X86063333Y-105282700D02*
X85996666Y-105316033D01*
X85996666Y-105316033D02*
X85930000Y-105316033D01*
X85930000Y-105316033D02*
X85863333Y-105282700D01*
X85863333Y-105282700D02*
X85830000Y-105249366D01*
X85830000Y-105249366D02*
X85796666Y-105182700D01*
X85796666Y-105182700D02*
X85763333Y-105049366D01*
X85763333Y-105049366D02*
X85763333Y-104882700D01*
X85763333Y-104882700D02*
X85796666Y-104749366D01*
X85796666Y-104749366D02*
X85830000Y-104682700D01*
X85830000Y-104682700D02*
X85863333Y-104649366D01*
X85863333Y-104649366D02*
X85930000Y-104616033D01*
X86763333Y-104616033D02*
X86630000Y-104616033D01*
X86630000Y-104616033D02*
X86563333Y-104649366D01*
X86563333Y-104649366D02*
X86530000Y-104682700D01*
X86530000Y-104682700D02*
X86463333Y-104782700D01*
X86463333Y-104782700D02*
X86430000Y-104916033D01*
X86430000Y-104916033D02*
X86430000Y-105182700D01*
X86430000Y-105182700D02*
X86463333Y-105249366D01*
X86463333Y-105249366D02*
X86496667Y-105282700D01*
X86496667Y-105282700D02*
X86563333Y-105316033D01*
X86563333Y-105316033D02*
X86696667Y-105316033D01*
X86696667Y-105316033D02*
X86763333Y-105282700D01*
X86763333Y-105282700D02*
X86796667Y-105249366D01*
X86796667Y-105249366D02*
X86830000Y-105182700D01*
X86830000Y-105182700D02*
X86830000Y-105016033D01*
X86830000Y-105016033D02*
X86796667Y-104949366D01*
X86796667Y-104949366D02*
X86763333Y-104916033D01*
X86763333Y-104916033D02*
X86696667Y-104882700D01*
X86696667Y-104882700D02*
X86563333Y-104882700D01*
X86563333Y-104882700D02*
X86496667Y-104916033D01*
X86496667Y-104916033D02*
X86463333Y-104949366D01*
X86463333Y-104949366D02*
X86430000Y-105016033D01*
X87096667Y-104682700D02*
X87130000Y-104649366D01*
X87130000Y-104649366D02*
X87196667Y-104616033D01*
X87196667Y-104616033D02*
X87363334Y-104616033D01*
X87363334Y-104616033D02*
X87430000Y-104649366D01*
X87430000Y-104649366D02*
X87463334Y-104682700D01*
X87463334Y-104682700D02*
X87496667Y-104749366D01*
X87496667Y-104749366D02*
X87496667Y-104816033D01*
X87496667Y-104816033D02*
X87463334Y-104916033D01*
X87463334Y-104916033D02*
X87063334Y-105316033D01*
X87063334Y-105316033D02*
X87496667Y-105316033D01*
X101833333Y-103859580D02*
X101785714Y-103907200D01*
X101785714Y-103907200D02*
X101642857Y-103954819D01*
X101642857Y-103954819D02*
X101547619Y-103954819D01*
X101547619Y-103954819D02*
X101404762Y-103907200D01*
X101404762Y-103907200D02*
X101309524Y-103811961D01*
X101309524Y-103811961D02*
X101261905Y-103716723D01*
X101261905Y-103716723D02*
X101214286Y-103526247D01*
X101214286Y-103526247D02*
X101214286Y-103383390D01*
X101214286Y-103383390D02*
X101261905Y-103192914D01*
X101261905Y-103192914D02*
X101309524Y-103097676D01*
X101309524Y-103097676D02*
X101404762Y-103002438D01*
X101404762Y-103002438D02*
X101547619Y-102954819D01*
X101547619Y-102954819D02*
X101642857Y-102954819D01*
X101642857Y-102954819D02*
X101785714Y-103002438D01*
X101785714Y-103002438D02*
X101833333Y-103050057D01*
X102214286Y-103050057D02*
X102261905Y-103002438D01*
X102261905Y-103002438D02*
X102357143Y-102954819D01*
X102357143Y-102954819D02*
X102595238Y-102954819D01*
X102595238Y-102954819D02*
X102690476Y-103002438D01*
X102690476Y-103002438D02*
X102738095Y-103050057D01*
X102738095Y-103050057D02*
X102785714Y-103145295D01*
X102785714Y-103145295D02*
X102785714Y-103240533D01*
X102785714Y-103240533D02*
X102738095Y-103383390D01*
X102738095Y-103383390D02*
X102166667Y-103954819D01*
X102166667Y-103954819D02*
X102785714Y-103954819D01*
X107333333Y-103954819D02*
X106761905Y-103954819D01*
X107047619Y-103954819D02*
X107047619Y-102954819D01*
X107047619Y-102954819D02*
X106952381Y-103097676D01*
X106952381Y-103097676D02*
X106857143Y-103192914D01*
X106857143Y-103192914D02*
X106761905Y-103240533D01*
X107761905Y-103288152D02*
X107761905Y-104288152D01*
X108238095Y-103811961D02*
X108285714Y-103907200D01*
X108285714Y-103907200D02*
X108380952Y-103954819D01*
X107761905Y-103811961D02*
X107809524Y-103907200D01*
X107809524Y-103907200D02*
X107904762Y-103954819D01*
X107904762Y-103954819D02*
X108095238Y-103954819D01*
X108095238Y-103954819D02*
X108190476Y-103907200D01*
X108190476Y-103907200D02*
X108238095Y-103811961D01*
X108238095Y-103811961D02*
X108238095Y-103288152D01*
X109142857Y-103431009D02*
X108809524Y-103431009D01*
X108809524Y-103954819D02*
X108809524Y-102954819D01*
X108809524Y-102954819D02*
X109285714Y-102954819D01*
X56379819Y-105936189D02*
X55379819Y-105936189D01*
X56379819Y-104888571D02*
X55903628Y-105221904D01*
X56379819Y-105459999D02*
X55379819Y-105459999D01*
X55379819Y-105459999D02*
X55379819Y-105079047D01*
X55379819Y-105079047D02*
X55427438Y-104983809D01*
X55427438Y-104983809D02*
X55475057Y-104936190D01*
X55475057Y-104936190D02*
X55570295Y-104888571D01*
X55570295Y-104888571D02*
X55713152Y-104888571D01*
X55713152Y-104888571D02*
X55808390Y-104936190D01*
X55808390Y-104936190D02*
X55856009Y-104983809D01*
X55856009Y-104983809D02*
X55903628Y-105079047D01*
X55903628Y-105079047D02*
X55903628Y-105459999D01*
X55379819Y-104555237D02*
X55379819Y-103888571D01*
X55379819Y-103888571D02*
X56379819Y-104317142D01*
X102054819Y-75761904D02*
X102864342Y-75761904D01*
X102864342Y-75761904D02*
X102959580Y-75714285D01*
X102959580Y-75714285D02*
X103007200Y-75666666D01*
X103007200Y-75666666D02*
X103054819Y-75571428D01*
X103054819Y-75571428D02*
X103054819Y-75380952D01*
X103054819Y-75380952D02*
X103007200Y-75285714D01*
X103007200Y-75285714D02*
X102959580Y-75238095D01*
X102959580Y-75238095D02*
X102864342Y-75190476D01*
X102864342Y-75190476D02*
X102054819Y-75190476D01*
X102054819Y-74238095D02*
X102054819Y-74714285D01*
X102054819Y-74714285D02*
X102531009Y-74761904D01*
X102531009Y-74761904D02*
X102483390Y-74714285D01*
X102483390Y-74714285D02*
X102435771Y-74619047D01*
X102435771Y-74619047D02*
X102435771Y-74380952D01*
X102435771Y-74380952D02*
X102483390Y-74285714D01*
X102483390Y-74285714D02*
X102531009Y-74238095D01*
X102531009Y-74238095D02*
X102626247Y-74190476D01*
X102626247Y-74190476D02*
X102864342Y-74190476D01*
X102864342Y-74190476D02*
X102959580Y-74238095D01*
X102959580Y-74238095D02*
X103007200Y-74285714D01*
X103007200Y-74285714D02*
X103054819Y-74380952D01*
X103054819Y-74380952D02*
X103054819Y-74619047D01*
X103054819Y-74619047D02*
X103007200Y-74714285D01*
X103007200Y-74714285D02*
X102959580Y-74761904D01*
X103833333Y-111024819D02*
X103500000Y-110548628D01*
X103261905Y-111024819D02*
X103261905Y-110024819D01*
X103261905Y-110024819D02*
X103642857Y-110024819D01*
X103642857Y-110024819D02*
X103738095Y-110072438D01*
X103738095Y-110072438D02*
X103785714Y-110120057D01*
X103785714Y-110120057D02*
X103833333Y-110215295D01*
X103833333Y-110215295D02*
X103833333Y-110358152D01*
X103833333Y-110358152D02*
X103785714Y-110453390D01*
X103785714Y-110453390D02*
X103738095Y-110501009D01*
X103738095Y-110501009D02*
X103642857Y-110548628D01*
X103642857Y-110548628D02*
X103261905Y-110548628D01*
X104214286Y-110120057D02*
X104261905Y-110072438D01*
X104261905Y-110072438D02*
X104357143Y-110024819D01*
X104357143Y-110024819D02*
X104595238Y-110024819D01*
X104595238Y-110024819D02*
X104690476Y-110072438D01*
X104690476Y-110072438D02*
X104738095Y-110120057D01*
X104738095Y-110120057D02*
X104785714Y-110215295D01*
X104785714Y-110215295D02*
X104785714Y-110310533D01*
X104785714Y-110310533D02*
X104738095Y-110453390D01*
X104738095Y-110453390D02*
X104166667Y-111024819D01*
X104166667Y-111024819D02*
X104785714Y-111024819D01*
X103404761Y-113884819D02*
X102833333Y-113884819D01*
X103119047Y-113884819D02*
X103119047Y-112884819D01*
X103119047Y-112884819D02*
X103023809Y-113027676D01*
X103023809Y-113027676D02*
X102928571Y-113122914D01*
X102928571Y-113122914D02*
X102833333Y-113170533D01*
X104023809Y-112884819D02*
X104119047Y-112884819D01*
X104119047Y-112884819D02*
X104214285Y-112932438D01*
X104214285Y-112932438D02*
X104261904Y-112980057D01*
X104261904Y-112980057D02*
X104309523Y-113075295D01*
X104309523Y-113075295D02*
X104357142Y-113265771D01*
X104357142Y-113265771D02*
X104357142Y-113503866D01*
X104357142Y-113503866D02*
X104309523Y-113694342D01*
X104309523Y-113694342D02*
X104261904Y-113789580D01*
X104261904Y-113789580D02*
X104214285Y-113837200D01*
X104214285Y-113837200D02*
X104119047Y-113884819D01*
X104119047Y-113884819D02*
X104023809Y-113884819D01*
X104023809Y-113884819D02*
X103928571Y-113837200D01*
X103928571Y-113837200D02*
X103880952Y-113789580D01*
X103880952Y-113789580D02*
X103833333Y-113694342D01*
X103833333Y-113694342D02*
X103785714Y-113503866D01*
X103785714Y-113503866D02*
X103785714Y-113265771D01*
X103785714Y-113265771D02*
X103833333Y-113075295D01*
X103833333Y-113075295D02*
X103880952Y-112980057D01*
X103880952Y-112980057D02*
X103928571Y-112932438D01*
X103928571Y-112932438D02*
X104023809Y-112884819D01*
X104785714Y-113884819D02*
X104785714Y-112884819D01*
X104880952Y-113503866D02*
X105166666Y-113884819D01*
X105166666Y-113218152D02*
X104785714Y-113599104D01*
X138967598Y-141078143D02*
X138260491Y-140371037D01*
X139708376Y-140337365D02*
X139135956Y-140236350D01*
X139304315Y-140741426D02*
X138597208Y-140034319D01*
X138597208Y-140034319D02*
X138866582Y-139764945D01*
X138866582Y-139764945D02*
X138967598Y-139731274D01*
X138967598Y-139731274D02*
X139034941Y-139731274D01*
X139034941Y-139731274D02*
X139135956Y-139764945D01*
X139135956Y-139764945D02*
X139236972Y-139865961D01*
X139236972Y-139865961D02*
X139270643Y-139966976D01*
X139270643Y-139966976D02*
X139270643Y-140034319D01*
X139270643Y-140034319D02*
X139236972Y-140135335D01*
X139236972Y-140135335D02*
X138967598Y-140404709D01*
X140381811Y-139663930D02*
X139977750Y-140067991D01*
X140179781Y-139865961D02*
X139472674Y-139158854D01*
X139472674Y-139158854D02*
X139506346Y-139327213D01*
X139506346Y-139327213D02*
X139506346Y-139461900D01*
X139506346Y-139461900D02*
X139472674Y-139562915D01*
X140280796Y-138350732D02*
X140146109Y-138485419D01*
X140146109Y-138485419D02*
X140112437Y-138586434D01*
X140112437Y-138586434D02*
X140112437Y-138653778D01*
X140112437Y-138653778D02*
X140146109Y-138822136D01*
X140146109Y-138822136D02*
X140247124Y-138990495D01*
X140247124Y-138990495D02*
X140516498Y-139259869D01*
X140516498Y-139259869D02*
X140617513Y-139293541D01*
X140617513Y-139293541D02*
X140684857Y-139293541D01*
X140684857Y-139293541D02*
X140785872Y-139259869D01*
X140785872Y-139259869D02*
X140920559Y-139125182D01*
X140920559Y-139125182D02*
X140954231Y-139024167D01*
X140954231Y-139024167D02*
X140954231Y-138956823D01*
X140954231Y-138956823D02*
X140920559Y-138855808D01*
X140920559Y-138855808D02*
X140752200Y-138687449D01*
X140752200Y-138687449D02*
X140651185Y-138653778D01*
X140651185Y-138653778D02*
X140583842Y-138653778D01*
X140583842Y-138653778D02*
X140482826Y-138687449D01*
X140482826Y-138687449D02*
X140348139Y-138822136D01*
X140348139Y-138822136D02*
X140314468Y-138923152D01*
X140314468Y-138923152D02*
X140314468Y-138990495D01*
X140314468Y-138990495D02*
X140348139Y-139091510D01*
X101833333Y-106359580D02*
X101785714Y-106407200D01*
X101785714Y-106407200D02*
X101642857Y-106454819D01*
X101642857Y-106454819D02*
X101547619Y-106454819D01*
X101547619Y-106454819D02*
X101404762Y-106407200D01*
X101404762Y-106407200D02*
X101309524Y-106311961D01*
X101309524Y-106311961D02*
X101261905Y-106216723D01*
X101261905Y-106216723D02*
X101214286Y-106026247D01*
X101214286Y-106026247D02*
X101214286Y-105883390D01*
X101214286Y-105883390D02*
X101261905Y-105692914D01*
X101261905Y-105692914D02*
X101309524Y-105597676D01*
X101309524Y-105597676D02*
X101404762Y-105502438D01*
X101404762Y-105502438D02*
X101547619Y-105454819D01*
X101547619Y-105454819D02*
X101642857Y-105454819D01*
X101642857Y-105454819D02*
X101785714Y-105502438D01*
X101785714Y-105502438D02*
X101833333Y-105550057D01*
X102166667Y-105454819D02*
X102785714Y-105454819D01*
X102785714Y-105454819D02*
X102452381Y-105835771D01*
X102452381Y-105835771D02*
X102595238Y-105835771D01*
X102595238Y-105835771D02*
X102690476Y-105883390D01*
X102690476Y-105883390D02*
X102738095Y-105931009D01*
X102738095Y-105931009D02*
X102785714Y-106026247D01*
X102785714Y-106026247D02*
X102785714Y-106264342D01*
X102785714Y-106264342D02*
X102738095Y-106359580D01*
X102738095Y-106359580D02*
X102690476Y-106407200D01*
X102690476Y-106407200D02*
X102595238Y-106454819D01*
X102595238Y-106454819D02*
X102309524Y-106454819D01*
X102309524Y-106454819D02*
X102214286Y-106407200D01*
X102214286Y-106407200D02*
X102166667Y-106359580D01*
X107333333Y-106454819D02*
X106761905Y-106454819D01*
X107047619Y-106454819D02*
X107047619Y-105454819D01*
X107047619Y-105454819D02*
X106952381Y-105597676D01*
X106952381Y-105597676D02*
X106857143Y-105692914D01*
X106857143Y-105692914D02*
X106761905Y-105740533D01*
X107761905Y-105788152D02*
X107761905Y-106788152D01*
X108238095Y-106311961D02*
X108285714Y-106407200D01*
X108285714Y-106407200D02*
X108380952Y-106454819D01*
X107761905Y-106311961D02*
X107809524Y-106407200D01*
X107809524Y-106407200D02*
X107904762Y-106454819D01*
X107904762Y-106454819D02*
X108095238Y-106454819D01*
X108095238Y-106454819D02*
X108190476Y-106407200D01*
X108190476Y-106407200D02*
X108238095Y-106311961D01*
X108238095Y-106311961D02*
X108238095Y-105788152D01*
X109142857Y-105931009D02*
X108809524Y-105931009D01*
X108809524Y-106454819D02*
X108809524Y-105454819D01*
X108809524Y-105454819D02*
X109285714Y-105454819D01*
X104063810Y-56379819D02*
X104063810Y-55379819D01*
X105111428Y-56379819D02*
X104778095Y-55903628D01*
X104540000Y-56379819D02*
X104540000Y-55379819D01*
X104540000Y-55379819D02*
X104920952Y-55379819D01*
X104920952Y-55379819D02*
X105016190Y-55427438D01*
X105016190Y-55427438D02*
X105063809Y-55475057D01*
X105063809Y-55475057D02*
X105111428Y-55570295D01*
X105111428Y-55570295D02*
X105111428Y-55713152D01*
X105111428Y-55713152D02*
X105063809Y-55808390D01*
X105063809Y-55808390D02*
X105016190Y-55856009D01*
X105016190Y-55856009D02*
X104920952Y-55903628D01*
X104920952Y-55903628D02*
X104540000Y-55903628D01*
X106063809Y-56379819D02*
X105492381Y-56379819D01*
X105778095Y-56379819D02*
X105778095Y-55379819D01*
X105778095Y-55379819D02*
X105682857Y-55522676D01*
X105682857Y-55522676D02*
X105587619Y-55617914D01*
X105587619Y-55617914D02*
X105492381Y-55665533D01*
X128472469Y-148640272D02*
X127972469Y-147774246D01*
X129379734Y-148116462D02*
X128852963Y-147870736D01*
X128884862Y-148402177D02*
X128384862Y-147536151D01*
X128384862Y-147536151D02*
X128714776Y-147345675D01*
X128714776Y-147345675D02*
X128821065Y-147339295D01*
X128821065Y-147339295D02*
X128886113Y-147356725D01*
X128886113Y-147356725D02*
X128974972Y-147415394D01*
X128974972Y-147415394D02*
X129046400Y-147539112D01*
X129046400Y-147539112D02*
X129052780Y-147645400D01*
X129052780Y-147645400D02*
X129035350Y-147710449D01*
X129035350Y-147710449D02*
X128976681Y-147799307D01*
X128976681Y-147799307D02*
X128646767Y-147989784D01*
X130204520Y-147640272D02*
X129709648Y-147925986D01*
X129957084Y-147783129D02*
X129457084Y-146917104D01*
X129457084Y-146917104D02*
X129446034Y-147088441D01*
X129446034Y-147088441D02*
X129411174Y-147218538D01*
X129411174Y-147218538D02*
X129352505Y-147307397D01*
X130488067Y-146321866D02*
X130075674Y-146559961D01*
X130075674Y-146559961D02*
X130272530Y-146996163D01*
X130272530Y-146996163D02*
X130289959Y-146931115D01*
X130289959Y-146931115D02*
X130348628Y-146842256D01*
X130348628Y-146842256D02*
X130554825Y-146723209D01*
X130554825Y-146723209D02*
X130661113Y-146716829D01*
X130661113Y-146716829D02*
X130726162Y-146734259D01*
X130726162Y-146734259D02*
X130815020Y-146792928D01*
X130815020Y-146792928D02*
X130934068Y-146999124D01*
X130934068Y-146999124D02*
X130940448Y-147105412D01*
X130940448Y-147105412D02*
X130923018Y-147170461D01*
X130923018Y-147170461D02*
X130864349Y-147259320D01*
X130864349Y-147259320D02*
X130658152Y-147378367D01*
X130658152Y-147378367D02*
X130551864Y-147384747D01*
X130551864Y-147384747D02*
X130486815Y-147367317D01*
X78942650Y-147147891D02*
X79442650Y-146281866D01*
X79849915Y-147671700D02*
X79799335Y-147092641D01*
X79355043Y-147385986D02*
X79855043Y-146519961D01*
X79855043Y-146519961D02*
X80184957Y-146710437D01*
X80184957Y-146710437D02*
X80243627Y-146799295D01*
X80243627Y-146799295D02*
X80261056Y-146864344D01*
X80261056Y-146864344D02*
X80254677Y-146970632D01*
X80254677Y-146970632D02*
X80183248Y-147094350D01*
X80183248Y-147094350D02*
X80094390Y-147153019D01*
X80094390Y-147153019D02*
X80029341Y-147170449D01*
X80029341Y-147170449D02*
X79923053Y-147164069D01*
X79923053Y-147164069D02*
X79593138Y-146973593D01*
X80674701Y-148147891D02*
X80179829Y-147862176D01*
X80427265Y-148005034D02*
X80927265Y-147139008D01*
X80927265Y-147139008D02*
X80773358Y-147215107D01*
X80773358Y-147215107D02*
X80643260Y-147249967D01*
X80643260Y-147249967D02*
X80536972Y-147243587D01*
X81499487Y-148624081D02*
X81004615Y-148338367D01*
X81252051Y-148481224D02*
X81752051Y-147615199D01*
X81752051Y-147615199D02*
X81598144Y-147691298D01*
X81598144Y-147691298D02*
X81468046Y-147726157D01*
X81468046Y-147726157D02*
X81361758Y-147719777D01*
X147147891Y-131057349D02*
X146281866Y-130557349D01*
X147671700Y-130150084D02*
X147092641Y-130200664D01*
X147385986Y-130644956D02*
X146519961Y-130144956D01*
X146519961Y-130144956D02*
X146710437Y-129815042D01*
X146710437Y-129815042D02*
X146799295Y-129756372D01*
X146799295Y-129756372D02*
X146864344Y-129738943D01*
X146864344Y-129738943D02*
X146970632Y-129745322D01*
X146970632Y-129745322D02*
X147094350Y-129816751D01*
X147094350Y-129816751D02*
X147153019Y-129905609D01*
X147153019Y-129905609D02*
X147170449Y-129970658D01*
X147170449Y-129970658D02*
X147164069Y-130076946D01*
X147164069Y-130076946D02*
X146973593Y-130406861D01*
X148147891Y-129325298D02*
X147862176Y-129820170D01*
X148005034Y-129572734D02*
X147139008Y-129072734D01*
X147139008Y-129072734D02*
X147215107Y-129226641D01*
X147215107Y-129226641D02*
X147249967Y-129356739D01*
X147249967Y-129356739D02*
X147243587Y-129463027D01*
X147448532Y-128536623D02*
X147781865Y-127959273D01*
X147781865Y-127959273D02*
X148433605Y-128830427D01*
X91511881Y-58278814D02*
X91253062Y-57312889D01*
X92523803Y-58007671D02*
X92078581Y-57633979D01*
X91971846Y-58155567D02*
X91713027Y-57189642D01*
X91713027Y-57189642D02*
X92080998Y-57091044D01*
X92080998Y-57091044D02*
X92185316Y-57112391D01*
X92185316Y-57112391D02*
X92243637Y-57146063D01*
X92243637Y-57146063D02*
X92314283Y-57225731D01*
X92314283Y-57225731D02*
X92351257Y-57363720D01*
X92351257Y-57363720D02*
X92329910Y-57468038D01*
X92329910Y-57468038D02*
X92296238Y-57526359D01*
X92296238Y-57526359D02*
X92216570Y-57597005D01*
X92216570Y-57597005D02*
X91848598Y-57695603D01*
X92657605Y-57035140D02*
X92691277Y-56976819D01*
X92691277Y-56976819D02*
X92770945Y-56906173D01*
X92770945Y-56906173D02*
X93000928Y-56844550D01*
X93000928Y-56844550D02*
X93105245Y-56865897D01*
X93105245Y-56865897D02*
X93163567Y-56899568D01*
X93163567Y-56899568D02*
X93234212Y-56979237D01*
X93234212Y-56979237D02*
X93258862Y-57071229D01*
X93258862Y-57071229D02*
X93249840Y-57221544D01*
X93249840Y-57221544D02*
X92845779Y-57921398D01*
X92845779Y-57921398D02*
X93443733Y-57761176D01*
X116377730Y-153228388D02*
X116118911Y-152262462D01*
X117389652Y-152957244D02*
X116944430Y-152583552D01*
X116837694Y-153105141D02*
X116578875Y-152139215D01*
X116578875Y-152139215D02*
X116946847Y-152040617D01*
X116946847Y-152040617D02*
X117051165Y-152061964D01*
X117051165Y-152061964D02*
X117109486Y-152095636D01*
X117109486Y-152095636D02*
X117180132Y-152175304D01*
X117180132Y-152175304D02*
X117217106Y-152313294D01*
X117217106Y-152313294D02*
X117195759Y-152417611D01*
X117195759Y-152417611D02*
X117162087Y-152475932D01*
X117162087Y-152475932D02*
X117082419Y-152546578D01*
X117082419Y-152546578D02*
X116714447Y-152645176D01*
X118309581Y-152710750D02*
X117757624Y-152858646D01*
X118033603Y-152784698D02*
X117774784Y-151818772D01*
X117774784Y-151818772D02*
X117719765Y-151981411D01*
X117719765Y-151981411D02*
X117652421Y-152098053D01*
X117652421Y-152098053D02*
X117572753Y-152168699D01*
X118964972Y-151844954D02*
X119137518Y-152488905D01*
X118636392Y-151538606D02*
X118591280Y-152290177D01*
X118591280Y-152290177D02*
X119189234Y-152129955D01*
X102054819Y-135761904D02*
X102864342Y-135761904D01*
X102864342Y-135761904D02*
X102959580Y-135714285D01*
X102959580Y-135714285D02*
X103007200Y-135666666D01*
X103007200Y-135666666D02*
X103054819Y-135571428D01*
X103054819Y-135571428D02*
X103054819Y-135380952D01*
X103054819Y-135380952D02*
X103007200Y-135285714D01*
X103007200Y-135285714D02*
X102959580Y-135238095D01*
X102959580Y-135238095D02*
X102864342Y-135190476D01*
X102864342Y-135190476D02*
X102054819Y-135190476D01*
X102054819Y-134285714D02*
X102054819Y-134476190D01*
X102054819Y-134476190D02*
X102102438Y-134571428D01*
X102102438Y-134571428D02*
X102150057Y-134619047D01*
X102150057Y-134619047D02*
X102292914Y-134714285D01*
X102292914Y-134714285D02*
X102483390Y-134761904D01*
X102483390Y-134761904D02*
X102864342Y-134761904D01*
X102864342Y-134761904D02*
X102959580Y-134714285D01*
X102959580Y-134714285D02*
X103007200Y-134666666D01*
X103007200Y-134666666D02*
X103054819Y-134571428D01*
X103054819Y-134571428D02*
X103054819Y-134380952D01*
X103054819Y-134380952D02*
X103007200Y-134285714D01*
X103007200Y-134285714D02*
X102959580Y-134238095D01*
X102959580Y-134238095D02*
X102864342Y-134190476D01*
X102864342Y-134190476D02*
X102626247Y-134190476D01*
X102626247Y-134190476D02*
X102531009Y-134238095D01*
X102531009Y-134238095D02*
X102483390Y-134285714D01*
X102483390Y-134285714D02*
X102435771Y-134380952D01*
X102435771Y-134380952D02*
X102435771Y-134571428D01*
X102435771Y-134571428D02*
X102483390Y-134666666D01*
X102483390Y-134666666D02*
X102531009Y-134714285D01*
X102531009Y-134714285D02*
X102626247Y-134761904D01*
X72474819Y-132333333D02*
X73189104Y-132333333D01*
X73189104Y-132333333D02*
X73331961Y-132380952D01*
X73331961Y-132380952D02*
X73427200Y-132476190D01*
X73427200Y-132476190D02*
X73474819Y-132619047D01*
X73474819Y-132619047D02*
X73474819Y-132714285D01*
X72474819Y-131952380D02*
X72474819Y-131333333D01*
X72474819Y-131333333D02*
X72855771Y-131666666D01*
X72855771Y-131666666D02*
X72855771Y-131523809D01*
X72855771Y-131523809D02*
X72903390Y-131428571D01*
X72903390Y-131428571D02*
X72951009Y-131380952D01*
X72951009Y-131380952D02*
X73046247Y-131333333D01*
X73046247Y-131333333D02*
X73284342Y-131333333D01*
X73284342Y-131333333D02*
X73379580Y-131380952D01*
X73379580Y-131380952D02*
X73427200Y-131428571D01*
X73427200Y-131428571D02*
X73474819Y-131523809D01*
X73474819Y-131523809D02*
X73474819Y-131809523D01*
X73474819Y-131809523D02*
X73427200Y-131904761D01*
X73427200Y-131904761D02*
X73379580Y-131952380D01*
X61597823Y-128884863D02*
X62463848Y-128384863D01*
X62121632Y-129792127D02*
X62367358Y-129265357D01*
X61835918Y-129297256D02*
X62701943Y-128797256D01*
X62701943Y-128797256D02*
X62892419Y-129127170D01*
X62892419Y-129127170D02*
X62898799Y-129233458D01*
X62898799Y-129233458D02*
X62881369Y-129298507D01*
X62881369Y-129298507D02*
X62822700Y-129387365D01*
X62822700Y-129387365D02*
X62698982Y-129458794D01*
X62698982Y-129458794D02*
X62592694Y-129465174D01*
X62592694Y-129465174D02*
X62527645Y-129447744D01*
X62527645Y-129447744D02*
X62438787Y-129389075D01*
X62438787Y-129389075D02*
X62248311Y-129059160D01*
X62359727Y-130204520D02*
X62454965Y-130369477D01*
X62454965Y-130369477D02*
X62543824Y-130428147D01*
X62543824Y-130428147D02*
X62608873Y-130445576D01*
X62608873Y-130445576D02*
X62780210Y-130456626D01*
X62780210Y-130456626D02*
X62968976Y-130402628D01*
X62968976Y-130402628D02*
X63298891Y-130212151D01*
X63298891Y-130212151D02*
X63357560Y-130123293D01*
X63357560Y-130123293D02*
X63374990Y-130058244D01*
X63374990Y-130058244D02*
X63368610Y-129951956D01*
X63368610Y-129951956D02*
X63273372Y-129786999D01*
X63273372Y-129786999D02*
X63184513Y-129728330D01*
X63184513Y-129728330D02*
X63119465Y-129710900D01*
X63119465Y-129710900D02*
X63013176Y-129717280D01*
X63013176Y-129717280D02*
X62806980Y-129836327D01*
X62806980Y-129836327D02*
X62748311Y-129925186D01*
X62748311Y-129925186D02*
X62730881Y-129990235D01*
X62730881Y-129990235D02*
X62737261Y-130096523D01*
X62737261Y-130096523D02*
X62832499Y-130261480D01*
X62832499Y-130261480D02*
X62921357Y-130320149D01*
X62921357Y-130320149D02*
X62986406Y-130337579D01*
X62986406Y-130337579D02*
X63092694Y-130331199D01*
X69958354Y-71282326D02*
X69251247Y-70575219D01*
X70699132Y-70541547D02*
X70126712Y-70440532D01*
X70295071Y-70945608D02*
X69587964Y-70238502D01*
X69587964Y-70238502D02*
X69857338Y-69969128D01*
X69857338Y-69969128D02*
X69958353Y-69935456D01*
X69958353Y-69935456D02*
X70025697Y-69935456D01*
X70025697Y-69935456D02*
X70126712Y-69969128D01*
X70126712Y-69969128D02*
X70227727Y-70070143D01*
X70227727Y-70070143D02*
X70261399Y-70171158D01*
X70261399Y-70171158D02*
X70261399Y-70238502D01*
X70261399Y-70238502D02*
X70227727Y-70339517D01*
X70227727Y-70339517D02*
X69958353Y-70608891D01*
X70833819Y-69464051D02*
X71305223Y-69935456D01*
X70396086Y-69363036D02*
X70732804Y-70036471D01*
X70732804Y-70036471D02*
X71170536Y-69598738D01*
X138380956Y-69621636D02*
X139088062Y-68914529D01*
X139121734Y-70362414D02*
X139222749Y-69789994D01*
X138717673Y-69958353D02*
X139424780Y-69251246D01*
X139424780Y-69251246D02*
X139694154Y-69520620D01*
X139694154Y-69520620D02*
X139727825Y-69621636D01*
X139727825Y-69621636D02*
X139727825Y-69688979D01*
X139727825Y-69688979D02*
X139694154Y-69789994D01*
X139694154Y-69789994D02*
X139593138Y-69891010D01*
X139593138Y-69891010D02*
X139492123Y-69924681D01*
X139492123Y-69924681D02*
X139424780Y-69924681D01*
X139424780Y-69924681D02*
X139323764Y-69891010D01*
X139323764Y-69891010D02*
X139054390Y-69621636D01*
X140030871Y-69992025D02*
X140098215Y-69992025D01*
X140098215Y-69992025D02*
X140199230Y-70025697D01*
X140199230Y-70025697D02*
X140367589Y-70194055D01*
X140367589Y-70194055D02*
X140401260Y-70295071D01*
X140401260Y-70295071D02*
X140401260Y-70362414D01*
X140401260Y-70362414D02*
X140367589Y-70463429D01*
X140367589Y-70463429D02*
X140300245Y-70530773D01*
X140300245Y-70530773D02*
X140165558Y-70598116D01*
X140165558Y-70598116D02*
X139357436Y-70598116D01*
X139357436Y-70598116D02*
X139795169Y-71035849D01*
X140704306Y-70665460D02*
X140771650Y-70665460D01*
X140771650Y-70665460D02*
X140872665Y-70699132D01*
X140872665Y-70699132D02*
X141041024Y-70867490D01*
X141041024Y-70867490D02*
X141074695Y-70968506D01*
X141074695Y-70968506D02*
X141074695Y-71035849D01*
X141074695Y-71035849D02*
X141041024Y-71136864D01*
X141041024Y-71136864D02*
X140973680Y-71204208D01*
X140973680Y-71204208D02*
X140838993Y-71271551D01*
X140838993Y-71271551D02*
X140030871Y-71271551D01*
X140030871Y-71271551D02*
X140468604Y-71709284D01*
X97929580Y-111166666D02*
X97977200Y-111214285D01*
X97977200Y-111214285D02*
X98024819Y-111357142D01*
X98024819Y-111357142D02*
X98024819Y-111452380D01*
X98024819Y-111452380D02*
X97977200Y-111595237D01*
X97977200Y-111595237D02*
X97881961Y-111690475D01*
X97881961Y-111690475D02*
X97786723Y-111738094D01*
X97786723Y-111738094D02*
X97596247Y-111785713D01*
X97596247Y-111785713D02*
X97453390Y-111785713D01*
X97453390Y-111785713D02*
X97262914Y-111738094D01*
X97262914Y-111738094D02*
X97167676Y-111690475D01*
X97167676Y-111690475D02*
X97072438Y-111595237D01*
X97072438Y-111595237D02*
X97024819Y-111452380D01*
X97024819Y-111452380D02*
X97024819Y-111357142D01*
X97024819Y-111357142D02*
X97072438Y-111214285D01*
X97072438Y-111214285D02*
X97120057Y-111166666D01*
X97024819Y-110261904D02*
X97024819Y-110738094D01*
X97024819Y-110738094D02*
X97501009Y-110785713D01*
X97501009Y-110785713D02*
X97453390Y-110738094D01*
X97453390Y-110738094D02*
X97405771Y-110642856D01*
X97405771Y-110642856D02*
X97405771Y-110404761D01*
X97405771Y-110404761D02*
X97453390Y-110309523D01*
X97453390Y-110309523D02*
X97501009Y-110261904D01*
X97501009Y-110261904D02*
X97596247Y-110214285D01*
X97596247Y-110214285D02*
X97834342Y-110214285D01*
X97834342Y-110214285D02*
X97929580Y-110261904D01*
X97929580Y-110261904D02*
X97977200Y-110309523D01*
X97977200Y-110309523D02*
X98024819Y-110404761D01*
X98024819Y-110404761D02*
X98024819Y-110642856D01*
X98024819Y-110642856D02*
X97977200Y-110738094D01*
X97977200Y-110738094D02*
X97929580Y-110785713D01*
X100884819Y-111595238D02*
X100884819Y-112166666D01*
X100884819Y-111880952D02*
X99884819Y-111880952D01*
X99884819Y-111880952D02*
X100027676Y-111976190D01*
X100027676Y-111976190D02*
X100122914Y-112071428D01*
X100122914Y-112071428D02*
X100170533Y-112166666D01*
X100218152Y-111166666D02*
X101218152Y-111166666D01*
X100265771Y-111166666D02*
X100218152Y-111071428D01*
X100218152Y-111071428D02*
X100218152Y-110880952D01*
X100218152Y-110880952D02*
X100265771Y-110785714D01*
X100265771Y-110785714D02*
X100313390Y-110738095D01*
X100313390Y-110738095D02*
X100408628Y-110690476D01*
X100408628Y-110690476D02*
X100694342Y-110690476D01*
X100694342Y-110690476D02*
X100789580Y-110738095D01*
X100789580Y-110738095D02*
X100837200Y-110785714D01*
X100837200Y-110785714D02*
X100884819Y-110880952D01*
X100884819Y-110880952D02*
X100884819Y-111071428D01*
X100884819Y-111071428D02*
X100837200Y-111166666D01*
X100361009Y-109928571D02*
X100361009Y-110261904D01*
X100884819Y-110261904D02*
X99884819Y-110261904D01*
X99884819Y-110261904D02*
X99884819Y-109785714D01*
X90739211Y-152455874D02*
X90998030Y-151489948D01*
X91751132Y-152727018D02*
X91552404Y-152180780D01*
X91199175Y-152579121D02*
X91457994Y-151613195D01*
X91457994Y-151613195D02*
X91825966Y-151711793D01*
X91825966Y-151711793D02*
X91905634Y-151782439D01*
X91905634Y-151782439D02*
X91939306Y-151840760D01*
X91939306Y-151840760D02*
X91960653Y-151945078D01*
X91960653Y-151945078D02*
X91923678Y-152083067D01*
X91923678Y-152083067D02*
X91853033Y-152162735D01*
X91853033Y-152162735D02*
X91794711Y-152196407D01*
X91794711Y-152196407D02*
X91690394Y-152217754D01*
X91690394Y-152217754D02*
X91322422Y-152119157D01*
X92671062Y-152973512D02*
X92119104Y-152825616D01*
X92395083Y-152899564D02*
X92653902Y-151933638D01*
X92653902Y-151933638D02*
X92524935Y-152046978D01*
X92524935Y-152046978D02*
X92408293Y-152114321D01*
X92408293Y-152114321D02*
X92303975Y-152135669D01*
X93273203Y-152198177D02*
X93331524Y-152164505D01*
X93331524Y-152164505D02*
X93435842Y-152143158D01*
X93435842Y-152143158D02*
X93665824Y-152204782D01*
X93665824Y-152204782D02*
X93745493Y-152275428D01*
X93745493Y-152275428D02*
X93779164Y-152333749D01*
X93779164Y-152333749D02*
X93800511Y-152438067D01*
X93800511Y-152438067D02*
X93775862Y-152530059D01*
X93775862Y-152530059D02*
X93692891Y-152655724D01*
X93692891Y-152655724D02*
X92993037Y-153059785D01*
X92993037Y-153059785D02*
X93590991Y-153220006D01*
X145766667Y-92136636D02*
X145909524Y-92184255D01*
X145909524Y-92184255D02*
X146147619Y-92184255D01*
X146147619Y-92184255D02*
X146242857Y-92136636D01*
X146242857Y-92136636D02*
X146290476Y-92089016D01*
X146290476Y-92089016D02*
X146338095Y-91993778D01*
X146338095Y-91993778D02*
X146338095Y-91898540D01*
X146338095Y-91898540D02*
X146290476Y-91803302D01*
X146290476Y-91803302D02*
X146242857Y-91755683D01*
X146242857Y-91755683D02*
X146147619Y-91708064D01*
X146147619Y-91708064D02*
X145957143Y-91660445D01*
X145957143Y-91660445D02*
X145861905Y-91612826D01*
X145861905Y-91612826D02*
X145814286Y-91565207D01*
X145814286Y-91565207D02*
X145766667Y-91469969D01*
X145766667Y-91469969D02*
X145766667Y-91374731D01*
X145766667Y-91374731D02*
X145814286Y-91279493D01*
X145814286Y-91279493D02*
X145861905Y-91231874D01*
X145861905Y-91231874D02*
X145957143Y-91184255D01*
X145957143Y-91184255D02*
X146195238Y-91184255D01*
X146195238Y-91184255D02*
X146338095Y-91231874D01*
X146671429Y-91184255D02*
X146909524Y-92184255D01*
X146909524Y-92184255D02*
X147100000Y-91469969D01*
X147100000Y-91469969D02*
X147290476Y-92184255D01*
X147290476Y-92184255D02*
X147528572Y-91184255D01*
X148385714Y-91184255D02*
X147909524Y-91184255D01*
X147909524Y-91184255D02*
X147861905Y-91660445D01*
X147861905Y-91660445D02*
X147909524Y-91612826D01*
X147909524Y-91612826D02*
X148004762Y-91565207D01*
X148004762Y-91565207D02*
X148242857Y-91565207D01*
X148242857Y-91565207D02*
X148338095Y-91612826D01*
X148338095Y-91612826D02*
X148385714Y-91660445D01*
X148385714Y-91660445D02*
X148433333Y-91755683D01*
X148433333Y-91755683D02*
X148433333Y-91993778D01*
X148433333Y-91993778D02*
X148385714Y-92089016D01*
X148385714Y-92089016D02*
X148338095Y-92136636D01*
X148338095Y-92136636D02*
X148242857Y-92184255D01*
X148242857Y-92184255D02*
X148004762Y-92184255D01*
X148004762Y-92184255D02*
X147909524Y-92136636D01*
X147909524Y-92136636D02*
X147861905Y-92089016D01*
X44133332Y-66692800D02*
X43990475Y-66645180D01*
X43990475Y-66645180D02*
X43752380Y-66645180D01*
X43752380Y-66645180D02*
X43657142Y-66692800D01*
X43657142Y-66692800D02*
X43609523Y-66740419D01*
X43609523Y-66740419D02*
X43561904Y-66835657D01*
X43561904Y-66835657D02*
X43561904Y-66930895D01*
X43561904Y-66930895D02*
X43609523Y-67026133D01*
X43609523Y-67026133D02*
X43657142Y-67073752D01*
X43657142Y-67073752D02*
X43752380Y-67121371D01*
X43752380Y-67121371D02*
X43942856Y-67168990D01*
X43942856Y-67168990D02*
X44038094Y-67216609D01*
X44038094Y-67216609D02*
X44085713Y-67264228D01*
X44085713Y-67264228D02*
X44133332Y-67359466D01*
X44133332Y-67359466D02*
X44133332Y-67454704D01*
X44133332Y-67454704D02*
X44085713Y-67549942D01*
X44085713Y-67549942D02*
X44038094Y-67597561D01*
X44038094Y-67597561D02*
X43942856Y-67645180D01*
X43942856Y-67645180D02*
X43704761Y-67645180D01*
X43704761Y-67645180D02*
X43561904Y-67597561D01*
X43228570Y-67645180D02*
X42990475Y-66645180D01*
X42990475Y-66645180D02*
X42799999Y-67359466D01*
X42799999Y-67359466D02*
X42609523Y-66645180D01*
X42609523Y-66645180D02*
X42371428Y-67645180D01*
X41466666Y-66645180D02*
X42038094Y-66645180D01*
X41752380Y-66645180D02*
X41752380Y-67645180D01*
X41752380Y-67645180D02*
X41847618Y-67502323D01*
X41847618Y-67502323D02*
X41942856Y-67407085D01*
X41942856Y-67407085D02*
X42038094Y-67359466D01*
X101778628Y-105476190D02*
X102254819Y-105476190D01*
X101254819Y-105809523D02*
X101778628Y-105476190D01*
X101778628Y-105476190D02*
X101254819Y-105142857D01*
X102254819Y-104285714D02*
X102254819Y-104857142D01*
X102254819Y-104571428D02*
X101254819Y-104571428D01*
X101254819Y-104571428D02*
X101397676Y-104666666D01*
X101397676Y-104666666D02*
X101492914Y-104761904D01*
X101492914Y-104761904D02*
X101540533Y-104857142D01*
X79879145Y-63361782D02*
X79379145Y-62495757D01*
X80786409Y-62837973D02*
X80259639Y-62592247D01*
X80291538Y-63123687D02*
X79791538Y-62257662D01*
X79791538Y-62257662D02*
X80121452Y-62067186D01*
X80121452Y-62067186D02*
X80227740Y-62060806D01*
X80227740Y-62060806D02*
X80292789Y-62078236D01*
X80292789Y-62078236D02*
X80381647Y-62136905D01*
X80381647Y-62136905D02*
X80453076Y-62260623D01*
X80453076Y-62260623D02*
X80459456Y-62366911D01*
X80459456Y-62366911D02*
X80442026Y-62431960D01*
X80442026Y-62431960D02*
X80383357Y-62520818D01*
X80383357Y-62520818D02*
X80053442Y-62711294D01*
X80575084Y-61805281D02*
X81111195Y-61495757D01*
X81111195Y-61495757D02*
X81012996Y-61992338D01*
X81012996Y-61992338D02*
X81136714Y-61920910D01*
X81136714Y-61920910D02*
X81243002Y-61914530D01*
X81243002Y-61914530D02*
X81308051Y-61931960D01*
X81308051Y-61931960D02*
X81396910Y-61990629D01*
X81396910Y-61990629D02*
X81515957Y-62196825D01*
X81515957Y-62196825D02*
X81522337Y-62303113D01*
X81522337Y-62303113D02*
X81504907Y-62368162D01*
X81504907Y-62368162D02*
X81446238Y-62457021D01*
X81446238Y-62457021D02*
X81198802Y-62599878D01*
X81198802Y-62599878D02*
X81092514Y-62606257D01*
X81092514Y-62606257D02*
X81027465Y-62588828D01*
X146884819Y-89166666D02*
X146408628Y-89499999D01*
X146884819Y-89738094D02*
X145884819Y-89738094D01*
X145884819Y-89738094D02*
X145884819Y-89357142D01*
X145884819Y-89357142D02*
X145932438Y-89261904D01*
X145932438Y-89261904D02*
X145980057Y-89214285D01*
X145980057Y-89214285D02*
X146075295Y-89166666D01*
X146075295Y-89166666D02*
X146218152Y-89166666D01*
X146218152Y-89166666D02*
X146313390Y-89214285D01*
X146313390Y-89214285D02*
X146361009Y-89261904D01*
X146361009Y-89261904D02*
X146408628Y-89357142D01*
X146408628Y-89357142D02*
X146408628Y-89738094D01*
X146218152Y-88309523D02*
X146884819Y-88309523D01*
X145837200Y-88547618D02*
X146551485Y-88785713D01*
X146551485Y-88785713D02*
X146551485Y-88166666D01*
X144024819Y-89119047D02*
X144024819Y-89690475D01*
X144024819Y-89404761D02*
X143024819Y-89404761D01*
X143024819Y-89404761D02*
X143167676Y-89499999D01*
X143167676Y-89499999D02*
X143262914Y-89595237D01*
X143262914Y-89595237D02*
X143310533Y-89690475D01*
X144024819Y-88690475D02*
X143024819Y-88690475D01*
X143643866Y-88595237D02*
X144024819Y-88309523D01*
X143358152Y-88309523D02*
X143739104Y-88690475D01*
X136434819Y-78333333D02*
X137149104Y-78333333D01*
X137149104Y-78333333D02*
X137291961Y-78380952D01*
X137291961Y-78380952D02*
X137387200Y-78476190D01*
X137387200Y-78476190D02*
X137434819Y-78619047D01*
X137434819Y-78619047D02*
X137434819Y-78714285D01*
X136530057Y-77904761D02*
X136482438Y-77857142D01*
X136482438Y-77857142D02*
X136434819Y-77761904D01*
X136434819Y-77761904D02*
X136434819Y-77523809D01*
X136434819Y-77523809D02*
X136482438Y-77428571D01*
X136482438Y-77428571D02*
X136530057Y-77380952D01*
X136530057Y-77380952D02*
X136625295Y-77333333D01*
X136625295Y-77333333D02*
X136720533Y-77333333D01*
X136720533Y-77333333D02*
X136863390Y-77380952D01*
X136863390Y-77380952D02*
X137434819Y-77952380D01*
X137434819Y-77952380D02*
X137434819Y-77333333D01*
X101833333Y-108859580D02*
X101785714Y-108907200D01*
X101785714Y-108907200D02*
X101642857Y-108954819D01*
X101642857Y-108954819D02*
X101547619Y-108954819D01*
X101547619Y-108954819D02*
X101404762Y-108907200D01*
X101404762Y-108907200D02*
X101309524Y-108811961D01*
X101309524Y-108811961D02*
X101261905Y-108716723D01*
X101261905Y-108716723D02*
X101214286Y-108526247D01*
X101214286Y-108526247D02*
X101214286Y-108383390D01*
X101214286Y-108383390D02*
X101261905Y-108192914D01*
X101261905Y-108192914D02*
X101309524Y-108097676D01*
X101309524Y-108097676D02*
X101404762Y-108002438D01*
X101404762Y-108002438D02*
X101547619Y-107954819D01*
X101547619Y-107954819D02*
X101642857Y-107954819D01*
X101642857Y-107954819D02*
X101785714Y-108002438D01*
X101785714Y-108002438D02*
X101833333Y-108050057D01*
X102690476Y-108288152D02*
X102690476Y-108954819D01*
X102452381Y-107907200D02*
X102214286Y-108621485D01*
X102214286Y-108621485D02*
X102833333Y-108621485D01*
X107333333Y-108854819D02*
X106761905Y-108854819D01*
X107047619Y-108854819D02*
X107047619Y-107854819D01*
X107047619Y-107854819D02*
X106952381Y-107997676D01*
X106952381Y-107997676D02*
X106857143Y-108092914D01*
X106857143Y-108092914D02*
X106761905Y-108140533D01*
X107761905Y-108188152D02*
X107761905Y-109188152D01*
X108238095Y-108711961D02*
X108285714Y-108807200D01*
X108285714Y-108807200D02*
X108380952Y-108854819D01*
X107761905Y-108711961D02*
X107809524Y-108807200D01*
X107809524Y-108807200D02*
X107904762Y-108854819D01*
X107904762Y-108854819D02*
X108095238Y-108854819D01*
X108095238Y-108854819D02*
X108190476Y-108807200D01*
X108190476Y-108807200D02*
X108238095Y-108711961D01*
X108238095Y-108711961D02*
X108238095Y-108188152D01*
X109142857Y-108331009D02*
X108809524Y-108331009D01*
X108809524Y-108854819D02*
X108809524Y-107854819D01*
X108809524Y-107854819D02*
X109285714Y-107854819D01*
X57794207Y-93320461D02*
X56828282Y-93061642D01*
X58065351Y-92308539D02*
X57519113Y-92507268D01*
X57917455Y-92860497D02*
X56951529Y-92601678D01*
X56951529Y-92601678D02*
X57050126Y-92233706D01*
X57050126Y-92233706D02*
X57120772Y-92154038D01*
X57120772Y-92154038D02*
X57179093Y-92120366D01*
X57179093Y-92120366D02*
X57283411Y-92099019D01*
X57283411Y-92099019D02*
X57421401Y-92135993D01*
X57421401Y-92135993D02*
X57501069Y-92206639D01*
X57501069Y-92206639D02*
X57534741Y-92264960D01*
X57534741Y-92264960D02*
X57556088Y-92369278D01*
X57556088Y-92369278D02*
X57457490Y-92737250D01*
X57321270Y-91221784D02*
X57271971Y-91405770D01*
X57271971Y-91405770D02*
X57293318Y-91510087D01*
X57293318Y-91510087D02*
X57326990Y-91568409D01*
X57326990Y-91568409D02*
X57440330Y-91697376D01*
X57440330Y-91697376D02*
X57611991Y-91792671D01*
X57611991Y-91792671D02*
X57979963Y-91891269D01*
X57979963Y-91891269D02*
X58084281Y-91869922D01*
X58084281Y-91869922D02*
X58142602Y-91836250D01*
X58142602Y-91836250D02*
X58213248Y-91756582D01*
X58213248Y-91756582D02*
X58262547Y-91572596D01*
X58262547Y-91572596D02*
X58241200Y-91468278D01*
X58241200Y-91468278D02*
X58207528Y-91409957D01*
X58207528Y-91409957D02*
X58127860Y-91339311D01*
X58127860Y-91339311D02*
X57897877Y-91277688D01*
X57897877Y-91277688D02*
X57793560Y-91299035D01*
X57793560Y-91299035D02*
X57735238Y-91332706D01*
X57735238Y-91332706D02*
X57664592Y-91412375D01*
X57664592Y-91412375D02*
X57615294Y-91596360D01*
X57615294Y-91596360D02*
X57636641Y-91700678D01*
X57636641Y-91700678D02*
X57670312Y-91758999D01*
X57670312Y-91758999D02*
X57749981Y-91829645D01*
X113884819Y-104991666D02*
X113408628Y-105324999D01*
X113884819Y-105563094D02*
X112884819Y-105563094D01*
X112884819Y-105563094D02*
X112884819Y-105182142D01*
X112884819Y-105182142D02*
X112932438Y-105086904D01*
X112932438Y-105086904D02*
X112980057Y-105039285D01*
X112980057Y-105039285D02*
X113075295Y-104991666D01*
X113075295Y-104991666D02*
X113218152Y-104991666D01*
X113218152Y-104991666D02*
X113313390Y-105039285D01*
X113313390Y-105039285D02*
X113361009Y-105086904D01*
X113361009Y-105086904D02*
X113408628Y-105182142D01*
X113408628Y-105182142D02*
X113408628Y-105563094D01*
X113313390Y-104420237D02*
X113265771Y-104515475D01*
X113265771Y-104515475D02*
X113218152Y-104563094D01*
X113218152Y-104563094D02*
X113122914Y-104610713D01*
X113122914Y-104610713D02*
X113075295Y-104610713D01*
X113075295Y-104610713D02*
X112980057Y-104563094D01*
X112980057Y-104563094D02*
X112932438Y-104515475D01*
X112932438Y-104515475D02*
X112884819Y-104420237D01*
X112884819Y-104420237D02*
X112884819Y-104229761D01*
X112884819Y-104229761D02*
X112932438Y-104134523D01*
X112932438Y-104134523D02*
X112980057Y-104086904D01*
X112980057Y-104086904D02*
X113075295Y-104039285D01*
X113075295Y-104039285D02*
X113122914Y-104039285D01*
X113122914Y-104039285D02*
X113218152Y-104086904D01*
X113218152Y-104086904D02*
X113265771Y-104134523D01*
X113265771Y-104134523D02*
X113313390Y-104229761D01*
X113313390Y-104229761D02*
X113313390Y-104420237D01*
X113313390Y-104420237D02*
X113361009Y-104515475D01*
X113361009Y-104515475D02*
X113408628Y-104563094D01*
X113408628Y-104563094D02*
X113503866Y-104610713D01*
X113503866Y-104610713D02*
X113694342Y-104610713D01*
X113694342Y-104610713D02*
X113789580Y-104563094D01*
X113789580Y-104563094D02*
X113837200Y-104515475D01*
X113837200Y-104515475D02*
X113884819Y-104420237D01*
X113884819Y-104420237D02*
X113884819Y-104229761D01*
X113884819Y-104229761D02*
X113837200Y-104134523D01*
X113837200Y-104134523D02*
X113789580Y-104086904D01*
X113789580Y-104086904D02*
X113694342Y-104039285D01*
X113694342Y-104039285D02*
X113503866Y-104039285D01*
X113503866Y-104039285D02*
X113408628Y-104086904D01*
X113408628Y-104086904D02*
X113361009Y-104134523D01*
X113361009Y-104134523D02*
X113313390Y-104229761D01*
X111024819Y-105420238D02*
X111024819Y-105991666D01*
X111024819Y-105705952D02*
X110024819Y-105705952D01*
X110024819Y-105705952D02*
X110167676Y-105801190D01*
X110167676Y-105801190D02*
X110262914Y-105896428D01*
X110262914Y-105896428D02*
X110310533Y-105991666D01*
X110024819Y-104801190D02*
X110024819Y-104705952D01*
X110024819Y-104705952D02*
X110072438Y-104610714D01*
X110072438Y-104610714D02*
X110120057Y-104563095D01*
X110120057Y-104563095D02*
X110215295Y-104515476D01*
X110215295Y-104515476D02*
X110405771Y-104467857D01*
X110405771Y-104467857D02*
X110643866Y-104467857D01*
X110643866Y-104467857D02*
X110834342Y-104515476D01*
X110834342Y-104515476D02*
X110929580Y-104563095D01*
X110929580Y-104563095D02*
X110977200Y-104610714D01*
X110977200Y-104610714D02*
X111024819Y-104705952D01*
X111024819Y-104705952D02*
X111024819Y-104801190D01*
X111024819Y-104801190D02*
X110977200Y-104896428D01*
X110977200Y-104896428D02*
X110929580Y-104944047D01*
X110929580Y-104944047D02*
X110834342Y-104991666D01*
X110834342Y-104991666D02*
X110643866Y-105039285D01*
X110643866Y-105039285D02*
X110405771Y-105039285D01*
X110405771Y-105039285D02*
X110215295Y-104991666D01*
X110215295Y-104991666D02*
X110120057Y-104944047D01*
X110120057Y-104944047D02*
X110072438Y-104896428D01*
X110072438Y-104896428D02*
X110024819Y-104801190D01*
X111024819Y-104039285D02*
X110024819Y-104039285D01*
X110643866Y-103944047D02*
X111024819Y-103658333D01*
X110358152Y-103658333D02*
X110739104Y-104039285D01*
X103507619Y-154529819D02*
X103507619Y-153529819D01*
X104555237Y-154529819D02*
X104221904Y-154053628D01*
X103983809Y-154529819D02*
X103983809Y-153529819D01*
X103983809Y-153529819D02*
X104364761Y-153529819D01*
X104364761Y-153529819D02*
X104459999Y-153577438D01*
X104459999Y-153577438D02*
X104507618Y-153625057D01*
X104507618Y-153625057D02*
X104555237Y-153720295D01*
X104555237Y-153720295D02*
X104555237Y-153863152D01*
X104555237Y-153863152D02*
X104507618Y-153958390D01*
X104507618Y-153958390D02*
X104459999Y-154006009D01*
X104459999Y-154006009D02*
X104364761Y-154053628D01*
X104364761Y-154053628D02*
X103983809Y-154053628D01*
X105507618Y-154529819D02*
X104936190Y-154529819D01*
X105221904Y-154529819D02*
X105221904Y-153529819D01*
X105221904Y-153529819D02*
X105126666Y-153672676D01*
X105126666Y-153672676D02*
X105031428Y-153767914D01*
X105031428Y-153767914D02*
X104936190Y-153815533D01*
X105840952Y-153529819D02*
X106459999Y-153529819D01*
X106459999Y-153529819D02*
X106126666Y-153910771D01*
X106126666Y-153910771D02*
X106269523Y-153910771D01*
X106269523Y-153910771D02*
X106364761Y-153958390D01*
X106364761Y-153958390D02*
X106412380Y-154006009D01*
X106412380Y-154006009D02*
X106459999Y-154101247D01*
X106459999Y-154101247D02*
X106459999Y-154339342D01*
X106459999Y-154339342D02*
X106412380Y-154434580D01*
X106412380Y-154434580D02*
X106364761Y-154482200D01*
X106364761Y-154482200D02*
X106269523Y-154529819D01*
X106269523Y-154529819D02*
X105983809Y-154529819D01*
X105983809Y-154529819D02*
X105888571Y-154482200D01*
X105888571Y-154482200D02*
X105840952Y-154434580D01*
X68921856Y-138967598D02*
X69628962Y-138260491D01*
X69662634Y-139708376D02*
X69763649Y-139135956D01*
X69258573Y-139304315D02*
X69965680Y-138597208D01*
X69965680Y-138597208D02*
X70235054Y-138866582D01*
X70235054Y-138866582D02*
X70268725Y-138967598D01*
X70268725Y-138967598D02*
X70268725Y-139034941D01*
X70268725Y-139034941D02*
X70235054Y-139135956D01*
X70235054Y-139135956D02*
X70134038Y-139236972D01*
X70134038Y-139236972D02*
X70033023Y-139270643D01*
X70033023Y-139270643D02*
X69965680Y-139270643D01*
X69965680Y-139270643D02*
X69864664Y-139236972D01*
X69864664Y-139236972D02*
X69595290Y-138967598D01*
X70336069Y-140381811D02*
X69932008Y-139977750D01*
X70134038Y-140179781D02*
X70841145Y-139472674D01*
X70841145Y-139472674D02*
X70672786Y-139506346D01*
X70672786Y-139506346D02*
X70538099Y-139506346D01*
X70538099Y-139506346D02*
X70437084Y-139472674D01*
X71480908Y-140112437D02*
X71548252Y-140179781D01*
X71548252Y-140179781D02*
X71581924Y-140280796D01*
X71581924Y-140280796D02*
X71581924Y-140348139D01*
X71581924Y-140348139D02*
X71548252Y-140449155D01*
X71548252Y-140449155D02*
X71447237Y-140617513D01*
X71447237Y-140617513D02*
X71278878Y-140785872D01*
X71278878Y-140785872D02*
X71110519Y-140886887D01*
X71110519Y-140886887D02*
X71009504Y-140920559D01*
X71009504Y-140920559D02*
X70942160Y-140920559D01*
X70942160Y-140920559D02*
X70841145Y-140886887D01*
X70841145Y-140886887D02*
X70773802Y-140819544D01*
X70773802Y-140819544D02*
X70740130Y-140718529D01*
X70740130Y-140718529D02*
X70740130Y-140651185D01*
X70740130Y-140651185D02*
X70773802Y-140550170D01*
X70773802Y-140550170D02*
X70874817Y-140381811D01*
X70874817Y-140381811D02*
X71043176Y-140213452D01*
X71043176Y-140213452D02*
X71211534Y-140112437D01*
X71211534Y-140112437D02*
X71312550Y-140078765D01*
X71312550Y-140078765D02*
X71379893Y-140078765D01*
X71379893Y-140078765D02*
X71480908Y-140112437D01*
X72474819Y-78333333D02*
X73189104Y-78333333D01*
X73189104Y-78333333D02*
X73331961Y-78380952D01*
X73331961Y-78380952D02*
X73427200Y-78476190D01*
X73427200Y-78476190D02*
X73474819Y-78619047D01*
X73474819Y-78619047D02*
X73474819Y-78714285D01*
X73474819Y-77333333D02*
X73474819Y-77904761D01*
X73474819Y-77619047D02*
X72474819Y-77619047D01*
X72474819Y-77619047D02*
X72617676Y-77714285D01*
X72617676Y-77714285D02*
X72712914Y-77809523D01*
X72712914Y-77809523D02*
X72760533Y-77904761D01*
X112008333Y-100024819D02*
X111675000Y-99548628D01*
X111436905Y-100024819D02*
X111436905Y-99024819D01*
X111436905Y-99024819D02*
X111817857Y-99024819D01*
X111817857Y-99024819D02*
X111913095Y-99072438D01*
X111913095Y-99072438D02*
X111960714Y-99120057D01*
X111960714Y-99120057D02*
X112008333Y-99215295D01*
X112008333Y-99215295D02*
X112008333Y-99358152D01*
X112008333Y-99358152D02*
X111960714Y-99453390D01*
X111960714Y-99453390D02*
X111913095Y-99501009D01*
X111913095Y-99501009D02*
X111817857Y-99548628D01*
X111817857Y-99548628D02*
X111436905Y-99548628D01*
X112960714Y-100024819D02*
X112389286Y-100024819D01*
X112675000Y-100024819D02*
X112675000Y-99024819D01*
X112675000Y-99024819D02*
X112579762Y-99167676D01*
X112579762Y-99167676D02*
X112484524Y-99262914D01*
X112484524Y-99262914D02*
X112389286Y-99310533D01*
X112055952Y-102884819D02*
X111484524Y-102884819D01*
X111770238Y-102884819D02*
X111770238Y-101884819D01*
X111770238Y-101884819D02*
X111675000Y-102027676D01*
X111675000Y-102027676D02*
X111579762Y-102122914D01*
X111579762Y-102122914D02*
X111484524Y-102170533D01*
X112484524Y-102884819D02*
X112484524Y-101884819D01*
X112579762Y-102503866D02*
X112865476Y-102884819D01*
X112865476Y-102218152D02*
X112484524Y-102599104D01*
X151597937Y-91051916D02*
X152563863Y-90793097D01*
X151869081Y-92063838D02*
X152242773Y-91618616D01*
X151721184Y-91511880D02*
X152687110Y-91253061D01*
X152687110Y-91253061D02*
X152785708Y-91621033D01*
X152785708Y-91621033D02*
X152764361Y-91725351D01*
X152764361Y-91725351D02*
X152730689Y-91783672D01*
X152730689Y-91783672D02*
X152651021Y-91854318D01*
X152651021Y-91854318D02*
X152513031Y-91891292D01*
X152513031Y-91891292D02*
X152408714Y-91869945D01*
X152408714Y-91869945D02*
X152350393Y-91836273D01*
X152350393Y-91836273D02*
X152279747Y-91756605D01*
X152279747Y-91756605D02*
X152181149Y-91388633D01*
X152841611Y-92197640D02*
X152899933Y-92231312D01*
X152899933Y-92231312D02*
X152970579Y-92310980D01*
X152970579Y-92310980D02*
X153032202Y-92540963D01*
X153032202Y-92540963D02*
X153010855Y-92645280D01*
X153010855Y-92645280D02*
X152977183Y-92703601D01*
X152977183Y-92703601D02*
X152897515Y-92774247D01*
X152897515Y-92774247D02*
X152805522Y-92798897D01*
X152805522Y-92798897D02*
X152655208Y-92789874D01*
X152655208Y-92789874D02*
X151955354Y-92385813D01*
X151955354Y-92385813D02*
X152115575Y-92983767D01*
X153241722Y-93322903D02*
X153266372Y-93414895D01*
X153266372Y-93414895D02*
X153245025Y-93519213D01*
X153245025Y-93519213D02*
X153211353Y-93577534D01*
X153211353Y-93577534D02*
X153131685Y-93648180D01*
X153131685Y-93648180D02*
X152960024Y-93743476D01*
X152960024Y-93743476D02*
X152730041Y-93805099D01*
X152730041Y-93805099D02*
X152533731Y-93808402D01*
X152533731Y-93808402D02*
X152429413Y-93787054D01*
X152429413Y-93787054D02*
X152371092Y-93753383D01*
X152371092Y-93753383D02*
X152300446Y-93673715D01*
X152300446Y-93673715D02*
X152275797Y-93581722D01*
X152275797Y-93581722D02*
X152297144Y-93477404D01*
X152297144Y-93477404D02*
X152330815Y-93419083D01*
X152330815Y-93419083D02*
X152410484Y-93348437D01*
X152410484Y-93348437D02*
X152582145Y-93253141D01*
X152582145Y-93253141D02*
X152812127Y-93191518D01*
X152812127Y-93191518D02*
X153008438Y-93188216D01*
X153008438Y-93188216D02*
X153112755Y-93209563D01*
X153112755Y-93209563D02*
X153171076Y-93243234D01*
X153171076Y-93243234D02*
X153241722Y-93322903D01*
X136434819Y-132333333D02*
X137149104Y-132333333D01*
X137149104Y-132333333D02*
X137291961Y-132380952D01*
X137291961Y-132380952D02*
X137387200Y-132476190D01*
X137387200Y-132476190D02*
X137434819Y-132619047D01*
X137434819Y-132619047D02*
X137434819Y-132714285D01*
X136768152Y-131428571D02*
X137434819Y-131428571D01*
X136387200Y-131666666D02*
X137101485Y-131904761D01*
X137101485Y-131904761D02*
X137101485Y-131285714D01*
X149754819Y-114089052D02*
X150469104Y-114089052D01*
X150469104Y-114089052D02*
X150611961Y-114136671D01*
X150611961Y-114136671D02*
X150707200Y-114231909D01*
X150707200Y-114231909D02*
X150754819Y-114374766D01*
X150754819Y-114374766D02*
X150754819Y-114470004D01*
X149754819Y-113184290D02*
X149754819Y-113374766D01*
X149754819Y-113374766D02*
X149802438Y-113470004D01*
X149802438Y-113470004D02*
X149850057Y-113517623D01*
X149850057Y-113517623D02*
X149992914Y-113612861D01*
X149992914Y-113612861D02*
X150183390Y-113660480D01*
X150183390Y-113660480D02*
X150564342Y-113660480D01*
X150564342Y-113660480D02*
X150659580Y-113612861D01*
X150659580Y-113612861D02*
X150707200Y-113565242D01*
X150707200Y-113565242D02*
X150754819Y-113470004D01*
X150754819Y-113470004D02*
X150754819Y-113279528D01*
X150754819Y-113279528D02*
X150707200Y-113184290D01*
X150707200Y-113184290D02*
X150659580Y-113136671D01*
X150659580Y-113136671D02*
X150564342Y-113089052D01*
X150564342Y-113089052D02*
X150326247Y-113089052D01*
X150326247Y-113089052D02*
X150231009Y-113136671D01*
X150231009Y-113136671D02*
X150183390Y-113184290D01*
X150183390Y-113184290D02*
X150135771Y-113279528D01*
X150135771Y-113279528D02*
X150135771Y-113470004D01*
X150135771Y-113470004D02*
X150183390Y-113565242D01*
X150183390Y-113565242D02*
X150231009Y-113612861D01*
X150231009Y-113612861D02*
X150326247Y-113660480D01*
D13*
X127730834Y-60429040D02*
X129982500Y-61729040D01*
X127905834Y-60125931D02*
X127730834Y-60429040D01*
X129065834Y-58116753D02*
X129235834Y-57822304D01*
X129235834Y-57822304D02*
X133643903Y-60367304D01*
X133306948Y-60170759D02*
G75*
G03*
X129668847Y-58072304I-1869449J961851D01*
G01*
X154965000Y-102400000D02*
X154965000Y-105000000D01*
X155315000Y-102400000D02*
X154965000Y-102400000D01*
X157635000Y-102400000D02*
X157975000Y-102400000D01*
X157975000Y-102400000D02*
X157975000Y-107490000D01*
X157976736Y-107099916D02*
G75*
G03*
X157975000Y-102900001I-101738J2099916D01*
G01*
X70670000Y-87145000D02*
X72000000Y-87145000D01*
X70670000Y-88475000D02*
X70670000Y-87145000D01*
X70670000Y-89745000D02*
X70670000Y-94885000D01*
X70670000Y-89745000D02*
X73330000Y-89745000D01*
X70670000Y-94885000D02*
X73330000Y-94885000D01*
X73330000Y-89745000D02*
X73330000Y-94885000D01*
X117272500Y-101735000D02*
X117272500Y-100265000D01*
X117272500Y-100265000D02*
X114987500Y-100265000D01*
X114987500Y-101735000D02*
X117272500Y-101735000D01*
X57410446Y-120443300D02*
X56737516Y-117931893D01*
X57072371Y-120533887D02*
X57410446Y-120443300D01*
X54831424Y-121134347D02*
X54503009Y-121222346D01*
X54503009Y-121222346D02*
X53185620Y-116305783D01*
X53284904Y-116683025D02*
G75*
G03*
X54373599Y-120739382I641770J-2002031D01*
G01*
X146970960Y-77765834D02*
X148270960Y-80017500D01*
X147274069Y-77590834D02*
X146970960Y-77765834D01*
X149283247Y-76430834D02*
X149577696Y-76260834D01*
X149577696Y-76260834D02*
X152122696Y-80668903D01*
X151929158Y-80330213D02*
G75*
G03*
X149827696Y-76693847I-1138066J1767712D01*
G01*
D10*
X113750000Y-144120000D02*
X113750000Y-127120000D01*
X111750000Y-125120000D02*
X98250000Y-125120000D01*
X109500000Y-147620000D02*
X100500000Y-147620000D01*
X109500000Y-146120000D02*
X111750000Y-146120000D01*
X109500000Y-140320000D02*
X109500000Y-147620000D01*
X105000000Y-147620000D02*
X109500000Y-147620000D01*
X100500000Y-147620000D02*
X100500000Y-140320000D01*
X100500000Y-140320000D02*
X109500000Y-140320000D01*
X98250000Y-146120000D02*
X100500000Y-146120000D01*
X96250000Y-127120000D02*
X96250000Y-144120000D01*
X111750000Y-146120000D02*
G75*
G03*
X113750000Y-144120000I1J1999999D01*
G01*
X113750000Y-127120000D02*
G75*
G03*
X111750000Y-125120000I-1999999J1D01*
G01*
X96250000Y-144120000D02*
G75*
G03*
X98250000Y-146120000I2000000J0D01*
G01*
X98250000Y-125120000D02*
G75*
G03*
X96250000Y-127120000I0J-2000000D01*
G01*
D14*
X144825760Y-96941659D02*
X144825760Y-108569779D01*
X144825760Y-108569779D02*
X149174240Y-108569779D01*
X149174240Y-96941659D02*
X144825760Y-96941659D01*
X149174240Y-108569779D02*
X149174240Y-96941659D01*
D13*
X104634420Y-100470000D02*
X104915580Y-100470000D01*
X104634420Y-101490000D02*
X104915580Y-101490000D01*
X153935414Y-115420486D02*
X153262484Y-117931893D01*
X154273488Y-115511073D02*
X153935414Y-115420486D01*
X156514435Y-116111533D02*
X156842850Y-116199531D01*
X156842850Y-116199531D02*
X155525461Y-121116094D01*
X155628099Y-120739752D02*
G75*
G03*
X156713441Y-116682494I445227J2054696D01*
G01*
X60429040Y-82269166D02*
X61729040Y-80017500D01*
X60125931Y-82094166D02*
X60429040Y-82269166D01*
X58116753Y-80934166D02*
X57822304Y-80764166D01*
X57822304Y-80764166D02*
X60367304Y-76356097D01*
X60170759Y-76693052D02*
G75*
G03*
X58072304Y-80331153I-961851J-1869449D01*
G01*
X99510000Y-98859420D02*
X99510000Y-99140580D01*
X98490000Y-98859420D02*
X98490000Y-99140580D01*
X115420486Y-56064586D02*
X117931893Y-56737516D01*
X115511073Y-55726512D02*
X115420486Y-56064586D01*
X116111533Y-53485565D02*
X116199531Y-53157150D01*
X116199531Y-53157150D02*
X121116094Y-54474539D01*
X120739752Y-54371901D02*
G75*
G03*
X116682494Y-53286559I-2054696J445227D01*
G01*
D15*
X75380000Y-86966000D02*
X75380000Y-123026000D01*
X80570000Y-86966000D02*
X75380000Y-86966000D01*
X88190000Y-86966000D02*
X80570000Y-86966000D01*
X93380000Y-86966000D02*
X88190000Y-86966000D01*
X93380000Y-86966000D02*
X93380000Y-123026000D01*
X93380000Y-123026000D02*
X75380000Y-123026000D01*
D11*
X89460000Y-99031000D02*
X79300000Y-99031000D01*
X79300000Y-99031000D02*
X79300000Y-109191000D01*
X79300000Y-109191000D02*
X89460000Y-109191000D01*
X89460000Y-109191000D02*
X89460000Y-99031000D01*
D15*
X84126000Y-103349000D02*
X83745000Y-103603000D01*
X83491000Y-103349000D01*
X83872000Y-103095000D01*
X84126000Y-103349000D01*
G36*
X84126000Y-103349000D02*
G01*
X83745000Y-103603000D01*
X83491000Y-103349000D01*
X83872000Y-103095000D01*
X84126000Y-103349000D01*
G37*
X84253000Y-102587000D02*
X83872000Y-102841000D01*
X83618000Y-102587000D01*
X83999000Y-102333000D01*
X84253000Y-102587000D01*
G36*
X84253000Y-102587000D02*
G01*
X83872000Y-102841000D01*
X83618000Y-102587000D01*
X83999000Y-102333000D01*
X84253000Y-102587000D01*
G37*
X84507000Y-101063000D02*
X84126000Y-101317000D01*
X83872000Y-101063000D01*
X84253000Y-100809000D01*
X84507000Y-101063000D01*
G36*
X84507000Y-101063000D02*
G01*
X84126000Y-101317000D01*
X83872000Y-101063000D01*
X84253000Y-100809000D01*
X84507000Y-101063000D01*
G37*
X84634000Y-102968000D02*
X84253000Y-103222000D01*
X83999000Y-102968000D01*
X84380000Y-102714000D01*
X84634000Y-102968000D01*
G36*
X84634000Y-102968000D02*
G01*
X84253000Y-103222000D01*
X83999000Y-102968000D01*
X84380000Y-102714000D01*
X84634000Y-102968000D01*
G37*
X84761000Y-102206000D02*
X84380000Y-102460000D01*
X84126000Y-102206000D01*
X84507000Y-101952000D01*
X84761000Y-102206000D01*
G36*
X84761000Y-102206000D02*
G01*
X84380000Y-102460000D01*
X84126000Y-102206000D01*
X84507000Y-101952000D01*
X84761000Y-102206000D01*
G37*
X84888000Y-101444000D02*
X84507000Y-101698000D01*
X84253000Y-101444000D01*
X84634000Y-101190000D01*
X84888000Y-101444000D01*
G36*
X84888000Y-101444000D02*
G01*
X84507000Y-101698000D01*
X84253000Y-101444000D01*
X84634000Y-101190000D01*
X84888000Y-101444000D01*
G37*
X85142000Y-102587000D02*
X84761000Y-102841000D01*
X84507000Y-102587000D01*
X84888000Y-102333000D01*
X85142000Y-102587000D01*
G36*
X85142000Y-102587000D02*
G01*
X84761000Y-102841000D01*
X84507000Y-102587000D01*
X84888000Y-102333000D01*
X85142000Y-102587000D01*
G37*
X85269000Y-101825000D02*
X84888000Y-102079000D01*
X84634000Y-101825000D01*
X85015000Y-101571000D01*
X85269000Y-101825000D01*
G36*
X85269000Y-101825000D02*
G01*
X84888000Y-102079000D01*
X84634000Y-101825000D01*
X85015000Y-101571000D01*
X85269000Y-101825000D01*
G37*
D13*
X104634420Y-102980000D02*
X104915580Y-102980000D01*
X104634420Y-104000000D02*
X104915580Y-104000000D01*
X55035000Y-107600000D02*
X55035000Y-105000000D01*
X54685000Y-107600000D02*
X55035000Y-107600000D01*
X52365000Y-107600000D02*
X52025000Y-107600000D01*
X52025000Y-107600000D02*
X52025000Y-102510000D01*
X52023264Y-102900084D02*
G75*
G03*
X52025000Y-107099999I101738J-2099916D01*
G01*
X103440000Y-75000000D02*
X103440000Y-76800000D01*
X103440000Y-75000000D02*
X103440000Y-74200000D01*
X106560000Y-75000000D02*
X106560000Y-75800000D01*
X106560000Y-75000000D02*
X106560000Y-74200000D01*
X103762742Y-111477500D02*
X104237258Y-111477500D01*
X103762742Y-112522500D02*
X104237258Y-112522500D01*
X142169068Y-138492113D02*
X140330591Y-140330591D01*
X142416556Y-138739601D02*
X142169068Y-138492113D01*
X144057043Y-140380088D02*
X144297460Y-140620505D01*
X144297460Y-140620505D02*
X140698286Y-144219678D01*
X140975345Y-143945074D02*
G75*
G03*
X143943906Y-140974058I1412925J1556804D01*
G01*
X104634420Y-105490000D02*
X104915580Y-105490000D01*
X104634420Y-106510000D02*
X104915580Y-106510000D01*
X102400000Y-55035000D02*
X105000000Y-55035000D01*
X102400000Y-54685000D02*
X102400000Y-55035000D01*
X102400000Y-52365000D02*
X102400000Y-52025000D01*
X102400000Y-52025000D02*
X107490000Y-52025000D01*
X107099916Y-52023264D02*
G75*
G03*
X102900001Y-52025000I-2099916J-101738D01*
G01*
D12*
X92300000Y-65110000D02*
X92300000Y-82890000D01*
X94840000Y-85430000D02*
X115160000Y-85430000D01*
X115160000Y-62570000D02*
X94840000Y-62570000D01*
X117700000Y-82890000D02*
X117700000Y-65110000D01*
X94840000Y-62570000D02*
G75*
G03*
X92300000Y-65110000I1J-2540001D01*
G01*
X92300000Y-82890000D02*
G75*
G03*
X94840000Y-85430000I2540001J1D01*
G01*
X117700000Y-65110000D02*
G75*
G03*
X115160000Y-62570000I-2540000J0D01*
G01*
X115160000Y-85430000D02*
G75*
G03*
X117700000Y-82890000I0J2540000D01*
G01*
D13*
X132234166Y-146970960D02*
X129982500Y-148270960D01*
X132409166Y-147274069D02*
X132234166Y-146970960D01*
X133569166Y-149283247D02*
X133739166Y-149577696D01*
X133739166Y-149577696D02*
X129331097Y-152122696D01*
X129669787Y-151929158D02*
G75*
G03*
X133306153Y-149827696I1767712J1138066D01*
G01*
X82269166Y-149570960D02*
X80017500Y-148270960D01*
X82094166Y-149874069D02*
X82269166Y-149570960D01*
X80934166Y-151883247D02*
X80764166Y-152177696D01*
X80764166Y-152177696D02*
X76356097Y-149632696D01*
X76693052Y-149829241D02*
G75*
G03*
X80331153Y-151927696I1869449J-961851D01*
G01*
X149570960Y-127730834D02*
X148270960Y-129982500D01*
X149874069Y-127905834D02*
X149570960Y-127730834D01*
X151883247Y-129065834D02*
X152177696Y-129235834D01*
X152177696Y-129235834D02*
X149632696Y-133643903D01*
X149829241Y-133306948D02*
G75*
G03*
X151927696Y-129668847I961851J1869449D01*
G01*
X89556700Y-57410446D02*
X92068107Y-56737516D01*
X89466113Y-57072371D02*
X89556700Y-57410446D01*
X88865653Y-54831424D02*
X88777654Y-54503009D01*
X88777654Y-54503009D02*
X93694217Y-53185620D01*
X93316975Y-53284904D02*
G75*
G03*
X89260618Y-54373599I-2002031J-641770D01*
G01*
X120443300Y-152589554D02*
X117931893Y-153262484D01*
X120533887Y-152927629D02*
X120443300Y-152589554D01*
X121134347Y-155168576D02*
X121222346Y-155496991D01*
X121222346Y-155496991D02*
X116305783Y-156814380D01*
X116683025Y-156715096D02*
G75*
G03*
X120739382Y-155626401I2002031J641770D01*
G01*
X103440000Y-135000000D02*
X103440000Y-136800000D01*
X103440000Y-135000000D02*
X103440000Y-134200000D01*
X106560000Y-135000000D02*
X106560000Y-135800000D01*
X106560000Y-135000000D02*
X106560000Y-134200000D01*
X75215000Y-135610000D02*
X75215000Y-134560000D01*
X77715000Y-135610000D02*
X75215000Y-135610000D01*
X75215000Y-134560000D02*
X74225000Y-134560000D01*
X79685000Y-134440000D02*
X79685000Y-129560000D01*
X75215000Y-128390000D02*
X75215000Y-129440000D01*
X77715000Y-128390000D02*
X75215000Y-128390000D01*
X63029040Y-132234166D02*
X61729040Y-129982500D01*
X62725931Y-132409166D02*
X63029040Y-132234166D01*
X60716753Y-133569166D02*
X60422304Y-133739166D01*
X60422304Y-133739166D02*
X57877304Y-129331097D01*
X58070842Y-129669787D02*
G75*
G03*
X60172304Y-133306153I1138066J-1767712D01*
G01*
X67830932Y-71507887D02*
X69669409Y-69669409D01*
X67583444Y-71260399D02*
X67830932Y-71507887D01*
X65942957Y-69619912D02*
X65702540Y-69379495D01*
X65702540Y-69379495D02*
X69301714Y-65780322D01*
X69024655Y-66054926D02*
G75*
G03*
X66056094Y-69025942I-1412925J-1556804D01*
G01*
X138492113Y-67830932D02*
X140330591Y-69669409D01*
X138739601Y-67583444D02*
X138492113Y-67830932D01*
X140380088Y-65942957D02*
X140620505Y-65702540D01*
X140620505Y-65702540D02*
X144219678Y-69301714D01*
X143945074Y-69024655D02*
G75*
G03*
X140974058Y-66056094I-1556804J1412925D01*
G01*
X98490000Y-111140580D02*
X98490000Y-110859420D01*
X99510000Y-111140580D02*
X99510000Y-110859420D01*
X94579514Y-153935414D02*
X92068107Y-153262484D01*
X94488927Y-154273488D02*
X94579514Y-153935414D01*
X93888467Y-156514435D02*
X93800469Y-156842850D01*
X93800469Y-156842850D02*
X88883906Y-155525461D01*
X89260248Y-155628099D02*
G75*
G03*
X93317506Y-156713441I2054696J-445227D01*
G01*
X145030000Y-92409436D02*
X149170000Y-92409436D01*
X145030000Y-92709436D02*
X145030000Y-92409436D01*
X145030000Y-95549436D02*
X145030000Y-95249436D01*
X149170000Y-92409436D02*
X149170000Y-92709436D01*
X149170000Y-95249436D02*
X149170000Y-95549436D01*
X149170000Y-95549436D02*
X145030000Y-95549436D01*
D10*
X49150000Y-65950000D02*
X36450000Y-65950000D01*
X36450000Y-65950000D02*
X36450000Y-59250000D01*
X36450000Y-59250000D02*
X49150000Y-59250000D01*
X49150000Y-59250000D02*
X49150000Y-65950000D01*
D13*
X100800000Y-101950000D02*
X97200000Y-101950000D01*
X97200000Y-101950000D02*
X97200000Y-107700000D01*
X100800000Y-107700000D02*
X100800000Y-101950000D01*
X122653000Y-122586000D02*
X140493000Y-122586000D01*
X122653000Y-122586000D02*
X122653000Y-119926000D01*
X140493000Y-122586000D02*
X140493000Y-119926000D01*
X120053000Y-121256000D02*
X120053000Y-119926000D01*
X120053000Y-119926000D02*
X121383000Y-119926000D01*
X122653000Y-119926000D02*
X140493000Y-119926000D01*
X122653000Y-89820000D02*
X140493000Y-89820000D01*
X122653000Y-89820000D02*
X122653000Y-87160000D01*
X140493000Y-89820000D02*
X140493000Y-87160000D01*
X120053000Y-88490000D02*
X120053000Y-87160000D01*
X120053000Y-87160000D02*
X121383000Y-87160000D01*
X122653000Y-87160000D02*
X140493000Y-87160000D01*
D15*
X141449000Y-123796000D02*
X95221000Y-123796000D01*
X95221000Y-123796000D02*
X95221000Y-86204000D01*
X95221000Y-86204000D02*
X141449000Y-86204000D01*
X141449000Y-86204000D02*
X141449000Y-123796000D01*
D13*
X77765834Y-63029040D02*
X80017500Y-61729040D01*
X77590834Y-62725931D02*
X77765834Y-63029040D01*
X76430834Y-60716753D02*
X76260834Y-60422304D01*
X76260834Y-60422304D02*
X80668903Y-57877304D01*
X80330213Y-58070842D02*
G75*
G03*
X76693847Y-60172304I-1767712J-1138066D01*
G01*
X145522500Y-88762742D02*
X145522500Y-89237258D01*
X144477500Y-88762742D02*
X144477500Y-89237258D01*
X134785000Y-74390000D02*
X134785000Y-75440000D01*
X132285000Y-74390000D02*
X134785000Y-74390000D01*
X134785000Y-75440000D02*
X135775000Y-75440000D01*
X130315000Y-75560000D02*
X130315000Y-80440000D01*
X134785000Y-81610000D02*
X134785000Y-80560000D01*
X132285000Y-81610000D02*
X134785000Y-81610000D01*
X104634420Y-108000000D02*
X104915580Y-108000000D01*
X104634420Y-109020000D02*
X104915580Y-109020000D01*
X56064586Y-94579514D02*
X56737516Y-92068107D01*
X55726512Y-94488927D02*
X56064586Y-94579514D01*
X53485565Y-93888467D02*
X53157150Y-93800469D01*
X53157150Y-93800469D02*
X54474539Y-88883906D01*
X54371901Y-89260248D02*
G75*
G03*
X53286559Y-93317506I-445227J-2054696D01*
G01*
X112522500Y-104587742D02*
X112522500Y-105062258D01*
X111477500Y-104587742D02*
X111477500Y-105062258D01*
X107600000Y-154965000D02*
X105000000Y-154965000D01*
X107600000Y-155315000D02*
X107600000Y-154965000D01*
X107600000Y-157635000D02*
X107600000Y-157975000D01*
X107600000Y-157975000D02*
X102510000Y-157975000D01*
X102900084Y-157976736D02*
G75*
G03*
X107099999Y-157975000I2099916J101738D01*
G01*
X71507887Y-142169068D02*
X69669409Y-140330591D01*
X71260399Y-142416556D02*
X71507887Y-142169068D01*
X69619912Y-144057043D02*
X69379495Y-144297460D01*
X69379495Y-144297460D02*
X65780322Y-140698286D01*
X66054926Y-140975345D02*
G75*
G03*
X69025942Y-143943906I1556804J-1412925D01*
G01*
X75215000Y-81610000D02*
X75215000Y-80560000D01*
X77715000Y-81610000D02*
X75215000Y-81610000D01*
X75215000Y-80560000D02*
X74225000Y-80560000D01*
X79685000Y-80440000D02*
X79685000Y-75560000D01*
X75215000Y-74390000D02*
X75215000Y-75440000D01*
X77715000Y-74390000D02*
X75215000Y-74390000D01*
X111937742Y-100477500D02*
X112412258Y-100477500D01*
X111937742Y-101522500D02*
X112412258Y-101522500D01*
X152589554Y-89556700D02*
X153262484Y-92068107D01*
X152927629Y-89466113D02*
X152589554Y-89556700D01*
X155168576Y-88865653D02*
X155496991Y-88777654D01*
X155496991Y-88777654D02*
X156814380Y-93694217D01*
X156715096Y-93316975D02*
G75*
G03*
X155626401Y-89260618I-641770J2002031D01*
G01*
X134785000Y-128390000D02*
X134785000Y-129440000D01*
X132285000Y-128390000D02*
X134785000Y-128390000D01*
X134785000Y-129440000D02*
X135775000Y-129440000D01*
X130315000Y-129560000D02*
X130315000Y-134440000D01*
X134785000Y-135610000D02*
X134785000Y-134560000D01*
X132285000Y-135610000D02*
X134785000Y-135610000D01*
X147040000Y-109645719D02*
X145890000Y-109645719D01*
X145890000Y-109645719D02*
X145890000Y-110695719D01*
X145890000Y-110695719D02*
X144900000Y-110695719D01*
X149010000Y-110815719D02*
X149010000Y-116695719D01*
X147040000Y-117865719D02*
X145890000Y-117865719D01*
X145890000Y-117865719D02*
X145890000Y-116815719D01*
%LPC*%
D16*
X132937205Y-61691342D03*
D17*
X130737500Y-60421342D03*
X128537795Y-59151342D03*
D18*
X156475000Y-107540000D03*
D17*
X156475000Y-105000000D03*
X156475000Y-102460000D03*
D19*
X72000000Y-88475000D03*
D20*
X72000000Y-91015000D03*
X72000000Y-93555000D03*
D21*
X116575000Y-101000000D03*
X115000000Y-101000000D03*
D22*
X194350700Y-62573168D03*
D23*
X54621568Y-115869258D03*
D17*
X55278968Y-118322710D03*
X55936368Y-120776162D03*
D22*
X15649300Y-147426832D03*
D24*
X150848658Y-81462205D03*
D17*
X149578658Y-79262500D03*
X148308658Y-77062795D03*
D25*
X112620000Y-143240000D03*
X112620000Y-140700000D03*
X112620000Y-138160000D03*
X112620000Y-135620000D03*
X112620000Y-133080000D03*
X112620000Y-130540000D03*
X112620000Y-128000000D03*
D26*
X97380000Y-128000000D03*
X97380000Y-130540000D03*
X97380000Y-133080000D03*
X97380000Y-135620000D03*
X97380000Y-138160000D03*
X97380000Y-140700000D03*
X97380000Y-143240000D03*
D27*
X147000000Y-100037919D03*
X147000000Y-102755719D03*
X147000000Y-105473519D03*
D28*
X104000000Y-100980000D03*
X105550000Y-100980000D03*
D29*
X154063632Y-120776162D03*
D17*
X154721032Y-118322710D03*
X155378432Y-115869258D03*
D30*
X61691342Y-77062795D03*
D17*
X60421342Y-79262500D03*
X59151342Y-81462205D03*
D31*
X99000000Y-98225000D03*
X99000000Y-99775000D03*
D32*
X120776162Y-55936368D03*
D17*
X118322710Y-55278968D03*
X115869258Y-54621568D03*
D33*
X76760000Y-91030000D03*
X76760000Y-93570000D03*
X76760000Y-96110000D03*
X76760000Y-98650000D03*
X92000000Y-93570000D03*
X76760000Y-101190000D03*
X76760000Y-103730000D03*
X76760000Y-106270000D03*
X76760000Y-108810000D03*
X76760000Y-111350000D03*
X76760000Y-113890000D03*
X76760000Y-116430000D03*
X76760000Y-118970000D03*
X76760000Y-121510000D03*
X92000000Y-121510000D03*
X92000000Y-118970000D03*
X92000000Y-116430000D03*
X92000000Y-113890000D03*
X92000000Y-111350000D03*
X92000000Y-108810000D03*
X92000000Y-106270000D03*
X92000000Y-103730000D03*
X92000000Y-101190000D03*
X92000000Y-98650000D03*
X92000000Y-96110000D03*
X76760000Y-88490000D03*
X92000000Y-91030000D03*
X92000000Y-88490000D03*
D22*
X194350700Y-147426832D03*
D28*
X104000000Y-103490000D03*
X105550000Y-103490000D03*
D34*
X53525000Y-102460000D03*
D17*
X53525000Y-105000000D03*
X53525000Y-107540000D03*
D35*
X104050000Y-76137500D03*
X105000000Y-76137500D03*
X105950000Y-76137500D03*
X105950000Y-73862500D03*
X105000000Y-73862500D03*
X104050000Y-73862500D03*
D36*
X103175000Y-112000000D03*
X104825000Y-112000000D03*
D37*
X139602271Y-143194373D03*
D17*
X141398322Y-141398322D03*
X143194373Y-139602271D03*
D28*
X104000000Y-106000000D03*
X105550000Y-106000000D03*
D22*
X15649300Y-62573168D03*
D38*
X107540000Y-53525000D03*
D17*
X105000000Y-53525000D03*
X102460000Y-53525000D03*
D39*
X98650000Y-82890000D03*
X101190000Y-82890000D03*
X103730000Y-82890000D03*
X106270000Y-82890000D03*
X108810000Y-82890000D03*
X111350000Y-82890000D03*
X98650000Y-65110000D03*
X101190000Y-65110000D03*
X103730000Y-65110000D03*
X106270000Y-65110000D03*
X108810000Y-65110000D03*
X111350000Y-65110000D03*
D40*
X128537795Y-150848658D03*
D17*
X130737500Y-149578658D03*
X132937205Y-148308658D03*
D41*
X77062795Y-148308658D03*
D17*
X79262500Y-149578658D03*
X81462205Y-150848658D03*
D42*
X148308658Y-132937205D03*
D17*
X149578658Y-130737500D03*
X150848658Y-128537795D03*
D43*
X94130742Y-54621568D03*
D17*
X91677290Y-55278968D03*
X89223838Y-55936368D03*
D44*
X115869258Y-155378432D03*
D17*
X118322710Y-154721032D03*
X120776162Y-154063632D03*
D35*
X104050000Y-136137500D03*
X105000000Y-136137500D03*
X105950000Y-136137500D03*
X105950000Y-133862500D03*
X105000000Y-133862500D03*
X104050000Y-133862500D03*
D45*
X75000000Y-134000000D03*
X75000000Y-133000000D03*
X75000000Y-132000000D03*
X75000000Y-131000000D03*
X75000000Y-130000000D03*
D46*
X78875000Y-135300000D03*
X78875000Y-128700000D03*
D47*
X59151342Y-128537795D03*
D17*
X60421342Y-130737500D03*
X61691342Y-132937205D03*
D48*
X70397729Y-66805627D03*
D17*
X68601678Y-68601678D03*
X66805627Y-70397729D03*
D49*
X143194373Y-70397729D03*
D17*
X141398322Y-68601678D03*
X139602271Y-66805627D03*
D50*
X99000000Y-111775000D03*
X99000000Y-110225000D03*
D51*
X89223838Y-154063632D03*
D17*
X91677290Y-154721032D03*
X94130742Y-155378432D03*
D52*
X145000000Y-93979436D03*
X149200000Y-93979436D03*
D53*
X47600000Y-62600000D03*
X42800000Y-62600000D03*
X38000000Y-62600000D03*
D54*
X99000000Y-103150000D03*
X99000000Y-106850000D03*
D55*
X99285000Y-122132000D03*
X97587944Y-121429056D03*
X100982056Y-121429056D03*
X96885000Y-119732000D03*
D22*
X99285000Y-119732000D03*
D55*
X101685000Y-119732000D03*
X97587944Y-118034944D03*
X100982056Y-118034944D03*
X99285000Y-117332000D03*
X99285000Y-92668000D03*
X97587944Y-91965056D03*
X100982056Y-91965056D03*
X96885000Y-90268000D03*
D22*
X99285000Y-90268000D03*
D55*
X101685000Y-90268000D03*
X97587944Y-88570944D03*
X100982056Y-88570944D03*
X99285000Y-87868000D03*
D19*
X121383000Y-121256000D03*
D20*
X123923000Y-121256000D03*
X126463000Y-121256000D03*
X129003000Y-121256000D03*
X131543000Y-121256000D03*
X134083000Y-121256000D03*
X136623000Y-121256000D03*
X139163000Y-121256000D03*
X139163000Y-88490000D03*
X136623000Y-88490000D03*
X134083000Y-88490000D03*
X131543000Y-88490000D03*
X129003000Y-88490000D03*
X126463000Y-88490000D03*
X123923000Y-88490000D03*
D19*
X121383000Y-88490000D03*
D56*
X81462205Y-59151342D03*
D17*
X79262500Y-60421342D03*
X77062795Y-61691342D03*
D57*
X145000000Y-88175000D03*
X145000000Y-89825000D03*
D58*
X135000000Y-76000000D03*
X135000000Y-77000000D03*
X135000000Y-78000000D03*
X135000000Y-79000000D03*
X135000000Y-80000000D03*
D59*
X131125000Y-74700000D03*
X131125000Y-81300000D03*
D28*
X104000000Y-108510000D03*
X105550000Y-108510000D03*
D60*
X55936368Y-89223838D03*
D17*
X55278968Y-91677290D03*
X54621568Y-94130742D03*
D57*
X112000000Y-104000000D03*
X112000000Y-105650000D03*
D61*
X102460000Y-156475000D03*
D17*
X105000000Y-156475000D03*
X107540000Y-156475000D03*
D62*
X66805627Y-139602271D03*
D17*
X68601678Y-141398322D03*
X70397729Y-143194373D03*
D45*
X75000000Y-80000000D03*
X75000000Y-79000000D03*
X75000000Y-78000000D03*
X75000000Y-77000000D03*
X75000000Y-76000000D03*
D46*
X78875000Y-81300000D03*
X78875000Y-74700000D03*
D36*
X111350000Y-101000000D03*
X113000000Y-101000000D03*
D63*
X155378432Y-94130742D03*
D17*
X154721032Y-91677290D03*
X154063632Y-89223838D03*
D58*
X135000000Y-130000000D03*
X135000000Y-131000000D03*
X135000000Y-132000000D03*
X135000000Y-133000000D03*
X135000000Y-134000000D03*
D59*
X131125000Y-128700000D03*
X131125000Y-135300000D03*
D58*
X145675000Y-111255719D03*
X145675000Y-112255719D03*
X145675000Y-113255719D03*
X145675000Y-114255719D03*
X145675000Y-115255719D03*
X145675000Y-116255719D03*
D59*
X148200000Y-109955719D03*
X148200000Y-117555719D03*
D64*
X107500000Y-139200000D03*
D65*
X105000000Y-139200000D03*
X102500000Y-139200000D03*
%LPD*%
M02*
