%TF.GenerationSoftware,KiCad,Pcbnew,7.0.9*%
%TF.CreationDate,2024-02-22T22:01:01+08:00*%
%TF.ProjectId,layer3,6c617965-7233-42e6-9b69-6361645f7063,0.1*%
%TF.SameCoordinates,Original*%
%TF.FileFunction,Drillmap*%
%TF.FilePolarity,Positive*%
%FSLAX45Y45*%
G04 Gerber Fmt 4.5, Leading zero omitted, Abs format (unit mm)*
G04 Created by KiCad (PCBNEW 7.0.9) date 2024-02-22 22:01:01*
%MOMM*%
%LPD*%
G01*
G04 APERTURE LIST*
%ADD10C,0.200000*%
%ADD11C,0.100000*%
%ADD12C,0.101600*%
%ADD13C,0.102000*%
%ADD14C,0.230000*%
%ADD15C,0.320000*%
G04 APERTURE END LIST*
D10*
X19595070Y-14742683D02*
G75*
G03*
X19595070Y-14742683I-160000J0D01*
G01*
X14116912Y-15251483D02*
X19435070Y-15251483D01*
X1564930Y-15251483D02*
X6883088Y-15251483D01*
X19435070Y-14233883D02*
X15481059Y-14233883D01*
X15481059Y-6766117D02*
X19435070Y-6766117D01*
X19435070Y-5748517D02*
X14116912Y-5748517D01*
X13449963Y-5564393D02*
G75*
G03*
X7550036Y-5564393I-2949963J-4935607D01*
G01*
X15481059Y-6766120D02*
G75*
G03*
X15192139Y-7146897I1J-300000D01*
G01*
X5518941Y-14233880D02*
G75*
G03*
X5807861Y-13853103I-1J300000D01*
G01*
X1724930Y-6257317D02*
G75*
G03*
X1724930Y-6257317I-160000J0D01*
G01*
X1724930Y-14742683D02*
G75*
G03*
X1724930Y-14742683I-160000J0D01*
G01*
X5807861Y-7146897D02*
G75*
G03*
X5807861Y-13853103I4692139J-3353103D01*
G01*
X15192139Y-13853103D02*
G75*
G03*
X15192139Y-7146897I-4692139J3353103D01*
G01*
X1564930Y-5748517D02*
G75*
G03*
X1564930Y-6766117I0J-508800D01*
G01*
X1564930Y-6766117D02*
X5518941Y-6766117D01*
X8200000Y-7200000D02*
X8900000Y-7200000D01*
X8900000Y-8400000D01*
X8200000Y-8400000D01*
X8200000Y-7200000D01*
X5518941Y-14233883D02*
X1564930Y-14233883D01*
X6883088Y-5748517D02*
X1564930Y-5748517D01*
X14116912Y-15251485D02*
G75*
G03*
X13449963Y-15435607I-2J-1300005D01*
G01*
X5807864Y-7146898D02*
G75*
G03*
X5518941Y-6766117I-288924J80778D01*
G01*
X11969000Y-12573000D02*
X12669000Y-12573000D01*
X12669000Y-13773000D01*
X11969000Y-13773000D01*
X11969000Y-12573000D01*
X7550036Y-15435607D02*
G75*
G03*
X13449963Y-15435607I2949964J4935607D01*
G01*
X11969000Y-7200000D02*
X12669000Y-7200000D01*
X12669000Y-8400000D01*
X11969000Y-8400000D01*
X11969000Y-7200000D01*
X8200000Y-12573000D02*
X8900000Y-12573000D01*
X8900000Y-13773000D01*
X8200000Y-13773000D01*
X8200000Y-12573000D01*
X19435070Y-6766117D02*
G75*
G03*
X19435070Y-5748517I0J508800D01*
G01*
X7550036Y-15435608D02*
G75*
G03*
X6883088Y-15251483I-666946J-1115862D01*
G01*
X19595070Y-6257317D02*
G75*
G03*
X19595070Y-6257317I-160000J0D01*
G01*
X15192136Y-13853102D02*
G75*
G03*
X15481059Y-14233883I288924J-80778D01*
G01*
X1564930Y-14233883D02*
G75*
G03*
X1564930Y-15251483I0J-508800D01*
G01*
X19435070Y-15251483D02*
G75*
G03*
X19435070Y-14233883I0J508800D01*
G01*
X13449964Y-5564392D02*
G75*
G03*
X14116912Y-5748517I666946J1115862D01*
G01*
X6883088Y-5748515D02*
G75*
G03*
X7550036Y-5564393I2J1300005D01*
G01*
D11*
X6900000Y-10040000D02*
X6940000Y-10080000D01*
X6940000Y-10040000D02*
X6900000Y-10080000D01*
X7100000Y-11260000D02*
X7140000Y-11300000D01*
X7140000Y-11260000D02*
X7100000Y-11300000D01*
X7140000Y-12180000D02*
X7180000Y-12220000D01*
X7180000Y-12180000D02*
X7140000Y-12220000D01*
X7200000Y-11200000D02*
X7240000Y-11240000D01*
X7240000Y-11200000D02*
X7200000Y-11240000D01*
X7219000Y-12061000D02*
X7259000Y-12101000D01*
X7259000Y-12061000D02*
X7219000Y-12101000D01*
X7219000Y-13061000D02*
X7259000Y-13101000D01*
X7259000Y-13061000D02*
X7219000Y-13101000D01*
X7280000Y-7880000D02*
X7320000Y-7920000D01*
X7320000Y-7880000D02*
X7280000Y-7920000D01*
X7380000Y-10040000D02*
X7420000Y-10080000D01*
X7420000Y-10040000D02*
X7380000Y-10080000D01*
X7436225Y-8183775D02*
X7476225Y-8223775D01*
X7476225Y-8183775D02*
X7436225Y-8223775D01*
X7540000Y-8300000D02*
X7580000Y-8340000D01*
X7580000Y-8300000D02*
X7540000Y-8340000D01*
X7600000Y-12934000D02*
X7640000Y-12974000D01*
X7640000Y-12934000D02*
X7600000Y-12974000D01*
X7640000Y-7900000D02*
X7680000Y-7940000D01*
X7680000Y-7900000D02*
X7640000Y-7940000D01*
X7717550Y-7471275D02*
X7757550Y-7511275D01*
X7757550Y-7471275D02*
X7717550Y-7511275D01*
X8001230Y-13798770D02*
X8041230Y-13838770D01*
X8041230Y-13798770D02*
X8001230Y-13838770D01*
X8020000Y-7520000D02*
X8060000Y-7560000D01*
X8060000Y-7520000D02*
X8020000Y-7560000D01*
X8020000Y-7880000D02*
X8060000Y-7920000D01*
X8060000Y-7880000D02*
X8020000Y-7920000D01*
X8200000Y-6880000D02*
X8240000Y-6920000D01*
X8240000Y-6880000D02*
X8200000Y-6920000D01*
X8200000Y-12060000D02*
X8240000Y-12100000D01*
X8240000Y-12060000D02*
X8200000Y-12100000D01*
X8200000Y-14000000D02*
X8240000Y-14040000D01*
X8240000Y-14000000D02*
X8200000Y-14040000D01*
X8260000Y-11160000D02*
X8300000Y-11200000D01*
X8300000Y-11160000D02*
X8260000Y-11200000D01*
X8380000Y-14180000D02*
X8420000Y-14220000D01*
X8420000Y-14180000D02*
X8380000Y-14220000D01*
X8620000Y-11100000D02*
X8660000Y-11140000D01*
X8660000Y-11100000D02*
X8620000Y-11140000D01*
X8620000Y-12180000D02*
X8660000Y-12220000D01*
X8660000Y-12180000D02*
X8620000Y-12220000D01*
X8620000Y-14411500D02*
X8660000Y-14451500D01*
X8660000Y-14411500D02*
X8620000Y-14451500D01*
X8620000Y-14620000D02*
X8660000Y-14660000D01*
X8660000Y-14620000D02*
X8620000Y-14660000D01*
X8758795Y-11101205D02*
X8798795Y-11141205D01*
X8798795Y-11101205D02*
X8758795Y-11141205D01*
X8758795Y-12181255D02*
X8798795Y-12221255D01*
X8798795Y-12181255D02*
X8758795Y-12221255D01*
X8760000Y-8980000D02*
X8800000Y-9020000D01*
X8800000Y-8980000D02*
X8760000Y-9020000D01*
X8820000Y-8700000D02*
X8860000Y-8740000D01*
X8860000Y-8700000D02*
X8820000Y-8740000D01*
X8860000Y-11100000D02*
X8900000Y-11140000D01*
X8900000Y-11100000D02*
X8860000Y-11140000D01*
X8860000Y-12180000D02*
X8900000Y-12220000D01*
X8900000Y-12180000D02*
X8860000Y-12220000D01*
X8960000Y-14620000D02*
X9000000Y-14660000D01*
X9000000Y-14620000D02*
X8960000Y-14660000D01*
X9080000Y-7480000D02*
X9120000Y-7520000D01*
X9120000Y-7480000D02*
X9080000Y-7520000D01*
X9120000Y-8400000D02*
X9160000Y-8440000D01*
X9160000Y-8400000D02*
X9120000Y-8440000D01*
X9280000Y-13380000D02*
X9320000Y-13420000D01*
X9320000Y-13380000D02*
X9280000Y-13420000D01*
X9290000Y-13650000D02*
X9330000Y-13690000D01*
X9330000Y-13650000D02*
X9290000Y-13690000D01*
X9360000Y-13820000D02*
X9400000Y-13860000D01*
X9400000Y-13820000D02*
X9360000Y-13860000D01*
X9360000Y-13920000D02*
X9400000Y-13960000D01*
X9400000Y-13920000D02*
X9360000Y-13960000D01*
X9377342Y-14180050D02*
X9417342Y-14220050D01*
X9417342Y-14180050D02*
X9377342Y-14220050D01*
X9400000Y-14332450D02*
X9440000Y-14372450D01*
X9440000Y-14332450D02*
X9400000Y-14372450D01*
X9440000Y-7320000D02*
X9480000Y-7360000D01*
X9480000Y-7320000D02*
X9440000Y-7360000D01*
X9460000Y-10900000D02*
X9500000Y-10940000D01*
X9500000Y-10900000D02*
X9460000Y-10940000D01*
X9540000Y-10580000D02*
X9580000Y-10620000D01*
X9580000Y-10580000D02*
X9540000Y-10620000D01*
X9540000Y-10680000D02*
X9580000Y-10720000D01*
X9580000Y-10680000D02*
X9540000Y-10720000D01*
X9540000Y-10680000D02*
X9580000Y-10720000D01*
X9580000Y-10680000D02*
X9540000Y-10720000D01*
X9640000Y-10580000D02*
X9680000Y-10620000D01*
X9680000Y-10580000D02*
X9640000Y-10620000D01*
X9640000Y-10680000D02*
X9680000Y-10720000D01*
X9680000Y-10680000D02*
X9640000Y-10720000D01*
X9660000Y-7320000D02*
X9700000Y-7360000D01*
X9700000Y-7320000D02*
X9660000Y-7360000D01*
X9660000Y-12540000D02*
X9700000Y-12580000D01*
X9700000Y-12540000D02*
X9660000Y-12580000D01*
X9840000Y-12612450D02*
X9880000Y-12652450D01*
X9880000Y-12612450D02*
X9840000Y-12652450D01*
X9970000Y-13820000D02*
X10010000Y-13860000D01*
X10010000Y-13820000D02*
X9970000Y-13860000D01*
X9970000Y-14150000D02*
X10010000Y-14190000D01*
X10010000Y-14150000D02*
X9970000Y-14190000D01*
X9980000Y-10880000D02*
X10020000Y-10920000D01*
X10020000Y-10880000D02*
X9980000Y-10920000D01*
X10020000Y-10060000D02*
X10060000Y-10100000D01*
X10060000Y-10060000D02*
X10020000Y-10100000D01*
X10100000Y-11340000D02*
X10140000Y-11380000D01*
X10140000Y-11340000D02*
X10100000Y-11380000D01*
X10100000Y-11440000D02*
X10140000Y-11480000D01*
X10140000Y-11440000D02*
X10100000Y-11480000D01*
X10146404Y-10020000D02*
X10186404Y-10060000D01*
X10186404Y-10020000D02*
X10146404Y-10060000D01*
X10180000Y-10380000D02*
X10220000Y-10420000D01*
X10220000Y-10380000D02*
X10180000Y-10420000D01*
X10280000Y-10280000D02*
X10320000Y-10320000D01*
X10320000Y-10280000D02*
X10280000Y-10320000D01*
X10300000Y-7480000D02*
X10340000Y-7520000D01*
X10340000Y-7480000D02*
X10300000Y-7520000D01*
X10360000Y-11300000D02*
X10400000Y-11340000D01*
X10400000Y-11300000D02*
X10360000Y-11340000D01*
X10380000Y-7220000D02*
X10420000Y-7260000D01*
X10420000Y-7220000D02*
X10380000Y-7260000D01*
X10380000Y-11720000D02*
X10420000Y-11760000D01*
X10420000Y-11720000D02*
X10380000Y-11760000D01*
X10432406Y-14607550D02*
X10472406Y-14647550D01*
X10472406Y-14607550D02*
X10432406Y-14647550D01*
X10440000Y-8520000D02*
X10480000Y-8560000D01*
X10480000Y-8520000D02*
X10440000Y-8560000D01*
X10440000Y-8720000D02*
X10480000Y-8760000D01*
X10480000Y-8720000D02*
X10440000Y-8760000D01*
X10500000Y-11660000D02*
X10540000Y-11700000D01*
X10540000Y-11660000D02*
X10500000Y-11700000D01*
X10520000Y-7780000D02*
X10560000Y-7820000D01*
X10560000Y-7780000D02*
X10520000Y-7820000D01*
X10580000Y-8520000D02*
X10620000Y-8560000D01*
X10620000Y-8520000D02*
X10580000Y-8560000D01*
X10580000Y-8720000D02*
X10620000Y-8760000D01*
X10620000Y-8720000D02*
X10580000Y-8760000D01*
X10580000Y-14180000D02*
X10620000Y-14220000D01*
X10620000Y-14180000D02*
X10580000Y-14220000D01*
X10600000Y-15180000D02*
X10640000Y-15220000D01*
X10640000Y-15180000D02*
X10600000Y-15220000D01*
X10640000Y-11480000D02*
X10680000Y-11520000D01*
X10680000Y-11480000D02*
X10640000Y-11520000D01*
X10674836Y-9864507D02*
X10714836Y-9904507D01*
X10714836Y-9864507D02*
X10674836Y-9904507D01*
X10680000Y-10380000D02*
X10720000Y-10420000D01*
X10720000Y-10380000D02*
X10680000Y-10420000D01*
X10709965Y-11230035D02*
X10749965Y-11270035D01*
X10749965Y-11230035D02*
X10709965Y-11270035D01*
X10721230Y-11101230D02*
X10761230Y-11141230D01*
X10761230Y-11101230D02*
X10721230Y-11141230D01*
X10760000Y-11360000D02*
X10800000Y-11400000D01*
X10800000Y-11360000D02*
X10760000Y-11400000D01*
X10781146Y-10378687D02*
X10821146Y-10418687D01*
X10821146Y-10378687D02*
X10781146Y-10418687D01*
X10790000Y-14180000D02*
X10830000Y-14220000D01*
X10830000Y-14180000D02*
X10790000Y-14220000D01*
X10860000Y-15180000D02*
X10900000Y-15220000D01*
X10900000Y-15180000D02*
X10860000Y-15220000D01*
X10952450Y-11040000D02*
X10992450Y-11080000D01*
X10992450Y-11040000D02*
X10952450Y-11080000D01*
X10997158Y-10922842D02*
X11037158Y-10962842D01*
X11037158Y-10922842D02*
X10997158Y-10962842D01*
X11030000Y-14180000D02*
X11070000Y-14220000D01*
X11070000Y-14180000D02*
X11030000Y-14220000D01*
X11051625Y-11308375D02*
X11091625Y-11348375D01*
X11091625Y-11308375D02*
X11051625Y-11348375D01*
X11100000Y-10220000D02*
X11140000Y-10260000D01*
X11140000Y-10220000D02*
X11100000Y-10260000D01*
X11120000Y-11140000D02*
X11160000Y-11180000D01*
X11160000Y-11140000D02*
X11120000Y-11180000D01*
X11240000Y-6980000D02*
X11280000Y-7020000D01*
X11280000Y-6980000D02*
X11240000Y-7020000D01*
X11240000Y-7140000D02*
X11280000Y-7180000D01*
X11280000Y-7140000D02*
X11240000Y-7180000D01*
X11316447Y-10661550D02*
X11356447Y-10701550D01*
X11356447Y-10661550D02*
X11316447Y-10701550D01*
X11420000Y-14180000D02*
X11460000Y-14220000D01*
X11460000Y-14180000D02*
X11420000Y-14220000D01*
X11460000Y-11080000D02*
X11500000Y-11120000D01*
X11500000Y-11080000D02*
X11460000Y-11120000D01*
X11530000Y-10530000D02*
X11570000Y-10570000D01*
X11570000Y-10530000D02*
X11530000Y-10570000D01*
X11620000Y-11220000D02*
X11660000Y-11260000D01*
X11660000Y-11220000D02*
X11620000Y-11260000D01*
X11880000Y-10180000D02*
X11920000Y-10220000D01*
X11920000Y-10180000D02*
X11880000Y-10220000D01*
X12190000Y-10200000D02*
X12230000Y-10240000D01*
X12230000Y-10200000D02*
X12190000Y-10240000D01*
X12190000Y-10290000D02*
X12230000Y-10330000D01*
X12230000Y-10290000D02*
X12190000Y-10330000D01*
X12190000Y-10530000D02*
X12230000Y-10570000D01*
X12230000Y-10530000D02*
X12190000Y-10570000D01*
X12190000Y-10620000D02*
X12230000Y-10660000D01*
X12230000Y-10620000D02*
X12190000Y-10660000D01*
X12190000Y-10880000D02*
X12230000Y-10920000D01*
X12230000Y-10880000D02*
X12190000Y-10920000D01*
X12190000Y-10970000D02*
X12230000Y-11010000D01*
X12230000Y-10970000D02*
X12190000Y-11010000D01*
X12280000Y-10200000D02*
X12320000Y-10240000D01*
X12320000Y-10200000D02*
X12280000Y-10240000D01*
X12280000Y-10290000D02*
X12320000Y-10330000D01*
X12320000Y-10290000D02*
X12280000Y-10330000D01*
X12280000Y-10530000D02*
X12320000Y-10570000D01*
X12320000Y-10530000D02*
X12280000Y-10570000D01*
X12280000Y-10620000D02*
X12320000Y-10660000D01*
X12320000Y-10620000D02*
X12280000Y-10660000D01*
X12280000Y-10880000D02*
X12320000Y-10920000D01*
X12320000Y-10880000D02*
X12280000Y-10920000D01*
X12280000Y-10970000D02*
X12320000Y-11010000D01*
X12320000Y-10970000D02*
X12280000Y-11010000D01*
X12300000Y-11280000D02*
X12340000Y-11320000D01*
X12340000Y-11280000D02*
X12300000Y-11320000D01*
X12301230Y-11178770D02*
X12341230Y-11218770D01*
X12341230Y-11178770D02*
X12301230Y-11218770D01*
X12920000Y-8480000D02*
X12960000Y-8520000D01*
X12960000Y-8480000D02*
X12920000Y-8520000D01*
X13013775Y-14093775D02*
X13053775Y-14133775D01*
X13053775Y-14093775D02*
X13013775Y-14133775D01*
X13020000Y-13820000D02*
X13060000Y-13860000D01*
X13060000Y-13820000D02*
X13020000Y-13860000D01*
X13100000Y-7780000D02*
X13140000Y-7820000D01*
X13140000Y-7780000D02*
X13100000Y-7820000D01*
X13160000Y-8480000D02*
X13200000Y-8520000D01*
X13200000Y-8480000D02*
X13160000Y-8520000D01*
X13320000Y-7280000D02*
X13360000Y-7320000D01*
X13360000Y-7280000D02*
X13320000Y-7320000D01*
X13361230Y-7781230D02*
X13401230Y-7821230D01*
X13401230Y-7781230D02*
X13361230Y-7821230D01*
X9713500Y-9026800D02*
G75*
G03*
X9713500Y-9026800I-25000J0D01*
G01*
X9713500Y-11973200D02*
G75*
G03*
X9713500Y-11973200I-25000J0D01*
G01*
X9783794Y-8857094D02*
G75*
G03*
X9783794Y-8857094I-25000J0D01*
G01*
X9783794Y-9196506D02*
G75*
G03*
X9783794Y-9196506I-25000J0D01*
G01*
X9783794Y-11803494D02*
G75*
G03*
X9783794Y-11803494I-25000J0D01*
G01*
X9783794Y-12142906D02*
G75*
G03*
X9783794Y-12142906I-25000J0D01*
G01*
X9953500Y-8786800D02*
G75*
G03*
X9953500Y-8786800I-25000J0D01*
G01*
X9953500Y-9266800D02*
G75*
G03*
X9953500Y-9266800I-25000J0D01*
G01*
X9953500Y-11733200D02*
G75*
G03*
X9953500Y-11733200I-25000J0D01*
G01*
X9953500Y-12213200D02*
G75*
G03*
X9953500Y-12213200I-25000J0D01*
G01*
X10123206Y-8857094D02*
G75*
G03*
X10123206Y-8857094I-25000J0D01*
G01*
X10123206Y-9196506D02*
G75*
G03*
X10123206Y-9196506I-25000J0D01*
G01*
X10123206Y-11803494D02*
G75*
G03*
X10123206Y-11803494I-25000J0D01*
G01*
X10123206Y-12142906D02*
G75*
G03*
X10123206Y-12142906I-25000J0D01*
G01*
X10193500Y-9026800D02*
G75*
G03*
X10193500Y-9026800I-25000J0D01*
G01*
X10193500Y-11973200D02*
G75*
G03*
X10193500Y-11973200I-25000J0D01*
G01*
X5352500Y-10201000D02*
X5352500Y-10291000D01*
X5307500Y-10246000D02*
X5397500Y-10246000D01*
X5352500Y-10455000D02*
X5352500Y-10545000D01*
X5307500Y-10500000D02*
X5397500Y-10500000D01*
X5352500Y-10709000D02*
X5352500Y-10799000D01*
X5307500Y-10754000D02*
X5397500Y-10754000D01*
X5462157Y-9368074D02*
X5462157Y-9458074D01*
X5417157Y-9413074D02*
X5507157Y-9413074D01*
X5462157Y-11541926D02*
X5462157Y-11631926D01*
X5417157Y-11586926D02*
X5507157Y-11586926D01*
X5527897Y-9122729D02*
X5527897Y-9212729D01*
X5482897Y-9167729D02*
X5572897Y-9167729D01*
X5527897Y-11787271D02*
X5527897Y-11877271D01*
X5482897Y-11832271D02*
X5572897Y-11832271D01*
X5593637Y-8877384D02*
X5593637Y-8967384D01*
X5548637Y-8922384D02*
X5638637Y-8922384D01*
X5593637Y-12032616D02*
X5593637Y-12122616D01*
X5548637Y-12077616D02*
X5638637Y-12077616D01*
X5915134Y-8101220D02*
X5915134Y-8191220D01*
X5870134Y-8146220D02*
X5960134Y-8146220D01*
X5915134Y-12808779D02*
X5915134Y-12898779D01*
X5870134Y-12853779D02*
X5960134Y-12853779D01*
X6042134Y-7881250D02*
X6042134Y-7971250D01*
X5997134Y-7926250D02*
X6087134Y-7926250D01*
X6042134Y-13028750D02*
X6042134Y-13118750D01*
X5997134Y-13073750D02*
X6087134Y-13073750D01*
X6169134Y-7661279D02*
X6169134Y-7751279D01*
X6124134Y-7706279D02*
X6214134Y-7706279D01*
X6169134Y-13248720D02*
X6169134Y-13338720D01*
X6124134Y-13293720D02*
X6214134Y-13293720D01*
X6680563Y-6994773D02*
X6680563Y-7084773D01*
X6635563Y-7039773D02*
X6725563Y-7039773D01*
X6680563Y-13915227D02*
X6680563Y-14005227D01*
X6635563Y-13960227D02*
X6725563Y-13960227D01*
X6860168Y-6815168D02*
X6860168Y-6905168D01*
X6815168Y-6860168D02*
X6905168Y-6860168D01*
X6860168Y-14094832D02*
X6860168Y-14184832D01*
X6815168Y-14139832D02*
X6905168Y-14139832D01*
X7039773Y-6635563D02*
X7039773Y-6725563D01*
X6994773Y-6680563D02*
X7084773Y-6680563D01*
X7039773Y-14274437D02*
X7039773Y-14364437D01*
X6994773Y-14319437D02*
X7084773Y-14319437D01*
X7706279Y-6124134D02*
X7706279Y-6214134D01*
X7661279Y-6169134D02*
X7751279Y-6169134D01*
X7706279Y-14785866D02*
X7706279Y-14875866D01*
X7661279Y-14830866D02*
X7751279Y-14830866D01*
X7926250Y-5997134D02*
X7926250Y-6087134D01*
X7881250Y-6042134D02*
X7971250Y-6042134D01*
X7926250Y-14912866D02*
X7926250Y-15002866D01*
X7881250Y-14957866D02*
X7971250Y-14957866D01*
X8146220Y-5870134D02*
X8146220Y-5960134D01*
X8101220Y-5915134D02*
X8191220Y-5915134D01*
X8146220Y-15039866D02*
X8146220Y-15129866D01*
X8101220Y-15084866D02*
X8191220Y-15084866D01*
X8922384Y-5548637D02*
X8922384Y-5638637D01*
X8877384Y-5593637D02*
X8967384Y-5593637D01*
X8922384Y-15361363D02*
X8922384Y-15451363D01*
X8877384Y-15406363D02*
X8967384Y-15406363D01*
X9167729Y-5482897D02*
X9167729Y-5572897D01*
X9122729Y-5527897D02*
X9212729Y-5527897D01*
X9167729Y-15427103D02*
X9167729Y-15517103D01*
X9122729Y-15472103D02*
X9212729Y-15472103D01*
X9413074Y-5417157D02*
X9413074Y-5507157D01*
X9368074Y-5462157D02*
X9458074Y-5462157D01*
X9413074Y-15492843D02*
X9413074Y-15582843D01*
X9368074Y-15537843D02*
X9458074Y-15537843D01*
X10246000Y-5307500D02*
X10246000Y-5397500D01*
X10201000Y-5352500D02*
X10291000Y-5352500D01*
X10246000Y-15602500D02*
X10246000Y-15692500D01*
X10201000Y-15647500D02*
X10291000Y-15647500D01*
X10500000Y-5307500D02*
X10500000Y-5397500D01*
X10455000Y-5352500D02*
X10545000Y-5352500D01*
X10500000Y-15602500D02*
X10500000Y-15692500D01*
X10455000Y-15647500D02*
X10545000Y-15647500D01*
X10754000Y-5307500D02*
X10754000Y-5397500D01*
X10709000Y-5352500D02*
X10799000Y-5352500D01*
X10754000Y-15602500D02*
X10754000Y-15692500D01*
X10709000Y-15647500D02*
X10799000Y-15647500D01*
X11586926Y-5417157D02*
X11586926Y-5507157D01*
X11541926Y-5462157D02*
X11631926Y-5462157D01*
X11586926Y-15492843D02*
X11586926Y-15582843D01*
X11541926Y-15537843D02*
X11631926Y-15537843D01*
X11832271Y-5482897D02*
X11832271Y-5572897D01*
X11787271Y-5527897D02*
X11877271Y-5527897D01*
X11832271Y-15427103D02*
X11832271Y-15517103D01*
X11787271Y-15472103D02*
X11877271Y-15472103D01*
X12077616Y-5548637D02*
X12077616Y-5638637D01*
X12032616Y-5593637D02*
X12122616Y-5593637D01*
X12077616Y-15361363D02*
X12077616Y-15451363D01*
X12032616Y-15406363D02*
X12122616Y-15406363D01*
X12853779Y-5870134D02*
X12853779Y-5960134D01*
X12808779Y-5915134D02*
X12898779Y-5915134D01*
X12853779Y-15039866D02*
X12853779Y-15129866D01*
X12808779Y-15084866D02*
X12898779Y-15084866D01*
X13073750Y-5997134D02*
X13073750Y-6087134D01*
X13028750Y-6042134D02*
X13118750Y-6042134D01*
X13073750Y-14912866D02*
X13073750Y-15002866D01*
X13028750Y-14957866D02*
X13118750Y-14957866D01*
X13293720Y-6124134D02*
X13293720Y-6214134D01*
X13248720Y-6169134D02*
X13338720Y-6169134D01*
X13293720Y-14785866D02*
X13293720Y-14875866D01*
X13248720Y-14830866D02*
X13338720Y-14830866D01*
X13960227Y-6635563D02*
X13960227Y-6725563D01*
X13915227Y-6680563D02*
X14005227Y-6680563D01*
X13960227Y-14274437D02*
X13960227Y-14364437D01*
X13915227Y-14319437D02*
X14005227Y-14319437D01*
X14139832Y-6815168D02*
X14139832Y-6905168D01*
X14094832Y-6860168D02*
X14184832Y-6860168D01*
X14139832Y-14094832D02*
X14139832Y-14184832D01*
X14094832Y-14139832D02*
X14184832Y-14139832D01*
X14319437Y-6994773D02*
X14319437Y-7084773D01*
X14274437Y-7039773D02*
X14364437Y-7039773D01*
X14319437Y-13915227D02*
X14319437Y-14005227D01*
X14274437Y-13960227D02*
X14364437Y-13960227D01*
X14830866Y-7661279D02*
X14830866Y-7751279D01*
X14785866Y-7706279D02*
X14875866Y-7706279D01*
X14830866Y-13248720D02*
X14830866Y-13338720D01*
X14785866Y-13293720D02*
X14875866Y-13293720D01*
X14957866Y-7881250D02*
X14957866Y-7971250D01*
X14912866Y-7926250D02*
X15002866Y-7926250D01*
X14957866Y-13028750D02*
X14957866Y-13118750D01*
X14912866Y-13073750D02*
X15002866Y-13073750D01*
X15084866Y-8101220D02*
X15084866Y-8191220D01*
X15039866Y-8146220D02*
X15129866Y-8146220D01*
X15084866Y-12808779D02*
X15084866Y-12898779D01*
X15039866Y-12853779D02*
X15129866Y-12853779D01*
X15406363Y-8877384D02*
X15406363Y-8967384D01*
X15361363Y-8922384D02*
X15451363Y-8922384D01*
X15406363Y-12032616D02*
X15406363Y-12122616D01*
X15361363Y-12077616D02*
X15451363Y-12077616D01*
X15472103Y-9122729D02*
X15472103Y-9212729D01*
X15427103Y-9167729D02*
X15517103Y-9167729D01*
X15472103Y-11787271D02*
X15472103Y-11877271D01*
X15427103Y-11832271D02*
X15517103Y-11832271D01*
X15537843Y-9368074D02*
X15537843Y-9458074D01*
X15492843Y-9413074D02*
X15582843Y-9413074D01*
X15537843Y-11541926D02*
X15537843Y-11631926D01*
X15492843Y-11586926D02*
X15582843Y-11586926D01*
X15647500Y-10201000D02*
X15647500Y-10291000D01*
X15602500Y-10246000D02*
X15692500Y-10246000D01*
X15647500Y-10455000D02*
X15647500Y-10545000D01*
X15602500Y-10500000D02*
X15692500Y-10500000D01*
X15647500Y-10709000D02*
X15647500Y-10799000D01*
X15602500Y-10754000D02*
X15692500Y-10754000D01*
X10283588Y-13953588D02*
X10283588Y-13886412D01*
X10216412Y-13886412D01*
X10216412Y-13953588D01*
X10283588Y-13953588D01*
X10533588Y-13953588D02*
X10533588Y-13886412D01*
X10466412Y-13886412D01*
X10466412Y-13953588D01*
X10533588Y-13953588D01*
X10783588Y-13953588D02*
X10783588Y-13886412D01*
X10716412Y-13886412D01*
X10716412Y-13953588D01*
X10783588Y-13953588D01*
X7200000Y-8897500D02*
X7250000Y-8847500D01*
X7200000Y-8797500D01*
X7150000Y-8847500D01*
X7200000Y-8897500D01*
X7200000Y-9151500D02*
X7250000Y-9101500D01*
X7200000Y-9051500D01*
X7150000Y-9101500D01*
X7200000Y-9151500D01*
X7200000Y-9405500D02*
X7250000Y-9355500D01*
X7200000Y-9305500D01*
X7150000Y-9355500D01*
X7200000Y-9405500D01*
X9738000Y-12850000D02*
X9788000Y-12800000D01*
X9738000Y-12750000D01*
X9688000Y-12800000D01*
X9738000Y-12850000D01*
X9738000Y-13104000D02*
X9788000Y-13054000D01*
X9738000Y-13004000D01*
X9688000Y-13054000D01*
X9738000Y-13104000D01*
X9738000Y-13358000D02*
X9788000Y-13308000D01*
X9738000Y-13258000D01*
X9688000Y-13308000D01*
X9738000Y-13358000D01*
X9738000Y-13612000D02*
X9788000Y-13562000D01*
X9738000Y-13512000D01*
X9688000Y-13562000D01*
X9738000Y-13612000D01*
X9738000Y-13866000D02*
X9788000Y-13816000D01*
X9738000Y-13766000D01*
X9688000Y-13816000D01*
X9738000Y-13866000D01*
X9738000Y-14120000D02*
X9788000Y-14070000D01*
X9738000Y-14020000D01*
X9688000Y-14070000D01*
X9738000Y-14120000D01*
X9738000Y-14374000D02*
X9788000Y-14324000D01*
X9738000Y-14274000D01*
X9688000Y-14324000D01*
X9738000Y-14374000D01*
X9865000Y-6561000D02*
X9915000Y-6511000D01*
X9865000Y-6461000D01*
X9815000Y-6511000D01*
X9865000Y-6561000D01*
X9865000Y-8339000D02*
X9915000Y-8289000D01*
X9865000Y-8239000D01*
X9815000Y-8289000D01*
X9865000Y-8339000D01*
X10119000Y-6561000D02*
X10169000Y-6511000D01*
X10119000Y-6461000D01*
X10069000Y-6511000D01*
X10119000Y-6561000D01*
X10119000Y-8339000D02*
X10169000Y-8289000D01*
X10119000Y-8239000D01*
X10069000Y-8289000D01*
X10119000Y-8339000D01*
X10373000Y-6561000D02*
X10423000Y-6511000D01*
X10373000Y-6461000D01*
X10323000Y-6511000D01*
X10373000Y-6561000D01*
X10373000Y-8339000D02*
X10423000Y-8289000D01*
X10373000Y-8239000D01*
X10323000Y-8289000D01*
X10373000Y-8339000D01*
X10627000Y-6561000D02*
X10677000Y-6511000D01*
X10627000Y-6461000D01*
X10577000Y-6511000D01*
X10627000Y-6561000D01*
X10627000Y-8339000D02*
X10677000Y-8289000D01*
X10627000Y-8239000D01*
X10577000Y-8289000D01*
X10627000Y-8339000D01*
X10881000Y-6561000D02*
X10931000Y-6511000D01*
X10881000Y-6461000D01*
X10831000Y-6511000D01*
X10881000Y-6561000D01*
X10881000Y-8339000D02*
X10931000Y-8289000D01*
X10881000Y-8239000D01*
X10831000Y-8289000D01*
X10881000Y-8339000D01*
X11135000Y-6561000D02*
X11185000Y-6511000D01*
X11135000Y-6461000D01*
X11085000Y-6511000D01*
X11135000Y-6561000D01*
X11135000Y-8339000D02*
X11185000Y-8289000D01*
X11135000Y-8239000D01*
X11085000Y-8289000D01*
X11135000Y-8339000D01*
X11262000Y-12850000D02*
X11312000Y-12800000D01*
X11262000Y-12750000D01*
X11212000Y-12800000D01*
X11262000Y-12850000D01*
X11262000Y-13104000D02*
X11312000Y-13054000D01*
X11262000Y-13004000D01*
X11212000Y-13054000D01*
X11262000Y-13104000D01*
X11262000Y-13358000D02*
X11312000Y-13308000D01*
X11262000Y-13258000D01*
X11212000Y-13308000D01*
X11262000Y-13358000D01*
X11262000Y-13612000D02*
X11312000Y-13562000D01*
X11262000Y-13512000D01*
X11212000Y-13562000D01*
X11262000Y-13612000D01*
X11262000Y-13866000D02*
X11312000Y-13816000D01*
X11262000Y-13766000D01*
X11212000Y-13816000D01*
X11262000Y-13866000D01*
X11262000Y-14120000D02*
X11312000Y-14070000D01*
X11262000Y-14020000D01*
X11212000Y-14070000D01*
X11262000Y-14120000D01*
X11262000Y-14374000D02*
X11312000Y-14324000D01*
X11262000Y-14274000D01*
X11212000Y-14324000D01*
X11262000Y-14374000D01*
X12138300Y-8899000D02*
X12188300Y-8849000D01*
X12138300Y-8799000D01*
X12088300Y-8849000D01*
X12138300Y-8899000D01*
X12138300Y-12175600D02*
X12188300Y-12125600D01*
X12138300Y-12075600D01*
X12088300Y-12125600D01*
X12138300Y-12175600D01*
X12392300Y-8899000D02*
X12442300Y-8849000D01*
X12392300Y-8799000D01*
X12342300Y-8849000D01*
X12392300Y-8899000D01*
X12392300Y-12175600D02*
X12442300Y-12125600D01*
X12392300Y-12075600D01*
X12342300Y-12125600D01*
X12392300Y-12175600D01*
X12646300Y-8899000D02*
X12696300Y-8849000D01*
X12646300Y-8799000D01*
X12596300Y-8849000D01*
X12646300Y-8899000D01*
X12646300Y-12175600D02*
X12696300Y-12125600D01*
X12646300Y-12075600D01*
X12596300Y-12125600D01*
X12646300Y-12175600D01*
X12900300Y-8899000D02*
X12950300Y-8849000D01*
X12900300Y-8799000D01*
X12850300Y-8849000D01*
X12900300Y-8899000D01*
X12900300Y-12175600D02*
X12950300Y-12125600D01*
X12900300Y-12075600D01*
X12850300Y-12125600D01*
X12900300Y-12175600D01*
X13154300Y-8899000D02*
X13204300Y-8849000D01*
X13154300Y-8799000D01*
X13104300Y-8849000D01*
X13154300Y-8899000D01*
X13154300Y-12175600D02*
X13204300Y-12125600D01*
X13154300Y-12075600D01*
X13104300Y-12125600D01*
X13154300Y-12175600D01*
X13408300Y-8899000D02*
X13458300Y-8849000D01*
X13408300Y-8799000D01*
X13358300Y-8849000D01*
X13408300Y-8899000D01*
X13408300Y-12175600D02*
X13458300Y-12125600D01*
X13408300Y-12075600D01*
X13358300Y-12125600D01*
X13408300Y-12175600D01*
X13662300Y-8899000D02*
X13712300Y-8849000D01*
X13662300Y-8799000D01*
X13612300Y-8849000D01*
X13662300Y-8899000D01*
X13662300Y-12175600D02*
X13712300Y-12125600D01*
X13662300Y-12075600D01*
X13612300Y-12125600D01*
X13662300Y-12175600D01*
X13916300Y-8899000D02*
X13966300Y-8849000D01*
X13916300Y-8799000D01*
X13866300Y-8849000D01*
X13916300Y-8899000D01*
X13916300Y-12175600D02*
X13966300Y-12125600D01*
X13916300Y-12075600D01*
X13866300Y-12125600D01*
X13916300Y-12175600D01*
D12*
X14649200Y-9952992D02*
X14750800Y-10054592D01*
X14750800Y-9952992D02*
X14649200Y-10054592D01*
X14750800Y-10003792D02*
G75*
G03*
X14750800Y-10003792I-50800J0D01*
G01*
X14649200Y-10224772D02*
X14750800Y-10326372D01*
X14750800Y-10224772D02*
X14649200Y-10326372D01*
X14750800Y-10275572D02*
G75*
G03*
X14750800Y-10275572I-50800J0D01*
G01*
X14649200Y-10496552D02*
X14750800Y-10598152D01*
X14750800Y-10496552D02*
X14649200Y-10598152D01*
X14750800Y-10547352D02*
G75*
G03*
X14750800Y-10547352I-50800J0D01*
G01*
D13*
X7625000Y-8798000D02*
X7727000Y-8900000D01*
X7727000Y-8798000D02*
X7625000Y-8900000D01*
X7676000Y-8798000D02*
X7676000Y-8900000D01*
X7625000Y-8849000D02*
X7727000Y-8849000D01*
X7625000Y-9052000D02*
X7727000Y-9154000D01*
X7727000Y-9052000D02*
X7625000Y-9154000D01*
X7676000Y-9052000D02*
X7676000Y-9154000D01*
X7625000Y-9103000D02*
X7727000Y-9103000D01*
X7625000Y-9306000D02*
X7727000Y-9408000D01*
X7727000Y-9306000D02*
X7625000Y-9408000D01*
X7676000Y-9306000D02*
X7676000Y-9408000D01*
X7625000Y-9357000D02*
X7727000Y-9357000D01*
X7625000Y-9560000D02*
X7727000Y-9662000D01*
X7727000Y-9560000D02*
X7625000Y-9662000D01*
X7676000Y-9560000D02*
X7676000Y-9662000D01*
X7625000Y-9611000D02*
X7727000Y-9611000D01*
X7625000Y-9814000D02*
X7727000Y-9916000D01*
X7727000Y-9814000D02*
X7625000Y-9916000D01*
X7676000Y-9814000D02*
X7676000Y-9916000D01*
X7625000Y-9865000D02*
X7727000Y-9865000D01*
X7625000Y-10068000D02*
X7727000Y-10170000D01*
X7727000Y-10068000D02*
X7625000Y-10170000D01*
X7676000Y-10068000D02*
X7676000Y-10170000D01*
X7625000Y-10119000D02*
X7727000Y-10119000D01*
X7625000Y-10322000D02*
X7727000Y-10424000D01*
X7727000Y-10322000D02*
X7625000Y-10424000D01*
X7676000Y-10322000D02*
X7676000Y-10424000D01*
X7625000Y-10373000D02*
X7727000Y-10373000D01*
X7625000Y-10576000D02*
X7727000Y-10678000D01*
X7727000Y-10576000D02*
X7625000Y-10678000D01*
X7676000Y-10576000D02*
X7676000Y-10678000D01*
X7625000Y-10627000D02*
X7727000Y-10627000D01*
X7625000Y-10830000D02*
X7727000Y-10932000D01*
X7727000Y-10830000D02*
X7625000Y-10932000D01*
X7676000Y-10830000D02*
X7676000Y-10932000D01*
X7625000Y-10881000D02*
X7727000Y-10881000D01*
X7625000Y-11084000D02*
X7727000Y-11186000D01*
X7727000Y-11084000D02*
X7625000Y-11186000D01*
X7676000Y-11084000D02*
X7676000Y-11186000D01*
X7625000Y-11135000D02*
X7727000Y-11135000D01*
X7625000Y-11338000D02*
X7727000Y-11440000D01*
X7727000Y-11338000D02*
X7625000Y-11440000D01*
X7676000Y-11338000D02*
X7676000Y-11440000D01*
X7625000Y-11389000D02*
X7727000Y-11389000D01*
X7625000Y-11592000D02*
X7727000Y-11694000D01*
X7727000Y-11592000D02*
X7625000Y-11694000D01*
X7676000Y-11592000D02*
X7676000Y-11694000D01*
X7625000Y-11643000D02*
X7727000Y-11643000D01*
X7625000Y-11846000D02*
X7727000Y-11948000D01*
X7727000Y-11846000D02*
X7625000Y-11948000D01*
X7676000Y-11846000D02*
X7676000Y-11948000D01*
X7625000Y-11897000D02*
X7727000Y-11897000D01*
X7625000Y-12100000D02*
X7727000Y-12202000D01*
X7727000Y-12100000D02*
X7625000Y-12202000D01*
X7676000Y-12100000D02*
X7676000Y-12202000D01*
X7625000Y-12151000D02*
X7727000Y-12151000D01*
X9149000Y-8798000D02*
X9251000Y-8900000D01*
X9251000Y-8798000D02*
X9149000Y-8900000D01*
X9200000Y-8798000D02*
X9200000Y-8900000D01*
X9149000Y-8849000D02*
X9251000Y-8849000D01*
X9149000Y-9052000D02*
X9251000Y-9154000D01*
X9251000Y-9052000D02*
X9149000Y-9154000D01*
X9200000Y-9052000D02*
X9200000Y-9154000D01*
X9149000Y-9103000D02*
X9251000Y-9103000D01*
X9149000Y-9306000D02*
X9251000Y-9408000D01*
X9251000Y-9306000D02*
X9149000Y-9408000D01*
X9200000Y-9306000D02*
X9200000Y-9408000D01*
X9149000Y-9357000D02*
X9251000Y-9357000D01*
X9149000Y-9560000D02*
X9251000Y-9662000D01*
X9251000Y-9560000D02*
X9149000Y-9662000D01*
X9200000Y-9560000D02*
X9200000Y-9662000D01*
X9149000Y-9611000D02*
X9251000Y-9611000D01*
X9149000Y-9814000D02*
X9251000Y-9916000D01*
X9251000Y-9814000D02*
X9149000Y-9916000D01*
X9200000Y-9814000D02*
X9200000Y-9916000D01*
X9149000Y-9865000D02*
X9251000Y-9865000D01*
X9149000Y-10068000D02*
X9251000Y-10170000D01*
X9251000Y-10068000D02*
X9149000Y-10170000D01*
X9200000Y-10068000D02*
X9200000Y-10170000D01*
X9149000Y-10119000D02*
X9251000Y-10119000D01*
X9149000Y-10322000D02*
X9251000Y-10424000D01*
X9251000Y-10322000D02*
X9149000Y-10424000D01*
X9200000Y-10322000D02*
X9200000Y-10424000D01*
X9149000Y-10373000D02*
X9251000Y-10373000D01*
X9149000Y-10576000D02*
X9251000Y-10678000D01*
X9251000Y-10576000D02*
X9149000Y-10678000D01*
X9200000Y-10576000D02*
X9200000Y-10678000D01*
X9149000Y-10627000D02*
X9251000Y-10627000D01*
X9149000Y-10830000D02*
X9251000Y-10932000D01*
X9251000Y-10830000D02*
X9149000Y-10932000D01*
X9200000Y-10830000D02*
X9200000Y-10932000D01*
X9149000Y-10881000D02*
X9251000Y-10881000D01*
X9149000Y-11084000D02*
X9251000Y-11186000D01*
X9251000Y-11084000D02*
X9149000Y-11186000D01*
X9200000Y-11084000D02*
X9200000Y-11186000D01*
X9149000Y-11135000D02*
X9251000Y-11135000D01*
X9149000Y-11338000D02*
X9251000Y-11440000D01*
X9251000Y-11338000D02*
X9149000Y-11440000D01*
X9200000Y-11338000D02*
X9200000Y-11440000D01*
X9149000Y-11389000D02*
X9251000Y-11389000D01*
X9149000Y-11592000D02*
X9251000Y-11694000D01*
X9251000Y-11592000D02*
X9149000Y-11694000D01*
X9200000Y-11592000D02*
X9200000Y-11694000D01*
X9149000Y-11643000D02*
X9251000Y-11643000D01*
X9149000Y-11846000D02*
X9251000Y-11948000D01*
X9251000Y-11846000D02*
X9149000Y-11948000D01*
X9200000Y-11846000D02*
X9200000Y-11948000D01*
X9149000Y-11897000D02*
X9251000Y-11897000D01*
X9149000Y-12100000D02*
X9251000Y-12202000D01*
X9251000Y-12100000D02*
X9149000Y-12202000D01*
X9200000Y-12100000D02*
X9200000Y-12202000D01*
X9149000Y-12151000D02*
X9251000Y-12151000D01*
D14*
X3685000Y-6145000D02*
X3915000Y-6375000D01*
X3915000Y-6145000D02*
X3685000Y-6375000D01*
X3881318Y-6341318D02*
X3881318Y-6178682D01*
X3718682Y-6178682D01*
X3718682Y-6341318D01*
X3881318Y-6341318D01*
X4165000Y-6145000D02*
X4395000Y-6375000D01*
X4395000Y-6145000D02*
X4165000Y-6375000D01*
X4361318Y-6341318D02*
X4361318Y-6178682D01*
X4198682Y-6178682D01*
X4198682Y-6341318D01*
X4361318Y-6341318D01*
X4645000Y-6145000D02*
X4875000Y-6375000D01*
X4875000Y-6145000D02*
X4645000Y-6375000D01*
X4841318Y-6341318D02*
X4841318Y-6178682D01*
X4678682Y-6178682D01*
X4678682Y-6341318D01*
X4841318Y-6341318D01*
D15*
X1404930Y-6097317D02*
X1724930Y-6417317D01*
X1724930Y-6097317D02*
X1404930Y-6417317D01*
X1564930Y-6417317D02*
X1724930Y-6257317D01*
X1564930Y-6097317D01*
X1404930Y-6257317D01*
X1564930Y-6417317D01*
X1404930Y-14582683D02*
X1724930Y-14902683D01*
X1724930Y-14582683D02*
X1404930Y-14902683D01*
X1564930Y-14902683D02*
X1724930Y-14742683D01*
X1564930Y-14582683D01*
X1404930Y-14742683D01*
X1564930Y-14902683D01*
X9768500Y-8866800D02*
X10088500Y-9186800D01*
X10088500Y-8866800D02*
X9768500Y-9186800D01*
X9928500Y-9186800D02*
X10088500Y-9026800D01*
X9928500Y-8866800D01*
X9768500Y-9026800D01*
X9928500Y-9186800D01*
X9768500Y-11813200D02*
X10088500Y-12133200D01*
X10088500Y-11813200D02*
X9768500Y-12133200D01*
X9928500Y-12133200D02*
X10088500Y-11973200D01*
X9928500Y-11813200D01*
X9768500Y-11973200D01*
X9928500Y-12133200D01*
X19275070Y-6097317D02*
X19595070Y-6417317D01*
X19595070Y-6097317D02*
X19275070Y-6417317D01*
X19435070Y-6417317D02*
X19595070Y-6257317D01*
X19435070Y-6097317D01*
X19275070Y-6257317D01*
X19435070Y-6417317D01*
X19275070Y-14582683D02*
X19595070Y-14902683D01*
X19595070Y-14582683D02*
X19275070Y-14902683D01*
X19435070Y-14902683D02*
X19595070Y-14742683D01*
X19435070Y-14582683D01*
X19275070Y-14742683D01*
X19435070Y-14902683D01*
D10*
X1306907Y-16571484D02*
X1306907Y-16371484D01*
X1306907Y-16371484D02*
X1354526Y-16371484D01*
X1354526Y-16371484D02*
X1383097Y-16381008D01*
X1383097Y-16381008D02*
X1402145Y-16400055D01*
X1402145Y-16400055D02*
X1411668Y-16419103D01*
X1411668Y-16419103D02*
X1421192Y-16457198D01*
X1421192Y-16457198D02*
X1421192Y-16485769D01*
X1421192Y-16485769D02*
X1411668Y-16523865D01*
X1411668Y-16523865D02*
X1402145Y-16542912D01*
X1402145Y-16542912D02*
X1383097Y-16561960D01*
X1383097Y-16561960D02*
X1354526Y-16571484D01*
X1354526Y-16571484D02*
X1306907Y-16571484D01*
X1506907Y-16571484D02*
X1506907Y-16438150D01*
X1506907Y-16476246D02*
X1516430Y-16457198D01*
X1516430Y-16457198D02*
X1525954Y-16447674D01*
X1525954Y-16447674D02*
X1545002Y-16438150D01*
X1545002Y-16438150D02*
X1564049Y-16438150D01*
X1630716Y-16571484D02*
X1630716Y-16438150D01*
X1630716Y-16371484D02*
X1621192Y-16381008D01*
X1621192Y-16381008D02*
X1630716Y-16390531D01*
X1630716Y-16390531D02*
X1640240Y-16381008D01*
X1640240Y-16381008D02*
X1630716Y-16371484D01*
X1630716Y-16371484D02*
X1630716Y-16390531D01*
X1754526Y-16571484D02*
X1735478Y-16561960D01*
X1735478Y-16561960D02*
X1725954Y-16542912D01*
X1725954Y-16542912D02*
X1725954Y-16371484D01*
X1859287Y-16571484D02*
X1840240Y-16561960D01*
X1840240Y-16561960D02*
X1830716Y-16542912D01*
X1830716Y-16542912D02*
X1830716Y-16371484D01*
X2087859Y-16571484D02*
X2087859Y-16371484D01*
X2087859Y-16371484D02*
X2154526Y-16514341D01*
X2154526Y-16514341D02*
X2221192Y-16371484D01*
X2221192Y-16371484D02*
X2221192Y-16571484D01*
X2402145Y-16571484D02*
X2402145Y-16466722D01*
X2402145Y-16466722D02*
X2392621Y-16447674D01*
X2392621Y-16447674D02*
X2373573Y-16438150D01*
X2373573Y-16438150D02*
X2335478Y-16438150D01*
X2335478Y-16438150D02*
X2316430Y-16447674D01*
X2402145Y-16561960D02*
X2383097Y-16571484D01*
X2383097Y-16571484D02*
X2335478Y-16571484D01*
X2335478Y-16571484D02*
X2316430Y-16561960D01*
X2316430Y-16561960D02*
X2306907Y-16542912D01*
X2306907Y-16542912D02*
X2306907Y-16523865D01*
X2306907Y-16523865D02*
X2316430Y-16504817D01*
X2316430Y-16504817D02*
X2335478Y-16495293D01*
X2335478Y-16495293D02*
X2383097Y-16495293D01*
X2383097Y-16495293D02*
X2402145Y-16485769D01*
X2497383Y-16438150D02*
X2497383Y-16638150D01*
X2497383Y-16447674D02*
X2516430Y-16438150D01*
X2516430Y-16438150D02*
X2554526Y-16438150D01*
X2554526Y-16438150D02*
X2573573Y-16447674D01*
X2573573Y-16447674D02*
X2583097Y-16457198D01*
X2583097Y-16457198D02*
X2592621Y-16476246D01*
X2592621Y-16476246D02*
X2592621Y-16533388D01*
X2592621Y-16533388D02*
X2583097Y-16552436D01*
X2583097Y-16552436D02*
X2573573Y-16561960D01*
X2573573Y-16561960D02*
X2554526Y-16571484D01*
X2554526Y-16571484D02*
X2516430Y-16571484D01*
X2516430Y-16571484D02*
X2497383Y-16561960D01*
X2678335Y-16552436D02*
X2687859Y-16561960D01*
X2687859Y-16561960D02*
X2678335Y-16571484D01*
X2678335Y-16571484D02*
X2668811Y-16561960D01*
X2668811Y-16561960D02*
X2678335Y-16552436D01*
X2678335Y-16552436D02*
X2678335Y-16571484D01*
X2678335Y-16447674D02*
X2687859Y-16457198D01*
X2687859Y-16457198D02*
X2678335Y-16466722D01*
X2678335Y-16466722D02*
X2668811Y-16457198D01*
X2668811Y-16457198D02*
X2678335Y-16447674D01*
X2678335Y-16447674D02*
X2678335Y-16466722D01*
D11*
X1006130Y-16880000D02*
X1046130Y-16920000D01*
X1046130Y-16880000D02*
X1006130Y-16920000D01*
D10*
X1345002Y-16791484D02*
X1364050Y-16791484D01*
X1364050Y-16791484D02*
X1383097Y-16801008D01*
X1383097Y-16801008D02*
X1392621Y-16810531D01*
X1392621Y-16810531D02*
X1402145Y-16829579D01*
X1402145Y-16829579D02*
X1411668Y-16867674D01*
X1411668Y-16867674D02*
X1411668Y-16915293D01*
X1411668Y-16915293D02*
X1402145Y-16953389D01*
X1402145Y-16953389D02*
X1392621Y-16972436D01*
X1392621Y-16972436D02*
X1383097Y-16981960D01*
X1383097Y-16981960D02*
X1364050Y-16991484D01*
X1364050Y-16991484D02*
X1345002Y-16991484D01*
X1345002Y-16991484D02*
X1325954Y-16981960D01*
X1325954Y-16981960D02*
X1316430Y-16972436D01*
X1316430Y-16972436D02*
X1306907Y-16953389D01*
X1306907Y-16953389D02*
X1297383Y-16915293D01*
X1297383Y-16915293D02*
X1297383Y-16867674D01*
X1297383Y-16867674D02*
X1306907Y-16829579D01*
X1306907Y-16829579D02*
X1316430Y-16810531D01*
X1316430Y-16810531D02*
X1325954Y-16801008D01*
X1325954Y-16801008D02*
X1345002Y-16791484D01*
X1497383Y-16972436D02*
X1506907Y-16981960D01*
X1506907Y-16981960D02*
X1497383Y-16991484D01*
X1497383Y-16991484D02*
X1487859Y-16981960D01*
X1487859Y-16981960D02*
X1497383Y-16972436D01*
X1497383Y-16972436D02*
X1497383Y-16991484D01*
X1678335Y-16858150D02*
X1678335Y-16991484D01*
X1630716Y-16781960D02*
X1583097Y-16924817D01*
X1583097Y-16924817D02*
X1706907Y-16924817D01*
X1821192Y-16791484D02*
X1840240Y-16791484D01*
X1840240Y-16791484D02*
X1859288Y-16801008D01*
X1859288Y-16801008D02*
X1868811Y-16810531D01*
X1868811Y-16810531D02*
X1878335Y-16829579D01*
X1878335Y-16829579D02*
X1887859Y-16867674D01*
X1887859Y-16867674D02*
X1887859Y-16915293D01*
X1887859Y-16915293D02*
X1878335Y-16953389D01*
X1878335Y-16953389D02*
X1868811Y-16972436D01*
X1868811Y-16972436D02*
X1859288Y-16981960D01*
X1859288Y-16981960D02*
X1840240Y-16991484D01*
X1840240Y-16991484D02*
X1821192Y-16991484D01*
X1821192Y-16991484D02*
X1802145Y-16981960D01*
X1802145Y-16981960D02*
X1792621Y-16972436D01*
X1792621Y-16972436D02*
X1783097Y-16953389D01*
X1783097Y-16953389D02*
X1773573Y-16915293D01*
X1773573Y-16915293D02*
X1773573Y-16867674D01*
X1773573Y-16867674D02*
X1783097Y-16829579D01*
X1783097Y-16829579D02*
X1792621Y-16810531D01*
X1792621Y-16810531D02*
X1802145Y-16801008D01*
X1802145Y-16801008D02*
X1821192Y-16791484D01*
X2011668Y-16791484D02*
X2030716Y-16791484D01*
X2030716Y-16791484D02*
X2049764Y-16801008D01*
X2049764Y-16801008D02*
X2059288Y-16810531D01*
X2059288Y-16810531D02*
X2068811Y-16829579D01*
X2068811Y-16829579D02*
X2078335Y-16867674D01*
X2078335Y-16867674D02*
X2078335Y-16915293D01*
X2078335Y-16915293D02*
X2068811Y-16953389D01*
X2068811Y-16953389D02*
X2059288Y-16972436D01*
X2059288Y-16972436D02*
X2049764Y-16981960D01*
X2049764Y-16981960D02*
X2030716Y-16991484D01*
X2030716Y-16991484D02*
X2011668Y-16991484D01*
X2011668Y-16991484D02*
X1992621Y-16981960D01*
X1992621Y-16981960D02*
X1983097Y-16972436D01*
X1983097Y-16972436D02*
X1973573Y-16953389D01*
X1973573Y-16953389D02*
X1964049Y-16915293D01*
X1964049Y-16915293D02*
X1964049Y-16867674D01*
X1964049Y-16867674D02*
X1973573Y-16829579D01*
X1973573Y-16829579D02*
X1983097Y-16810531D01*
X1983097Y-16810531D02*
X1992621Y-16801008D01*
X1992621Y-16801008D02*
X2011668Y-16791484D01*
X2164050Y-16991484D02*
X2164050Y-16858150D01*
X2164050Y-16877198D02*
X2173573Y-16867674D01*
X2173573Y-16867674D02*
X2192621Y-16858150D01*
X2192621Y-16858150D02*
X2221192Y-16858150D01*
X2221192Y-16858150D02*
X2240240Y-16867674D01*
X2240240Y-16867674D02*
X2249764Y-16886722D01*
X2249764Y-16886722D02*
X2249764Y-16991484D01*
X2249764Y-16886722D02*
X2259288Y-16867674D01*
X2259288Y-16867674D02*
X2278335Y-16858150D01*
X2278335Y-16858150D02*
X2306907Y-16858150D01*
X2306907Y-16858150D02*
X2325954Y-16867674D01*
X2325954Y-16867674D02*
X2335478Y-16886722D01*
X2335478Y-16886722D02*
X2335478Y-16991484D01*
X2430716Y-16991484D02*
X2430716Y-16858150D01*
X2430716Y-16877198D02*
X2440240Y-16867674D01*
X2440240Y-16867674D02*
X2459288Y-16858150D01*
X2459288Y-16858150D02*
X2487859Y-16858150D01*
X2487859Y-16858150D02*
X2506907Y-16867674D01*
X2506907Y-16867674D02*
X2516431Y-16886722D01*
X2516431Y-16886722D02*
X2516431Y-16991484D01*
X2516431Y-16886722D02*
X2525954Y-16867674D01*
X2525954Y-16867674D02*
X2545002Y-16858150D01*
X2545002Y-16858150D02*
X2573573Y-16858150D01*
X2573573Y-16858150D02*
X2592621Y-16867674D01*
X2592621Y-16867674D02*
X2602145Y-16886722D01*
X2602145Y-16886722D02*
X2602145Y-16991484D01*
X2992621Y-16781960D02*
X2821192Y-17039103D01*
X3249764Y-16791484D02*
X3268812Y-16791484D01*
X3268812Y-16791484D02*
X3287859Y-16801008D01*
X3287859Y-16801008D02*
X3297383Y-16810531D01*
X3297383Y-16810531D02*
X3306907Y-16829579D01*
X3306907Y-16829579D02*
X3316431Y-16867674D01*
X3316431Y-16867674D02*
X3316431Y-16915293D01*
X3316431Y-16915293D02*
X3306907Y-16953389D01*
X3306907Y-16953389D02*
X3297383Y-16972436D01*
X3297383Y-16972436D02*
X3287859Y-16981960D01*
X3287859Y-16981960D02*
X3268812Y-16991484D01*
X3268812Y-16991484D02*
X3249764Y-16991484D01*
X3249764Y-16991484D02*
X3230716Y-16981960D01*
X3230716Y-16981960D02*
X3221192Y-16972436D01*
X3221192Y-16972436D02*
X3211669Y-16953389D01*
X3211669Y-16953389D02*
X3202145Y-16915293D01*
X3202145Y-16915293D02*
X3202145Y-16867674D01*
X3202145Y-16867674D02*
X3211669Y-16829579D01*
X3211669Y-16829579D02*
X3221192Y-16810531D01*
X3221192Y-16810531D02*
X3230716Y-16801008D01*
X3230716Y-16801008D02*
X3249764Y-16791484D01*
X3402145Y-16972436D02*
X3411669Y-16981960D01*
X3411669Y-16981960D02*
X3402145Y-16991484D01*
X3402145Y-16991484D02*
X3392621Y-16981960D01*
X3392621Y-16981960D02*
X3402145Y-16972436D01*
X3402145Y-16972436D02*
X3402145Y-16991484D01*
X3535478Y-16791484D02*
X3554526Y-16791484D01*
X3554526Y-16791484D02*
X3573573Y-16801008D01*
X3573573Y-16801008D02*
X3583097Y-16810531D01*
X3583097Y-16810531D02*
X3592621Y-16829579D01*
X3592621Y-16829579D02*
X3602145Y-16867674D01*
X3602145Y-16867674D02*
X3602145Y-16915293D01*
X3602145Y-16915293D02*
X3592621Y-16953389D01*
X3592621Y-16953389D02*
X3583097Y-16972436D01*
X3583097Y-16972436D02*
X3573573Y-16981960D01*
X3573573Y-16981960D02*
X3554526Y-16991484D01*
X3554526Y-16991484D02*
X3535478Y-16991484D01*
X3535478Y-16991484D02*
X3516431Y-16981960D01*
X3516431Y-16981960D02*
X3506907Y-16972436D01*
X3506907Y-16972436D02*
X3497383Y-16953389D01*
X3497383Y-16953389D02*
X3487859Y-16915293D01*
X3487859Y-16915293D02*
X3487859Y-16867674D01*
X3487859Y-16867674D02*
X3497383Y-16829579D01*
X3497383Y-16829579D02*
X3506907Y-16810531D01*
X3506907Y-16810531D02*
X3516431Y-16801008D01*
X3516431Y-16801008D02*
X3535478Y-16791484D01*
X3792621Y-16991484D02*
X3678335Y-16991484D01*
X3735478Y-16991484D02*
X3735478Y-16791484D01*
X3735478Y-16791484D02*
X3716431Y-16820055D01*
X3716431Y-16820055D02*
X3697383Y-16839103D01*
X3697383Y-16839103D02*
X3678335Y-16848627D01*
X3973573Y-16791484D02*
X3878335Y-16791484D01*
X3878335Y-16791484D02*
X3868812Y-16886722D01*
X3868812Y-16886722D02*
X3878335Y-16877198D01*
X3878335Y-16877198D02*
X3897383Y-16867674D01*
X3897383Y-16867674D02*
X3945002Y-16867674D01*
X3945002Y-16867674D02*
X3964050Y-16877198D01*
X3964050Y-16877198D02*
X3973573Y-16886722D01*
X3973573Y-16886722D02*
X3983097Y-16905770D01*
X3983097Y-16905770D02*
X3983097Y-16953389D01*
X3983097Y-16953389D02*
X3973573Y-16972436D01*
X3973573Y-16972436D02*
X3964050Y-16981960D01*
X3964050Y-16981960D02*
X3945002Y-16991484D01*
X3945002Y-16991484D02*
X3897383Y-16991484D01*
X3897383Y-16991484D02*
X3878335Y-16981960D01*
X3878335Y-16981960D02*
X3868812Y-16972436D01*
X4049764Y-16791484D02*
X4183097Y-16791484D01*
X4183097Y-16791484D02*
X4097383Y-16991484D01*
X4249764Y-16791484D02*
X4249764Y-16829579D01*
X4325955Y-16791484D02*
X4325955Y-16829579D01*
X4621193Y-17067674D02*
X4611669Y-17058150D01*
X4611669Y-17058150D02*
X4592621Y-17029579D01*
X4592621Y-17029579D02*
X4583097Y-17010531D01*
X4583097Y-17010531D02*
X4573574Y-16981960D01*
X4573574Y-16981960D02*
X4564050Y-16934341D01*
X4564050Y-16934341D02*
X4564050Y-16896246D01*
X4564050Y-16896246D02*
X4573574Y-16848627D01*
X4573574Y-16848627D02*
X4583097Y-16820055D01*
X4583097Y-16820055D02*
X4592621Y-16801008D01*
X4592621Y-16801008D02*
X4611669Y-16772436D01*
X4611669Y-16772436D02*
X4621193Y-16762912D01*
X4802145Y-16991484D02*
X4687859Y-16991484D01*
X4745002Y-16991484D02*
X4745002Y-16791484D01*
X4745002Y-16791484D02*
X4725955Y-16820055D01*
X4725955Y-16820055D02*
X4706907Y-16839103D01*
X4706907Y-16839103D02*
X4687859Y-16848627D01*
X4992621Y-16991484D02*
X4878336Y-16991484D01*
X4935478Y-16991484D02*
X4935478Y-16791484D01*
X4935478Y-16791484D02*
X4916431Y-16820055D01*
X4916431Y-16820055D02*
X4897383Y-16839103D01*
X4897383Y-16839103D02*
X4878336Y-16848627D01*
X5164050Y-16791484D02*
X5125955Y-16791484D01*
X5125955Y-16791484D02*
X5106907Y-16801008D01*
X5106907Y-16801008D02*
X5097383Y-16810531D01*
X5097383Y-16810531D02*
X5078336Y-16839103D01*
X5078336Y-16839103D02*
X5068812Y-16877198D01*
X5068812Y-16877198D02*
X5068812Y-16953389D01*
X5068812Y-16953389D02*
X5078336Y-16972436D01*
X5078336Y-16972436D02*
X5087859Y-16981960D01*
X5087859Y-16981960D02*
X5106907Y-16991484D01*
X5106907Y-16991484D02*
X5145002Y-16991484D01*
X5145002Y-16991484D02*
X5164050Y-16981960D01*
X5164050Y-16981960D02*
X5173574Y-16972436D01*
X5173574Y-16972436D02*
X5183097Y-16953389D01*
X5183097Y-16953389D02*
X5183097Y-16905770D01*
X5183097Y-16905770D02*
X5173574Y-16886722D01*
X5173574Y-16886722D02*
X5164050Y-16877198D01*
X5164050Y-16877198D02*
X5145002Y-16867674D01*
X5145002Y-16867674D02*
X5106907Y-16867674D01*
X5106907Y-16867674D02*
X5087859Y-16877198D01*
X5087859Y-16877198D02*
X5078336Y-16886722D01*
X5078336Y-16886722D02*
X5068812Y-16905770D01*
X5421193Y-16991484D02*
X5421193Y-16791484D01*
X5506907Y-16991484D02*
X5506907Y-16886722D01*
X5506907Y-16886722D02*
X5497383Y-16867674D01*
X5497383Y-16867674D02*
X5478336Y-16858150D01*
X5478336Y-16858150D02*
X5449764Y-16858150D01*
X5449764Y-16858150D02*
X5430717Y-16867674D01*
X5430717Y-16867674D02*
X5421193Y-16877198D01*
X5630716Y-16991484D02*
X5611669Y-16981960D01*
X5611669Y-16981960D02*
X5602145Y-16972436D01*
X5602145Y-16972436D02*
X5592621Y-16953389D01*
X5592621Y-16953389D02*
X5592621Y-16896246D01*
X5592621Y-16896246D02*
X5602145Y-16877198D01*
X5602145Y-16877198D02*
X5611669Y-16867674D01*
X5611669Y-16867674D02*
X5630716Y-16858150D01*
X5630716Y-16858150D02*
X5659288Y-16858150D01*
X5659288Y-16858150D02*
X5678336Y-16867674D01*
X5678336Y-16867674D02*
X5687859Y-16877198D01*
X5687859Y-16877198D02*
X5697383Y-16896246D01*
X5697383Y-16896246D02*
X5697383Y-16953389D01*
X5697383Y-16953389D02*
X5687859Y-16972436D01*
X5687859Y-16972436D02*
X5678336Y-16981960D01*
X5678336Y-16981960D02*
X5659288Y-16991484D01*
X5659288Y-16991484D02*
X5630716Y-16991484D01*
X5811669Y-16991484D02*
X5792621Y-16981960D01*
X5792621Y-16981960D02*
X5783097Y-16962912D01*
X5783097Y-16962912D02*
X5783097Y-16791484D01*
X5964050Y-16981960D02*
X5945002Y-16991484D01*
X5945002Y-16991484D02*
X5906907Y-16991484D01*
X5906907Y-16991484D02*
X5887859Y-16981960D01*
X5887859Y-16981960D02*
X5878336Y-16962912D01*
X5878336Y-16962912D02*
X5878336Y-16886722D01*
X5878336Y-16886722D02*
X5887859Y-16867674D01*
X5887859Y-16867674D02*
X5906907Y-16858150D01*
X5906907Y-16858150D02*
X5945002Y-16858150D01*
X5945002Y-16858150D02*
X5964050Y-16867674D01*
X5964050Y-16867674D02*
X5973574Y-16886722D01*
X5973574Y-16886722D02*
X5973574Y-16905770D01*
X5973574Y-16905770D02*
X5878336Y-16924817D01*
X6049764Y-16981960D02*
X6068812Y-16991484D01*
X6068812Y-16991484D02*
X6106907Y-16991484D01*
X6106907Y-16991484D02*
X6125955Y-16981960D01*
X6125955Y-16981960D02*
X6135478Y-16962912D01*
X6135478Y-16962912D02*
X6135478Y-16953389D01*
X6135478Y-16953389D02*
X6125955Y-16934341D01*
X6125955Y-16934341D02*
X6106907Y-16924817D01*
X6106907Y-16924817D02*
X6078336Y-16924817D01*
X6078336Y-16924817D02*
X6059288Y-16915293D01*
X6059288Y-16915293D02*
X6049764Y-16896246D01*
X6049764Y-16896246D02*
X6049764Y-16886722D01*
X6049764Y-16886722D02*
X6059288Y-16867674D01*
X6059288Y-16867674D02*
X6078336Y-16858150D01*
X6078336Y-16858150D02*
X6106907Y-16858150D01*
X6106907Y-16858150D02*
X6125955Y-16867674D01*
X6202145Y-17067674D02*
X6211669Y-17058150D01*
X6211669Y-17058150D02*
X6230717Y-17029579D01*
X6230717Y-17029579D02*
X6240240Y-17010531D01*
X6240240Y-17010531D02*
X6249764Y-16981960D01*
X6249764Y-16981960D02*
X6259288Y-16934341D01*
X6259288Y-16934341D02*
X6259288Y-16896246D01*
X6259288Y-16896246D02*
X6249764Y-16848627D01*
X6249764Y-16848627D02*
X6240240Y-16820055D01*
X6240240Y-16820055D02*
X6230717Y-16801008D01*
X6230717Y-16801008D02*
X6211669Y-16772436D01*
X6211669Y-16772436D02*
X6202145Y-16762912D01*
D11*
X1046130Y-17164000D02*
G75*
G03*
X1046130Y-17164000I-25000J0D01*
G01*
D10*
X1345002Y-17055484D02*
X1364050Y-17055484D01*
X1364050Y-17055484D02*
X1383097Y-17065008D01*
X1383097Y-17065008D02*
X1392621Y-17074531D01*
X1392621Y-17074531D02*
X1402145Y-17093579D01*
X1402145Y-17093579D02*
X1411668Y-17131674D01*
X1411668Y-17131674D02*
X1411668Y-17179293D01*
X1411668Y-17179293D02*
X1402145Y-17217389D01*
X1402145Y-17217389D02*
X1392621Y-17236436D01*
X1392621Y-17236436D02*
X1383097Y-17245960D01*
X1383097Y-17245960D02*
X1364050Y-17255484D01*
X1364050Y-17255484D02*
X1345002Y-17255484D01*
X1345002Y-17255484D02*
X1325954Y-17245960D01*
X1325954Y-17245960D02*
X1316430Y-17236436D01*
X1316430Y-17236436D02*
X1306907Y-17217389D01*
X1306907Y-17217389D02*
X1297383Y-17179293D01*
X1297383Y-17179293D02*
X1297383Y-17131674D01*
X1297383Y-17131674D02*
X1306907Y-17093579D01*
X1306907Y-17093579D02*
X1316430Y-17074531D01*
X1316430Y-17074531D02*
X1325954Y-17065008D01*
X1325954Y-17065008D02*
X1345002Y-17055484D01*
X1497383Y-17236436D02*
X1506907Y-17245960D01*
X1506907Y-17245960D02*
X1497383Y-17255484D01*
X1497383Y-17255484D02*
X1487859Y-17245960D01*
X1487859Y-17245960D02*
X1497383Y-17236436D01*
X1497383Y-17236436D02*
X1497383Y-17255484D01*
X1687859Y-17055484D02*
X1592621Y-17055484D01*
X1592621Y-17055484D02*
X1583097Y-17150722D01*
X1583097Y-17150722D02*
X1592621Y-17141198D01*
X1592621Y-17141198D02*
X1611668Y-17131674D01*
X1611668Y-17131674D02*
X1659288Y-17131674D01*
X1659288Y-17131674D02*
X1678335Y-17141198D01*
X1678335Y-17141198D02*
X1687859Y-17150722D01*
X1687859Y-17150722D02*
X1697383Y-17169770D01*
X1697383Y-17169770D02*
X1697383Y-17217389D01*
X1697383Y-17217389D02*
X1687859Y-17236436D01*
X1687859Y-17236436D02*
X1678335Y-17245960D01*
X1678335Y-17245960D02*
X1659288Y-17255484D01*
X1659288Y-17255484D02*
X1611668Y-17255484D01*
X1611668Y-17255484D02*
X1592621Y-17245960D01*
X1592621Y-17245960D02*
X1583097Y-17236436D01*
X1821192Y-17055484D02*
X1840240Y-17055484D01*
X1840240Y-17055484D02*
X1859288Y-17065008D01*
X1859288Y-17065008D02*
X1868811Y-17074531D01*
X1868811Y-17074531D02*
X1878335Y-17093579D01*
X1878335Y-17093579D02*
X1887859Y-17131674D01*
X1887859Y-17131674D02*
X1887859Y-17179293D01*
X1887859Y-17179293D02*
X1878335Y-17217389D01*
X1878335Y-17217389D02*
X1868811Y-17236436D01*
X1868811Y-17236436D02*
X1859288Y-17245960D01*
X1859288Y-17245960D02*
X1840240Y-17255484D01*
X1840240Y-17255484D02*
X1821192Y-17255484D01*
X1821192Y-17255484D02*
X1802145Y-17245960D01*
X1802145Y-17245960D02*
X1792621Y-17236436D01*
X1792621Y-17236436D02*
X1783097Y-17217389D01*
X1783097Y-17217389D02*
X1773573Y-17179293D01*
X1773573Y-17179293D02*
X1773573Y-17131674D01*
X1773573Y-17131674D02*
X1783097Y-17093579D01*
X1783097Y-17093579D02*
X1792621Y-17074531D01*
X1792621Y-17074531D02*
X1802145Y-17065008D01*
X1802145Y-17065008D02*
X1821192Y-17055484D01*
X2011668Y-17055484D02*
X2030716Y-17055484D01*
X2030716Y-17055484D02*
X2049764Y-17065008D01*
X2049764Y-17065008D02*
X2059288Y-17074531D01*
X2059288Y-17074531D02*
X2068811Y-17093579D01*
X2068811Y-17093579D02*
X2078335Y-17131674D01*
X2078335Y-17131674D02*
X2078335Y-17179293D01*
X2078335Y-17179293D02*
X2068811Y-17217389D01*
X2068811Y-17217389D02*
X2059288Y-17236436D01*
X2059288Y-17236436D02*
X2049764Y-17245960D01*
X2049764Y-17245960D02*
X2030716Y-17255484D01*
X2030716Y-17255484D02*
X2011668Y-17255484D01*
X2011668Y-17255484D02*
X1992621Y-17245960D01*
X1992621Y-17245960D02*
X1983097Y-17236436D01*
X1983097Y-17236436D02*
X1973573Y-17217389D01*
X1973573Y-17217389D02*
X1964049Y-17179293D01*
X1964049Y-17179293D02*
X1964049Y-17131674D01*
X1964049Y-17131674D02*
X1973573Y-17093579D01*
X1973573Y-17093579D02*
X1983097Y-17074531D01*
X1983097Y-17074531D02*
X1992621Y-17065008D01*
X1992621Y-17065008D02*
X2011668Y-17055484D01*
X2164050Y-17255484D02*
X2164050Y-17122150D01*
X2164050Y-17141198D02*
X2173573Y-17131674D01*
X2173573Y-17131674D02*
X2192621Y-17122150D01*
X2192621Y-17122150D02*
X2221192Y-17122150D01*
X2221192Y-17122150D02*
X2240240Y-17131674D01*
X2240240Y-17131674D02*
X2249764Y-17150722D01*
X2249764Y-17150722D02*
X2249764Y-17255484D01*
X2249764Y-17150722D02*
X2259288Y-17131674D01*
X2259288Y-17131674D02*
X2278335Y-17122150D01*
X2278335Y-17122150D02*
X2306907Y-17122150D01*
X2306907Y-17122150D02*
X2325954Y-17131674D01*
X2325954Y-17131674D02*
X2335478Y-17150722D01*
X2335478Y-17150722D02*
X2335478Y-17255484D01*
X2430716Y-17255484D02*
X2430716Y-17122150D01*
X2430716Y-17141198D02*
X2440240Y-17131674D01*
X2440240Y-17131674D02*
X2459288Y-17122150D01*
X2459288Y-17122150D02*
X2487859Y-17122150D01*
X2487859Y-17122150D02*
X2506907Y-17131674D01*
X2506907Y-17131674D02*
X2516431Y-17150722D01*
X2516431Y-17150722D02*
X2516431Y-17255484D01*
X2516431Y-17150722D02*
X2525954Y-17131674D01*
X2525954Y-17131674D02*
X2545002Y-17122150D01*
X2545002Y-17122150D02*
X2573573Y-17122150D01*
X2573573Y-17122150D02*
X2592621Y-17131674D01*
X2592621Y-17131674D02*
X2602145Y-17150722D01*
X2602145Y-17150722D02*
X2602145Y-17255484D01*
X2992621Y-17045960D02*
X2821192Y-17303103D01*
X3249764Y-17055484D02*
X3268812Y-17055484D01*
X3268812Y-17055484D02*
X3287859Y-17065008D01*
X3287859Y-17065008D02*
X3297383Y-17074531D01*
X3297383Y-17074531D02*
X3306907Y-17093579D01*
X3306907Y-17093579D02*
X3316431Y-17131674D01*
X3316431Y-17131674D02*
X3316431Y-17179293D01*
X3316431Y-17179293D02*
X3306907Y-17217389D01*
X3306907Y-17217389D02*
X3297383Y-17236436D01*
X3297383Y-17236436D02*
X3287859Y-17245960D01*
X3287859Y-17245960D02*
X3268812Y-17255484D01*
X3268812Y-17255484D02*
X3249764Y-17255484D01*
X3249764Y-17255484D02*
X3230716Y-17245960D01*
X3230716Y-17245960D02*
X3221192Y-17236436D01*
X3221192Y-17236436D02*
X3211669Y-17217389D01*
X3211669Y-17217389D02*
X3202145Y-17179293D01*
X3202145Y-17179293D02*
X3202145Y-17131674D01*
X3202145Y-17131674D02*
X3211669Y-17093579D01*
X3211669Y-17093579D02*
X3221192Y-17074531D01*
X3221192Y-17074531D02*
X3230716Y-17065008D01*
X3230716Y-17065008D02*
X3249764Y-17055484D01*
X3402145Y-17236436D02*
X3411669Y-17245960D01*
X3411669Y-17245960D02*
X3402145Y-17255484D01*
X3402145Y-17255484D02*
X3392621Y-17245960D01*
X3392621Y-17245960D02*
X3402145Y-17236436D01*
X3402145Y-17236436D02*
X3402145Y-17255484D01*
X3535478Y-17055484D02*
X3554526Y-17055484D01*
X3554526Y-17055484D02*
X3573573Y-17065008D01*
X3573573Y-17065008D02*
X3583097Y-17074531D01*
X3583097Y-17074531D02*
X3592621Y-17093579D01*
X3592621Y-17093579D02*
X3602145Y-17131674D01*
X3602145Y-17131674D02*
X3602145Y-17179293D01*
X3602145Y-17179293D02*
X3592621Y-17217389D01*
X3592621Y-17217389D02*
X3583097Y-17236436D01*
X3583097Y-17236436D02*
X3573573Y-17245960D01*
X3573573Y-17245960D02*
X3554526Y-17255484D01*
X3554526Y-17255484D02*
X3535478Y-17255484D01*
X3535478Y-17255484D02*
X3516431Y-17245960D01*
X3516431Y-17245960D02*
X3506907Y-17236436D01*
X3506907Y-17236436D02*
X3497383Y-17217389D01*
X3497383Y-17217389D02*
X3487859Y-17179293D01*
X3487859Y-17179293D02*
X3487859Y-17131674D01*
X3487859Y-17131674D02*
X3497383Y-17093579D01*
X3497383Y-17093579D02*
X3506907Y-17074531D01*
X3506907Y-17074531D02*
X3516431Y-17065008D01*
X3516431Y-17065008D02*
X3535478Y-17055484D01*
X3792621Y-17255484D02*
X3678335Y-17255484D01*
X3735478Y-17255484D02*
X3735478Y-17055484D01*
X3735478Y-17055484D02*
X3716431Y-17084055D01*
X3716431Y-17084055D02*
X3697383Y-17103103D01*
X3697383Y-17103103D02*
X3678335Y-17112627D01*
X3887859Y-17255484D02*
X3925954Y-17255484D01*
X3925954Y-17255484D02*
X3945002Y-17245960D01*
X3945002Y-17245960D02*
X3954526Y-17236436D01*
X3954526Y-17236436D02*
X3973573Y-17207865D01*
X3973573Y-17207865D02*
X3983097Y-17169770D01*
X3983097Y-17169770D02*
X3983097Y-17093579D01*
X3983097Y-17093579D02*
X3973573Y-17074531D01*
X3973573Y-17074531D02*
X3964050Y-17065008D01*
X3964050Y-17065008D02*
X3945002Y-17055484D01*
X3945002Y-17055484D02*
X3906907Y-17055484D01*
X3906907Y-17055484D02*
X3887859Y-17065008D01*
X3887859Y-17065008D02*
X3878335Y-17074531D01*
X3878335Y-17074531D02*
X3868812Y-17093579D01*
X3868812Y-17093579D02*
X3868812Y-17141198D01*
X3868812Y-17141198D02*
X3878335Y-17160246D01*
X3878335Y-17160246D02*
X3887859Y-17169770D01*
X3887859Y-17169770D02*
X3906907Y-17179293D01*
X3906907Y-17179293D02*
X3945002Y-17179293D01*
X3945002Y-17179293D02*
X3964050Y-17169770D01*
X3964050Y-17169770D02*
X3973573Y-17160246D01*
X3973573Y-17160246D02*
X3983097Y-17141198D01*
X4049764Y-17055484D02*
X4183097Y-17055484D01*
X4183097Y-17055484D02*
X4097383Y-17255484D01*
X4249764Y-17055484D02*
X4249764Y-17093579D01*
X4325955Y-17055484D02*
X4325955Y-17093579D01*
X4621193Y-17331674D02*
X4611669Y-17322150D01*
X4611669Y-17322150D02*
X4592621Y-17293579D01*
X4592621Y-17293579D02*
X4583097Y-17274531D01*
X4583097Y-17274531D02*
X4573574Y-17245960D01*
X4573574Y-17245960D02*
X4564050Y-17198341D01*
X4564050Y-17198341D02*
X4564050Y-17160246D01*
X4564050Y-17160246D02*
X4573574Y-17112627D01*
X4573574Y-17112627D02*
X4583097Y-17084055D01*
X4583097Y-17084055D02*
X4592621Y-17065008D01*
X4592621Y-17065008D02*
X4611669Y-17036436D01*
X4611669Y-17036436D02*
X4621193Y-17026912D01*
X4802145Y-17255484D02*
X4687859Y-17255484D01*
X4745002Y-17255484D02*
X4745002Y-17055484D01*
X4745002Y-17055484D02*
X4725955Y-17084055D01*
X4725955Y-17084055D02*
X4706907Y-17103103D01*
X4706907Y-17103103D02*
X4687859Y-17112627D01*
X4973574Y-17055484D02*
X4935478Y-17055484D01*
X4935478Y-17055484D02*
X4916431Y-17065008D01*
X4916431Y-17065008D02*
X4906907Y-17074531D01*
X4906907Y-17074531D02*
X4887859Y-17103103D01*
X4887859Y-17103103D02*
X4878336Y-17141198D01*
X4878336Y-17141198D02*
X4878336Y-17217389D01*
X4878336Y-17217389D02*
X4887859Y-17236436D01*
X4887859Y-17236436D02*
X4897383Y-17245960D01*
X4897383Y-17245960D02*
X4916431Y-17255484D01*
X4916431Y-17255484D02*
X4954526Y-17255484D01*
X4954526Y-17255484D02*
X4973574Y-17245960D01*
X4973574Y-17245960D02*
X4983097Y-17236436D01*
X4983097Y-17236436D02*
X4992621Y-17217389D01*
X4992621Y-17217389D02*
X4992621Y-17169770D01*
X4992621Y-17169770D02*
X4983097Y-17150722D01*
X4983097Y-17150722D02*
X4973574Y-17141198D01*
X4973574Y-17141198D02*
X4954526Y-17131674D01*
X4954526Y-17131674D02*
X4916431Y-17131674D01*
X4916431Y-17131674D02*
X4897383Y-17141198D01*
X4897383Y-17141198D02*
X4887859Y-17150722D01*
X4887859Y-17150722D02*
X4878336Y-17169770D01*
X5230717Y-17255484D02*
X5230717Y-17055484D01*
X5316431Y-17255484D02*
X5316431Y-17150722D01*
X5316431Y-17150722D02*
X5306907Y-17131674D01*
X5306907Y-17131674D02*
X5287859Y-17122150D01*
X5287859Y-17122150D02*
X5259288Y-17122150D01*
X5259288Y-17122150D02*
X5240240Y-17131674D01*
X5240240Y-17131674D02*
X5230717Y-17141198D01*
X5440240Y-17255484D02*
X5421193Y-17245960D01*
X5421193Y-17245960D02*
X5411669Y-17236436D01*
X5411669Y-17236436D02*
X5402145Y-17217389D01*
X5402145Y-17217389D02*
X5402145Y-17160246D01*
X5402145Y-17160246D02*
X5411669Y-17141198D01*
X5411669Y-17141198D02*
X5421193Y-17131674D01*
X5421193Y-17131674D02*
X5440240Y-17122150D01*
X5440240Y-17122150D02*
X5468812Y-17122150D01*
X5468812Y-17122150D02*
X5487859Y-17131674D01*
X5487859Y-17131674D02*
X5497383Y-17141198D01*
X5497383Y-17141198D02*
X5506907Y-17160246D01*
X5506907Y-17160246D02*
X5506907Y-17217389D01*
X5506907Y-17217389D02*
X5497383Y-17236436D01*
X5497383Y-17236436D02*
X5487859Y-17245960D01*
X5487859Y-17245960D02*
X5468812Y-17255484D01*
X5468812Y-17255484D02*
X5440240Y-17255484D01*
X5621193Y-17255484D02*
X5602145Y-17245960D01*
X5602145Y-17245960D02*
X5592621Y-17226912D01*
X5592621Y-17226912D02*
X5592621Y-17055484D01*
X5773574Y-17245960D02*
X5754526Y-17255484D01*
X5754526Y-17255484D02*
X5716431Y-17255484D01*
X5716431Y-17255484D02*
X5697383Y-17245960D01*
X5697383Y-17245960D02*
X5687859Y-17226912D01*
X5687859Y-17226912D02*
X5687859Y-17150722D01*
X5687859Y-17150722D02*
X5697383Y-17131674D01*
X5697383Y-17131674D02*
X5716431Y-17122150D01*
X5716431Y-17122150D02*
X5754526Y-17122150D01*
X5754526Y-17122150D02*
X5773574Y-17131674D01*
X5773574Y-17131674D02*
X5783097Y-17150722D01*
X5783097Y-17150722D02*
X5783097Y-17169770D01*
X5783097Y-17169770D02*
X5687859Y-17188817D01*
X5859288Y-17245960D02*
X5878336Y-17255484D01*
X5878336Y-17255484D02*
X5916431Y-17255484D01*
X5916431Y-17255484D02*
X5935478Y-17245960D01*
X5935478Y-17245960D02*
X5945002Y-17226912D01*
X5945002Y-17226912D02*
X5945002Y-17217389D01*
X5945002Y-17217389D02*
X5935478Y-17198341D01*
X5935478Y-17198341D02*
X5916431Y-17188817D01*
X5916431Y-17188817D02*
X5887859Y-17188817D01*
X5887859Y-17188817D02*
X5868812Y-17179293D01*
X5868812Y-17179293D02*
X5859288Y-17160246D01*
X5859288Y-17160246D02*
X5859288Y-17150722D01*
X5859288Y-17150722D02*
X5868812Y-17131674D01*
X5868812Y-17131674D02*
X5887859Y-17122150D01*
X5887859Y-17122150D02*
X5916431Y-17122150D01*
X5916431Y-17122150D02*
X5935478Y-17131674D01*
X6011669Y-17331674D02*
X6021193Y-17322150D01*
X6021193Y-17322150D02*
X6040240Y-17293579D01*
X6040240Y-17293579D02*
X6049764Y-17274531D01*
X6049764Y-17274531D02*
X6059288Y-17245960D01*
X6059288Y-17245960D02*
X6068812Y-17198341D01*
X6068812Y-17198341D02*
X6068812Y-17160246D01*
X6068812Y-17160246D02*
X6059288Y-17112627D01*
X6059288Y-17112627D02*
X6049764Y-17084055D01*
X6049764Y-17084055D02*
X6040240Y-17065008D01*
X6040240Y-17065008D02*
X6021193Y-17036436D01*
X6021193Y-17036436D02*
X6011669Y-17026912D01*
D11*
X1001130Y-17383000D02*
X1001130Y-17473000D01*
X956130Y-17428000D02*
X1046130Y-17428000D01*
D10*
X1345002Y-17319484D02*
X1364050Y-17319484D01*
X1364050Y-17319484D02*
X1383097Y-17329008D01*
X1383097Y-17329008D02*
X1392621Y-17338531D01*
X1392621Y-17338531D02*
X1402145Y-17357579D01*
X1402145Y-17357579D02*
X1411668Y-17395674D01*
X1411668Y-17395674D02*
X1411668Y-17443293D01*
X1411668Y-17443293D02*
X1402145Y-17481389D01*
X1402145Y-17481389D02*
X1392621Y-17500436D01*
X1392621Y-17500436D02*
X1383097Y-17509960D01*
X1383097Y-17509960D02*
X1364050Y-17519484D01*
X1364050Y-17519484D02*
X1345002Y-17519484D01*
X1345002Y-17519484D02*
X1325954Y-17509960D01*
X1325954Y-17509960D02*
X1316430Y-17500436D01*
X1316430Y-17500436D02*
X1306907Y-17481389D01*
X1306907Y-17481389D02*
X1297383Y-17443293D01*
X1297383Y-17443293D02*
X1297383Y-17395674D01*
X1297383Y-17395674D02*
X1306907Y-17357579D01*
X1306907Y-17357579D02*
X1316430Y-17338531D01*
X1316430Y-17338531D02*
X1325954Y-17329008D01*
X1325954Y-17329008D02*
X1345002Y-17319484D01*
X1497383Y-17500436D02*
X1506907Y-17509960D01*
X1506907Y-17509960D02*
X1497383Y-17519484D01*
X1497383Y-17519484D02*
X1487859Y-17509960D01*
X1487859Y-17509960D02*
X1497383Y-17500436D01*
X1497383Y-17500436D02*
X1497383Y-17519484D01*
X1602145Y-17519484D02*
X1640240Y-17519484D01*
X1640240Y-17519484D02*
X1659288Y-17509960D01*
X1659288Y-17509960D02*
X1668811Y-17500436D01*
X1668811Y-17500436D02*
X1687859Y-17471865D01*
X1687859Y-17471865D02*
X1697383Y-17433770D01*
X1697383Y-17433770D02*
X1697383Y-17357579D01*
X1697383Y-17357579D02*
X1687859Y-17338531D01*
X1687859Y-17338531D02*
X1678335Y-17329008D01*
X1678335Y-17329008D02*
X1659288Y-17319484D01*
X1659288Y-17319484D02*
X1621192Y-17319484D01*
X1621192Y-17319484D02*
X1602145Y-17329008D01*
X1602145Y-17329008D02*
X1592621Y-17338531D01*
X1592621Y-17338531D02*
X1583097Y-17357579D01*
X1583097Y-17357579D02*
X1583097Y-17405198D01*
X1583097Y-17405198D02*
X1592621Y-17424246D01*
X1592621Y-17424246D02*
X1602145Y-17433770D01*
X1602145Y-17433770D02*
X1621192Y-17443293D01*
X1621192Y-17443293D02*
X1659288Y-17443293D01*
X1659288Y-17443293D02*
X1678335Y-17433770D01*
X1678335Y-17433770D02*
X1687859Y-17424246D01*
X1687859Y-17424246D02*
X1697383Y-17405198D01*
X1821192Y-17319484D02*
X1840240Y-17319484D01*
X1840240Y-17319484D02*
X1859288Y-17329008D01*
X1859288Y-17329008D02*
X1868811Y-17338531D01*
X1868811Y-17338531D02*
X1878335Y-17357579D01*
X1878335Y-17357579D02*
X1887859Y-17395674D01*
X1887859Y-17395674D02*
X1887859Y-17443293D01*
X1887859Y-17443293D02*
X1878335Y-17481389D01*
X1878335Y-17481389D02*
X1868811Y-17500436D01*
X1868811Y-17500436D02*
X1859288Y-17509960D01*
X1859288Y-17509960D02*
X1840240Y-17519484D01*
X1840240Y-17519484D02*
X1821192Y-17519484D01*
X1821192Y-17519484D02*
X1802145Y-17509960D01*
X1802145Y-17509960D02*
X1792621Y-17500436D01*
X1792621Y-17500436D02*
X1783097Y-17481389D01*
X1783097Y-17481389D02*
X1773573Y-17443293D01*
X1773573Y-17443293D02*
X1773573Y-17395674D01*
X1773573Y-17395674D02*
X1783097Y-17357579D01*
X1783097Y-17357579D02*
X1792621Y-17338531D01*
X1792621Y-17338531D02*
X1802145Y-17329008D01*
X1802145Y-17329008D02*
X1821192Y-17319484D01*
X2011668Y-17319484D02*
X2030716Y-17319484D01*
X2030716Y-17319484D02*
X2049764Y-17329008D01*
X2049764Y-17329008D02*
X2059288Y-17338531D01*
X2059288Y-17338531D02*
X2068811Y-17357579D01*
X2068811Y-17357579D02*
X2078335Y-17395674D01*
X2078335Y-17395674D02*
X2078335Y-17443293D01*
X2078335Y-17443293D02*
X2068811Y-17481389D01*
X2068811Y-17481389D02*
X2059288Y-17500436D01*
X2059288Y-17500436D02*
X2049764Y-17509960D01*
X2049764Y-17509960D02*
X2030716Y-17519484D01*
X2030716Y-17519484D02*
X2011668Y-17519484D01*
X2011668Y-17519484D02*
X1992621Y-17509960D01*
X1992621Y-17509960D02*
X1983097Y-17500436D01*
X1983097Y-17500436D02*
X1973573Y-17481389D01*
X1973573Y-17481389D02*
X1964049Y-17443293D01*
X1964049Y-17443293D02*
X1964049Y-17395674D01*
X1964049Y-17395674D02*
X1973573Y-17357579D01*
X1973573Y-17357579D02*
X1983097Y-17338531D01*
X1983097Y-17338531D02*
X1992621Y-17329008D01*
X1992621Y-17329008D02*
X2011668Y-17319484D01*
X2164050Y-17519484D02*
X2164050Y-17386150D01*
X2164050Y-17405198D02*
X2173573Y-17395674D01*
X2173573Y-17395674D02*
X2192621Y-17386150D01*
X2192621Y-17386150D02*
X2221192Y-17386150D01*
X2221192Y-17386150D02*
X2240240Y-17395674D01*
X2240240Y-17395674D02*
X2249764Y-17414722D01*
X2249764Y-17414722D02*
X2249764Y-17519484D01*
X2249764Y-17414722D02*
X2259288Y-17395674D01*
X2259288Y-17395674D02*
X2278335Y-17386150D01*
X2278335Y-17386150D02*
X2306907Y-17386150D01*
X2306907Y-17386150D02*
X2325954Y-17395674D01*
X2325954Y-17395674D02*
X2335478Y-17414722D01*
X2335478Y-17414722D02*
X2335478Y-17519484D01*
X2430716Y-17519484D02*
X2430716Y-17386150D01*
X2430716Y-17405198D02*
X2440240Y-17395674D01*
X2440240Y-17395674D02*
X2459288Y-17386150D01*
X2459288Y-17386150D02*
X2487859Y-17386150D01*
X2487859Y-17386150D02*
X2506907Y-17395674D01*
X2506907Y-17395674D02*
X2516431Y-17414722D01*
X2516431Y-17414722D02*
X2516431Y-17519484D01*
X2516431Y-17414722D02*
X2525954Y-17395674D01*
X2525954Y-17395674D02*
X2545002Y-17386150D01*
X2545002Y-17386150D02*
X2573573Y-17386150D01*
X2573573Y-17386150D02*
X2592621Y-17395674D01*
X2592621Y-17395674D02*
X2602145Y-17414722D01*
X2602145Y-17414722D02*
X2602145Y-17519484D01*
X2992621Y-17309960D02*
X2821192Y-17567103D01*
X3249764Y-17319484D02*
X3268812Y-17319484D01*
X3268812Y-17319484D02*
X3287859Y-17329008D01*
X3287859Y-17329008D02*
X3297383Y-17338531D01*
X3297383Y-17338531D02*
X3306907Y-17357579D01*
X3306907Y-17357579D02*
X3316431Y-17395674D01*
X3316431Y-17395674D02*
X3316431Y-17443293D01*
X3316431Y-17443293D02*
X3306907Y-17481389D01*
X3306907Y-17481389D02*
X3297383Y-17500436D01*
X3297383Y-17500436D02*
X3287859Y-17509960D01*
X3287859Y-17509960D02*
X3268812Y-17519484D01*
X3268812Y-17519484D02*
X3249764Y-17519484D01*
X3249764Y-17519484D02*
X3230716Y-17509960D01*
X3230716Y-17509960D02*
X3221192Y-17500436D01*
X3221192Y-17500436D02*
X3211669Y-17481389D01*
X3211669Y-17481389D02*
X3202145Y-17443293D01*
X3202145Y-17443293D02*
X3202145Y-17395674D01*
X3202145Y-17395674D02*
X3211669Y-17357579D01*
X3211669Y-17357579D02*
X3221192Y-17338531D01*
X3221192Y-17338531D02*
X3230716Y-17329008D01*
X3230716Y-17329008D02*
X3249764Y-17319484D01*
X3402145Y-17500436D02*
X3411669Y-17509960D01*
X3411669Y-17509960D02*
X3402145Y-17519484D01*
X3402145Y-17519484D02*
X3392621Y-17509960D01*
X3392621Y-17509960D02*
X3402145Y-17500436D01*
X3402145Y-17500436D02*
X3402145Y-17519484D01*
X3535478Y-17319484D02*
X3554526Y-17319484D01*
X3554526Y-17319484D02*
X3573573Y-17329008D01*
X3573573Y-17329008D02*
X3583097Y-17338531D01*
X3583097Y-17338531D02*
X3592621Y-17357579D01*
X3592621Y-17357579D02*
X3602145Y-17395674D01*
X3602145Y-17395674D02*
X3602145Y-17443293D01*
X3602145Y-17443293D02*
X3592621Y-17481389D01*
X3592621Y-17481389D02*
X3583097Y-17500436D01*
X3583097Y-17500436D02*
X3573573Y-17509960D01*
X3573573Y-17509960D02*
X3554526Y-17519484D01*
X3554526Y-17519484D02*
X3535478Y-17519484D01*
X3535478Y-17519484D02*
X3516431Y-17509960D01*
X3516431Y-17509960D02*
X3506907Y-17500436D01*
X3506907Y-17500436D02*
X3497383Y-17481389D01*
X3497383Y-17481389D02*
X3487859Y-17443293D01*
X3487859Y-17443293D02*
X3487859Y-17395674D01*
X3487859Y-17395674D02*
X3497383Y-17357579D01*
X3497383Y-17357579D02*
X3506907Y-17338531D01*
X3506907Y-17338531D02*
X3516431Y-17329008D01*
X3516431Y-17329008D02*
X3535478Y-17319484D01*
X3668812Y-17319484D02*
X3792621Y-17319484D01*
X3792621Y-17319484D02*
X3725954Y-17395674D01*
X3725954Y-17395674D02*
X3754526Y-17395674D01*
X3754526Y-17395674D02*
X3773573Y-17405198D01*
X3773573Y-17405198D02*
X3783097Y-17414722D01*
X3783097Y-17414722D02*
X3792621Y-17433770D01*
X3792621Y-17433770D02*
X3792621Y-17481389D01*
X3792621Y-17481389D02*
X3783097Y-17500436D01*
X3783097Y-17500436D02*
X3773573Y-17509960D01*
X3773573Y-17509960D02*
X3754526Y-17519484D01*
X3754526Y-17519484D02*
X3697383Y-17519484D01*
X3697383Y-17519484D02*
X3678335Y-17509960D01*
X3678335Y-17509960D02*
X3668812Y-17500436D01*
X3973573Y-17319484D02*
X3878335Y-17319484D01*
X3878335Y-17319484D02*
X3868812Y-17414722D01*
X3868812Y-17414722D02*
X3878335Y-17405198D01*
X3878335Y-17405198D02*
X3897383Y-17395674D01*
X3897383Y-17395674D02*
X3945002Y-17395674D01*
X3945002Y-17395674D02*
X3964050Y-17405198D01*
X3964050Y-17405198D02*
X3973573Y-17414722D01*
X3973573Y-17414722D02*
X3983097Y-17433770D01*
X3983097Y-17433770D02*
X3983097Y-17481389D01*
X3983097Y-17481389D02*
X3973573Y-17500436D01*
X3973573Y-17500436D02*
X3964050Y-17509960D01*
X3964050Y-17509960D02*
X3945002Y-17519484D01*
X3945002Y-17519484D02*
X3897383Y-17519484D01*
X3897383Y-17519484D02*
X3878335Y-17509960D01*
X3878335Y-17509960D02*
X3868812Y-17500436D01*
X4154526Y-17386150D02*
X4154526Y-17519484D01*
X4106907Y-17309960D02*
X4059288Y-17452817D01*
X4059288Y-17452817D02*
X4183097Y-17452817D01*
X4249764Y-17319484D02*
X4249764Y-17357579D01*
X4325955Y-17319484D02*
X4325955Y-17357579D01*
X4621193Y-17595674D02*
X4611669Y-17586150D01*
X4611669Y-17586150D02*
X4592621Y-17557579D01*
X4592621Y-17557579D02*
X4583097Y-17538531D01*
X4583097Y-17538531D02*
X4573574Y-17509960D01*
X4573574Y-17509960D02*
X4564050Y-17462341D01*
X4564050Y-17462341D02*
X4564050Y-17424246D01*
X4564050Y-17424246D02*
X4573574Y-17376627D01*
X4573574Y-17376627D02*
X4583097Y-17348055D01*
X4583097Y-17348055D02*
X4592621Y-17329008D01*
X4592621Y-17329008D02*
X4611669Y-17300436D01*
X4611669Y-17300436D02*
X4621193Y-17290912D01*
X4678336Y-17319484D02*
X4811669Y-17319484D01*
X4811669Y-17319484D02*
X4725955Y-17519484D01*
X4878336Y-17338531D02*
X4887859Y-17329008D01*
X4887859Y-17329008D02*
X4906907Y-17319484D01*
X4906907Y-17319484D02*
X4954526Y-17319484D01*
X4954526Y-17319484D02*
X4973574Y-17329008D01*
X4973574Y-17329008D02*
X4983097Y-17338531D01*
X4983097Y-17338531D02*
X4992621Y-17357579D01*
X4992621Y-17357579D02*
X4992621Y-17376627D01*
X4992621Y-17376627D02*
X4983097Y-17405198D01*
X4983097Y-17405198D02*
X4868812Y-17519484D01*
X4868812Y-17519484D02*
X4992621Y-17519484D01*
X5230717Y-17519484D02*
X5230717Y-17319484D01*
X5316431Y-17519484D02*
X5316431Y-17414722D01*
X5316431Y-17414722D02*
X5306907Y-17395674D01*
X5306907Y-17395674D02*
X5287859Y-17386150D01*
X5287859Y-17386150D02*
X5259288Y-17386150D01*
X5259288Y-17386150D02*
X5240240Y-17395674D01*
X5240240Y-17395674D02*
X5230717Y-17405198D01*
X5440240Y-17519484D02*
X5421193Y-17509960D01*
X5421193Y-17509960D02*
X5411669Y-17500436D01*
X5411669Y-17500436D02*
X5402145Y-17481389D01*
X5402145Y-17481389D02*
X5402145Y-17424246D01*
X5402145Y-17424246D02*
X5411669Y-17405198D01*
X5411669Y-17405198D02*
X5421193Y-17395674D01*
X5421193Y-17395674D02*
X5440240Y-17386150D01*
X5440240Y-17386150D02*
X5468812Y-17386150D01*
X5468812Y-17386150D02*
X5487859Y-17395674D01*
X5487859Y-17395674D02*
X5497383Y-17405198D01*
X5497383Y-17405198D02*
X5506907Y-17424246D01*
X5506907Y-17424246D02*
X5506907Y-17481389D01*
X5506907Y-17481389D02*
X5497383Y-17500436D01*
X5497383Y-17500436D02*
X5487859Y-17509960D01*
X5487859Y-17509960D02*
X5468812Y-17519484D01*
X5468812Y-17519484D02*
X5440240Y-17519484D01*
X5621193Y-17519484D02*
X5602145Y-17509960D01*
X5602145Y-17509960D02*
X5592621Y-17490912D01*
X5592621Y-17490912D02*
X5592621Y-17319484D01*
X5773574Y-17509960D02*
X5754526Y-17519484D01*
X5754526Y-17519484D02*
X5716431Y-17519484D01*
X5716431Y-17519484D02*
X5697383Y-17509960D01*
X5697383Y-17509960D02*
X5687859Y-17490912D01*
X5687859Y-17490912D02*
X5687859Y-17414722D01*
X5687859Y-17414722D02*
X5697383Y-17395674D01*
X5697383Y-17395674D02*
X5716431Y-17386150D01*
X5716431Y-17386150D02*
X5754526Y-17386150D01*
X5754526Y-17386150D02*
X5773574Y-17395674D01*
X5773574Y-17395674D02*
X5783097Y-17414722D01*
X5783097Y-17414722D02*
X5783097Y-17433770D01*
X5783097Y-17433770D02*
X5687859Y-17452817D01*
X5859288Y-17509960D02*
X5878336Y-17519484D01*
X5878336Y-17519484D02*
X5916431Y-17519484D01*
X5916431Y-17519484D02*
X5935478Y-17509960D01*
X5935478Y-17509960D02*
X5945002Y-17490912D01*
X5945002Y-17490912D02*
X5945002Y-17481389D01*
X5945002Y-17481389D02*
X5935478Y-17462341D01*
X5935478Y-17462341D02*
X5916431Y-17452817D01*
X5916431Y-17452817D02*
X5887859Y-17452817D01*
X5887859Y-17452817D02*
X5868812Y-17443293D01*
X5868812Y-17443293D02*
X5859288Y-17424246D01*
X5859288Y-17424246D02*
X5859288Y-17414722D01*
X5859288Y-17414722D02*
X5868812Y-17395674D01*
X5868812Y-17395674D02*
X5887859Y-17386150D01*
X5887859Y-17386150D02*
X5916431Y-17386150D01*
X5916431Y-17386150D02*
X5935478Y-17395674D01*
X6011669Y-17595674D02*
X6021193Y-17586150D01*
X6021193Y-17586150D02*
X6040240Y-17557579D01*
X6040240Y-17557579D02*
X6049764Y-17538531D01*
X6049764Y-17538531D02*
X6059288Y-17509960D01*
X6059288Y-17509960D02*
X6068812Y-17462341D01*
X6068812Y-17462341D02*
X6068812Y-17424246D01*
X6068812Y-17424246D02*
X6059288Y-17376627D01*
X6059288Y-17376627D02*
X6049764Y-17348055D01*
X6049764Y-17348055D02*
X6040240Y-17329008D01*
X6040240Y-17329008D02*
X6021193Y-17300436D01*
X6021193Y-17300436D02*
X6011669Y-17290912D01*
D11*
X1032218Y-17725588D02*
X1032218Y-17658412D01*
X965042Y-17658412D01*
X965042Y-17725588D01*
X1032218Y-17725588D01*
D10*
X1345002Y-17583484D02*
X1364050Y-17583484D01*
X1364050Y-17583484D02*
X1383097Y-17593008D01*
X1383097Y-17593008D02*
X1392621Y-17602531D01*
X1392621Y-17602531D02*
X1402145Y-17621579D01*
X1402145Y-17621579D02*
X1411668Y-17659674D01*
X1411668Y-17659674D02*
X1411668Y-17707293D01*
X1411668Y-17707293D02*
X1402145Y-17745389D01*
X1402145Y-17745389D02*
X1392621Y-17764436D01*
X1392621Y-17764436D02*
X1383097Y-17773960D01*
X1383097Y-17773960D02*
X1364050Y-17783484D01*
X1364050Y-17783484D02*
X1345002Y-17783484D01*
X1345002Y-17783484D02*
X1325954Y-17773960D01*
X1325954Y-17773960D02*
X1316430Y-17764436D01*
X1316430Y-17764436D02*
X1306907Y-17745389D01*
X1306907Y-17745389D02*
X1297383Y-17707293D01*
X1297383Y-17707293D02*
X1297383Y-17659674D01*
X1297383Y-17659674D02*
X1306907Y-17621579D01*
X1306907Y-17621579D02*
X1316430Y-17602531D01*
X1316430Y-17602531D02*
X1325954Y-17593008D01*
X1325954Y-17593008D02*
X1345002Y-17583484D01*
X1497383Y-17764436D02*
X1506907Y-17773960D01*
X1506907Y-17773960D02*
X1497383Y-17783484D01*
X1497383Y-17783484D02*
X1487859Y-17773960D01*
X1487859Y-17773960D02*
X1497383Y-17764436D01*
X1497383Y-17764436D02*
X1497383Y-17783484D01*
X1602145Y-17783484D02*
X1640240Y-17783484D01*
X1640240Y-17783484D02*
X1659288Y-17773960D01*
X1659288Y-17773960D02*
X1668811Y-17764436D01*
X1668811Y-17764436D02*
X1687859Y-17735865D01*
X1687859Y-17735865D02*
X1697383Y-17697770D01*
X1697383Y-17697770D02*
X1697383Y-17621579D01*
X1697383Y-17621579D02*
X1687859Y-17602531D01*
X1687859Y-17602531D02*
X1678335Y-17593008D01*
X1678335Y-17593008D02*
X1659288Y-17583484D01*
X1659288Y-17583484D02*
X1621192Y-17583484D01*
X1621192Y-17583484D02*
X1602145Y-17593008D01*
X1602145Y-17593008D02*
X1592621Y-17602531D01*
X1592621Y-17602531D02*
X1583097Y-17621579D01*
X1583097Y-17621579D02*
X1583097Y-17669198D01*
X1583097Y-17669198D02*
X1592621Y-17688246D01*
X1592621Y-17688246D02*
X1602145Y-17697770D01*
X1602145Y-17697770D02*
X1621192Y-17707293D01*
X1621192Y-17707293D02*
X1659288Y-17707293D01*
X1659288Y-17707293D02*
X1678335Y-17697770D01*
X1678335Y-17697770D02*
X1687859Y-17688246D01*
X1687859Y-17688246D02*
X1697383Y-17669198D01*
X1878335Y-17583484D02*
X1783097Y-17583484D01*
X1783097Y-17583484D02*
X1773573Y-17678722D01*
X1773573Y-17678722D02*
X1783097Y-17669198D01*
X1783097Y-17669198D02*
X1802145Y-17659674D01*
X1802145Y-17659674D02*
X1849764Y-17659674D01*
X1849764Y-17659674D02*
X1868811Y-17669198D01*
X1868811Y-17669198D02*
X1878335Y-17678722D01*
X1878335Y-17678722D02*
X1887859Y-17697770D01*
X1887859Y-17697770D02*
X1887859Y-17745389D01*
X1887859Y-17745389D02*
X1878335Y-17764436D01*
X1878335Y-17764436D02*
X1868811Y-17773960D01*
X1868811Y-17773960D02*
X1849764Y-17783484D01*
X1849764Y-17783484D02*
X1802145Y-17783484D01*
X1802145Y-17783484D02*
X1783097Y-17773960D01*
X1783097Y-17773960D02*
X1773573Y-17764436D01*
X2011668Y-17583484D02*
X2030716Y-17583484D01*
X2030716Y-17583484D02*
X2049764Y-17593008D01*
X2049764Y-17593008D02*
X2059288Y-17602531D01*
X2059288Y-17602531D02*
X2068811Y-17621579D01*
X2068811Y-17621579D02*
X2078335Y-17659674D01*
X2078335Y-17659674D02*
X2078335Y-17707293D01*
X2078335Y-17707293D02*
X2068811Y-17745389D01*
X2068811Y-17745389D02*
X2059288Y-17764436D01*
X2059288Y-17764436D02*
X2049764Y-17773960D01*
X2049764Y-17773960D02*
X2030716Y-17783484D01*
X2030716Y-17783484D02*
X2011668Y-17783484D01*
X2011668Y-17783484D02*
X1992621Y-17773960D01*
X1992621Y-17773960D02*
X1983097Y-17764436D01*
X1983097Y-17764436D02*
X1973573Y-17745389D01*
X1973573Y-17745389D02*
X1964049Y-17707293D01*
X1964049Y-17707293D02*
X1964049Y-17659674D01*
X1964049Y-17659674D02*
X1973573Y-17621579D01*
X1973573Y-17621579D02*
X1983097Y-17602531D01*
X1983097Y-17602531D02*
X1992621Y-17593008D01*
X1992621Y-17593008D02*
X2011668Y-17583484D01*
X2164050Y-17783484D02*
X2164050Y-17650150D01*
X2164050Y-17669198D02*
X2173573Y-17659674D01*
X2173573Y-17659674D02*
X2192621Y-17650150D01*
X2192621Y-17650150D02*
X2221192Y-17650150D01*
X2221192Y-17650150D02*
X2240240Y-17659674D01*
X2240240Y-17659674D02*
X2249764Y-17678722D01*
X2249764Y-17678722D02*
X2249764Y-17783484D01*
X2249764Y-17678722D02*
X2259288Y-17659674D01*
X2259288Y-17659674D02*
X2278335Y-17650150D01*
X2278335Y-17650150D02*
X2306907Y-17650150D01*
X2306907Y-17650150D02*
X2325954Y-17659674D01*
X2325954Y-17659674D02*
X2335478Y-17678722D01*
X2335478Y-17678722D02*
X2335478Y-17783484D01*
X2430716Y-17783484D02*
X2430716Y-17650150D01*
X2430716Y-17669198D02*
X2440240Y-17659674D01*
X2440240Y-17659674D02*
X2459288Y-17650150D01*
X2459288Y-17650150D02*
X2487859Y-17650150D01*
X2487859Y-17650150D02*
X2506907Y-17659674D01*
X2506907Y-17659674D02*
X2516431Y-17678722D01*
X2516431Y-17678722D02*
X2516431Y-17783484D01*
X2516431Y-17678722D02*
X2525954Y-17659674D01*
X2525954Y-17659674D02*
X2545002Y-17650150D01*
X2545002Y-17650150D02*
X2573573Y-17650150D01*
X2573573Y-17650150D02*
X2592621Y-17659674D01*
X2592621Y-17659674D02*
X2602145Y-17678722D01*
X2602145Y-17678722D02*
X2602145Y-17783484D01*
X2992621Y-17573960D02*
X2821192Y-17831103D01*
X3249764Y-17583484D02*
X3268812Y-17583484D01*
X3268812Y-17583484D02*
X3287859Y-17593008D01*
X3287859Y-17593008D02*
X3297383Y-17602531D01*
X3297383Y-17602531D02*
X3306907Y-17621579D01*
X3306907Y-17621579D02*
X3316431Y-17659674D01*
X3316431Y-17659674D02*
X3316431Y-17707293D01*
X3316431Y-17707293D02*
X3306907Y-17745389D01*
X3306907Y-17745389D02*
X3297383Y-17764436D01*
X3297383Y-17764436D02*
X3287859Y-17773960D01*
X3287859Y-17773960D02*
X3268812Y-17783484D01*
X3268812Y-17783484D02*
X3249764Y-17783484D01*
X3249764Y-17783484D02*
X3230716Y-17773960D01*
X3230716Y-17773960D02*
X3221192Y-17764436D01*
X3221192Y-17764436D02*
X3211669Y-17745389D01*
X3211669Y-17745389D02*
X3202145Y-17707293D01*
X3202145Y-17707293D02*
X3202145Y-17659674D01*
X3202145Y-17659674D02*
X3211669Y-17621579D01*
X3211669Y-17621579D02*
X3221192Y-17602531D01*
X3221192Y-17602531D02*
X3230716Y-17593008D01*
X3230716Y-17593008D02*
X3249764Y-17583484D01*
X3402145Y-17764436D02*
X3411669Y-17773960D01*
X3411669Y-17773960D02*
X3402145Y-17783484D01*
X3402145Y-17783484D02*
X3392621Y-17773960D01*
X3392621Y-17773960D02*
X3402145Y-17764436D01*
X3402145Y-17764436D02*
X3402145Y-17783484D01*
X3535478Y-17583484D02*
X3554526Y-17583484D01*
X3554526Y-17583484D02*
X3573573Y-17593008D01*
X3573573Y-17593008D02*
X3583097Y-17602531D01*
X3583097Y-17602531D02*
X3592621Y-17621579D01*
X3592621Y-17621579D02*
X3602145Y-17659674D01*
X3602145Y-17659674D02*
X3602145Y-17707293D01*
X3602145Y-17707293D02*
X3592621Y-17745389D01*
X3592621Y-17745389D02*
X3583097Y-17764436D01*
X3583097Y-17764436D02*
X3573573Y-17773960D01*
X3573573Y-17773960D02*
X3554526Y-17783484D01*
X3554526Y-17783484D02*
X3535478Y-17783484D01*
X3535478Y-17783484D02*
X3516431Y-17773960D01*
X3516431Y-17773960D02*
X3506907Y-17764436D01*
X3506907Y-17764436D02*
X3497383Y-17745389D01*
X3497383Y-17745389D02*
X3487859Y-17707293D01*
X3487859Y-17707293D02*
X3487859Y-17659674D01*
X3487859Y-17659674D02*
X3497383Y-17621579D01*
X3497383Y-17621579D02*
X3506907Y-17602531D01*
X3506907Y-17602531D02*
X3516431Y-17593008D01*
X3516431Y-17593008D02*
X3535478Y-17583484D01*
X3668812Y-17583484D02*
X3792621Y-17583484D01*
X3792621Y-17583484D02*
X3725954Y-17659674D01*
X3725954Y-17659674D02*
X3754526Y-17659674D01*
X3754526Y-17659674D02*
X3773573Y-17669198D01*
X3773573Y-17669198D02*
X3783097Y-17678722D01*
X3783097Y-17678722D02*
X3792621Y-17697770D01*
X3792621Y-17697770D02*
X3792621Y-17745389D01*
X3792621Y-17745389D02*
X3783097Y-17764436D01*
X3783097Y-17764436D02*
X3773573Y-17773960D01*
X3773573Y-17773960D02*
X3754526Y-17783484D01*
X3754526Y-17783484D02*
X3697383Y-17783484D01*
X3697383Y-17783484D02*
X3678335Y-17773960D01*
X3678335Y-17773960D02*
X3668812Y-17764436D01*
X3859288Y-17583484D02*
X3992621Y-17583484D01*
X3992621Y-17583484D02*
X3906907Y-17783484D01*
X4154526Y-17650150D02*
X4154526Y-17783484D01*
X4106907Y-17573960D02*
X4059288Y-17716817D01*
X4059288Y-17716817D02*
X4183097Y-17716817D01*
X4249764Y-17583484D02*
X4249764Y-17621579D01*
X4325955Y-17583484D02*
X4325955Y-17621579D01*
X4621193Y-17859674D02*
X4611669Y-17850150D01*
X4611669Y-17850150D02*
X4592621Y-17821579D01*
X4592621Y-17821579D02*
X4583097Y-17802531D01*
X4583097Y-17802531D02*
X4573574Y-17773960D01*
X4573574Y-17773960D02*
X4564050Y-17726341D01*
X4564050Y-17726341D02*
X4564050Y-17688246D01*
X4564050Y-17688246D02*
X4573574Y-17640627D01*
X4573574Y-17640627D02*
X4583097Y-17612055D01*
X4583097Y-17612055D02*
X4592621Y-17593008D01*
X4592621Y-17593008D02*
X4611669Y-17564436D01*
X4611669Y-17564436D02*
X4621193Y-17554912D01*
X4678336Y-17583484D02*
X4802145Y-17583484D01*
X4802145Y-17583484D02*
X4735478Y-17659674D01*
X4735478Y-17659674D02*
X4764050Y-17659674D01*
X4764050Y-17659674D02*
X4783097Y-17669198D01*
X4783097Y-17669198D02*
X4792621Y-17678722D01*
X4792621Y-17678722D02*
X4802145Y-17697770D01*
X4802145Y-17697770D02*
X4802145Y-17745389D01*
X4802145Y-17745389D02*
X4792621Y-17764436D01*
X4792621Y-17764436D02*
X4783097Y-17773960D01*
X4783097Y-17773960D02*
X4764050Y-17783484D01*
X4764050Y-17783484D02*
X4706907Y-17783484D01*
X4706907Y-17783484D02*
X4687859Y-17773960D01*
X4687859Y-17773960D02*
X4678336Y-17764436D01*
X5040240Y-17783484D02*
X5040240Y-17583484D01*
X5125955Y-17783484D02*
X5125955Y-17678722D01*
X5125955Y-17678722D02*
X5116431Y-17659674D01*
X5116431Y-17659674D02*
X5097383Y-17650150D01*
X5097383Y-17650150D02*
X5068812Y-17650150D01*
X5068812Y-17650150D02*
X5049764Y-17659674D01*
X5049764Y-17659674D02*
X5040240Y-17669198D01*
X5249764Y-17783484D02*
X5230717Y-17773960D01*
X5230717Y-17773960D02*
X5221193Y-17764436D01*
X5221193Y-17764436D02*
X5211669Y-17745389D01*
X5211669Y-17745389D02*
X5211669Y-17688246D01*
X5211669Y-17688246D02*
X5221193Y-17669198D01*
X5221193Y-17669198D02*
X5230717Y-17659674D01*
X5230717Y-17659674D02*
X5249764Y-17650150D01*
X5249764Y-17650150D02*
X5278336Y-17650150D01*
X5278336Y-17650150D02*
X5297383Y-17659674D01*
X5297383Y-17659674D02*
X5306907Y-17669198D01*
X5306907Y-17669198D02*
X5316431Y-17688246D01*
X5316431Y-17688246D02*
X5316431Y-17745389D01*
X5316431Y-17745389D02*
X5306907Y-17764436D01*
X5306907Y-17764436D02*
X5297383Y-17773960D01*
X5297383Y-17773960D02*
X5278336Y-17783484D01*
X5278336Y-17783484D02*
X5249764Y-17783484D01*
X5430717Y-17783484D02*
X5411669Y-17773960D01*
X5411669Y-17773960D02*
X5402145Y-17754912D01*
X5402145Y-17754912D02*
X5402145Y-17583484D01*
X5583098Y-17773960D02*
X5564050Y-17783484D01*
X5564050Y-17783484D02*
X5525955Y-17783484D01*
X5525955Y-17783484D02*
X5506907Y-17773960D01*
X5506907Y-17773960D02*
X5497383Y-17754912D01*
X5497383Y-17754912D02*
X5497383Y-17678722D01*
X5497383Y-17678722D02*
X5506907Y-17659674D01*
X5506907Y-17659674D02*
X5525955Y-17650150D01*
X5525955Y-17650150D02*
X5564050Y-17650150D01*
X5564050Y-17650150D02*
X5583098Y-17659674D01*
X5583098Y-17659674D02*
X5592621Y-17678722D01*
X5592621Y-17678722D02*
X5592621Y-17697770D01*
X5592621Y-17697770D02*
X5497383Y-17716817D01*
X5668812Y-17773960D02*
X5687859Y-17783484D01*
X5687859Y-17783484D02*
X5725955Y-17783484D01*
X5725955Y-17783484D02*
X5745002Y-17773960D01*
X5745002Y-17773960D02*
X5754526Y-17754912D01*
X5754526Y-17754912D02*
X5754526Y-17745389D01*
X5754526Y-17745389D02*
X5745002Y-17726341D01*
X5745002Y-17726341D02*
X5725955Y-17716817D01*
X5725955Y-17716817D02*
X5697383Y-17716817D01*
X5697383Y-17716817D02*
X5678336Y-17707293D01*
X5678336Y-17707293D02*
X5668812Y-17688246D01*
X5668812Y-17688246D02*
X5668812Y-17678722D01*
X5668812Y-17678722D02*
X5678336Y-17659674D01*
X5678336Y-17659674D02*
X5697383Y-17650150D01*
X5697383Y-17650150D02*
X5725955Y-17650150D01*
X5725955Y-17650150D02*
X5745002Y-17659674D01*
X5821193Y-17859674D02*
X5830717Y-17850150D01*
X5830717Y-17850150D02*
X5849764Y-17821579D01*
X5849764Y-17821579D02*
X5859288Y-17802531D01*
X5859288Y-17802531D02*
X5868812Y-17773960D01*
X5868812Y-17773960D02*
X5878336Y-17726341D01*
X5878336Y-17726341D02*
X5878336Y-17688246D01*
X5878336Y-17688246D02*
X5868812Y-17640627D01*
X5868812Y-17640627D02*
X5859288Y-17612055D01*
X5859288Y-17612055D02*
X5849764Y-17593008D01*
X5849764Y-17593008D02*
X5830717Y-17564436D01*
X5830717Y-17564436D02*
X5821193Y-17554912D01*
D11*
X996130Y-18006000D02*
X1046130Y-17956000D01*
X996130Y-17906000D01*
X946130Y-17956000D01*
X996130Y-18006000D01*
D10*
X1411668Y-18047484D02*
X1297383Y-18047484D01*
X1354526Y-18047484D02*
X1354526Y-17847484D01*
X1354526Y-17847484D02*
X1335478Y-17876055D01*
X1335478Y-17876055D02*
X1316430Y-17895103D01*
X1316430Y-17895103D02*
X1297383Y-17904627D01*
X1497383Y-18028436D02*
X1506907Y-18037960D01*
X1506907Y-18037960D02*
X1497383Y-18047484D01*
X1497383Y-18047484D02*
X1487859Y-18037960D01*
X1487859Y-18037960D02*
X1497383Y-18028436D01*
X1497383Y-18028436D02*
X1497383Y-18047484D01*
X1630716Y-17847484D02*
X1649764Y-17847484D01*
X1649764Y-17847484D02*
X1668811Y-17857008D01*
X1668811Y-17857008D02*
X1678335Y-17866531D01*
X1678335Y-17866531D02*
X1687859Y-17885579D01*
X1687859Y-17885579D02*
X1697383Y-17923674D01*
X1697383Y-17923674D02*
X1697383Y-17971293D01*
X1697383Y-17971293D02*
X1687859Y-18009389D01*
X1687859Y-18009389D02*
X1678335Y-18028436D01*
X1678335Y-18028436D02*
X1668811Y-18037960D01*
X1668811Y-18037960D02*
X1649764Y-18047484D01*
X1649764Y-18047484D02*
X1630716Y-18047484D01*
X1630716Y-18047484D02*
X1611668Y-18037960D01*
X1611668Y-18037960D02*
X1602145Y-18028436D01*
X1602145Y-18028436D02*
X1592621Y-18009389D01*
X1592621Y-18009389D02*
X1583097Y-17971293D01*
X1583097Y-17971293D02*
X1583097Y-17923674D01*
X1583097Y-17923674D02*
X1592621Y-17885579D01*
X1592621Y-17885579D02*
X1602145Y-17866531D01*
X1602145Y-17866531D02*
X1611668Y-17857008D01*
X1611668Y-17857008D02*
X1630716Y-17847484D01*
X1821192Y-17847484D02*
X1840240Y-17847484D01*
X1840240Y-17847484D02*
X1859288Y-17857008D01*
X1859288Y-17857008D02*
X1868811Y-17866531D01*
X1868811Y-17866531D02*
X1878335Y-17885579D01*
X1878335Y-17885579D02*
X1887859Y-17923674D01*
X1887859Y-17923674D02*
X1887859Y-17971293D01*
X1887859Y-17971293D02*
X1878335Y-18009389D01*
X1878335Y-18009389D02*
X1868811Y-18028436D01*
X1868811Y-18028436D02*
X1859288Y-18037960D01*
X1859288Y-18037960D02*
X1840240Y-18047484D01*
X1840240Y-18047484D02*
X1821192Y-18047484D01*
X1821192Y-18047484D02*
X1802145Y-18037960D01*
X1802145Y-18037960D02*
X1792621Y-18028436D01*
X1792621Y-18028436D02*
X1783097Y-18009389D01*
X1783097Y-18009389D02*
X1773573Y-17971293D01*
X1773573Y-17971293D02*
X1773573Y-17923674D01*
X1773573Y-17923674D02*
X1783097Y-17885579D01*
X1783097Y-17885579D02*
X1792621Y-17866531D01*
X1792621Y-17866531D02*
X1802145Y-17857008D01*
X1802145Y-17857008D02*
X1821192Y-17847484D01*
X2011668Y-17847484D02*
X2030716Y-17847484D01*
X2030716Y-17847484D02*
X2049764Y-17857008D01*
X2049764Y-17857008D02*
X2059288Y-17866531D01*
X2059288Y-17866531D02*
X2068811Y-17885579D01*
X2068811Y-17885579D02*
X2078335Y-17923674D01*
X2078335Y-17923674D02*
X2078335Y-17971293D01*
X2078335Y-17971293D02*
X2068811Y-18009389D01*
X2068811Y-18009389D02*
X2059288Y-18028436D01*
X2059288Y-18028436D02*
X2049764Y-18037960D01*
X2049764Y-18037960D02*
X2030716Y-18047484D01*
X2030716Y-18047484D02*
X2011668Y-18047484D01*
X2011668Y-18047484D02*
X1992621Y-18037960D01*
X1992621Y-18037960D02*
X1983097Y-18028436D01*
X1983097Y-18028436D02*
X1973573Y-18009389D01*
X1973573Y-18009389D02*
X1964049Y-17971293D01*
X1964049Y-17971293D02*
X1964049Y-17923674D01*
X1964049Y-17923674D02*
X1973573Y-17885579D01*
X1973573Y-17885579D02*
X1983097Y-17866531D01*
X1983097Y-17866531D02*
X1992621Y-17857008D01*
X1992621Y-17857008D02*
X2011668Y-17847484D01*
X2164050Y-18047484D02*
X2164050Y-17914150D01*
X2164050Y-17933198D02*
X2173573Y-17923674D01*
X2173573Y-17923674D02*
X2192621Y-17914150D01*
X2192621Y-17914150D02*
X2221192Y-17914150D01*
X2221192Y-17914150D02*
X2240240Y-17923674D01*
X2240240Y-17923674D02*
X2249764Y-17942722D01*
X2249764Y-17942722D02*
X2249764Y-18047484D01*
X2249764Y-17942722D02*
X2259288Y-17923674D01*
X2259288Y-17923674D02*
X2278335Y-17914150D01*
X2278335Y-17914150D02*
X2306907Y-17914150D01*
X2306907Y-17914150D02*
X2325954Y-17923674D01*
X2325954Y-17923674D02*
X2335478Y-17942722D01*
X2335478Y-17942722D02*
X2335478Y-18047484D01*
X2430716Y-18047484D02*
X2430716Y-17914150D01*
X2430716Y-17933198D02*
X2440240Y-17923674D01*
X2440240Y-17923674D02*
X2459288Y-17914150D01*
X2459288Y-17914150D02*
X2487859Y-17914150D01*
X2487859Y-17914150D02*
X2506907Y-17923674D01*
X2506907Y-17923674D02*
X2516431Y-17942722D01*
X2516431Y-17942722D02*
X2516431Y-18047484D01*
X2516431Y-17942722D02*
X2525954Y-17923674D01*
X2525954Y-17923674D02*
X2545002Y-17914150D01*
X2545002Y-17914150D02*
X2573573Y-17914150D01*
X2573573Y-17914150D02*
X2592621Y-17923674D01*
X2592621Y-17923674D02*
X2602145Y-17942722D01*
X2602145Y-17942722D02*
X2602145Y-18047484D01*
X2992621Y-17837960D02*
X2821192Y-18095103D01*
X3249764Y-17847484D02*
X3268812Y-17847484D01*
X3268812Y-17847484D02*
X3287859Y-17857008D01*
X3287859Y-17857008D02*
X3297383Y-17866531D01*
X3297383Y-17866531D02*
X3306907Y-17885579D01*
X3306907Y-17885579D02*
X3316431Y-17923674D01*
X3316431Y-17923674D02*
X3316431Y-17971293D01*
X3316431Y-17971293D02*
X3306907Y-18009389D01*
X3306907Y-18009389D02*
X3297383Y-18028436D01*
X3297383Y-18028436D02*
X3287859Y-18037960D01*
X3287859Y-18037960D02*
X3268812Y-18047484D01*
X3268812Y-18047484D02*
X3249764Y-18047484D01*
X3249764Y-18047484D02*
X3230716Y-18037960D01*
X3230716Y-18037960D02*
X3221192Y-18028436D01*
X3221192Y-18028436D02*
X3211669Y-18009389D01*
X3211669Y-18009389D02*
X3202145Y-17971293D01*
X3202145Y-17971293D02*
X3202145Y-17923674D01*
X3202145Y-17923674D02*
X3211669Y-17885579D01*
X3211669Y-17885579D02*
X3221192Y-17866531D01*
X3221192Y-17866531D02*
X3230716Y-17857008D01*
X3230716Y-17857008D02*
X3249764Y-17847484D01*
X3402145Y-18028436D02*
X3411669Y-18037960D01*
X3411669Y-18037960D02*
X3402145Y-18047484D01*
X3402145Y-18047484D02*
X3392621Y-18037960D01*
X3392621Y-18037960D02*
X3402145Y-18028436D01*
X3402145Y-18028436D02*
X3402145Y-18047484D01*
X3535478Y-17847484D02*
X3554526Y-17847484D01*
X3554526Y-17847484D02*
X3573573Y-17857008D01*
X3573573Y-17857008D02*
X3583097Y-17866531D01*
X3583097Y-17866531D02*
X3592621Y-17885579D01*
X3592621Y-17885579D02*
X3602145Y-17923674D01*
X3602145Y-17923674D02*
X3602145Y-17971293D01*
X3602145Y-17971293D02*
X3592621Y-18009389D01*
X3592621Y-18009389D02*
X3583097Y-18028436D01*
X3583097Y-18028436D02*
X3573573Y-18037960D01*
X3573573Y-18037960D02*
X3554526Y-18047484D01*
X3554526Y-18047484D02*
X3535478Y-18047484D01*
X3535478Y-18047484D02*
X3516431Y-18037960D01*
X3516431Y-18037960D02*
X3506907Y-18028436D01*
X3506907Y-18028436D02*
X3497383Y-18009389D01*
X3497383Y-18009389D02*
X3487859Y-17971293D01*
X3487859Y-17971293D02*
X3487859Y-17923674D01*
X3487859Y-17923674D02*
X3497383Y-17885579D01*
X3497383Y-17885579D02*
X3506907Y-17866531D01*
X3506907Y-17866531D02*
X3516431Y-17857008D01*
X3516431Y-17857008D02*
X3535478Y-17847484D01*
X3668812Y-17847484D02*
X3792621Y-17847484D01*
X3792621Y-17847484D02*
X3725954Y-17923674D01*
X3725954Y-17923674D02*
X3754526Y-17923674D01*
X3754526Y-17923674D02*
X3773573Y-17933198D01*
X3773573Y-17933198D02*
X3783097Y-17942722D01*
X3783097Y-17942722D02*
X3792621Y-17961770D01*
X3792621Y-17961770D02*
X3792621Y-18009389D01*
X3792621Y-18009389D02*
X3783097Y-18028436D01*
X3783097Y-18028436D02*
X3773573Y-18037960D01*
X3773573Y-18037960D02*
X3754526Y-18047484D01*
X3754526Y-18047484D02*
X3697383Y-18047484D01*
X3697383Y-18047484D02*
X3678335Y-18037960D01*
X3678335Y-18037960D02*
X3668812Y-18028436D01*
X3887859Y-18047484D02*
X3925954Y-18047484D01*
X3925954Y-18047484D02*
X3945002Y-18037960D01*
X3945002Y-18037960D02*
X3954526Y-18028436D01*
X3954526Y-18028436D02*
X3973573Y-17999865D01*
X3973573Y-17999865D02*
X3983097Y-17961770D01*
X3983097Y-17961770D02*
X3983097Y-17885579D01*
X3983097Y-17885579D02*
X3973573Y-17866531D01*
X3973573Y-17866531D02*
X3964050Y-17857008D01*
X3964050Y-17857008D02*
X3945002Y-17847484D01*
X3945002Y-17847484D02*
X3906907Y-17847484D01*
X3906907Y-17847484D02*
X3887859Y-17857008D01*
X3887859Y-17857008D02*
X3878335Y-17866531D01*
X3878335Y-17866531D02*
X3868812Y-17885579D01*
X3868812Y-17885579D02*
X3868812Y-17933198D01*
X3868812Y-17933198D02*
X3878335Y-17952246D01*
X3878335Y-17952246D02*
X3887859Y-17961770D01*
X3887859Y-17961770D02*
X3906907Y-17971293D01*
X3906907Y-17971293D02*
X3945002Y-17971293D01*
X3945002Y-17971293D02*
X3964050Y-17961770D01*
X3964050Y-17961770D02*
X3973573Y-17952246D01*
X3973573Y-17952246D02*
X3983097Y-17933198D01*
X4154526Y-17914150D02*
X4154526Y-18047484D01*
X4106907Y-17837960D02*
X4059288Y-17980817D01*
X4059288Y-17980817D02*
X4183097Y-17980817D01*
X4249764Y-17847484D02*
X4249764Y-17885579D01*
X4325955Y-17847484D02*
X4325955Y-17885579D01*
X4621193Y-18123674D02*
X4611669Y-18114150D01*
X4611669Y-18114150D02*
X4592621Y-18085579D01*
X4592621Y-18085579D02*
X4583097Y-18066531D01*
X4583097Y-18066531D02*
X4573574Y-18037960D01*
X4573574Y-18037960D02*
X4564050Y-17990341D01*
X4564050Y-17990341D02*
X4564050Y-17952246D01*
X4564050Y-17952246D02*
X4573574Y-17904627D01*
X4573574Y-17904627D02*
X4583097Y-17876055D01*
X4583097Y-17876055D02*
X4592621Y-17857008D01*
X4592621Y-17857008D02*
X4611669Y-17828436D01*
X4611669Y-17828436D02*
X4621193Y-17818912D01*
X4783097Y-17914150D02*
X4783097Y-18047484D01*
X4735478Y-17837960D02*
X4687859Y-17980817D01*
X4687859Y-17980817D02*
X4811669Y-17980817D01*
X4983097Y-17847484D02*
X4887859Y-17847484D01*
X4887859Y-17847484D02*
X4878336Y-17942722D01*
X4878336Y-17942722D02*
X4887859Y-17933198D01*
X4887859Y-17933198D02*
X4906907Y-17923674D01*
X4906907Y-17923674D02*
X4954526Y-17923674D01*
X4954526Y-17923674D02*
X4973574Y-17933198D01*
X4973574Y-17933198D02*
X4983097Y-17942722D01*
X4983097Y-17942722D02*
X4992621Y-17961770D01*
X4992621Y-17961770D02*
X4992621Y-18009389D01*
X4992621Y-18009389D02*
X4983097Y-18028436D01*
X4983097Y-18028436D02*
X4973574Y-18037960D01*
X4973574Y-18037960D02*
X4954526Y-18047484D01*
X4954526Y-18047484D02*
X4906907Y-18047484D01*
X4906907Y-18047484D02*
X4887859Y-18037960D01*
X4887859Y-18037960D02*
X4878336Y-18028436D01*
X5230717Y-18047484D02*
X5230717Y-17847484D01*
X5316431Y-18047484D02*
X5316431Y-17942722D01*
X5316431Y-17942722D02*
X5306907Y-17923674D01*
X5306907Y-17923674D02*
X5287859Y-17914150D01*
X5287859Y-17914150D02*
X5259288Y-17914150D01*
X5259288Y-17914150D02*
X5240240Y-17923674D01*
X5240240Y-17923674D02*
X5230717Y-17933198D01*
X5440240Y-18047484D02*
X5421193Y-18037960D01*
X5421193Y-18037960D02*
X5411669Y-18028436D01*
X5411669Y-18028436D02*
X5402145Y-18009389D01*
X5402145Y-18009389D02*
X5402145Y-17952246D01*
X5402145Y-17952246D02*
X5411669Y-17933198D01*
X5411669Y-17933198D02*
X5421193Y-17923674D01*
X5421193Y-17923674D02*
X5440240Y-17914150D01*
X5440240Y-17914150D02*
X5468812Y-17914150D01*
X5468812Y-17914150D02*
X5487859Y-17923674D01*
X5487859Y-17923674D02*
X5497383Y-17933198D01*
X5497383Y-17933198D02*
X5506907Y-17952246D01*
X5506907Y-17952246D02*
X5506907Y-18009389D01*
X5506907Y-18009389D02*
X5497383Y-18028436D01*
X5497383Y-18028436D02*
X5487859Y-18037960D01*
X5487859Y-18037960D02*
X5468812Y-18047484D01*
X5468812Y-18047484D02*
X5440240Y-18047484D01*
X5621193Y-18047484D02*
X5602145Y-18037960D01*
X5602145Y-18037960D02*
X5592621Y-18018912D01*
X5592621Y-18018912D02*
X5592621Y-17847484D01*
X5773574Y-18037960D02*
X5754526Y-18047484D01*
X5754526Y-18047484D02*
X5716431Y-18047484D01*
X5716431Y-18047484D02*
X5697383Y-18037960D01*
X5697383Y-18037960D02*
X5687859Y-18018912D01*
X5687859Y-18018912D02*
X5687859Y-17942722D01*
X5687859Y-17942722D02*
X5697383Y-17923674D01*
X5697383Y-17923674D02*
X5716431Y-17914150D01*
X5716431Y-17914150D02*
X5754526Y-17914150D01*
X5754526Y-17914150D02*
X5773574Y-17923674D01*
X5773574Y-17923674D02*
X5783097Y-17942722D01*
X5783097Y-17942722D02*
X5783097Y-17961770D01*
X5783097Y-17961770D02*
X5687859Y-17980817D01*
X5859288Y-18037960D02*
X5878336Y-18047484D01*
X5878336Y-18047484D02*
X5916431Y-18047484D01*
X5916431Y-18047484D02*
X5935478Y-18037960D01*
X5935478Y-18037960D02*
X5945002Y-18018912D01*
X5945002Y-18018912D02*
X5945002Y-18009389D01*
X5945002Y-18009389D02*
X5935478Y-17990341D01*
X5935478Y-17990341D02*
X5916431Y-17980817D01*
X5916431Y-17980817D02*
X5887859Y-17980817D01*
X5887859Y-17980817D02*
X5868812Y-17971293D01*
X5868812Y-17971293D02*
X5859288Y-17952246D01*
X5859288Y-17952246D02*
X5859288Y-17942722D01*
X5859288Y-17942722D02*
X5868812Y-17923674D01*
X5868812Y-17923674D02*
X5887859Y-17914150D01*
X5887859Y-17914150D02*
X5916431Y-17914150D01*
X5916431Y-17914150D02*
X5935478Y-17923674D01*
X6011669Y-18123674D02*
X6021193Y-18114150D01*
X6021193Y-18114150D02*
X6040240Y-18085579D01*
X6040240Y-18085579D02*
X6049764Y-18066531D01*
X6049764Y-18066531D02*
X6059288Y-18037960D01*
X6059288Y-18037960D02*
X6068812Y-17990341D01*
X6068812Y-17990341D02*
X6068812Y-17952246D01*
X6068812Y-17952246D02*
X6059288Y-17904627D01*
X6059288Y-17904627D02*
X6049764Y-17876055D01*
X6049764Y-17876055D02*
X6040240Y-17857008D01*
X6040240Y-17857008D02*
X6021193Y-17828436D01*
X6021193Y-17828436D02*
X6011669Y-17818912D01*
D12*
X944530Y-18169200D02*
X1046130Y-18270800D01*
X1046130Y-18169200D02*
X944530Y-18270800D01*
X1046130Y-18220000D02*
G75*
G03*
X1046130Y-18220000I-50800J0D01*
G01*
D10*
X1411668Y-18311484D02*
X1297383Y-18311484D01*
X1354526Y-18311484D02*
X1354526Y-18111484D01*
X1354526Y-18111484D02*
X1335478Y-18140055D01*
X1335478Y-18140055D02*
X1316430Y-18159103D01*
X1316430Y-18159103D02*
X1297383Y-18168627D01*
X1497383Y-18292436D02*
X1506907Y-18301960D01*
X1506907Y-18301960D02*
X1497383Y-18311484D01*
X1497383Y-18311484D02*
X1487859Y-18301960D01*
X1487859Y-18301960D02*
X1497383Y-18292436D01*
X1497383Y-18292436D02*
X1497383Y-18311484D01*
X1630716Y-18111484D02*
X1649764Y-18111484D01*
X1649764Y-18111484D02*
X1668811Y-18121008D01*
X1668811Y-18121008D02*
X1678335Y-18130531D01*
X1678335Y-18130531D02*
X1687859Y-18149579D01*
X1687859Y-18149579D02*
X1697383Y-18187674D01*
X1697383Y-18187674D02*
X1697383Y-18235293D01*
X1697383Y-18235293D02*
X1687859Y-18273389D01*
X1687859Y-18273389D02*
X1678335Y-18292436D01*
X1678335Y-18292436D02*
X1668811Y-18301960D01*
X1668811Y-18301960D02*
X1649764Y-18311484D01*
X1649764Y-18311484D02*
X1630716Y-18311484D01*
X1630716Y-18311484D02*
X1611668Y-18301960D01*
X1611668Y-18301960D02*
X1602145Y-18292436D01*
X1602145Y-18292436D02*
X1592621Y-18273389D01*
X1592621Y-18273389D02*
X1583097Y-18235293D01*
X1583097Y-18235293D02*
X1583097Y-18187674D01*
X1583097Y-18187674D02*
X1592621Y-18149579D01*
X1592621Y-18149579D02*
X1602145Y-18130531D01*
X1602145Y-18130531D02*
X1611668Y-18121008D01*
X1611668Y-18121008D02*
X1630716Y-18111484D01*
X1887859Y-18311484D02*
X1773573Y-18311484D01*
X1830716Y-18311484D02*
X1830716Y-18111484D01*
X1830716Y-18111484D02*
X1811668Y-18140055D01*
X1811668Y-18140055D02*
X1792621Y-18159103D01*
X1792621Y-18159103D02*
X1773573Y-18168627D01*
X2059288Y-18111484D02*
X2021192Y-18111484D01*
X2021192Y-18111484D02*
X2002145Y-18121008D01*
X2002145Y-18121008D02*
X1992621Y-18130531D01*
X1992621Y-18130531D02*
X1973573Y-18159103D01*
X1973573Y-18159103D02*
X1964049Y-18197198D01*
X1964049Y-18197198D02*
X1964049Y-18273389D01*
X1964049Y-18273389D02*
X1973573Y-18292436D01*
X1973573Y-18292436D02*
X1983097Y-18301960D01*
X1983097Y-18301960D02*
X2002145Y-18311484D01*
X2002145Y-18311484D02*
X2040240Y-18311484D01*
X2040240Y-18311484D02*
X2059288Y-18301960D01*
X2059288Y-18301960D02*
X2068811Y-18292436D01*
X2068811Y-18292436D02*
X2078335Y-18273389D01*
X2078335Y-18273389D02*
X2078335Y-18225770D01*
X2078335Y-18225770D02*
X2068811Y-18206722D01*
X2068811Y-18206722D02*
X2059288Y-18197198D01*
X2059288Y-18197198D02*
X2040240Y-18187674D01*
X2040240Y-18187674D02*
X2002145Y-18187674D01*
X2002145Y-18187674D02*
X1983097Y-18197198D01*
X1983097Y-18197198D02*
X1973573Y-18206722D01*
X1973573Y-18206722D02*
X1964049Y-18225770D01*
X2164050Y-18311484D02*
X2164050Y-18178150D01*
X2164050Y-18197198D02*
X2173573Y-18187674D01*
X2173573Y-18187674D02*
X2192621Y-18178150D01*
X2192621Y-18178150D02*
X2221192Y-18178150D01*
X2221192Y-18178150D02*
X2240240Y-18187674D01*
X2240240Y-18187674D02*
X2249764Y-18206722D01*
X2249764Y-18206722D02*
X2249764Y-18311484D01*
X2249764Y-18206722D02*
X2259288Y-18187674D01*
X2259288Y-18187674D02*
X2278335Y-18178150D01*
X2278335Y-18178150D02*
X2306907Y-18178150D01*
X2306907Y-18178150D02*
X2325954Y-18187674D01*
X2325954Y-18187674D02*
X2335478Y-18206722D01*
X2335478Y-18206722D02*
X2335478Y-18311484D01*
X2430716Y-18311484D02*
X2430716Y-18178150D01*
X2430716Y-18197198D02*
X2440240Y-18187674D01*
X2440240Y-18187674D02*
X2459288Y-18178150D01*
X2459288Y-18178150D02*
X2487859Y-18178150D01*
X2487859Y-18178150D02*
X2506907Y-18187674D01*
X2506907Y-18187674D02*
X2516431Y-18206722D01*
X2516431Y-18206722D02*
X2516431Y-18311484D01*
X2516431Y-18206722D02*
X2525954Y-18187674D01*
X2525954Y-18187674D02*
X2545002Y-18178150D01*
X2545002Y-18178150D02*
X2573573Y-18178150D01*
X2573573Y-18178150D02*
X2592621Y-18187674D01*
X2592621Y-18187674D02*
X2602145Y-18206722D01*
X2602145Y-18206722D02*
X2602145Y-18311484D01*
X2992621Y-18101960D02*
X2821192Y-18359103D01*
X3249764Y-18111484D02*
X3268812Y-18111484D01*
X3268812Y-18111484D02*
X3287859Y-18121008D01*
X3287859Y-18121008D02*
X3297383Y-18130531D01*
X3297383Y-18130531D02*
X3306907Y-18149579D01*
X3306907Y-18149579D02*
X3316431Y-18187674D01*
X3316431Y-18187674D02*
X3316431Y-18235293D01*
X3316431Y-18235293D02*
X3306907Y-18273389D01*
X3306907Y-18273389D02*
X3297383Y-18292436D01*
X3297383Y-18292436D02*
X3287859Y-18301960D01*
X3287859Y-18301960D02*
X3268812Y-18311484D01*
X3268812Y-18311484D02*
X3249764Y-18311484D01*
X3249764Y-18311484D02*
X3230716Y-18301960D01*
X3230716Y-18301960D02*
X3221192Y-18292436D01*
X3221192Y-18292436D02*
X3211669Y-18273389D01*
X3211669Y-18273389D02*
X3202145Y-18235293D01*
X3202145Y-18235293D02*
X3202145Y-18187674D01*
X3202145Y-18187674D02*
X3211669Y-18149579D01*
X3211669Y-18149579D02*
X3221192Y-18130531D01*
X3221192Y-18130531D02*
X3230716Y-18121008D01*
X3230716Y-18121008D02*
X3249764Y-18111484D01*
X3402145Y-18292436D02*
X3411669Y-18301960D01*
X3411669Y-18301960D02*
X3402145Y-18311484D01*
X3402145Y-18311484D02*
X3392621Y-18301960D01*
X3392621Y-18301960D02*
X3402145Y-18292436D01*
X3402145Y-18292436D02*
X3402145Y-18311484D01*
X3535478Y-18111484D02*
X3554526Y-18111484D01*
X3554526Y-18111484D02*
X3573573Y-18121008D01*
X3573573Y-18121008D02*
X3583097Y-18130531D01*
X3583097Y-18130531D02*
X3592621Y-18149579D01*
X3592621Y-18149579D02*
X3602145Y-18187674D01*
X3602145Y-18187674D02*
X3602145Y-18235293D01*
X3602145Y-18235293D02*
X3592621Y-18273389D01*
X3592621Y-18273389D02*
X3583097Y-18292436D01*
X3583097Y-18292436D02*
X3573573Y-18301960D01*
X3573573Y-18301960D02*
X3554526Y-18311484D01*
X3554526Y-18311484D02*
X3535478Y-18311484D01*
X3535478Y-18311484D02*
X3516431Y-18301960D01*
X3516431Y-18301960D02*
X3506907Y-18292436D01*
X3506907Y-18292436D02*
X3497383Y-18273389D01*
X3497383Y-18273389D02*
X3487859Y-18235293D01*
X3487859Y-18235293D02*
X3487859Y-18187674D01*
X3487859Y-18187674D02*
X3497383Y-18149579D01*
X3497383Y-18149579D02*
X3506907Y-18130531D01*
X3506907Y-18130531D02*
X3516431Y-18121008D01*
X3516431Y-18121008D02*
X3535478Y-18111484D01*
X3773573Y-18178150D02*
X3773573Y-18311484D01*
X3725954Y-18101960D02*
X3678335Y-18244817D01*
X3678335Y-18244817D02*
X3802145Y-18244817D01*
X3916431Y-18111484D02*
X3935478Y-18111484D01*
X3935478Y-18111484D02*
X3954526Y-18121008D01*
X3954526Y-18121008D02*
X3964050Y-18130531D01*
X3964050Y-18130531D02*
X3973573Y-18149579D01*
X3973573Y-18149579D02*
X3983097Y-18187674D01*
X3983097Y-18187674D02*
X3983097Y-18235293D01*
X3983097Y-18235293D02*
X3973573Y-18273389D01*
X3973573Y-18273389D02*
X3964050Y-18292436D01*
X3964050Y-18292436D02*
X3954526Y-18301960D01*
X3954526Y-18301960D02*
X3935478Y-18311484D01*
X3935478Y-18311484D02*
X3916431Y-18311484D01*
X3916431Y-18311484D02*
X3897383Y-18301960D01*
X3897383Y-18301960D02*
X3887859Y-18292436D01*
X3887859Y-18292436D02*
X3878335Y-18273389D01*
X3878335Y-18273389D02*
X3868812Y-18235293D01*
X3868812Y-18235293D02*
X3868812Y-18187674D01*
X3868812Y-18187674D02*
X3878335Y-18149579D01*
X3878335Y-18149579D02*
X3887859Y-18130531D01*
X3887859Y-18130531D02*
X3897383Y-18121008D01*
X3897383Y-18121008D02*
X3916431Y-18111484D01*
X4106907Y-18111484D02*
X4125954Y-18111484D01*
X4125954Y-18111484D02*
X4145002Y-18121008D01*
X4145002Y-18121008D02*
X4154526Y-18130531D01*
X4154526Y-18130531D02*
X4164050Y-18149579D01*
X4164050Y-18149579D02*
X4173573Y-18187674D01*
X4173573Y-18187674D02*
X4173573Y-18235293D01*
X4173573Y-18235293D02*
X4164050Y-18273389D01*
X4164050Y-18273389D02*
X4154526Y-18292436D01*
X4154526Y-18292436D02*
X4145002Y-18301960D01*
X4145002Y-18301960D02*
X4125954Y-18311484D01*
X4125954Y-18311484D02*
X4106907Y-18311484D01*
X4106907Y-18311484D02*
X4087859Y-18301960D01*
X4087859Y-18301960D02*
X4078335Y-18292436D01*
X4078335Y-18292436D02*
X4068812Y-18273389D01*
X4068812Y-18273389D02*
X4059288Y-18235293D01*
X4059288Y-18235293D02*
X4059288Y-18187674D01*
X4059288Y-18187674D02*
X4068812Y-18149579D01*
X4068812Y-18149579D02*
X4078335Y-18130531D01*
X4078335Y-18130531D02*
X4087859Y-18121008D01*
X4087859Y-18121008D02*
X4106907Y-18111484D01*
X4249764Y-18111484D02*
X4249764Y-18149579D01*
X4325955Y-18111484D02*
X4325955Y-18149579D01*
X4621193Y-18387674D02*
X4611669Y-18378150D01*
X4611669Y-18378150D02*
X4592621Y-18349579D01*
X4592621Y-18349579D02*
X4583097Y-18330531D01*
X4583097Y-18330531D02*
X4573574Y-18301960D01*
X4573574Y-18301960D02*
X4564050Y-18254341D01*
X4564050Y-18254341D02*
X4564050Y-18216246D01*
X4564050Y-18216246D02*
X4573574Y-18168627D01*
X4573574Y-18168627D02*
X4583097Y-18140055D01*
X4583097Y-18140055D02*
X4592621Y-18121008D01*
X4592621Y-18121008D02*
X4611669Y-18092436D01*
X4611669Y-18092436D02*
X4621193Y-18082912D01*
X4678336Y-18111484D02*
X4802145Y-18111484D01*
X4802145Y-18111484D02*
X4735478Y-18187674D01*
X4735478Y-18187674D02*
X4764050Y-18187674D01*
X4764050Y-18187674D02*
X4783097Y-18197198D01*
X4783097Y-18197198D02*
X4792621Y-18206722D01*
X4792621Y-18206722D02*
X4802145Y-18225770D01*
X4802145Y-18225770D02*
X4802145Y-18273389D01*
X4802145Y-18273389D02*
X4792621Y-18292436D01*
X4792621Y-18292436D02*
X4783097Y-18301960D01*
X4783097Y-18301960D02*
X4764050Y-18311484D01*
X4764050Y-18311484D02*
X4706907Y-18311484D01*
X4706907Y-18311484D02*
X4687859Y-18301960D01*
X4687859Y-18301960D02*
X4678336Y-18292436D01*
X5040240Y-18311484D02*
X5040240Y-18111484D01*
X5125955Y-18311484D02*
X5125955Y-18206722D01*
X5125955Y-18206722D02*
X5116431Y-18187674D01*
X5116431Y-18187674D02*
X5097383Y-18178150D01*
X5097383Y-18178150D02*
X5068812Y-18178150D01*
X5068812Y-18178150D02*
X5049764Y-18187674D01*
X5049764Y-18187674D02*
X5040240Y-18197198D01*
X5249764Y-18311484D02*
X5230717Y-18301960D01*
X5230717Y-18301960D02*
X5221193Y-18292436D01*
X5221193Y-18292436D02*
X5211669Y-18273389D01*
X5211669Y-18273389D02*
X5211669Y-18216246D01*
X5211669Y-18216246D02*
X5221193Y-18197198D01*
X5221193Y-18197198D02*
X5230717Y-18187674D01*
X5230717Y-18187674D02*
X5249764Y-18178150D01*
X5249764Y-18178150D02*
X5278336Y-18178150D01*
X5278336Y-18178150D02*
X5297383Y-18187674D01*
X5297383Y-18187674D02*
X5306907Y-18197198D01*
X5306907Y-18197198D02*
X5316431Y-18216246D01*
X5316431Y-18216246D02*
X5316431Y-18273389D01*
X5316431Y-18273389D02*
X5306907Y-18292436D01*
X5306907Y-18292436D02*
X5297383Y-18301960D01*
X5297383Y-18301960D02*
X5278336Y-18311484D01*
X5278336Y-18311484D02*
X5249764Y-18311484D01*
X5430717Y-18311484D02*
X5411669Y-18301960D01*
X5411669Y-18301960D02*
X5402145Y-18282912D01*
X5402145Y-18282912D02*
X5402145Y-18111484D01*
X5583098Y-18301960D02*
X5564050Y-18311484D01*
X5564050Y-18311484D02*
X5525955Y-18311484D01*
X5525955Y-18311484D02*
X5506907Y-18301960D01*
X5506907Y-18301960D02*
X5497383Y-18282912D01*
X5497383Y-18282912D02*
X5497383Y-18206722D01*
X5497383Y-18206722D02*
X5506907Y-18187674D01*
X5506907Y-18187674D02*
X5525955Y-18178150D01*
X5525955Y-18178150D02*
X5564050Y-18178150D01*
X5564050Y-18178150D02*
X5583098Y-18187674D01*
X5583098Y-18187674D02*
X5592621Y-18206722D01*
X5592621Y-18206722D02*
X5592621Y-18225770D01*
X5592621Y-18225770D02*
X5497383Y-18244817D01*
X5668812Y-18301960D02*
X5687859Y-18311484D01*
X5687859Y-18311484D02*
X5725955Y-18311484D01*
X5725955Y-18311484D02*
X5745002Y-18301960D01*
X5745002Y-18301960D02*
X5754526Y-18282912D01*
X5754526Y-18282912D02*
X5754526Y-18273389D01*
X5754526Y-18273389D02*
X5745002Y-18254341D01*
X5745002Y-18254341D02*
X5725955Y-18244817D01*
X5725955Y-18244817D02*
X5697383Y-18244817D01*
X5697383Y-18244817D02*
X5678336Y-18235293D01*
X5678336Y-18235293D02*
X5668812Y-18216246D01*
X5668812Y-18216246D02*
X5668812Y-18206722D01*
X5668812Y-18206722D02*
X5678336Y-18187674D01*
X5678336Y-18187674D02*
X5697383Y-18178150D01*
X5697383Y-18178150D02*
X5725955Y-18178150D01*
X5725955Y-18178150D02*
X5745002Y-18187674D01*
X5821193Y-18387674D02*
X5830717Y-18378150D01*
X5830717Y-18378150D02*
X5849764Y-18349579D01*
X5849764Y-18349579D02*
X5859288Y-18330531D01*
X5859288Y-18330531D02*
X5868812Y-18301960D01*
X5868812Y-18301960D02*
X5878336Y-18254341D01*
X5878336Y-18254341D02*
X5878336Y-18216246D01*
X5878336Y-18216246D02*
X5868812Y-18168627D01*
X5868812Y-18168627D02*
X5859288Y-18140055D01*
X5859288Y-18140055D02*
X5849764Y-18121008D01*
X5849764Y-18121008D02*
X5830717Y-18092436D01*
X5830717Y-18092436D02*
X5821193Y-18082912D01*
D13*
X944130Y-18433000D02*
X1046130Y-18535000D01*
X1046130Y-18433000D02*
X944130Y-18535000D01*
X995130Y-18433000D02*
X995130Y-18535000D01*
X944130Y-18484000D02*
X1046130Y-18484000D01*
D10*
X1411668Y-18575484D02*
X1297383Y-18575484D01*
X1354526Y-18575484D02*
X1354526Y-18375484D01*
X1354526Y-18375484D02*
X1335478Y-18404055D01*
X1335478Y-18404055D02*
X1316430Y-18423103D01*
X1316430Y-18423103D02*
X1297383Y-18432627D01*
X1497383Y-18556436D02*
X1506907Y-18565960D01*
X1506907Y-18565960D02*
X1497383Y-18575484D01*
X1497383Y-18575484D02*
X1487859Y-18565960D01*
X1487859Y-18565960D02*
X1497383Y-18556436D01*
X1497383Y-18556436D02*
X1497383Y-18575484D01*
X1630716Y-18375484D02*
X1649764Y-18375484D01*
X1649764Y-18375484D02*
X1668811Y-18385008D01*
X1668811Y-18385008D02*
X1678335Y-18394531D01*
X1678335Y-18394531D02*
X1687859Y-18413579D01*
X1687859Y-18413579D02*
X1697383Y-18451674D01*
X1697383Y-18451674D02*
X1697383Y-18499293D01*
X1697383Y-18499293D02*
X1687859Y-18537389D01*
X1687859Y-18537389D02*
X1678335Y-18556436D01*
X1678335Y-18556436D02*
X1668811Y-18565960D01*
X1668811Y-18565960D02*
X1649764Y-18575484D01*
X1649764Y-18575484D02*
X1630716Y-18575484D01*
X1630716Y-18575484D02*
X1611668Y-18565960D01*
X1611668Y-18565960D02*
X1602145Y-18556436D01*
X1602145Y-18556436D02*
X1592621Y-18537389D01*
X1592621Y-18537389D02*
X1583097Y-18499293D01*
X1583097Y-18499293D02*
X1583097Y-18451674D01*
X1583097Y-18451674D02*
X1592621Y-18413579D01*
X1592621Y-18413579D02*
X1602145Y-18394531D01*
X1602145Y-18394531D02*
X1611668Y-18385008D01*
X1611668Y-18385008D02*
X1630716Y-18375484D01*
X1773573Y-18394531D02*
X1783097Y-18385008D01*
X1783097Y-18385008D02*
X1802145Y-18375484D01*
X1802145Y-18375484D02*
X1849764Y-18375484D01*
X1849764Y-18375484D02*
X1868811Y-18385008D01*
X1868811Y-18385008D02*
X1878335Y-18394531D01*
X1878335Y-18394531D02*
X1887859Y-18413579D01*
X1887859Y-18413579D02*
X1887859Y-18432627D01*
X1887859Y-18432627D02*
X1878335Y-18461198D01*
X1878335Y-18461198D02*
X1764049Y-18575484D01*
X1764049Y-18575484D02*
X1887859Y-18575484D01*
X2011668Y-18375484D02*
X2030716Y-18375484D01*
X2030716Y-18375484D02*
X2049764Y-18385008D01*
X2049764Y-18385008D02*
X2059288Y-18394531D01*
X2059288Y-18394531D02*
X2068811Y-18413579D01*
X2068811Y-18413579D02*
X2078335Y-18451674D01*
X2078335Y-18451674D02*
X2078335Y-18499293D01*
X2078335Y-18499293D02*
X2068811Y-18537389D01*
X2068811Y-18537389D02*
X2059288Y-18556436D01*
X2059288Y-18556436D02*
X2049764Y-18565960D01*
X2049764Y-18565960D02*
X2030716Y-18575484D01*
X2030716Y-18575484D02*
X2011668Y-18575484D01*
X2011668Y-18575484D02*
X1992621Y-18565960D01*
X1992621Y-18565960D02*
X1983097Y-18556436D01*
X1983097Y-18556436D02*
X1973573Y-18537389D01*
X1973573Y-18537389D02*
X1964049Y-18499293D01*
X1964049Y-18499293D02*
X1964049Y-18451674D01*
X1964049Y-18451674D02*
X1973573Y-18413579D01*
X1973573Y-18413579D02*
X1983097Y-18394531D01*
X1983097Y-18394531D02*
X1992621Y-18385008D01*
X1992621Y-18385008D02*
X2011668Y-18375484D01*
X2164050Y-18575484D02*
X2164050Y-18442150D01*
X2164050Y-18461198D02*
X2173573Y-18451674D01*
X2173573Y-18451674D02*
X2192621Y-18442150D01*
X2192621Y-18442150D02*
X2221192Y-18442150D01*
X2221192Y-18442150D02*
X2240240Y-18451674D01*
X2240240Y-18451674D02*
X2249764Y-18470722D01*
X2249764Y-18470722D02*
X2249764Y-18575484D01*
X2249764Y-18470722D02*
X2259288Y-18451674D01*
X2259288Y-18451674D02*
X2278335Y-18442150D01*
X2278335Y-18442150D02*
X2306907Y-18442150D01*
X2306907Y-18442150D02*
X2325954Y-18451674D01*
X2325954Y-18451674D02*
X2335478Y-18470722D01*
X2335478Y-18470722D02*
X2335478Y-18575484D01*
X2430716Y-18575484D02*
X2430716Y-18442150D01*
X2430716Y-18461198D02*
X2440240Y-18451674D01*
X2440240Y-18451674D02*
X2459288Y-18442150D01*
X2459288Y-18442150D02*
X2487859Y-18442150D01*
X2487859Y-18442150D02*
X2506907Y-18451674D01*
X2506907Y-18451674D02*
X2516431Y-18470722D01*
X2516431Y-18470722D02*
X2516431Y-18575484D01*
X2516431Y-18470722D02*
X2525954Y-18451674D01*
X2525954Y-18451674D02*
X2545002Y-18442150D01*
X2545002Y-18442150D02*
X2573573Y-18442150D01*
X2573573Y-18442150D02*
X2592621Y-18451674D01*
X2592621Y-18451674D02*
X2602145Y-18470722D01*
X2602145Y-18470722D02*
X2602145Y-18575484D01*
X2992621Y-18365960D02*
X2821192Y-18623103D01*
X3249764Y-18375484D02*
X3268812Y-18375484D01*
X3268812Y-18375484D02*
X3287859Y-18385008D01*
X3287859Y-18385008D02*
X3297383Y-18394531D01*
X3297383Y-18394531D02*
X3306907Y-18413579D01*
X3306907Y-18413579D02*
X3316431Y-18451674D01*
X3316431Y-18451674D02*
X3316431Y-18499293D01*
X3316431Y-18499293D02*
X3306907Y-18537389D01*
X3306907Y-18537389D02*
X3297383Y-18556436D01*
X3297383Y-18556436D02*
X3287859Y-18565960D01*
X3287859Y-18565960D02*
X3268812Y-18575484D01*
X3268812Y-18575484D02*
X3249764Y-18575484D01*
X3249764Y-18575484D02*
X3230716Y-18565960D01*
X3230716Y-18565960D02*
X3221192Y-18556436D01*
X3221192Y-18556436D02*
X3211669Y-18537389D01*
X3211669Y-18537389D02*
X3202145Y-18499293D01*
X3202145Y-18499293D02*
X3202145Y-18451674D01*
X3202145Y-18451674D02*
X3211669Y-18413579D01*
X3211669Y-18413579D02*
X3221192Y-18394531D01*
X3221192Y-18394531D02*
X3230716Y-18385008D01*
X3230716Y-18385008D02*
X3249764Y-18375484D01*
X3402145Y-18556436D02*
X3411669Y-18565960D01*
X3411669Y-18565960D02*
X3402145Y-18575484D01*
X3402145Y-18575484D02*
X3392621Y-18565960D01*
X3392621Y-18565960D02*
X3402145Y-18556436D01*
X3402145Y-18556436D02*
X3402145Y-18575484D01*
X3535478Y-18375484D02*
X3554526Y-18375484D01*
X3554526Y-18375484D02*
X3573573Y-18385008D01*
X3573573Y-18385008D02*
X3583097Y-18394531D01*
X3583097Y-18394531D02*
X3592621Y-18413579D01*
X3592621Y-18413579D02*
X3602145Y-18451674D01*
X3602145Y-18451674D02*
X3602145Y-18499293D01*
X3602145Y-18499293D02*
X3592621Y-18537389D01*
X3592621Y-18537389D02*
X3583097Y-18556436D01*
X3583097Y-18556436D02*
X3573573Y-18565960D01*
X3573573Y-18565960D02*
X3554526Y-18575484D01*
X3554526Y-18575484D02*
X3535478Y-18575484D01*
X3535478Y-18575484D02*
X3516431Y-18565960D01*
X3516431Y-18565960D02*
X3506907Y-18556436D01*
X3506907Y-18556436D02*
X3497383Y-18537389D01*
X3497383Y-18537389D02*
X3487859Y-18499293D01*
X3487859Y-18499293D02*
X3487859Y-18451674D01*
X3487859Y-18451674D02*
X3497383Y-18413579D01*
X3497383Y-18413579D02*
X3506907Y-18394531D01*
X3506907Y-18394531D02*
X3516431Y-18385008D01*
X3516431Y-18385008D02*
X3535478Y-18375484D01*
X3773573Y-18442150D02*
X3773573Y-18575484D01*
X3725954Y-18365960D02*
X3678335Y-18508817D01*
X3678335Y-18508817D02*
X3802145Y-18508817D01*
X3916431Y-18375484D02*
X3935478Y-18375484D01*
X3935478Y-18375484D02*
X3954526Y-18385008D01*
X3954526Y-18385008D02*
X3964050Y-18394531D01*
X3964050Y-18394531D02*
X3973573Y-18413579D01*
X3973573Y-18413579D02*
X3983097Y-18451674D01*
X3983097Y-18451674D02*
X3983097Y-18499293D01*
X3983097Y-18499293D02*
X3973573Y-18537389D01*
X3973573Y-18537389D02*
X3964050Y-18556436D01*
X3964050Y-18556436D02*
X3954526Y-18565960D01*
X3954526Y-18565960D02*
X3935478Y-18575484D01*
X3935478Y-18575484D02*
X3916431Y-18575484D01*
X3916431Y-18575484D02*
X3897383Y-18565960D01*
X3897383Y-18565960D02*
X3887859Y-18556436D01*
X3887859Y-18556436D02*
X3878335Y-18537389D01*
X3878335Y-18537389D02*
X3868812Y-18499293D01*
X3868812Y-18499293D02*
X3868812Y-18451674D01*
X3868812Y-18451674D02*
X3878335Y-18413579D01*
X3878335Y-18413579D02*
X3887859Y-18394531D01*
X3887859Y-18394531D02*
X3897383Y-18385008D01*
X3897383Y-18385008D02*
X3916431Y-18375484D01*
X4059288Y-18394531D02*
X4068812Y-18385008D01*
X4068812Y-18385008D02*
X4087859Y-18375484D01*
X4087859Y-18375484D02*
X4135478Y-18375484D01*
X4135478Y-18375484D02*
X4154526Y-18385008D01*
X4154526Y-18385008D02*
X4164050Y-18394531D01*
X4164050Y-18394531D02*
X4173573Y-18413579D01*
X4173573Y-18413579D02*
X4173573Y-18432627D01*
X4173573Y-18432627D02*
X4164050Y-18461198D01*
X4164050Y-18461198D02*
X4049764Y-18575484D01*
X4049764Y-18575484D02*
X4173573Y-18575484D01*
X4249764Y-18375484D02*
X4249764Y-18413579D01*
X4325955Y-18375484D02*
X4325955Y-18413579D01*
X4621193Y-18651674D02*
X4611669Y-18642150D01*
X4611669Y-18642150D02*
X4592621Y-18613579D01*
X4592621Y-18613579D02*
X4583097Y-18594531D01*
X4583097Y-18594531D02*
X4573574Y-18565960D01*
X4573574Y-18565960D02*
X4564050Y-18518341D01*
X4564050Y-18518341D02*
X4564050Y-18480246D01*
X4564050Y-18480246D02*
X4573574Y-18432627D01*
X4573574Y-18432627D02*
X4583097Y-18404055D01*
X4583097Y-18404055D02*
X4592621Y-18385008D01*
X4592621Y-18385008D02*
X4611669Y-18356436D01*
X4611669Y-18356436D02*
X4621193Y-18346912D01*
X4687859Y-18394531D02*
X4697383Y-18385008D01*
X4697383Y-18385008D02*
X4716431Y-18375484D01*
X4716431Y-18375484D02*
X4764050Y-18375484D01*
X4764050Y-18375484D02*
X4783097Y-18385008D01*
X4783097Y-18385008D02*
X4792621Y-18394531D01*
X4792621Y-18394531D02*
X4802145Y-18413579D01*
X4802145Y-18413579D02*
X4802145Y-18432627D01*
X4802145Y-18432627D02*
X4792621Y-18461198D01*
X4792621Y-18461198D02*
X4678336Y-18575484D01*
X4678336Y-18575484D02*
X4802145Y-18575484D01*
X4916431Y-18461198D02*
X4897383Y-18451674D01*
X4897383Y-18451674D02*
X4887859Y-18442150D01*
X4887859Y-18442150D02*
X4878336Y-18423103D01*
X4878336Y-18423103D02*
X4878336Y-18413579D01*
X4878336Y-18413579D02*
X4887859Y-18394531D01*
X4887859Y-18394531D02*
X4897383Y-18385008D01*
X4897383Y-18385008D02*
X4916431Y-18375484D01*
X4916431Y-18375484D02*
X4954526Y-18375484D01*
X4954526Y-18375484D02*
X4973574Y-18385008D01*
X4973574Y-18385008D02*
X4983097Y-18394531D01*
X4983097Y-18394531D02*
X4992621Y-18413579D01*
X4992621Y-18413579D02*
X4992621Y-18423103D01*
X4992621Y-18423103D02*
X4983097Y-18442150D01*
X4983097Y-18442150D02*
X4973574Y-18451674D01*
X4973574Y-18451674D02*
X4954526Y-18461198D01*
X4954526Y-18461198D02*
X4916431Y-18461198D01*
X4916431Y-18461198D02*
X4897383Y-18470722D01*
X4897383Y-18470722D02*
X4887859Y-18480246D01*
X4887859Y-18480246D02*
X4878336Y-18499293D01*
X4878336Y-18499293D02*
X4878336Y-18537389D01*
X4878336Y-18537389D02*
X4887859Y-18556436D01*
X4887859Y-18556436D02*
X4897383Y-18565960D01*
X4897383Y-18565960D02*
X4916431Y-18575484D01*
X4916431Y-18575484D02*
X4954526Y-18575484D01*
X4954526Y-18575484D02*
X4973574Y-18565960D01*
X4973574Y-18565960D02*
X4983097Y-18556436D01*
X4983097Y-18556436D02*
X4992621Y-18537389D01*
X4992621Y-18537389D02*
X4992621Y-18499293D01*
X4992621Y-18499293D02*
X4983097Y-18480246D01*
X4983097Y-18480246D02*
X4973574Y-18470722D01*
X4973574Y-18470722D02*
X4954526Y-18461198D01*
X5230717Y-18575484D02*
X5230717Y-18375484D01*
X5316431Y-18575484D02*
X5316431Y-18470722D01*
X5316431Y-18470722D02*
X5306907Y-18451674D01*
X5306907Y-18451674D02*
X5287859Y-18442150D01*
X5287859Y-18442150D02*
X5259288Y-18442150D01*
X5259288Y-18442150D02*
X5240240Y-18451674D01*
X5240240Y-18451674D02*
X5230717Y-18461198D01*
X5440240Y-18575484D02*
X5421193Y-18565960D01*
X5421193Y-18565960D02*
X5411669Y-18556436D01*
X5411669Y-18556436D02*
X5402145Y-18537389D01*
X5402145Y-18537389D02*
X5402145Y-18480246D01*
X5402145Y-18480246D02*
X5411669Y-18461198D01*
X5411669Y-18461198D02*
X5421193Y-18451674D01*
X5421193Y-18451674D02*
X5440240Y-18442150D01*
X5440240Y-18442150D02*
X5468812Y-18442150D01*
X5468812Y-18442150D02*
X5487859Y-18451674D01*
X5487859Y-18451674D02*
X5497383Y-18461198D01*
X5497383Y-18461198D02*
X5506907Y-18480246D01*
X5506907Y-18480246D02*
X5506907Y-18537389D01*
X5506907Y-18537389D02*
X5497383Y-18556436D01*
X5497383Y-18556436D02*
X5487859Y-18565960D01*
X5487859Y-18565960D02*
X5468812Y-18575484D01*
X5468812Y-18575484D02*
X5440240Y-18575484D01*
X5621193Y-18575484D02*
X5602145Y-18565960D01*
X5602145Y-18565960D02*
X5592621Y-18546912D01*
X5592621Y-18546912D02*
X5592621Y-18375484D01*
X5773574Y-18565960D02*
X5754526Y-18575484D01*
X5754526Y-18575484D02*
X5716431Y-18575484D01*
X5716431Y-18575484D02*
X5697383Y-18565960D01*
X5697383Y-18565960D02*
X5687859Y-18546912D01*
X5687859Y-18546912D02*
X5687859Y-18470722D01*
X5687859Y-18470722D02*
X5697383Y-18451674D01*
X5697383Y-18451674D02*
X5716431Y-18442150D01*
X5716431Y-18442150D02*
X5754526Y-18442150D01*
X5754526Y-18442150D02*
X5773574Y-18451674D01*
X5773574Y-18451674D02*
X5783097Y-18470722D01*
X5783097Y-18470722D02*
X5783097Y-18489770D01*
X5783097Y-18489770D02*
X5687859Y-18508817D01*
X5859288Y-18565960D02*
X5878336Y-18575484D01*
X5878336Y-18575484D02*
X5916431Y-18575484D01*
X5916431Y-18575484D02*
X5935478Y-18565960D01*
X5935478Y-18565960D02*
X5945002Y-18546912D01*
X5945002Y-18546912D02*
X5945002Y-18537389D01*
X5945002Y-18537389D02*
X5935478Y-18518341D01*
X5935478Y-18518341D02*
X5916431Y-18508817D01*
X5916431Y-18508817D02*
X5887859Y-18508817D01*
X5887859Y-18508817D02*
X5868812Y-18499293D01*
X5868812Y-18499293D02*
X5859288Y-18480246D01*
X5859288Y-18480246D02*
X5859288Y-18470722D01*
X5859288Y-18470722D02*
X5868812Y-18451674D01*
X5868812Y-18451674D02*
X5887859Y-18442150D01*
X5887859Y-18442150D02*
X5916431Y-18442150D01*
X5916431Y-18442150D02*
X5935478Y-18451674D01*
X6011669Y-18651674D02*
X6021193Y-18642150D01*
X6021193Y-18642150D02*
X6040240Y-18613579D01*
X6040240Y-18613579D02*
X6049764Y-18594531D01*
X6049764Y-18594531D02*
X6059288Y-18565960D01*
X6059288Y-18565960D02*
X6068812Y-18518341D01*
X6068812Y-18518341D02*
X6068812Y-18480246D01*
X6068812Y-18480246D02*
X6059288Y-18432627D01*
X6059288Y-18432627D02*
X6049764Y-18404055D01*
X6049764Y-18404055D02*
X6040240Y-18385008D01*
X6040240Y-18385008D02*
X6021193Y-18356436D01*
X6021193Y-18356436D02*
X6011669Y-18346912D01*
X846130Y-18648000D02*
X1046130Y-18848000D01*
X1046130Y-18648000D02*
X846130Y-18848000D01*
X1016841Y-18818711D02*
X1016841Y-18677289D01*
X875418Y-18677289D01*
X875418Y-18818711D01*
X1016841Y-18818711D01*
X1297383Y-18658531D02*
X1306907Y-18649008D01*
X1306907Y-18649008D02*
X1325954Y-18639484D01*
X1325954Y-18639484D02*
X1373573Y-18639484D01*
X1373573Y-18639484D02*
X1392621Y-18649008D01*
X1392621Y-18649008D02*
X1402145Y-18658531D01*
X1402145Y-18658531D02*
X1411668Y-18677579D01*
X1411668Y-18677579D02*
X1411668Y-18696627D01*
X1411668Y-18696627D02*
X1402145Y-18725198D01*
X1402145Y-18725198D02*
X1287859Y-18839484D01*
X1287859Y-18839484D02*
X1411668Y-18839484D01*
X1497383Y-18820436D02*
X1506907Y-18829960D01*
X1506907Y-18829960D02*
X1497383Y-18839484D01*
X1497383Y-18839484D02*
X1487859Y-18829960D01*
X1487859Y-18829960D02*
X1497383Y-18820436D01*
X1497383Y-18820436D02*
X1497383Y-18839484D01*
X1573573Y-18639484D02*
X1697383Y-18639484D01*
X1697383Y-18639484D02*
X1630716Y-18715674D01*
X1630716Y-18715674D02*
X1659288Y-18715674D01*
X1659288Y-18715674D02*
X1678335Y-18725198D01*
X1678335Y-18725198D02*
X1687859Y-18734722D01*
X1687859Y-18734722D02*
X1697383Y-18753770D01*
X1697383Y-18753770D02*
X1697383Y-18801389D01*
X1697383Y-18801389D02*
X1687859Y-18820436D01*
X1687859Y-18820436D02*
X1678335Y-18829960D01*
X1678335Y-18829960D02*
X1659288Y-18839484D01*
X1659288Y-18839484D02*
X1602145Y-18839484D01*
X1602145Y-18839484D02*
X1583097Y-18829960D01*
X1583097Y-18829960D02*
X1573573Y-18820436D01*
X1821192Y-18639484D02*
X1840240Y-18639484D01*
X1840240Y-18639484D02*
X1859288Y-18649008D01*
X1859288Y-18649008D02*
X1868811Y-18658531D01*
X1868811Y-18658531D02*
X1878335Y-18677579D01*
X1878335Y-18677579D02*
X1887859Y-18715674D01*
X1887859Y-18715674D02*
X1887859Y-18763293D01*
X1887859Y-18763293D02*
X1878335Y-18801389D01*
X1878335Y-18801389D02*
X1868811Y-18820436D01*
X1868811Y-18820436D02*
X1859288Y-18829960D01*
X1859288Y-18829960D02*
X1840240Y-18839484D01*
X1840240Y-18839484D02*
X1821192Y-18839484D01*
X1821192Y-18839484D02*
X1802145Y-18829960D01*
X1802145Y-18829960D02*
X1792621Y-18820436D01*
X1792621Y-18820436D02*
X1783097Y-18801389D01*
X1783097Y-18801389D02*
X1773573Y-18763293D01*
X1773573Y-18763293D02*
X1773573Y-18715674D01*
X1773573Y-18715674D02*
X1783097Y-18677579D01*
X1783097Y-18677579D02*
X1792621Y-18658531D01*
X1792621Y-18658531D02*
X1802145Y-18649008D01*
X1802145Y-18649008D02*
X1821192Y-18639484D01*
X2011668Y-18639484D02*
X2030716Y-18639484D01*
X2030716Y-18639484D02*
X2049764Y-18649008D01*
X2049764Y-18649008D02*
X2059288Y-18658531D01*
X2059288Y-18658531D02*
X2068811Y-18677579D01*
X2068811Y-18677579D02*
X2078335Y-18715674D01*
X2078335Y-18715674D02*
X2078335Y-18763293D01*
X2078335Y-18763293D02*
X2068811Y-18801389D01*
X2068811Y-18801389D02*
X2059288Y-18820436D01*
X2059288Y-18820436D02*
X2049764Y-18829960D01*
X2049764Y-18829960D02*
X2030716Y-18839484D01*
X2030716Y-18839484D02*
X2011668Y-18839484D01*
X2011668Y-18839484D02*
X1992621Y-18829960D01*
X1992621Y-18829960D02*
X1983097Y-18820436D01*
X1983097Y-18820436D02*
X1973573Y-18801389D01*
X1973573Y-18801389D02*
X1964049Y-18763293D01*
X1964049Y-18763293D02*
X1964049Y-18715674D01*
X1964049Y-18715674D02*
X1973573Y-18677579D01*
X1973573Y-18677579D02*
X1983097Y-18658531D01*
X1983097Y-18658531D02*
X1992621Y-18649008D01*
X1992621Y-18649008D02*
X2011668Y-18639484D01*
X2164050Y-18839484D02*
X2164050Y-18706150D01*
X2164050Y-18725198D02*
X2173573Y-18715674D01*
X2173573Y-18715674D02*
X2192621Y-18706150D01*
X2192621Y-18706150D02*
X2221192Y-18706150D01*
X2221192Y-18706150D02*
X2240240Y-18715674D01*
X2240240Y-18715674D02*
X2249764Y-18734722D01*
X2249764Y-18734722D02*
X2249764Y-18839484D01*
X2249764Y-18734722D02*
X2259288Y-18715674D01*
X2259288Y-18715674D02*
X2278335Y-18706150D01*
X2278335Y-18706150D02*
X2306907Y-18706150D01*
X2306907Y-18706150D02*
X2325954Y-18715674D01*
X2325954Y-18715674D02*
X2335478Y-18734722D01*
X2335478Y-18734722D02*
X2335478Y-18839484D01*
X2430716Y-18839484D02*
X2430716Y-18706150D01*
X2430716Y-18725198D02*
X2440240Y-18715674D01*
X2440240Y-18715674D02*
X2459288Y-18706150D01*
X2459288Y-18706150D02*
X2487859Y-18706150D01*
X2487859Y-18706150D02*
X2506907Y-18715674D01*
X2506907Y-18715674D02*
X2516431Y-18734722D01*
X2516431Y-18734722D02*
X2516431Y-18839484D01*
X2516431Y-18734722D02*
X2525954Y-18715674D01*
X2525954Y-18715674D02*
X2545002Y-18706150D01*
X2545002Y-18706150D02*
X2573573Y-18706150D01*
X2573573Y-18706150D02*
X2592621Y-18715674D01*
X2592621Y-18715674D02*
X2602145Y-18734722D01*
X2602145Y-18734722D02*
X2602145Y-18839484D01*
X2992621Y-18629960D02*
X2821192Y-18887103D01*
X3249764Y-18639484D02*
X3268812Y-18639484D01*
X3268812Y-18639484D02*
X3287859Y-18649008D01*
X3287859Y-18649008D02*
X3297383Y-18658531D01*
X3297383Y-18658531D02*
X3306907Y-18677579D01*
X3306907Y-18677579D02*
X3316431Y-18715674D01*
X3316431Y-18715674D02*
X3316431Y-18763293D01*
X3316431Y-18763293D02*
X3306907Y-18801389D01*
X3306907Y-18801389D02*
X3297383Y-18820436D01*
X3297383Y-18820436D02*
X3287859Y-18829960D01*
X3287859Y-18829960D02*
X3268812Y-18839484D01*
X3268812Y-18839484D02*
X3249764Y-18839484D01*
X3249764Y-18839484D02*
X3230716Y-18829960D01*
X3230716Y-18829960D02*
X3221192Y-18820436D01*
X3221192Y-18820436D02*
X3211669Y-18801389D01*
X3211669Y-18801389D02*
X3202145Y-18763293D01*
X3202145Y-18763293D02*
X3202145Y-18715674D01*
X3202145Y-18715674D02*
X3211669Y-18677579D01*
X3211669Y-18677579D02*
X3221192Y-18658531D01*
X3221192Y-18658531D02*
X3230716Y-18649008D01*
X3230716Y-18649008D02*
X3249764Y-18639484D01*
X3402145Y-18820436D02*
X3411669Y-18829960D01*
X3411669Y-18829960D02*
X3402145Y-18839484D01*
X3402145Y-18839484D02*
X3392621Y-18829960D01*
X3392621Y-18829960D02*
X3402145Y-18820436D01*
X3402145Y-18820436D02*
X3402145Y-18839484D01*
X3535478Y-18639484D02*
X3554526Y-18639484D01*
X3554526Y-18639484D02*
X3573573Y-18649008D01*
X3573573Y-18649008D02*
X3583097Y-18658531D01*
X3583097Y-18658531D02*
X3592621Y-18677579D01*
X3592621Y-18677579D02*
X3602145Y-18715674D01*
X3602145Y-18715674D02*
X3602145Y-18763293D01*
X3602145Y-18763293D02*
X3592621Y-18801389D01*
X3592621Y-18801389D02*
X3583097Y-18820436D01*
X3583097Y-18820436D02*
X3573573Y-18829960D01*
X3573573Y-18829960D02*
X3554526Y-18839484D01*
X3554526Y-18839484D02*
X3535478Y-18839484D01*
X3535478Y-18839484D02*
X3516431Y-18829960D01*
X3516431Y-18829960D02*
X3506907Y-18820436D01*
X3506907Y-18820436D02*
X3497383Y-18801389D01*
X3497383Y-18801389D02*
X3487859Y-18763293D01*
X3487859Y-18763293D02*
X3487859Y-18715674D01*
X3487859Y-18715674D02*
X3497383Y-18677579D01*
X3497383Y-18677579D02*
X3506907Y-18658531D01*
X3506907Y-18658531D02*
X3516431Y-18649008D01*
X3516431Y-18649008D02*
X3535478Y-18639484D01*
X3697383Y-18839484D02*
X3735478Y-18839484D01*
X3735478Y-18839484D02*
X3754526Y-18829960D01*
X3754526Y-18829960D02*
X3764050Y-18820436D01*
X3764050Y-18820436D02*
X3783097Y-18791865D01*
X3783097Y-18791865D02*
X3792621Y-18753770D01*
X3792621Y-18753770D02*
X3792621Y-18677579D01*
X3792621Y-18677579D02*
X3783097Y-18658531D01*
X3783097Y-18658531D02*
X3773573Y-18649008D01*
X3773573Y-18649008D02*
X3754526Y-18639484D01*
X3754526Y-18639484D02*
X3716431Y-18639484D01*
X3716431Y-18639484D02*
X3697383Y-18649008D01*
X3697383Y-18649008D02*
X3687859Y-18658531D01*
X3687859Y-18658531D02*
X3678335Y-18677579D01*
X3678335Y-18677579D02*
X3678335Y-18725198D01*
X3678335Y-18725198D02*
X3687859Y-18744246D01*
X3687859Y-18744246D02*
X3697383Y-18753770D01*
X3697383Y-18753770D02*
X3716431Y-18763293D01*
X3716431Y-18763293D02*
X3754526Y-18763293D01*
X3754526Y-18763293D02*
X3773573Y-18753770D01*
X3773573Y-18753770D02*
X3783097Y-18744246D01*
X3783097Y-18744246D02*
X3792621Y-18725198D01*
X3916431Y-18639484D02*
X3935478Y-18639484D01*
X3935478Y-18639484D02*
X3954526Y-18649008D01*
X3954526Y-18649008D02*
X3964050Y-18658531D01*
X3964050Y-18658531D02*
X3973573Y-18677579D01*
X3973573Y-18677579D02*
X3983097Y-18715674D01*
X3983097Y-18715674D02*
X3983097Y-18763293D01*
X3983097Y-18763293D02*
X3973573Y-18801389D01*
X3973573Y-18801389D02*
X3964050Y-18820436D01*
X3964050Y-18820436D02*
X3954526Y-18829960D01*
X3954526Y-18829960D02*
X3935478Y-18839484D01*
X3935478Y-18839484D02*
X3916431Y-18839484D01*
X3916431Y-18839484D02*
X3897383Y-18829960D01*
X3897383Y-18829960D02*
X3887859Y-18820436D01*
X3887859Y-18820436D02*
X3878335Y-18801389D01*
X3878335Y-18801389D02*
X3868812Y-18763293D01*
X3868812Y-18763293D02*
X3868812Y-18715674D01*
X3868812Y-18715674D02*
X3878335Y-18677579D01*
X3878335Y-18677579D02*
X3887859Y-18658531D01*
X3887859Y-18658531D02*
X3897383Y-18649008D01*
X3897383Y-18649008D02*
X3916431Y-18639484D01*
X4154526Y-18639484D02*
X4116431Y-18639484D01*
X4116431Y-18639484D02*
X4097383Y-18649008D01*
X4097383Y-18649008D02*
X4087859Y-18658531D01*
X4087859Y-18658531D02*
X4068812Y-18687103D01*
X4068812Y-18687103D02*
X4059288Y-18725198D01*
X4059288Y-18725198D02*
X4059288Y-18801389D01*
X4059288Y-18801389D02*
X4068812Y-18820436D01*
X4068812Y-18820436D02*
X4078335Y-18829960D01*
X4078335Y-18829960D02*
X4097383Y-18839484D01*
X4097383Y-18839484D02*
X4135478Y-18839484D01*
X4135478Y-18839484D02*
X4154526Y-18829960D01*
X4154526Y-18829960D02*
X4164050Y-18820436D01*
X4164050Y-18820436D02*
X4173573Y-18801389D01*
X4173573Y-18801389D02*
X4173573Y-18753770D01*
X4173573Y-18753770D02*
X4164050Y-18734722D01*
X4164050Y-18734722D02*
X4154526Y-18725198D01*
X4154526Y-18725198D02*
X4135478Y-18715674D01*
X4135478Y-18715674D02*
X4097383Y-18715674D01*
X4097383Y-18715674D02*
X4078335Y-18725198D01*
X4078335Y-18725198D02*
X4068812Y-18734722D01*
X4068812Y-18734722D02*
X4059288Y-18753770D01*
X4249764Y-18639484D02*
X4249764Y-18677579D01*
X4325955Y-18639484D02*
X4325955Y-18677579D01*
X4621193Y-18915674D02*
X4611669Y-18906150D01*
X4611669Y-18906150D02*
X4592621Y-18877579D01*
X4592621Y-18877579D02*
X4583097Y-18858531D01*
X4583097Y-18858531D02*
X4573574Y-18829960D01*
X4573574Y-18829960D02*
X4564050Y-18782341D01*
X4564050Y-18782341D02*
X4564050Y-18744246D01*
X4564050Y-18744246D02*
X4573574Y-18696627D01*
X4573574Y-18696627D02*
X4583097Y-18668055D01*
X4583097Y-18668055D02*
X4592621Y-18649008D01*
X4592621Y-18649008D02*
X4611669Y-18620436D01*
X4611669Y-18620436D02*
X4621193Y-18610912D01*
X4678336Y-18639484D02*
X4802145Y-18639484D01*
X4802145Y-18639484D02*
X4735478Y-18715674D01*
X4735478Y-18715674D02*
X4764050Y-18715674D01*
X4764050Y-18715674D02*
X4783097Y-18725198D01*
X4783097Y-18725198D02*
X4792621Y-18734722D01*
X4792621Y-18734722D02*
X4802145Y-18753770D01*
X4802145Y-18753770D02*
X4802145Y-18801389D01*
X4802145Y-18801389D02*
X4792621Y-18820436D01*
X4792621Y-18820436D02*
X4783097Y-18829960D01*
X4783097Y-18829960D02*
X4764050Y-18839484D01*
X4764050Y-18839484D02*
X4706907Y-18839484D01*
X4706907Y-18839484D02*
X4687859Y-18829960D01*
X4687859Y-18829960D02*
X4678336Y-18820436D01*
X5040240Y-18839484D02*
X5040240Y-18639484D01*
X5125955Y-18839484D02*
X5125955Y-18734722D01*
X5125955Y-18734722D02*
X5116431Y-18715674D01*
X5116431Y-18715674D02*
X5097383Y-18706150D01*
X5097383Y-18706150D02*
X5068812Y-18706150D01*
X5068812Y-18706150D02*
X5049764Y-18715674D01*
X5049764Y-18715674D02*
X5040240Y-18725198D01*
X5249764Y-18839484D02*
X5230717Y-18829960D01*
X5230717Y-18829960D02*
X5221193Y-18820436D01*
X5221193Y-18820436D02*
X5211669Y-18801389D01*
X5211669Y-18801389D02*
X5211669Y-18744246D01*
X5211669Y-18744246D02*
X5221193Y-18725198D01*
X5221193Y-18725198D02*
X5230717Y-18715674D01*
X5230717Y-18715674D02*
X5249764Y-18706150D01*
X5249764Y-18706150D02*
X5278336Y-18706150D01*
X5278336Y-18706150D02*
X5297383Y-18715674D01*
X5297383Y-18715674D02*
X5306907Y-18725198D01*
X5306907Y-18725198D02*
X5316431Y-18744246D01*
X5316431Y-18744246D02*
X5316431Y-18801389D01*
X5316431Y-18801389D02*
X5306907Y-18820436D01*
X5306907Y-18820436D02*
X5297383Y-18829960D01*
X5297383Y-18829960D02*
X5278336Y-18839484D01*
X5278336Y-18839484D02*
X5249764Y-18839484D01*
X5430717Y-18839484D02*
X5411669Y-18829960D01*
X5411669Y-18829960D02*
X5402145Y-18810912D01*
X5402145Y-18810912D02*
X5402145Y-18639484D01*
X5583098Y-18829960D02*
X5564050Y-18839484D01*
X5564050Y-18839484D02*
X5525955Y-18839484D01*
X5525955Y-18839484D02*
X5506907Y-18829960D01*
X5506907Y-18829960D02*
X5497383Y-18810912D01*
X5497383Y-18810912D02*
X5497383Y-18734722D01*
X5497383Y-18734722D02*
X5506907Y-18715674D01*
X5506907Y-18715674D02*
X5525955Y-18706150D01*
X5525955Y-18706150D02*
X5564050Y-18706150D01*
X5564050Y-18706150D02*
X5583098Y-18715674D01*
X5583098Y-18715674D02*
X5592621Y-18734722D01*
X5592621Y-18734722D02*
X5592621Y-18753770D01*
X5592621Y-18753770D02*
X5497383Y-18772817D01*
X5668812Y-18829960D02*
X5687859Y-18839484D01*
X5687859Y-18839484D02*
X5725955Y-18839484D01*
X5725955Y-18839484D02*
X5745002Y-18829960D01*
X5745002Y-18829960D02*
X5754526Y-18810912D01*
X5754526Y-18810912D02*
X5754526Y-18801389D01*
X5754526Y-18801389D02*
X5745002Y-18782341D01*
X5745002Y-18782341D02*
X5725955Y-18772817D01*
X5725955Y-18772817D02*
X5697383Y-18772817D01*
X5697383Y-18772817D02*
X5678336Y-18763293D01*
X5678336Y-18763293D02*
X5668812Y-18744246D01*
X5668812Y-18744246D02*
X5668812Y-18734722D01*
X5668812Y-18734722D02*
X5678336Y-18715674D01*
X5678336Y-18715674D02*
X5697383Y-18706150D01*
X5697383Y-18706150D02*
X5725955Y-18706150D01*
X5725955Y-18706150D02*
X5745002Y-18715674D01*
X5821193Y-18915674D02*
X5830717Y-18906150D01*
X5830717Y-18906150D02*
X5849764Y-18877579D01*
X5849764Y-18877579D02*
X5859288Y-18858531D01*
X5859288Y-18858531D02*
X5868812Y-18829960D01*
X5868812Y-18829960D02*
X5878336Y-18782341D01*
X5878336Y-18782341D02*
X5878336Y-18744246D01*
X5878336Y-18744246D02*
X5868812Y-18696627D01*
X5868812Y-18696627D02*
X5859288Y-18668055D01*
X5859288Y-18668055D02*
X5849764Y-18649008D01*
X5849764Y-18649008D02*
X5830717Y-18620436D01*
X5830717Y-18620436D02*
X5821193Y-18610912D01*
X846130Y-18968000D02*
X1046130Y-19168000D01*
X1046130Y-18968000D02*
X846130Y-19168000D01*
X946130Y-19168000D02*
X1046130Y-19068000D01*
X946130Y-18968000D01*
X846130Y-19068000D01*
X946130Y-19168000D01*
X1287859Y-18959484D02*
X1411668Y-18959484D01*
X1411668Y-18959484D02*
X1345002Y-19035674D01*
X1345002Y-19035674D02*
X1373573Y-19035674D01*
X1373573Y-19035674D02*
X1392621Y-19045198D01*
X1392621Y-19045198D02*
X1402145Y-19054722D01*
X1402145Y-19054722D02*
X1411668Y-19073770D01*
X1411668Y-19073770D02*
X1411668Y-19121389D01*
X1411668Y-19121389D02*
X1402145Y-19140436D01*
X1402145Y-19140436D02*
X1392621Y-19149960D01*
X1392621Y-19149960D02*
X1373573Y-19159484D01*
X1373573Y-19159484D02*
X1316430Y-19159484D01*
X1316430Y-19159484D02*
X1297383Y-19149960D01*
X1297383Y-19149960D02*
X1287859Y-19140436D01*
X1497383Y-19140436D02*
X1506907Y-19149960D01*
X1506907Y-19149960D02*
X1497383Y-19159484D01*
X1497383Y-19159484D02*
X1487859Y-19149960D01*
X1487859Y-19149960D02*
X1497383Y-19140436D01*
X1497383Y-19140436D02*
X1497383Y-19159484D01*
X1583097Y-18978531D02*
X1592621Y-18969008D01*
X1592621Y-18969008D02*
X1611668Y-18959484D01*
X1611668Y-18959484D02*
X1659288Y-18959484D01*
X1659288Y-18959484D02*
X1678335Y-18969008D01*
X1678335Y-18969008D02*
X1687859Y-18978531D01*
X1687859Y-18978531D02*
X1697383Y-18997579D01*
X1697383Y-18997579D02*
X1697383Y-19016627D01*
X1697383Y-19016627D02*
X1687859Y-19045198D01*
X1687859Y-19045198D02*
X1573573Y-19159484D01*
X1573573Y-19159484D02*
X1697383Y-19159484D01*
X1821192Y-18959484D02*
X1840240Y-18959484D01*
X1840240Y-18959484D02*
X1859288Y-18969008D01*
X1859288Y-18969008D02*
X1868811Y-18978531D01*
X1868811Y-18978531D02*
X1878335Y-18997579D01*
X1878335Y-18997579D02*
X1887859Y-19035674D01*
X1887859Y-19035674D02*
X1887859Y-19083293D01*
X1887859Y-19083293D02*
X1878335Y-19121389D01*
X1878335Y-19121389D02*
X1868811Y-19140436D01*
X1868811Y-19140436D02*
X1859288Y-19149960D01*
X1859288Y-19149960D02*
X1840240Y-19159484D01*
X1840240Y-19159484D02*
X1821192Y-19159484D01*
X1821192Y-19159484D02*
X1802145Y-19149960D01*
X1802145Y-19149960D02*
X1792621Y-19140436D01*
X1792621Y-19140436D02*
X1783097Y-19121389D01*
X1783097Y-19121389D02*
X1773573Y-19083293D01*
X1773573Y-19083293D02*
X1773573Y-19035674D01*
X1773573Y-19035674D02*
X1783097Y-18997579D01*
X1783097Y-18997579D02*
X1792621Y-18978531D01*
X1792621Y-18978531D02*
X1802145Y-18969008D01*
X1802145Y-18969008D02*
X1821192Y-18959484D01*
X2011668Y-18959484D02*
X2030716Y-18959484D01*
X2030716Y-18959484D02*
X2049764Y-18969008D01*
X2049764Y-18969008D02*
X2059288Y-18978531D01*
X2059288Y-18978531D02*
X2068811Y-18997579D01*
X2068811Y-18997579D02*
X2078335Y-19035674D01*
X2078335Y-19035674D02*
X2078335Y-19083293D01*
X2078335Y-19083293D02*
X2068811Y-19121389D01*
X2068811Y-19121389D02*
X2059288Y-19140436D01*
X2059288Y-19140436D02*
X2049764Y-19149960D01*
X2049764Y-19149960D02*
X2030716Y-19159484D01*
X2030716Y-19159484D02*
X2011668Y-19159484D01*
X2011668Y-19159484D02*
X1992621Y-19149960D01*
X1992621Y-19149960D02*
X1983097Y-19140436D01*
X1983097Y-19140436D02*
X1973573Y-19121389D01*
X1973573Y-19121389D02*
X1964049Y-19083293D01*
X1964049Y-19083293D02*
X1964049Y-19035674D01*
X1964049Y-19035674D02*
X1973573Y-18997579D01*
X1973573Y-18997579D02*
X1983097Y-18978531D01*
X1983097Y-18978531D02*
X1992621Y-18969008D01*
X1992621Y-18969008D02*
X2011668Y-18959484D01*
X2164050Y-19159484D02*
X2164050Y-19026150D01*
X2164050Y-19045198D02*
X2173573Y-19035674D01*
X2173573Y-19035674D02*
X2192621Y-19026150D01*
X2192621Y-19026150D02*
X2221192Y-19026150D01*
X2221192Y-19026150D02*
X2240240Y-19035674D01*
X2240240Y-19035674D02*
X2249764Y-19054722D01*
X2249764Y-19054722D02*
X2249764Y-19159484D01*
X2249764Y-19054722D02*
X2259288Y-19035674D01*
X2259288Y-19035674D02*
X2278335Y-19026150D01*
X2278335Y-19026150D02*
X2306907Y-19026150D01*
X2306907Y-19026150D02*
X2325954Y-19035674D01*
X2325954Y-19035674D02*
X2335478Y-19054722D01*
X2335478Y-19054722D02*
X2335478Y-19159484D01*
X2430716Y-19159484D02*
X2430716Y-19026150D01*
X2430716Y-19045198D02*
X2440240Y-19035674D01*
X2440240Y-19035674D02*
X2459288Y-19026150D01*
X2459288Y-19026150D02*
X2487859Y-19026150D01*
X2487859Y-19026150D02*
X2506907Y-19035674D01*
X2506907Y-19035674D02*
X2516431Y-19054722D01*
X2516431Y-19054722D02*
X2516431Y-19159484D01*
X2516431Y-19054722D02*
X2525954Y-19035674D01*
X2525954Y-19035674D02*
X2545002Y-19026150D01*
X2545002Y-19026150D02*
X2573573Y-19026150D01*
X2573573Y-19026150D02*
X2592621Y-19035674D01*
X2592621Y-19035674D02*
X2602145Y-19054722D01*
X2602145Y-19054722D02*
X2602145Y-19159484D01*
X2992621Y-18949960D02*
X2821192Y-19207103D01*
X3249764Y-18959484D02*
X3268812Y-18959484D01*
X3268812Y-18959484D02*
X3287859Y-18969008D01*
X3287859Y-18969008D02*
X3297383Y-18978531D01*
X3297383Y-18978531D02*
X3306907Y-18997579D01*
X3306907Y-18997579D02*
X3316431Y-19035674D01*
X3316431Y-19035674D02*
X3316431Y-19083293D01*
X3316431Y-19083293D02*
X3306907Y-19121389D01*
X3306907Y-19121389D02*
X3297383Y-19140436D01*
X3297383Y-19140436D02*
X3287859Y-19149960D01*
X3287859Y-19149960D02*
X3268812Y-19159484D01*
X3268812Y-19159484D02*
X3249764Y-19159484D01*
X3249764Y-19159484D02*
X3230716Y-19149960D01*
X3230716Y-19149960D02*
X3221192Y-19140436D01*
X3221192Y-19140436D02*
X3211669Y-19121389D01*
X3211669Y-19121389D02*
X3202145Y-19083293D01*
X3202145Y-19083293D02*
X3202145Y-19035674D01*
X3202145Y-19035674D02*
X3211669Y-18997579D01*
X3211669Y-18997579D02*
X3221192Y-18978531D01*
X3221192Y-18978531D02*
X3230716Y-18969008D01*
X3230716Y-18969008D02*
X3249764Y-18959484D01*
X3402145Y-19140436D02*
X3411669Y-19149960D01*
X3411669Y-19149960D02*
X3402145Y-19159484D01*
X3402145Y-19159484D02*
X3392621Y-19149960D01*
X3392621Y-19149960D02*
X3402145Y-19140436D01*
X3402145Y-19140436D02*
X3402145Y-19159484D01*
X3602145Y-19159484D02*
X3487859Y-19159484D01*
X3545002Y-19159484D02*
X3545002Y-18959484D01*
X3545002Y-18959484D02*
X3525954Y-18988055D01*
X3525954Y-18988055D02*
X3506907Y-19007103D01*
X3506907Y-19007103D02*
X3487859Y-19016627D01*
X3678335Y-18978531D02*
X3687859Y-18969008D01*
X3687859Y-18969008D02*
X3706907Y-18959484D01*
X3706907Y-18959484D02*
X3754526Y-18959484D01*
X3754526Y-18959484D02*
X3773573Y-18969008D01*
X3773573Y-18969008D02*
X3783097Y-18978531D01*
X3783097Y-18978531D02*
X3792621Y-18997579D01*
X3792621Y-18997579D02*
X3792621Y-19016627D01*
X3792621Y-19016627D02*
X3783097Y-19045198D01*
X3783097Y-19045198D02*
X3668812Y-19159484D01*
X3668812Y-19159484D02*
X3792621Y-19159484D01*
X3964050Y-18959484D02*
X3925954Y-18959484D01*
X3925954Y-18959484D02*
X3906907Y-18969008D01*
X3906907Y-18969008D02*
X3897383Y-18978531D01*
X3897383Y-18978531D02*
X3878335Y-19007103D01*
X3878335Y-19007103D02*
X3868812Y-19045198D01*
X3868812Y-19045198D02*
X3868812Y-19121389D01*
X3868812Y-19121389D02*
X3878335Y-19140436D01*
X3878335Y-19140436D02*
X3887859Y-19149960D01*
X3887859Y-19149960D02*
X3906907Y-19159484D01*
X3906907Y-19159484D02*
X3945002Y-19159484D01*
X3945002Y-19159484D02*
X3964050Y-19149960D01*
X3964050Y-19149960D02*
X3973573Y-19140436D01*
X3973573Y-19140436D02*
X3983097Y-19121389D01*
X3983097Y-19121389D02*
X3983097Y-19073770D01*
X3983097Y-19073770D02*
X3973573Y-19054722D01*
X3973573Y-19054722D02*
X3964050Y-19045198D01*
X3964050Y-19045198D02*
X3945002Y-19035674D01*
X3945002Y-19035674D02*
X3906907Y-19035674D01*
X3906907Y-19035674D02*
X3887859Y-19045198D01*
X3887859Y-19045198D02*
X3878335Y-19054722D01*
X3878335Y-19054722D02*
X3868812Y-19073770D01*
X4106907Y-18959484D02*
X4125954Y-18959484D01*
X4125954Y-18959484D02*
X4145002Y-18969008D01*
X4145002Y-18969008D02*
X4154526Y-18978531D01*
X4154526Y-18978531D02*
X4164050Y-18997579D01*
X4164050Y-18997579D02*
X4173573Y-19035674D01*
X4173573Y-19035674D02*
X4173573Y-19083293D01*
X4173573Y-19083293D02*
X4164050Y-19121389D01*
X4164050Y-19121389D02*
X4154526Y-19140436D01*
X4154526Y-19140436D02*
X4145002Y-19149960D01*
X4145002Y-19149960D02*
X4125954Y-19159484D01*
X4125954Y-19159484D02*
X4106907Y-19159484D01*
X4106907Y-19159484D02*
X4087859Y-19149960D01*
X4087859Y-19149960D02*
X4078335Y-19140436D01*
X4078335Y-19140436D02*
X4068812Y-19121389D01*
X4068812Y-19121389D02*
X4059288Y-19083293D01*
X4059288Y-19083293D02*
X4059288Y-19035674D01*
X4059288Y-19035674D02*
X4068812Y-18997579D01*
X4068812Y-18997579D02*
X4078335Y-18978531D01*
X4078335Y-18978531D02*
X4087859Y-18969008D01*
X4087859Y-18969008D02*
X4106907Y-18959484D01*
X4249764Y-18959484D02*
X4249764Y-18997579D01*
X4325955Y-18959484D02*
X4325955Y-18997579D01*
X4621193Y-19235674D02*
X4611669Y-19226150D01*
X4611669Y-19226150D02*
X4592621Y-19197579D01*
X4592621Y-19197579D02*
X4583097Y-19178531D01*
X4583097Y-19178531D02*
X4573574Y-19149960D01*
X4573574Y-19149960D02*
X4564050Y-19102341D01*
X4564050Y-19102341D02*
X4564050Y-19064246D01*
X4564050Y-19064246D02*
X4573574Y-19016627D01*
X4573574Y-19016627D02*
X4583097Y-18988055D01*
X4583097Y-18988055D02*
X4592621Y-18969008D01*
X4592621Y-18969008D02*
X4611669Y-18940436D01*
X4611669Y-18940436D02*
X4621193Y-18930912D01*
X4783097Y-18959484D02*
X4745002Y-18959484D01*
X4745002Y-18959484D02*
X4725955Y-18969008D01*
X4725955Y-18969008D02*
X4716431Y-18978531D01*
X4716431Y-18978531D02*
X4697383Y-19007103D01*
X4697383Y-19007103D02*
X4687859Y-19045198D01*
X4687859Y-19045198D02*
X4687859Y-19121389D01*
X4687859Y-19121389D02*
X4697383Y-19140436D01*
X4697383Y-19140436D02*
X4706907Y-19149960D01*
X4706907Y-19149960D02*
X4725955Y-19159484D01*
X4725955Y-19159484D02*
X4764050Y-19159484D01*
X4764050Y-19159484D02*
X4783097Y-19149960D01*
X4783097Y-19149960D02*
X4792621Y-19140436D01*
X4792621Y-19140436D02*
X4802145Y-19121389D01*
X4802145Y-19121389D02*
X4802145Y-19073770D01*
X4802145Y-19073770D02*
X4792621Y-19054722D01*
X4792621Y-19054722D02*
X4783097Y-19045198D01*
X4783097Y-19045198D02*
X4764050Y-19035674D01*
X4764050Y-19035674D02*
X4725955Y-19035674D01*
X4725955Y-19035674D02*
X4706907Y-19045198D01*
X4706907Y-19045198D02*
X4697383Y-19054722D01*
X4697383Y-19054722D02*
X4687859Y-19073770D01*
X5040240Y-19159484D02*
X5040240Y-18959484D01*
X5125955Y-19159484D02*
X5125955Y-19054722D01*
X5125955Y-19054722D02*
X5116431Y-19035674D01*
X5116431Y-19035674D02*
X5097383Y-19026150D01*
X5097383Y-19026150D02*
X5068812Y-19026150D01*
X5068812Y-19026150D02*
X5049764Y-19035674D01*
X5049764Y-19035674D02*
X5040240Y-19045198D01*
X5249764Y-19159484D02*
X5230717Y-19149960D01*
X5230717Y-19149960D02*
X5221193Y-19140436D01*
X5221193Y-19140436D02*
X5211669Y-19121389D01*
X5211669Y-19121389D02*
X5211669Y-19064246D01*
X5211669Y-19064246D02*
X5221193Y-19045198D01*
X5221193Y-19045198D02*
X5230717Y-19035674D01*
X5230717Y-19035674D02*
X5249764Y-19026150D01*
X5249764Y-19026150D02*
X5278336Y-19026150D01*
X5278336Y-19026150D02*
X5297383Y-19035674D01*
X5297383Y-19035674D02*
X5306907Y-19045198D01*
X5306907Y-19045198D02*
X5316431Y-19064246D01*
X5316431Y-19064246D02*
X5316431Y-19121389D01*
X5316431Y-19121389D02*
X5306907Y-19140436D01*
X5306907Y-19140436D02*
X5297383Y-19149960D01*
X5297383Y-19149960D02*
X5278336Y-19159484D01*
X5278336Y-19159484D02*
X5249764Y-19159484D01*
X5430717Y-19159484D02*
X5411669Y-19149960D01*
X5411669Y-19149960D02*
X5402145Y-19130912D01*
X5402145Y-19130912D02*
X5402145Y-18959484D01*
X5583098Y-19149960D02*
X5564050Y-19159484D01*
X5564050Y-19159484D02*
X5525955Y-19159484D01*
X5525955Y-19159484D02*
X5506907Y-19149960D01*
X5506907Y-19149960D02*
X5497383Y-19130912D01*
X5497383Y-19130912D02*
X5497383Y-19054722D01*
X5497383Y-19054722D02*
X5506907Y-19035674D01*
X5506907Y-19035674D02*
X5525955Y-19026150D01*
X5525955Y-19026150D02*
X5564050Y-19026150D01*
X5564050Y-19026150D02*
X5583098Y-19035674D01*
X5583098Y-19035674D02*
X5592621Y-19054722D01*
X5592621Y-19054722D02*
X5592621Y-19073770D01*
X5592621Y-19073770D02*
X5497383Y-19092817D01*
X5668812Y-19149960D02*
X5687859Y-19159484D01*
X5687859Y-19159484D02*
X5725955Y-19159484D01*
X5725955Y-19159484D02*
X5745002Y-19149960D01*
X5745002Y-19149960D02*
X5754526Y-19130912D01*
X5754526Y-19130912D02*
X5754526Y-19121389D01*
X5754526Y-19121389D02*
X5745002Y-19102341D01*
X5745002Y-19102341D02*
X5725955Y-19092817D01*
X5725955Y-19092817D02*
X5697383Y-19092817D01*
X5697383Y-19092817D02*
X5678336Y-19083293D01*
X5678336Y-19083293D02*
X5668812Y-19064246D01*
X5668812Y-19064246D02*
X5668812Y-19054722D01*
X5668812Y-19054722D02*
X5678336Y-19035674D01*
X5678336Y-19035674D02*
X5697383Y-19026150D01*
X5697383Y-19026150D02*
X5725955Y-19026150D01*
X5725955Y-19026150D02*
X5745002Y-19035674D01*
X5821193Y-19235674D02*
X5830717Y-19226150D01*
X5830717Y-19226150D02*
X5849764Y-19197579D01*
X5849764Y-19197579D02*
X5859288Y-19178531D01*
X5859288Y-19178531D02*
X5868812Y-19149960D01*
X5868812Y-19149960D02*
X5878336Y-19102341D01*
X5878336Y-19102341D02*
X5878336Y-19064246D01*
X5878336Y-19064246D02*
X5868812Y-19016627D01*
X5868812Y-19016627D02*
X5859288Y-18988055D01*
X5859288Y-18988055D02*
X5849764Y-18969008D01*
X5849764Y-18969008D02*
X5830717Y-18940436D01*
X5830717Y-18940436D02*
X5821193Y-18930912D01*
M02*
