M48
; DRILL file {KiCad 7.0.9} date 
; FORMAT={-:-/ absolute / metric / decimal}
; #@! TF.CreationDate,2024-02-22T22:01:00+08:00
; #@! TF.GenerationSoftware,Kicad,Pcbnew,7.0.9
; #@! TF.FileFunction,Plated,1,2,PTH
FMAT,2
METRIC
; #@! TA.AperFunction,Plated,PTH,ViaDrill
T1C0.400
; #@! TA.AperFunction,Plated,PTH,ComponentDrill
T2C0.500
; #@! TA.AperFunction,Plated,PTH,ComponentDrill
T3C0.900
; #@! TA.AperFunction,Plated,PTH,ComponentDrill
T4C0.950
; #@! TA.AperFunction,Plated,PTH,ComponentDrill
T5C1.000
; #@! TA.AperFunction,Plated,PTH,ComponentDrill
T6C1.016
; #@! TA.AperFunction,Plated,PTH,ComponentDrill
T7C1.020
; #@! TA.AperFunction,Plated,PTH,ComponentDrill
T8C2.300
; #@! TA.AperFunction,Plated,PTH,ComponentDrill
T9C3.200
%
G90
G05
T1
X69.2Y-100.6
X71.2Y-112.8
X71.6Y-122.0
X72.2Y-112.2
X72.39Y-120.81
X72.39Y-130.81
X73.0Y-79.0
X74.0Y-100.6
X74.562Y-82.038
X75.6Y-83.2
X76.2Y-129.54
X76.6Y-79.2
X77.376Y-74.913
X80.212Y-138.188
X80.4Y-75.4
X80.4Y-79.0
X82.2Y-69.0
X82.2Y-120.8
X82.2Y-140.2
X82.8Y-111.8
X84.0Y-142.0
X86.4Y-111.2
X86.4Y-122.0
X86.4Y-144.315
X86.4Y-146.4
X87.788Y-111.212
X87.788Y-122.013
X87.8Y-90.0
X88.4Y-87.2
X88.8Y-111.2
X88.8Y-122.0
X89.8Y-146.4
X91.0Y-75.0
X91.4Y-84.2
X93.0Y-134.0
X93.1Y-136.7
X93.8Y-138.4
X93.8Y-139.4
X93.973Y-142.0
X94.2Y-143.524
X94.6Y-73.4
X94.8Y-109.2
X95.6Y-106.0
X95.6Y-107.0
X95.6Y-107.0
X96.6Y-106.0
X96.6Y-107.0
X96.8Y-73.4
X96.8Y-125.6
X98.6Y-126.325
X99.9Y-138.4
X99.9Y-141.7
X100.0Y-109.0
X100.4Y-100.8
X101.2Y-113.6
X101.2Y-114.6
X101.664Y-100.4
X102.0Y-104.0
X103.0Y-103.0
X103.2Y-75.0
X103.8Y-113.2
X104.0Y-72.4
X104.0Y-117.4
X104.524Y-146.275
X104.6Y-85.4
X104.6Y-87.4
X105.2Y-116.8
X105.4Y-78.0
X106.0Y-85.4
X106.0Y-87.4
X106.0Y-142.0
X106.2Y-152.0
X106.6Y-115.0
X106.948Y-98.845
X107.0Y-104.0
X107.3Y-112.5
X107.412Y-111.212
X107.8Y-113.8
X108.011Y-103.987
X108.1Y-142.0
X108.8Y-152.0
X109.724Y-110.6
X110.172Y-109.428
X110.5Y-142.0
X110.716Y-113.284
X111.2Y-102.4
X111.4Y-111.6
X112.6Y-70.0
X112.6Y-71.6
X113.364Y-106.816
X114.4Y-142.0
X114.8Y-111.0
X115.5Y-105.5
X116.4Y-112.4
X119.0Y-102.0
X122.1Y-102.2
X122.1Y-103.1
X122.1Y-105.5
X122.1Y-106.4
X122.1Y-109.0
X122.1Y-109.9
X123.0Y-102.2
X123.0Y-103.1
X123.0Y-105.5
X123.0Y-106.4
X123.0Y-109.0
X123.0Y-109.9
X123.2Y-113.0
X123.212Y-111.988
X129.4Y-85.0
X130.338Y-141.138
X130.4Y-138.4
X131.2Y-78.0
X131.8Y-85.0
X133.4Y-73.0
X133.812Y-78.012
T2
X96.885Y-90.268
X96.885Y-119.732
X97.588Y-88.571
X97.588Y-91.965
X97.588Y-118.035
X97.588Y-121.429
X99.285Y-87.868
X99.285Y-92.668
X99.285Y-117.332
X99.285Y-122.132
X100.982Y-88.571
X100.982Y-91.965
X100.982Y-118.035
X100.982Y-121.429
X101.685Y-90.268
X101.685Y-119.732
T3
X53.525Y-102.46
X53.525Y-105.0
X53.525Y-107.54
X54.622Y-94.131
X54.622Y-115.869
X55.279Y-91.677
X55.279Y-118.323
X55.936Y-89.224
X55.936Y-120.776
X59.151Y-81.462
X59.151Y-128.538
X60.421Y-79.263
X60.421Y-130.737
X61.691Y-77.063
X61.691Y-132.937
X66.806Y-70.398
X66.806Y-139.602
X68.602Y-68.602
X68.602Y-141.398
X70.398Y-66.806
X70.398Y-143.194
X77.063Y-61.691
X77.063Y-148.309
X79.263Y-60.421
X79.263Y-149.579
X81.462Y-59.151
X81.462Y-150.849
X89.224Y-55.936
X89.224Y-154.064
X91.677Y-55.279
X91.677Y-154.721
X94.131Y-54.622
X94.131Y-155.378
X102.46Y-53.525
X102.46Y-156.475
X105.0Y-53.525
X105.0Y-156.475
X107.54Y-53.525
X107.54Y-156.475
X115.869Y-54.622
X115.869Y-155.378
X118.323Y-55.279
X118.323Y-154.721
X120.776Y-55.936
X120.776Y-154.064
X128.538Y-59.151
X128.538Y-150.849
X130.737Y-60.421
X130.737Y-149.579
X132.937Y-61.691
X132.937Y-148.309
X139.602Y-66.806
X139.602Y-143.194
X141.398Y-68.602
X141.398Y-141.398
X143.194Y-70.398
X143.194Y-139.602
X148.309Y-77.063
X148.309Y-132.937
X149.579Y-79.263
X149.579Y-130.737
X150.849Y-81.462
X150.849Y-128.538
X154.064Y-89.224
X154.064Y-120.776
X154.721Y-91.677
X154.721Y-118.323
X155.378Y-94.131
X155.378Y-115.869
X156.475Y-102.46
X156.475Y-105.0
X156.475Y-107.54
T4
X102.5Y-139.2
X105.0Y-139.2
X107.5Y-139.2
T5
X72.0Y-88.475
X72.0Y-91.015
X72.0Y-93.555
X97.38Y-128.0
X97.38Y-130.54
X97.38Y-133.08
X97.38Y-135.62
X97.38Y-138.16
X97.38Y-140.7
X97.38Y-143.24
X98.65Y-65.11
X98.65Y-82.89
X101.19Y-65.11
X101.19Y-82.89
X103.73Y-65.11
X103.73Y-82.89
X106.27Y-65.11
X106.27Y-82.89
X108.81Y-65.11
X108.81Y-82.89
X111.35Y-65.11
X111.35Y-82.89
X112.62Y-128.0
X112.62Y-130.54
X112.62Y-133.08
X112.62Y-135.62
X112.62Y-138.16
X112.62Y-140.7
X112.62Y-143.24
X121.383Y-88.49
X121.383Y-121.256
X123.923Y-88.49
X123.923Y-121.256
X126.463Y-88.49
X126.463Y-121.256
X129.003Y-88.49
X129.003Y-121.256
X131.543Y-88.49
X131.543Y-121.256
X134.083Y-88.49
X134.083Y-121.256
X136.623Y-88.49
X136.623Y-121.256
X139.163Y-88.49
X139.163Y-121.256
T6
X147.0Y-100.038
X147.0Y-102.756
X147.0Y-105.474
T7
X76.76Y-88.49
X76.76Y-91.03
X76.76Y-93.57
X76.76Y-96.11
X76.76Y-98.65
X76.76Y-101.19
X76.76Y-103.73
X76.76Y-106.27
X76.76Y-108.81
X76.76Y-111.35
X76.76Y-113.89
X76.76Y-116.43
X76.76Y-118.97
X76.76Y-121.51
X92.0Y-88.49
X92.0Y-91.03
X92.0Y-93.57
X92.0Y-96.11
X92.0Y-98.65
X92.0Y-101.19
X92.0Y-103.73
X92.0Y-106.27
X92.0Y-108.81
X92.0Y-111.35
X92.0Y-113.89
X92.0Y-116.43
X92.0Y-118.97
X92.0Y-121.51
T8
X38.0Y-62.6
X42.8Y-62.6
X47.6Y-62.6
T9
X15.649Y-62.573
X15.649Y-147.427
X99.285Y-90.268
X99.285Y-119.732
X194.351Y-62.573
X194.351Y-147.427
T0
M30
