%TF.GenerationSoftware,KiCad,Pcbnew,7.0.9*%
%TF.CreationDate,2024-02-22T22:01:01+08:00*%
%TF.ProjectId,layer3,6c617965-7233-42e6-9b69-6361645f7063,0.1*%
%TF.SameCoordinates,Original*%
%TF.FileFunction,Drillmap*%
%TF.FilePolarity,Positive*%
%FSLAX45Y45*%
G04 Gerber Fmt 4.5, Leading zero omitted, Abs format (unit mm)*
G04 Created by KiCad (PCBNEW 7.0.9) date 2024-02-22 22:01:01*
%MOMM*%
%LPD*%
G01*
G04 APERTURE LIST*
%ADD10C,0.200000*%
G04 APERTURE END LIST*
D10*
X19595070Y-14742683D02*
G75*
G03*
X19595070Y-14742683I-160000J0D01*
G01*
X14116912Y-15251483D02*
X19435070Y-15251483D01*
X1564930Y-15251483D02*
X6883088Y-15251483D01*
X19435070Y-14233883D02*
X15481059Y-14233883D01*
X15481059Y-6766117D02*
X19435070Y-6766117D01*
X19435070Y-5748517D02*
X14116912Y-5748517D01*
X13449963Y-5564393D02*
G75*
G03*
X7550036Y-5564393I-2949963J-4935607D01*
G01*
X15481059Y-6766120D02*
G75*
G03*
X15192139Y-7146897I1J-300000D01*
G01*
X5518941Y-14233880D02*
G75*
G03*
X5807861Y-13853103I-1J300000D01*
G01*
X1724930Y-6257317D02*
G75*
G03*
X1724930Y-6257317I-160000J0D01*
G01*
X1724930Y-14742683D02*
G75*
G03*
X1724930Y-14742683I-160000J0D01*
G01*
X5807861Y-7146897D02*
G75*
G03*
X5807861Y-13853103I4692139J-3353103D01*
G01*
X15192139Y-13853103D02*
G75*
G03*
X15192139Y-7146897I-4692139J3353103D01*
G01*
X1564930Y-5748517D02*
G75*
G03*
X1564930Y-6766117I0J-508800D01*
G01*
X1564930Y-6766117D02*
X5518941Y-6766117D01*
X8200000Y-7200000D02*
X8900000Y-7200000D01*
X8900000Y-8400000D01*
X8200000Y-8400000D01*
X8200000Y-7200000D01*
X5518941Y-14233883D02*
X1564930Y-14233883D01*
X6883088Y-5748517D02*
X1564930Y-5748517D01*
X14116912Y-15251485D02*
G75*
G03*
X13449963Y-15435607I-2J-1300005D01*
G01*
X5807864Y-7146898D02*
G75*
G03*
X5518941Y-6766117I-288924J80778D01*
G01*
X11969000Y-12573000D02*
X12669000Y-12573000D01*
X12669000Y-13773000D01*
X11969000Y-13773000D01*
X11969000Y-12573000D01*
X7550036Y-15435607D02*
G75*
G03*
X13449963Y-15435607I2949964J4935607D01*
G01*
X11969000Y-7200000D02*
X12669000Y-7200000D01*
X12669000Y-8400000D01*
X11969000Y-8400000D01*
X11969000Y-7200000D01*
X8200000Y-12573000D02*
X8900000Y-12573000D01*
X8900000Y-13773000D01*
X8200000Y-13773000D01*
X8200000Y-12573000D01*
X19435070Y-6766117D02*
G75*
G03*
X19435070Y-5748517I0J508800D01*
G01*
X7550036Y-15435608D02*
G75*
G03*
X6883088Y-15251483I-666946J-1115862D01*
G01*
X19595070Y-6257317D02*
G75*
G03*
X19595070Y-6257317I-160000J0D01*
G01*
X15192136Y-13853102D02*
G75*
G03*
X15481059Y-14233883I288924J-80778D01*
G01*
X1564930Y-14233883D02*
G75*
G03*
X1564930Y-15251483I0J-508800D01*
G01*
X19435070Y-15251483D02*
G75*
G03*
X19435070Y-14233883I0J508800D01*
G01*
X13449964Y-5564392D02*
G75*
G03*
X14116912Y-5748517I666946J1115862D01*
G01*
X6883088Y-5748515D02*
G75*
G03*
X7550036Y-5564393I2J1300005D01*
G01*
X1306907Y-16571484D02*
X1306907Y-16371484D01*
X1306907Y-16371484D02*
X1354526Y-16371484D01*
X1354526Y-16371484D02*
X1383097Y-16381008D01*
X1383097Y-16381008D02*
X1402145Y-16400055D01*
X1402145Y-16400055D02*
X1411668Y-16419103D01*
X1411668Y-16419103D02*
X1421192Y-16457198D01*
X1421192Y-16457198D02*
X1421192Y-16485769D01*
X1421192Y-16485769D02*
X1411668Y-16523865D01*
X1411668Y-16523865D02*
X1402145Y-16542912D01*
X1402145Y-16542912D02*
X1383097Y-16561960D01*
X1383097Y-16561960D02*
X1354526Y-16571484D01*
X1354526Y-16571484D02*
X1306907Y-16571484D01*
X1506907Y-16571484D02*
X1506907Y-16438150D01*
X1506907Y-16476246D02*
X1516430Y-16457198D01*
X1516430Y-16457198D02*
X1525954Y-16447674D01*
X1525954Y-16447674D02*
X1545002Y-16438150D01*
X1545002Y-16438150D02*
X1564049Y-16438150D01*
X1630716Y-16571484D02*
X1630716Y-16438150D01*
X1630716Y-16371484D02*
X1621192Y-16381008D01*
X1621192Y-16381008D02*
X1630716Y-16390531D01*
X1630716Y-16390531D02*
X1640240Y-16381008D01*
X1640240Y-16381008D02*
X1630716Y-16371484D01*
X1630716Y-16371484D02*
X1630716Y-16390531D01*
X1754526Y-16571484D02*
X1735478Y-16561960D01*
X1735478Y-16561960D02*
X1725954Y-16542912D01*
X1725954Y-16542912D02*
X1725954Y-16371484D01*
X1859287Y-16571484D02*
X1840240Y-16561960D01*
X1840240Y-16561960D02*
X1830716Y-16542912D01*
X1830716Y-16542912D02*
X1830716Y-16371484D01*
X2087859Y-16571484D02*
X2087859Y-16371484D01*
X2087859Y-16371484D02*
X2154526Y-16514341D01*
X2154526Y-16514341D02*
X2221192Y-16371484D01*
X2221192Y-16371484D02*
X2221192Y-16571484D01*
X2402145Y-16571484D02*
X2402145Y-16466722D01*
X2402145Y-16466722D02*
X2392621Y-16447674D01*
X2392621Y-16447674D02*
X2373573Y-16438150D01*
X2373573Y-16438150D02*
X2335478Y-16438150D01*
X2335478Y-16438150D02*
X2316430Y-16447674D01*
X2402145Y-16561960D02*
X2383097Y-16571484D01*
X2383097Y-16571484D02*
X2335478Y-16571484D01*
X2335478Y-16571484D02*
X2316430Y-16561960D01*
X2316430Y-16561960D02*
X2306907Y-16542912D01*
X2306907Y-16542912D02*
X2306907Y-16523865D01*
X2306907Y-16523865D02*
X2316430Y-16504817D01*
X2316430Y-16504817D02*
X2335478Y-16495293D01*
X2335478Y-16495293D02*
X2383097Y-16495293D01*
X2383097Y-16495293D02*
X2402145Y-16485769D01*
X2497383Y-16438150D02*
X2497383Y-16638150D01*
X2497383Y-16447674D02*
X2516430Y-16438150D01*
X2516430Y-16438150D02*
X2554526Y-16438150D01*
X2554526Y-16438150D02*
X2573573Y-16447674D01*
X2573573Y-16447674D02*
X2583097Y-16457198D01*
X2583097Y-16457198D02*
X2592621Y-16476246D01*
X2592621Y-16476246D02*
X2592621Y-16533388D01*
X2592621Y-16533388D02*
X2583097Y-16552436D01*
X2583097Y-16552436D02*
X2573573Y-16561960D01*
X2573573Y-16561960D02*
X2554526Y-16571484D01*
X2554526Y-16571484D02*
X2516430Y-16571484D01*
X2516430Y-16571484D02*
X2497383Y-16561960D01*
X2678335Y-16552436D02*
X2687859Y-16561960D01*
X2687859Y-16561960D02*
X2678335Y-16571484D01*
X2678335Y-16571484D02*
X2668811Y-16561960D01*
X2668811Y-16561960D02*
X2678335Y-16552436D01*
X2678335Y-16552436D02*
X2678335Y-16571484D01*
X2678335Y-16447674D02*
X2687859Y-16457198D01*
X2687859Y-16457198D02*
X2678335Y-16466722D01*
X2678335Y-16466722D02*
X2668811Y-16457198D01*
X2668811Y-16457198D02*
X2678335Y-16447674D01*
X2678335Y-16447674D02*
X2678335Y-16466722D01*
M02*
