M48
; DRILL file {KiCad 7.0.9} date 
; FORMAT={-:-/ absolute / metric / decimal}
; #@! TF.CreationDate,2023-12-19T12:29:02+08:00
; #@! TF.GenerationSoftware,Kicad,Pcbnew,7.0.9
; #@! TF.FileFunction,Plated,1,2,PTH
FMAT,2
METRIC
; #@! TA.AperFunction,Plated,PTH,ViaDrill
T1C0.400
; #@! TA.AperFunction,Plated,PTH,ComponentDrill
T2C0.950
; #@! TA.AperFunction,Plated,PTH,ComponentDrill
T3C1.000
; #@! TA.AperFunction,Plated,PTH,ComponentDrill
T4C1.800
; #@! TA.AperFunction,Plated,PTH,ComponentDrill
T5C1.900
; #@! TA.AperFunction,Plated,PTH,ComponentDrill
T6C2.200
; #@! TA.AperFunction,Plated,PTH,ComponentDrill
T7C2.500
; #@! TA.AperFunction,Plated,PTH,ComponentDrill
T8C3.000
; #@! TA.AperFunction,Plated,PTH,ComponentDrill
T9C3.200
%
G90
G05
T1
X76.25Y-164.25
T2
X63.942Y-168.955
X65.292Y-166.851
X66.643Y-164.747
T3
X103.75Y-152.5
X106.25Y-152.5
X114.0Y-146.0
X125.0Y-146.0
T4
X102.5Y-145.0
X107.5Y-145.0
X143.357Y-164.747
X146.058Y-168.955
T5
X117.0Y-141.0
X122.0Y-141.0
T6
X63.306Y-29.783
X146.694Y-29.783
T7
X36.0Y-102.0
X36.0Y-108.0
X51.0Y-102.0
X51.0Y-108.0
X159.0Y-102.0
X159.0Y-108.0
X174.0Y-102.0
X174.0Y-108.0
T8
X82.0Y-175.0
X82.0Y-181.0
X128.0Y-175.0
X128.0Y-181.0
T9
X27.498Y-72.604
X27.498Y-137.396
X54.135Y-80.595
X54.135Y-129.405
X59.638Y-34.301
X59.638Y-175.699
X72.133Y-59.146
X72.133Y-150.854
X77.988Y-147.076
X102.0Y-78.0
X102.0Y-102.0
X102.0Y-108.0
X102.0Y-132.0
X108.0Y-78.0
X108.0Y-102.0
X108.0Y-108.0
X108.0Y-132.0
X132.012Y-147.076
X137.867Y-59.146
X137.867Y-150.854
X150.362Y-175.699
X150.362Y-34.301
X155.865Y-80.595
X155.865Y-129.405
X182.501Y-72.604
X182.501Y-137.396
T0
M30
