%TF.GenerationSoftware,KiCad,Pcbnew,7.0.9*%
%TF.CreationDate,2023-12-19T12:29:03+08:00*%
%TF.ProjectId,layer2,6c617965-7232-42e6-9b69-6361645f7063,rev?*%
%TF.SameCoordinates,Original*%
%TF.FileFunction,Drillmap*%
%TF.FilePolarity,Positive*%
%FSLAX45Y45*%
G04 Gerber Fmt 4.5, Leading zero omitted, Abs format (unit mm)*
G04 Created by KiCad (PCBNEW 7.0.9) date 2023-12-19 12:29:03*
%MOMM*%
%LPD*%
G01*
G04 APERTURE LIST*
%ADD10C,0.200000*%
%ADD11C,0.100000*%
%ADD12C,0.180000*%
%ADD13C,0.190000*%
%ADD14C,0.220000*%
%ADD15C,0.250000*%
%ADD16C,0.300000*%
%ADD17C,0.320000*%
G04 APERTURE END LIST*
D10*
X2994466Y-6436770D02*
G75*
G03*
X2533081Y-6532859I-192838J-229807D01*
G01*
X2994465Y-14563230D02*
X4113937Y-13623881D01*
X15196211Y-17569851D02*
G75*
G03*
X15196211Y-17569851I-160000J0D01*
G01*
X5650000Y-12650000D02*
X3650000Y-12650000D01*
X14779363Y-2978270D02*
G75*
G03*
X14779363Y-2978270I-110000J0D01*
G01*
X15350000Y-11350000D02*
X17350000Y-11350000D01*
X7300000Y-11000000D02*
X10000000Y-11000000D01*
X10960000Y-10800000D02*
G75*
G03*
X10960000Y-10800000I-160000J0D01*
G01*
X7300000Y-10000000D02*
X7300000Y-8000000D01*
X6123789Y-3430149D02*
G75*
G03*
X6123789Y-3430149I-160000J0D01*
G01*
X2533084Y-14467139D02*
G75*
G03*
X2994465Y-14563230I268546J133719D01*
G01*
X15746489Y-8059499D02*
G75*
G03*
X15746489Y-8059499I-160000J0D01*
G01*
X15790311Y-3343004D02*
G75*
G03*
X14639536Y-2621279I-5290361J-7157066D01*
G01*
X8500000Y-16800000D02*
G75*
G03*
X8700000Y-17000000I200000J0D01*
G01*
X2909851Y-13739629D02*
G75*
G03*
X2909851Y-13739629I-160000J0D01*
G01*
X17350000Y-8350000D02*
X17350000Y-9650000D01*
X18410149Y-7260371D02*
G75*
G03*
X18410149Y-7260371I-160000J0D01*
G01*
X6799997Y-2886853D02*
G75*
G03*
X6360465Y-2621279I-299997J4D01*
G01*
X6800000Y-5100000D02*
G75*
G03*
X7200000Y-5500000I400000J0D01*
G01*
X5573511Y-12940501D02*
G75*
G03*
X5573511Y-12940501I-160000J0D01*
G01*
X7700000Y-6900000D02*
G75*
G03*
X8000000Y-7200000I300000J0D01*
G01*
X13000000Y-7200000D02*
G75*
G03*
X13300000Y-6900000I0J300000D01*
G01*
X16886064Y-13623880D02*
G75*
G03*
X16181647Y-13685510I-321394J-383020D01*
G01*
X13000000Y-7200000D02*
X8000000Y-7200000D01*
X6376278Y-5457829D02*
G75*
G03*
X6314649Y-4753412I-383023J321394D01*
G01*
X15350000Y-12650000D02*
X15350000Y-11350000D01*
X5195177Y-17185937D02*
G75*
G03*
X5209688Y-17656997I192833J-229813D01*
G01*
X10960000Y-7800000D02*
G75*
G03*
X10960000Y-7800000I-160000J0D01*
G01*
X7373317Y-15085425D02*
G75*
G03*
X7373317Y-15085425I-160000J0D01*
G01*
X15350000Y-9650000D02*
X15350000Y-8350000D01*
X17350000Y-9650000D02*
X15350000Y-9650000D01*
X10000000Y-8000000D02*
X10000000Y-10000000D01*
X4113937Y-7376119D02*
X2994465Y-6436770D01*
X7700000Y-5800000D02*
G75*
G03*
X7400000Y-5500000I-300000J0D01*
G01*
X3650000Y-12650000D02*
X3650000Y-11350000D01*
X8500000Y-16200000D02*
X8500000Y-16800000D01*
X13700000Y-11000000D02*
X13700000Y-13000000D01*
X7300000Y-8000000D02*
X10000000Y-8000000D01*
X15196211Y-3430149D02*
G75*
G03*
X15196211Y-3430149I-160000J0D01*
G01*
X7373317Y-5914575D02*
G75*
G03*
X7373317Y-5914575I-160000J0D01*
G01*
X16181648Y-7314489D02*
G75*
G03*
X16886063Y-7376119I383022J321389D01*
G01*
X13946683Y-5914575D02*
G75*
G03*
X13946683Y-5914575I-160000J0D01*
G01*
X10360000Y-10200000D02*
G75*
G03*
X10360000Y-10200000I-160000J0D01*
G01*
X10000000Y-10000000D02*
X7300000Y-10000000D01*
X3650000Y-9650000D02*
X3650000Y-8350000D01*
X13300000Y-5800000D02*
X13300000Y-6900000D01*
X11000000Y-13000000D02*
X11000000Y-11000000D01*
X7300000Y-13000000D02*
X7300000Y-11000000D01*
X6376278Y-5457828D02*
X4818353Y-7314490D01*
X14200000Y-2886853D02*
X14200000Y-5100000D01*
X7700000Y-6900000D02*
X7700000Y-5800000D01*
X4818353Y-13685510D02*
X6376278Y-15542172D01*
X12500000Y-16800000D02*
X12500000Y-16200000D01*
X7400000Y-5500000D02*
X7200000Y-5500000D01*
X10000000Y-11000000D02*
X10000000Y-13000000D01*
X11000000Y-10000000D02*
X11000000Y-8000000D01*
X5650000Y-9650000D02*
X3650000Y-9650000D01*
X8700000Y-17000000D02*
X12300000Y-17000000D01*
X18005533Y-14563232D02*
G75*
G03*
X18466919Y-14467140I192837J229812D01*
G01*
X10360000Y-10800000D02*
G75*
G03*
X10360000Y-10800000I-160000J0D01*
G01*
X14685351Y-4753412D02*
X15804823Y-3814064D01*
X11310000Y-18000000D02*
G75*
G03*
X11310000Y-18000000I-810000J0D01*
G01*
X10360000Y-7800000D02*
G75*
G03*
X10360000Y-7800000I-160000J0D01*
G01*
X13946683Y-15085425D02*
G75*
G03*
X13946683Y-15085425I-160000J0D01*
G01*
X15746489Y-12940501D02*
G75*
G03*
X15746489Y-12940501I-160000J0D01*
G01*
X18005535Y-6436770D02*
X16886063Y-7376119D01*
X10960000Y-13200000D02*
G75*
G03*
X10960000Y-13200000I-160000J0D01*
G01*
X13800000Y-5500000D02*
G75*
G03*
X14200000Y-5100000I0J400000D01*
G01*
X12300000Y-16000000D02*
X8700000Y-16000000D01*
X14623722Y-15542172D02*
X16181647Y-13685510D01*
X13700000Y-8000000D02*
X13700000Y-10000000D01*
X4113938Y-7376118D02*
G75*
G03*
X4818353Y-7314490I321394J383015D01*
G01*
X17350000Y-12650000D02*
X15350000Y-12650000D01*
X18466919Y-14467140D02*
G75*
G03*
X18466919Y-6532859I-7966919J3967140D01*
G01*
X2533081Y-6532859D02*
G75*
G03*
X2533081Y-14467140I7966919J-3967141D01*
G01*
X11000000Y-8000000D02*
X13700000Y-8000000D01*
X13700000Y-10000000D02*
X11000000Y-10000000D01*
X13600000Y-5500000D02*
G75*
G03*
X13300000Y-5800000I0J-300000D01*
G01*
X5650000Y-8350000D02*
X5650000Y-9650000D01*
X5650000Y-11350000D02*
X5650000Y-12650000D01*
X15790312Y-17656997D02*
G75*
G03*
X15804823Y-17185936I-178322J241247D01*
G01*
X6360465Y-2621279D02*
G75*
G03*
X5209688Y-3343003I4139525J-7878711D01*
G01*
X5195177Y-3814064D02*
X6314649Y-4753412D01*
X10960000Y-10200000D02*
G75*
G03*
X10960000Y-10200000I-160000J0D01*
G01*
X15350000Y-8350000D02*
X17350000Y-8350000D01*
X13700000Y-13000000D02*
X11000000Y-13000000D01*
X5209688Y-17656997D02*
G75*
G03*
X15790312Y-17656997I5290312J7156997D01*
G01*
X14623722Y-15542171D02*
G75*
G03*
X14685351Y-16246588I383023J-321394D01*
G01*
X2909851Y-7260371D02*
G75*
G03*
X2909851Y-7260371I-160000J0D01*
G01*
X4818352Y-13685511D02*
G75*
G03*
X4113937Y-13623881I-383022J-321389D01*
G01*
X18410149Y-13739629D02*
G75*
G03*
X18410149Y-13739629I-160000J0D01*
G01*
X12300000Y-17000000D02*
G75*
G03*
X12500000Y-16800000I0J200000D01*
G01*
X6314649Y-16246588D02*
X5195177Y-17185936D01*
X14639537Y-2621277D02*
G75*
G03*
X14200000Y-2886853I-139538J-265573D01*
G01*
X6123789Y-17569851D02*
G75*
G03*
X6123789Y-17569851I-160000J0D01*
G01*
X18466916Y-6532861D02*
G75*
G03*
X18005535Y-6436770I-268546J-133719D01*
G01*
X6440637Y-2978270D02*
G75*
G03*
X6440637Y-2978270I-110000J0D01*
G01*
X13800000Y-5500000D02*
X13600000Y-5500000D01*
X16181647Y-7314490D02*
X14623722Y-5457828D01*
X15804823Y-3814063D02*
G75*
G03*
X15790312Y-3343003I-192833J229813D01*
G01*
X6314650Y-16246588D02*
G75*
G03*
X6376278Y-15542172I-321393J383022D01*
G01*
X3650000Y-8350000D02*
X5650000Y-8350000D01*
X8700000Y-16000000D02*
G75*
G03*
X8500000Y-16200000I0J-200000D01*
G01*
X5209688Y-3343003D02*
G75*
G03*
X5195177Y-3814064I178322J-241247D01*
G01*
X10000000Y-13000000D02*
X7300000Y-13000000D01*
X3650000Y-11350000D02*
X5650000Y-11350000D01*
X17350000Y-11350000D02*
X17350000Y-12650000D01*
X12500000Y-16200000D02*
G75*
G03*
X12300000Y-16000000I-200000J0D01*
G01*
X11000000Y-11000000D02*
X13700000Y-11000000D01*
X14685350Y-4753412D02*
G75*
G03*
X14623722Y-5457828I321393J-383022D01*
G01*
X10360000Y-13200000D02*
G75*
G03*
X10360000Y-13200000I-160000J0D01*
G01*
X5573511Y-8059499D02*
G75*
G03*
X5573511Y-8059499I-160000J0D01*
G01*
X6800000Y-5100000D02*
X6800000Y-2886853D01*
X16886063Y-13623881D02*
X18005535Y-14563230D01*
X15804823Y-17185936D02*
X14685351Y-16246588D01*
D11*
X7605000Y-16405000D02*
X7645000Y-16445000D01*
X7645000Y-16405000D02*
X7605000Y-16445000D01*
X6441683Y-16895488D02*
G75*
G03*
X6441683Y-16895488I-47500J0D01*
G01*
X6576739Y-16685108D02*
G75*
G03*
X6576739Y-16685108I-47500J0D01*
G01*
X6711796Y-16474728D02*
G75*
G03*
X6711796Y-16474728I-47500J0D01*
G01*
X10375000Y-15200000D02*
X10375000Y-15300000D01*
X10325000Y-15250000D02*
X10425000Y-15250000D01*
X10625000Y-15200000D02*
X10625000Y-15300000D01*
X10575000Y-15250000D02*
X10675000Y-15250000D01*
X11400000Y-14550000D02*
X11400000Y-14650000D01*
X11350000Y-14600000D02*
X11450000Y-14600000D01*
X12500000Y-14550000D02*
X12500000Y-14650000D01*
X12450000Y-14600000D02*
X12550000Y-14600000D01*
D12*
X10313640Y-14563640D02*
X10313640Y-14436360D01*
X10186360Y-14436360D01*
X10186360Y-14563640D01*
X10313640Y-14563640D01*
X10813640Y-14563640D02*
X10813640Y-14436360D01*
X10686360Y-14436360D01*
X10686360Y-14563640D01*
X10813640Y-14563640D01*
X14399344Y-16538368D02*
X14399344Y-16411088D01*
X14272064Y-16411088D01*
X14272064Y-16538368D01*
X14399344Y-16538368D01*
X14669465Y-16959124D02*
X14669465Y-16831843D01*
X14542184Y-16831843D01*
X14542184Y-16959124D01*
X14669465Y-16959124D01*
D13*
X11700000Y-14195000D02*
X11795000Y-14100000D01*
X11700000Y-14005000D01*
X11605000Y-14100000D01*
X11700000Y-14195000D01*
X12200000Y-14195000D02*
X12295000Y-14100000D01*
X12200000Y-14005000D01*
X12105000Y-14100000D01*
X12200000Y-14195000D01*
D14*
X6220637Y-2868270D02*
X6440637Y-3088270D01*
X6440637Y-2868270D02*
X6220637Y-3088270D01*
X6440637Y-2978270D02*
G75*
G03*
X6440637Y-2978270I-110000J0D01*
G01*
X14559363Y-2868270D02*
X14779363Y-3088270D01*
X14779363Y-2868270D02*
X14559363Y-3088270D01*
X14779363Y-2978270D02*
G75*
G03*
X14779363Y-2978270I-110000J0D01*
G01*
D15*
X3475000Y-10075000D02*
X3725000Y-10325000D01*
X3725000Y-10075000D02*
X3475000Y-10325000D01*
X3600000Y-10075000D02*
X3600000Y-10325000D01*
X3475000Y-10200000D02*
X3725000Y-10200000D01*
X3475000Y-10675000D02*
X3725000Y-10925000D01*
X3725000Y-10675000D02*
X3475000Y-10925000D01*
X3600000Y-10675000D02*
X3600000Y-10925000D01*
X3475000Y-10800000D02*
X3725000Y-10800000D01*
X4975000Y-10075000D02*
X5225000Y-10325000D01*
X5225000Y-10075000D02*
X4975000Y-10325000D01*
X5100000Y-10075000D02*
X5100000Y-10325000D01*
X4975000Y-10200000D02*
X5225000Y-10200000D01*
X4975000Y-10675000D02*
X5225000Y-10925000D01*
X5225000Y-10675000D02*
X4975000Y-10925000D01*
X5100000Y-10675000D02*
X5100000Y-10925000D01*
X4975000Y-10800000D02*
X5225000Y-10800000D01*
X15775000Y-10075000D02*
X16025000Y-10325000D01*
X16025000Y-10075000D02*
X15775000Y-10325000D01*
X15900000Y-10075000D02*
X15900000Y-10325000D01*
X15775000Y-10200000D02*
X16025000Y-10200000D01*
X15775000Y-10675000D02*
X16025000Y-10925000D01*
X16025000Y-10675000D02*
X15775000Y-10925000D01*
X15900000Y-10675000D02*
X15900000Y-10925000D01*
X15775000Y-10800000D02*
X16025000Y-10800000D01*
X17275000Y-10075000D02*
X17525000Y-10325000D01*
X17525000Y-10075000D02*
X17275000Y-10325000D01*
X17400000Y-10075000D02*
X17400000Y-10325000D01*
X17275000Y-10200000D02*
X17525000Y-10200000D01*
X17275000Y-10675000D02*
X17525000Y-10925000D01*
X17525000Y-10675000D02*
X17275000Y-10925000D01*
X17400000Y-10675000D02*
X17400000Y-10925000D01*
X17275000Y-10800000D02*
X17525000Y-10800000D01*
D16*
X8050000Y-17350000D02*
X8350000Y-17650000D01*
X8350000Y-17350000D02*
X8050000Y-17650000D01*
X8306067Y-17606067D02*
X8306067Y-17393933D01*
X8093933Y-17393933D01*
X8093933Y-17606067D01*
X8306067Y-17606067D01*
X8050000Y-17950000D02*
X8350000Y-18250000D01*
X8350000Y-17950000D02*
X8050000Y-18250000D01*
X8306067Y-18206067D02*
X8306067Y-17993933D01*
X8093933Y-17993933D01*
X8093933Y-18206067D01*
X8306067Y-18206067D01*
X12650000Y-17350000D02*
X12950000Y-17650000D01*
X12950000Y-17350000D02*
X12650000Y-17650000D01*
X12906067Y-17606067D02*
X12906067Y-17393933D01*
X12693933Y-17393933D01*
X12693933Y-17606067D01*
X12906067Y-17606067D01*
X12650000Y-17950000D02*
X12950000Y-18250000D01*
X12950000Y-17950000D02*
X12650000Y-18250000D01*
X12906067Y-18206067D02*
X12906067Y-17993933D01*
X12693933Y-17993933D01*
X12693933Y-18206067D01*
X12906067Y-18206067D01*
D17*
X2589850Y-7100370D02*
X2909850Y-7420370D01*
X2909850Y-7100370D02*
X2589850Y-7420370D01*
X2749850Y-7420370D02*
X2909850Y-7260370D01*
X2749850Y-7100370D01*
X2589850Y-7260370D01*
X2749850Y-7420370D01*
X2589850Y-13579600D02*
X2909850Y-13899600D01*
X2909850Y-13579600D02*
X2589850Y-13899600D01*
X2749850Y-13899600D02*
X2909850Y-13739600D01*
X2749850Y-13579600D01*
X2589850Y-13739600D01*
X2749850Y-13899600D01*
X5253510Y-7899500D02*
X5573510Y-8219500D01*
X5573510Y-7899500D02*
X5253510Y-8219500D01*
X5413510Y-8219500D02*
X5573510Y-8059500D01*
X5413510Y-7899500D01*
X5253510Y-8059500D01*
X5413510Y-8219500D01*
X5253510Y-12780500D02*
X5573510Y-13100500D01*
X5573510Y-12780500D02*
X5253510Y-13100500D01*
X5413510Y-13100500D02*
X5573510Y-12940500D01*
X5413510Y-12780500D01*
X5253510Y-12940500D01*
X5413510Y-13100500D01*
X5803789Y-3270149D02*
X6123789Y-3590149D01*
X6123789Y-3270149D02*
X5803789Y-3590149D01*
X5963789Y-3590149D02*
X6123789Y-3430149D01*
X5963789Y-3270149D01*
X5803789Y-3430149D01*
X5963789Y-3590149D01*
X5803790Y-17409900D02*
X6123790Y-17729900D01*
X6123790Y-17409900D02*
X5803790Y-17729900D01*
X5963790Y-17729900D02*
X6123790Y-17569900D01*
X5963790Y-17409900D01*
X5803790Y-17569900D01*
X5963790Y-17729900D01*
X7053320Y-5754570D02*
X7373320Y-6074570D01*
X7373320Y-5754570D02*
X7053320Y-6074570D01*
X7213320Y-6074570D02*
X7373320Y-5914570D01*
X7213320Y-5754570D01*
X7053320Y-5914570D01*
X7213320Y-6074570D01*
X7053320Y-14925400D02*
X7373320Y-15245400D01*
X7373320Y-14925400D02*
X7053320Y-15245400D01*
X7213320Y-15245400D02*
X7373320Y-15085400D01*
X7213320Y-14925400D01*
X7053320Y-15085400D01*
X7213320Y-15245400D01*
X7638798Y-14547554D02*
X7958798Y-14867554D01*
X7958798Y-14547554D02*
X7638798Y-14867554D01*
X7798798Y-14867554D02*
X7958798Y-14707554D01*
X7798798Y-14547554D01*
X7638798Y-14707554D01*
X7798798Y-14867554D01*
X10040000Y-7640000D02*
X10360000Y-7960000D01*
X10360000Y-7640000D02*
X10040000Y-7960000D01*
X10200000Y-7960000D02*
X10360000Y-7800000D01*
X10200000Y-7640000D01*
X10040000Y-7800000D01*
X10200000Y-7960000D01*
X10040000Y-10040000D02*
X10360000Y-10360000D01*
X10360000Y-10040000D02*
X10040000Y-10360000D01*
X10200000Y-10360000D02*
X10360000Y-10200000D01*
X10200000Y-10040000D01*
X10040000Y-10200000D01*
X10200000Y-10360000D01*
X10040000Y-10640000D02*
X10360000Y-10960000D01*
X10360000Y-10640000D02*
X10040000Y-10960000D01*
X10200000Y-10960000D02*
X10360000Y-10800000D01*
X10200000Y-10640000D01*
X10040000Y-10800000D01*
X10200000Y-10960000D01*
X10040000Y-13040000D02*
X10360000Y-13360000D01*
X10360000Y-13040000D02*
X10040000Y-13360000D01*
X10200000Y-13360000D02*
X10360000Y-13200000D01*
X10200000Y-13040000D01*
X10040000Y-13200000D01*
X10200000Y-13360000D01*
X10640000Y-7640000D02*
X10960000Y-7960000D01*
X10960000Y-7640000D02*
X10640000Y-7960000D01*
X10800000Y-7960000D02*
X10960000Y-7800000D01*
X10800000Y-7640000D01*
X10640000Y-7800000D01*
X10800000Y-7960000D01*
X10640000Y-10040000D02*
X10960000Y-10360000D01*
X10960000Y-10040000D02*
X10640000Y-10360000D01*
X10800000Y-10360000D02*
X10960000Y-10200000D01*
X10800000Y-10040000D01*
X10640000Y-10200000D01*
X10800000Y-10360000D01*
X10640000Y-10640000D02*
X10960000Y-10960000D01*
X10960000Y-10640000D02*
X10640000Y-10960000D01*
X10800000Y-10960000D02*
X10960000Y-10800000D01*
X10800000Y-10640000D01*
X10640000Y-10800000D01*
X10800000Y-10960000D01*
X10640000Y-13040000D02*
X10960000Y-13360000D01*
X10960000Y-13040000D02*
X10640000Y-13360000D01*
X10800000Y-13360000D02*
X10960000Y-13200000D01*
X10800000Y-13040000D01*
X10640000Y-13200000D01*
X10800000Y-13360000D01*
X13041202Y-14547554D02*
X13361202Y-14867554D01*
X13361202Y-14547554D02*
X13041202Y-14867554D01*
X13201202Y-14867554D02*
X13361202Y-14707554D01*
X13201202Y-14547554D01*
X13041202Y-14707554D01*
X13201202Y-14867554D01*
X13626700Y-5754570D02*
X13946700Y-6074570D01*
X13946700Y-5754570D02*
X13626700Y-6074570D01*
X13786700Y-6074570D02*
X13946700Y-5914570D01*
X13786700Y-5754570D01*
X13626700Y-5914570D01*
X13786700Y-6074570D01*
X13626700Y-14925400D02*
X13946700Y-15245400D01*
X13946700Y-14925400D02*
X13626700Y-15245400D01*
X13786700Y-15245400D02*
X13946700Y-15085400D01*
X13786700Y-14925400D01*
X13626700Y-15085400D01*
X13786700Y-15245400D01*
X14876200Y-17409900D02*
X15196200Y-17729900D01*
X15196200Y-17409900D02*
X14876200Y-17729900D01*
X15036200Y-17729900D02*
X15196200Y-17569900D01*
X15036200Y-17409900D01*
X14876200Y-17569900D01*
X15036200Y-17729900D01*
X14876211Y-3270149D02*
X15196211Y-3590149D01*
X15196211Y-3270149D02*
X14876211Y-3590149D01*
X15036211Y-3590149D02*
X15196211Y-3430149D01*
X15036211Y-3270149D01*
X14876211Y-3430149D01*
X15036211Y-3590149D01*
X15426500Y-7899500D02*
X15746500Y-8219500D01*
X15746500Y-7899500D02*
X15426500Y-8219500D01*
X15586500Y-8219500D02*
X15746500Y-8059500D01*
X15586500Y-7899500D01*
X15426500Y-8059500D01*
X15586500Y-8219500D01*
X15426500Y-12780500D02*
X15746500Y-13100500D01*
X15746500Y-12780500D02*
X15426500Y-13100500D01*
X15586500Y-13100500D02*
X15746500Y-12940500D01*
X15586500Y-12780500D01*
X15426500Y-12940500D01*
X15586500Y-13100500D01*
X18090100Y-7100370D02*
X18410100Y-7420370D01*
X18410100Y-7100370D02*
X18090100Y-7420370D01*
X18250100Y-7420370D02*
X18410100Y-7260370D01*
X18250100Y-7100370D01*
X18090100Y-7260370D01*
X18250100Y-7420370D01*
X18090100Y-13579600D02*
X18410100Y-13899600D01*
X18410100Y-13579600D02*
X18090100Y-13899600D01*
X18250100Y-13899600D02*
X18410100Y-13739600D01*
X18250100Y-13579600D01*
X18090100Y-13739600D01*
X18250100Y-13899600D01*
D10*
X1850777Y-19721484D02*
X1850777Y-19521484D01*
X1850777Y-19521484D02*
X1898396Y-19521484D01*
X1898396Y-19521484D02*
X1926967Y-19531008D01*
X1926967Y-19531008D02*
X1946015Y-19550055D01*
X1946015Y-19550055D02*
X1955539Y-19569103D01*
X1955539Y-19569103D02*
X1965062Y-19607198D01*
X1965062Y-19607198D02*
X1965062Y-19635770D01*
X1965062Y-19635770D02*
X1955539Y-19673865D01*
X1955539Y-19673865D02*
X1946015Y-19692912D01*
X1946015Y-19692912D02*
X1926967Y-19711960D01*
X1926967Y-19711960D02*
X1898396Y-19721484D01*
X1898396Y-19721484D02*
X1850777Y-19721484D01*
X2050777Y-19721484D02*
X2050777Y-19588150D01*
X2050777Y-19626246D02*
X2060301Y-19607198D01*
X2060301Y-19607198D02*
X2069824Y-19597674D01*
X2069824Y-19597674D02*
X2088872Y-19588150D01*
X2088872Y-19588150D02*
X2107920Y-19588150D01*
X2174586Y-19721484D02*
X2174586Y-19588150D01*
X2174586Y-19521484D02*
X2165063Y-19531008D01*
X2165063Y-19531008D02*
X2174586Y-19540531D01*
X2174586Y-19540531D02*
X2184110Y-19531008D01*
X2184110Y-19531008D02*
X2174586Y-19521484D01*
X2174586Y-19521484D02*
X2174586Y-19540531D01*
X2298396Y-19721484D02*
X2279348Y-19711960D01*
X2279348Y-19711960D02*
X2269824Y-19692912D01*
X2269824Y-19692912D02*
X2269824Y-19521484D01*
X2403158Y-19721484D02*
X2384110Y-19711960D01*
X2384110Y-19711960D02*
X2374586Y-19692912D01*
X2374586Y-19692912D02*
X2374586Y-19521484D01*
X2631729Y-19721484D02*
X2631729Y-19521484D01*
X2631729Y-19521484D02*
X2698396Y-19664341D01*
X2698396Y-19664341D02*
X2765063Y-19521484D01*
X2765063Y-19521484D02*
X2765063Y-19721484D01*
X2946015Y-19721484D02*
X2946015Y-19616722D01*
X2946015Y-19616722D02*
X2936491Y-19597674D01*
X2936491Y-19597674D02*
X2917443Y-19588150D01*
X2917443Y-19588150D02*
X2879348Y-19588150D01*
X2879348Y-19588150D02*
X2860301Y-19597674D01*
X2946015Y-19711960D02*
X2926967Y-19721484D01*
X2926967Y-19721484D02*
X2879348Y-19721484D01*
X2879348Y-19721484D02*
X2860301Y-19711960D01*
X2860301Y-19711960D02*
X2850777Y-19692912D01*
X2850777Y-19692912D02*
X2850777Y-19673865D01*
X2850777Y-19673865D02*
X2860301Y-19654817D01*
X2860301Y-19654817D02*
X2879348Y-19645293D01*
X2879348Y-19645293D02*
X2926967Y-19645293D01*
X2926967Y-19645293D02*
X2946015Y-19635770D01*
X3041253Y-19588150D02*
X3041253Y-19788150D01*
X3041253Y-19597674D02*
X3060301Y-19588150D01*
X3060301Y-19588150D02*
X3098396Y-19588150D01*
X3098396Y-19588150D02*
X3117443Y-19597674D01*
X3117443Y-19597674D02*
X3126967Y-19607198D01*
X3126967Y-19607198D02*
X3136491Y-19626246D01*
X3136491Y-19626246D02*
X3136491Y-19683389D01*
X3136491Y-19683389D02*
X3126967Y-19702436D01*
X3126967Y-19702436D02*
X3117443Y-19711960D01*
X3117443Y-19711960D02*
X3098396Y-19721484D01*
X3098396Y-19721484D02*
X3060301Y-19721484D01*
X3060301Y-19721484D02*
X3041253Y-19711960D01*
X3222205Y-19702436D02*
X3231729Y-19711960D01*
X3231729Y-19711960D02*
X3222205Y-19721484D01*
X3222205Y-19721484D02*
X3212682Y-19711960D01*
X3212682Y-19711960D02*
X3222205Y-19702436D01*
X3222205Y-19702436D02*
X3222205Y-19721484D01*
X3222205Y-19597674D02*
X3231729Y-19607198D01*
X3231729Y-19607198D02*
X3222205Y-19616722D01*
X3222205Y-19616722D02*
X3212682Y-19607198D01*
X3212682Y-19607198D02*
X3222205Y-19597674D01*
X3222205Y-19597674D02*
X3222205Y-19616722D01*
D11*
X1550000Y-20030000D02*
X1590000Y-20070000D01*
X1590000Y-20030000D02*
X1550000Y-20070000D01*
D10*
X1888872Y-19941484D02*
X1907920Y-19941484D01*
X1907920Y-19941484D02*
X1926967Y-19951008D01*
X1926967Y-19951008D02*
X1936491Y-19960531D01*
X1936491Y-19960531D02*
X1946015Y-19979579D01*
X1946015Y-19979579D02*
X1955539Y-20017674D01*
X1955539Y-20017674D02*
X1955539Y-20065293D01*
X1955539Y-20065293D02*
X1946015Y-20103389D01*
X1946015Y-20103389D02*
X1936491Y-20122436D01*
X1936491Y-20122436D02*
X1926967Y-20131960D01*
X1926967Y-20131960D02*
X1907920Y-20141484D01*
X1907920Y-20141484D02*
X1888872Y-20141484D01*
X1888872Y-20141484D02*
X1869824Y-20131960D01*
X1869824Y-20131960D02*
X1860301Y-20122436D01*
X1860301Y-20122436D02*
X1850777Y-20103389D01*
X1850777Y-20103389D02*
X1841253Y-20065293D01*
X1841253Y-20065293D02*
X1841253Y-20017674D01*
X1841253Y-20017674D02*
X1850777Y-19979579D01*
X1850777Y-19979579D02*
X1860301Y-19960531D01*
X1860301Y-19960531D02*
X1869824Y-19951008D01*
X1869824Y-19951008D02*
X1888872Y-19941484D01*
X2041253Y-20122436D02*
X2050777Y-20131960D01*
X2050777Y-20131960D02*
X2041253Y-20141484D01*
X2041253Y-20141484D02*
X2031729Y-20131960D01*
X2031729Y-20131960D02*
X2041253Y-20122436D01*
X2041253Y-20122436D02*
X2041253Y-20141484D01*
X2222205Y-20008150D02*
X2222205Y-20141484D01*
X2174586Y-19931960D02*
X2126967Y-20074817D01*
X2126967Y-20074817D02*
X2250777Y-20074817D01*
X2365063Y-19941484D02*
X2384110Y-19941484D01*
X2384110Y-19941484D02*
X2403158Y-19951008D01*
X2403158Y-19951008D02*
X2412682Y-19960531D01*
X2412682Y-19960531D02*
X2422205Y-19979579D01*
X2422205Y-19979579D02*
X2431729Y-20017674D01*
X2431729Y-20017674D02*
X2431729Y-20065293D01*
X2431729Y-20065293D02*
X2422205Y-20103389D01*
X2422205Y-20103389D02*
X2412682Y-20122436D01*
X2412682Y-20122436D02*
X2403158Y-20131960D01*
X2403158Y-20131960D02*
X2384110Y-20141484D01*
X2384110Y-20141484D02*
X2365063Y-20141484D01*
X2365063Y-20141484D02*
X2346015Y-20131960D01*
X2346015Y-20131960D02*
X2336491Y-20122436D01*
X2336491Y-20122436D02*
X2326967Y-20103389D01*
X2326967Y-20103389D02*
X2317444Y-20065293D01*
X2317444Y-20065293D02*
X2317444Y-20017674D01*
X2317444Y-20017674D02*
X2326967Y-19979579D01*
X2326967Y-19979579D02*
X2336491Y-19960531D01*
X2336491Y-19960531D02*
X2346015Y-19951008D01*
X2346015Y-19951008D02*
X2365063Y-19941484D01*
X2555539Y-19941484D02*
X2574586Y-19941484D01*
X2574586Y-19941484D02*
X2593634Y-19951008D01*
X2593634Y-19951008D02*
X2603158Y-19960531D01*
X2603158Y-19960531D02*
X2612682Y-19979579D01*
X2612682Y-19979579D02*
X2622205Y-20017674D01*
X2622205Y-20017674D02*
X2622205Y-20065293D01*
X2622205Y-20065293D02*
X2612682Y-20103389D01*
X2612682Y-20103389D02*
X2603158Y-20122436D01*
X2603158Y-20122436D02*
X2593634Y-20131960D01*
X2593634Y-20131960D02*
X2574586Y-20141484D01*
X2574586Y-20141484D02*
X2555539Y-20141484D01*
X2555539Y-20141484D02*
X2536491Y-20131960D01*
X2536491Y-20131960D02*
X2526967Y-20122436D01*
X2526967Y-20122436D02*
X2517444Y-20103389D01*
X2517444Y-20103389D02*
X2507920Y-20065293D01*
X2507920Y-20065293D02*
X2507920Y-20017674D01*
X2507920Y-20017674D02*
X2517444Y-19979579D01*
X2517444Y-19979579D02*
X2526967Y-19960531D01*
X2526967Y-19960531D02*
X2536491Y-19951008D01*
X2536491Y-19951008D02*
X2555539Y-19941484D01*
X2707920Y-20141484D02*
X2707920Y-20008150D01*
X2707920Y-20027198D02*
X2717444Y-20017674D01*
X2717444Y-20017674D02*
X2736491Y-20008150D01*
X2736491Y-20008150D02*
X2765063Y-20008150D01*
X2765063Y-20008150D02*
X2784110Y-20017674D01*
X2784110Y-20017674D02*
X2793634Y-20036722D01*
X2793634Y-20036722D02*
X2793634Y-20141484D01*
X2793634Y-20036722D02*
X2803158Y-20017674D01*
X2803158Y-20017674D02*
X2822205Y-20008150D01*
X2822205Y-20008150D02*
X2850777Y-20008150D01*
X2850777Y-20008150D02*
X2869824Y-20017674D01*
X2869824Y-20017674D02*
X2879348Y-20036722D01*
X2879348Y-20036722D02*
X2879348Y-20141484D01*
X2974586Y-20141484D02*
X2974586Y-20008150D01*
X2974586Y-20027198D02*
X2984110Y-20017674D01*
X2984110Y-20017674D02*
X3003158Y-20008150D01*
X3003158Y-20008150D02*
X3031729Y-20008150D01*
X3031729Y-20008150D02*
X3050777Y-20017674D01*
X3050777Y-20017674D02*
X3060301Y-20036722D01*
X3060301Y-20036722D02*
X3060301Y-20141484D01*
X3060301Y-20036722D02*
X3069824Y-20017674D01*
X3069824Y-20017674D02*
X3088872Y-20008150D01*
X3088872Y-20008150D02*
X3117443Y-20008150D01*
X3117443Y-20008150D02*
X3136491Y-20017674D01*
X3136491Y-20017674D02*
X3146015Y-20036722D01*
X3146015Y-20036722D02*
X3146015Y-20141484D01*
X3536491Y-19931960D02*
X3365063Y-20189103D01*
X3793634Y-19941484D02*
X3812682Y-19941484D01*
X3812682Y-19941484D02*
X3831729Y-19951008D01*
X3831729Y-19951008D02*
X3841253Y-19960531D01*
X3841253Y-19960531D02*
X3850777Y-19979579D01*
X3850777Y-19979579D02*
X3860301Y-20017674D01*
X3860301Y-20017674D02*
X3860301Y-20065293D01*
X3860301Y-20065293D02*
X3850777Y-20103389D01*
X3850777Y-20103389D02*
X3841253Y-20122436D01*
X3841253Y-20122436D02*
X3831729Y-20131960D01*
X3831729Y-20131960D02*
X3812682Y-20141484D01*
X3812682Y-20141484D02*
X3793634Y-20141484D01*
X3793634Y-20141484D02*
X3774586Y-20131960D01*
X3774586Y-20131960D02*
X3765063Y-20122436D01*
X3765063Y-20122436D02*
X3755539Y-20103389D01*
X3755539Y-20103389D02*
X3746015Y-20065293D01*
X3746015Y-20065293D02*
X3746015Y-20017674D01*
X3746015Y-20017674D02*
X3755539Y-19979579D01*
X3755539Y-19979579D02*
X3765063Y-19960531D01*
X3765063Y-19960531D02*
X3774586Y-19951008D01*
X3774586Y-19951008D02*
X3793634Y-19941484D01*
X3946015Y-20122436D02*
X3955539Y-20131960D01*
X3955539Y-20131960D02*
X3946015Y-20141484D01*
X3946015Y-20141484D02*
X3936491Y-20131960D01*
X3936491Y-20131960D02*
X3946015Y-20122436D01*
X3946015Y-20122436D02*
X3946015Y-20141484D01*
X4079348Y-19941484D02*
X4098396Y-19941484D01*
X4098396Y-19941484D02*
X4117444Y-19951008D01*
X4117444Y-19951008D02*
X4126967Y-19960531D01*
X4126967Y-19960531D02*
X4136491Y-19979579D01*
X4136491Y-19979579D02*
X4146015Y-20017674D01*
X4146015Y-20017674D02*
X4146015Y-20065293D01*
X4146015Y-20065293D02*
X4136491Y-20103389D01*
X4136491Y-20103389D02*
X4126967Y-20122436D01*
X4126967Y-20122436D02*
X4117444Y-20131960D01*
X4117444Y-20131960D02*
X4098396Y-20141484D01*
X4098396Y-20141484D02*
X4079348Y-20141484D01*
X4079348Y-20141484D02*
X4060301Y-20131960D01*
X4060301Y-20131960D02*
X4050777Y-20122436D01*
X4050777Y-20122436D02*
X4041253Y-20103389D01*
X4041253Y-20103389D02*
X4031729Y-20065293D01*
X4031729Y-20065293D02*
X4031729Y-20017674D01*
X4031729Y-20017674D02*
X4041253Y-19979579D01*
X4041253Y-19979579D02*
X4050777Y-19960531D01*
X4050777Y-19960531D02*
X4060301Y-19951008D01*
X4060301Y-19951008D02*
X4079348Y-19941484D01*
X4336491Y-20141484D02*
X4222206Y-20141484D01*
X4279348Y-20141484D02*
X4279348Y-19941484D01*
X4279348Y-19941484D02*
X4260301Y-19970055D01*
X4260301Y-19970055D02*
X4241253Y-19989103D01*
X4241253Y-19989103D02*
X4222206Y-19998627D01*
X4517444Y-19941484D02*
X4422206Y-19941484D01*
X4422206Y-19941484D02*
X4412682Y-20036722D01*
X4412682Y-20036722D02*
X4422206Y-20027198D01*
X4422206Y-20027198D02*
X4441253Y-20017674D01*
X4441253Y-20017674D02*
X4488872Y-20017674D01*
X4488872Y-20017674D02*
X4507920Y-20027198D01*
X4507920Y-20027198D02*
X4517444Y-20036722D01*
X4517444Y-20036722D02*
X4526968Y-20055770D01*
X4526968Y-20055770D02*
X4526968Y-20103389D01*
X4526968Y-20103389D02*
X4517444Y-20122436D01*
X4517444Y-20122436D02*
X4507920Y-20131960D01*
X4507920Y-20131960D02*
X4488872Y-20141484D01*
X4488872Y-20141484D02*
X4441253Y-20141484D01*
X4441253Y-20141484D02*
X4422206Y-20131960D01*
X4422206Y-20131960D02*
X4412682Y-20122436D01*
X4593634Y-19941484D02*
X4726968Y-19941484D01*
X4726968Y-19941484D02*
X4641253Y-20141484D01*
X4793634Y-19941484D02*
X4793634Y-19979579D01*
X4869825Y-19941484D02*
X4869825Y-19979579D01*
X5165063Y-20217674D02*
X5155539Y-20208150D01*
X5155539Y-20208150D02*
X5136491Y-20179579D01*
X5136491Y-20179579D02*
X5126968Y-20160531D01*
X5126968Y-20160531D02*
X5117444Y-20131960D01*
X5117444Y-20131960D02*
X5107920Y-20084341D01*
X5107920Y-20084341D02*
X5107920Y-20046246D01*
X5107920Y-20046246D02*
X5117444Y-19998627D01*
X5117444Y-19998627D02*
X5126968Y-19970055D01*
X5126968Y-19970055D02*
X5136491Y-19951008D01*
X5136491Y-19951008D02*
X5155539Y-19922436D01*
X5155539Y-19922436D02*
X5165063Y-19912912D01*
X5346015Y-20141484D02*
X5231730Y-20141484D01*
X5288872Y-20141484D02*
X5288872Y-19941484D01*
X5288872Y-19941484D02*
X5269825Y-19970055D01*
X5269825Y-19970055D02*
X5250777Y-19989103D01*
X5250777Y-19989103D02*
X5231730Y-19998627D01*
X5584111Y-20141484D02*
X5584111Y-19941484D01*
X5669825Y-20141484D02*
X5669825Y-20036722D01*
X5669825Y-20036722D02*
X5660301Y-20017674D01*
X5660301Y-20017674D02*
X5641253Y-20008150D01*
X5641253Y-20008150D02*
X5612682Y-20008150D01*
X5612682Y-20008150D02*
X5593634Y-20017674D01*
X5593634Y-20017674D02*
X5584111Y-20027198D01*
X5793634Y-20141484D02*
X5774587Y-20131960D01*
X5774587Y-20131960D02*
X5765063Y-20122436D01*
X5765063Y-20122436D02*
X5755539Y-20103389D01*
X5755539Y-20103389D02*
X5755539Y-20046246D01*
X5755539Y-20046246D02*
X5765063Y-20027198D01*
X5765063Y-20027198D02*
X5774587Y-20017674D01*
X5774587Y-20017674D02*
X5793634Y-20008150D01*
X5793634Y-20008150D02*
X5822206Y-20008150D01*
X5822206Y-20008150D02*
X5841253Y-20017674D01*
X5841253Y-20017674D02*
X5850777Y-20027198D01*
X5850777Y-20027198D02*
X5860301Y-20046246D01*
X5860301Y-20046246D02*
X5860301Y-20103389D01*
X5860301Y-20103389D02*
X5850777Y-20122436D01*
X5850777Y-20122436D02*
X5841253Y-20131960D01*
X5841253Y-20131960D02*
X5822206Y-20141484D01*
X5822206Y-20141484D02*
X5793634Y-20141484D01*
X5974587Y-20141484D02*
X5955539Y-20131960D01*
X5955539Y-20131960D02*
X5946015Y-20112912D01*
X5946015Y-20112912D02*
X5946015Y-19941484D01*
X6126968Y-20131960D02*
X6107920Y-20141484D01*
X6107920Y-20141484D02*
X6069825Y-20141484D01*
X6069825Y-20141484D02*
X6050777Y-20131960D01*
X6050777Y-20131960D02*
X6041253Y-20112912D01*
X6041253Y-20112912D02*
X6041253Y-20036722D01*
X6041253Y-20036722D02*
X6050777Y-20017674D01*
X6050777Y-20017674D02*
X6069825Y-20008150D01*
X6069825Y-20008150D02*
X6107920Y-20008150D01*
X6107920Y-20008150D02*
X6126968Y-20017674D01*
X6126968Y-20017674D02*
X6136491Y-20036722D01*
X6136491Y-20036722D02*
X6136491Y-20055770D01*
X6136491Y-20055770D02*
X6041253Y-20074817D01*
X6203158Y-20217674D02*
X6212682Y-20208150D01*
X6212682Y-20208150D02*
X6231730Y-20179579D01*
X6231730Y-20179579D02*
X6241253Y-20160531D01*
X6241253Y-20160531D02*
X6250777Y-20131960D01*
X6250777Y-20131960D02*
X6260301Y-20084341D01*
X6260301Y-20084341D02*
X6260301Y-20046246D01*
X6260301Y-20046246D02*
X6250777Y-19998627D01*
X6250777Y-19998627D02*
X6241253Y-19970055D01*
X6241253Y-19970055D02*
X6231730Y-19951008D01*
X6231730Y-19951008D02*
X6212682Y-19922436D01*
X6212682Y-19922436D02*
X6203158Y-19912912D01*
D11*
X1590000Y-20314000D02*
G75*
G03*
X1590000Y-20314000I-47500J0D01*
G01*
D10*
X1888872Y-20205484D02*
X1907920Y-20205484D01*
X1907920Y-20205484D02*
X1926967Y-20215008D01*
X1926967Y-20215008D02*
X1936491Y-20224531D01*
X1936491Y-20224531D02*
X1946015Y-20243579D01*
X1946015Y-20243579D02*
X1955539Y-20281674D01*
X1955539Y-20281674D02*
X1955539Y-20329293D01*
X1955539Y-20329293D02*
X1946015Y-20367389D01*
X1946015Y-20367389D02*
X1936491Y-20386436D01*
X1936491Y-20386436D02*
X1926967Y-20395960D01*
X1926967Y-20395960D02*
X1907920Y-20405484D01*
X1907920Y-20405484D02*
X1888872Y-20405484D01*
X1888872Y-20405484D02*
X1869824Y-20395960D01*
X1869824Y-20395960D02*
X1860301Y-20386436D01*
X1860301Y-20386436D02*
X1850777Y-20367389D01*
X1850777Y-20367389D02*
X1841253Y-20329293D01*
X1841253Y-20329293D02*
X1841253Y-20281674D01*
X1841253Y-20281674D02*
X1850777Y-20243579D01*
X1850777Y-20243579D02*
X1860301Y-20224531D01*
X1860301Y-20224531D02*
X1869824Y-20215008D01*
X1869824Y-20215008D02*
X1888872Y-20205484D01*
X2041253Y-20386436D02*
X2050777Y-20395960D01*
X2050777Y-20395960D02*
X2041253Y-20405484D01*
X2041253Y-20405484D02*
X2031729Y-20395960D01*
X2031729Y-20395960D02*
X2041253Y-20386436D01*
X2041253Y-20386436D02*
X2041253Y-20405484D01*
X2146015Y-20405484D02*
X2184110Y-20405484D01*
X2184110Y-20405484D02*
X2203158Y-20395960D01*
X2203158Y-20395960D02*
X2212682Y-20386436D01*
X2212682Y-20386436D02*
X2231729Y-20357865D01*
X2231729Y-20357865D02*
X2241253Y-20319770D01*
X2241253Y-20319770D02*
X2241253Y-20243579D01*
X2241253Y-20243579D02*
X2231729Y-20224531D01*
X2231729Y-20224531D02*
X2222205Y-20215008D01*
X2222205Y-20215008D02*
X2203158Y-20205484D01*
X2203158Y-20205484D02*
X2165063Y-20205484D01*
X2165063Y-20205484D02*
X2146015Y-20215008D01*
X2146015Y-20215008D02*
X2136491Y-20224531D01*
X2136491Y-20224531D02*
X2126967Y-20243579D01*
X2126967Y-20243579D02*
X2126967Y-20291198D01*
X2126967Y-20291198D02*
X2136491Y-20310246D01*
X2136491Y-20310246D02*
X2146015Y-20319770D01*
X2146015Y-20319770D02*
X2165063Y-20329293D01*
X2165063Y-20329293D02*
X2203158Y-20329293D01*
X2203158Y-20329293D02*
X2222205Y-20319770D01*
X2222205Y-20319770D02*
X2231729Y-20310246D01*
X2231729Y-20310246D02*
X2241253Y-20291198D01*
X2422205Y-20205484D02*
X2326967Y-20205484D01*
X2326967Y-20205484D02*
X2317444Y-20300722D01*
X2317444Y-20300722D02*
X2326967Y-20291198D01*
X2326967Y-20291198D02*
X2346015Y-20281674D01*
X2346015Y-20281674D02*
X2393634Y-20281674D01*
X2393634Y-20281674D02*
X2412682Y-20291198D01*
X2412682Y-20291198D02*
X2422205Y-20300722D01*
X2422205Y-20300722D02*
X2431729Y-20319770D01*
X2431729Y-20319770D02*
X2431729Y-20367389D01*
X2431729Y-20367389D02*
X2422205Y-20386436D01*
X2422205Y-20386436D02*
X2412682Y-20395960D01*
X2412682Y-20395960D02*
X2393634Y-20405484D01*
X2393634Y-20405484D02*
X2346015Y-20405484D01*
X2346015Y-20405484D02*
X2326967Y-20395960D01*
X2326967Y-20395960D02*
X2317444Y-20386436D01*
X2555539Y-20205484D02*
X2574586Y-20205484D01*
X2574586Y-20205484D02*
X2593634Y-20215008D01*
X2593634Y-20215008D02*
X2603158Y-20224531D01*
X2603158Y-20224531D02*
X2612682Y-20243579D01*
X2612682Y-20243579D02*
X2622205Y-20281674D01*
X2622205Y-20281674D02*
X2622205Y-20329293D01*
X2622205Y-20329293D02*
X2612682Y-20367389D01*
X2612682Y-20367389D02*
X2603158Y-20386436D01*
X2603158Y-20386436D02*
X2593634Y-20395960D01*
X2593634Y-20395960D02*
X2574586Y-20405484D01*
X2574586Y-20405484D02*
X2555539Y-20405484D01*
X2555539Y-20405484D02*
X2536491Y-20395960D01*
X2536491Y-20395960D02*
X2526967Y-20386436D01*
X2526967Y-20386436D02*
X2517444Y-20367389D01*
X2517444Y-20367389D02*
X2507920Y-20329293D01*
X2507920Y-20329293D02*
X2507920Y-20281674D01*
X2507920Y-20281674D02*
X2517444Y-20243579D01*
X2517444Y-20243579D02*
X2526967Y-20224531D01*
X2526967Y-20224531D02*
X2536491Y-20215008D01*
X2536491Y-20215008D02*
X2555539Y-20205484D01*
X2707920Y-20405484D02*
X2707920Y-20272150D01*
X2707920Y-20291198D02*
X2717444Y-20281674D01*
X2717444Y-20281674D02*
X2736491Y-20272150D01*
X2736491Y-20272150D02*
X2765063Y-20272150D01*
X2765063Y-20272150D02*
X2784110Y-20281674D01*
X2784110Y-20281674D02*
X2793634Y-20300722D01*
X2793634Y-20300722D02*
X2793634Y-20405484D01*
X2793634Y-20300722D02*
X2803158Y-20281674D01*
X2803158Y-20281674D02*
X2822205Y-20272150D01*
X2822205Y-20272150D02*
X2850777Y-20272150D01*
X2850777Y-20272150D02*
X2869824Y-20281674D01*
X2869824Y-20281674D02*
X2879348Y-20300722D01*
X2879348Y-20300722D02*
X2879348Y-20405484D01*
X2974586Y-20405484D02*
X2974586Y-20272150D01*
X2974586Y-20291198D02*
X2984110Y-20281674D01*
X2984110Y-20281674D02*
X3003158Y-20272150D01*
X3003158Y-20272150D02*
X3031729Y-20272150D01*
X3031729Y-20272150D02*
X3050777Y-20281674D01*
X3050777Y-20281674D02*
X3060301Y-20300722D01*
X3060301Y-20300722D02*
X3060301Y-20405484D01*
X3060301Y-20300722D02*
X3069824Y-20281674D01*
X3069824Y-20281674D02*
X3088872Y-20272150D01*
X3088872Y-20272150D02*
X3117443Y-20272150D01*
X3117443Y-20272150D02*
X3136491Y-20281674D01*
X3136491Y-20281674D02*
X3146015Y-20300722D01*
X3146015Y-20300722D02*
X3146015Y-20405484D01*
X3536491Y-20195960D02*
X3365063Y-20453103D01*
X3793634Y-20205484D02*
X3812682Y-20205484D01*
X3812682Y-20205484D02*
X3831729Y-20215008D01*
X3831729Y-20215008D02*
X3841253Y-20224531D01*
X3841253Y-20224531D02*
X3850777Y-20243579D01*
X3850777Y-20243579D02*
X3860301Y-20281674D01*
X3860301Y-20281674D02*
X3860301Y-20329293D01*
X3860301Y-20329293D02*
X3850777Y-20367389D01*
X3850777Y-20367389D02*
X3841253Y-20386436D01*
X3841253Y-20386436D02*
X3831729Y-20395960D01*
X3831729Y-20395960D02*
X3812682Y-20405484D01*
X3812682Y-20405484D02*
X3793634Y-20405484D01*
X3793634Y-20405484D02*
X3774586Y-20395960D01*
X3774586Y-20395960D02*
X3765063Y-20386436D01*
X3765063Y-20386436D02*
X3755539Y-20367389D01*
X3755539Y-20367389D02*
X3746015Y-20329293D01*
X3746015Y-20329293D02*
X3746015Y-20281674D01*
X3746015Y-20281674D02*
X3755539Y-20243579D01*
X3755539Y-20243579D02*
X3765063Y-20224531D01*
X3765063Y-20224531D02*
X3774586Y-20215008D01*
X3774586Y-20215008D02*
X3793634Y-20205484D01*
X3946015Y-20386436D02*
X3955539Y-20395960D01*
X3955539Y-20395960D02*
X3946015Y-20405484D01*
X3946015Y-20405484D02*
X3936491Y-20395960D01*
X3936491Y-20395960D02*
X3946015Y-20386436D01*
X3946015Y-20386436D02*
X3946015Y-20405484D01*
X4079348Y-20205484D02*
X4098396Y-20205484D01*
X4098396Y-20205484D02*
X4117444Y-20215008D01*
X4117444Y-20215008D02*
X4126967Y-20224531D01*
X4126967Y-20224531D02*
X4136491Y-20243579D01*
X4136491Y-20243579D02*
X4146015Y-20281674D01*
X4146015Y-20281674D02*
X4146015Y-20329293D01*
X4146015Y-20329293D02*
X4136491Y-20367389D01*
X4136491Y-20367389D02*
X4126967Y-20386436D01*
X4126967Y-20386436D02*
X4117444Y-20395960D01*
X4117444Y-20395960D02*
X4098396Y-20405484D01*
X4098396Y-20405484D02*
X4079348Y-20405484D01*
X4079348Y-20405484D02*
X4060301Y-20395960D01*
X4060301Y-20395960D02*
X4050777Y-20386436D01*
X4050777Y-20386436D02*
X4041253Y-20367389D01*
X4041253Y-20367389D02*
X4031729Y-20329293D01*
X4031729Y-20329293D02*
X4031729Y-20281674D01*
X4031729Y-20281674D02*
X4041253Y-20243579D01*
X4041253Y-20243579D02*
X4050777Y-20224531D01*
X4050777Y-20224531D02*
X4060301Y-20215008D01*
X4060301Y-20215008D02*
X4079348Y-20205484D01*
X4212682Y-20205484D02*
X4336491Y-20205484D01*
X4336491Y-20205484D02*
X4269825Y-20281674D01*
X4269825Y-20281674D02*
X4298396Y-20281674D01*
X4298396Y-20281674D02*
X4317444Y-20291198D01*
X4317444Y-20291198D02*
X4326968Y-20300722D01*
X4326968Y-20300722D02*
X4336491Y-20319770D01*
X4336491Y-20319770D02*
X4336491Y-20367389D01*
X4336491Y-20367389D02*
X4326968Y-20386436D01*
X4326968Y-20386436D02*
X4317444Y-20395960D01*
X4317444Y-20395960D02*
X4298396Y-20405484D01*
X4298396Y-20405484D02*
X4241253Y-20405484D01*
X4241253Y-20405484D02*
X4222206Y-20395960D01*
X4222206Y-20395960D02*
X4212682Y-20386436D01*
X4403158Y-20205484D02*
X4536491Y-20205484D01*
X4536491Y-20205484D02*
X4450777Y-20405484D01*
X4698396Y-20272150D02*
X4698396Y-20405484D01*
X4650777Y-20195960D02*
X4603158Y-20338817D01*
X4603158Y-20338817D02*
X4726968Y-20338817D01*
X4793634Y-20205484D02*
X4793634Y-20243579D01*
X4869825Y-20205484D02*
X4869825Y-20243579D01*
X5165063Y-20481674D02*
X5155539Y-20472150D01*
X5155539Y-20472150D02*
X5136491Y-20443579D01*
X5136491Y-20443579D02*
X5126968Y-20424531D01*
X5126968Y-20424531D02*
X5117444Y-20395960D01*
X5117444Y-20395960D02*
X5107920Y-20348341D01*
X5107920Y-20348341D02*
X5107920Y-20310246D01*
X5107920Y-20310246D02*
X5117444Y-20262627D01*
X5117444Y-20262627D02*
X5126968Y-20234055D01*
X5126968Y-20234055D02*
X5136491Y-20215008D01*
X5136491Y-20215008D02*
X5155539Y-20186436D01*
X5155539Y-20186436D02*
X5165063Y-20176912D01*
X5222206Y-20205484D02*
X5346015Y-20205484D01*
X5346015Y-20205484D02*
X5279349Y-20281674D01*
X5279349Y-20281674D02*
X5307920Y-20281674D01*
X5307920Y-20281674D02*
X5326968Y-20291198D01*
X5326968Y-20291198D02*
X5336491Y-20300722D01*
X5336491Y-20300722D02*
X5346015Y-20319770D01*
X5346015Y-20319770D02*
X5346015Y-20367389D01*
X5346015Y-20367389D02*
X5336491Y-20386436D01*
X5336491Y-20386436D02*
X5326968Y-20395960D01*
X5326968Y-20395960D02*
X5307920Y-20405484D01*
X5307920Y-20405484D02*
X5250777Y-20405484D01*
X5250777Y-20405484D02*
X5231730Y-20395960D01*
X5231730Y-20395960D02*
X5222206Y-20386436D01*
X5584111Y-20405484D02*
X5584111Y-20205484D01*
X5669825Y-20405484D02*
X5669825Y-20300722D01*
X5669825Y-20300722D02*
X5660301Y-20281674D01*
X5660301Y-20281674D02*
X5641253Y-20272150D01*
X5641253Y-20272150D02*
X5612682Y-20272150D01*
X5612682Y-20272150D02*
X5593634Y-20281674D01*
X5593634Y-20281674D02*
X5584111Y-20291198D01*
X5793634Y-20405484D02*
X5774587Y-20395960D01*
X5774587Y-20395960D02*
X5765063Y-20386436D01*
X5765063Y-20386436D02*
X5755539Y-20367389D01*
X5755539Y-20367389D02*
X5755539Y-20310246D01*
X5755539Y-20310246D02*
X5765063Y-20291198D01*
X5765063Y-20291198D02*
X5774587Y-20281674D01*
X5774587Y-20281674D02*
X5793634Y-20272150D01*
X5793634Y-20272150D02*
X5822206Y-20272150D01*
X5822206Y-20272150D02*
X5841253Y-20281674D01*
X5841253Y-20281674D02*
X5850777Y-20291198D01*
X5850777Y-20291198D02*
X5860301Y-20310246D01*
X5860301Y-20310246D02*
X5860301Y-20367389D01*
X5860301Y-20367389D02*
X5850777Y-20386436D01*
X5850777Y-20386436D02*
X5841253Y-20395960D01*
X5841253Y-20395960D02*
X5822206Y-20405484D01*
X5822206Y-20405484D02*
X5793634Y-20405484D01*
X5974587Y-20405484D02*
X5955539Y-20395960D01*
X5955539Y-20395960D02*
X5946015Y-20376912D01*
X5946015Y-20376912D02*
X5946015Y-20205484D01*
X6126968Y-20395960D02*
X6107920Y-20405484D01*
X6107920Y-20405484D02*
X6069825Y-20405484D01*
X6069825Y-20405484D02*
X6050777Y-20395960D01*
X6050777Y-20395960D02*
X6041253Y-20376912D01*
X6041253Y-20376912D02*
X6041253Y-20300722D01*
X6041253Y-20300722D02*
X6050777Y-20281674D01*
X6050777Y-20281674D02*
X6069825Y-20272150D01*
X6069825Y-20272150D02*
X6107920Y-20272150D01*
X6107920Y-20272150D02*
X6126968Y-20281674D01*
X6126968Y-20281674D02*
X6136491Y-20300722D01*
X6136491Y-20300722D02*
X6136491Y-20319770D01*
X6136491Y-20319770D02*
X6041253Y-20338817D01*
X6212682Y-20395960D02*
X6231730Y-20405484D01*
X6231730Y-20405484D02*
X6269825Y-20405484D01*
X6269825Y-20405484D02*
X6288872Y-20395960D01*
X6288872Y-20395960D02*
X6298396Y-20376912D01*
X6298396Y-20376912D02*
X6298396Y-20367389D01*
X6298396Y-20367389D02*
X6288872Y-20348341D01*
X6288872Y-20348341D02*
X6269825Y-20338817D01*
X6269825Y-20338817D02*
X6241253Y-20338817D01*
X6241253Y-20338817D02*
X6222206Y-20329293D01*
X6222206Y-20329293D02*
X6212682Y-20310246D01*
X6212682Y-20310246D02*
X6212682Y-20300722D01*
X6212682Y-20300722D02*
X6222206Y-20281674D01*
X6222206Y-20281674D02*
X6241253Y-20272150D01*
X6241253Y-20272150D02*
X6269825Y-20272150D01*
X6269825Y-20272150D02*
X6288872Y-20281674D01*
X6365063Y-20481674D02*
X6374587Y-20472150D01*
X6374587Y-20472150D02*
X6393634Y-20443579D01*
X6393634Y-20443579D02*
X6403158Y-20424531D01*
X6403158Y-20424531D02*
X6412682Y-20395960D01*
X6412682Y-20395960D02*
X6422206Y-20348341D01*
X6422206Y-20348341D02*
X6422206Y-20310246D01*
X6422206Y-20310246D02*
X6412682Y-20262627D01*
X6412682Y-20262627D02*
X6403158Y-20234055D01*
X6403158Y-20234055D02*
X6393634Y-20215008D01*
X6393634Y-20215008D02*
X6374587Y-20186436D01*
X6374587Y-20186436D02*
X6365063Y-20176912D01*
D11*
X1540000Y-20528000D02*
X1540000Y-20628000D01*
X1490000Y-20578000D02*
X1590000Y-20578000D01*
D10*
X1955539Y-20669484D02*
X1841253Y-20669484D01*
X1898396Y-20669484D02*
X1898396Y-20469484D01*
X1898396Y-20469484D02*
X1879348Y-20498055D01*
X1879348Y-20498055D02*
X1860301Y-20517103D01*
X1860301Y-20517103D02*
X1841253Y-20526627D01*
X2041253Y-20650436D02*
X2050777Y-20659960D01*
X2050777Y-20659960D02*
X2041253Y-20669484D01*
X2041253Y-20669484D02*
X2031729Y-20659960D01*
X2031729Y-20659960D02*
X2041253Y-20650436D01*
X2041253Y-20650436D02*
X2041253Y-20669484D01*
X2174586Y-20469484D02*
X2193634Y-20469484D01*
X2193634Y-20469484D02*
X2212682Y-20479008D01*
X2212682Y-20479008D02*
X2222205Y-20488531D01*
X2222205Y-20488531D02*
X2231729Y-20507579D01*
X2231729Y-20507579D02*
X2241253Y-20545674D01*
X2241253Y-20545674D02*
X2241253Y-20593293D01*
X2241253Y-20593293D02*
X2231729Y-20631389D01*
X2231729Y-20631389D02*
X2222205Y-20650436D01*
X2222205Y-20650436D02*
X2212682Y-20659960D01*
X2212682Y-20659960D02*
X2193634Y-20669484D01*
X2193634Y-20669484D02*
X2174586Y-20669484D01*
X2174586Y-20669484D02*
X2155539Y-20659960D01*
X2155539Y-20659960D02*
X2146015Y-20650436D01*
X2146015Y-20650436D02*
X2136491Y-20631389D01*
X2136491Y-20631389D02*
X2126967Y-20593293D01*
X2126967Y-20593293D02*
X2126967Y-20545674D01*
X2126967Y-20545674D02*
X2136491Y-20507579D01*
X2136491Y-20507579D02*
X2146015Y-20488531D01*
X2146015Y-20488531D02*
X2155539Y-20479008D01*
X2155539Y-20479008D02*
X2174586Y-20469484D01*
X2365063Y-20469484D02*
X2384110Y-20469484D01*
X2384110Y-20469484D02*
X2403158Y-20479008D01*
X2403158Y-20479008D02*
X2412682Y-20488531D01*
X2412682Y-20488531D02*
X2422205Y-20507579D01*
X2422205Y-20507579D02*
X2431729Y-20545674D01*
X2431729Y-20545674D02*
X2431729Y-20593293D01*
X2431729Y-20593293D02*
X2422205Y-20631389D01*
X2422205Y-20631389D02*
X2412682Y-20650436D01*
X2412682Y-20650436D02*
X2403158Y-20659960D01*
X2403158Y-20659960D02*
X2384110Y-20669484D01*
X2384110Y-20669484D02*
X2365063Y-20669484D01*
X2365063Y-20669484D02*
X2346015Y-20659960D01*
X2346015Y-20659960D02*
X2336491Y-20650436D01*
X2336491Y-20650436D02*
X2326967Y-20631389D01*
X2326967Y-20631389D02*
X2317444Y-20593293D01*
X2317444Y-20593293D02*
X2317444Y-20545674D01*
X2317444Y-20545674D02*
X2326967Y-20507579D01*
X2326967Y-20507579D02*
X2336491Y-20488531D01*
X2336491Y-20488531D02*
X2346015Y-20479008D01*
X2346015Y-20479008D02*
X2365063Y-20469484D01*
X2555539Y-20469484D02*
X2574586Y-20469484D01*
X2574586Y-20469484D02*
X2593634Y-20479008D01*
X2593634Y-20479008D02*
X2603158Y-20488531D01*
X2603158Y-20488531D02*
X2612682Y-20507579D01*
X2612682Y-20507579D02*
X2622205Y-20545674D01*
X2622205Y-20545674D02*
X2622205Y-20593293D01*
X2622205Y-20593293D02*
X2612682Y-20631389D01*
X2612682Y-20631389D02*
X2603158Y-20650436D01*
X2603158Y-20650436D02*
X2593634Y-20659960D01*
X2593634Y-20659960D02*
X2574586Y-20669484D01*
X2574586Y-20669484D02*
X2555539Y-20669484D01*
X2555539Y-20669484D02*
X2536491Y-20659960D01*
X2536491Y-20659960D02*
X2526967Y-20650436D01*
X2526967Y-20650436D02*
X2517444Y-20631389D01*
X2517444Y-20631389D02*
X2507920Y-20593293D01*
X2507920Y-20593293D02*
X2507920Y-20545674D01*
X2507920Y-20545674D02*
X2517444Y-20507579D01*
X2517444Y-20507579D02*
X2526967Y-20488531D01*
X2526967Y-20488531D02*
X2536491Y-20479008D01*
X2536491Y-20479008D02*
X2555539Y-20469484D01*
X2707920Y-20669484D02*
X2707920Y-20536150D01*
X2707920Y-20555198D02*
X2717444Y-20545674D01*
X2717444Y-20545674D02*
X2736491Y-20536150D01*
X2736491Y-20536150D02*
X2765063Y-20536150D01*
X2765063Y-20536150D02*
X2784110Y-20545674D01*
X2784110Y-20545674D02*
X2793634Y-20564722D01*
X2793634Y-20564722D02*
X2793634Y-20669484D01*
X2793634Y-20564722D02*
X2803158Y-20545674D01*
X2803158Y-20545674D02*
X2822205Y-20536150D01*
X2822205Y-20536150D02*
X2850777Y-20536150D01*
X2850777Y-20536150D02*
X2869824Y-20545674D01*
X2869824Y-20545674D02*
X2879348Y-20564722D01*
X2879348Y-20564722D02*
X2879348Y-20669484D01*
X2974586Y-20669484D02*
X2974586Y-20536150D01*
X2974586Y-20555198D02*
X2984110Y-20545674D01*
X2984110Y-20545674D02*
X3003158Y-20536150D01*
X3003158Y-20536150D02*
X3031729Y-20536150D01*
X3031729Y-20536150D02*
X3050777Y-20545674D01*
X3050777Y-20545674D02*
X3060301Y-20564722D01*
X3060301Y-20564722D02*
X3060301Y-20669484D01*
X3060301Y-20564722D02*
X3069824Y-20545674D01*
X3069824Y-20545674D02*
X3088872Y-20536150D01*
X3088872Y-20536150D02*
X3117443Y-20536150D01*
X3117443Y-20536150D02*
X3136491Y-20545674D01*
X3136491Y-20545674D02*
X3146015Y-20564722D01*
X3146015Y-20564722D02*
X3146015Y-20669484D01*
X3536491Y-20459960D02*
X3365063Y-20717103D01*
X3793634Y-20469484D02*
X3812682Y-20469484D01*
X3812682Y-20469484D02*
X3831729Y-20479008D01*
X3831729Y-20479008D02*
X3841253Y-20488531D01*
X3841253Y-20488531D02*
X3850777Y-20507579D01*
X3850777Y-20507579D02*
X3860301Y-20545674D01*
X3860301Y-20545674D02*
X3860301Y-20593293D01*
X3860301Y-20593293D02*
X3850777Y-20631389D01*
X3850777Y-20631389D02*
X3841253Y-20650436D01*
X3841253Y-20650436D02*
X3831729Y-20659960D01*
X3831729Y-20659960D02*
X3812682Y-20669484D01*
X3812682Y-20669484D02*
X3793634Y-20669484D01*
X3793634Y-20669484D02*
X3774586Y-20659960D01*
X3774586Y-20659960D02*
X3765063Y-20650436D01*
X3765063Y-20650436D02*
X3755539Y-20631389D01*
X3755539Y-20631389D02*
X3746015Y-20593293D01*
X3746015Y-20593293D02*
X3746015Y-20545674D01*
X3746015Y-20545674D02*
X3755539Y-20507579D01*
X3755539Y-20507579D02*
X3765063Y-20488531D01*
X3765063Y-20488531D02*
X3774586Y-20479008D01*
X3774586Y-20479008D02*
X3793634Y-20469484D01*
X3946015Y-20650436D02*
X3955539Y-20659960D01*
X3955539Y-20659960D02*
X3946015Y-20669484D01*
X3946015Y-20669484D02*
X3936491Y-20659960D01*
X3936491Y-20659960D02*
X3946015Y-20650436D01*
X3946015Y-20650436D02*
X3946015Y-20669484D01*
X4079348Y-20469484D02*
X4098396Y-20469484D01*
X4098396Y-20469484D02*
X4117444Y-20479008D01*
X4117444Y-20479008D02*
X4126967Y-20488531D01*
X4126967Y-20488531D02*
X4136491Y-20507579D01*
X4136491Y-20507579D02*
X4146015Y-20545674D01*
X4146015Y-20545674D02*
X4146015Y-20593293D01*
X4146015Y-20593293D02*
X4136491Y-20631389D01*
X4136491Y-20631389D02*
X4126967Y-20650436D01*
X4126967Y-20650436D02*
X4117444Y-20659960D01*
X4117444Y-20659960D02*
X4098396Y-20669484D01*
X4098396Y-20669484D02*
X4079348Y-20669484D01*
X4079348Y-20669484D02*
X4060301Y-20659960D01*
X4060301Y-20659960D02*
X4050777Y-20650436D01*
X4050777Y-20650436D02*
X4041253Y-20631389D01*
X4041253Y-20631389D02*
X4031729Y-20593293D01*
X4031729Y-20593293D02*
X4031729Y-20545674D01*
X4031729Y-20545674D02*
X4041253Y-20507579D01*
X4041253Y-20507579D02*
X4050777Y-20488531D01*
X4050777Y-20488531D02*
X4060301Y-20479008D01*
X4060301Y-20479008D02*
X4079348Y-20469484D01*
X4212682Y-20469484D02*
X4336491Y-20469484D01*
X4336491Y-20469484D02*
X4269825Y-20545674D01*
X4269825Y-20545674D02*
X4298396Y-20545674D01*
X4298396Y-20545674D02*
X4317444Y-20555198D01*
X4317444Y-20555198D02*
X4326968Y-20564722D01*
X4326968Y-20564722D02*
X4336491Y-20583770D01*
X4336491Y-20583770D02*
X4336491Y-20631389D01*
X4336491Y-20631389D02*
X4326968Y-20650436D01*
X4326968Y-20650436D02*
X4317444Y-20659960D01*
X4317444Y-20659960D02*
X4298396Y-20669484D01*
X4298396Y-20669484D02*
X4241253Y-20669484D01*
X4241253Y-20669484D02*
X4222206Y-20659960D01*
X4222206Y-20659960D02*
X4212682Y-20650436D01*
X4431729Y-20669484D02*
X4469825Y-20669484D01*
X4469825Y-20669484D02*
X4488872Y-20659960D01*
X4488872Y-20659960D02*
X4498396Y-20650436D01*
X4498396Y-20650436D02*
X4517444Y-20621865D01*
X4517444Y-20621865D02*
X4526968Y-20583770D01*
X4526968Y-20583770D02*
X4526968Y-20507579D01*
X4526968Y-20507579D02*
X4517444Y-20488531D01*
X4517444Y-20488531D02*
X4507920Y-20479008D01*
X4507920Y-20479008D02*
X4488872Y-20469484D01*
X4488872Y-20469484D02*
X4450777Y-20469484D01*
X4450777Y-20469484D02*
X4431729Y-20479008D01*
X4431729Y-20479008D02*
X4422206Y-20488531D01*
X4422206Y-20488531D02*
X4412682Y-20507579D01*
X4412682Y-20507579D02*
X4412682Y-20555198D01*
X4412682Y-20555198D02*
X4422206Y-20574246D01*
X4422206Y-20574246D02*
X4431729Y-20583770D01*
X4431729Y-20583770D02*
X4450777Y-20593293D01*
X4450777Y-20593293D02*
X4488872Y-20593293D01*
X4488872Y-20593293D02*
X4507920Y-20583770D01*
X4507920Y-20583770D02*
X4517444Y-20574246D01*
X4517444Y-20574246D02*
X4526968Y-20555198D01*
X4698396Y-20536150D02*
X4698396Y-20669484D01*
X4650777Y-20459960D02*
X4603158Y-20602817D01*
X4603158Y-20602817D02*
X4726968Y-20602817D01*
X4793634Y-20469484D02*
X4793634Y-20507579D01*
X4869825Y-20469484D02*
X4869825Y-20507579D01*
X5165063Y-20745674D02*
X5155539Y-20736150D01*
X5155539Y-20736150D02*
X5136491Y-20707579D01*
X5136491Y-20707579D02*
X5126968Y-20688531D01*
X5126968Y-20688531D02*
X5117444Y-20659960D01*
X5117444Y-20659960D02*
X5107920Y-20612341D01*
X5107920Y-20612341D02*
X5107920Y-20574246D01*
X5107920Y-20574246D02*
X5117444Y-20526627D01*
X5117444Y-20526627D02*
X5126968Y-20498055D01*
X5126968Y-20498055D02*
X5136491Y-20479008D01*
X5136491Y-20479008D02*
X5155539Y-20450436D01*
X5155539Y-20450436D02*
X5165063Y-20440912D01*
X5326968Y-20536150D02*
X5326968Y-20669484D01*
X5279349Y-20459960D02*
X5231730Y-20602817D01*
X5231730Y-20602817D02*
X5355539Y-20602817D01*
X5584111Y-20669484D02*
X5584111Y-20469484D01*
X5669825Y-20669484D02*
X5669825Y-20564722D01*
X5669825Y-20564722D02*
X5660301Y-20545674D01*
X5660301Y-20545674D02*
X5641253Y-20536150D01*
X5641253Y-20536150D02*
X5612682Y-20536150D01*
X5612682Y-20536150D02*
X5593634Y-20545674D01*
X5593634Y-20545674D02*
X5584111Y-20555198D01*
X5793634Y-20669484D02*
X5774587Y-20659960D01*
X5774587Y-20659960D02*
X5765063Y-20650436D01*
X5765063Y-20650436D02*
X5755539Y-20631389D01*
X5755539Y-20631389D02*
X5755539Y-20574246D01*
X5755539Y-20574246D02*
X5765063Y-20555198D01*
X5765063Y-20555198D02*
X5774587Y-20545674D01*
X5774587Y-20545674D02*
X5793634Y-20536150D01*
X5793634Y-20536150D02*
X5822206Y-20536150D01*
X5822206Y-20536150D02*
X5841253Y-20545674D01*
X5841253Y-20545674D02*
X5850777Y-20555198D01*
X5850777Y-20555198D02*
X5860301Y-20574246D01*
X5860301Y-20574246D02*
X5860301Y-20631389D01*
X5860301Y-20631389D02*
X5850777Y-20650436D01*
X5850777Y-20650436D02*
X5841253Y-20659960D01*
X5841253Y-20659960D02*
X5822206Y-20669484D01*
X5822206Y-20669484D02*
X5793634Y-20669484D01*
X5974587Y-20669484D02*
X5955539Y-20659960D01*
X5955539Y-20659960D02*
X5946015Y-20640912D01*
X5946015Y-20640912D02*
X5946015Y-20469484D01*
X6126968Y-20659960D02*
X6107920Y-20669484D01*
X6107920Y-20669484D02*
X6069825Y-20669484D01*
X6069825Y-20669484D02*
X6050777Y-20659960D01*
X6050777Y-20659960D02*
X6041253Y-20640912D01*
X6041253Y-20640912D02*
X6041253Y-20564722D01*
X6041253Y-20564722D02*
X6050777Y-20545674D01*
X6050777Y-20545674D02*
X6069825Y-20536150D01*
X6069825Y-20536150D02*
X6107920Y-20536150D01*
X6107920Y-20536150D02*
X6126968Y-20545674D01*
X6126968Y-20545674D02*
X6136491Y-20564722D01*
X6136491Y-20564722D02*
X6136491Y-20583770D01*
X6136491Y-20583770D02*
X6041253Y-20602817D01*
X6212682Y-20659960D02*
X6231730Y-20669484D01*
X6231730Y-20669484D02*
X6269825Y-20669484D01*
X6269825Y-20669484D02*
X6288872Y-20659960D01*
X6288872Y-20659960D02*
X6298396Y-20640912D01*
X6298396Y-20640912D02*
X6298396Y-20631389D01*
X6298396Y-20631389D02*
X6288872Y-20612341D01*
X6288872Y-20612341D02*
X6269825Y-20602817D01*
X6269825Y-20602817D02*
X6241253Y-20602817D01*
X6241253Y-20602817D02*
X6222206Y-20593293D01*
X6222206Y-20593293D02*
X6212682Y-20574246D01*
X6212682Y-20574246D02*
X6212682Y-20564722D01*
X6212682Y-20564722D02*
X6222206Y-20545674D01*
X6222206Y-20545674D02*
X6241253Y-20536150D01*
X6241253Y-20536150D02*
X6269825Y-20536150D01*
X6269825Y-20536150D02*
X6288872Y-20545674D01*
X6365063Y-20745674D02*
X6374587Y-20736150D01*
X6374587Y-20736150D02*
X6393634Y-20707579D01*
X6393634Y-20707579D02*
X6403158Y-20688531D01*
X6403158Y-20688531D02*
X6412682Y-20659960D01*
X6412682Y-20659960D02*
X6422206Y-20612341D01*
X6422206Y-20612341D02*
X6422206Y-20574246D01*
X6422206Y-20574246D02*
X6412682Y-20526627D01*
X6412682Y-20526627D02*
X6403158Y-20498055D01*
X6403158Y-20498055D02*
X6393634Y-20479008D01*
X6393634Y-20479008D02*
X6374587Y-20450436D01*
X6374587Y-20450436D02*
X6365063Y-20440912D01*
D12*
X1563640Y-20905640D02*
X1563640Y-20778360D01*
X1436360Y-20778360D01*
X1436360Y-20905640D01*
X1563640Y-20905640D01*
D10*
X1955539Y-20933484D02*
X1841253Y-20933484D01*
X1898396Y-20933484D02*
X1898396Y-20733484D01*
X1898396Y-20733484D02*
X1879348Y-20762055D01*
X1879348Y-20762055D02*
X1860301Y-20781103D01*
X1860301Y-20781103D02*
X1841253Y-20790627D01*
X2041253Y-20914436D02*
X2050777Y-20923960D01*
X2050777Y-20923960D02*
X2041253Y-20933484D01*
X2041253Y-20933484D02*
X2031729Y-20923960D01*
X2031729Y-20923960D02*
X2041253Y-20914436D01*
X2041253Y-20914436D02*
X2041253Y-20933484D01*
X2165063Y-20819198D02*
X2146015Y-20809674D01*
X2146015Y-20809674D02*
X2136491Y-20800150D01*
X2136491Y-20800150D02*
X2126967Y-20781103D01*
X2126967Y-20781103D02*
X2126967Y-20771579D01*
X2126967Y-20771579D02*
X2136491Y-20752531D01*
X2136491Y-20752531D02*
X2146015Y-20743008D01*
X2146015Y-20743008D02*
X2165063Y-20733484D01*
X2165063Y-20733484D02*
X2203158Y-20733484D01*
X2203158Y-20733484D02*
X2222205Y-20743008D01*
X2222205Y-20743008D02*
X2231729Y-20752531D01*
X2231729Y-20752531D02*
X2241253Y-20771579D01*
X2241253Y-20771579D02*
X2241253Y-20781103D01*
X2241253Y-20781103D02*
X2231729Y-20800150D01*
X2231729Y-20800150D02*
X2222205Y-20809674D01*
X2222205Y-20809674D02*
X2203158Y-20819198D01*
X2203158Y-20819198D02*
X2165063Y-20819198D01*
X2165063Y-20819198D02*
X2146015Y-20828722D01*
X2146015Y-20828722D02*
X2136491Y-20838246D01*
X2136491Y-20838246D02*
X2126967Y-20857293D01*
X2126967Y-20857293D02*
X2126967Y-20895389D01*
X2126967Y-20895389D02*
X2136491Y-20914436D01*
X2136491Y-20914436D02*
X2146015Y-20923960D01*
X2146015Y-20923960D02*
X2165063Y-20933484D01*
X2165063Y-20933484D02*
X2203158Y-20933484D01*
X2203158Y-20933484D02*
X2222205Y-20923960D01*
X2222205Y-20923960D02*
X2231729Y-20914436D01*
X2231729Y-20914436D02*
X2241253Y-20895389D01*
X2241253Y-20895389D02*
X2241253Y-20857293D01*
X2241253Y-20857293D02*
X2231729Y-20838246D01*
X2231729Y-20838246D02*
X2222205Y-20828722D01*
X2222205Y-20828722D02*
X2203158Y-20819198D01*
X2365063Y-20733484D02*
X2384110Y-20733484D01*
X2384110Y-20733484D02*
X2403158Y-20743008D01*
X2403158Y-20743008D02*
X2412682Y-20752531D01*
X2412682Y-20752531D02*
X2422205Y-20771579D01*
X2422205Y-20771579D02*
X2431729Y-20809674D01*
X2431729Y-20809674D02*
X2431729Y-20857293D01*
X2431729Y-20857293D02*
X2422205Y-20895389D01*
X2422205Y-20895389D02*
X2412682Y-20914436D01*
X2412682Y-20914436D02*
X2403158Y-20923960D01*
X2403158Y-20923960D02*
X2384110Y-20933484D01*
X2384110Y-20933484D02*
X2365063Y-20933484D01*
X2365063Y-20933484D02*
X2346015Y-20923960D01*
X2346015Y-20923960D02*
X2336491Y-20914436D01*
X2336491Y-20914436D02*
X2326967Y-20895389D01*
X2326967Y-20895389D02*
X2317444Y-20857293D01*
X2317444Y-20857293D02*
X2317444Y-20809674D01*
X2317444Y-20809674D02*
X2326967Y-20771579D01*
X2326967Y-20771579D02*
X2336491Y-20752531D01*
X2336491Y-20752531D02*
X2346015Y-20743008D01*
X2346015Y-20743008D02*
X2365063Y-20733484D01*
X2555539Y-20733484D02*
X2574586Y-20733484D01*
X2574586Y-20733484D02*
X2593634Y-20743008D01*
X2593634Y-20743008D02*
X2603158Y-20752531D01*
X2603158Y-20752531D02*
X2612682Y-20771579D01*
X2612682Y-20771579D02*
X2622205Y-20809674D01*
X2622205Y-20809674D02*
X2622205Y-20857293D01*
X2622205Y-20857293D02*
X2612682Y-20895389D01*
X2612682Y-20895389D02*
X2603158Y-20914436D01*
X2603158Y-20914436D02*
X2593634Y-20923960D01*
X2593634Y-20923960D02*
X2574586Y-20933484D01*
X2574586Y-20933484D02*
X2555539Y-20933484D01*
X2555539Y-20933484D02*
X2536491Y-20923960D01*
X2536491Y-20923960D02*
X2526967Y-20914436D01*
X2526967Y-20914436D02*
X2517444Y-20895389D01*
X2517444Y-20895389D02*
X2507920Y-20857293D01*
X2507920Y-20857293D02*
X2507920Y-20809674D01*
X2507920Y-20809674D02*
X2517444Y-20771579D01*
X2517444Y-20771579D02*
X2526967Y-20752531D01*
X2526967Y-20752531D02*
X2536491Y-20743008D01*
X2536491Y-20743008D02*
X2555539Y-20733484D01*
X2707920Y-20933484D02*
X2707920Y-20800150D01*
X2707920Y-20819198D02*
X2717444Y-20809674D01*
X2717444Y-20809674D02*
X2736491Y-20800150D01*
X2736491Y-20800150D02*
X2765063Y-20800150D01*
X2765063Y-20800150D02*
X2784110Y-20809674D01*
X2784110Y-20809674D02*
X2793634Y-20828722D01*
X2793634Y-20828722D02*
X2793634Y-20933484D01*
X2793634Y-20828722D02*
X2803158Y-20809674D01*
X2803158Y-20809674D02*
X2822205Y-20800150D01*
X2822205Y-20800150D02*
X2850777Y-20800150D01*
X2850777Y-20800150D02*
X2869824Y-20809674D01*
X2869824Y-20809674D02*
X2879348Y-20828722D01*
X2879348Y-20828722D02*
X2879348Y-20933484D01*
X2974586Y-20933484D02*
X2974586Y-20800150D01*
X2974586Y-20819198D02*
X2984110Y-20809674D01*
X2984110Y-20809674D02*
X3003158Y-20800150D01*
X3003158Y-20800150D02*
X3031729Y-20800150D01*
X3031729Y-20800150D02*
X3050777Y-20809674D01*
X3050777Y-20809674D02*
X3060301Y-20828722D01*
X3060301Y-20828722D02*
X3060301Y-20933484D01*
X3060301Y-20828722D02*
X3069824Y-20809674D01*
X3069824Y-20809674D02*
X3088872Y-20800150D01*
X3088872Y-20800150D02*
X3117443Y-20800150D01*
X3117443Y-20800150D02*
X3136491Y-20809674D01*
X3136491Y-20809674D02*
X3146015Y-20828722D01*
X3146015Y-20828722D02*
X3146015Y-20933484D01*
X3536491Y-20723960D02*
X3365063Y-20981103D01*
X3793634Y-20733484D02*
X3812682Y-20733484D01*
X3812682Y-20733484D02*
X3831729Y-20743008D01*
X3831729Y-20743008D02*
X3841253Y-20752531D01*
X3841253Y-20752531D02*
X3850777Y-20771579D01*
X3850777Y-20771579D02*
X3860301Y-20809674D01*
X3860301Y-20809674D02*
X3860301Y-20857293D01*
X3860301Y-20857293D02*
X3850777Y-20895389D01*
X3850777Y-20895389D02*
X3841253Y-20914436D01*
X3841253Y-20914436D02*
X3831729Y-20923960D01*
X3831729Y-20923960D02*
X3812682Y-20933484D01*
X3812682Y-20933484D02*
X3793634Y-20933484D01*
X3793634Y-20933484D02*
X3774586Y-20923960D01*
X3774586Y-20923960D02*
X3765063Y-20914436D01*
X3765063Y-20914436D02*
X3755539Y-20895389D01*
X3755539Y-20895389D02*
X3746015Y-20857293D01*
X3746015Y-20857293D02*
X3746015Y-20809674D01*
X3746015Y-20809674D02*
X3755539Y-20771579D01*
X3755539Y-20771579D02*
X3765063Y-20752531D01*
X3765063Y-20752531D02*
X3774586Y-20743008D01*
X3774586Y-20743008D02*
X3793634Y-20733484D01*
X3946015Y-20914436D02*
X3955539Y-20923960D01*
X3955539Y-20923960D02*
X3946015Y-20933484D01*
X3946015Y-20933484D02*
X3936491Y-20923960D01*
X3936491Y-20923960D02*
X3946015Y-20914436D01*
X3946015Y-20914436D02*
X3946015Y-20933484D01*
X4079348Y-20733484D02*
X4098396Y-20733484D01*
X4098396Y-20733484D02*
X4117444Y-20743008D01*
X4117444Y-20743008D02*
X4126967Y-20752531D01*
X4126967Y-20752531D02*
X4136491Y-20771579D01*
X4136491Y-20771579D02*
X4146015Y-20809674D01*
X4146015Y-20809674D02*
X4146015Y-20857293D01*
X4146015Y-20857293D02*
X4136491Y-20895389D01*
X4136491Y-20895389D02*
X4126967Y-20914436D01*
X4126967Y-20914436D02*
X4117444Y-20923960D01*
X4117444Y-20923960D02*
X4098396Y-20933484D01*
X4098396Y-20933484D02*
X4079348Y-20933484D01*
X4079348Y-20933484D02*
X4060301Y-20923960D01*
X4060301Y-20923960D02*
X4050777Y-20914436D01*
X4050777Y-20914436D02*
X4041253Y-20895389D01*
X4041253Y-20895389D02*
X4031729Y-20857293D01*
X4031729Y-20857293D02*
X4031729Y-20809674D01*
X4031729Y-20809674D02*
X4041253Y-20771579D01*
X4041253Y-20771579D02*
X4050777Y-20752531D01*
X4050777Y-20752531D02*
X4060301Y-20743008D01*
X4060301Y-20743008D02*
X4079348Y-20733484D01*
X4212682Y-20733484D02*
X4346015Y-20733484D01*
X4346015Y-20733484D02*
X4260301Y-20933484D01*
X4460301Y-20733484D02*
X4479349Y-20733484D01*
X4479349Y-20733484D02*
X4498396Y-20743008D01*
X4498396Y-20743008D02*
X4507920Y-20752531D01*
X4507920Y-20752531D02*
X4517444Y-20771579D01*
X4517444Y-20771579D02*
X4526968Y-20809674D01*
X4526968Y-20809674D02*
X4526968Y-20857293D01*
X4526968Y-20857293D02*
X4517444Y-20895389D01*
X4517444Y-20895389D02*
X4507920Y-20914436D01*
X4507920Y-20914436D02*
X4498396Y-20923960D01*
X4498396Y-20923960D02*
X4479349Y-20933484D01*
X4479349Y-20933484D02*
X4460301Y-20933484D01*
X4460301Y-20933484D02*
X4441253Y-20923960D01*
X4441253Y-20923960D02*
X4431729Y-20914436D01*
X4431729Y-20914436D02*
X4422206Y-20895389D01*
X4422206Y-20895389D02*
X4412682Y-20857293D01*
X4412682Y-20857293D02*
X4412682Y-20809674D01*
X4412682Y-20809674D02*
X4422206Y-20771579D01*
X4422206Y-20771579D02*
X4431729Y-20752531D01*
X4431729Y-20752531D02*
X4441253Y-20743008D01*
X4441253Y-20743008D02*
X4460301Y-20733484D01*
X4622206Y-20933484D02*
X4660301Y-20933484D01*
X4660301Y-20933484D02*
X4679349Y-20923960D01*
X4679349Y-20923960D02*
X4688872Y-20914436D01*
X4688872Y-20914436D02*
X4707920Y-20885865D01*
X4707920Y-20885865D02*
X4717444Y-20847770D01*
X4717444Y-20847770D02*
X4717444Y-20771579D01*
X4717444Y-20771579D02*
X4707920Y-20752531D01*
X4707920Y-20752531D02*
X4698396Y-20743008D01*
X4698396Y-20743008D02*
X4679349Y-20733484D01*
X4679349Y-20733484D02*
X4641253Y-20733484D01*
X4641253Y-20733484D02*
X4622206Y-20743008D01*
X4622206Y-20743008D02*
X4612682Y-20752531D01*
X4612682Y-20752531D02*
X4603158Y-20771579D01*
X4603158Y-20771579D02*
X4603158Y-20819198D01*
X4603158Y-20819198D02*
X4612682Y-20838246D01*
X4612682Y-20838246D02*
X4622206Y-20847770D01*
X4622206Y-20847770D02*
X4641253Y-20857293D01*
X4641253Y-20857293D02*
X4679349Y-20857293D01*
X4679349Y-20857293D02*
X4698396Y-20847770D01*
X4698396Y-20847770D02*
X4707920Y-20838246D01*
X4707920Y-20838246D02*
X4717444Y-20819198D01*
X4793634Y-20733484D02*
X4793634Y-20771579D01*
X4869825Y-20733484D02*
X4869825Y-20771579D01*
X5165063Y-21009674D02*
X5155539Y-21000150D01*
X5155539Y-21000150D02*
X5136491Y-20971579D01*
X5136491Y-20971579D02*
X5126968Y-20952531D01*
X5126968Y-20952531D02*
X5117444Y-20923960D01*
X5117444Y-20923960D02*
X5107920Y-20876341D01*
X5107920Y-20876341D02*
X5107920Y-20838246D01*
X5107920Y-20838246D02*
X5117444Y-20790627D01*
X5117444Y-20790627D02*
X5126968Y-20762055D01*
X5126968Y-20762055D02*
X5136491Y-20743008D01*
X5136491Y-20743008D02*
X5155539Y-20714436D01*
X5155539Y-20714436D02*
X5165063Y-20704912D01*
X5326968Y-20800150D02*
X5326968Y-20933484D01*
X5279349Y-20723960D02*
X5231730Y-20866817D01*
X5231730Y-20866817D02*
X5355539Y-20866817D01*
X5584111Y-20933484D02*
X5584111Y-20733484D01*
X5669825Y-20933484D02*
X5669825Y-20828722D01*
X5669825Y-20828722D02*
X5660301Y-20809674D01*
X5660301Y-20809674D02*
X5641253Y-20800150D01*
X5641253Y-20800150D02*
X5612682Y-20800150D01*
X5612682Y-20800150D02*
X5593634Y-20809674D01*
X5593634Y-20809674D02*
X5584111Y-20819198D01*
X5793634Y-20933484D02*
X5774587Y-20923960D01*
X5774587Y-20923960D02*
X5765063Y-20914436D01*
X5765063Y-20914436D02*
X5755539Y-20895389D01*
X5755539Y-20895389D02*
X5755539Y-20838246D01*
X5755539Y-20838246D02*
X5765063Y-20819198D01*
X5765063Y-20819198D02*
X5774587Y-20809674D01*
X5774587Y-20809674D02*
X5793634Y-20800150D01*
X5793634Y-20800150D02*
X5822206Y-20800150D01*
X5822206Y-20800150D02*
X5841253Y-20809674D01*
X5841253Y-20809674D02*
X5850777Y-20819198D01*
X5850777Y-20819198D02*
X5860301Y-20838246D01*
X5860301Y-20838246D02*
X5860301Y-20895389D01*
X5860301Y-20895389D02*
X5850777Y-20914436D01*
X5850777Y-20914436D02*
X5841253Y-20923960D01*
X5841253Y-20923960D02*
X5822206Y-20933484D01*
X5822206Y-20933484D02*
X5793634Y-20933484D01*
X5974587Y-20933484D02*
X5955539Y-20923960D01*
X5955539Y-20923960D02*
X5946015Y-20904912D01*
X5946015Y-20904912D02*
X5946015Y-20733484D01*
X6126968Y-20923960D02*
X6107920Y-20933484D01*
X6107920Y-20933484D02*
X6069825Y-20933484D01*
X6069825Y-20933484D02*
X6050777Y-20923960D01*
X6050777Y-20923960D02*
X6041253Y-20904912D01*
X6041253Y-20904912D02*
X6041253Y-20828722D01*
X6041253Y-20828722D02*
X6050777Y-20809674D01*
X6050777Y-20809674D02*
X6069825Y-20800150D01*
X6069825Y-20800150D02*
X6107920Y-20800150D01*
X6107920Y-20800150D02*
X6126968Y-20809674D01*
X6126968Y-20809674D02*
X6136491Y-20828722D01*
X6136491Y-20828722D02*
X6136491Y-20847770D01*
X6136491Y-20847770D02*
X6041253Y-20866817D01*
X6212682Y-20923960D02*
X6231730Y-20933484D01*
X6231730Y-20933484D02*
X6269825Y-20933484D01*
X6269825Y-20933484D02*
X6288872Y-20923960D01*
X6288872Y-20923960D02*
X6298396Y-20904912D01*
X6298396Y-20904912D02*
X6298396Y-20895389D01*
X6298396Y-20895389D02*
X6288872Y-20876341D01*
X6288872Y-20876341D02*
X6269825Y-20866817D01*
X6269825Y-20866817D02*
X6241253Y-20866817D01*
X6241253Y-20866817D02*
X6222206Y-20857293D01*
X6222206Y-20857293D02*
X6212682Y-20838246D01*
X6212682Y-20838246D02*
X6212682Y-20828722D01*
X6212682Y-20828722D02*
X6222206Y-20809674D01*
X6222206Y-20809674D02*
X6241253Y-20800150D01*
X6241253Y-20800150D02*
X6269825Y-20800150D01*
X6269825Y-20800150D02*
X6288872Y-20809674D01*
X6365063Y-21009674D02*
X6374587Y-21000150D01*
X6374587Y-21000150D02*
X6393634Y-20971579D01*
X6393634Y-20971579D02*
X6403158Y-20952531D01*
X6403158Y-20952531D02*
X6412682Y-20923960D01*
X6412682Y-20923960D02*
X6422206Y-20876341D01*
X6422206Y-20876341D02*
X6422206Y-20838246D01*
X6422206Y-20838246D02*
X6412682Y-20790627D01*
X6412682Y-20790627D02*
X6403158Y-20762055D01*
X6403158Y-20762055D02*
X6393634Y-20743008D01*
X6393634Y-20743008D02*
X6374587Y-20714436D01*
X6374587Y-20714436D02*
X6365063Y-20704912D01*
D13*
X1495000Y-21237000D02*
X1590000Y-21142000D01*
X1495000Y-21047000D01*
X1400000Y-21142000D01*
X1495000Y-21237000D01*
D10*
X1955539Y-21233484D02*
X1841253Y-21233484D01*
X1898396Y-21233484D02*
X1898396Y-21033484D01*
X1898396Y-21033484D02*
X1879348Y-21062055D01*
X1879348Y-21062055D02*
X1860301Y-21081103D01*
X1860301Y-21081103D02*
X1841253Y-21090627D01*
X2041253Y-21214436D02*
X2050777Y-21223960D01*
X2050777Y-21223960D02*
X2041253Y-21233484D01*
X2041253Y-21233484D02*
X2031729Y-21223960D01*
X2031729Y-21223960D02*
X2041253Y-21214436D01*
X2041253Y-21214436D02*
X2041253Y-21233484D01*
X2146015Y-21233484D02*
X2184110Y-21233484D01*
X2184110Y-21233484D02*
X2203158Y-21223960D01*
X2203158Y-21223960D02*
X2212682Y-21214436D01*
X2212682Y-21214436D02*
X2231729Y-21185865D01*
X2231729Y-21185865D02*
X2241253Y-21147770D01*
X2241253Y-21147770D02*
X2241253Y-21071579D01*
X2241253Y-21071579D02*
X2231729Y-21052531D01*
X2231729Y-21052531D02*
X2222205Y-21043008D01*
X2222205Y-21043008D02*
X2203158Y-21033484D01*
X2203158Y-21033484D02*
X2165063Y-21033484D01*
X2165063Y-21033484D02*
X2146015Y-21043008D01*
X2146015Y-21043008D02*
X2136491Y-21052531D01*
X2136491Y-21052531D02*
X2126967Y-21071579D01*
X2126967Y-21071579D02*
X2126967Y-21119198D01*
X2126967Y-21119198D02*
X2136491Y-21138246D01*
X2136491Y-21138246D02*
X2146015Y-21147770D01*
X2146015Y-21147770D02*
X2165063Y-21157293D01*
X2165063Y-21157293D02*
X2203158Y-21157293D01*
X2203158Y-21157293D02*
X2222205Y-21147770D01*
X2222205Y-21147770D02*
X2231729Y-21138246D01*
X2231729Y-21138246D02*
X2241253Y-21119198D01*
X2365063Y-21033484D02*
X2384110Y-21033484D01*
X2384110Y-21033484D02*
X2403158Y-21043008D01*
X2403158Y-21043008D02*
X2412682Y-21052531D01*
X2412682Y-21052531D02*
X2422205Y-21071579D01*
X2422205Y-21071579D02*
X2431729Y-21109674D01*
X2431729Y-21109674D02*
X2431729Y-21157293D01*
X2431729Y-21157293D02*
X2422205Y-21195389D01*
X2422205Y-21195389D02*
X2412682Y-21214436D01*
X2412682Y-21214436D02*
X2403158Y-21223960D01*
X2403158Y-21223960D02*
X2384110Y-21233484D01*
X2384110Y-21233484D02*
X2365063Y-21233484D01*
X2365063Y-21233484D02*
X2346015Y-21223960D01*
X2346015Y-21223960D02*
X2336491Y-21214436D01*
X2336491Y-21214436D02*
X2326967Y-21195389D01*
X2326967Y-21195389D02*
X2317444Y-21157293D01*
X2317444Y-21157293D02*
X2317444Y-21109674D01*
X2317444Y-21109674D02*
X2326967Y-21071579D01*
X2326967Y-21071579D02*
X2336491Y-21052531D01*
X2336491Y-21052531D02*
X2346015Y-21043008D01*
X2346015Y-21043008D02*
X2365063Y-21033484D01*
X2555539Y-21033484D02*
X2574586Y-21033484D01*
X2574586Y-21033484D02*
X2593634Y-21043008D01*
X2593634Y-21043008D02*
X2603158Y-21052531D01*
X2603158Y-21052531D02*
X2612682Y-21071579D01*
X2612682Y-21071579D02*
X2622205Y-21109674D01*
X2622205Y-21109674D02*
X2622205Y-21157293D01*
X2622205Y-21157293D02*
X2612682Y-21195389D01*
X2612682Y-21195389D02*
X2603158Y-21214436D01*
X2603158Y-21214436D02*
X2593634Y-21223960D01*
X2593634Y-21223960D02*
X2574586Y-21233484D01*
X2574586Y-21233484D02*
X2555539Y-21233484D01*
X2555539Y-21233484D02*
X2536491Y-21223960D01*
X2536491Y-21223960D02*
X2526967Y-21214436D01*
X2526967Y-21214436D02*
X2517444Y-21195389D01*
X2517444Y-21195389D02*
X2507920Y-21157293D01*
X2507920Y-21157293D02*
X2507920Y-21109674D01*
X2507920Y-21109674D02*
X2517444Y-21071579D01*
X2517444Y-21071579D02*
X2526967Y-21052531D01*
X2526967Y-21052531D02*
X2536491Y-21043008D01*
X2536491Y-21043008D02*
X2555539Y-21033484D01*
X2707920Y-21233484D02*
X2707920Y-21100150D01*
X2707920Y-21119198D02*
X2717444Y-21109674D01*
X2717444Y-21109674D02*
X2736491Y-21100150D01*
X2736491Y-21100150D02*
X2765063Y-21100150D01*
X2765063Y-21100150D02*
X2784110Y-21109674D01*
X2784110Y-21109674D02*
X2793634Y-21128722D01*
X2793634Y-21128722D02*
X2793634Y-21233484D01*
X2793634Y-21128722D02*
X2803158Y-21109674D01*
X2803158Y-21109674D02*
X2822205Y-21100150D01*
X2822205Y-21100150D02*
X2850777Y-21100150D01*
X2850777Y-21100150D02*
X2869824Y-21109674D01*
X2869824Y-21109674D02*
X2879348Y-21128722D01*
X2879348Y-21128722D02*
X2879348Y-21233484D01*
X2974586Y-21233484D02*
X2974586Y-21100150D01*
X2974586Y-21119198D02*
X2984110Y-21109674D01*
X2984110Y-21109674D02*
X3003158Y-21100150D01*
X3003158Y-21100150D02*
X3031729Y-21100150D01*
X3031729Y-21100150D02*
X3050777Y-21109674D01*
X3050777Y-21109674D02*
X3060301Y-21128722D01*
X3060301Y-21128722D02*
X3060301Y-21233484D01*
X3060301Y-21128722D02*
X3069824Y-21109674D01*
X3069824Y-21109674D02*
X3088872Y-21100150D01*
X3088872Y-21100150D02*
X3117443Y-21100150D01*
X3117443Y-21100150D02*
X3136491Y-21109674D01*
X3136491Y-21109674D02*
X3146015Y-21128722D01*
X3146015Y-21128722D02*
X3146015Y-21233484D01*
X3536491Y-21023960D02*
X3365063Y-21281103D01*
X3793634Y-21033484D02*
X3812682Y-21033484D01*
X3812682Y-21033484D02*
X3831729Y-21043008D01*
X3831729Y-21043008D02*
X3841253Y-21052531D01*
X3841253Y-21052531D02*
X3850777Y-21071579D01*
X3850777Y-21071579D02*
X3860301Y-21109674D01*
X3860301Y-21109674D02*
X3860301Y-21157293D01*
X3860301Y-21157293D02*
X3850777Y-21195389D01*
X3850777Y-21195389D02*
X3841253Y-21214436D01*
X3841253Y-21214436D02*
X3831729Y-21223960D01*
X3831729Y-21223960D02*
X3812682Y-21233484D01*
X3812682Y-21233484D02*
X3793634Y-21233484D01*
X3793634Y-21233484D02*
X3774586Y-21223960D01*
X3774586Y-21223960D02*
X3765063Y-21214436D01*
X3765063Y-21214436D02*
X3755539Y-21195389D01*
X3755539Y-21195389D02*
X3746015Y-21157293D01*
X3746015Y-21157293D02*
X3746015Y-21109674D01*
X3746015Y-21109674D02*
X3755539Y-21071579D01*
X3755539Y-21071579D02*
X3765063Y-21052531D01*
X3765063Y-21052531D02*
X3774586Y-21043008D01*
X3774586Y-21043008D02*
X3793634Y-21033484D01*
X3946015Y-21214436D02*
X3955539Y-21223960D01*
X3955539Y-21223960D02*
X3946015Y-21233484D01*
X3946015Y-21233484D02*
X3936491Y-21223960D01*
X3936491Y-21223960D02*
X3946015Y-21214436D01*
X3946015Y-21214436D02*
X3946015Y-21233484D01*
X4079348Y-21033484D02*
X4098396Y-21033484D01*
X4098396Y-21033484D02*
X4117444Y-21043008D01*
X4117444Y-21043008D02*
X4126967Y-21052531D01*
X4126967Y-21052531D02*
X4136491Y-21071579D01*
X4136491Y-21071579D02*
X4146015Y-21109674D01*
X4146015Y-21109674D02*
X4146015Y-21157293D01*
X4146015Y-21157293D02*
X4136491Y-21195389D01*
X4136491Y-21195389D02*
X4126967Y-21214436D01*
X4126967Y-21214436D02*
X4117444Y-21223960D01*
X4117444Y-21223960D02*
X4098396Y-21233484D01*
X4098396Y-21233484D02*
X4079348Y-21233484D01*
X4079348Y-21233484D02*
X4060301Y-21223960D01*
X4060301Y-21223960D02*
X4050777Y-21214436D01*
X4050777Y-21214436D02*
X4041253Y-21195389D01*
X4041253Y-21195389D02*
X4031729Y-21157293D01*
X4031729Y-21157293D02*
X4031729Y-21109674D01*
X4031729Y-21109674D02*
X4041253Y-21071579D01*
X4041253Y-21071579D02*
X4050777Y-21052531D01*
X4050777Y-21052531D02*
X4060301Y-21043008D01*
X4060301Y-21043008D02*
X4079348Y-21033484D01*
X4212682Y-21033484D02*
X4346015Y-21033484D01*
X4346015Y-21033484D02*
X4260301Y-21233484D01*
X4507920Y-21100150D02*
X4507920Y-21233484D01*
X4460301Y-21023960D02*
X4412682Y-21166817D01*
X4412682Y-21166817D02*
X4536491Y-21166817D01*
X4641253Y-21119198D02*
X4622206Y-21109674D01*
X4622206Y-21109674D02*
X4612682Y-21100150D01*
X4612682Y-21100150D02*
X4603158Y-21081103D01*
X4603158Y-21081103D02*
X4603158Y-21071579D01*
X4603158Y-21071579D02*
X4612682Y-21052531D01*
X4612682Y-21052531D02*
X4622206Y-21043008D01*
X4622206Y-21043008D02*
X4641253Y-21033484D01*
X4641253Y-21033484D02*
X4679349Y-21033484D01*
X4679349Y-21033484D02*
X4698396Y-21043008D01*
X4698396Y-21043008D02*
X4707920Y-21052531D01*
X4707920Y-21052531D02*
X4717444Y-21071579D01*
X4717444Y-21071579D02*
X4717444Y-21081103D01*
X4717444Y-21081103D02*
X4707920Y-21100150D01*
X4707920Y-21100150D02*
X4698396Y-21109674D01*
X4698396Y-21109674D02*
X4679349Y-21119198D01*
X4679349Y-21119198D02*
X4641253Y-21119198D01*
X4641253Y-21119198D02*
X4622206Y-21128722D01*
X4622206Y-21128722D02*
X4612682Y-21138246D01*
X4612682Y-21138246D02*
X4603158Y-21157293D01*
X4603158Y-21157293D02*
X4603158Y-21195389D01*
X4603158Y-21195389D02*
X4612682Y-21214436D01*
X4612682Y-21214436D02*
X4622206Y-21223960D01*
X4622206Y-21223960D02*
X4641253Y-21233484D01*
X4641253Y-21233484D02*
X4679349Y-21233484D01*
X4679349Y-21233484D02*
X4698396Y-21223960D01*
X4698396Y-21223960D02*
X4707920Y-21214436D01*
X4707920Y-21214436D02*
X4717444Y-21195389D01*
X4717444Y-21195389D02*
X4717444Y-21157293D01*
X4717444Y-21157293D02*
X4707920Y-21138246D01*
X4707920Y-21138246D02*
X4698396Y-21128722D01*
X4698396Y-21128722D02*
X4679349Y-21119198D01*
X4793634Y-21033484D02*
X4793634Y-21071579D01*
X4869825Y-21033484D02*
X4869825Y-21071579D01*
X5165063Y-21309674D02*
X5155539Y-21300150D01*
X5155539Y-21300150D02*
X5136491Y-21271579D01*
X5136491Y-21271579D02*
X5126968Y-21252531D01*
X5126968Y-21252531D02*
X5117444Y-21223960D01*
X5117444Y-21223960D02*
X5107920Y-21176341D01*
X5107920Y-21176341D02*
X5107920Y-21138246D01*
X5107920Y-21138246D02*
X5117444Y-21090627D01*
X5117444Y-21090627D02*
X5126968Y-21062055D01*
X5126968Y-21062055D02*
X5136491Y-21043008D01*
X5136491Y-21043008D02*
X5155539Y-21014436D01*
X5155539Y-21014436D02*
X5165063Y-21004912D01*
X5231730Y-21052531D02*
X5241253Y-21043008D01*
X5241253Y-21043008D02*
X5260301Y-21033484D01*
X5260301Y-21033484D02*
X5307920Y-21033484D01*
X5307920Y-21033484D02*
X5326968Y-21043008D01*
X5326968Y-21043008D02*
X5336491Y-21052531D01*
X5336491Y-21052531D02*
X5346015Y-21071579D01*
X5346015Y-21071579D02*
X5346015Y-21090627D01*
X5346015Y-21090627D02*
X5336491Y-21119198D01*
X5336491Y-21119198D02*
X5222206Y-21233484D01*
X5222206Y-21233484D02*
X5346015Y-21233484D01*
X5584111Y-21233484D02*
X5584111Y-21033484D01*
X5669825Y-21233484D02*
X5669825Y-21128722D01*
X5669825Y-21128722D02*
X5660301Y-21109674D01*
X5660301Y-21109674D02*
X5641253Y-21100150D01*
X5641253Y-21100150D02*
X5612682Y-21100150D01*
X5612682Y-21100150D02*
X5593634Y-21109674D01*
X5593634Y-21109674D02*
X5584111Y-21119198D01*
X5793634Y-21233484D02*
X5774587Y-21223960D01*
X5774587Y-21223960D02*
X5765063Y-21214436D01*
X5765063Y-21214436D02*
X5755539Y-21195389D01*
X5755539Y-21195389D02*
X5755539Y-21138246D01*
X5755539Y-21138246D02*
X5765063Y-21119198D01*
X5765063Y-21119198D02*
X5774587Y-21109674D01*
X5774587Y-21109674D02*
X5793634Y-21100150D01*
X5793634Y-21100150D02*
X5822206Y-21100150D01*
X5822206Y-21100150D02*
X5841253Y-21109674D01*
X5841253Y-21109674D02*
X5850777Y-21119198D01*
X5850777Y-21119198D02*
X5860301Y-21138246D01*
X5860301Y-21138246D02*
X5860301Y-21195389D01*
X5860301Y-21195389D02*
X5850777Y-21214436D01*
X5850777Y-21214436D02*
X5841253Y-21223960D01*
X5841253Y-21223960D02*
X5822206Y-21233484D01*
X5822206Y-21233484D02*
X5793634Y-21233484D01*
X5974587Y-21233484D02*
X5955539Y-21223960D01*
X5955539Y-21223960D02*
X5946015Y-21204912D01*
X5946015Y-21204912D02*
X5946015Y-21033484D01*
X6126968Y-21223960D02*
X6107920Y-21233484D01*
X6107920Y-21233484D02*
X6069825Y-21233484D01*
X6069825Y-21233484D02*
X6050777Y-21223960D01*
X6050777Y-21223960D02*
X6041253Y-21204912D01*
X6041253Y-21204912D02*
X6041253Y-21128722D01*
X6041253Y-21128722D02*
X6050777Y-21109674D01*
X6050777Y-21109674D02*
X6069825Y-21100150D01*
X6069825Y-21100150D02*
X6107920Y-21100150D01*
X6107920Y-21100150D02*
X6126968Y-21109674D01*
X6126968Y-21109674D02*
X6136491Y-21128722D01*
X6136491Y-21128722D02*
X6136491Y-21147770D01*
X6136491Y-21147770D02*
X6041253Y-21166817D01*
X6212682Y-21223960D02*
X6231730Y-21233484D01*
X6231730Y-21233484D02*
X6269825Y-21233484D01*
X6269825Y-21233484D02*
X6288872Y-21223960D01*
X6288872Y-21223960D02*
X6298396Y-21204912D01*
X6298396Y-21204912D02*
X6298396Y-21195389D01*
X6298396Y-21195389D02*
X6288872Y-21176341D01*
X6288872Y-21176341D02*
X6269825Y-21166817D01*
X6269825Y-21166817D02*
X6241253Y-21166817D01*
X6241253Y-21166817D02*
X6222206Y-21157293D01*
X6222206Y-21157293D02*
X6212682Y-21138246D01*
X6212682Y-21138246D02*
X6212682Y-21128722D01*
X6212682Y-21128722D02*
X6222206Y-21109674D01*
X6222206Y-21109674D02*
X6241253Y-21100150D01*
X6241253Y-21100150D02*
X6269825Y-21100150D01*
X6269825Y-21100150D02*
X6288872Y-21109674D01*
X6365063Y-21309674D02*
X6374587Y-21300150D01*
X6374587Y-21300150D02*
X6393634Y-21271579D01*
X6393634Y-21271579D02*
X6403158Y-21252531D01*
X6403158Y-21252531D02*
X6412682Y-21223960D01*
X6412682Y-21223960D02*
X6422206Y-21176341D01*
X6422206Y-21176341D02*
X6422206Y-21138246D01*
X6422206Y-21138246D02*
X6412682Y-21090627D01*
X6412682Y-21090627D02*
X6403158Y-21062055D01*
X6403158Y-21062055D02*
X6393634Y-21043008D01*
X6393634Y-21043008D02*
X6374587Y-21014436D01*
X6374587Y-21014436D02*
X6365063Y-21004912D01*
X1390000Y-21352000D02*
X1590000Y-21552000D01*
X1590000Y-21352000D02*
X1390000Y-21552000D01*
X1590000Y-21452000D02*
G75*
G03*
X1590000Y-21452000I-100000J0D01*
G01*
X1841253Y-21362531D02*
X1850777Y-21353008D01*
X1850777Y-21353008D02*
X1869824Y-21343484D01*
X1869824Y-21343484D02*
X1917443Y-21343484D01*
X1917443Y-21343484D02*
X1936491Y-21353008D01*
X1936491Y-21353008D02*
X1946015Y-21362531D01*
X1946015Y-21362531D02*
X1955539Y-21381579D01*
X1955539Y-21381579D02*
X1955539Y-21400627D01*
X1955539Y-21400627D02*
X1946015Y-21429198D01*
X1946015Y-21429198D02*
X1831729Y-21543484D01*
X1831729Y-21543484D02*
X1955539Y-21543484D01*
X2041253Y-21524436D02*
X2050777Y-21533960D01*
X2050777Y-21533960D02*
X2041253Y-21543484D01*
X2041253Y-21543484D02*
X2031729Y-21533960D01*
X2031729Y-21533960D02*
X2041253Y-21524436D01*
X2041253Y-21524436D02*
X2041253Y-21543484D01*
X2126967Y-21362531D02*
X2136491Y-21353008D01*
X2136491Y-21353008D02*
X2155539Y-21343484D01*
X2155539Y-21343484D02*
X2203158Y-21343484D01*
X2203158Y-21343484D02*
X2222205Y-21353008D01*
X2222205Y-21353008D02*
X2231729Y-21362531D01*
X2231729Y-21362531D02*
X2241253Y-21381579D01*
X2241253Y-21381579D02*
X2241253Y-21400627D01*
X2241253Y-21400627D02*
X2231729Y-21429198D01*
X2231729Y-21429198D02*
X2117444Y-21543484D01*
X2117444Y-21543484D02*
X2241253Y-21543484D01*
X2365063Y-21343484D02*
X2384110Y-21343484D01*
X2384110Y-21343484D02*
X2403158Y-21353008D01*
X2403158Y-21353008D02*
X2412682Y-21362531D01*
X2412682Y-21362531D02*
X2422205Y-21381579D01*
X2422205Y-21381579D02*
X2431729Y-21419674D01*
X2431729Y-21419674D02*
X2431729Y-21467293D01*
X2431729Y-21467293D02*
X2422205Y-21505389D01*
X2422205Y-21505389D02*
X2412682Y-21524436D01*
X2412682Y-21524436D02*
X2403158Y-21533960D01*
X2403158Y-21533960D02*
X2384110Y-21543484D01*
X2384110Y-21543484D02*
X2365063Y-21543484D01*
X2365063Y-21543484D02*
X2346015Y-21533960D01*
X2346015Y-21533960D02*
X2336491Y-21524436D01*
X2336491Y-21524436D02*
X2326967Y-21505389D01*
X2326967Y-21505389D02*
X2317444Y-21467293D01*
X2317444Y-21467293D02*
X2317444Y-21419674D01*
X2317444Y-21419674D02*
X2326967Y-21381579D01*
X2326967Y-21381579D02*
X2336491Y-21362531D01*
X2336491Y-21362531D02*
X2346015Y-21353008D01*
X2346015Y-21353008D02*
X2365063Y-21343484D01*
X2555539Y-21343484D02*
X2574586Y-21343484D01*
X2574586Y-21343484D02*
X2593634Y-21353008D01*
X2593634Y-21353008D02*
X2603158Y-21362531D01*
X2603158Y-21362531D02*
X2612682Y-21381579D01*
X2612682Y-21381579D02*
X2622205Y-21419674D01*
X2622205Y-21419674D02*
X2622205Y-21467293D01*
X2622205Y-21467293D02*
X2612682Y-21505389D01*
X2612682Y-21505389D02*
X2603158Y-21524436D01*
X2603158Y-21524436D02*
X2593634Y-21533960D01*
X2593634Y-21533960D02*
X2574586Y-21543484D01*
X2574586Y-21543484D02*
X2555539Y-21543484D01*
X2555539Y-21543484D02*
X2536491Y-21533960D01*
X2536491Y-21533960D02*
X2526967Y-21524436D01*
X2526967Y-21524436D02*
X2517444Y-21505389D01*
X2517444Y-21505389D02*
X2507920Y-21467293D01*
X2507920Y-21467293D02*
X2507920Y-21419674D01*
X2507920Y-21419674D02*
X2517444Y-21381579D01*
X2517444Y-21381579D02*
X2526967Y-21362531D01*
X2526967Y-21362531D02*
X2536491Y-21353008D01*
X2536491Y-21353008D02*
X2555539Y-21343484D01*
X2707920Y-21543484D02*
X2707920Y-21410150D01*
X2707920Y-21429198D02*
X2717444Y-21419674D01*
X2717444Y-21419674D02*
X2736491Y-21410150D01*
X2736491Y-21410150D02*
X2765063Y-21410150D01*
X2765063Y-21410150D02*
X2784110Y-21419674D01*
X2784110Y-21419674D02*
X2793634Y-21438722D01*
X2793634Y-21438722D02*
X2793634Y-21543484D01*
X2793634Y-21438722D02*
X2803158Y-21419674D01*
X2803158Y-21419674D02*
X2822205Y-21410150D01*
X2822205Y-21410150D02*
X2850777Y-21410150D01*
X2850777Y-21410150D02*
X2869824Y-21419674D01*
X2869824Y-21419674D02*
X2879348Y-21438722D01*
X2879348Y-21438722D02*
X2879348Y-21543484D01*
X2974586Y-21543484D02*
X2974586Y-21410150D01*
X2974586Y-21429198D02*
X2984110Y-21419674D01*
X2984110Y-21419674D02*
X3003158Y-21410150D01*
X3003158Y-21410150D02*
X3031729Y-21410150D01*
X3031729Y-21410150D02*
X3050777Y-21419674D01*
X3050777Y-21419674D02*
X3060301Y-21438722D01*
X3060301Y-21438722D02*
X3060301Y-21543484D01*
X3060301Y-21438722D02*
X3069824Y-21419674D01*
X3069824Y-21419674D02*
X3088872Y-21410150D01*
X3088872Y-21410150D02*
X3117443Y-21410150D01*
X3117443Y-21410150D02*
X3136491Y-21419674D01*
X3136491Y-21419674D02*
X3146015Y-21438722D01*
X3146015Y-21438722D02*
X3146015Y-21543484D01*
X3536491Y-21333960D02*
X3365063Y-21591103D01*
X3793634Y-21343484D02*
X3812682Y-21343484D01*
X3812682Y-21343484D02*
X3831729Y-21353008D01*
X3831729Y-21353008D02*
X3841253Y-21362531D01*
X3841253Y-21362531D02*
X3850777Y-21381579D01*
X3850777Y-21381579D02*
X3860301Y-21419674D01*
X3860301Y-21419674D02*
X3860301Y-21467293D01*
X3860301Y-21467293D02*
X3850777Y-21505389D01*
X3850777Y-21505389D02*
X3841253Y-21524436D01*
X3841253Y-21524436D02*
X3831729Y-21533960D01*
X3831729Y-21533960D02*
X3812682Y-21543484D01*
X3812682Y-21543484D02*
X3793634Y-21543484D01*
X3793634Y-21543484D02*
X3774586Y-21533960D01*
X3774586Y-21533960D02*
X3765063Y-21524436D01*
X3765063Y-21524436D02*
X3755539Y-21505389D01*
X3755539Y-21505389D02*
X3746015Y-21467293D01*
X3746015Y-21467293D02*
X3746015Y-21419674D01*
X3746015Y-21419674D02*
X3755539Y-21381579D01*
X3755539Y-21381579D02*
X3765063Y-21362531D01*
X3765063Y-21362531D02*
X3774586Y-21353008D01*
X3774586Y-21353008D02*
X3793634Y-21343484D01*
X3946015Y-21524436D02*
X3955539Y-21533960D01*
X3955539Y-21533960D02*
X3946015Y-21543484D01*
X3946015Y-21543484D02*
X3936491Y-21533960D01*
X3936491Y-21533960D02*
X3946015Y-21524436D01*
X3946015Y-21524436D02*
X3946015Y-21543484D01*
X4079348Y-21343484D02*
X4098396Y-21343484D01*
X4098396Y-21343484D02*
X4117444Y-21353008D01*
X4117444Y-21353008D02*
X4126967Y-21362531D01*
X4126967Y-21362531D02*
X4136491Y-21381579D01*
X4136491Y-21381579D02*
X4146015Y-21419674D01*
X4146015Y-21419674D02*
X4146015Y-21467293D01*
X4146015Y-21467293D02*
X4136491Y-21505389D01*
X4136491Y-21505389D02*
X4126967Y-21524436D01*
X4126967Y-21524436D02*
X4117444Y-21533960D01*
X4117444Y-21533960D02*
X4098396Y-21543484D01*
X4098396Y-21543484D02*
X4079348Y-21543484D01*
X4079348Y-21543484D02*
X4060301Y-21533960D01*
X4060301Y-21533960D02*
X4050777Y-21524436D01*
X4050777Y-21524436D02*
X4041253Y-21505389D01*
X4041253Y-21505389D02*
X4031729Y-21467293D01*
X4031729Y-21467293D02*
X4031729Y-21419674D01*
X4031729Y-21419674D02*
X4041253Y-21381579D01*
X4041253Y-21381579D02*
X4050777Y-21362531D01*
X4050777Y-21362531D02*
X4060301Y-21353008D01*
X4060301Y-21353008D02*
X4079348Y-21343484D01*
X4260301Y-21429198D02*
X4241253Y-21419674D01*
X4241253Y-21419674D02*
X4231729Y-21410150D01*
X4231729Y-21410150D02*
X4222206Y-21391103D01*
X4222206Y-21391103D02*
X4222206Y-21381579D01*
X4222206Y-21381579D02*
X4231729Y-21362531D01*
X4231729Y-21362531D02*
X4241253Y-21353008D01*
X4241253Y-21353008D02*
X4260301Y-21343484D01*
X4260301Y-21343484D02*
X4298396Y-21343484D01*
X4298396Y-21343484D02*
X4317444Y-21353008D01*
X4317444Y-21353008D02*
X4326968Y-21362531D01*
X4326968Y-21362531D02*
X4336491Y-21381579D01*
X4336491Y-21381579D02*
X4336491Y-21391103D01*
X4336491Y-21391103D02*
X4326968Y-21410150D01*
X4326968Y-21410150D02*
X4317444Y-21419674D01*
X4317444Y-21419674D02*
X4298396Y-21429198D01*
X4298396Y-21429198D02*
X4260301Y-21429198D01*
X4260301Y-21429198D02*
X4241253Y-21438722D01*
X4241253Y-21438722D02*
X4231729Y-21448246D01*
X4231729Y-21448246D02*
X4222206Y-21467293D01*
X4222206Y-21467293D02*
X4222206Y-21505389D01*
X4222206Y-21505389D02*
X4231729Y-21524436D01*
X4231729Y-21524436D02*
X4241253Y-21533960D01*
X4241253Y-21533960D02*
X4260301Y-21543484D01*
X4260301Y-21543484D02*
X4298396Y-21543484D01*
X4298396Y-21543484D02*
X4317444Y-21533960D01*
X4317444Y-21533960D02*
X4326968Y-21524436D01*
X4326968Y-21524436D02*
X4336491Y-21505389D01*
X4336491Y-21505389D02*
X4336491Y-21467293D01*
X4336491Y-21467293D02*
X4326968Y-21448246D01*
X4326968Y-21448246D02*
X4317444Y-21438722D01*
X4317444Y-21438722D02*
X4298396Y-21429198D01*
X4507920Y-21343484D02*
X4469825Y-21343484D01*
X4469825Y-21343484D02*
X4450777Y-21353008D01*
X4450777Y-21353008D02*
X4441253Y-21362531D01*
X4441253Y-21362531D02*
X4422206Y-21391103D01*
X4422206Y-21391103D02*
X4412682Y-21429198D01*
X4412682Y-21429198D02*
X4412682Y-21505389D01*
X4412682Y-21505389D02*
X4422206Y-21524436D01*
X4422206Y-21524436D02*
X4431729Y-21533960D01*
X4431729Y-21533960D02*
X4450777Y-21543484D01*
X4450777Y-21543484D02*
X4488872Y-21543484D01*
X4488872Y-21543484D02*
X4507920Y-21533960D01*
X4507920Y-21533960D02*
X4517444Y-21524436D01*
X4517444Y-21524436D02*
X4526968Y-21505389D01*
X4526968Y-21505389D02*
X4526968Y-21457770D01*
X4526968Y-21457770D02*
X4517444Y-21438722D01*
X4517444Y-21438722D02*
X4507920Y-21429198D01*
X4507920Y-21429198D02*
X4488872Y-21419674D01*
X4488872Y-21419674D02*
X4450777Y-21419674D01*
X4450777Y-21419674D02*
X4431729Y-21429198D01*
X4431729Y-21429198D02*
X4422206Y-21438722D01*
X4422206Y-21438722D02*
X4412682Y-21457770D01*
X4698396Y-21343484D02*
X4660301Y-21343484D01*
X4660301Y-21343484D02*
X4641253Y-21353008D01*
X4641253Y-21353008D02*
X4631729Y-21362531D01*
X4631729Y-21362531D02*
X4612682Y-21391103D01*
X4612682Y-21391103D02*
X4603158Y-21429198D01*
X4603158Y-21429198D02*
X4603158Y-21505389D01*
X4603158Y-21505389D02*
X4612682Y-21524436D01*
X4612682Y-21524436D02*
X4622206Y-21533960D01*
X4622206Y-21533960D02*
X4641253Y-21543484D01*
X4641253Y-21543484D02*
X4679349Y-21543484D01*
X4679349Y-21543484D02*
X4698396Y-21533960D01*
X4698396Y-21533960D02*
X4707920Y-21524436D01*
X4707920Y-21524436D02*
X4717444Y-21505389D01*
X4717444Y-21505389D02*
X4717444Y-21457770D01*
X4717444Y-21457770D02*
X4707920Y-21438722D01*
X4707920Y-21438722D02*
X4698396Y-21429198D01*
X4698396Y-21429198D02*
X4679349Y-21419674D01*
X4679349Y-21419674D02*
X4641253Y-21419674D01*
X4641253Y-21419674D02*
X4622206Y-21429198D01*
X4622206Y-21429198D02*
X4612682Y-21438722D01*
X4612682Y-21438722D02*
X4603158Y-21457770D01*
X4793634Y-21343484D02*
X4793634Y-21381579D01*
X4869825Y-21343484D02*
X4869825Y-21381579D01*
X5165063Y-21619674D02*
X5155539Y-21610150D01*
X5155539Y-21610150D02*
X5136491Y-21581579D01*
X5136491Y-21581579D02*
X5126968Y-21562531D01*
X5126968Y-21562531D02*
X5117444Y-21533960D01*
X5117444Y-21533960D02*
X5107920Y-21486341D01*
X5107920Y-21486341D02*
X5107920Y-21448246D01*
X5107920Y-21448246D02*
X5117444Y-21400627D01*
X5117444Y-21400627D02*
X5126968Y-21372055D01*
X5126968Y-21372055D02*
X5136491Y-21353008D01*
X5136491Y-21353008D02*
X5155539Y-21324436D01*
X5155539Y-21324436D02*
X5165063Y-21314912D01*
X5231730Y-21362531D02*
X5241253Y-21353008D01*
X5241253Y-21353008D02*
X5260301Y-21343484D01*
X5260301Y-21343484D02*
X5307920Y-21343484D01*
X5307920Y-21343484D02*
X5326968Y-21353008D01*
X5326968Y-21353008D02*
X5336491Y-21362531D01*
X5336491Y-21362531D02*
X5346015Y-21381579D01*
X5346015Y-21381579D02*
X5346015Y-21400627D01*
X5346015Y-21400627D02*
X5336491Y-21429198D01*
X5336491Y-21429198D02*
X5222206Y-21543484D01*
X5222206Y-21543484D02*
X5346015Y-21543484D01*
X5584111Y-21543484D02*
X5584111Y-21343484D01*
X5669825Y-21543484D02*
X5669825Y-21438722D01*
X5669825Y-21438722D02*
X5660301Y-21419674D01*
X5660301Y-21419674D02*
X5641253Y-21410150D01*
X5641253Y-21410150D02*
X5612682Y-21410150D01*
X5612682Y-21410150D02*
X5593634Y-21419674D01*
X5593634Y-21419674D02*
X5584111Y-21429198D01*
X5793634Y-21543484D02*
X5774587Y-21533960D01*
X5774587Y-21533960D02*
X5765063Y-21524436D01*
X5765063Y-21524436D02*
X5755539Y-21505389D01*
X5755539Y-21505389D02*
X5755539Y-21448246D01*
X5755539Y-21448246D02*
X5765063Y-21429198D01*
X5765063Y-21429198D02*
X5774587Y-21419674D01*
X5774587Y-21419674D02*
X5793634Y-21410150D01*
X5793634Y-21410150D02*
X5822206Y-21410150D01*
X5822206Y-21410150D02*
X5841253Y-21419674D01*
X5841253Y-21419674D02*
X5850777Y-21429198D01*
X5850777Y-21429198D02*
X5860301Y-21448246D01*
X5860301Y-21448246D02*
X5860301Y-21505389D01*
X5860301Y-21505389D02*
X5850777Y-21524436D01*
X5850777Y-21524436D02*
X5841253Y-21533960D01*
X5841253Y-21533960D02*
X5822206Y-21543484D01*
X5822206Y-21543484D02*
X5793634Y-21543484D01*
X5974587Y-21543484D02*
X5955539Y-21533960D01*
X5955539Y-21533960D02*
X5946015Y-21514912D01*
X5946015Y-21514912D02*
X5946015Y-21343484D01*
X6126968Y-21533960D02*
X6107920Y-21543484D01*
X6107920Y-21543484D02*
X6069825Y-21543484D01*
X6069825Y-21543484D02*
X6050777Y-21533960D01*
X6050777Y-21533960D02*
X6041253Y-21514912D01*
X6041253Y-21514912D02*
X6041253Y-21438722D01*
X6041253Y-21438722D02*
X6050777Y-21419674D01*
X6050777Y-21419674D02*
X6069825Y-21410150D01*
X6069825Y-21410150D02*
X6107920Y-21410150D01*
X6107920Y-21410150D02*
X6126968Y-21419674D01*
X6126968Y-21419674D02*
X6136491Y-21438722D01*
X6136491Y-21438722D02*
X6136491Y-21457770D01*
X6136491Y-21457770D02*
X6041253Y-21476817D01*
X6212682Y-21533960D02*
X6231730Y-21543484D01*
X6231730Y-21543484D02*
X6269825Y-21543484D01*
X6269825Y-21543484D02*
X6288872Y-21533960D01*
X6288872Y-21533960D02*
X6298396Y-21514912D01*
X6298396Y-21514912D02*
X6298396Y-21505389D01*
X6298396Y-21505389D02*
X6288872Y-21486341D01*
X6288872Y-21486341D02*
X6269825Y-21476817D01*
X6269825Y-21476817D02*
X6241253Y-21476817D01*
X6241253Y-21476817D02*
X6222206Y-21467293D01*
X6222206Y-21467293D02*
X6212682Y-21448246D01*
X6212682Y-21448246D02*
X6212682Y-21438722D01*
X6212682Y-21438722D02*
X6222206Y-21419674D01*
X6222206Y-21419674D02*
X6241253Y-21410150D01*
X6241253Y-21410150D02*
X6269825Y-21410150D01*
X6269825Y-21410150D02*
X6288872Y-21419674D01*
X6365063Y-21619674D02*
X6374587Y-21610150D01*
X6374587Y-21610150D02*
X6393634Y-21581579D01*
X6393634Y-21581579D02*
X6403158Y-21562531D01*
X6403158Y-21562531D02*
X6412682Y-21533960D01*
X6412682Y-21533960D02*
X6422206Y-21486341D01*
X6422206Y-21486341D02*
X6422206Y-21448246D01*
X6422206Y-21448246D02*
X6412682Y-21400627D01*
X6412682Y-21400627D02*
X6403158Y-21372055D01*
X6403158Y-21372055D02*
X6393634Y-21353008D01*
X6393634Y-21353008D02*
X6374587Y-21324436D01*
X6374587Y-21324436D02*
X6365063Y-21314912D01*
X1390000Y-21672000D02*
X1590000Y-21872000D01*
X1590000Y-21672000D02*
X1390000Y-21872000D01*
X1490000Y-21672000D02*
X1490000Y-21872000D01*
X1390000Y-21772000D02*
X1590000Y-21772000D01*
X1841253Y-21682531D02*
X1850777Y-21673008D01*
X1850777Y-21673008D02*
X1869824Y-21663484D01*
X1869824Y-21663484D02*
X1917443Y-21663484D01*
X1917443Y-21663484D02*
X1936491Y-21673008D01*
X1936491Y-21673008D02*
X1946015Y-21682531D01*
X1946015Y-21682531D02*
X1955539Y-21701579D01*
X1955539Y-21701579D02*
X1955539Y-21720627D01*
X1955539Y-21720627D02*
X1946015Y-21749198D01*
X1946015Y-21749198D02*
X1831729Y-21863484D01*
X1831729Y-21863484D02*
X1955539Y-21863484D01*
X2041253Y-21844436D02*
X2050777Y-21853960D01*
X2050777Y-21853960D02*
X2041253Y-21863484D01*
X2041253Y-21863484D02*
X2031729Y-21853960D01*
X2031729Y-21853960D02*
X2041253Y-21844436D01*
X2041253Y-21844436D02*
X2041253Y-21863484D01*
X2231729Y-21663484D02*
X2136491Y-21663484D01*
X2136491Y-21663484D02*
X2126967Y-21758722D01*
X2126967Y-21758722D02*
X2136491Y-21749198D01*
X2136491Y-21749198D02*
X2155539Y-21739674D01*
X2155539Y-21739674D02*
X2203158Y-21739674D01*
X2203158Y-21739674D02*
X2222205Y-21749198D01*
X2222205Y-21749198D02*
X2231729Y-21758722D01*
X2231729Y-21758722D02*
X2241253Y-21777770D01*
X2241253Y-21777770D02*
X2241253Y-21825389D01*
X2241253Y-21825389D02*
X2231729Y-21844436D01*
X2231729Y-21844436D02*
X2222205Y-21853960D01*
X2222205Y-21853960D02*
X2203158Y-21863484D01*
X2203158Y-21863484D02*
X2155539Y-21863484D01*
X2155539Y-21863484D02*
X2136491Y-21853960D01*
X2136491Y-21853960D02*
X2126967Y-21844436D01*
X2365063Y-21663484D02*
X2384110Y-21663484D01*
X2384110Y-21663484D02*
X2403158Y-21673008D01*
X2403158Y-21673008D02*
X2412682Y-21682531D01*
X2412682Y-21682531D02*
X2422205Y-21701579D01*
X2422205Y-21701579D02*
X2431729Y-21739674D01*
X2431729Y-21739674D02*
X2431729Y-21787293D01*
X2431729Y-21787293D02*
X2422205Y-21825389D01*
X2422205Y-21825389D02*
X2412682Y-21844436D01*
X2412682Y-21844436D02*
X2403158Y-21853960D01*
X2403158Y-21853960D02*
X2384110Y-21863484D01*
X2384110Y-21863484D02*
X2365063Y-21863484D01*
X2365063Y-21863484D02*
X2346015Y-21853960D01*
X2346015Y-21853960D02*
X2336491Y-21844436D01*
X2336491Y-21844436D02*
X2326967Y-21825389D01*
X2326967Y-21825389D02*
X2317444Y-21787293D01*
X2317444Y-21787293D02*
X2317444Y-21739674D01*
X2317444Y-21739674D02*
X2326967Y-21701579D01*
X2326967Y-21701579D02*
X2336491Y-21682531D01*
X2336491Y-21682531D02*
X2346015Y-21673008D01*
X2346015Y-21673008D02*
X2365063Y-21663484D01*
X2555539Y-21663484D02*
X2574586Y-21663484D01*
X2574586Y-21663484D02*
X2593634Y-21673008D01*
X2593634Y-21673008D02*
X2603158Y-21682531D01*
X2603158Y-21682531D02*
X2612682Y-21701579D01*
X2612682Y-21701579D02*
X2622205Y-21739674D01*
X2622205Y-21739674D02*
X2622205Y-21787293D01*
X2622205Y-21787293D02*
X2612682Y-21825389D01*
X2612682Y-21825389D02*
X2603158Y-21844436D01*
X2603158Y-21844436D02*
X2593634Y-21853960D01*
X2593634Y-21853960D02*
X2574586Y-21863484D01*
X2574586Y-21863484D02*
X2555539Y-21863484D01*
X2555539Y-21863484D02*
X2536491Y-21853960D01*
X2536491Y-21853960D02*
X2526967Y-21844436D01*
X2526967Y-21844436D02*
X2517444Y-21825389D01*
X2517444Y-21825389D02*
X2507920Y-21787293D01*
X2507920Y-21787293D02*
X2507920Y-21739674D01*
X2507920Y-21739674D02*
X2517444Y-21701579D01*
X2517444Y-21701579D02*
X2526967Y-21682531D01*
X2526967Y-21682531D02*
X2536491Y-21673008D01*
X2536491Y-21673008D02*
X2555539Y-21663484D01*
X2707920Y-21863484D02*
X2707920Y-21730150D01*
X2707920Y-21749198D02*
X2717444Y-21739674D01*
X2717444Y-21739674D02*
X2736491Y-21730150D01*
X2736491Y-21730150D02*
X2765063Y-21730150D01*
X2765063Y-21730150D02*
X2784110Y-21739674D01*
X2784110Y-21739674D02*
X2793634Y-21758722D01*
X2793634Y-21758722D02*
X2793634Y-21863484D01*
X2793634Y-21758722D02*
X2803158Y-21739674D01*
X2803158Y-21739674D02*
X2822205Y-21730150D01*
X2822205Y-21730150D02*
X2850777Y-21730150D01*
X2850777Y-21730150D02*
X2869824Y-21739674D01*
X2869824Y-21739674D02*
X2879348Y-21758722D01*
X2879348Y-21758722D02*
X2879348Y-21863484D01*
X2974586Y-21863484D02*
X2974586Y-21730150D01*
X2974586Y-21749198D02*
X2984110Y-21739674D01*
X2984110Y-21739674D02*
X3003158Y-21730150D01*
X3003158Y-21730150D02*
X3031729Y-21730150D01*
X3031729Y-21730150D02*
X3050777Y-21739674D01*
X3050777Y-21739674D02*
X3060301Y-21758722D01*
X3060301Y-21758722D02*
X3060301Y-21863484D01*
X3060301Y-21758722D02*
X3069824Y-21739674D01*
X3069824Y-21739674D02*
X3088872Y-21730150D01*
X3088872Y-21730150D02*
X3117443Y-21730150D01*
X3117443Y-21730150D02*
X3136491Y-21739674D01*
X3136491Y-21739674D02*
X3146015Y-21758722D01*
X3146015Y-21758722D02*
X3146015Y-21863484D01*
X3536491Y-21653960D02*
X3365063Y-21911103D01*
X3793634Y-21663484D02*
X3812682Y-21663484D01*
X3812682Y-21663484D02*
X3831729Y-21673008D01*
X3831729Y-21673008D02*
X3841253Y-21682531D01*
X3841253Y-21682531D02*
X3850777Y-21701579D01*
X3850777Y-21701579D02*
X3860301Y-21739674D01*
X3860301Y-21739674D02*
X3860301Y-21787293D01*
X3860301Y-21787293D02*
X3850777Y-21825389D01*
X3850777Y-21825389D02*
X3841253Y-21844436D01*
X3841253Y-21844436D02*
X3831729Y-21853960D01*
X3831729Y-21853960D02*
X3812682Y-21863484D01*
X3812682Y-21863484D02*
X3793634Y-21863484D01*
X3793634Y-21863484D02*
X3774586Y-21853960D01*
X3774586Y-21853960D02*
X3765063Y-21844436D01*
X3765063Y-21844436D02*
X3755539Y-21825389D01*
X3755539Y-21825389D02*
X3746015Y-21787293D01*
X3746015Y-21787293D02*
X3746015Y-21739674D01*
X3746015Y-21739674D02*
X3755539Y-21701579D01*
X3755539Y-21701579D02*
X3765063Y-21682531D01*
X3765063Y-21682531D02*
X3774586Y-21673008D01*
X3774586Y-21673008D02*
X3793634Y-21663484D01*
X3946015Y-21844436D02*
X3955539Y-21853960D01*
X3955539Y-21853960D02*
X3946015Y-21863484D01*
X3946015Y-21863484D02*
X3936491Y-21853960D01*
X3936491Y-21853960D02*
X3946015Y-21844436D01*
X3946015Y-21844436D02*
X3946015Y-21863484D01*
X4079348Y-21663484D02*
X4098396Y-21663484D01*
X4098396Y-21663484D02*
X4117444Y-21673008D01*
X4117444Y-21673008D02*
X4126967Y-21682531D01*
X4126967Y-21682531D02*
X4136491Y-21701579D01*
X4136491Y-21701579D02*
X4146015Y-21739674D01*
X4146015Y-21739674D02*
X4146015Y-21787293D01*
X4146015Y-21787293D02*
X4136491Y-21825389D01*
X4136491Y-21825389D02*
X4126967Y-21844436D01*
X4126967Y-21844436D02*
X4117444Y-21853960D01*
X4117444Y-21853960D02*
X4098396Y-21863484D01*
X4098396Y-21863484D02*
X4079348Y-21863484D01*
X4079348Y-21863484D02*
X4060301Y-21853960D01*
X4060301Y-21853960D02*
X4050777Y-21844436D01*
X4050777Y-21844436D02*
X4041253Y-21825389D01*
X4041253Y-21825389D02*
X4031729Y-21787293D01*
X4031729Y-21787293D02*
X4031729Y-21739674D01*
X4031729Y-21739674D02*
X4041253Y-21701579D01*
X4041253Y-21701579D02*
X4050777Y-21682531D01*
X4050777Y-21682531D02*
X4060301Y-21673008D01*
X4060301Y-21673008D02*
X4079348Y-21663484D01*
X4241253Y-21863484D02*
X4279348Y-21863484D01*
X4279348Y-21863484D02*
X4298396Y-21853960D01*
X4298396Y-21853960D02*
X4307920Y-21844436D01*
X4307920Y-21844436D02*
X4326968Y-21815865D01*
X4326968Y-21815865D02*
X4336491Y-21777770D01*
X4336491Y-21777770D02*
X4336491Y-21701579D01*
X4336491Y-21701579D02*
X4326968Y-21682531D01*
X4326968Y-21682531D02*
X4317444Y-21673008D01*
X4317444Y-21673008D02*
X4298396Y-21663484D01*
X4298396Y-21663484D02*
X4260301Y-21663484D01*
X4260301Y-21663484D02*
X4241253Y-21673008D01*
X4241253Y-21673008D02*
X4231729Y-21682531D01*
X4231729Y-21682531D02*
X4222206Y-21701579D01*
X4222206Y-21701579D02*
X4222206Y-21749198D01*
X4222206Y-21749198D02*
X4231729Y-21768246D01*
X4231729Y-21768246D02*
X4241253Y-21777770D01*
X4241253Y-21777770D02*
X4260301Y-21787293D01*
X4260301Y-21787293D02*
X4298396Y-21787293D01*
X4298396Y-21787293D02*
X4317444Y-21777770D01*
X4317444Y-21777770D02*
X4326968Y-21768246D01*
X4326968Y-21768246D02*
X4336491Y-21749198D01*
X4450777Y-21749198D02*
X4431729Y-21739674D01*
X4431729Y-21739674D02*
X4422206Y-21730150D01*
X4422206Y-21730150D02*
X4412682Y-21711103D01*
X4412682Y-21711103D02*
X4412682Y-21701579D01*
X4412682Y-21701579D02*
X4422206Y-21682531D01*
X4422206Y-21682531D02*
X4431729Y-21673008D01*
X4431729Y-21673008D02*
X4450777Y-21663484D01*
X4450777Y-21663484D02*
X4488872Y-21663484D01*
X4488872Y-21663484D02*
X4507920Y-21673008D01*
X4507920Y-21673008D02*
X4517444Y-21682531D01*
X4517444Y-21682531D02*
X4526968Y-21701579D01*
X4526968Y-21701579D02*
X4526968Y-21711103D01*
X4526968Y-21711103D02*
X4517444Y-21730150D01*
X4517444Y-21730150D02*
X4507920Y-21739674D01*
X4507920Y-21739674D02*
X4488872Y-21749198D01*
X4488872Y-21749198D02*
X4450777Y-21749198D01*
X4450777Y-21749198D02*
X4431729Y-21758722D01*
X4431729Y-21758722D02*
X4422206Y-21768246D01*
X4422206Y-21768246D02*
X4412682Y-21787293D01*
X4412682Y-21787293D02*
X4412682Y-21825389D01*
X4412682Y-21825389D02*
X4422206Y-21844436D01*
X4422206Y-21844436D02*
X4431729Y-21853960D01*
X4431729Y-21853960D02*
X4450777Y-21863484D01*
X4450777Y-21863484D02*
X4488872Y-21863484D01*
X4488872Y-21863484D02*
X4507920Y-21853960D01*
X4507920Y-21853960D02*
X4517444Y-21844436D01*
X4517444Y-21844436D02*
X4526968Y-21825389D01*
X4526968Y-21825389D02*
X4526968Y-21787293D01*
X4526968Y-21787293D02*
X4517444Y-21768246D01*
X4517444Y-21768246D02*
X4507920Y-21758722D01*
X4507920Y-21758722D02*
X4488872Y-21749198D01*
X4698396Y-21730150D02*
X4698396Y-21863484D01*
X4650777Y-21653960D02*
X4603158Y-21796817D01*
X4603158Y-21796817D02*
X4726968Y-21796817D01*
X4793634Y-21663484D02*
X4793634Y-21701579D01*
X4869825Y-21663484D02*
X4869825Y-21701579D01*
X5165063Y-21939674D02*
X5155539Y-21930150D01*
X5155539Y-21930150D02*
X5136491Y-21901579D01*
X5136491Y-21901579D02*
X5126968Y-21882531D01*
X5126968Y-21882531D02*
X5117444Y-21853960D01*
X5117444Y-21853960D02*
X5107920Y-21806341D01*
X5107920Y-21806341D02*
X5107920Y-21768246D01*
X5107920Y-21768246D02*
X5117444Y-21720627D01*
X5117444Y-21720627D02*
X5126968Y-21692055D01*
X5126968Y-21692055D02*
X5136491Y-21673008D01*
X5136491Y-21673008D02*
X5155539Y-21644436D01*
X5155539Y-21644436D02*
X5165063Y-21634912D01*
X5269825Y-21749198D02*
X5250777Y-21739674D01*
X5250777Y-21739674D02*
X5241253Y-21730150D01*
X5241253Y-21730150D02*
X5231730Y-21711103D01*
X5231730Y-21711103D02*
X5231730Y-21701579D01*
X5231730Y-21701579D02*
X5241253Y-21682531D01*
X5241253Y-21682531D02*
X5250777Y-21673008D01*
X5250777Y-21673008D02*
X5269825Y-21663484D01*
X5269825Y-21663484D02*
X5307920Y-21663484D01*
X5307920Y-21663484D02*
X5326968Y-21673008D01*
X5326968Y-21673008D02*
X5336491Y-21682531D01*
X5336491Y-21682531D02*
X5346015Y-21701579D01*
X5346015Y-21701579D02*
X5346015Y-21711103D01*
X5346015Y-21711103D02*
X5336491Y-21730150D01*
X5336491Y-21730150D02*
X5326968Y-21739674D01*
X5326968Y-21739674D02*
X5307920Y-21749198D01*
X5307920Y-21749198D02*
X5269825Y-21749198D01*
X5269825Y-21749198D02*
X5250777Y-21758722D01*
X5250777Y-21758722D02*
X5241253Y-21768246D01*
X5241253Y-21768246D02*
X5231730Y-21787293D01*
X5231730Y-21787293D02*
X5231730Y-21825389D01*
X5231730Y-21825389D02*
X5241253Y-21844436D01*
X5241253Y-21844436D02*
X5250777Y-21853960D01*
X5250777Y-21853960D02*
X5269825Y-21863484D01*
X5269825Y-21863484D02*
X5307920Y-21863484D01*
X5307920Y-21863484D02*
X5326968Y-21853960D01*
X5326968Y-21853960D02*
X5336491Y-21844436D01*
X5336491Y-21844436D02*
X5346015Y-21825389D01*
X5346015Y-21825389D02*
X5346015Y-21787293D01*
X5346015Y-21787293D02*
X5336491Y-21768246D01*
X5336491Y-21768246D02*
X5326968Y-21758722D01*
X5326968Y-21758722D02*
X5307920Y-21749198D01*
X5584111Y-21863484D02*
X5584111Y-21663484D01*
X5669825Y-21863484D02*
X5669825Y-21758722D01*
X5669825Y-21758722D02*
X5660301Y-21739674D01*
X5660301Y-21739674D02*
X5641253Y-21730150D01*
X5641253Y-21730150D02*
X5612682Y-21730150D01*
X5612682Y-21730150D02*
X5593634Y-21739674D01*
X5593634Y-21739674D02*
X5584111Y-21749198D01*
X5793634Y-21863484D02*
X5774587Y-21853960D01*
X5774587Y-21853960D02*
X5765063Y-21844436D01*
X5765063Y-21844436D02*
X5755539Y-21825389D01*
X5755539Y-21825389D02*
X5755539Y-21768246D01*
X5755539Y-21768246D02*
X5765063Y-21749198D01*
X5765063Y-21749198D02*
X5774587Y-21739674D01*
X5774587Y-21739674D02*
X5793634Y-21730150D01*
X5793634Y-21730150D02*
X5822206Y-21730150D01*
X5822206Y-21730150D02*
X5841253Y-21739674D01*
X5841253Y-21739674D02*
X5850777Y-21749198D01*
X5850777Y-21749198D02*
X5860301Y-21768246D01*
X5860301Y-21768246D02*
X5860301Y-21825389D01*
X5860301Y-21825389D02*
X5850777Y-21844436D01*
X5850777Y-21844436D02*
X5841253Y-21853960D01*
X5841253Y-21853960D02*
X5822206Y-21863484D01*
X5822206Y-21863484D02*
X5793634Y-21863484D01*
X5974587Y-21863484D02*
X5955539Y-21853960D01*
X5955539Y-21853960D02*
X5946015Y-21834912D01*
X5946015Y-21834912D02*
X5946015Y-21663484D01*
X6126968Y-21853960D02*
X6107920Y-21863484D01*
X6107920Y-21863484D02*
X6069825Y-21863484D01*
X6069825Y-21863484D02*
X6050777Y-21853960D01*
X6050777Y-21853960D02*
X6041253Y-21834912D01*
X6041253Y-21834912D02*
X6041253Y-21758722D01*
X6041253Y-21758722D02*
X6050777Y-21739674D01*
X6050777Y-21739674D02*
X6069825Y-21730150D01*
X6069825Y-21730150D02*
X6107920Y-21730150D01*
X6107920Y-21730150D02*
X6126968Y-21739674D01*
X6126968Y-21739674D02*
X6136491Y-21758722D01*
X6136491Y-21758722D02*
X6136491Y-21777770D01*
X6136491Y-21777770D02*
X6041253Y-21796817D01*
X6212682Y-21853960D02*
X6231730Y-21863484D01*
X6231730Y-21863484D02*
X6269825Y-21863484D01*
X6269825Y-21863484D02*
X6288872Y-21853960D01*
X6288872Y-21853960D02*
X6298396Y-21834912D01*
X6298396Y-21834912D02*
X6298396Y-21825389D01*
X6298396Y-21825389D02*
X6288872Y-21806341D01*
X6288872Y-21806341D02*
X6269825Y-21796817D01*
X6269825Y-21796817D02*
X6241253Y-21796817D01*
X6241253Y-21796817D02*
X6222206Y-21787293D01*
X6222206Y-21787293D02*
X6212682Y-21768246D01*
X6212682Y-21768246D02*
X6212682Y-21758722D01*
X6212682Y-21758722D02*
X6222206Y-21739674D01*
X6222206Y-21739674D02*
X6241253Y-21730150D01*
X6241253Y-21730150D02*
X6269825Y-21730150D01*
X6269825Y-21730150D02*
X6288872Y-21739674D01*
X6365063Y-21939674D02*
X6374587Y-21930150D01*
X6374587Y-21930150D02*
X6393634Y-21901579D01*
X6393634Y-21901579D02*
X6403158Y-21882531D01*
X6403158Y-21882531D02*
X6412682Y-21853960D01*
X6412682Y-21853960D02*
X6422206Y-21806341D01*
X6422206Y-21806341D02*
X6422206Y-21768246D01*
X6422206Y-21768246D02*
X6412682Y-21720627D01*
X6412682Y-21720627D02*
X6403158Y-21692055D01*
X6403158Y-21692055D02*
X6393634Y-21673008D01*
X6393634Y-21673008D02*
X6374587Y-21644436D01*
X6374587Y-21644436D02*
X6365063Y-21634912D01*
X1390000Y-21992000D02*
X1590000Y-22192000D01*
X1590000Y-21992000D02*
X1390000Y-22192000D01*
X1560711Y-22162711D02*
X1560711Y-22021289D01*
X1419289Y-22021289D01*
X1419289Y-22162711D01*
X1560711Y-22162711D01*
X1831729Y-21983484D02*
X1955539Y-21983484D01*
X1955539Y-21983484D02*
X1888872Y-22059674D01*
X1888872Y-22059674D02*
X1917443Y-22059674D01*
X1917443Y-22059674D02*
X1936491Y-22069198D01*
X1936491Y-22069198D02*
X1946015Y-22078722D01*
X1946015Y-22078722D02*
X1955539Y-22097770D01*
X1955539Y-22097770D02*
X1955539Y-22145389D01*
X1955539Y-22145389D02*
X1946015Y-22164436D01*
X1946015Y-22164436D02*
X1936491Y-22173960D01*
X1936491Y-22173960D02*
X1917443Y-22183484D01*
X1917443Y-22183484D02*
X1860301Y-22183484D01*
X1860301Y-22183484D02*
X1841253Y-22173960D01*
X1841253Y-22173960D02*
X1831729Y-22164436D01*
X2041253Y-22164436D02*
X2050777Y-22173960D01*
X2050777Y-22173960D02*
X2041253Y-22183484D01*
X2041253Y-22183484D02*
X2031729Y-22173960D01*
X2031729Y-22173960D02*
X2041253Y-22164436D01*
X2041253Y-22164436D02*
X2041253Y-22183484D01*
X2174586Y-21983484D02*
X2193634Y-21983484D01*
X2193634Y-21983484D02*
X2212682Y-21993008D01*
X2212682Y-21993008D02*
X2222205Y-22002531D01*
X2222205Y-22002531D02*
X2231729Y-22021579D01*
X2231729Y-22021579D02*
X2241253Y-22059674D01*
X2241253Y-22059674D02*
X2241253Y-22107293D01*
X2241253Y-22107293D02*
X2231729Y-22145389D01*
X2231729Y-22145389D02*
X2222205Y-22164436D01*
X2222205Y-22164436D02*
X2212682Y-22173960D01*
X2212682Y-22173960D02*
X2193634Y-22183484D01*
X2193634Y-22183484D02*
X2174586Y-22183484D01*
X2174586Y-22183484D02*
X2155539Y-22173960D01*
X2155539Y-22173960D02*
X2146015Y-22164436D01*
X2146015Y-22164436D02*
X2136491Y-22145389D01*
X2136491Y-22145389D02*
X2126967Y-22107293D01*
X2126967Y-22107293D02*
X2126967Y-22059674D01*
X2126967Y-22059674D02*
X2136491Y-22021579D01*
X2136491Y-22021579D02*
X2146015Y-22002531D01*
X2146015Y-22002531D02*
X2155539Y-21993008D01*
X2155539Y-21993008D02*
X2174586Y-21983484D01*
X2365063Y-21983484D02*
X2384110Y-21983484D01*
X2384110Y-21983484D02*
X2403158Y-21993008D01*
X2403158Y-21993008D02*
X2412682Y-22002531D01*
X2412682Y-22002531D02*
X2422205Y-22021579D01*
X2422205Y-22021579D02*
X2431729Y-22059674D01*
X2431729Y-22059674D02*
X2431729Y-22107293D01*
X2431729Y-22107293D02*
X2422205Y-22145389D01*
X2422205Y-22145389D02*
X2412682Y-22164436D01*
X2412682Y-22164436D02*
X2403158Y-22173960D01*
X2403158Y-22173960D02*
X2384110Y-22183484D01*
X2384110Y-22183484D02*
X2365063Y-22183484D01*
X2365063Y-22183484D02*
X2346015Y-22173960D01*
X2346015Y-22173960D02*
X2336491Y-22164436D01*
X2336491Y-22164436D02*
X2326967Y-22145389D01*
X2326967Y-22145389D02*
X2317444Y-22107293D01*
X2317444Y-22107293D02*
X2317444Y-22059674D01*
X2317444Y-22059674D02*
X2326967Y-22021579D01*
X2326967Y-22021579D02*
X2336491Y-22002531D01*
X2336491Y-22002531D02*
X2346015Y-21993008D01*
X2346015Y-21993008D02*
X2365063Y-21983484D01*
X2555539Y-21983484D02*
X2574586Y-21983484D01*
X2574586Y-21983484D02*
X2593634Y-21993008D01*
X2593634Y-21993008D02*
X2603158Y-22002531D01*
X2603158Y-22002531D02*
X2612682Y-22021579D01*
X2612682Y-22021579D02*
X2622205Y-22059674D01*
X2622205Y-22059674D02*
X2622205Y-22107293D01*
X2622205Y-22107293D02*
X2612682Y-22145389D01*
X2612682Y-22145389D02*
X2603158Y-22164436D01*
X2603158Y-22164436D02*
X2593634Y-22173960D01*
X2593634Y-22173960D02*
X2574586Y-22183484D01*
X2574586Y-22183484D02*
X2555539Y-22183484D01*
X2555539Y-22183484D02*
X2536491Y-22173960D01*
X2536491Y-22173960D02*
X2526967Y-22164436D01*
X2526967Y-22164436D02*
X2517444Y-22145389D01*
X2517444Y-22145389D02*
X2507920Y-22107293D01*
X2507920Y-22107293D02*
X2507920Y-22059674D01*
X2507920Y-22059674D02*
X2517444Y-22021579D01*
X2517444Y-22021579D02*
X2526967Y-22002531D01*
X2526967Y-22002531D02*
X2536491Y-21993008D01*
X2536491Y-21993008D02*
X2555539Y-21983484D01*
X2707920Y-22183484D02*
X2707920Y-22050150D01*
X2707920Y-22069198D02*
X2717444Y-22059674D01*
X2717444Y-22059674D02*
X2736491Y-22050150D01*
X2736491Y-22050150D02*
X2765063Y-22050150D01*
X2765063Y-22050150D02*
X2784110Y-22059674D01*
X2784110Y-22059674D02*
X2793634Y-22078722D01*
X2793634Y-22078722D02*
X2793634Y-22183484D01*
X2793634Y-22078722D02*
X2803158Y-22059674D01*
X2803158Y-22059674D02*
X2822205Y-22050150D01*
X2822205Y-22050150D02*
X2850777Y-22050150D01*
X2850777Y-22050150D02*
X2869824Y-22059674D01*
X2869824Y-22059674D02*
X2879348Y-22078722D01*
X2879348Y-22078722D02*
X2879348Y-22183484D01*
X2974586Y-22183484D02*
X2974586Y-22050150D01*
X2974586Y-22069198D02*
X2984110Y-22059674D01*
X2984110Y-22059674D02*
X3003158Y-22050150D01*
X3003158Y-22050150D02*
X3031729Y-22050150D01*
X3031729Y-22050150D02*
X3050777Y-22059674D01*
X3050777Y-22059674D02*
X3060301Y-22078722D01*
X3060301Y-22078722D02*
X3060301Y-22183484D01*
X3060301Y-22078722D02*
X3069824Y-22059674D01*
X3069824Y-22059674D02*
X3088872Y-22050150D01*
X3088872Y-22050150D02*
X3117443Y-22050150D01*
X3117443Y-22050150D02*
X3136491Y-22059674D01*
X3136491Y-22059674D02*
X3146015Y-22078722D01*
X3146015Y-22078722D02*
X3146015Y-22183484D01*
X3536491Y-21973960D02*
X3365063Y-22231103D01*
X3793634Y-21983484D02*
X3812682Y-21983484D01*
X3812682Y-21983484D02*
X3831729Y-21993008D01*
X3831729Y-21993008D02*
X3841253Y-22002531D01*
X3841253Y-22002531D02*
X3850777Y-22021579D01*
X3850777Y-22021579D02*
X3860301Y-22059674D01*
X3860301Y-22059674D02*
X3860301Y-22107293D01*
X3860301Y-22107293D02*
X3850777Y-22145389D01*
X3850777Y-22145389D02*
X3841253Y-22164436D01*
X3841253Y-22164436D02*
X3831729Y-22173960D01*
X3831729Y-22173960D02*
X3812682Y-22183484D01*
X3812682Y-22183484D02*
X3793634Y-22183484D01*
X3793634Y-22183484D02*
X3774586Y-22173960D01*
X3774586Y-22173960D02*
X3765063Y-22164436D01*
X3765063Y-22164436D02*
X3755539Y-22145389D01*
X3755539Y-22145389D02*
X3746015Y-22107293D01*
X3746015Y-22107293D02*
X3746015Y-22059674D01*
X3746015Y-22059674D02*
X3755539Y-22021579D01*
X3755539Y-22021579D02*
X3765063Y-22002531D01*
X3765063Y-22002531D02*
X3774586Y-21993008D01*
X3774586Y-21993008D02*
X3793634Y-21983484D01*
X3946015Y-22164436D02*
X3955539Y-22173960D01*
X3955539Y-22173960D02*
X3946015Y-22183484D01*
X3946015Y-22183484D02*
X3936491Y-22173960D01*
X3936491Y-22173960D02*
X3946015Y-22164436D01*
X3946015Y-22164436D02*
X3946015Y-22183484D01*
X4146015Y-22183484D02*
X4031729Y-22183484D01*
X4088872Y-22183484D02*
X4088872Y-21983484D01*
X4088872Y-21983484D02*
X4069825Y-22012055D01*
X4069825Y-22012055D02*
X4050777Y-22031103D01*
X4050777Y-22031103D02*
X4031729Y-22040627D01*
X4336491Y-22183484D02*
X4222206Y-22183484D01*
X4279348Y-22183484D02*
X4279348Y-21983484D01*
X4279348Y-21983484D02*
X4260301Y-22012055D01*
X4260301Y-22012055D02*
X4241253Y-22031103D01*
X4241253Y-22031103D02*
X4222206Y-22040627D01*
X4450777Y-22069198D02*
X4431729Y-22059674D01*
X4431729Y-22059674D02*
X4422206Y-22050150D01*
X4422206Y-22050150D02*
X4412682Y-22031103D01*
X4412682Y-22031103D02*
X4412682Y-22021579D01*
X4412682Y-22021579D02*
X4422206Y-22002531D01*
X4422206Y-22002531D02*
X4431729Y-21993008D01*
X4431729Y-21993008D02*
X4450777Y-21983484D01*
X4450777Y-21983484D02*
X4488872Y-21983484D01*
X4488872Y-21983484D02*
X4507920Y-21993008D01*
X4507920Y-21993008D02*
X4517444Y-22002531D01*
X4517444Y-22002531D02*
X4526968Y-22021579D01*
X4526968Y-22021579D02*
X4526968Y-22031103D01*
X4526968Y-22031103D02*
X4517444Y-22050150D01*
X4517444Y-22050150D02*
X4507920Y-22059674D01*
X4507920Y-22059674D02*
X4488872Y-22069198D01*
X4488872Y-22069198D02*
X4450777Y-22069198D01*
X4450777Y-22069198D02*
X4431729Y-22078722D01*
X4431729Y-22078722D02*
X4422206Y-22088246D01*
X4422206Y-22088246D02*
X4412682Y-22107293D01*
X4412682Y-22107293D02*
X4412682Y-22145389D01*
X4412682Y-22145389D02*
X4422206Y-22164436D01*
X4422206Y-22164436D02*
X4431729Y-22173960D01*
X4431729Y-22173960D02*
X4450777Y-22183484D01*
X4450777Y-22183484D02*
X4488872Y-22183484D01*
X4488872Y-22183484D02*
X4507920Y-22173960D01*
X4507920Y-22173960D02*
X4517444Y-22164436D01*
X4517444Y-22164436D02*
X4526968Y-22145389D01*
X4526968Y-22145389D02*
X4526968Y-22107293D01*
X4526968Y-22107293D02*
X4517444Y-22088246D01*
X4517444Y-22088246D02*
X4507920Y-22078722D01*
X4507920Y-22078722D02*
X4488872Y-22069198D01*
X4717444Y-22183484D02*
X4603158Y-22183484D01*
X4660301Y-22183484D02*
X4660301Y-21983484D01*
X4660301Y-21983484D02*
X4641253Y-22012055D01*
X4641253Y-22012055D02*
X4622206Y-22031103D01*
X4622206Y-22031103D02*
X4603158Y-22040627D01*
X4793634Y-21983484D02*
X4793634Y-22021579D01*
X4869825Y-21983484D02*
X4869825Y-22021579D01*
X5165063Y-22259674D02*
X5155539Y-22250150D01*
X5155539Y-22250150D02*
X5136491Y-22221579D01*
X5136491Y-22221579D02*
X5126968Y-22202531D01*
X5126968Y-22202531D02*
X5117444Y-22173960D01*
X5117444Y-22173960D02*
X5107920Y-22126341D01*
X5107920Y-22126341D02*
X5107920Y-22088246D01*
X5107920Y-22088246D02*
X5117444Y-22040627D01*
X5117444Y-22040627D02*
X5126968Y-22012055D01*
X5126968Y-22012055D02*
X5136491Y-21993008D01*
X5136491Y-21993008D02*
X5155539Y-21964436D01*
X5155539Y-21964436D02*
X5165063Y-21954912D01*
X5326968Y-22050150D02*
X5326968Y-22183484D01*
X5279349Y-21973960D02*
X5231730Y-22116817D01*
X5231730Y-22116817D02*
X5355539Y-22116817D01*
X5584111Y-22183484D02*
X5584111Y-21983484D01*
X5669825Y-22183484D02*
X5669825Y-22078722D01*
X5669825Y-22078722D02*
X5660301Y-22059674D01*
X5660301Y-22059674D02*
X5641253Y-22050150D01*
X5641253Y-22050150D02*
X5612682Y-22050150D01*
X5612682Y-22050150D02*
X5593634Y-22059674D01*
X5593634Y-22059674D02*
X5584111Y-22069198D01*
X5793634Y-22183484D02*
X5774587Y-22173960D01*
X5774587Y-22173960D02*
X5765063Y-22164436D01*
X5765063Y-22164436D02*
X5755539Y-22145389D01*
X5755539Y-22145389D02*
X5755539Y-22088246D01*
X5755539Y-22088246D02*
X5765063Y-22069198D01*
X5765063Y-22069198D02*
X5774587Y-22059674D01*
X5774587Y-22059674D02*
X5793634Y-22050150D01*
X5793634Y-22050150D02*
X5822206Y-22050150D01*
X5822206Y-22050150D02*
X5841253Y-22059674D01*
X5841253Y-22059674D02*
X5850777Y-22069198D01*
X5850777Y-22069198D02*
X5860301Y-22088246D01*
X5860301Y-22088246D02*
X5860301Y-22145389D01*
X5860301Y-22145389D02*
X5850777Y-22164436D01*
X5850777Y-22164436D02*
X5841253Y-22173960D01*
X5841253Y-22173960D02*
X5822206Y-22183484D01*
X5822206Y-22183484D02*
X5793634Y-22183484D01*
X5974587Y-22183484D02*
X5955539Y-22173960D01*
X5955539Y-22173960D02*
X5946015Y-22154912D01*
X5946015Y-22154912D02*
X5946015Y-21983484D01*
X6126968Y-22173960D02*
X6107920Y-22183484D01*
X6107920Y-22183484D02*
X6069825Y-22183484D01*
X6069825Y-22183484D02*
X6050777Y-22173960D01*
X6050777Y-22173960D02*
X6041253Y-22154912D01*
X6041253Y-22154912D02*
X6041253Y-22078722D01*
X6041253Y-22078722D02*
X6050777Y-22059674D01*
X6050777Y-22059674D02*
X6069825Y-22050150D01*
X6069825Y-22050150D02*
X6107920Y-22050150D01*
X6107920Y-22050150D02*
X6126968Y-22059674D01*
X6126968Y-22059674D02*
X6136491Y-22078722D01*
X6136491Y-22078722D02*
X6136491Y-22097770D01*
X6136491Y-22097770D02*
X6041253Y-22116817D01*
X6212682Y-22173960D02*
X6231730Y-22183484D01*
X6231730Y-22183484D02*
X6269825Y-22183484D01*
X6269825Y-22183484D02*
X6288872Y-22173960D01*
X6288872Y-22173960D02*
X6298396Y-22154912D01*
X6298396Y-22154912D02*
X6298396Y-22145389D01*
X6298396Y-22145389D02*
X6288872Y-22126341D01*
X6288872Y-22126341D02*
X6269825Y-22116817D01*
X6269825Y-22116817D02*
X6241253Y-22116817D01*
X6241253Y-22116817D02*
X6222206Y-22107293D01*
X6222206Y-22107293D02*
X6212682Y-22088246D01*
X6212682Y-22088246D02*
X6212682Y-22078722D01*
X6212682Y-22078722D02*
X6222206Y-22059674D01*
X6222206Y-22059674D02*
X6241253Y-22050150D01*
X6241253Y-22050150D02*
X6269825Y-22050150D01*
X6269825Y-22050150D02*
X6288872Y-22059674D01*
X6365063Y-22259674D02*
X6374587Y-22250150D01*
X6374587Y-22250150D02*
X6393634Y-22221579D01*
X6393634Y-22221579D02*
X6403158Y-22202531D01*
X6403158Y-22202531D02*
X6412682Y-22173960D01*
X6412682Y-22173960D02*
X6422206Y-22126341D01*
X6422206Y-22126341D02*
X6422206Y-22088246D01*
X6422206Y-22088246D02*
X6412682Y-22040627D01*
X6412682Y-22040627D02*
X6403158Y-22012055D01*
X6403158Y-22012055D02*
X6393634Y-21993008D01*
X6393634Y-21993008D02*
X6374587Y-21964436D01*
X6374587Y-21964436D02*
X6365063Y-21954912D01*
X1390000Y-22312000D02*
X1590000Y-22512000D01*
X1590000Y-22312000D02*
X1390000Y-22512000D01*
X1490000Y-22512000D02*
X1590000Y-22412000D01*
X1490000Y-22312000D01*
X1390000Y-22412000D01*
X1490000Y-22512000D01*
X1831729Y-22303484D02*
X1955539Y-22303484D01*
X1955539Y-22303484D02*
X1888872Y-22379674D01*
X1888872Y-22379674D02*
X1917443Y-22379674D01*
X1917443Y-22379674D02*
X1936491Y-22389198D01*
X1936491Y-22389198D02*
X1946015Y-22398722D01*
X1946015Y-22398722D02*
X1955539Y-22417769D01*
X1955539Y-22417769D02*
X1955539Y-22465388D01*
X1955539Y-22465388D02*
X1946015Y-22484436D01*
X1946015Y-22484436D02*
X1936491Y-22493960D01*
X1936491Y-22493960D02*
X1917443Y-22503484D01*
X1917443Y-22503484D02*
X1860301Y-22503484D01*
X1860301Y-22503484D02*
X1841253Y-22493960D01*
X1841253Y-22493960D02*
X1831729Y-22484436D01*
X2041253Y-22484436D02*
X2050777Y-22493960D01*
X2050777Y-22493960D02*
X2041253Y-22503484D01*
X2041253Y-22503484D02*
X2031729Y-22493960D01*
X2031729Y-22493960D02*
X2041253Y-22484436D01*
X2041253Y-22484436D02*
X2041253Y-22503484D01*
X2126967Y-22322531D02*
X2136491Y-22313008D01*
X2136491Y-22313008D02*
X2155539Y-22303484D01*
X2155539Y-22303484D02*
X2203158Y-22303484D01*
X2203158Y-22303484D02*
X2222205Y-22313008D01*
X2222205Y-22313008D02*
X2231729Y-22322531D01*
X2231729Y-22322531D02*
X2241253Y-22341579D01*
X2241253Y-22341579D02*
X2241253Y-22360627D01*
X2241253Y-22360627D02*
X2231729Y-22389198D01*
X2231729Y-22389198D02*
X2117444Y-22503484D01*
X2117444Y-22503484D02*
X2241253Y-22503484D01*
X2365063Y-22303484D02*
X2384110Y-22303484D01*
X2384110Y-22303484D02*
X2403158Y-22313008D01*
X2403158Y-22313008D02*
X2412682Y-22322531D01*
X2412682Y-22322531D02*
X2422205Y-22341579D01*
X2422205Y-22341579D02*
X2431729Y-22379674D01*
X2431729Y-22379674D02*
X2431729Y-22427293D01*
X2431729Y-22427293D02*
X2422205Y-22465388D01*
X2422205Y-22465388D02*
X2412682Y-22484436D01*
X2412682Y-22484436D02*
X2403158Y-22493960D01*
X2403158Y-22493960D02*
X2384110Y-22503484D01*
X2384110Y-22503484D02*
X2365063Y-22503484D01*
X2365063Y-22503484D02*
X2346015Y-22493960D01*
X2346015Y-22493960D02*
X2336491Y-22484436D01*
X2336491Y-22484436D02*
X2326967Y-22465388D01*
X2326967Y-22465388D02*
X2317444Y-22427293D01*
X2317444Y-22427293D02*
X2317444Y-22379674D01*
X2317444Y-22379674D02*
X2326967Y-22341579D01*
X2326967Y-22341579D02*
X2336491Y-22322531D01*
X2336491Y-22322531D02*
X2346015Y-22313008D01*
X2346015Y-22313008D02*
X2365063Y-22303484D01*
X2555539Y-22303484D02*
X2574586Y-22303484D01*
X2574586Y-22303484D02*
X2593634Y-22313008D01*
X2593634Y-22313008D02*
X2603158Y-22322531D01*
X2603158Y-22322531D02*
X2612682Y-22341579D01*
X2612682Y-22341579D02*
X2622205Y-22379674D01*
X2622205Y-22379674D02*
X2622205Y-22427293D01*
X2622205Y-22427293D02*
X2612682Y-22465388D01*
X2612682Y-22465388D02*
X2603158Y-22484436D01*
X2603158Y-22484436D02*
X2593634Y-22493960D01*
X2593634Y-22493960D02*
X2574586Y-22503484D01*
X2574586Y-22503484D02*
X2555539Y-22503484D01*
X2555539Y-22503484D02*
X2536491Y-22493960D01*
X2536491Y-22493960D02*
X2526967Y-22484436D01*
X2526967Y-22484436D02*
X2517444Y-22465388D01*
X2517444Y-22465388D02*
X2507920Y-22427293D01*
X2507920Y-22427293D02*
X2507920Y-22379674D01*
X2507920Y-22379674D02*
X2517444Y-22341579D01*
X2517444Y-22341579D02*
X2526967Y-22322531D01*
X2526967Y-22322531D02*
X2536491Y-22313008D01*
X2536491Y-22313008D02*
X2555539Y-22303484D01*
X2707920Y-22503484D02*
X2707920Y-22370150D01*
X2707920Y-22389198D02*
X2717444Y-22379674D01*
X2717444Y-22379674D02*
X2736491Y-22370150D01*
X2736491Y-22370150D02*
X2765063Y-22370150D01*
X2765063Y-22370150D02*
X2784110Y-22379674D01*
X2784110Y-22379674D02*
X2793634Y-22398722D01*
X2793634Y-22398722D02*
X2793634Y-22503484D01*
X2793634Y-22398722D02*
X2803158Y-22379674D01*
X2803158Y-22379674D02*
X2822205Y-22370150D01*
X2822205Y-22370150D02*
X2850777Y-22370150D01*
X2850777Y-22370150D02*
X2869824Y-22379674D01*
X2869824Y-22379674D02*
X2879348Y-22398722D01*
X2879348Y-22398722D02*
X2879348Y-22503484D01*
X2974586Y-22503484D02*
X2974586Y-22370150D01*
X2974586Y-22389198D02*
X2984110Y-22379674D01*
X2984110Y-22379674D02*
X3003158Y-22370150D01*
X3003158Y-22370150D02*
X3031729Y-22370150D01*
X3031729Y-22370150D02*
X3050777Y-22379674D01*
X3050777Y-22379674D02*
X3060301Y-22398722D01*
X3060301Y-22398722D02*
X3060301Y-22503484D01*
X3060301Y-22398722D02*
X3069824Y-22379674D01*
X3069824Y-22379674D02*
X3088872Y-22370150D01*
X3088872Y-22370150D02*
X3117443Y-22370150D01*
X3117443Y-22370150D02*
X3136491Y-22379674D01*
X3136491Y-22379674D02*
X3146015Y-22398722D01*
X3146015Y-22398722D02*
X3146015Y-22503484D01*
X3536491Y-22293960D02*
X3365063Y-22551103D01*
X3793634Y-22303484D02*
X3812682Y-22303484D01*
X3812682Y-22303484D02*
X3831729Y-22313008D01*
X3831729Y-22313008D02*
X3841253Y-22322531D01*
X3841253Y-22322531D02*
X3850777Y-22341579D01*
X3850777Y-22341579D02*
X3860301Y-22379674D01*
X3860301Y-22379674D02*
X3860301Y-22427293D01*
X3860301Y-22427293D02*
X3850777Y-22465388D01*
X3850777Y-22465388D02*
X3841253Y-22484436D01*
X3841253Y-22484436D02*
X3831729Y-22493960D01*
X3831729Y-22493960D02*
X3812682Y-22503484D01*
X3812682Y-22503484D02*
X3793634Y-22503484D01*
X3793634Y-22503484D02*
X3774586Y-22493960D01*
X3774586Y-22493960D02*
X3765063Y-22484436D01*
X3765063Y-22484436D02*
X3755539Y-22465388D01*
X3755539Y-22465388D02*
X3746015Y-22427293D01*
X3746015Y-22427293D02*
X3746015Y-22379674D01*
X3746015Y-22379674D02*
X3755539Y-22341579D01*
X3755539Y-22341579D02*
X3765063Y-22322531D01*
X3765063Y-22322531D02*
X3774586Y-22313008D01*
X3774586Y-22313008D02*
X3793634Y-22303484D01*
X3946015Y-22484436D02*
X3955539Y-22493960D01*
X3955539Y-22493960D02*
X3946015Y-22503484D01*
X3946015Y-22503484D02*
X3936491Y-22493960D01*
X3936491Y-22493960D02*
X3946015Y-22484436D01*
X3946015Y-22484436D02*
X3946015Y-22503484D01*
X4146015Y-22503484D02*
X4031729Y-22503484D01*
X4088872Y-22503484D02*
X4088872Y-22303484D01*
X4088872Y-22303484D02*
X4069825Y-22332055D01*
X4069825Y-22332055D02*
X4050777Y-22351103D01*
X4050777Y-22351103D02*
X4031729Y-22360627D01*
X4222206Y-22322531D02*
X4231729Y-22313008D01*
X4231729Y-22313008D02*
X4250777Y-22303484D01*
X4250777Y-22303484D02*
X4298396Y-22303484D01*
X4298396Y-22303484D02*
X4317444Y-22313008D01*
X4317444Y-22313008D02*
X4326968Y-22322531D01*
X4326968Y-22322531D02*
X4336491Y-22341579D01*
X4336491Y-22341579D02*
X4336491Y-22360627D01*
X4336491Y-22360627D02*
X4326968Y-22389198D01*
X4326968Y-22389198D02*
X4212682Y-22503484D01*
X4212682Y-22503484D02*
X4336491Y-22503484D01*
X4507920Y-22303484D02*
X4469825Y-22303484D01*
X4469825Y-22303484D02*
X4450777Y-22313008D01*
X4450777Y-22313008D02*
X4441253Y-22322531D01*
X4441253Y-22322531D02*
X4422206Y-22351103D01*
X4422206Y-22351103D02*
X4412682Y-22389198D01*
X4412682Y-22389198D02*
X4412682Y-22465388D01*
X4412682Y-22465388D02*
X4422206Y-22484436D01*
X4422206Y-22484436D02*
X4431729Y-22493960D01*
X4431729Y-22493960D02*
X4450777Y-22503484D01*
X4450777Y-22503484D02*
X4488872Y-22503484D01*
X4488872Y-22503484D02*
X4507920Y-22493960D01*
X4507920Y-22493960D02*
X4517444Y-22484436D01*
X4517444Y-22484436D02*
X4526968Y-22465388D01*
X4526968Y-22465388D02*
X4526968Y-22417769D01*
X4526968Y-22417769D02*
X4517444Y-22398722D01*
X4517444Y-22398722D02*
X4507920Y-22389198D01*
X4507920Y-22389198D02*
X4488872Y-22379674D01*
X4488872Y-22379674D02*
X4450777Y-22379674D01*
X4450777Y-22379674D02*
X4431729Y-22389198D01*
X4431729Y-22389198D02*
X4422206Y-22398722D01*
X4422206Y-22398722D02*
X4412682Y-22417769D01*
X4650777Y-22303484D02*
X4669825Y-22303484D01*
X4669825Y-22303484D02*
X4688872Y-22313008D01*
X4688872Y-22313008D02*
X4698396Y-22322531D01*
X4698396Y-22322531D02*
X4707920Y-22341579D01*
X4707920Y-22341579D02*
X4717444Y-22379674D01*
X4717444Y-22379674D02*
X4717444Y-22427293D01*
X4717444Y-22427293D02*
X4707920Y-22465388D01*
X4707920Y-22465388D02*
X4698396Y-22484436D01*
X4698396Y-22484436D02*
X4688872Y-22493960D01*
X4688872Y-22493960D02*
X4669825Y-22503484D01*
X4669825Y-22503484D02*
X4650777Y-22503484D01*
X4650777Y-22503484D02*
X4631729Y-22493960D01*
X4631729Y-22493960D02*
X4622206Y-22484436D01*
X4622206Y-22484436D02*
X4612682Y-22465388D01*
X4612682Y-22465388D02*
X4603158Y-22427293D01*
X4603158Y-22427293D02*
X4603158Y-22379674D01*
X4603158Y-22379674D02*
X4612682Y-22341579D01*
X4612682Y-22341579D02*
X4622206Y-22322531D01*
X4622206Y-22322531D02*
X4631729Y-22313008D01*
X4631729Y-22313008D02*
X4650777Y-22303484D01*
X4793634Y-22303484D02*
X4793634Y-22341579D01*
X4869825Y-22303484D02*
X4869825Y-22341579D01*
X5165063Y-22579674D02*
X5155539Y-22570150D01*
X5155539Y-22570150D02*
X5136491Y-22541579D01*
X5136491Y-22541579D02*
X5126968Y-22522531D01*
X5126968Y-22522531D02*
X5117444Y-22493960D01*
X5117444Y-22493960D02*
X5107920Y-22446341D01*
X5107920Y-22446341D02*
X5107920Y-22408246D01*
X5107920Y-22408246D02*
X5117444Y-22360627D01*
X5117444Y-22360627D02*
X5126968Y-22332055D01*
X5126968Y-22332055D02*
X5136491Y-22313008D01*
X5136491Y-22313008D02*
X5155539Y-22284436D01*
X5155539Y-22284436D02*
X5165063Y-22274912D01*
X5231730Y-22322531D02*
X5241253Y-22313008D01*
X5241253Y-22313008D02*
X5260301Y-22303484D01*
X5260301Y-22303484D02*
X5307920Y-22303484D01*
X5307920Y-22303484D02*
X5326968Y-22313008D01*
X5326968Y-22313008D02*
X5336491Y-22322531D01*
X5336491Y-22322531D02*
X5346015Y-22341579D01*
X5346015Y-22341579D02*
X5346015Y-22360627D01*
X5346015Y-22360627D02*
X5336491Y-22389198D01*
X5336491Y-22389198D02*
X5222206Y-22503484D01*
X5222206Y-22503484D02*
X5346015Y-22503484D01*
X5517444Y-22303484D02*
X5479349Y-22303484D01*
X5479349Y-22303484D02*
X5460301Y-22313008D01*
X5460301Y-22313008D02*
X5450777Y-22322531D01*
X5450777Y-22322531D02*
X5431730Y-22351103D01*
X5431730Y-22351103D02*
X5422206Y-22389198D01*
X5422206Y-22389198D02*
X5422206Y-22465388D01*
X5422206Y-22465388D02*
X5431730Y-22484436D01*
X5431730Y-22484436D02*
X5441253Y-22493960D01*
X5441253Y-22493960D02*
X5460301Y-22503484D01*
X5460301Y-22503484D02*
X5498396Y-22503484D01*
X5498396Y-22503484D02*
X5517444Y-22493960D01*
X5517444Y-22493960D02*
X5526968Y-22484436D01*
X5526968Y-22484436D02*
X5536491Y-22465388D01*
X5536491Y-22465388D02*
X5536491Y-22417769D01*
X5536491Y-22417769D02*
X5526968Y-22398722D01*
X5526968Y-22398722D02*
X5517444Y-22389198D01*
X5517444Y-22389198D02*
X5498396Y-22379674D01*
X5498396Y-22379674D02*
X5460301Y-22379674D01*
X5460301Y-22379674D02*
X5441253Y-22389198D01*
X5441253Y-22389198D02*
X5431730Y-22398722D01*
X5431730Y-22398722D02*
X5422206Y-22417769D01*
X5774587Y-22503484D02*
X5774587Y-22303484D01*
X5860301Y-22503484D02*
X5860301Y-22398722D01*
X5860301Y-22398722D02*
X5850777Y-22379674D01*
X5850777Y-22379674D02*
X5831730Y-22370150D01*
X5831730Y-22370150D02*
X5803158Y-22370150D01*
X5803158Y-22370150D02*
X5784110Y-22379674D01*
X5784110Y-22379674D02*
X5774587Y-22389198D01*
X5984110Y-22503484D02*
X5965063Y-22493960D01*
X5965063Y-22493960D02*
X5955539Y-22484436D01*
X5955539Y-22484436D02*
X5946015Y-22465388D01*
X5946015Y-22465388D02*
X5946015Y-22408246D01*
X5946015Y-22408246D02*
X5955539Y-22389198D01*
X5955539Y-22389198D02*
X5965063Y-22379674D01*
X5965063Y-22379674D02*
X5984110Y-22370150D01*
X5984110Y-22370150D02*
X6012682Y-22370150D01*
X6012682Y-22370150D02*
X6031730Y-22379674D01*
X6031730Y-22379674D02*
X6041253Y-22389198D01*
X6041253Y-22389198D02*
X6050777Y-22408246D01*
X6050777Y-22408246D02*
X6050777Y-22465388D01*
X6050777Y-22465388D02*
X6041253Y-22484436D01*
X6041253Y-22484436D02*
X6031730Y-22493960D01*
X6031730Y-22493960D02*
X6012682Y-22503484D01*
X6012682Y-22503484D02*
X5984110Y-22503484D01*
X6165063Y-22503484D02*
X6146015Y-22493960D01*
X6146015Y-22493960D02*
X6136491Y-22474912D01*
X6136491Y-22474912D02*
X6136491Y-22303484D01*
X6317444Y-22493960D02*
X6298396Y-22503484D01*
X6298396Y-22503484D02*
X6260301Y-22503484D01*
X6260301Y-22503484D02*
X6241253Y-22493960D01*
X6241253Y-22493960D02*
X6231730Y-22474912D01*
X6231730Y-22474912D02*
X6231730Y-22398722D01*
X6231730Y-22398722D02*
X6241253Y-22379674D01*
X6241253Y-22379674D02*
X6260301Y-22370150D01*
X6260301Y-22370150D02*
X6298396Y-22370150D01*
X6298396Y-22370150D02*
X6317444Y-22379674D01*
X6317444Y-22379674D02*
X6326968Y-22398722D01*
X6326968Y-22398722D02*
X6326968Y-22417769D01*
X6326968Y-22417769D02*
X6231730Y-22436817D01*
X6403158Y-22493960D02*
X6422206Y-22503484D01*
X6422206Y-22503484D02*
X6460301Y-22503484D01*
X6460301Y-22503484D02*
X6479349Y-22493960D01*
X6479349Y-22493960D02*
X6488872Y-22474912D01*
X6488872Y-22474912D02*
X6488872Y-22465388D01*
X6488872Y-22465388D02*
X6479349Y-22446341D01*
X6479349Y-22446341D02*
X6460301Y-22436817D01*
X6460301Y-22436817D02*
X6431730Y-22436817D01*
X6431730Y-22436817D02*
X6412682Y-22427293D01*
X6412682Y-22427293D02*
X6403158Y-22408246D01*
X6403158Y-22408246D02*
X6403158Y-22398722D01*
X6403158Y-22398722D02*
X6412682Y-22379674D01*
X6412682Y-22379674D02*
X6431730Y-22370150D01*
X6431730Y-22370150D02*
X6460301Y-22370150D01*
X6460301Y-22370150D02*
X6479349Y-22379674D01*
X6555539Y-22579674D02*
X6565063Y-22570150D01*
X6565063Y-22570150D02*
X6584111Y-22541579D01*
X6584111Y-22541579D02*
X6593634Y-22522531D01*
X6593634Y-22522531D02*
X6603158Y-22493960D01*
X6603158Y-22493960D02*
X6612682Y-22446341D01*
X6612682Y-22446341D02*
X6612682Y-22408246D01*
X6612682Y-22408246D02*
X6603158Y-22360627D01*
X6603158Y-22360627D02*
X6593634Y-22332055D01*
X6593634Y-22332055D02*
X6584111Y-22313008D01*
X6584111Y-22313008D02*
X6565063Y-22284436D01*
X6565063Y-22284436D02*
X6555539Y-22274912D01*
M02*
