0
SECTION
2
HEADER
9
$INSUNITS
70
4
9
$ACADVER
1
AC1014
9
$HANDSEED
5
FFFF
0
ENDSEC
0
SECTION
2
TABLES
0
TABLE
2
VPORT
5
8
100
AcDbSymbolTable
0
ENDTAB
0
TABLE
2
LTYPE
5
5
100
AcDbSymbolTable
0
LTYPE
5
14
100
AcDbSymbolTableRecord
100
AcDbLinetypeTableRecord
2
BYBLOCK
70
0
0
LTYPE
5
15
100
AcDbSymbolTableRecord
100
AcDbLinetypeTableRecord
2
BYLAYER
70
0
0
ENDTAB
0
TABLE
2
LAYER
5
2
100
AcDbSymbolTable
70
2
0
LAYER
5
50
100
AcDbSymbolTableRecord
100
AcDbLayerTableRecord
2
0
70
0
6
CONTINUOUS
0
ENDTAB
0
TABLE
2
STYLE
5
3
100
AcDbSymbolTable
70
1
0
STYLE
5
11
100
AcDbSymbolTableRecord
100
AcDbTextStyleTableRecord
2
STANDARD
70
0
0
ENDTAB
0
TABLE
2
VIEW
5
6
100
AcDbSymbolTable
70
0
0
ENDTAB
0
TABLE
2
UCS
5
7
100
AcDbSymbolTable
70
0
0
ENDTAB
0
TABLE
2
APPID
5
9
100
AcDbSymbolTable
70
2
0
APPID
5
12
100
AcDbSymbolTableRecord
100
AcDbRegAppTableRecord
2
ACAD
70
0
0
ENDTAB
0
TABLE
2
DIMSTYLE
5
A
100
AcDbSymbolTable
70
1
0
ENDTAB
0
TABLE
2
BLOCK_RECORD
5
1
100
AcDbSymbolTable
70
1
0
BLOCK_RECORD
5
1F
100
AcDbSymbolTableRecord
100
AcDbBlockTableRecord
2
*MODEL_SPACE
0
BLOCK_RECORD
5
1B
100
AcDbSymbolTableRecord
100
AcDbBlockTableRecord
2
*PAPER_SPACE
0
ENDTAB
0
ENDSEC
0
SECTION
2
BLOCKS
0
BLOCK
5
20
100
AcDbEntity
100
AcDbBlockBegin
2
*MODEL_SPACE
0
ENDBLK
5
21
100
AcDbEntity
100
AcDbBlockEnd
0
BLOCK
5
1C
100
AcDbEntity
100
AcDbBlockBegin
2
*PAPER_SPACE
0
ENDBLK
5
1D
100
AcDbEntity
100
AcDbBlockEnd
0
ENDSEC
0
SECTION
2
ENTITIES
0
LWPOLYLINE
5
100
100
AcDbEntity
8
0
100
AcDbPolyline
90
577
70
1
43
0.0
10
-145.75815499999999
20
25.965880000000002
10
-145.42262500000001
20
25.898418000000003
10
-145.08159499999999
20
25.869610000000005
10
-144.73950300000001
20
25.879831000000003
10
-144.400801
20
25.928949000000003
10
-144.06989799999999
20
26.016324000000001
10
-143.75109900000001
20
26.140819000000004
10
-143.448554
20
26.300813000000005
10
-143.166201
20
26.494225
10
-142.907714
20
26.718537000000001
10
-142.676457
20
26.970829999999999
10
-142.47544099999999
20
27.247821000000002
10
-142.30727999999999
20
27.545904
10
-142.17416399999999
20
27.861200000000004
10
-142.07782599999999
20
28.189606000000005
10
-142.01951800000001
20
28.526847000000004
10
-142
20
28.868535000000005
10
-142
20
51.000000000000007
10
-141.980739
20
51.392069000000006
10
-141.92314099999999
20
51.780360999999999
10
-141.82776100000001
20
52.161138999999999
10
-141.69551799999999
20
52.53073400000001
10
-141.52768500000002
20
52.885587000000001
10
-141.32587799999999
20
53.222281000000002
10
-141.09204199999999
20
53.537573000000009
10
-140.828427
20
53.828427000000005
10
-140.53757300000001
20
54.092042000000006
10
-140.22228100000001
20
54.325878000000003
10
-139.88558699999999
20
54.527685000000005
10
-139.530734
20
54.695518000000007
10
-139.16113899999999
20
54.82776100000001
10
-138.780361
20
54.923141000000008
10
-138.39206899999999
20
54.980739000000007
10
-138
20
55
10
-136
20
55
10
-135.664107
20
55.01886300000001
10
-135.332437
20
55.075216000000005
10
-135.009163
20
55.168350000000004
10
-134.69834900000001
20
55.297093000000004
10
-134.40390400000001
20
55.459826999999997
10
-134.12953099999999
20
55.654505999999998
10
-133.87868
20
55.878680000000003
10
-133.654506
20
56.129531
10
-133.45982700000002
20
56.403904000000004
10
-133.29709299999999
20
56.698349000000007
10
-133.16835
20
57.009163000000001
10
-133.07521600000001
20
57.332436999999999
10
-133.01886300000001
20
57.664107000000008
10
-133
20
58.000000000000007
10
-133
20
69
10
-132.98113699999999
20
69.335892999999999
10
-132.92478399999999
20
69.667563000000001
10
-132.83165
20
69.990836999999999
10
-132.70290700000001
20
70.301651000000021
10
-132.54017300000001
20
70.596096000000003
10
-132.345494
20
70.870469000000014
10
-132.12132
20
71.121319999999997
10
-131.87046900000001
20
71.345494000000002
10
-131.59609599999999
20
71.540172999999996
10
-131.30165099999999
20
71.702906999999996
10
-130.990837
20
71.831649999999996
10
-130.66756300000003
20
71.924784000000002
10
-130.335893
20
71.981137000000004
10
-130
20
72
10
-80
20
72
10
-79.664107000000001
20
71.981137000000004
10
-79.332436999999999
20
71.924784000000002
10
-79.009163000000001
20
71.831649999999996
10
-78.698348999999993
20
71.702906999999996
10
-78.403904000000011
20
71.540172999999996
10
-78.129531
20
71.345494000000002
10
-77.878680000000003
20
71.121319999999997
10
-77.654505999999998
20
70.870469000000014
10
-77.459827000000004
20
70.596096000000003
10
-77.297093000000004
20
70.301651000000021
10
-77.168350000000004
20
69.990836999999999
10
-77.075215999999998
20
69.667563000000001
10
-77.018862999999996
20
69.335892999999999
10
-77
20
69
10
-77
20
58.000000000000007
10
-76.981137000000004
20
57.664107000000008
10
-76.924784000000002
20
57.332436999999999
10
-76.831649999999996
20
57.009163000000001
10
-76.702906999999996
20
56.698349000000007
10
-76.540172999999996
20
56.403904000000004
10
-76.345494000000002
20
56.129531
10
-76.121319999999997
20
55.878680000000003
10
-75.870469000000014
20
55.654505999999998
10
-75.596096000000003
20
55.459826999999997
10
-75.301651000000021
20
55.297093000000004
10
-74.990836999999999
20
55.168350000000004
10
-74.667563000000001
20
55.075216000000005
10
-74.335892999999999
20
55.01886300000001
10
-74
20
55
10
-72
20
55
10
-71.607930999999994
20
54.980739000000007
10
-71.219639000000001
20
54.923141000000008
10
-70.838860999999994
20
54.82776100000001
10
-70.469266000000005
20
54.695518000000007
10
-70.114412999999999
20
54.527685000000005
10
-69.777719000000005
20
54.325878000000003
10
-69.462427000000005
20
54.092042000000006
10
-69.171572999999995
20
53.828427000000005
10
-68.907957999999994
20
53.537573000000009
10
-68.674122000000011
20
53.222281000000002
10
-68.472314999999995
20
52.885587000000001
10
-68.304481999999993
20
52.53073400000001
10
-68.172239000000005
20
52.161138999999999
10
-68.076858999999999
20
51.780360999999999
10
-68.019261
20
51.392069000000006
10
-68
20
51.000000000000007
10
-68
20
28.868535000000005
10
-67.980452000000014
20
28.526851000000004
10
-67.922145
20
28.189613999999999
10
-67.825806999999998
20
27.861212999999999
10
-67.692694000000003
20
27.545920000000002
10
-67.524535
20
27.247841000000005
10
-67.323521999999997
20
26.970853000000005
10
-67.092268000000004
20
26.718563
10
-66.833785000000006
20
26.494253000000004
10
-66.551435999999995
20
26.300843
10
-66.248895000000005
20
26.14085
10
-65.930100999999993
20
26.016355000000004
10
-65.599202000000005
20
25.928981
10
-65.260503999999997
20
25.879863000000004
10
-64.918415999999993
20
25.86964
10
-64.577390000000008
20
25.898447000000004
10
-64.241864000000007
20
25.965907000000001
10
-63.916205000000005
20
26.071142999999999
10
-63.604650999999997
20
26.212786000000001
10
-61.895122000000001
20
27.134932000000003
10
-60.20612100000001
20
28.094162000000004
10
-58.538457000000008
20
29.090022000000001
10
-56.89292300000001
20
30.122040000000002
10
-55.270302000000001
20
31.189722
10
-53.671368000000008
20
32.292562000000004
10
-52.096882999999998
20
33.430031999999997
10
-51.836370000000009
20
33.646355
10
-51.601898000000006
20
33.890661000000001
10
-51.396450000000009
20
34.159834000000004
10
-51.222646000000005
20
34.450443999999997
10
-51.082698000000008
20
34.758791000000002
10
-50.978391000000009
20
35.080944000000002
10
-50.91105300000001
20
35.412799999999997
10
-50.88154200000001
20
35.750129999999999
10
-50.890234000000007
20
36.088636999999999
10
-50.937018000000009
20
36.424008999999998
10
-51.021299000000006
20
36.751970999999998
10
-51.142001999999998
20
37.068347000000003
10
-51.297589000000002
20
37.369104
10
-51.486079000000004
20
37.650412000000003
10
-51.705070000000006
20
37.908687
10
-51.951771999999998
20
38.140636999999998
10
-63.146493
20
47.534123000000001
10
-63.468084000000005
20
47.828816000000003
10
-63.762772000000005
20
48.150412000000003
10
-64.028310000000005
20
48.49646700000001
10
-64.262676999999996
20
48.864349000000004
10
-64.464089000000001
20
49.25125700000001
10
-64.631012999999996
20
49.654246999999998
10
-64.762179000000003
20
50.070252000000011
10
-64.856589000000014
20
50.496106000000005
10
-64.913523999999995
20
50.928567999999999
10
-64.93255000000002
20
51.364346000000005
10
-64.913523999999995
20
51.800125000000001
10
-64.856589999999997
20
52.232587000000009
10
-64.762180999999998
20
52.65844100000001
10
-64.631015000000005
20
53.074446000000002
10
-64.464091999999994
20
53.477436000000004
10
-64.262680000000003
20
53.864345
10
-64.028313999999995
20
54.232227000000002
10
-63.762777
20
54.578282999999999
10
-48.183534000000002
20
73.144902999999999
10
-47.888849999999998
20
73.466504
10
-47.56725500000001
20
73.761195999999998
10
-47.221200000000003
20
74.026736999999997
10
-46.853318000000002
20
74.261105999999998
10
-46.466409000000006
20
74.462519999999998
10
-46.063417999999999
20
74.629446000000002
10
-45.647412000000003
20
74.760614000000004
10
-45.221556000000007
20
74.855024
10
-44.789093000000008
20
74.911958999999996
10
-44.353313000000007
20
74.930985000000007
10
-43.917533000000006
20
74.911957999999998
10
-43.485070000000007
20
74.855022000000005
10
-43.059215000000002
20
74.76061
10
-42.643209000000006
20
74.629441999999997
10
-42.240217999999999
20
74.462514999999996
10
-41.853310000000008
20
74.261099000000002
10
-41.485428000000006
20
74.026729000000003
10
-41.139374000000004
20
73.761187000000007
10
-29.944652000000005
20
64.367699999999999
10
-29.673391000000002
20
64.165017000000006
10
-29.381012999999999
20
63.994199999999999
10
-29.071247000000003
20
63.857421000000009
10
-28.748041000000004
20
63.756422000000008
10
-28.415511000000002
20
63.692489999999999
10
-28.077895000000002
20
63.666438999999997
10
-27.739493
20
63.678601999999998
10
-27.404619
20
63.72882400000001
10
-27.077537
20
63.816464000000011
10
-26.762415000000001
20
63.940407000000008
10
-26.463269
20
64.099072000000007
10
-26.183909
20
64.290439000000006
10
-25.927895000000003
20
64.512068999999997
10
-25.698488000000005
20
64.761139
10
-25.498611000000004
20
65.034475
10
-25.330811000000004
20
65.328595000000007
10
-24.515326000000002
20
67.010300000000001
10
-23.735335000000003
20
68.708758000000003
10
-22.991181000000005
20
70.423220999999998
10
-22.283193000000004
20
72.152932000000021
10
-21.611682999999999
20
73.897129000000007
10
-20.976946999999999
20
75.655041999999995
10
-20.379265000000004
20
77.425895999999995
10
-19.818899999999999
20
79.208910000000003
10
-19.296101
20
81.003298000000001
10
-18.811095999999999
20
82.808267999999998
10
-18.364101000000002
20
84.623024999999998
10
-17.955311999999999
20
86.446768000000006
10
-17.584910000000001
20
88.278693000000018
10
-17.253058000000003
20
90.117992999999998
10
-16.959900999999999
20
91.963854999999995
10
-16.705570999999999
20
93.815466000000001
10
-16.490178
20
95.672009000000017
10
-16.313817
20
97.53266600000002
10
-16.176568
20
99.396616000000009
10
-16.078489000000001
20
101.26303700000001
10
-16.019624
20
103.13110700000001
10
-16
20
105
10
-16.019624
20
106.86889300000001
10
-16.078489000000001
20
108.736963
10
-16.176568
20
110.60338400000001
10
-16.313817
20
112.46733399999999
10
-16.490178
20
114.327991
10
-16.705570999999999
20
116.184534
10
-16.959900999999999
20
118.03614500000002
10
-17.253058000000003
20
119.882007
10
-17.584910000000001
20
121.721307
10
-17.955311999999999
20
123.55323200000001
10
-18.364101000000002
20
125.376975
10
-18.811095999999999
20
127.191732
10
-19.296101
20
128.996702
10
-19.818899999999999
20
130.79109
10
-20.379265000000004
20
132.57410400000001
10
-20.976946999999999
20
134.34495800000002
10
-21.611682999999999
20
136.10287099999999
10
-22.283193000000004
20
137.84706800000004
10
-22.991181000000005
20
139.57677899999999
10
-23.735335000000003
20
141.29124200000001
10
-24.515326000000002
20
142.9897
10
-25.330811000000004
20
144.67140499999999
10
-25.498635000000004
20
144.965509
10
-25.698512000000004
20
145.23884200000001
10
-25.927918000000002
20
145.487909
10
-26.183930000000004
20
145.70953700000001
10
-26.463287999999999
20
145.900902
10
-26.762432
20
146.05956599999999
10
-27.077551
20
146.18350799999999
10
-27.404630000000001
20
146.27114800000001
10
-27.739502000000002
20
146.321371
10
-28.077900000000003
20
146.33353500000001
10
-28.415513000000004
20
146.30748700000001
10
-28.748041000000004
20
146.24355700000001
10
-29.071245000000001
20
146.142562
10
-29.38101
20
146.005786
10
-29.673387000000005
20
145.83497399999999
10
-29.944652000000005
20
145.63229999999999
10
-41.139374000000004
20
136.23881299999999
10
-41.485416999999998
20
135.97325699999999
10
-41.853299999999997
20
135.738889
10
-42.240209
20
135.53747600000003
10
-42.643200999999998
20
135.37055100000001
10
-43.059207999999998
20
135.239384
10
-43.485064000000008
20
135.14497399999999
10
-43.917527999999997
20
135.08804000000001
10
-44.353307999999998
20
135.06901400000001
10
-44.789088
20
135.088041
10
-45.221552000000003
20
135.14497700000001
10
-45.647407000000008
20
135.23938799999999
10
-46.063412999999997
20
135.37055599999999
10
-46.466405000000002
20
135.53748200000001
10
-46.853313999999997
20
135.73889700000001
10
-47.221195999999999
20
135.973266
10
-47.567252000000011
20
136.23880700000001
10
-47.888846999999998
20
136.53349800000001
10
-48.183534000000002
20
136.855097
10
-63.762777
20
155.421717
10
-64.028312
20
155.767776
10
-64.262680000000003
20
156.13565700000004
10
-64.464091999999994
20
156.52256499999999
10
-64.631017
20
156.925556
10
-64.762184000000005
20
157.34156100000001
10
-64.856594000000001
20
157.767415
10
-64.913528999999997
20
158.19987699999999
10
-64.932556000000005
20
158.63565600000001
10
-64.913530000000009
20
159.07143500000001
10
-64.856595999999996
20
159.50389699999999
10
-64.762186
20
159.92975100000001
10
-64.631020000000007
20
160.34575700000002
10
-64.464095999999998
20
160.74874700000004
10
-64.262683999999993
20
161.13565600000001
10
-64.028316000000004
20
161.50353800000002
10
-63.762778000000004
20
161.849594
10
-63.468088999999999
20
162.171189
10
-63.146493
20
162.46587700000003
10
-51.951771999999998
20
171.85936300000003
10
-51.705072000000001
20
172.09131500000001
10
-51.48608200000001
20
172.34958900000004
10
-51.297592000000009
20
172.630897
10
-51.142004000000007
20
172.93165400000004
10
-51.021302000000006
20
173.24803
10
-50.937021000000009
20
173.57599200000004
10
-50.890236999999999
20
173.91136299999999
10
-50.88154500000001
20
174.24986999999999
10
-50.911056000000002
20
174.5872
10
-50.978394000000009
20
174.91905499999999
10
-51.082701
20
175.24120800000003
10
-51.222648
20
175.549554
10
-51.396453000000008
20
175.84016500000001
10
-51.601900000000001
20
176.10933700000001
10
-51.836371999999997
20
176.35364300000003
10
-52.096882999999998
20
176.56996799999999
10
-53.627250000000004
20
177.67627300000001
10
-55.180743999999997
20
178.74986000000004
10
-56.756667000000007
20
179.790246
10
-58.35430800000001
20
180.79696200000001
10
-59.972948000000002
20
181.76955599999999
10
-61.611859000000003
20
182.70758799999999
10
-63.270303000000006
20
183.61063799999999
10
-64.947531999999995
20
184.478298
10
-66.642793000000012
20
185.31017800000001
10
-68.355322000000001
20
186.10590400000004
10
-70.084348000000006
20
186.865117
10
-71.829093
20
187.58747400000001
10
-73.588769999999997
20
188.27265299999999
10
-75.362589
20
188.92034200000001
10
-77.149749999999997
20
189.53025199999999
10
-78.949448000000018
20
190.10210799999999
10
-80.760874999999999
20
190.63565199999999
10
-82.583213000000001
20
191.13064300000002
10
-84.415643000000017
20
191.58686
10
-86.257339999999999
20
192.004096
10
-88.107474999999994
20
192.38216399999999
10
-89.965215000000001
20
192.72089399999999
10
-91.829723000000016
20
193.02013299999999
10
-93.700159999999997
20
193.27974600000002
10
-95.575683999999995
20
193.499617
10
-97.455451000000011
20
193.67964700000002
10
-99.338614000000007
20
193.81975400000002
10
-101.22432600000002
20
193.91987599999999
10
-103.111738
20
193.97996699999999
10
-105
20
194.00000000000003
10
-106.88826200000001
20
193.97996699999999
10
-108.77567400000001
20
193.91987599999999
10
-110.66138600000001
20
193.81975400000002
10
-112.544549
20
193.67964700000002
10
-114.424316
20
193.499617
10
-116.29984
20
193.27974600000002
10
-118.170277
20
193.02013299999999
10
-120.034785
20
192.72089399999999
10
-121.89252500000002
20
192.38216399999999
10
-123.74266
20
192.004096
10
-125.58435700000001
20
191.58686
10
-127.41678700000001
20
191.13064300000002
10
-129.239125
20
190.63565199999999
10
-131.05055200000004
20
190.10210799999999
10
-132.85024999999999
20
189.53025199999999
10
-134.63741099999999
20
188.92034200000001
10
-136.41122999999999
20
188.27265299999999
10
-138.170907
20
187.58747400000001
10
-139.91565199999999
20
186.865117
10
-141.644678
20
186.10590400000004
10
-143.35720699999999
20
185.31017800000001
10
-145.05246800000003
20
184.478298
10
-146.72969699999999
20
183.61063799999999
10
-148.38814100000002
20
182.70758799999999
10
-150.02705200000003
20
181.76955599999999
10
-151.645692
20
180.79696200000001
10
-153.24333300000001
20
179.790246
10
-154.819256
20
178.74986000000004
10
-156.37275
20
177.67627300000001
10
-157.90311700000001
20
176.56996799999999
10
-158.16363000000001
20
176.35364500000003
10
-158.39810199999999
20
176.10933900000003
10
-158.60355000000001
20
175.84016600000001
10
-158.777354
20
175.549556
10
-158.91730200000001
20
175.241209
10
-159.02160900000001
20
174.91905600000001
10
-159.08894699999999
20
174.5872
10
-159.11845800000003
20
174.24986999999999
10
-159.10976600000001
20
173.91136299999999
10
-159.06298200000003
20
173.57599099999999
10
-158.978701
20
173.24802900000003
10
-158.85799800000001
20
172.93165300000001
10
-158.70241100000001
20
172.63089600000001
10
-158.51392100000001
20
172.34958800000001
10
-158.29492999999999
20
172.09131300000001
10
-158.04822799999999
20
171.85936300000003
10
-146.85350700000001
20
162.46587700000003
10
-146.531916
20
162.17118400000001
10
-146.23722799999999
20
161.84958800000001
10
-145.97169000000002
20
161.50353300000003
10
-145.737323
20
161.135651
10
-145.535911
20
160.74874300000002
10
-145.368987
20
160.345753
10
-145.237821
20
159.92974799999999
10
-145.14341099999999
20
159.503894
10
-145.086476
20
159.07143200000002
10
-145.06745000000001
20
158.63565399999999
10
-145.086476
20
158.19987499999999
10
-145.14340999999999
20
157.767413
10
-145.237819
20
157.34155899999999
10
-145.36898500000001
20
156.92555400000001
10
-145.53590800000001
20
156.52256399999999
10
-145.73732000000001
20
156.13565500000001
10
-145.97168600000001
20
155.76777300000001
10
-146.237223
20
155.421717
10
-161.81646599999999
20
136.855097
10
-162.11116799999999
20
136.533513
10
-162.432762
20
136.238823
10
-162.77881600000001
20
135.97328300000001
10
-163.14669699999999
20
135.73891499999999
10
-163.533604
20
135.53750099999999
10
-163.93659400000001
20
135.370576
10
-164.352598
20
135.23940899999999
10
-164.77845200000002
20
135.14499799999999
10
-165.210914
20
135.08806200000004
10
-165.646692
20
135.06903500000001
10
-166.082471
20
135.08806100000001
10
-166.51493200000002
20
135.14499499999999
10
-166.940786
20
135.23940400000001
10
-167.35679099999999
20
135.37056999999999
10
-167.759782
20
135.53749500000004
10
-168.14669000000004
20
135.73890700000001
10
-168.51457100000002
20
135.973274
10
-168.860626
20
136.23881299999999
10
-180.05534800000004
20
145.63229999999999
10
-180.32659800000002
20
145.83499599999999
10
-180.618978
20
146.00581
10
-180.92874499999999
20
146.14258699999999
10
-181.25195299999999
20
146.243584
10
-181.58448300000001
20
146.30751400000003
10
-181.9221
20
146.33356200000003
10
-182.26050100000003
20
146.32139799999999
10
-182.59537599999999
20
146.271175
10
-182.92245800000001
20
146.18353400000001
10
-183.23757900000001
20
146.05959100000001
10
-183.53672599999999
20
145.900925
10
-183.81608600000004
20
145.70955900000001
10
-184.072101
20
145.48792900000001
10
-184.30150900000001
20
145.23885999999999
10
-184.50138699999999
20
144.96552399999999
10
-184.66918899999999
20
144.67140499999999
10
-185.48467400000004
20
142.9897
10
-186.26466500000004
20
141.29124200000001
10
-187.00881899999999
20
139.57677899999999
10
-187.71680700000002
20
137.84706800000004
10
-188.388317
20
136.10287099999999
10
-189.023053
20
134.34495800000002
10
-189.620735
20
132.57410400000001
10
-190.18110000000001
20
130.79109
10
-190.70389900000004
20
128.996702
10
-191.18890400000001
20
127.191732
10
-191.63589900000002
20
125.376975
10
-192.04468800000001
20
123.55323200000001
10
-192.41509000000002
20
121.721307
10
-192.74694199999999
20
119.882007
10
-193.040099
20
118.03614500000002
10
-193.29442900000004
20
116.184534
10
-193.50982200000004
20
114.327991
10
-193.68618300000003
20
112.46733399999999
10
-193.82343200000003
20
110.60338400000001
10
-193.92151100000004
20
108.736963
10
-193.98037600000004
20
106.86889300000001
10
-194.00000000000003
20
105
10
-193.98037600000004
20
103.13110700000001
10
-193.92151100000004
20
101.26303700000001
10
-193.82343200000003
20
99.396616000000009
10
-193.68618300000003
20
97.53266600000002
10
-193.50982200000004
20
95.672009000000017
10
-193.29442900000004
20
93.815466000000001
10
-193.040099
20
91.963854999999995
10
-192.74694199999999
20
90.117992999999998
10
-192.41509000000002
20
88.278693000000018
10
-192.04468800000001
20
86.446768000000006
10
-191.63589900000002
20
84.623024999999998
10
-191.18890400000001
20
82.808267999999998
10
-190.70389900000004
20
81.003298000000001
10
-190.18110000000001
20
79.208910000000003
10
-189.620735
20
77.425895999999995
10
-189.023053
20
75.655041999999995
10
-188.388317
20
73.897129000000007
10
-187.71680700000002
20
72.152932000000021
10
-187.00881899999999
20
70.423220999999998
10
-186.26466500000004
20
68.708758000000003
10
-185.48467400000004
20
67.010300000000001
10
-184.66918899999999
20
65.328595000000007
10
-184.50136499999999
20
65.034491000000003
10
-184.30148800000001
20
64.761157999999995
10
-184.07208199999999
20
64.512090999999998
10
-183.81607
20
64.290463000000003
10
-183.53671200000002
20
64.099097999999998
10
-183.23756800000001
20
63.94043400000001
10
-182.922449
20
63.816491999999997
10
-182.59537
20
63.728852000000003
10
-182.26049800000001
20
63.678629000000001
10
-181.9221
20
63.666465000000009
10
-181.58448700000002
20
63.692513000000005
10
-181.251959
20
63.756443000000004
10
-180.92875500000002
20
63.857438000000002
10
-180.61899
20
63.994214000000007
10
-180.32661300000001
20
64.165025999999997
10
-180.05534800000004
20
64.367699999999999
10
-168.860626
20
73.761187000000007
10
-168.51458300000002
20
74.026742999999996
10
-168.14670000000004
20
74.261111
10
-167.75979100000001
20
74.462524000000002
10
-167.35679900000002
20
74.629448999999994
10
-166.94079200000002
20
74.760615999999999
10
-166.51493600000003
20
74.855026000000009
10
-166.082472
20
74.911959999999993
10
-165.646692
20
74.930986000000004
10
-165.21091200000001
20
74.911958999999996
10
-164.778448
20
74.855023000000003
10
-164.35259300000001
20
74.760612000000009
10
-163.936587
20
74.629444000000007
10
-163.53359499999999
20
74.462518000000003
10
-163.14668600000002
20
74.26110300000002
10
-162.77880400000001
20
74.026734000000005
10
-162.432748
20
73.761193000000006
10
-162.111153
20
73.466502000000006
10
-161.81646599999999
20
73.144902999999999
10
-146.237223
20
54.578282999999999
10
-145.971688
20
54.232224000000002
10
-145.73732000000001
20
53.864343000000005
10
-145.53590800000001
20
53.477435
10
-145.36898299999999
20
53.074444000000007
10
-145.23781600000001
20
52.658439000000001
10
-145.143406
20
52.232585
10
-145.08647099999999
20
51.800123000000006
10
-145.06744399999999
20
51.364344000000003
10
-145.08646999999999
20
50.928564999999999
10
-145.14340400000003
20
50.496103000000005
10
-145.23781399999999
20
50.070249000000004
10
-145.36898000000002
20
49.654243000000008
10
-145.53590399999999
20
49.251253000000005
10
-145.73731599999999
20
48.864344000000003
10
-145.97168400000001
20
48.496462000000008
10
-146.237222
20
48.150405999999997
10
-146.53191100000001
20
47.828811000000002
10
-146.85350700000001
20
47.534123000000001
10
-158.04822799999999
20
38.140636999999998
10
-158.294928
20
37.908685000000006
10
-158.51391799999999
20
37.650410999999998
10
-158.70240799999999
20
37.369103000000003
10
-158.85799600000001
20
37.068345999999998
10
-158.97869800000001
20
36.75197
10
-159.06297900000001
20
36.424008000000001
10
-159.10976299999999
20
36.088636999999999
10
-159.11845500000001
20
35.750129999999999
10
-159.08894400000003
20
35.412799999999997
10
-159.02160599999999
20
35.080945
10
-158.91729900000001
20
34.758792
10
-158.77735200000001
20
34.450445999999999
10
-158.60354699999999
20
34.159835000000001
10
-158.3981
20
33.890663000000004
10
-158.16362800000002
20
33.646357000000002
10
-157.90311700000001
20
33.430031999999997
10
-156.32862900000001
20
32.292569
10
-154.72969699999999
20
31.189730000000004
10
-153.107079
20
30.122046999999998
10
-151.461547
20
29.090029000000005
10
-149.79388599999999
20
28.094166999999999
10
-148.10488899999999
20
27.134936
10
-146.39536100000001
20
26.212792
10
-146.08381800000001
20
26.071118999999999
0
LWPOLYLINE
5
101
100
AcDbEntity
8
0
100
AcDbPolyline
90
4
70
1
43
0.0
10
-153.5
20
126.5
10
-153.5
20
113.50000000000001
10
-173.5
20
113.50000000000001
10
-173.5
20
126.5
0
LWPOLYLINE
5
102
100
AcDbEntity
8
0
100
AcDbPolyline
90
4
70
1
43
0.0
10
-110
20
130
10
-110
20
110
10
-137
20
110
10
-137
20
130
0
LWPOLYLINE
5
103
100
AcDbEntity
8
0
100
AcDbPolyline
90
48
70
1
43
0.0
10
-86.715369999999993
20
160.02035699999999
10
-87.000000000000014
20
160
10
-123
20
160
10
-123.28463000000001
20
160.02035699999999
10
-123.56346500000001
20
160.08101400000001
10
-123.83083000000001
20
160.18073600000002
10
-124.081282
20
160.31749300000001
10
-124.309721
20
160.48850100000004
10
-124.51149900000001
20
160.69027900000003
10
-124.682507
20
160.91871800000004
10
-124.819264
20
161.16917000000001
10
-124.918986
20
161.43653499999999
10
-124.979643
20
161.71537000000001
10
-125
20
162
10
-125
20
168
10
-124.979643
20
168.28462999999999
10
-124.918986
20
168.56346500000001
10
-124.819264
20
168.83082999999999
10
-124.682507
20
169.08128199999999
10
-124.51149900000001
20
169.30972100000002
10
-124.309721
20
169.51149900000001
10
-124.081282
20
169.68250699999999
10
-123.83083000000001
20
169.81926400000003
10
-123.56346500000001
20
169.91898599999999
10
-123.28463000000001
20
169.97964300000004
10
-123
20
170
10
-87.000000000000014
20
170
10
-86.715369999999993
20
169.97964300000004
10
-86.436535000000006
20
169.91898599999999
10
-86.169169999999994
20
169.81926400000003
10
-85.918717999999998
20
169.68250699999999
10
-85.690279000000004
20
169.51149900000001
10
-85.488501000000014
20
169.30972100000002
10
-85.317492999999999
20
169.08128199999999
10
-85.180735999999996
20
168.83082999999999
10
-85.081013999999996
20
168.56346500000001
10
-85.020357000000004
20
168.28462999999999
10
-85
20
168
10
-85
20
162
10
-85.020357000000004
20
161.71537000000001
10
-85.081013999999996
20
161.43653499999999
10
-85.180735999999996
20
161.16917000000001
10
-85.317492999999999
20
160.91871800000004
10
-85.488501000000014
20
160.69027900000003
10
-85.690279000000004
20
160.48850100000004
10
-85.918717999999998
20
160.31749300000001
10
-86.169169999999994
20
160.18073600000002
10
-86.436535000000006
20
160.08101400000001
0
LWPOLYLINE
5
104
100
AcDbEntity
8
0
100
AcDbPolyline
90
4
70
1
43
0.0
10
-73
20
130
10
-73
20
110
10
-100
20
110
10
-100
20
130
0
LWPOLYLINE
5
105
100
AcDbEntity
8
0
100
AcDbPolyline
90
4
70
1
43
0.0
10
-36.5
20
126.5
10
-36.5
20
113.50000000000001
10
-56.5
20
113.50000000000001
10
-56.5
20
126.5
0
LWPOLYLINE
5
106
100
AcDbEntity
8
0
100
AcDbPolyline
90
4
70
1
43
0.0
10
-153.5
20
96.5
10
-153.5
20
83.5
10
-173.5
20
83.5
10
-173.5
20
96.5
0
LWPOLYLINE
5
107
100
AcDbEntity
8
0
100
AcDbPolyline
90
4
70
1
43
0.0
10
-110
20
100
10
-110
20
80
10
-137
20
80
10
-137
20
100
0
LWPOLYLINE
5
108
100
AcDbEntity
8
0
100
AcDbPolyline
90
4
70
1
43
0.0
10
-73
20
100
10
-73
20
80
10
-100
20
80
10
-100
20
100
0
LWPOLYLINE
5
109
100
AcDbEntity
8
0
100
AcDbPolyline
90
4
70
1
43
0.0
10
-36.5
20
96.5
10
-36.5
20
83.5
10
-56.5
20
83.5
10
-56.5
20
96.5
0
CIRCLE
5
110
100
AcDbEntity
8
0
100
AcDbCircle
10
-150.36200000000002
20
175.69900000000001
30
0
40
1.6000000000000003
210
0
220
0
230
1
0
CIRCLE
5
111
100
AcDbEntity
8
0
100
AcDbCircle
10
-146.058245
20
168.95483300000001
30
0
40
0.90000000000000013
210
0
220
0
230
1
0
CIRCLE
5
112
100
AcDbEntity
8
0
100
AcDbCircle
10
-128
20
181
30
0
40
1.5000000000000002
210
0
220
0
230
1
0
CIRCLE
5
113
100
AcDbEntity
8
0
100
AcDbCircle
10
-128
20
175
30
0
40
1.5000000000000002
210
0
220
0
230
1
0
CIRCLE
5
114
100
AcDbEntity
8
0
100
AcDbCircle
10
-143.357043
20
164.74727900000002
30
0
40
0.90000000000000013
210
0
220
0
230
1
0
CIRCLE
5
115
100
AcDbEntity
8
0
100
AcDbCircle
10
-137.86699999999999
20
150.85400000000001
30
0
40
1.6000000000000003
210
0
220
0
230
1
0
CIRCLE
5
116
100
AcDbEntity
8
0
100
AcDbCircle
10
-106.25
20
152.5
30
0
40
0.5
210
0
220
0
230
1
0
CIRCLE
5
117
100
AcDbEntity
8
0
100
AcDbCircle
10
-182.501
20
137.39599999999999
30
0
40
1.6000000000000003
210
0
220
0
230
1
0
CIRCLE
5
118
100
AcDbEntity
8
0
100
AcDbCircle
10
-155.86500000000001
20
129.405
30
0
40
1.6000000000000003
210
0
220
0
230
1
0
CIRCLE
5
119
100
AcDbEntity
8
0
100
AcDbCircle
10
-125
20
146
30
0
40
0.5
210
0
220
0
230
1
0
CIRCLE
5
120
100
AcDbEntity
8
0
100
AcDbCircle
10
-122.00000000000001
20
141
30
0
40
0.94999999999999996
210
0
220
0
230
1
0
CIRCLE
5
121
100
AcDbEntity
8
0
100
AcDbCircle
10
-117.00000000000001
20
141
30
0
40
0.94999999999999996
210
0
220
0
230
1
0
CIRCLE
5
122
100
AcDbEntity
8
0
100
AcDbCircle
10
-114
20
146
30
0
40
0.5
210
0
220
0
230
1
0
CIRCLE
5
123
100
AcDbEntity
8
0
100
AcDbCircle
10
-107.5
20
145
30
0
40
0.90000000000000013
210
0
220
0
230
1
0
CIRCLE
5
124
100
AcDbEntity
8
0
100
AcDbCircle
10
-108
20
132
30
0
40
1.6000000000000003
210
0
220
0
230
1
0
CIRCLE
5
125
100
AcDbEntity
8
0
100
AcDbCircle
10
-105
20
180
30
0
40
8.1000000000000014
210
0
220
0
230
1
0
CIRCLE
5
126
100
AcDbEntity
8
0
100
AcDbCircle
10
-82.000000000000014
20
181
30
0
40
1.5000000000000002
210
0
220
0
230
1
0
CIRCLE
5
127
100
AcDbEntity
8
0
100
AcDbCircle
10
-82.000000000000014
20
175
30
0
40
1.5000000000000002
210
0
220
0
230
1
0
CIRCLE
5
128
100
AcDbEntity
8
0
100
AcDbCircle
10
-103.75
20
152.5
30
0
40
0.5
210
0
220
0
230
1
0
CIRCLE
5
129
100
AcDbEntity
8
0
100
AcDbCircle
10
-66.642956999999996
20
164.74727900000002
30
0
40
0.90000000000000013
210
0
220
0
230
1
0
CIRCLE
5
130
100
AcDbEntity
8
0
100
AcDbCircle
10
-72.133200000000002
20
150.85400000000001
30
0
40
1.6000000000000003
210
0
220
0
230
1
0
CIRCLE
5
131
100
AcDbEntity
8
0
100
AcDbCircle
10
-59.637900000000002
20
175.69900000000001
30
0
40
1.6000000000000003
210
0
220
0
230
1
0
CIRCLE
5
132
100
AcDbEntity
8
0
100
AcDbCircle
10
-63.941829000000006
20
168.95488
30
0
40
0.90000000000000013
210
0
220
0
230
1
0
CIRCLE
5
133
100
AcDbEntity
8
0
100
AcDbCircle
10
-102.5
20
145
30
0
40
0.90000000000000013
210
0
220
0
230
1
0
CIRCLE
5
134
100
AcDbEntity
8
0
100
AcDbCircle
10
-102.00000000000001
20
132
30
0
40
1.6000000000000003
210
0
220
0
230
1
0
CIRCLE
5
135
100
AcDbEntity
8
0
100
AcDbCircle
10
-54.135100000000008
20
129.405
30
0
40
1.6000000000000003
210
0
220
0
230
1
0
CIRCLE
5
136
100
AcDbEntity
8
0
100
AcDbCircle
10
-27.498500000000003
20
137.39599999999999
30
0
40
1.6000000000000003
210
0
220
0
230
1
0
CIRCLE
5
137
100
AcDbEntity
8
0
100
AcDbCircle
10
-174.00000000000003
20
108
30
0
40
1.25
210
0
220
0
230
1
0
CIRCLE
5
138
100
AcDbEntity
8
0
100
AcDbCircle
10
-174.00000000000003
20
102.00000000000001
30
0
40
1.25
210
0
220
0
230
1
0
CIRCLE
5
139
100
AcDbEntity
8
0
100
AcDbCircle
10
-159
20
108
30
0
40
1.25
210
0
220
0
230
1
0
CIRCLE
5
140
100
AcDbEntity
8
0
100
AcDbCircle
10
-159
20
102.00000000000001
30
0
40
1.25
210
0
220
0
230
1
0
CIRCLE
5
141
100
AcDbEntity
8
0
100
AcDbCircle
10
-182.501
20
72.603700000000003
30
0
40
1.6000000000000003
210
0
220
0
230
1
0
CIRCLE
5
142
100
AcDbEntity
8
0
100
AcDbCircle
10
-155.86500000000001
20
80.594999999999999
30
0
40
1.6000000000000003
210
0
220
0
230
1
0
CIRCLE
5
143
100
AcDbEntity
8
0
100
AcDbCircle
10
-108
20
108
30
0
40
1.6000000000000003
210
0
220
0
230
1
0
CIRCLE
5
144
100
AcDbEntity
8
0
100
AcDbCircle
10
-108
20
102.00000000000001
30
0
40
1.6000000000000003
210
0
220
0
230
1
0
CIRCLE
5
145
100
AcDbEntity
8
0
100
AcDbCircle
10
-108
20
78
30
0
40
1.6000000000000003
210
0
220
0
230
1
0
CIRCLE
5
146
100
AcDbEntity
8
0
100
AcDbCircle
10
-150.36210700000001
20
34.301490000000001
30
0
40
1.6000000000000003
210
0
220
0
230
1
0
CIRCLE
5
147
100
AcDbEntity
8
0
100
AcDbCircle
10
-146.69362699999999
20
29.782705000000004
30
0
40
1.1000000000000001
210
0
220
0
230
1
0
CIRCLE
5
148
100
AcDbEntity
8
0
100
AcDbCircle
10
-137.86699999999999
20
59.145700000000005
30
0
40
1.6000000000000003
210
0
220
0
230
1
0
CIRCLE
5
149
100
AcDbEntity
8
0
100
AcDbCircle
10
-102.00000000000001
20
108
30
0
40
1.6000000000000003
210
0
220
0
230
1
0
CIRCLE
5
150
100
AcDbEntity
8
0
100
AcDbCircle
10
-102.00000000000001
20
102.00000000000001
30
0
40
1.6000000000000003
210
0
220
0
230
1
0
CIRCLE
5
151
100
AcDbEntity
8
0
100
AcDbCircle
10
-102.00000000000001
20
78
30
0
40
1.6000000000000003
210
0
220
0
230
1
0
CIRCLE
5
152
100
AcDbEntity
8
0
100
AcDbCircle
10
-51.000000000000007
20
108
30
0
40
1.25
210
0
220
0
230
1
0
CIRCLE
5
153
100
AcDbEntity
8
0
100
AcDbCircle
10
-51.000000000000007
20
102.00000000000001
30
0
40
1.25
210
0
220
0
230
1
0
CIRCLE
5
154
100
AcDbEntity
8
0
100
AcDbCircle
10
-36
20
108
30
0
40
1.25
210
0
220
0
230
1
0
CIRCLE
5
155
100
AcDbEntity
8
0
100
AcDbCircle
10
-36
20
102.00000000000001
30
0
40
1.25
210
0
220
0
230
1
0
CIRCLE
5
156
100
AcDbEntity
8
0
100
AcDbCircle
10
-54.135100000000008
20
80.594999999999999
30
0
40
1.6000000000000003
210
0
220
0
230
1
0
CIRCLE
5
157
100
AcDbEntity
8
0
100
AcDbCircle
10
-27.498500000000003
20
72.603700000000003
30
0
40
1.6000000000000003
210
0
220
0
230
1
0
CIRCLE
5
158
100
AcDbEntity
8
0
100
AcDbCircle
10
-72.133200000000002
20
59.145700000000005
30
0
40
1.6000000000000003
210
0
220
0
230
1
0
CIRCLE
5
159
100
AcDbEntity
8
0
100
AcDbCircle
10
-59.637893000000005
20
34.301490000000001
30
0
40
1.6000000000000003
210
0
220
0
230
1
0
CIRCLE
5
160
100
AcDbEntity
8
0
100
AcDbCircle
10
-63.306373000000001
20
29.782705000000004
30
0
40
1.1000000000000001
210
0
220
0
230
1
0
ENDSEC
0
SECTION
2
OBJECTS
0
DICTIONARY
5
C
100
AcDbDictionary
3
ACAD_GROUP
350
D
3
ACAD_MLINESTYLE
350
17
0
DICTIONARY
5
D
100
AcDbDictionary
0
DICTIONARY
5
1A
330
C
100
AcDbDictionary
0
DICTIONARY
5
17
100
AcDbDictionary
0
ENDSEC
0
EOF
