0
SECTION
2
HEADER
9
$INSUNITS
70
4
9
$ACADVER
1
AC1014
9
$HANDSEED
5
FFFF
0
ENDSEC
0
SECTION
2
TABLES
0
TABLE
2
VPORT
5
8
100
AcDbSymbolTable
0
ENDTAB
0
TABLE
2
LTYPE
5
5
100
AcDbSymbolTable
0
LTYPE
5
14
100
AcDbSymbolTableRecord
100
AcDbLinetypeTableRecord
2
BYBLOCK
70
0
0
LTYPE
5
15
100
AcDbSymbolTableRecord
100
AcDbLinetypeTableRecord
2
BYLAYER
70
0
0
ENDTAB
0
TABLE
2
LAYER
5
2
100
AcDbSymbolTable
70
2
0
LAYER
5
50
100
AcDbSymbolTableRecord
100
AcDbLayerTableRecord
2
0
70
0
6
CONTINUOUS
0
ENDTAB
0
TABLE
2
STYLE
5
3
100
AcDbSymbolTable
70
1
0
STYLE
5
11
100
AcDbSymbolTableRecord
100
AcDbTextStyleTableRecord
2
STANDARD
70
0
0
ENDTAB
0
TABLE
2
VIEW
5
6
100
AcDbSymbolTable
70
0
0
ENDTAB
0
TABLE
2
UCS
5
7
100
AcDbSymbolTable
70
0
0
ENDTAB
0
TABLE
2
APPID
5
9
100
AcDbSymbolTable
70
2
0
APPID
5
12
100
AcDbSymbolTableRecord
100
AcDbRegAppTableRecord
2
ACAD
70
0
0
ENDTAB
0
TABLE
2
DIMSTYLE
5
A
100
AcDbSymbolTable
70
1
0
ENDTAB
0
TABLE
2
BLOCK_RECORD
5
1
100
AcDbSymbolTable
70
1
0
BLOCK_RECORD
5
1F
100
AcDbSymbolTableRecord
100
AcDbBlockTableRecord
2
*MODEL_SPACE
0
BLOCK_RECORD
5
1B
100
AcDbSymbolTableRecord
100
AcDbBlockTableRecord
2
*PAPER_SPACE
0
ENDTAB
0
ENDSEC
0
SECTION
2
BLOCKS
0
BLOCK
5
20
100
AcDbEntity
100
AcDbBlockBegin
2
*MODEL_SPACE
0
ENDBLK
5
21
100
AcDbEntity
100
AcDbBlockEnd
0
BLOCK
5
1C
100
AcDbEntity
100
AcDbBlockBegin
2
*PAPER_SPACE
0
ENDBLK
5
1D
100
AcDbEntity
100
AcDbBlockEnd
0
ENDSEC
0
SECTION
2
ENTITIES
0
LWPOLYLINE
5
100
100
AcDbEntity
8
0
100
AcDbPolyline
90
102
70
1
43
0.0
10
-127.667563
20
90.075216000000012
10
-127.335893
20
90.01886300000001
10
-127.00000000000001
20
90
10
-87.000000000000014
20
90
10
-86.664107000000001
20
90.01886300000001
10
-86.332436999999999
20
90.075216000000012
10
-86.009163000000001
20
90.168350000000004
10
-85.698349000000007
20
90.297093000000004
10
-85.403903999999997
20
90.459827000000018
10
-85.129531000000014
20
90.654505999999998
10
-84.878680000000003
20
90.878680000000003
10
-84.654505999999998
20
91.129531
10
-84.459827000000004
20
91.403903999999997
10
-84.297093000000004
20
91.698348999999993
10
-84.168350000000004
20
92.009163000000015
10
-84.075216000000012
20
92.332437000000013
10
-84.018862999999996
20
92.664107000000001
10
-84
20
93
10
-84
20
97.000000000000014
10
-83.980784999999997
20
97.195090000000008
10
-83.923879999999997
20
97.382683000000014
10
-83.831469999999996
20
97.555570000000017
10
-83.707107000000008
20
97.707107000000008
10
-83.555570000000017
20
97.831469999999996
10
-83.382683000000014
20
97.923880000000011
10
-83.195089999999993
20
97.980785000000012
10
-83
20
98
10
-61.000000000000007
20
98
10
-60.71537
20
98.020357000000018
10
-60.436535000000006
20
98.081013999999996
10
-60.169170000000001
20
98.180735999999996
10
-59.918717999999998
20
98.317492999999999
10
-59.690279000000004
20
98.488500999999999
10
-59.488501000000007
20
98.690279000000004
10
-59.317492999999999
20
98.918718000000013
10
-59.180736000000003
20
99.169169999999994
10
-59.081014000000003
20
99.436535000000021
10
-59.020356999999997
20
99.715369999999993
10
-59
20
100
10
-59
20
110
10
-59.020356999999997
20
110.28463000000002
10
-59.081014000000003
20
110.56346500000001
10
-59.180736000000003
20
110.83083000000002
10
-59.317492999999999
20
111.08128200000002
10
-59.488501000000007
20
111.30972100000001
10
-59.690279000000004
20
111.511499
10
-59.918717999999998
20
111.68250700000002
10
-60.169170000000001
20
111.81926400000002
10
-60.436535000000006
20
111.91898600000002
10
-60.71537
20
111.97964300000001
10
-61.000000000000007
20
112.00000000000001
10
-83
20
112.00000000000001
10
-83.195089999999993
20
112.019215
10
-83.382683000000014
20
112.07612
10
-83.555570000000017
20
112.16853
10
-83.707107000000008
20
112.29289300000002
10
-83.831469999999996
20
112.44443000000001
10
-83.923879999999997
20
112.617317
10
-83.980784999999997
20
112.80491000000001
10
-84
20
113
10
-84
20
117.00000000000001
10
-84.018862999999996
20
117.335893
10
-84.075216000000012
20
117.667563
10
-84.168350000000004
20
117.990837
10
-84.297093000000004
20
118.30165100000002
10
-84.459827000000004
20
118.596096
10
-84.654505999999998
20
118.87046900000001
10
-84.878680000000003
20
119.12132
10
-85.129531000000014
20
119.34549400000002
10
-85.403903999999997
20
119.54017300000001
10
-85.698349000000007
20
119.702907
10
-86.009163000000001
20
119.83165
10
-86.332436999999999
20
119.92478400000002
10
-86.664107000000001
20
119.98113700000002
10
-87.000000000000014
20
120
10
-127.00000000000001
20
120
10
-127.335893
20
119.98113700000002
10
-127.667563
20
119.92478400000002
10
-127.990837
20
119.83165
10
-128.30165099999999
20
119.702907
10
-128.59609599999999
20
119.54017300000001
10
-128.87046900000001
20
119.34549400000002
10
-129.12132
20
119.12132
10
-129.34549400000003
20
118.87046900000001
10
-129.54017300000001
20
118.596096
10
-129.70290700000001
20
118.30165100000002
10
-129.83165
20
117.990837
10
-129.92478399999999
20
117.667563
10
-129.98113699999999
20
117.335893
10
-130
20
117.00000000000001
10
-130
20
93
10
-129.98113699999999
20
92.664107000000001
10
-129.92478399999999
20
92.332437000000013
10
-129.83165
20
92.009163000000015
10
-129.70290700000001
20
91.698348999999993
10
-129.54017300000001
20
91.403903999999997
10
-129.34549400000003
20
91.129531
10
-129.12132
20
90.878680000000003
10
-128.87046900000001
20
90.654505999999998
10
-128.59609599999999
20
90.459827000000018
10
-128.30165099999999
20
90.297093000000004
10
-127.990837
20
90.168350000000004
0
CIRCLE
5
101
100
AcDbEntity
8
0
100
AcDbCircle
10
-127.00000000000001
20
117.00000000000001
30
0
40
1.6000000000000003
210
0
220
0
230
1
0
CIRCLE
5
102
100
AcDbEntity
8
0
100
AcDbCircle
10
-75.418036000000001
20
106.65265100000001
30
0
40
0.40000000000000008
210
0
220
0
230
1
0
CIRCLE
5
103
100
AcDbEntity
8
0
100
AcDbCircle
10
-66.918036000000001
20
107.5
30
0
40
0.90000000000000013
210
0
220
0
230
1
0
CIRCLE
5
104
100
AcDbEntity
8
0
100
AcDbCircle
10
-127.00000000000001
20
93
30
0
40
1.6000000000000003
210
0
220
0
230
1
0
CIRCLE
5
105
100
AcDbEntity
8
0
100
AcDbCircle
10
-75.418036000000001
20
103.15265100000002
30
0
40
0.40000000000000008
210
0
220
0
230
1
0
CIRCLE
5
106
100
AcDbEntity
8
0
100
AcDbCircle
10
-66.918036000000001
20
102.5
30
0
40
0.90000000000000013
210
0
220
0
230
1
0
ENDSEC
0
SECTION
2
OBJECTS
0
DICTIONARY
5
C
100
AcDbDictionary
3
ACAD_GROUP
350
D
3
ACAD_MLINESTYLE
350
17
0
DICTIONARY
5
D
100
AcDbDictionary
0
DICTIONARY
5
1A
330
C
100
AcDbDictionary
0
DICTIONARY
5
17
100
AcDbDictionary
0
ENDSEC
0
EOF
